<?xml version="1.0" encoding="UTF-8"?>
<!-- Generator: Adobe Illustrator 16.0.0, SVG Export Plug-In . SVG Version: 6.00 Build 0)  -->
<!DOCTYPE svg PUBLIC "-//W3C//DTD SVG 1.1//EN" "http://www.w3.org/Graphics/SVG/1.1/DTD/svg11.dtd">
<svg version="1.1" id="Layer_1" xmlns="http://www.w3.org/2000/svg" xmlns:xlink="http://www.w3.org/1999/xlink" x="0px" y="0px" width="280px" height="280px" viewBox="0 0 280 280" enable-background="new 0 0 280 280" xml:space="preserve">
<rect x="0.112" fill-rule="evenodd" clip-rule="evenodd" fill="#FFFFFF" width="280" height="280.001"/>
<g>
	<path fill-rule="evenodd" clip-rule="evenodd" fill="#FFE2AE" stroke="#231F20" stroke-width="2" d="M170.257,181.463   c-2.141-8.444-7.229-25.594-8.568-30.403c-1.173-4.21-15.72-3.335-19.313-3.058c-3.589-0.277-18.129-1.152-19.299,3.058   c-1.346,4.81-6.435,21.959-8.575,30.403H170.257L170.257,181.463z"/>
	<path fill="none" stroke="#231F20" stroke-width="2" d="M142.375,180.907c9.256-4.584,25.271-4.811,40.149-0.997   c9.833,2.521,17.074,0.904,21.623-3.349c3.687-3.451,5.086-8.702,2.252-15.275c-1.314-3.049-2.339-6.103,1.319-10.22"/>
	<path fill="none" stroke="#231F20" stroke-width="2" d="M215.07,92.115c0,38.894-32.553,70.442-72.695,70.442   c-40.142,0-72.681-31.549-72.681-70.442s32.539-70.431,72.681-70.431C182.518,21.684,215.07,53.222,215.07,92.115L215.07,92.115z"/>
	<path fill-rule="evenodd" clip-rule="evenodd" fill="#FFE2AE" stroke="#231F20" stroke-width="2" d="M165.366,164.507   c10.567-2.657,19.812,8.256,12.843,20.076c1.979,0.471,4.453,1.127,7.05,1.997c2.683,0.897,2.431,3.279-0.505,3.279H99.996   c-2.932,0-3.181-2.382-0.5-3.279c2.592-0.87,5.062-1.526,7.05-1.997c-6.969-11.82,2.278-22.733,12.838-20.076H165.366   L165.366,164.507z"/>
	<path fill-rule="evenodd" clip-rule="evenodd" fill="#FFE2AE" stroke="#231F20" stroke-width="2" d="M165.366,164.507   c10.567-2.657,19.812,8.256,12.843,20.076c1.979,0.471,4.453,1.127,7.05,1.997c2.683,0.897,2.431,3.279-0.505,3.279H99.996   c-2.932,0-3.181-2.382-0.5-3.279c2.592-0.87,5.062-1.526,7.05-1.997c-6.969-11.82,2.278-22.733,12.838-20.076H165.366   L165.366,164.507z"/>
	<path fill-rule="evenodd" clip-rule="evenodd" fill="#FFE2AE" stroke="#231F20" stroke-width="2" d="M170.257,181.463   c-2.141-8.444-7.229-25.594-8.568-30.403c-1.173-4.21-15.72-3.335-19.313-3.058c-3.589-0.277-18.129-1.152-19.299,3.058   c-1.346,4.81-6.435,21.959-8.575,30.403H170.257L170.257,181.463z"/>
	<path fill-rule="evenodd" clip-rule="evenodd" fill="#5350A2" stroke="#231F20" stroke-width="2" d="M199.197,48.194   c9.913,12.05,15.857,27.306,15.857,43.914c0,5.396-0.638,10.631-1.827,15.678l-70.849-15.678L199.197,48.194L199.197,48.194z"/>
	<path fill-rule="evenodd" clip-rule="evenodd" fill="#EF5CA0" stroke="#231F20" stroke-width="2" d="M142.379,21.662   c23.003,0,43.483,10.368,56.818,26.532l-56.818,43.917V21.662L142.379,21.662z"/>
	<path fill-rule="evenodd" clip-rule="evenodd" fill="#F68E49" stroke="#231F20" stroke-width="2" d="M71.526,107.778   c-1.185-5.047-1.832-10.275-1.832-15.671c0-16.615,5.945-31.871,15.87-43.918l56.814,43.918L71.526,107.778L71.526,107.778z"/>
	<path fill-rule="evenodd" clip-rule="evenodd" fill="#A4CF62" stroke="#231F20" stroke-width="2" d="M173.923,155.591   c-9.542,4.462-20.243,6.97-31.54,6.97c-11.305,0-22.006-2.508-31.556-6.973l31.556-63.48L173.923,155.591L173.923,155.591z"/>
	<path fill-rule="evenodd" clip-rule="evenodd" fill="#F15B42" stroke="#231F20" stroke-width="2" d="M85.568,48.194   c13.319-16.161,33.812-26.529,56.815-26.529v70.442L85.568,48.194L85.568,48.194z"/>
	<path fill-rule="evenodd" clip-rule="evenodd" fill="#29B7EB" stroke="#231F20" stroke-width="2" d="M213.225,107.786   c-4.948,21.111-19.663,38.623-39.306,47.805l-31.54-63.483L213.225,107.786L213.225,107.786z"/>
	<path fill-rule="evenodd" clip-rule="evenodd" fill="#FCF059" stroke="#231F20" stroke-width="2" d="M71.526,107.778l70.853-15.671   l-31.548,63.48C91.184,146.405,76.473,128.889,71.526,107.778L71.526,107.778z"/>
	<path fill-rule="evenodd" clip-rule="evenodd" fill="#FFE2AE" stroke="#231F20" stroke-width="2" d="M139.825,167.494v19.112   c0,3.946-3.731,4.306-5.669,0.937c-2.607-4.523-7.447-13.568-10.281-18.364L139.825,167.494L139.825,167.494z"/>
	<path fill-rule="evenodd" clip-rule="evenodd" fill="#FFE2AE" stroke="#231F20" stroke-width="2" d="M144.925,167.494v19.112   c0,3.946,3.735,4.306,5.674,0.937c2.599-4.523,7.447-13.568,10.279-18.364L144.925,167.494L144.925,167.494z"/>
	<path fill-rule="evenodd" clip-rule="evenodd" fill="#FFE2AE" stroke="#231F20" stroke-width="2" d="M182.299,92.107   c0,21.389-17.881,38.738-39.924,38.738c-22.051,0-39.924-17.349-39.924-38.738c0-21.388,17.873-38.737,39.924-38.737   C164.418,53.37,182.299,70.72,182.299,92.107L182.299,92.107z"/>
	<path fill-rule="evenodd" clip-rule="evenodd" fill="#FDC17D" stroke="#FFD24F" stroke-width="2" d="M135.983,69.255   c-0.218,1.809-1.43,3.158-2.696,3.001c-1.265-0.133-2.118-1.727-1.884-3.523c0.225-1.815,1.422-3.157,2.684-3.013   C135.359,65.865,136.208,67.451,135.983,69.255L135.983,69.255z"/>
	<path fill-rule="evenodd" clip-rule="evenodd" fill="#FDC17D" stroke="#FFD24F" stroke-width="2" d="M148.774,69.255   c0.218,1.809,1.434,3.158,2.695,3.001c1.254-0.133,2.11-1.727,1.885-3.523c-0.218-1.815-1.422-3.157-2.691-3.013   C149.397,65.865,148.549,67.451,148.774,69.255L148.774,69.255z"/>
	<path fill="none" stroke="#231F20" stroke-width="2" d="M123.611,99.296c0.15,2.791,3.598,4.424,6.511,4.424   c4.664,0,9.328-2.724,12.261-6.911c2.925,4.188,7.581,6.911,12.256,6.911c2.918,0,6.358-1.634,6.515-4.424"/>
	<path fill-rule="evenodd" clip-rule="evenodd" fill="#F15B42" stroke="#231F20" stroke-width="2" d="M142.379,96.81   c-1.797,2.568-4.24,4.577-6.939,5.755l-0.019,0.026c0.593,4.294,4.156,8.271,6.951,8.271c2.806,0,6.377-3.988,6.966-8.286   C146.627,101.397,144.172,99.378,142.379,96.81L142.379,96.81z"/>
	<path fill-rule="evenodd" clip-rule="evenodd" fill="#A0674E" stroke="#231F20" stroke-width="2" d="M145.308,92.544   c0.589,0.1,0.664,0.371,0.232,0.816l-2.729,3.142c-0.237,0.285-0.639,0.285-0.879,0l-2.722-3.142   c-0.429-0.445-0.355-0.716,0.221-0.816C140.991,92.274,143.751,92.274,145.308,92.544L145.308,92.544z"/>
	<path fill-rule="evenodd" clip-rule="evenodd" fill="#5350A2" d="M218.771,136.089l1.215-2.768l-3.192,1.142l0.662-2.201   c-3.238,0.744-6.771,2.227-8.889,4.094c-4.103,3.624-4.939,9.331-2.022,15.723l0.104,0.233l0.275-0.034   c4.878-0.519,9.768-1.174,11.84-7.455c1.07-3.246,0.24-5.565,2.394-9.264L218.771,136.089L218.771,136.089z"/>
	<path fill-rule="evenodd" clip-rule="evenodd" fill="#EF5CA0" d="M218.764,144.826c1.07-3.246,0.249-5.566,2.394-9.264l-2.386,0.53   l1.219-2.771l-3.191,1.142l0.657-2.198c-1.724,0.393-3.521,1-5.153,1.768c-1.453,4.017-2.81,11.395-1.771,17.757   C214.062,151.089,217.212,149.536,218.764,144.826L218.764,144.826z"/>
	<path fill-rule="evenodd" clip-rule="evenodd" fill="#FCF059" d="M218.771,136.089l1.215-2.768l-3.192,1.142l0.662-2.201   c-0.765,0.174-1.537,0.389-2.298,0.637c-0.707,3.747-0.982,9.986,0.555,16.601c1.292-1.071,2.354-2.563,3.051-4.677   c1.07-3.246,0.24-5.565,2.394-9.264L218.771,136.089L218.771,136.089z"/>
	<path fill-rule="evenodd" clip-rule="evenodd" fill="#231F20" d="M217.506,144.589c-2.386,4.646-5.059,5.695-9.971,6.263   c-0.982-2.367-1.414-4.628-1.289-6.688c0.36-6.195,4.623-9.331,10.27-10.884l-0.152,2.024l2.512-0.941l-0.956,2.427l2.08-0.145   C219.397,138.85,218.962,141.739,217.506,144.589L217.506,144.589z M221.172,134.18l1.12-3.135l-3.238,1.09l0.425-2.05   c-4.251,1.094-8.827,2.594-11.852,5.273c-4.638,4.091-5.501,10.384-2.362,17.265l0.1,0.233l0.416,0.93l1.032-0.126l0.275-0.029   c4.722-0.504,10.063-1.96,13.063-8.741c1.481-3.347,2.521-8.282,3.125-11.128L221.172,134.18L221.172,134.18z"/>
	<path fill-rule="evenodd" clip-rule="evenodd" fill="#231F20" d="M120.775,81.521c-1.978,0.069-4.076-0.79-5.082-2.332   c0.765,1.99,2.123,3.443,4.756,3.735L120.775,81.521L120.775,81.521z"/>
	<path fill-rule="evenodd" clip-rule="evenodd" fill="#2DA0D4" d="M128.7,85.034c-0.643,2.913-3.208,4.842-5.72,4.332   c-2.511-0.52-4.033-3.302-3.391-6.218c0.635-2.897,3.192-4.835,5.704-4.317C127.813,79.35,129.338,82.128,128.7,85.034   L128.7,85.034z"/>
	<path fill-rule="evenodd" clip-rule="evenodd" fill="#FFFFFF" d="M125.554,81.902c-0.261,1.175-1.193,1.983-2.087,1.797   c-0.891-0.185-1.407-1.289-1.151-2.467c0.26-1.179,1.189-1.983,2.087-1.798C125.301,79.624,125.817,80.724,125.554,81.902   L125.554,81.902z"/>
	<path fill-rule="evenodd" clip-rule="evenodd" fill="#FFFFFF" d="M123.649,87.246c-0.161,0.77-0.795,1.285-1.396,1.167   c-0.588-0.123-0.94-0.849-0.779-1.616c0.172-0.771,0.799-1.297,1.399-1.175C123.474,85.746,123.822,86.468,123.649,87.246   L123.649,87.246z"/>
	<path fill-rule="evenodd" clip-rule="evenodd" fill="#FFFFFF" d="M127.694,86.097c-0.145,0.652-0.746,1.078-1.338,0.956   c-0.6-0.123-0.975-0.752-0.826-1.401c0.138-0.648,0.738-1.067,1.338-0.945C127.465,84.83,127.832,85.449,127.694,86.097   L127.694,86.097z"/>
	<path fill="none" stroke="#231F20" stroke-width="2" d="M128.7,85.034c-0.643,2.913-3.208,4.842-5.72,4.332   c-2.511-0.52-4.033-3.302-3.391-6.218c0.635-2.897,3.192-4.835,5.704-4.317C127.813,79.35,129.338,82.128,128.7,85.034   L128.7,85.034z"/>
	<path fill-rule="evenodd" clip-rule="evenodd" fill="#231F20" d="M163.979,81.521c1.981,0.069,4.08-0.79,5.089-2.332   c-0.771,1.99-2.129,3.443-4.76,3.735L163.979,81.521L163.979,81.521z"/>
	<path fill-rule="evenodd" clip-rule="evenodd" fill="#2DA0D4" d="M165.168,83.148c0.646,2.916-0.879,5.698-3.395,6.222   c-2.52,0.522-5.073-1.423-5.712-4.335c-0.639-2.906,0.876-5.677,3.391-6.196C161.973,78.313,164.529,80.25,165.168,83.148   L165.168,83.148z"/>
	<path fill-rule="evenodd" clip-rule="evenodd" fill="#FFFFFF" d="M161.524,87.353c0.02,0.782-0.458,1.438-1.07,1.457   c-0.604,0.019-1.127-0.612-1.155-1.394c-0.026-0.782,0.455-1.445,1.067-1.46C160.978,85.938,161.497,86.567,161.524,87.353   L161.524,87.353z"/>
	<path fill-rule="evenodd" clip-rule="evenodd" fill="#FFFFFF" d="M164.729,84.712c0.019,0.667-0.455,1.218-1.059,1.23   c-0.624,0.022-1.133-0.501-1.147-1.167c-0.027-0.66,0.451-1.208,1.069-1.23C164.196,83.529,164.705,84.052,164.729,84.712   L164.729,84.712z"/>
	<path fill="none" stroke="#231F20" stroke-width="2" d="M165.168,83.148c0.646,2.916-0.879,5.698-3.395,6.222   c-2.52,0.522-5.073-1.423-5.712-4.335c-0.639-2.906,0.876-5.677,3.391-6.196C161.973,78.313,164.529,80.25,165.168,83.148   L165.168,83.148z"/>
	<path fill-rule="evenodd" clip-rule="evenodd" fill="#FFFFFF" d="M161.023,81.818c0.034,1.208-0.677,2.208-1.587,2.226   c-0.921,0.03-1.688-0.922-1.728-2.131c-0.034-1.2,0.673-2.2,1.594-2.223C160.218,79.661,160.985,80.621,161.023,81.818   L161.023,81.818z"/>
	<path fill-rule="evenodd" clip-rule="evenodd" fill="#231F20" d="M62.293,212.323c0.887,0,1.476-0.472,1.476-1.338v-0.893   c0-0.875-0.68-1.383-1.575-1.383H38.529c-0.894,0-1.567,0.508-1.567,1.383v0.93c0,0.893,0.619,1.301,1.513,1.301h8.392   c0.895,0,1.625,0.703,1.625,1.571v14.014c0,0.867,0.528,1.523,1.418,1.523h0.967c0.918,0,1.357-0.638,1.357-1.505v-14.032   c0-0.868,0.727-1.571,1.618-1.571H62.293L62.293,212.323z"/>
	<path fill-rule="evenodd" clip-rule="evenodd" fill="#231F20" d="M94.2,208.388h-1.146c-0.826,0-1.384,0.63-1.384,1.464v18.197   c0,0.805,0.627,1.39,1.368,1.39h1.224c0.788,0,1.296-0.589,1.296-1.441v-18.18C95.558,208.962,95.091,208.388,94.2,208.388   L94.2,208.388z"/>
	<path fill-rule="evenodd" clip-rule="evenodd" fill="#231F20" d="M111.683,226.734l-9.114-7.574   c-0.355-0.271-0.222-0.757,0.038-0.986l8.49-7.052c0.73-0.556,0.77-1.419,0.268-1.99l-0.581-0.674   c-0.493-0.566-1.19-0.692-2.011-0.067l-11.396,9.469c-0.624,0.566-0.592,1.204,0.019,1.822l11.89,9.786   c0.708,0.56,1.468,0.467,1.931-0.059l0.657-0.753C112.356,228.09,112.33,227.337,111.683,226.734L111.683,226.734z"/>
	<path fill-rule="evenodd" clip-rule="evenodd" fill="#231F20" d="M138.567,210.944c0.562-0.549,0.696-1.245,0.099-1.868   l-0.691-0.666c-0.646-0.615-1.457-0.582-2.126,0.055l-7.998,7.768c-0.436,0.422-1.155,0.422-1.583,0l-8.001-7.768   c-0.646-0.615-1.46-0.667-2.065-0.122l-0.711,0.692c-0.566,0.527-0.566,1.294,0.061,1.905l8.854,8.59   c0.608,0.56,0.788,1.156,0.788,1.838v6.6c0,0.896,0.643,1.471,1.376,1.471h1.002c0.807,0,1.353-0.525,1.353-1.468v-6.603   c0-0.7,0.214-1.286,0.788-1.838L138.567,210.944L138.567,210.944z"/>
	<path fill-rule="evenodd" clip-rule="evenodd" fill="#231F20" d="M68.166,218.985c0-4.239,3.566-7.688,7.94-7.688   c4.373,0,7.937,3.449,7.937,7.688c0,4.247-3.564,7.697-7.937,7.697C71.732,226.683,68.166,223.232,68.166,218.985L68.166,218.985z    M64.445,218.985c0,6.236,5.23,11.302,11.661,11.302c6.435,0,11.66-5.065,11.66-11.302c0-6.229-5.226-11.298-11.66-11.298   C69.675,207.688,64.445,212.756,64.445,218.985L64.445,218.985z"/>
	<path fill-rule="evenodd" clip-rule="evenodd" fill="#231F20" d="M143.835,218.985c0-4.239,3.563-7.688,7.944-7.688   c4.378,0,7.933,3.449,7.933,7.688c0,4.247-3.555,7.697-7.933,7.697C147.398,226.683,143.835,223.232,143.835,218.985   L143.835,218.985z M140.112,218.985c0,6.236,5.229,11.302,11.667,11.302c6.423,0,11.661-5.065,11.661-11.302   c0-6.229-5.238-11.298-11.661-11.298C145.341,207.688,140.112,212.756,140.112,218.985L140.112,218.985z"/>
	<path fill-rule="evenodd" clip-rule="evenodd" fill="#231F20" d="M217.063,224.771l-10.594-14.282   c-0.681-0.926-1.877-0.926-2.508-0.077l-6.699,8.623c-0.244,0.314-0.576,0.515-0.962,0.515c-0.387,0-0.724-0.2-0.972-0.515   l-6.693-8.623c-0.64-0.849-1.828-0.849-2.512,0.077l-10.599,14.282c-0.523,0.703-0.451,1.511,0.272,2.022l0.764,0.533   c0.719,0.504,1.457,0.278,1.977-0.426l7.968-10.724c0.52-0.696,1.38-0.704,1.923-0.019l6.637,8.549   c0.332,0.399,0.78,0.618,1.235,0.618c0.439,0,0.891-0.219,1.223-0.618l6.641-8.549c0.539-0.686,1.403-0.678,1.923,0.019   l7.968,10.724c0.516,0.704,1.254,0.93,1.977,0.426l0.764-0.533C217.521,226.281,217.586,225.474,217.063,224.771L217.063,224.771z"/>
	<path fill-rule="evenodd" clip-rule="evenodd" fill="#231F20" d="M221.198,228.608c-0.558-0.645-0.354-1.456,0.333-2.016   l8.33-6.896c0.686-0.563,0.686-1.49,0-2.05l-7.775-6.447c-0.677-0.56-0.906-1.353-0.264-2.061l0.592-0.688   c0.586-0.66,1.357-0.611,2.038-0.045l8.276,6.87c0.685,0.56,1.797,0.56,2.474,0l8.292-6.907c0.686-0.556,1.446-0.556,2.024,0.096   l0.614,0.727c0.578,0.66,0.406,1.431-0.279,1.993l-7.776,6.463c-0.685,0.56-0.685,1.486,0,2.05l8.393,6.914   c0.675,0.567,0.837,1.39,0.252,2.042l-0.612,0.699c-0.576,0.665-1.354,0.591-2.026,0.034l-8.881-7.318   c-0.677-0.563-1.789-0.563-2.474,0l-8.784,7.267c-0.681,0.563-1.465,0.712-2.042,0.052L221.198,228.608L221.198,228.608z"/>
</g>
</svg>