<?xml version="1.0" encoding="UTF-8" standalone="no"?>
<!-- Generator: Adobe Illustrator 16.0.0, SVG Export Plug-In . SVG Version: 6.00 Build 0)  -->

<svg
   version="1.1"
   id="Layer_1"
   x="0px"
   y="0px"
   width="34px"
   height="34px"
   viewBox="0 0 34 34"
   enable-background="new 0 0 34 34"
   xml:space="preserve"
   sodipodi:docname="switch.svg"
   inkscape:version="1.4 (e7c3feb100, 2024-10-09)"
   xmlns:inkscape="http://www.inkscape.org/namespaces/inkscape"
   xmlns:sodipodi="http://sodipodi.sourceforge.net/DTD/sodipodi-0.dtd"
   xmlns="http://www.w3.org/2000/svg"
   xmlns:svg="http://www.w3.org/2000/svg"><defs
   id="defs4" /><sodipodi:namedview
   id="namedview4"
   pagecolor="#ffffff"
   bordercolor="#000000"
   borderopacity="0.25"
   inkscape:showpageshadow="2"
   inkscape:pageopacity="0.0"
   inkscape:pagecheckerboard="0"
   inkscape:deskcolor="#d1d1d1"
   inkscape:zoom="18.294118"
   inkscape:cx="16.972669"
   inkscape:cy="17"
   inkscape:window-width="1600"
   inkscape:window-height="824"
   inkscape:window-x="0"
   inkscape:window-y="0"
   inkscape:window-maximized="1"
   inkscape:current-layer="Layer_1" />
<path
   fill="#E4E5E8"
   d="M33.955,17.062c0,2.346-0.441,4.556-1.325,6.63c-0.886,2.072-2.101,3.887-3.644,5.438  c-1.545,1.552-3.349,2.772-5.413,3.66c-2.063,0.889-4.261,1.334-6.596,1.334c-2.334,0-4.534-0.445-6.596-1.334  c-2.064-0.888-3.869-2.108-5.413-3.66s-2.757-3.366-3.643-5.438C0.442,21.617,0,19.407,0,17.062c0-2.346,0.442-4.555,1.326-6.629  c0.885-2.074,2.098-3.886,3.643-5.438c1.544-1.552,3.349-2.772,5.413-3.662C12.444,0.444,14.643,0,16.978,0  c2.335,0,4.533,0.444,6.596,1.332c2.064,0.89,3.868,2.11,5.413,3.662c1.543,1.552,2.758,3.364,3.644,5.438  C33.514,12.507,33.955,14.715,33.955,17.062z"
   id="path1"
   style="fill:#ffffff" />
<path
   fill="#E4E5E8"
   d="M31.479,17.062c0-2.014-0.383-3.904-1.15-5.67c-0.766-1.765-1.803-3.305-3.111-4.621  c-1.31-1.315-2.843-2.357-4.599-3.127c-1.757-0.771-3.638-1.156-5.642-1.156c-2.005,0-3.886,0.385-5.642,1.156  c-1.757,0.77-3.289,1.812-4.598,3.127c-1.309,1.316-2.346,2.856-3.112,4.621c-0.767,1.766-1.15,3.656-1.15,5.67  c0,2.015,0.383,3.905,1.15,5.67c0.766,1.766,1.803,3.306,3.112,4.621c1.31,1.314,2.841,2.357,4.598,3.128  c1.756,0.77,3.637,1.154,5.642,1.154c2.004,0,3.885-0.385,5.642-1.154c1.756-0.771,3.289-1.813,4.599-3.128  c1.309-1.315,2.346-2.855,3.111-4.621C31.097,20.967,31.479,19.076,31.479,17.062z"
   id="path2"
   style="fill:#ffffff" />
<path
   fill="#FFFFFF"
   d="M26.068,17.63c0,1.138-0.212,2.252-0.637,3.341c-0.425,1.091-1.026,2.057-1.805,2.897  c-0.777,0.842-1.716,1.522-2.813,2.045c-1.095,0.521-2.328,0.781-3.696,0.781c-1.367,0-2.6-0.261-3.696-0.781  c-1.097-0.522-2.034-1.203-2.812-2.045c-0.777-0.841-1.373-1.807-1.786-2.897c-0.413-1.089-0.619-2.203-0.619-3.341  c0-1.303,0.284-2.57,0.849-3.803c0.566-1.232,1.485-2.311,2.759-3.235c0.259-0.189,0.554-0.284,0.884-0.284  c0.354,0,0.661,0.136,0.919,0.408c0.259,0.273,0.39,0.599,0.39,0.978c0,0.427-0.166,0.794-0.495,1.102  c-0.874,0.639-1.51,1.393-1.911,2.258c-0.4,0.865-0.6,1.747-0.6,2.647c0,0.783,0.141,1.547,0.424,2.293  c0.282,0.747,0.689,1.41,1.219,1.99c0.531,0.582,1.173,1.049,1.929,1.404c0.754,0.354,1.603,0.532,2.546,0.532  s1.797-0.178,2.565-0.532c0.766-0.355,1.415-0.822,1.945-1.404c0.53-0.58,0.938-1.243,1.221-1.99  c0.282-0.746,0.425-1.511,0.425-2.293c0-0.9-0.201-1.782-0.602-2.647c-0.401-0.865-1.038-1.619-1.91-2.258  c-0.354-0.285-0.531-0.651-0.531-1.102c0-0.379,0.13-0.705,0.389-0.978c0.259-0.272,0.579-0.408,0.956-0.408  c0.307,0,0.589,0.094,0.849,0.284c1.272,0.924,2.198,2.003,2.776,3.235C25.778,15.06,26.068,16.327,26.068,17.63z"
   id="path3"
   style="fill:#626767;fill-opacity:1" />
<path
   fill="#FFFFFF"
   d="M18.499,17.31c0,0.475-0.106,0.825-0.318,1.048c-0.213,0.226-0.567,0.339-1.062,0.339  c-0.92,0-1.379-0.463-1.379-1.387V8.389c0-0.498,0.111-0.853,0.335-1.067c0.225-0.212,0.571-0.319,1.043-0.319  c0.495,0,0.849,0.107,1.062,0.319c0.212,0.214,0.318,0.57,0.318,1.067V17.31z"
   id="path4"
   style="fill:#626767;fill-opacity:1" />
</svg>
