<?xml version="1.0" encoding="utf-8"?>
<!-- Generator: Adobe Illustrator 16.0.0, SVG Export Plug-In . SVG Version: 6.00 Build 0)  -->
<!DOCTYPE svg PUBLIC "-//W3C//DTD SVG 1.1//EN" "http://www.w3.org/Graphics/SVG/1.1/DTD/svg11.dtd">
<svg version="1.1" id="Layer_1" xmlns="http://www.w3.org/2000/svg" xmlns:xlink="http://www.w3.org/1999/xlink" x="0px" y="0px"
	 width="2022px" height="88px" viewBox="0 0 2022 88" enable-background="new 0 0 2022 88" xml:space="preserve">
<rect fill="#911A27" width="2022" height="88"/>
<linearGradient id="SVGID_1_" gradientUnits="userSpaceOnUse" x1="31.21" y1="45" x2="93.5582" y2="45">
	<stop  offset="0.49" style="stop-color:#EC203B"/>
	<stop  offset="0.5" style="stop-color:#C53D27"/>
	<stop  offset="1" style="stop-color:#C53D27"/>
</linearGradient>
<ellipse fill="url(#SVGID_1_)" cx="62.295" cy="45" rx="32.17" ry="32.076"/>
<line fill="none" x1="87.787" y1="64.557" x2="88.042" y2="64.232"/>
<g>
	<path fill="#FFFFFF" d="M72.133,29.87c0.465-0.629,1.122-1.006,1.97-1.133c0.848-0.125,1.587,0.197,2.22,0.968
		c0.631,0.771,0.631,1.613,0,2.525L65.548,45.683l12.819,15.906c0.465,0.599,0.574,1.156,0.324,1.676s-0.624,0.944-1.123,1.274
		c-0.499,0.331-1.089,0.473-1.771,0.425c-0.682-0.047-1.239-0.338-1.671-0.873L62.506,49.742L50.983,64.091
		c-0.433,0.535-0.965,0.818-1.596,0.85c-1.031,0.095-1.871-0.252-2.519-1.038s-0.657-1.558-0.025-2.313l12.819-15.906L48.739,32.23
		c-0.499-0.629-0.632-1.211-0.399-1.747c0.232-0.535,0.59-0.975,1.072-1.322c0.482-0.346,1.081-0.472,1.796-0.377
		c0.714,0.094,1.322,0.457,1.82,1.085l9.527,11.848L72.133,29.87z"/>
</g>
</svg>
