<?xml version="1.0" encoding="UTF-8" standalone="no"?>
<!-- Generator: Adobe Illustrator 16.0.0, SVG Export Plug-In . SVG Version: 6.00 Build 0)  -->

<svg
   version="1.1"
   id="Layer_1"
   x="0px"
   y="0px"
   width="32px"
   height="32px"
   viewBox="0 0 32 32"
   enable-background="new 0 0 32 32"
   xml:space="preserve"
   sodipodi:docname="github.svg"
   inkscape:version="1.2.2 (732a01da63, 2022-12-09)"
   xmlns:inkscape="http://www.inkscape.org/namespaces/inkscape"
   xmlns:sodipodi="http://sodipodi.sourceforge.net/DTD/sodipodi-0.dtd"
   xmlns="http://www.w3.org/2000/svg"
   xmlns:svg="http://www.w3.org/2000/svg"><defs
   id="defs9" /><sodipodi:namedview
   id="namedview7"
   pagecolor="#ffffff"
   bordercolor="#000000"
   borderopacity="0.25"
   inkscape:showpageshadow="2"
   inkscape:pageopacity="0.0"
   inkscape:pagecheckerboard="0"
   inkscape:deskcolor="#d1d1d1"
   showgrid="false"
   inkscape:zoom="25.9375"
   inkscape:cx="16.096386"
   inkscape:cy="16.057831"
   inkscape:window-width="1920"
   inkscape:window-height="991"
   inkscape:window-x="-9"
   inkscape:window-y="-9"
   inkscape:window-maximized="1"
   inkscape:current-layer="Layer_1" />
<g
   id="g4"
   style="fill:#3c3c3c;fill-opacity:1">
	<path
   fill-rule="evenodd"
   clip-rule="evenodd"
   fill="#FFFFFF"
   d="M18.748,31.989c-1.957,0-3.914,0-5.871,0   c-0.167-0.661-0.909-0.574-1.202-0.561c-0.837,0.039-1.489-0.338-2.168-0.639c-2.399-1.065-4.425-2.629-6.077-4.681   c-1.345-1.671-2.35-3.507-2.943-5.578c-0.123-0.43-0.112-0.934-0.477-1.282c0-2.165,0-4.331,0-6.496   c0.176-0.131,0.207-0.323,0.256-0.525c0.635-2.581,1.834-4.879,3.59-6.867C5.451,3.555,7.352,2.13,9.57,1.166   c1.258-0.546,2.537-0.978,3.961-0.92c1.744,0.071,3.493,0.04,5.239,0.006c0.754-0.015,1.458,0.125,2.164,0.358   c1.941,0.639,3.682,1.611,5.271,2.905c2.302,1.875,3.927,4.221,5.002,6.954c0.352,0.892,0.526,1.854,0.781,2.784   c0,1.832,0,3.664,0,5.496c-0.251,0.184-0.087,0.458-0.146,0.686c-0.646,2.496-1.708,4.77-3.363,6.778   c-1.968,2.389-4.41,4.066-7.297,5.112C20.396,31.611,19.562,31.771,18.748,31.989z M7.673,5.295   C7.518,5.412,7.355,5.52,7.209,5.647c-1.502,1.312-2.788,2.81-3.635,4.623c-0.979,2.095-1.434,4.302-1.333,6.64   c0.078,1.811,0.5,3.502,1.239,5.142c1.166,2.589,3,4.578,5.432,6.003c0.913,0.535,1.861,1.055,2.946,1.233c0-0.813,0-1.58,0-2.347   c-0.847,0.069-1.669,0.255-2.504,0.052c-1.021-0.248-1.978-0.634-2.505-1.6c-0.693-1.271-1.316-2.579-2.622-3.37   c-0.197-0.119-0.288-0.33-0.201-0.539c0.115-0.275,0.385-0.352,0.663-0.36c1.276-0.037,2.168,0.605,2.816,1.638   c0.75,1.195,1.807,1.723,3.216,1.615c0.906-0.069,1.091-0.179,1.362-1.027c0.067-0.211,0.142-0.427,0.255-0.615   c0.31-0.518,0.291-0.526-0.323-0.619c-1.562-0.235-3-0.769-4.186-1.856c-1.459-1.341-2.02-3.094-2.187-4.987   c-0.165-1.865,0.126-3.646,1.339-5.165C7.15,9.896,7.169,9.68,7.11,9.469C6.824,8.437,6.905,7.412,7.144,6.391   C7.235,6,7.417,5.639,7.765,5.394c1.266,0.014,2.371,0.511,3.443,1.124c0.311,0.177,0.595,0.536,0.963,0.459   c0.801-0.166,1.604-0.264,2.414-0.37c1.386-0.182,2.748-0.117,4.107,0.136c0.817,0.152,1.529,0.235,2.322-0.323   c0.989-0.696,2.171-1.094,3.453-1.032C19.414,1.57,12.73,1.518,7.673,5.295z M20.122,29.421c5.6-1.756,9.536-6.773,9.7-13.072   c0.099-3.789-2.647-9.565-5.18-10.711c-0.044,0.11,0.028,0.193,0.062,0.291c0.347,1.039,0.597,2.098,0.279,3.186   c-0.15,0.513,0.013,0.846,0.29,1.279c0.479,0.747,0.847,1.561,0.99,2.479c0.168,1.078,0.142,2.14-0.031,3.196   c-0.228,1.388-0.718,2.665-1.709,3.726c-1.429,1.529-3.284,2.057-5.285,2.347c0.648,0.717,0.905,1.542,0.891,2.486   C20.104,26.206,20.122,27.787,20.122,29.421z"
   id="path2"
   style="fill:#3c3c3c;fill-opacity:1" />
</g>
</svg>
