<?xml version="1.0" encoding="utf-8"?>
<!-- Generator: Adobe Illustrator 16.0.0, SVG Export Plug-In . SVG Version: 6.00 Build 0)  -->
<!DOCTYPE svg PUBLIC "-//W3C//DTD SVG 1.1//EN" "http://www.w3.org/Graphics/SVG/1.1/DTD/svg11.dtd">
<svg version="1.1" id="Layer_1" xmlns="http://www.w3.org/2000/svg" xmlns:xlink="http://www.w3.org/1999/xlink" x="0px" y="0px"
	 width="2022px" height="88px" viewBox="0 0 2022 88" enable-background="new 0 0 2022 88" xml:space="preserve">
<linearGradient id="SVGID_1_" gradientUnits="userSpaceOnUse" x1="1010.9995" y1="0" x2="1010.9995" y2="88.0005">
	<stop  offset="0" style="stop-color:#FBCB68"/>
	<stop  offset="1" style="stop-color:#F4911E"/>
</linearGradient>
<rect fill="url(#SVGID_1_)" width="2022" height="88"/>
<rect x="39.651" y="33.918" fill="#FFFFFF" width="45.288" height="43.568"/>
<linearGradient id="SVGID_2_" gradientUnits="userSpaceOnUse" x1="56.4014" y1="55.04" x2="56.4014" y2="77.4863">
	<stop  offset="0" style="stop-color:#F7A83C"/>
	<stop  offset="1" style="stop-color:#F4911E"/>
</linearGradient>
<rect x="48.57" y="55.04" fill="url(#SVGID_2_)" width="15.663" height="22.446"/>
<linearGradient id="SVGID_3_" gradientUnits="userSpaceOnUse" x1="67.5972" y1="62.8613" x2="80.0229" y2="62.8613">
	<stop  offset="0" style="stop-color:#F7A83C"/>
	<stop  offset="1" style="stop-color:#F4911E"/>
</linearGradient>
<rect x="67.597" y="56.286" fill="url(#SVGID_3_)" width="12.426" height="13.151"/>
<polygon fill="#FFFFFF" points="61.949,34.813 37.896,35.454 49.57,21.896 61.243,8.338 73.622,21.254 86.001,34.17 "/>
<linearGradient id="SVGID_4_" gradientUnits="userSpaceOnUse" x1="33.6885" y1="34.9619" x2="39.6162" y2="34.9619">
	<stop  offset="0" style="stop-color:#F9B951"/>
	<stop  offset="1" style="stop-color:#F9B74F"/>
</linearGradient>
<path fill="url(#SVGID_4_)" d="M39.616,36.474c0,0-0.206-5.086-0.093-5.012c0.113,0.074-5.891,5.18-5.834,5.255
	c0.057,0.075,3.142,1.87,3.759,1.739C38.065,38.325,39.616,36.474,39.616,36.474z"/>
<linearGradient id="SVGID_5_" gradientUnits="userSpaceOnUse" x1="83.769" y1="34.1689" x2="91.4771" y2="34.1689">
	<stop  offset="0" style="stop-color:#F9B951"/>
	<stop  offset="1" style="stop-color:#F9B74F"/>
</linearGradient>
<path fill="url(#SVGID_5_)" d="M84.81,34.962l5.25,3.749l1.417-7.542l-3.333-0.75c0,0-2.459,0.75-2.667,0.708s-1.708-1.5-1.708-1.5"
	/>
<line fill="#A090C5" stroke="#FFFFFF" stroke-width="2" stroke-miterlimit="10" x1="73.811" y1="56.286" x2="73.811" y2="69.438"/>
<line fill="#A090C5" stroke="#FFFFFF" stroke-width="2" stroke-miterlimit="10" x1="67.597" y1="62.861" x2="80.5" y2="62.861"/>
<ellipse fill="#FFFFFF" cx="60.198" cy="67.36" rx="1.75" ry="2.014"/>
</svg>
