<?xml version="1.0" encoding="utf-8"?>
<!-- Generator: Adobe Illustrator 16.0.0, SVG Export Plug-In . SVG Version: 6.00 Build 0)  -->
<!DOCTYPE svg PUBLIC "-//W3C//DTD SVG 1.1//EN" "http://www.w3.org/Graphics/SVG/1.1/DTD/svg11.dtd">
<svg version="1.1" id="Layer_1" xmlns="http://www.w3.org/2000/svg" xmlns:xlink="http://www.w3.org/1999/xlink" x="0px" y="0px"
	 width="2022px" height="88px" viewBox="0 0 2022 88" enable-background="new 0 0 2022 88" xml:space="preserve">
<rect fill="#4E6CB4" width="2022" height="88"/>
<rect x="39.651" y="33.918" fill="#FBF5E1" width="45.288" height="43.569"/>
<rect x="48.57" y="55.04" fill="#6E3E30" width="15.663" height="22.447"/>
<linearGradient id="SVGID_1_" gradientUnits="userSpaceOnUse" x1="67.416" y1="69.2568" x2="80.2048" y2="56.468">
	<stop  offset="0" style="stop-color:#4E6CB4"/>
	<stop  offset="0.49" style="stop-color:#4E6CB4"/>
	<stop  offset="0.5" style="stop-color:#67A9BA"/>
	<stop  offset="1" style="stop-color:#67A9BA"/>
</linearGradient>
<rect x="67.597" y="56.286" fill="url(#SVGID_1_)" stroke="#6E3E30" stroke-width="2" stroke-miterlimit="10" width="12.426" height="13.151"/>
<polygon fill="#6E3E30" points="61.949,33.813 37.896,34.454 49.57,20.896 61.243,7.338 73.622,20.254 86.001,33.17 "/>
<path fill="#4E6CB4" d="M38.616,36.474c0,0-0.206-5.086-0.093-5.012s-5.891,5.18-5.834,5.255s3.142,1.87,3.759,1.739
	S38.616,36.474,38.616,36.474z"/>
<rect x="48.57" y="55.04" fill="#8C513B" width="7.832" height="22.447"/>
<path fill="#4E6CB4" d="M85.81,34.962l5.25,3.749l1.417-7.542l-3.333-0.75c0,0-2.459,0.75-2.667,0.708s-1.708-1.5-1.708-1.5"/>
<line fill="none" stroke="#6E3E30" stroke-width="2" stroke-miterlimit="10" x1="73.811" y1="56.286" x2="73.811" y2="69.438"/>
<line fill="none" stroke="#6E3E30" stroke-width="2" stroke-miterlimit="10" x1="67.597" y1="62.861" x2="80.5" y2="62.861"/>
</svg>
