<?xml version="1.0" encoding="UTF-8" standalone="no"?>
<!-- Generator: Adobe Illustrator 16.0.0, SVG Export Plug-In . SVG Version: 6.00 Build 0)  -->

<svg
   version="1.1"
   id="Layer_1"
   x="0px"
   y="0px"
   width="32px"
   height="32px"
   viewBox="0 0 32 32"
   enable-background="new 0 0 32 32"
   xml:space="preserve"
   sodipodi:docname="instagram.svg"
   inkscape:version="1.2.2 (732a01da63, 2022-12-09)"
   xmlns:inkscape="http://www.inkscape.org/namespaces/inkscape"
   xmlns:sodipodi="http://sodipodi.sourceforge.net/DTD/sodipodi-0.dtd"
   xmlns="http://www.w3.org/2000/svg"
   xmlns:svg="http://www.w3.org/2000/svg"><defs
   id="defs195" /><sodipodi:namedview
   id="namedview193"
   pagecolor="#ffffff"
   bordercolor="#000000"
   borderopacity="0.25"
   inkscape:showpageshadow="2"
   inkscape:pageopacity="0.0"
   inkscape:pagecheckerboard="0"
   inkscape:deskcolor="#d1d1d1"
   showgrid="false"
   inkscape:zoom="25.9375"
   inkscape:cx="16.019277"
   inkscape:cy="16.019277"
   inkscape:window-width="1920"
   inkscape:window-height="991"
   inkscape:window-x="-9"
   inkscape:window-y="-9"
   inkscape:window-maximized="1"
   inkscape:current-layer="Layer_1" />
<g
   id="g190"
   style="fill:#6d6ccb;fill-opacity:1">
	<path
   fill-rule="evenodd"
   clip-rule="evenodd"
   fill="#FFFFFF"
   d="M25.831,32.105c-6.449,0-12.898,0-19.347,0   c-0.165-0.221-0.416-0.092-0.622-0.141c-1.689-0.396-3.097-1.26-4.155-2.618c-0.906-1.163-1.489-2.5-1.493-4.008   c-0.013-6.2-0.005-12.401-0.004-18.602c0-0.173-0.01-0.352,0.029-0.518c0.391-1.655,1.12-3.107,2.432-4.249   C3.909,0.895,5.349,0.248,6.95,0.232C12.767,0.175,18.585,0.228,24.401,0.2c2.055-0.01,3.871,0.551,5.392,1.945   c0.979,0.896,1.647,1.989,2.024,3.28c0.144,0.492,0.079,1.009,0.288,1.478c0,6.17,0,12.34,0,18.511   c-0.209,0.237-0.053,0.526-0.108,0.785c-0.479,2.209-1.658,3.906-3.649,5.016C27.558,31.654,26.702,31.898,25.831,32.105z    M16.171,3.556c-3.014,0-6.027-0.001-9.041,0.002c-0.187,0-0.369,0.003-0.562,0.054c-1.959,0.523-3.102,2.09-3.109,4.131   c-0.021,5.592-0.013,11.184-0.001,16.776c0.002,0.821,0.145,1.621,0.612,2.342c0.702,1.082,1.638,1.871,2.945,1.88   c6.062,0.039,12.125,0.023,18.187,0.01c1.036-0.002,1.893-0.522,2.549-1.265c0.735-0.831,1.023-1.854,1.019-2.989   c-0.022-5.487-0.01-10.975-0.011-16.462c0-0.482,0.003-0.961-0.099-1.442c-0.33-1.564-1.954-3.04-3.552-3.039   C22.13,3.558,19.15,3.556,16.171,3.556z"
   id="path184"
   style="fill:#6d6ccb;fill-opacity:1" />
	<path
   fill-rule="evenodd"
   clip-rule="evenodd"
   fill="#FFFFFF"
   d="M24.367,16.279c0.317,4.213-3.854,8.584-8.661,8.293   c-3.926-0.238-7.871-3.519-7.858-8.324c0.012-4.608,3.698-8.424,8.682-8.275C20.417,8.09,24.527,11.465,24.367,16.279z    M16.126,21.125c2.712,0.112,4.982-2.145,4.97-4.86c-0.013-2.847-2.221-4.894-4.936-4.948c-2.711-0.054-4.854,2.262-4.982,4.7   C11.028,18.854,13.59,21.32,16.126,21.125z"
   id="path186"
   style="fill:#6d6ccb;fill-opacity:1" />
	<path
   fill-rule="evenodd"
   clip-rule="evenodd"
   fill="#FFFFFF"
   d="M26.772,8.099c0.14,1.361-0.984,2.222-2.123,2.238   c-1.14,0.016-2.197-0.885-2.171-2.232c0.027-1.357,0.873-2.145,2.366-2.144C25.971,5.962,26.772,6.852,26.772,8.099z"
   id="path188"
   style="fill:#6d6ccb;fill-opacity:1" />
</g>
</svg>
