<?xml version="1.0" encoding="UTF-8" standalone="no"?>
<!-- Generator: Adobe Illustrator 16.0.0, SVG Export Plug-In . SVG Version: 6.00 Build 0)  -->

<svg
   version="1.1"
   id="Layer_1"
   x="0px"
   y="0px"
   width="55px"
   height="55px"
   viewBox="0 0 55 55"
   enable-background="new 0 0 55 55"
   xml:space="preserve"
   sodipodi:docname="mobnav.svg"
   inkscape:version="1.2.2 (732a01da63, 2022-12-09)"
   xmlns:inkscape="http://www.inkscape.org/namespaces/inkscape"
   xmlns:sodipodi="http://sodipodi.sourceforge.net/DTD/sodipodi-0.dtd"
   xmlns="http://www.w3.org/2000/svg"
   xmlns:svg="http://www.w3.org/2000/svg"><defs
   id="defs11" /><sodipodi:namedview
   id="namedview9"
   pagecolor="#ffffff"
   bordercolor="#000000"
   borderopacity="0.25"
   inkscape:showpageshadow="2"
   inkscape:pageopacity="0.0"
   inkscape:pagecheckerboard="0"
   inkscape:deskcolor="#d1d1d1"
   showgrid="false"
   inkscape:zoom="14.8"
   inkscape:cx="27.533784"
   inkscape:cy="27.533784"
   inkscape:window-width="1920"
   inkscape:window-height="1001"
   inkscape:window-x="-9"
   inkscape:window-y="-9"
   inkscape:window-maximized="1"
   inkscape:current-layer="Layer_1" />
<path
   fill="#FFFFFF"
   d="M45.568,13.728c0,1.669-0.892,3.022-1.991,3.022H11.421c-1.099,0-1.991-1.353-1.991-3.022l0,0  c0-1.669,0.892-3.022,1.991-3.022h32.156C44.677,10.706,45.568,12.059,45.568,13.728L45.568,13.728z"
   id="path2"
   style="fill:#000000" />
<path
   fill="#FFFFFF"
   d="M45.569,27.333c0,1.668-0.892,3.021-1.991,3.021H11.421c-1.099,0-1.991-1.353-1.991-3.021l0,0  c0-1.669,0.892-3.022,1.991-3.022h32.157C44.678,24.31,45.569,25.663,45.569,27.333L45.569,27.333z"
   id="path4"
   style="fill:#000000" />
<path
   fill="#FFFFFF"
   d="M45.568,42.49c0,1.669-0.892,3.022-1.991,3.022H11.421c-1.099,0-1.991-1.354-1.991-3.022l0,0  c0-1.669,0.892-3.021,1.991-3.021h32.156C44.677,39.469,45.568,40.821,45.568,42.49L45.568,42.49z"
   id="path6"
   style="fill:#000000" />
</svg>
