<?xml version="1.0" encoding="utf-8"?>
<!-- Generator: Adobe Illustrator 16.0.0, SVG Export Plug-In . SVG Version: 6.00 Build 0)  -->
<!DOCTYPE svg PUBLIC "-//W3C//DTD SVG 1.1//EN" "http://www.w3.org/Graphics/SVG/1.1/DTD/svg11.dtd">
<svg version="1.1" id="Layer_1" xmlns="http://www.w3.org/2000/svg" xmlns:xlink="http://www.w3.org/1999/xlink" x="0px" y="0px"
	 width="55px" height="55px" viewBox="0 0 55 55" enable-background="new 0 0 55 55" xml:space="preserve">
<path fill="#FFFFFF" d="M45.568,13.728c0,1.669-0.892,3.022-1.991,3.022H11.421c-1.099,0-1.991-1.353-1.991-3.022l0,0
	c0-1.669,0.892-3.022,1.991-3.022h32.156C44.677,10.706,45.568,12.059,45.568,13.728L45.568,13.728z"/>
<path fill="#FFFFFF" d="M45.569,27.333c0,1.668-0.892,3.021-1.991,3.021H11.421c-1.099,0-1.991-1.353-1.991-3.021l0,0
	c0-1.669,0.892-3.022,1.991-3.022h32.157C44.678,24.31,45.569,25.663,45.569,27.333L45.569,27.333z"/>
<path fill="#FFFFFF" d="M45.568,42.49c0,1.669-0.892,3.022-1.991,3.022H11.421c-1.099,0-1.991-1.354-1.991-3.022l0,0
	c0-1.669,0.892-3.021,1.991-3.021h32.156C44.677,39.469,45.568,40.821,45.568,42.49L45.568,42.49z"/>
</svg>
