<?xml version="1.0" encoding="UTF-8" standalone="no"?>
<!-- Created with Inkscape (http://www.inkscape.org/) -->

<svg
   width="32"
   height="24"
   viewBox="0 0 8.4666657 6.3499993"
   version="1.1"
   id="svg5"
   inkscape:version="1.2.2 (732a01da63, 2022-12-09)"
   sodipodi:docname="music.svg"
   xml:space="preserve"
   xmlns:inkscape="http://www.inkscape.org/namespaces/inkscape"
   xmlns:sodipodi="http://sodipodi.sourceforge.net/DTD/sodipodi-0.dtd"
   xmlns="http://www.w3.org/2000/svg"
   xmlns:svg="http://www.w3.org/2000/svg"><sodipodi:namedview
     id="namedview7"
     pagecolor="#ffffff"
     bordercolor="#000000"
     borderopacity="0.25"
     inkscape:showpageshadow="2"
     inkscape:pageopacity="0.0"
     inkscape:pagecheckerboard="0"
     inkscape:deskcolor="#d1d1d1"
     inkscape:document-units="mm"
     showgrid="false"
     inkscape:zoom="16.730892"
     inkscape:cx="9.3539541"
     inkscape:cy="13.537831"
     inkscape:window-width="1920"
     inkscape:window-height="991"
     inkscape:window-x="-9"
     inkscape:window-y="-9"
     inkscape:window-maximized="1"
     inkscape:current-layer="layer1" /><defs
     id="defs2" /><g
     inkscape:label="Layer 1"
     inkscape:groupmode="layer"
     id="layer1"><path
       style="fill:#4d4cbf;stroke-width:0.062725;fill-opacity:1"
       d="M 2.2413004,6.2373739 C 1.7927111,6.0272776 1.5875,5.6957767 1.5875,5.1812156 c 0,-0.6879567 0.5384236,-1.1607858 1.3231674,-1.16197 L 3.1441677,4.0188873 V 3.0199776 c 0,-0.7021012 0.023128,-1.0294967 0.077833,-1.1018509 C 3.2782347,1.8437527 3.773907,1.7282249 5.0081631,1.5018218 5.9477443,1.3294719 6.7533195,1.2027991 6.7983306,1.2203266 c 0.06506,0.025334 0.081558,0.4093945 0.080471,1.8733177 C 6.8772585,5.170535 6.8550124,5.2924423 6.415455,5.6326627 5.6064878,6.2588084 4.4387889,5.4487382 4.7048728,4.4459775 4.8561737,3.8757875 5.2687068,3.5765818 5.9035611,3.5765818 H 6.2575025 V 2.7867485 c 0,-0.7112127 -0.010853,-0.7895418 -0.108967,-0.7869061 -0.059931,0.00161 -0.5993169,0.0944 -1.1986337,0.2062014 L 3.8602346,2.4093181 3.8274061,3.9249531 C 3.7974126,5.3097072 3.7831981,5.4624138 3.6627985,5.6933346 3.5014077,6.0028749 3.36398,6.1332844 3.0660552,6.2596046 2.7669248,6.386436 2.5469178,6.3805047 2.2413004,6.2373685 Z M 2.9801036,5.5307868 C 3.1213401,5.4180489 3.1441677,5.3521111 3.1441677,5.0568869 V 4.7139464 H 2.8300036 c -0.3784864,0 -0.6198366,0.193923 -0.6198366,0.4980347 0,0.2155222 0.2432194,0.449765 0.4670004,0.449765 0.07638,0 0.212701,-0.058932 0.3029362,-0.1309593 z M 6.1258367,5.0059904 C 6.238101,4.8847247 6.2612236,4.7963219 6.2456573,4.5478871 L 6.226369,4.2400464 5.8962758,4.2489782 C 5.4925263,4.25991 5.323502,4.3906846 5.323502,4.6921421 c 0,0.4325196 0.5083721,0.6313762 0.8023348,0.3138436 z M 3.2115502,1.1851944 c -0.037061,-0.070271 -0.067383,-0.1810689 -0.067383,-0.24621658 0,-0.29043098 0.09984,-0.32542247 1.8629159,-0.65290311 C 5.9454715,0.11177482 6.7508019,-0.0162089 6.7967063,0.00166669 6.9034597,0.0432371 6.907854,0.50500184 6.8023313,0.59324217 6.7595274,0.62904086 6.009992,0.79034939 5.1367015,0.95170539 4.2634111,1.1130614 3.4881579,1.2603531 3.4139169,1.2790203 3.3197615,1.3026944 3.2585516,1.2743161 3.21155,1.1851941 Z"
       id="path8810" /></g></svg>
