<?xml version="1.0" encoding="utf-8"?>
<!-- Generator: Adobe Illustrator 16.0.0, SVG Export Plug-In . SVG Version: 6.00 Build 0)  -->
<!DOCTYPE svg PUBLIC "-//W3C//DTD SVG 1.1//EN" "http://www.w3.org/Graphics/SVG/1.1/DTD/svg11.dtd">
<svg version="1.1" id="Layer_1" xmlns="http://www.w3.org/2000/svg" xmlns:xlink="http://www.w3.org/1999/xlink" x="0px" y="0px"
	 width="2022px" height="88px" viewBox="0 0 2022 88" enable-background="new 0 0 2022 88" xml:space="preserve">
<linearGradient id="SVGID_1_" gradientUnits="userSpaceOnUse" x1="1175.96" y1="-80.6602" x2="1175.96" y2="-168.6602" gradientTransform="matrix(1 0 0 -1 -164.96 -80.6602)">
	<stop  offset="0" style="stop-color:#ED1D3B"/>
	<stop  offset="1" style="stop-color:#921927"/>
</linearGradient>
<rect fill="url(#SVGID_1_)" width="2022" height="88"/>
<g>
	<path fill="#FFFFFF" d="M87.444,63.904c0,7.184-5.655,10.775-16.966,10.775c-3.768,0-6.511-0.466-8.225-1.392
		c-1.714-0.927-2.569-2.086-2.569-3.478c0-2.315,1.371-4.17,4.112-5.561c4.799-2.552,10.966-3.594,18.507-3.132V38.877l-25.19-4.519
		v23.984c0,7.184-5.654,10.776-16.962,10.776c-3.77,0-6.511-0.464-8.225-1.39c-1.714-0.928-2.57-2.086-2.57-3.478
		c0-2.315,1.371-4.174,4.113-5.563c4.797-2.551,10.965-3.594,18.504-3.129V16.284l35.471,6.257V63.904z M82.303,33.316v-5.562
		l-25.19-4.519v5.214L82.303,33.316z"/>
</g>
<polygon fill="#FFFFFF" points="54.736,18.951 54.736,30.951 85.178,36.576 85.178,29.169 85.178,25.12 "/>
</svg>
