<?xml version="1.0" encoding="utf-8"?>
<!-- Generator: Adobe Illustrator 16.0.0, SVG Export Plug-In . SVG Version: 6.00 Build 0)  -->
<!DOCTYPE svg PUBLIC "-//W3C//DTD SVG 1.1//EN" "http://www.w3.org/Graphics/SVG/1.1/DTD/svg11.dtd">
<svg version="1.1" id="Layer_1" xmlns="http://www.w3.org/2000/svg" xmlns:xlink="http://www.w3.org/1999/xlink" x="0px" y="0px"
	 width="64px" height="64px" viewBox="0 0 64 64" enable-background="new 0 0 64 64" xml:space="preserve">
<g>
	<path fill="#C0284A" d="M59.833,50.829c0,7.183-5.655,10.774-16.966,10.774c-3.768,0-6.512-0.465-8.225-1.392
		c-1.716-0.926-2.569-2.086-2.569-3.478c0-2.315,1.37-4.17,4.112-5.561c4.799-2.552,10.965-3.594,18.506-3.132V25.801l-25.189-4.519
		v23.983c0,7.185-5.654,10.775-16.962,10.775c-3.77,0-6.511-0.463-8.225-1.391c-1.714-0.926-2.57-2.086-2.57-3.477
		c0-2.316,1.371-4.174,4.113-5.563c4.797-2.551,10.965-3.594,18.504-3.129V3.208l35.471,6.257V50.829z M54.691,20.24v-5.562
		l-25.189-4.519v5.214L54.691,20.24z"/>
</g>
<polygon fill="#C0284A" points="27.125,5.875 27.125,17.875 57.566,23.5 57.566,16.093 57.566,12.044 "/>
</svg>
