<?xml version="1.0" encoding="utf-8"?>
<!-- Generator: Adobe Illustrator 16.0.0, SVG Export Plug-In . SVG Version: 6.00 Build 0)  -->
<!DOCTYPE svg PUBLIC "-//W3C//DTD SVG 1.1//EN" "http://www.w3.org/Graphics/SVG/1.1/DTD/svg11.dtd">
<svg version="1.1" id="Layer_1" xmlns="http://www.w3.org/2000/svg" xmlns:xlink="http://www.w3.org/1999/xlink" x="0px" y="0px"
	 width="2022px" height="88px" viewBox="0 0 2022 88" enable-background="new 0 0 2022 88" xml:space="preserve">
<rect fill="#BE284A" width="2022" height="88"/>
<g>
	<g>
		<linearGradient id="SVGID_1_" gradientUnits="userSpaceOnUse" x1="65.3125" y1="14.2139" x2="58.0625" y2="75.9634">
			<stop  offset="0" style="stop-color:#E1E3E5"/>
			<stop  offset="0.49" style="stop-color:#E1E3E5"/>
			<stop  offset="0.5" style="stop-color:#C3C3C2"/>
			<stop  offset="1" style="stop-color:#C3C3C2"/>
		</linearGradient>
		<ellipse fill="url(#SVGID_1_)" cx="61.698" cy="45" rx="32.17" ry="32.076"/>
		<circle fill="#BE284A" cx="61.399" cy="43.764" r="11.532"/>
		<line fill="none" x1="87.189" y1="64.559" x2="87.444" y2="64.234"/>
		<g>
			<g>
				<path fill="#C3C3C2" d="M48.099,24.813c-0.245,2.739-0.232,4.096,0.038,6.716c0.05,0.337-0.092,0.613-0.427,0.841
					s-0.64,0.261-0.928,0.093c-2.335-1.252-3.604-1.777-6.292-2.548c1.581,1.749,2.372,2.624,3.953,4.372
					c0.1,0.11,0.133,0.241,0.105,0.394s-0.1,0.286-0.22,0.4s-0.254,0.19-0.404,0.229s-0.29-0.004-0.417-0.131
					c-2.224-2.224-3.335-3.337-5.559-5.561c-0.132-0.133-0.179-0.296-0.136-0.492s0.152-0.385,0.327-0.562s0.374-0.31,0.596-0.396
					s0.431-0.092,0.623-0.022c3.21,0.805,4.713,1.4,7.438,2.867c-0.349-3.054-0.358-4.647-0.015-7.865
					c-0.003-0.19,0.078-0.376,0.241-0.554s0.365-0.318,0.604-0.422s0.462-0.145,0.669-0.123s0.347,0.118,0.416,0.284
					c1.222,2.919,1.831,4.378,3.053,7.298c0.057,0.137,0.047,0.272-0.03,0.403s-0.188,0.23-0.332,0.303s-0.289,0.097-0.436,0.071
					s-0.257-0.112-0.327-0.26C49.625,28.014,49.115,26.947,48.099,24.813z"/>
				<path fill="#C3C3C2" d="M52.765,23.116c-0.075-0.255,0.118-0.452,0.581-0.577c0.2-0.054,0.383-0.065,0.548-0.034
					s0.259,0.105,0.287,0.219c0.424,1.73,0.637,2.595,1.061,4.325c0.091,0.372,0.28,0.625,0.555,0.767s0.694,0.148,1.267,0.045
					s1.044-0.322,1.435-0.669s0.584-0.639,0.56-0.896c-0.168-1.726-0.252-2.59-0.42-4.316c-0.012-0.125,0.065-0.241,0.235-0.346
					s0.414-0.142,0.725-0.104s0.47,0.156,0.48,0.343c0.123,2.392,0.185,3.588,0.308,5.98c0.005,0.102-0.064,0.196-0.205,0.287
					s-0.325,0.12-0.56,0.092s-0.359-0.125-0.376-0.296c-0.014-0.145-0.021-0.217-0.035-0.362c-0.454,0.608-1.205,1.006-2.249,1.222
					c-0.666,0.138-1.269,0.115-1.802-0.063s-0.886-0.509-1.036-1.019C53.58,25.875,53.308,24.955,52.765,23.116z"/>
				<path fill="#C3C3C2" d="M68.428,25.861c0.201,0.219,0.332,0.456,0.383,0.708s0.024,0.561-0.075,0.927s-0.39,0.676-0.831,0.953
					c-0.235,0.147-0.57,0.236-0.998,0.27s-0.922,0.001-1.494-0.084c-1.354-0.202-2.176-0.587-2.496-1.314
					c-0.176-0.399-0.173-0.746,0.031-0.949c0.142-0.142,0.376-0.186,0.636-0.133s0.402,0.193,0.404,0.39
					c0.007,0.581,0.512,0.933,1.576,1.093c0.654,0.098,1.127,0.088,1.431-0.057s0.488-0.352,0.549-0.626s-0.009-0.513-0.216-0.715
					s-0.497-0.4-0.872-0.583c-0.435-0.208-0.655-0.308-1.103-0.498c-0.359-0.149-0.714-0.312-1.065-0.488s-0.633-0.399-0.846-0.674
					s-0.315-0.594-0.298-0.96c0.024-0.515,0.345-0.909,0.985-1.154s1.422-0.313,2.313-0.18c0.083,0.013,0.125,0.019,0.209,0.032
					c1.662,0.26,2.596,0.923,2.781,1.794c0.063,0.299-0.032,0.522-0.257,0.624c-0.22,0.099-0.493,0.095-0.775,0.006
					s-0.399-0.227-0.386-0.387c0.025-0.296-0.111-0.565-0.35-0.736s-0.675-0.315-1.306-0.411s-1.088-0.084-1.366,0.008
					s-0.426,0.263-0.449,0.508s0.105,0.459,0.378,0.65s0.856,0.451,1.719,0.833S68.091,25.496,68.428,25.861z"/>
				<path fill="#C3C3C2" d="M75.408,22.126c0.119,0.125,0.157,0.232,0.116,0.325c-0.115,0.257-0.174,0.385-0.289,0.642
					c-0.038,0.085-0.139,0.124-0.303,0.116s-0.346-0.053-0.544-0.136c-0.47-0.197-0.668-0.385-0.591-0.582
					c0.103-0.262,0.154-0.393,0.257-0.655c0.037-0.095,0.139-0.145,0.305-0.15s0.354,0.036,0.561,0.122S75.29,22.001,75.408,22.126z
					 M74.542,24.646c-0.936,2.093-1.403,3.14-2.339,5.233c-0.061,0.136-0.165,0.22-0.311,0.259s-0.288,0.029-0.428-0.03
					s-0.254-0.147-0.342-0.267s-0.101-0.262-0.035-0.43c0.836-2.135,1.254-3.202,2.091-5.337c0.051-0.131,0.158-0.213,0.324-0.244
					s0.342-0.008,0.524,0.068s0.333,0.182,0.449,0.314S74.612,24.489,74.542,24.646z"/>
				<path fill="#C3C3C2" d="M77.682,32.94c0.379,0.297,0.772,0.472,1.194,0.527s0.771-0.02,1.044-0.231
					c0.168-0.13,0.377-0.105,0.614,0.081s0.36,0.409,0.364,0.661s-0.186,0.437-0.559,0.573s-0.788,0.169-1.241,0.111
					c-0.611-0.078-1.264-0.425-2.009-1.009c-0.52-0.407-0.92-0.811-1.204-1.235s-0.449-0.839-0.484-1.261s-0.008-0.827,0.088-1.215
					s0.279-0.824,0.558-1.304s0.635-0.865,1.083-1.143s0.925-0.411,1.419-0.391c0.965,0.039,1.953,0.418,2.885,1.152
					c0.086,0.068,0.128,0.102,0.213,0.17c0.722,0.579,1.228,1.259,1.467,1.969c0.111,0.33,0.148,0.653,0.124,0.951
					s-0.101,0.508-0.222,0.63s-0.282,0.195-0.434,0.181c-0.227-0.021-0.469-0.188-0.68-0.428s-0.263-0.439-0.158-0.605
					c0.381-0.607,0.096-1.37-0.896-2.151c-0.731-0.575-1.444-0.8-2.09-0.697s-1.166,0.489-1.577,1.125s-0.564,1.274-0.494,1.908
					S77.084,32.472,77.682,32.94z"/>
			</g>
		</g>
	</g>
	<g>
		<g>
			<path fill="#E1E3E5" d="M35.195,55.505c-0.175-0.268-0.214-0.499-0.121-0.692c0.05-0.104,0.133-0.165,0.247-0.182
				s0.247,0.053,0.399,0.206c0.152,0.152,0.518,0.742,1.134,1.73c0.616,0.989,1.143,1.89,1.551,2.719
				c0.136,0.275,0.164,0.517,0.084,0.723c-0.048,0.125-0.124,0.199-0.229,0.218s-0.204-0.012-0.297-0.09
				c-0.093-0.078-0.178-0.193-0.25-0.343C37.092,58.509,36.237,57.1,35.195,55.505z M36.611,53.051
				c-0.068-0.114-0.109-0.236-0.126-0.355s-0.008-0.221,0.03-0.301c0.037-0.079,0.106-0.132,0.205-0.16s0.206,0.018,0.324,0.136
				c0.118,0.117,0.386,0.542,0.82,1.263c0.435,0.72,0.784,1.332,1.024,1.838c0.117,0.246,0.139,0.468,0.063,0.656
				c-0.041,0.102-0.108,0.161-0.203,0.183c-0.095,0.021-0.183-0.004-0.262-0.073c-0.079-0.069-0.164-0.192-0.255-0.373
				C37.791,54.998,37.212,54.058,36.611,53.051z M38.096,51.249c-0.145-0.241-0.174-0.457-0.09-0.638
				c0.036-0.077,0.1-0.134,0.194-0.17c0.092-0.034,0.198,0.007,0.317,0.122c0.119,0.116,0.358,0.507,0.733,1.155
				s0.698,1.258,0.966,1.836c0.111,0.241,0.138,0.437,0.078,0.591s-0.135,0.24-0.225,0.261c-0.091,0.021-0.173,0.002-0.249-0.063
				c-0.076-0.064-0.163-0.203-0.259-0.414C39.206,53.147,38.707,52.263,38.096,51.249z"/>
			<path fill="#E1E3E5" d="M47.996,61.266c-0.011-0.026-0.047-0.054-0.109-0.084c-0.923-0.447-1.381-0.69-2.291-1.213
				c-0.11-0.063-0.187-0.16-0.23-0.285s-0.048-0.245-0.016-0.362s0.086-0.203,0.165-0.262c0.079-0.059,0.183-0.05,0.315,0.026
				c0.986,0.566,1.484,0.826,2.486,1.303c0.207,0.099,0.357,0.245,0.451,0.438c0.093,0.192,0.116,0.412,0.063,0.662
				c-0.01,0.049-0.016,0.073-0.026,0.122c-0.377,1.294-0.568,1.938-0.956,3.228c0.564,0.259,0.847,0.383,1.415,0.615
				c0.119,0.049,0.204,0.133,0.256,0.254c0.052,0.121,0.066,0.249,0.042,0.383c-0.025,0.135-0.088,0.229-0.185,0.285
				s-0.194,0.069-0.294,0.028c-2.274-0.931-3.397-1.501-5.597-2.849c-0.116-0.071-0.198-0.174-0.246-0.309
				c-0.048-0.136-0.054-0.269-0.017-0.396c0.037-0.127,0.104-0.211,0.198-0.252c0.095-0.042,0.203-0.025,0.324,0.049
				c1.31,0.803,1.972,1.164,3.311,1.816c0.368-1.184,0.551-1.776,0.911-2.964c0.01-0.043,0.014-0.063,0.023-0.106
				C48.005,61.336,48.006,61.293,47.996,61.266z"/>
			<path fill="#E1E3E5" d="M60.315,65.726c-2.748-0.147-4.124-0.375-6.836-1.125c-0.123-0.034-0.219-0.112-0.286-0.234
				c-0.067-0.123-0.089-0.255-0.07-0.396s0.075-0.244,0.167-0.312c0.092-0.068,0.203-0.082,0.337-0.045
				c2.66,0.734,4.008,0.954,6.703,1.1c0.116,0.006,0.208,0.059,0.278,0.158c0.069,0.1,0.103,0.221,0.101,0.359
				c-0.003,0.14-0.043,0.257-0.12,0.355C60.512,65.684,60.42,65.731,60.315,65.726z"/>
			<path fill="#E1E3E5" d="M64.928,65.226c-0.094-0.082-0.142-0.121-0.235-0.204c-0.115-0.108-0.239-0.218-0.372-0.325
				c-0.224-0.19-0.335-0.284-0.556-0.479c-0.138-0.127-0.209-0.27-0.212-0.421s0.028-0.271,0.096-0.358s0.147-0.136,0.239-0.142
				c0.091-0.006,0.189,0.032,0.293,0.106c0.875,0.629,1.363,1.063,1.379,1.365c0.008,0.143-0.027,0.268-0.103,0.372
				c-0.076,0.105-0.165,0.162-0.266,0.173S65.003,65.294,64.928,65.226z M67.497,66.188c0.461-0.503,0.852-1,1.177-1.479
				c0.325-0.478,0.542-0.853,0.66-1.111c0.118-0.259,0.228-0.47,0.329-0.633c0.101-0.162,0.195-0.255,0.283-0.278
				s0.173-0.009,0.258,0.041c0.084,0.049,0.135,0.147,0.154,0.296s-0.003,0.295-0.07,0.434c-0.604,1.243-1.326,2.331-2.151,3.242
				c-0.826,0.912-1.857,1.786-3.062,2.587c-0.087,0.058-0.184,0.097-0.291,0.105s-0.205-0.028-0.291-0.11
				c-0.086-0.081-0.131-0.187-0.136-0.313c-0.009-0.261,0.096-0.446,0.31-0.558C65.658,67.896,66.616,67.148,67.497,66.188z
				 M64.847,61.742c-0.135-0.112-0.204-0.256-0.211-0.428s0.024-0.297,0.094-0.371c0.069-0.073,0.147-0.115,0.232-0.124
				c0.085-0.009,0.175,0.025,0.271,0.099c0.226,0.173,0.34,0.259,0.569,0.427c0.266,0.21,0.445,0.361,0.533,0.458
				c0.088,0.098,0.137,0.212,0.146,0.35c0.01,0.139-0.02,0.264-0.091,0.371c-0.072,0.108-0.15,0.166-0.231,0.178
				s-0.149,0.002-0.205-0.028s-0.164-0.119-0.323-0.269C65.471,62.254,65.203,62.037,64.847,61.742z M68.018,61.516
				c-0.028-0.027-0.057-0.046-0.071-0.059c-0.058-0.053-0.09-0.151-0.097-0.231c-0.007-0.078,0.01-0.158,0.034-0.229
				c0.043-0.13,0.113-0.227,0.229-0.251c0.115-0.024,0.309,0.087,0.585,0.33c0.277,0.244,0.441,0.399,0.488,0.478
				c0.047,0.078,0.074,0.163,0.084,0.249c0.01,0.088-0.013,0.184-0.071,0.287c-0.059,0.104-0.134,0.168-0.225,0.189
				s-0.175-0.019-0.255-0.115c-0.081-0.097-0.188-0.203-0.319-0.319C68.246,61.715,68.169,61.647,68.018,61.516z M68.528,60.45
				c-0.042-0.042-0.067-0.107-0.076-0.195c-0.009-0.087,0.008-0.183,0.052-0.291c0.044-0.108,0.116-0.175,0.218-0.199
				s0.294,0.092,0.582,0.343c0.288,0.252,0.45,0.411,0.484,0.483s0.057,0.15,0.067,0.233c0.011,0.084-0.012,0.174-0.068,0.279
				c-0.057,0.105-0.13,0.168-0.219,0.191c-0.089,0.023-0.196-0.035-0.32-0.184c-0.125-0.147-0.334-0.336-0.625-0.567
				C68.584,60.507,68.565,60.487,68.528,60.45z"/>
			<path fill="#E1E3E5" d="M74.567,63.071c-0.116-0.191-0.29-0.429-0.517-0.717s-0.35-0.498-0.374-0.624
				c-0.023-0.127-0.005-0.247,0.053-0.362s0.142-0.194,0.249-0.238s0.21-0.019,0.309,0.075c0.099,0.095,0.273,0.313,0.525,0.652
				c0.154,0.218,0.23,0.325,0.386,0.541c0.039,0.054,0.069,0.131,0.091,0.236s0,0.224-0.066,0.357
				c-0.066,0.136-0.147,0.225-0.243,0.266C74.821,63.326,74.683,63.264,74.567,63.071z M78.228,60.918
				c0.018-0.51,0.003-0.9-0.028-1.163s-0.036-0.488-0.015-0.682c0.021-0.192,0.089-0.322,0.206-0.391s0.224-0.072,0.324-0.015
				c0.1,0.059,0.174,0.173,0.222,0.344c0.048,0.172,0.062,0.679,0.029,1.523s-0.148,1.684-0.355,2.52
				c-0.208,0.836-0.487,1.603-0.834,2.292c-0.347,0.688-0.649,1.088-0.891,1.201c-0.241,0.113-0.395,0.01-0.461-0.304
				c-0.033-0.152,0.036-0.34,0.185-0.562C77.654,64.128,78.174,62.458,78.228,60.918z M76.203,61.691
				c-0.083-0.127-0.256-0.342-0.51-0.646c-0.254-0.304-0.391-0.521-0.417-0.642c-0.026-0.119-0.015-0.239,0.036-0.359
				c0.05-0.121,0.137-0.211,0.258-0.269c0.12-0.058,0.245,0,0.373,0.141c0.099,0.109,0.282,0.321,0.533,0.636
				c0.251,0.313,0.394,0.529,0.422,0.648s0.014,0.243-0.042,0.374c-0.057,0.131-0.133,0.224-0.233,0.273
				C76.461,61.929,76.321,61.873,76.203,61.691z"/>
			<path fill="#E1E3E5" d="M84.54,52.919c-0.008,0.09-0.013,0.132-0.021,0.222c0.032-0.067,0.025-0.121-0.021-0.159
				s-0.084-0.02-0.116,0.048c0.766-0.678,1.145-1.033,1.892-1.773c0.242-0.239,0.431-0.354,0.575-0.336s0.261,0.12,0.351,0.307
				c0.089,0.186,0.158,0.816,0.183,1.903c0.025,1.086-0.156,2.484-0.589,4.177c-0.221,0.861-0.522,1.754-0.917,2.667
				c-0.396,0.912-0.708,1.446-0.91,1.604c-0.108,0.085-0.215,0.118-0.322,0.102c-0.107-0.018-0.183-0.092-0.229-0.219
				c-0.072-0.201-0.028-0.427,0.127-0.682c0.741-1.21,1.314-2.694,1.68-4.404c0.367-1.709,0.385-3.097,0.259-4.048
				c-0.008-0.063-0.014-0.106-0.023-0.127c-0.002-0.004-0.003-0.01-0.005-0.014c-0.055,0.034-0.106,0.079-0.156,0.127
				c-0.751,0.73-1.132,1.081-1.901,1.75c-0.332,1.874-0.638,2.958-0.831,3.212c-0.039,0.052-0.081,0.101-0.12,0.14
				c-0.039,0.04-0.07,0.079-0.091,0.125c-0.021,0.045-0.1,0.083-0.236,0.105c-0.135,0.023-0.23-0.048-0.287-0.209
				c-0.057-0.16-0.028-0.364,0.084-0.611c0.261-0.574,0.49-1.377,0.665-2.394s0.248-1.89,0.235-2.615
				c-0.003-0.204,0.054-0.356,0.171-0.462c0.118-0.105,0.233-0.153,0.347-0.138c0.113,0.015,0.195,0.081,0.244,0.195
				s0.07,0.258,0.063,0.435C84.634,52.022,84.602,52.38,84.54,52.919z"/>
		</g>
	</g>
</g>
</svg>
