<?xml version="1.0" encoding="utf-8"?>
<!-- Generator: Adobe Illustrator 16.0.0, SVG Export Plug-In . SVG Version: 6.00 Build 0)  -->
<!DOCTYPE svg PUBLIC "-//W3C//DTD SVG 1.1//EN" "http://www.w3.org/Graphics/SVG/1.1/DTD/svg11.dtd">
<svg version="1.1" id="Layer_1" xmlns="http://www.w3.org/2000/svg" xmlns:xlink="http://www.w3.org/1999/xlink" x="0px" y="0px"
	 width="64px" height="64px" viewBox="0 0 64 64" enable-background="new 0 0 64 64" xml:space="preserve">
<g>
	<g>
		<linearGradient id="SVGID_1_" gradientUnits="userSpaceOnUse" x1="35.9141" y1="1.1372" x2="28.664" y2="62.8872">
			<stop  offset="0" style="stop-color:#E1E3E5"/>
			<stop  offset="0.49" style="stop-color:#E1E3E5"/>
			<stop  offset="0.5" style="stop-color:#C3C3C2"/>
			<stop  offset="1" style="stop-color:#C3C3C2"/>
		</linearGradient>
		<ellipse fill="url(#SVGID_1_)" cx="32.299" cy="31.924" rx="32.17" ry="32.076"/>
		<circle fill="#FFFFFF" cx="32" cy="30.687" r="11.532"/>
		<line fill="none" x1="57.79" y1="51.481" x2="58.045" y2="51.157"/>
		<g>
			<g>
				<path fill="#C3C3C2" d="M18.701,11.736c-0.245,2.739-0.235,4.098,0.036,6.718c0.05,0.337-0.091,0.611-0.426,0.839
					s-0.638,0.261-0.926,0.092c-2.335-1.252-3.604-1.775-6.292-2.546c1.581,1.749,2.372,2.623,3.953,4.372
					c0.1,0.11,0.135,0.243,0.107,0.396s-0.103,0.286-0.222,0.399s-0.252,0.19-0.402,0.229s-0.291-0.005-0.417-0.132
					c-2.224-2.224-3.336-3.335-5.56-5.559c-0.133-0.132-0.179-0.297-0.136-0.493s0.152-0.385,0.327-0.562s0.375-0.309,0.597-0.396
					S9.768,15,9.96,15.069c3.21,0.805,4.713,1.401,7.438,2.867c-0.349-3.054-0.357-4.65-0.014-7.868
					c-0.003-0.19,0.077-0.374,0.24-0.551s0.367-0.319,0.605-0.422s0.462-0.145,0.67-0.123s0.344,0.118,0.413,0.284
					c1.222,2.919,1.834,4.379,3.056,7.299c0.057,0.137,0.045,0.271-0.032,0.401s-0.188,0.232-0.332,0.305s-0.289,0.095-0.436,0.069
					s-0.257-0.11-0.328-0.258C20.225,14.939,19.717,13.869,18.701,11.736z"/>
				<path fill="#C3C3C2" d="M23.366,10.041c-0.075-0.255,0.118-0.454,0.581-0.579c0.2-0.054,0.382-0.065,0.547-0.034
					s0.261,0.104,0.289,0.218c0.424,1.73,0.637,2.595,1.061,4.325c0.091,0.372,0.279,0.625,0.554,0.767s0.693,0.148,1.266,0.044
					s1.045-0.32,1.436-0.667s0.585-0.64,0.561-0.896c-0.168-1.726-0.254-2.59-0.422-4.316c-0.012-0.125,0.065-0.239,0.235-0.344
					s0.413-0.142,0.725-0.104s0.471,0.154,0.48,0.341c0.123,2.392,0.186,3.588,0.309,5.98c0.005,0.102-0.064,0.197-0.205,0.288
					s-0.327,0.122-0.562,0.094s-0.359-0.127-0.376-0.298c-0.014-0.145-0.021-0.217-0.035-0.362
					c-0.454,0.608-1.205,1.006-2.249,1.223c-0.666,0.138-1.268,0.114-1.801-0.064s-0.886-0.508-1.036-1.018
					C24.181,12.799,23.909,11.879,23.366,10.041z"/>
				<path fill="#C3C3C2" d="M39.032,12.784c0.201,0.219,0.333,0.457,0.384,0.708s0.02,0.56-0.08,0.926s-0.387,0.677-0.828,0.954
					c-0.235,0.147-0.57,0.236-0.998,0.27s-0.925,0.002-1.496-0.083c-1.354-0.202-2.175-0.587-2.495-1.313
					c-0.176-0.399-0.176-0.746,0.028-0.95c0.142-0.142,0.379-0.188,0.639-0.134s0.402,0.193,0.404,0.391
					c0.007,0.581,0.512,0.933,1.575,1.093c0.653,0.098,1.125,0.087,1.429-0.058s0.491-0.351,0.552-0.625s-0.009-0.514-0.217-0.717
					s-0.497-0.399-0.872-0.582c-0.435-0.208-0.653-0.307-1.101-0.497c-0.359-0.149-0.714-0.312-1.065-0.488s-0.637-0.4-0.85-0.675
					s-0.312-0.594-0.294-0.961c0.024-0.515,0.344-0.91,0.984-1.154s1.421-0.313,2.312-0.18c0.084,0.013,0.126,0.018,0.21,0.031
					c1.662,0.26,2.595,0.925,2.78,1.796c0.063,0.299-0.03,0.522-0.256,0.624c-0.22,0.099-0.492,0.094-0.774,0.005
					s-0.4-0.225-0.387-0.385c0.024-0.296-0.112-0.566-0.352-0.736s-0.674-0.316-1.305-0.411s-1.088-0.085-1.366,0.007
					s-0.428,0.264-0.451,0.509s0.105,0.459,0.379,0.65s0.857,0.449,1.72,0.831S38.695,12.418,39.032,12.784z"/>
				<path fill="#C3C3C2" d="M46.01,9.049c0.119,0.125,0.157,0.234,0.116,0.327c-0.115,0.257-0.172,0.384-0.287,0.641
					c-0.038,0.085-0.141,0.124-0.305,0.116s-0.346-0.054-0.544-0.137c-0.47-0.197-0.669-0.384-0.592-0.581
					c0.103-0.262,0.154-0.393,0.257-0.654c0.037-0.095,0.138-0.145,0.304-0.15s0.354,0.033,0.561,0.12S45.891,8.924,46.01,9.049z
					 M45.143,11.569c-0.937,2.093-1.403,3.139-2.339,5.232c-0.061,0.136-0.165,0.222-0.311,0.26s-0.288,0.028-0.429-0.03
					s-0.255-0.148-0.343-0.268s-0.099-0.261-0.033-0.429c0.836-2.135,1.25-3.202,2.087-5.337c0.052-0.131,0.162-0.213,0.328-0.244
					s0.342-0.009,0.524,0.067s0.331,0.182,0.447,0.313S45.213,11.412,45.143,11.569z"/>
				<path fill="#C3C3C2" d="M48.282,19.862c0.379,0.297,0.772,0.472,1.194,0.527s0.771-0.02,1.045-0.231
					c0.169-0.13,0.377-0.104,0.614,0.081s0.361,0.409,0.365,0.66s-0.189,0.439-0.563,0.575s-0.785,0.169-1.237,0.11
					c-0.611-0.078-1.265-0.426-2.01-1.01c-0.521-0.407-0.921-0.809-1.205-1.233s-0.446-0.841-0.482-1.263s-0.01-0.827,0.086-1.215
					s0.278-0.823,0.557-1.303s0.637-0.865,1.085-1.144s0.923-0.41,1.417-0.39c0.965,0.039,1.954,0.417,2.886,1.151
					c0.086,0.068,0.129,0.1,0.215,0.169c0.722,0.579,1.229,1.259,1.468,1.969c0.111,0.33,0.146,0.654,0.122,0.952
					s-0.1,0.508-0.221,0.63s-0.281,0.195-0.434,0.181c-0.227-0.021-0.473-0.186-0.683-0.425s-0.264-0.442-0.159-0.608
					c0.381-0.607,0.1-1.368-0.893-2.149c-0.731-0.575-1.444-0.801-2.091-0.698s-1.167,0.49-1.578,1.126s-0.563,1.275-0.492,1.909
					S47.685,19.394,48.282,19.862z"/>
			</g>
		</g>
	</g>
	<g>
		<g>
			<path fill="#E1E3E5" d="M5.498,42.429c-0.175-0.268-0.215-0.5-0.122-0.693c0.05-0.104,0.132-0.164,0.247-0.181
				s0.247,0.052,0.399,0.205c0.152,0.152,0.52,0.743,1.136,1.731c0.616,0.989,1.142,1.89,1.55,2.719
				c0.136,0.275,0.164,0.517,0.085,0.723c-0.048,0.125-0.125,0.199-0.23,0.218s-0.204-0.012-0.297-0.09
				c-0.093-0.078-0.177-0.194-0.25-0.344C7.394,45.432,6.54,44.023,5.498,42.429z M6.913,39.976
				c-0.068-0.114-0.11-0.238-0.127-0.357s-0.007-0.22,0.031-0.3c0.037-0.079,0.105-0.131,0.204-0.159s0.208,0.017,0.326,0.135
				c0.118,0.117,0.385,0.542,0.819,1.263c0.435,0.72,0.785,1.332,1.025,1.838c0.117,0.246,0.138,0.468,0.062,0.656
				c-0.041,0.102-0.109,0.161-0.204,0.183c-0.095,0.021-0.182-0.004-0.261-0.073c-0.079-0.069-0.165-0.193-0.256-0.374
				C8.092,41.921,7.514,40.982,6.913,39.976z M8.398,38.173c-0.145-0.241-0.174-0.457-0.091-0.638c0.036-0.077,0.1-0.134,0.193-0.17
				c0.092-0.034,0.199,0.007,0.318,0.122c0.119,0.116,0.359,0.507,0.734,1.155s0.697,1.258,0.965,1.836
				c0.111,0.241,0.139,0.438,0.079,0.592s-0.135,0.237-0.225,0.258c-0.091,0.021-0.175,0.004-0.251-0.062
				c-0.076-0.064-0.163-0.205-0.258-0.416C9.507,40.069,9.009,39.187,8.398,38.173z"/>
			<path fill="#E1E3E5" d="M18.299,48.189c-0.011-0.026-0.05-0.054-0.111-0.084c-0.923-0.447-1.381-0.69-2.29-1.213
				c-0.11-0.063-0.186-0.16-0.229-0.285s-0.047-0.244-0.015-0.361s0.087-0.204,0.166-0.263c0.079-0.059,0.183-0.05,0.315,0.026
				c0.986,0.566,1.483,0.826,2.485,1.303c0.207,0.099,0.357,0.247,0.451,0.439c0.093,0.192,0.115,0.41,0.063,0.66
				c-0.01,0.049-0.014,0.073-0.024,0.122c-0.377,1.294-0.569,1.938-0.957,3.228c0.564,0.259,0.848,0.383,1.417,0.615
				c0.119,0.049,0.204,0.133,0.255,0.254c0.052,0.121,0.066,0.249,0.042,0.383c-0.025,0.135-0.087,0.229-0.184,0.285
				s-0.195,0.069-0.295,0.028c-2.274-0.931-3.398-1.501-5.598-2.849c-0.116-0.071-0.198-0.174-0.246-0.309
				c-0.048-0.136-0.054-0.269-0.016-0.396c0.037-0.127,0.104-0.212,0.199-0.253c0.095-0.042,0.201-0.024,0.322,0.05
				c1.31,0.803,1.974,1.164,3.312,1.816c0.368-1.184,0.55-1.777,0.91-2.965c0.01-0.043,0.015-0.063,0.025-0.105
				C18.308,48.26,18.31,48.217,18.299,48.189z"/>
			<path fill="#E1E3E5" d="M30.618,52.649c-2.749-0.147-4.125-0.375-6.836-1.125c-0.123-0.034-0.218-0.112-0.285-0.234
				c-0.067-0.123-0.09-0.255-0.071-0.396s0.074-0.242,0.166-0.31c0.092-0.068,0.204-0.083,0.338-0.046
				c2.66,0.734,4.008,0.954,6.703,1.1c0.116,0.006,0.208,0.059,0.277,0.158c0.069,0.1,0.103,0.22,0.1,0.358
				c-0.003,0.14-0.042,0.257-0.12,0.355C30.813,52.607,30.723,52.655,30.618,52.649z"/>
			<path fill="#E1E3E5" d="M35.229,52.149c-0.094-0.082-0.138-0.121-0.231-0.204c-0.115-0.108-0.242-0.218-0.375-0.325
				c-0.224-0.19-0.336-0.284-0.557-0.479c-0.138-0.127-0.207-0.27-0.211-0.421s0.027-0.271,0.095-0.358s0.148-0.136,0.24-0.142
				s0.188,0.032,0.291,0.106c0.875,0.629,1.363,1.063,1.38,1.365c0.008,0.143-0.025,0.268-0.102,0.372
				c-0.076,0.105-0.164,0.162-0.266,0.173S35.304,52.218,35.229,52.149z M37.801,53.113c0.461-0.503,0.851-1.001,1.176-1.48
				c0.324-0.478,0.543-0.853,0.661-1.111c0.117-0.259,0.228-0.47,0.328-0.633c0.101-0.162,0.192-0.255,0.28-0.278
				s0.174-0.007,0.259,0.043c0.084,0.049,0.137,0.146,0.156,0.294s-0.004,0.295-0.071,0.434c-0.604,1.243-1.325,2.331-2.151,3.242
				c-0.825,0.912-1.855,1.786-3.06,2.587c-0.087,0.058-0.187,0.097-0.294,0.105s-0.203-0.028-0.289-0.11
				c-0.086-0.081-0.131-0.187-0.135-0.313c-0.009-0.261,0.095-0.446,0.309-0.558C35.961,54.819,36.92,54.073,37.801,53.113z
				 M35.152,48.666c-0.135-0.111-0.207-0.256-0.214-0.428s0.023-0.297,0.094-0.371c0.069-0.073,0.147-0.115,0.232-0.124
				s0.175,0.025,0.271,0.099c0.226,0.173,0.34,0.259,0.568,0.427c0.266,0.21,0.445,0.361,0.533,0.458
				c0.088,0.098,0.135,0.212,0.145,0.35c0.01,0.139-0.021,0.264-0.092,0.371c-0.072,0.108-0.146,0.166-0.227,0.178
				s-0.153,0.001-0.209-0.029s-0.163-0.118-0.322-0.268C35.772,49.178,35.509,48.961,35.152,48.666z M38.317,48.44
				c-0.027-0.027-0.054-0.046-0.068-0.059c-0.058-0.053-0.091-0.153-0.099-0.233c-0.008-0.078,0.012-0.157,0.035-0.228
				c0.043-0.13,0.114-0.227,0.229-0.251s0.307,0.087,0.583,0.33c0.277,0.244,0.441,0.399,0.488,0.478s0.076,0.163,0.086,0.249
				c0.01,0.088-0.014,0.184-0.072,0.287c-0.059,0.104-0.134,0.166-0.224,0.188c-0.091,0.021-0.175-0.017-0.255-0.113
				s-0.189-0.203-0.321-0.319C38.547,48.639,38.47,48.572,38.317,48.44z M38.829,47.373c-0.041-0.042-0.065-0.106-0.074-0.194
				c-0.009-0.087,0.009-0.183,0.053-0.291s0.114-0.175,0.216-0.199s0.293,0.094,0.58,0.345c0.287,0.252,0.451,0.409,0.485,0.481
				s0.059,0.15,0.069,0.233c0.011,0.084-0.012,0.175-0.068,0.28s-0.131,0.167-0.22,0.19s-0.194-0.036-0.318-0.185
				c-0.125-0.147-0.336-0.335-0.628-0.566C38.886,47.431,38.866,47.41,38.829,47.373z"/>
			<path fill="#E1E3E5" d="M44.868,49.995c-0.116-0.191-0.289-0.43-0.516-0.718s-0.351-0.495-0.374-0.621
				c-0.023-0.127-0.005-0.25,0.053-0.365s0.14-0.195,0.247-0.239s0.213-0.017,0.312,0.077c0.099,0.095,0.271,0.313,0.523,0.652
				c0.154,0.218,0.231,0.325,0.388,0.541c0.038,0.054,0.067,0.129,0.089,0.234s0.003,0.227-0.063,0.36
				c-0.065,0.136-0.149,0.224-0.244,0.265C45.124,50.25,44.984,50.188,44.868,49.995z M48.526,47.843
				c0.018-0.51,0.008-0.901-0.023-1.164s-0.037-0.489-0.017-0.683c0.021-0.192,0.091-0.321,0.207-0.39s0.224-0.073,0.323-0.016
				c0.1,0.059,0.173,0.174,0.221,0.345c0.048,0.172,0.063,0.679,0.03,1.523s-0.15,1.686-0.357,2.521
				c-0.208,0.836-0.484,1.602-0.831,2.291c-0.347,0.688-0.65,1.087-0.892,1.2s-0.394,0.01-0.461-0.304
				c-0.032-0.152,0.032-0.339,0.182-0.561C47.954,51.053,48.473,49.383,48.526,47.843z M46.506,48.615
				c-0.082-0.127-0.258-0.342-0.512-0.646c-0.254-0.304-0.392-0.518-0.418-0.639c-0.025-0.119-0.012-0.242,0.039-0.362
				c0.05-0.121,0.137-0.209,0.258-0.267c0.12-0.058,0.241-0.002,0.37,0.139c0.1,0.109,0.283,0.319,0.534,0.634
				c0.251,0.313,0.396,0.531,0.424,0.65s0.013,0.245-0.043,0.376c-0.057,0.131-0.133,0.223-0.232,0.272
				C46.763,48.854,46.624,48.796,46.506,48.615z"/>
			<path fill="#E1E3E5" d="M54.841,39.842c-0.008,0.09-0.011,0.133-0.019,0.223c0.032-0.067,0.025-0.118-0.021-0.156
				s-0.085-0.022-0.117,0.045c0.766-0.678,1.146-1.033,1.893-1.773c0.241-0.239,0.432-0.354,0.575-0.336s0.26,0.12,0.35,0.307
				c0.089,0.186,0.16,0.816,0.186,1.903c0.025,1.086-0.156,2.484-0.589,4.177c-0.221,0.861-0.525,1.754-0.92,2.667
				c-0.396,0.912-0.706,1.446-0.908,1.604c-0.107,0.085-0.217,0.118-0.323,0.102c-0.107-0.018-0.182-0.09-0.227-0.217
				c-0.072-0.201-0.031-0.429,0.125-0.684c0.741-1.21,1.314-2.694,1.681-4.404c0.367-1.709,0.386-3.097,0.26-4.048
				c-0.008-0.063-0.015-0.106-0.024-0.127c-0.002-0.004-0.002-0.01-0.004-0.014c-0.056,0.034-0.107,0.081-0.156,0.129
				c-0.751,0.73-1.133,1.079-1.902,1.748c-0.332,1.874-0.64,2.958-0.832,3.212c-0.039,0.052-0.081,0.101-0.119,0.14
				c-0.039,0.04-0.069,0.078-0.091,0.124c-0.021,0.045-0.098,0.084-0.233,0.106c-0.135,0.023-0.232-0.047-0.29-0.208
				c-0.057-0.16-0.026-0.364,0.086-0.611c0.261-0.574,0.49-1.378,0.665-2.395s0.245-1.89,0.232-2.615
				c-0.003-0.204,0.057-0.356,0.174-0.462s0.232-0.151,0.346-0.136c0.113,0.015,0.194,0.079,0.243,0.193s0.072,0.258,0.064,0.435
				C54.937,38.946,54.903,39.303,54.841,39.842z"/>
		</g>
	</g>
</g>
</svg>
