<?xml version="1.0" encoding="utf-8"?>
<!-- Generator: Adobe Illustrator 16.0.0, SVG Export Plug-In . SVG Version: 6.00 Build 0)  -->
<!DOCTYPE svg PUBLIC "-//W3C//DTD SVG 1.1//EN" "http://www.w3.org/Graphics/SVG/1.1/DTD/svg11.dtd">
<svg version="1.1" id="Layer_1" xmlns="http://www.w3.org/2000/svg" xmlns:xlink="http://www.w3.org/1999/xlink" x="0px" y="0px"
	 width="32px" height="32px" viewBox="0 0 32 32" enable-background="new 0 0 32 32" xml:space="preserve">
<path fill-rule="evenodd" clip-rule="evenodd" fill="#FFFFFF" d="M0,28.397c3.603,0.432,6.807-0.679,9.677-3.342
	c-3.016-0.296-5.046-2.153-6.155-5.633c0.53,0.088,1.013,0.169,1.5,0.136c0.482-0.033,0.961-0.104,1.478-0.283
	c-1.559-0.436-2.828-1.367-3.805-2.861c-0.978-1.495-1.452-3.21-1.457-5.166c0.762,0.512,1.548,0.826,2.378,0.953
	c0.18,0.027,0.361,0.08,0.575,0.034c-1.419-1.223-2.343-2.844-2.723-4.896c-0.381-2.054-0.136-4.008,0.717-5.87
	c0.318,0.45,0.617,0.887,0.938,1.301c2.438,3.144,5.368,5.272,8.776,6.404c1.139,0.378,2.299,0.619,3.479,0.7
	c0.118,0.008,0.271,0.106,0.344,0c0.047-0.069-0.03-0.263-0.047-0.402c-0.341-2.833,0.297-5.277,1.973-7.272
	c0.987-1.176,2.184-1.889,3.553-2.114c2.182-0.358,4.065,0.408,5.639,2.306c0.096,0.116,0.181,0.135,0.305,0.102
	c1.378-0.365,2.678-0.978,3.897-1.847c0.021-0.016,0.041-0.05,0.087-0.022c-0.516,1.859-1.45,3.312-2.846,4.4
	c0.358-0.026,0.662-0.098,0.963-0.174c0.314-0.079,0.628-0.166,0.938-0.27c0.304-0.103,0.604-0.223,0.9-0.351
	C31.378,4.103,31.668,3.958,32,3.802c-0.205,0.411-0.418,0.749-0.635,1.083c-0.73,1.123-1.563,2.118-2.509,2.967
	c-0.094,0.084-0.112,0.175-0.108,0.304c0.026,1.021,0.013,2.041-0.075,3.057c-0.182,2.121-0.589,4.177-1.218,6.167
	c-0.784,2.475-1.856,4.743-3.257,6.766c-2.535,3.659-5.695,6.079-9.504,7.204c-1.069,0.316-2.152,0.512-3.251,0.598
	C10.02,32.058,8.603,32,7.189,31.732c-2.563-0.484-4.939-1.579-7.133-3.278C0.052,28.45,0.048,28.445,0,28.397z"/>
</svg>
