<?xml version="1.0" encoding="utf-8"?>
<!-- Generator: Adobe Illustrator 16.0.0, SVG Export Plug-In . SVG Version: 6.00 Build 0)  -->
<!DOCTYPE svg PUBLIC "-//W3C//DTD SVG 1.1//EN" "http://www.w3.org/Graphics/SVG/1.1/DTD/svg11.dtd">
<svg version="1.1" id="Layer_1" xmlns="http://www.w3.org/2000/svg" xmlns:xlink="http://www.w3.org/1999/xlink" x="0px" y="0px"
	 width="64px" height="64px" viewBox="0 0 64 64" enable-background="new 0 0 64 64" xml:space="preserve">
<g>
	<defs>
		<rect id="SVGID_1_" width="64" height="64"/>
	</defs>
	<clipPath id="SVGID_2_">
		<use xlink:href="#SVGID_1_"  overflow="visible"/>
	</clipPath>
	<path clip-path="url(#SVGID_2_)" fill="#506CB4" d="M62.544,31.811c-0.379,16.931-14.253,30.353-30.988,29.978
		C14.821,61.414,1.563,47.385,1.942,30.454S16.194,0.101,32.929,0.476C49.664,0.851,62.923,14.88,62.544,31.811"/>
	<path clip-path="url(#SVGID_2_)" fill="#C3C2C2" d="M31.591-0.067c0.138-0.001,0.275-0.002,0.413-0.003
		C32.172-0.046,32.34-0.015,32.509,0c1.539,0.138,3.094,0.181,4.616,0.425c6.321,1.009,11.894,3.69,16.496,8.171
		c8.55,8.324,11.752,18.487,9.417,30.245C60.369,52.285,48.942,62.979,34.426,64.12c-3.746,0.294-7.448-0.074-11.074-1.127
		c-6.028-1.75-11.165-4.968-15.235-9.779c-6.926-8.188-9.34-17.662-7.063-28.155C3.129,15.499,8.67,8.4,17.168,3.709
		c3.643-2.011,7.565-3.175,11.705-3.557C29.778,0.069,30.685,0.006,31.591-0.067 M8.944,49.302c2.721-1.441,5.358-2.838,8.033-4.255
		c-1.255-3.558-1.995-7.352-2.213-11.23c-3.819,0.026-7.577,0.052-11.368,0.077C3.79,39.638,5.653,44.787,8.944,49.302
		 M55.31,48.999c3.244-4.578,5.039-9.761,5.345-15.494c-3.689,0.024-7.31,0.049-10.833,0.073c-0.257,1.993-0.423,3.951-0.78,5.875
		c-0.354,1.915-0.901,3.794-1.342,5.601C50.193,46.347,52.708,47.65,55.31,48.999 M16.564,20.005
		c-2.884-1.138-5.591-2.556-8.187-4.311c-3.063,4.548-4.713,9.529-4.999,14.995c3.837-0.026,7.597-0.052,11.366-0.077
		C14.886,26.985,15.483,23.473,16.564,20.005 M55.524,15.507c-2.646,1.451-5.218,2.863-7.83,4.297
		c1.123,3.367,1.8,6.929,1.998,10.569c3.672-0.025,7.293-0.05,10.943-0.074C60.261,24.832,58.554,19.889,55.524,15.507
		 M33.651,42.288c3.78,0.103,7.426,0.751,10.993,1.819c1.168-3.475,1.84-6.938,1.957-10.507c-4.386,0.029-8.692,0.06-13.01,0.088
		C33.612,36.558,33.631,39.39,33.651,42.288 M30.464,33.708c-4.223,0.028-8.394,0.057-12.593,0.086
		c0.21,3.568,0.885,6.999,2.09,10.365c3.472-1.077,6.975-1.692,10.562-1.858C30.503,39.406,30.484,36.576,30.464,33.708
		 M33.58,30.49c4.346-0.03,8.653-0.059,13.005-0.089c-0.188-3.321-0.795-6.519-1.855-9.656c-3.662,1.199-7.376,1.884-11.201,2.072
		C33.546,25.386,33.563,27.917,33.58,30.49 M30.38,22.832c-3.743-0.116-7.345-0.745-10.885-1.796
		c-0.979,3.164-1.521,6.32-1.644,9.557c4.237-0.029,8.406-0.057,12.581-0.085C30.414,27.941,30.397,25.409,30.38,22.832
		 M33.402,3.081c0.038,5.61,0.075,11.081,0.112,16.595c3.463-0.175,6.805-0.78,10.11-1.873C41.21,12.191,37.739,7.399,33.402,3.081
		 M30.251,3.33c-4.159,4.364-7.457,9.167-9.708,14.739c3.23,0.974,6.474,1.517,9.819,1.624C30.325,14.241,30.289,8.855,30.251,3.33
		 M33.786,60.979c0.046,0.022,0.091,0.044,0.136,0.067c3.985-4.09,7.265-8.674,9.586-14c-3.252-0.968-6.49-1.535-9.827-1.613
		C33.716,50.667,33.751,55.822,33.786,60.979 M21.114,47.079c2.333,5.203,5.557,9.669,9.519,13.721
		c-0.035-5.167-0.07-10.235-0.104-15.349C27.325,45.578,24.234,46.144,21.114,47.079 M25.379,3.891
		c-5.969,1.464-10.998,4.571-15.112,9.304c2.325,1.569,4.748,2.844,7.193,3.79c1.204-2.293,2.283-4.604,3.595-6.772
		C22.376,8.031,23.929,5.992,25.379,3.891 M53.481,12.92c-3.408-4.199-11.146-8.829-15.021-8.997
		c3.338,3.852,6.067,8.074,8.077,12.79C49.024,15.688,51.302,14.427,53.481,12.92 M18.176,48.112
		c-2.537,1.02-4.887,2.231-7.129,3.756c4.154,4.399,9.089,7.253,15.022,8.589C22.82,56.676,20.17,52.644,18.176,48.112
		 M39.046,60.131c5.591-1.393,10.283-4.272,14.303-8.658c-2.334-1.198-4.57-2.347-6.851-3.517
		C44.565,52.473,42.035,56.437,39.046,60.131"/>
</g>
</svg>
