<?xml version="1.0" encoding="UTF-8" standalone="no"?>
<!-- Generator: Adobe Illustrator 16.0.0, SVG Export Plug-In . SVG Version: 6.00 Build 0)  -->

<svg
   version="1.1"
   id="Layer_1"
   x="0px"
   y="0px"
   width="280px"
   height="280px"
   viewBox="0 0 280 280"
   enable-background="new 0 0 280 280"
   xml:space="preserve"
   sodipodi:docname="adultswim.svg"
   inkscape:version="1.4 (e7c3feb100, 2024-10-09)"
   xmlns:inkscape="http://www.inkscape.org/namespaces/inkscape"
   xmlns:sodipodi="http://sodipodi.sourceforge.net/DTD/sodipodi-0.dtd"
   xmlns="http://www.w3.org/2000/svg"
   xmlns:svg="http://www.w3.org/2000/svg"><defs
   id="defs216276">
	
	
	
</defs><sodipodi:namedview
   id="namedview216274"
   pagecolor="#ffffff"
   bordercolor="#666666"
   borderopacity="1.0"
   inkscape:pageshadow="2"
   inkscape:pageopacity="0.0"
   inkscape:pagecheckerboard="0"
   showgrid="false"
   inkscape:zoom="2.1011173"
   inkscape:cx="137.78384"
   inkscape:cy="139.44962"
   inkscape:window-width="1600"
   inkscape:window-height="815"
   inkscape:window-x="0"
   inkscape:window-y="0"
   inkscape:window-maximized="1"
   inkscape:current-layer="layer2"
   inkscape:showpageshadow="2"
   inkscape:deskcolor="#d1d1d1" />
<g
   inkscape:groupmode="layer"
   id="layer2"
   inkscape:label="BG"><rect
     y="-280"
     fill-rule="evenodd"
     clip-rule="evenodd"
     fill="#164E86"
     width="280"
     height="280"
     id="rect4994-7"
     style="fill:#2b2b2b;fill-opacity:1;stroke:none;stroke-width:0.999999;stroke-opacity:1"
     x="0"
     transform="scale(1,-1)" /><path
     style="fill:#ffffff;stroke-width:0.0194081"
     d="m 91.568635,190.28926 c -1.144677,-0.14104 -2.131788,-1.07502 -2.36138,-2.23428 -0.05197,-0.26241 -0.04686,-0.86157 0.0096,-1.1243 0.192879,-0.89777 0.819772,-1.66826 1.633695,-2.00791 0.182736,-0.0763 0.527431,-0.17823 0.718099,-0.21244 0.210116,-0.0377 0.686628,-0.0323 0.902475,0.0102 0.764947,0.15071 1.453651,0.60015 1.864691,1.21687 0.0472,0.0708 0.08582,0.13766 0.08582,0.14855 0,0.0269 -0.226164,0.16852 -0.688986,0.43126 -0.213489,0.12119 -0.464245,0.27117 -0.557237,0.33328 -0.09299,0.0621 -0.171595,0.11289 -0.174673,0.11285 -0.0031,0 -0.101666,-0.0941 -0.219085,-0.20893 -0.157214,-0.1538 -0.246742,-0.22505 -0.339641,-0.27033 -0.332311,-0.16195 -0.742382,-0.12259 -1.07247,0.10296 -0.235496,0.1609 -0.389026,0.39025 -0.451489,0.67446 -0.04499,0.2047 -0.03159,0.37769 0.05062,0.65369 0.06482,0.21761 0.06898,0.22514 0.192512,0.34857 0.06944,0.0694 0.180238,0.15475 0.246212,0.18971 0.351692,0.18633 0.807957,0.1856 1.159876,-0.002 0.126545,-0.0674 0.321912,-0.23769 0.374131,-0.32609 0.01815,-0.0307 0.04042,-0.0559 0.04949,-0.0559 0.0091,0 0.131647,0.0687 0.272381,0.15265 0.140733,0.084 0.452385,0.26745 0.69256,0.40775 0.240174,0.14031 0.449621,0.26305 0.465436,0.27276 0.02372,0.0146 0.01181,0.0425 -0.06793,0.15942 -0.338124,0.49574 -0.851315,0.89996 -1.387319,1.09275 -0.3204,0.11523 -0.423123,0.131 -0.892772,0.13701 -0.240174,0.003 -0.467249,0.002 -0.504609,-0.003 z m 23.347905,-4e-4 c -0.36215,-0.0354 -0.51927,-0.0766 -0.8137,-0.21329 -0.5563,-0.25824 -1.05652,-0.74137 -1.3282,-1.28281 -0.37613,-0.7496 -0.37739,-1.77733 -0.003,-2.53763 0.40166,-0.81593 1.15201,-1.36636 2.07745,-1.52395 0.68996,-0.11749 1.42178,0.0423 2.0131,0.43955 0.62126,0.41735 1.03103,1.02213 1.19243,1.7599 0.0271,0.12384 0.0349,0.24714 0.035,0.55692 2.9e-4,0.49041 -0.0343,0.69274 -0.18759,1.09639 -0.20483,0.5395 -0.58437,0.99271 -1.12332,1.34136 -0.2633,0.17033 -0.60344,0.29109 -0.97547,0.34633 -0.18366,0.0273 -0.68446,0.037 -0.88661,0.0172 z m 0.69494,-1.8171 c 0.16198,-0.0565 0.34888,-0.17189 0.4556,-0.28118 0.10033,-0.10275 0.20872,-0.41254 0.22269,-0.63648 0.0213,-0.34127 -0.14975,-0.68383 -0.43647,-0.87415 -0.1903,-0.12631 -0.33285,-0.16904 -0.57009,-0.1709 l -0.20586,-0.002 -0.204,0.10139 c -0.16281,0.0809 -0.22571,0.12483 -0.31149,0.21749 -0.28907,0.31222 -0.34974,0.80742 -0.14581,1.19003 0.0693,0.13008 0.27529,0.3303 0.42179,0.41003 0.22348,0.12163 0.50748,0.13829 0.77364,0.0454 z m 5.34097,1.81084 c -0.56595,-0.0491 -1.08,-0.3044 -1.54381,-0.76677 -0.26435,-0.26353 -0.42878,-0.491 -0.57223,-0.79162 -0.21416,-0.44881 -0.28118,-0.77216 -0.26613,-1.28412 0.008,-0.28496 0.0178,-0.36207 0.0678,-0.55441 0.14351,-0.55234 0.41703,-1.03502 0.7953,-1.40351 0.3827,-0.37281 0.71144,-0.55072 1.32501,-0.71709 0.21577,-0.0585 0.23675,-0.0606 0.63076,-0.0616 0.38758,-7.9e-4 0.41805,0.002 0.62106,0.0545 0.59032,0.15358 1.05327,0.42487 1.46216,0.85683 0.35084,0.37064 0.54746,0.75607 0.67247,1.31825 0.21769,0.97897 -0.12901,2.03456 -0.88876,2.70596 -0.34631,0.30605 -0.7804,0.52901 -1.1979,0.61528 -0.17161,0.0354 -0.82891,0.0522 -1.10571,0.0282 z m 0.70615,-1.78655 c 0.11925,-0.0368 0.40718,-0.21033 0.50985,-0.30723 0.0514,-0.0485 0.19482,-0.40956 0.2228,-0.56091 0.0248,-0.134 0.0118,-0.24648 -0.0491,-0.42541 -0.0643,-0.18898 -0.0939,-0.24005 -0.21512,-0.371 -0.1883,-0.20338 -0.46653,-0.31855 -0.76618,-0.31712 -0.29489,0.002 -0.50367,0.0959 -0.71807,0.32512 -0.18683,0.19974 -0.25336,0.36979 -0.25298,0.64672 4e-4,0.29259 0.097,0.53823 0.29502,0.74986 0.24254,0.25927 0.63594,0.3643 0.97374,0.25997 z m 38.28465,1.77727 c -0.83229,-0.0995 -1.64771,-0.72758 -2.05532,-1.58302 -0.16547,-0.34723 -0.23385,-0.69163 -0.23447,-1.18085 -8e-4,-0.47812 0.0726,-0.84944 0.23236,-1.17873 0.2938,-0.60549 0.79033,-1.10919 1.3469,-1.36632 0.18954,-0.0876 0.55102,-0.2033 0.75969,-0.24323 0.88906,-0.17011 1.84903,0.16242 2.53101,0.87672 0.36881,0.38629 0.58158,0.78373 0.68116,1.27241 0.0598,0.29358 0.0744,0.85207 0.0293,1.12221 -0.0971,0.58109 -0.36047,1.0884 -0.7862,1.5143 -0.41609,0.41626 -0.82767,0.64206 -1.36073,0.74653 -0.22533,0.0442 -0.8502,0.0551 -1.14365,0.02 z m 0.7161,-1.76757 c 0.29094,-0.0686 0.57736,-0.28925 0.70074,-0.53985 0.12669,-0.25735 0.12588,-0.63176 -0.002,-0.89959 -0.0408,-0.0855 -0.10461,-0.1718 -0.19067,-0.25786 -0.30158,-0.30157 -0.70815,-0.39041 -1.07457,-0.23481 -0.21058,0.0894 -0.36006,0.20495 -0.45766,0.3537 -0.25544,0.38925 -0.22512,0.94601 0.0686,1.26047 0.27178,0.29094 0.60276,0.40108 0.95547,0.31794 z m 15.65844,1.74482 c -0.007,-0.007 -0.0135,-0.2872 -0.0135,-0.62167 v -0.60811 h -0.21349 -0.21349 v -0.12616 -0.12615 h 0.58877 0.58877 l 0.0497,0.11515 c 0.0594,0.13772 0.0602,0.13706 -0.16622,0.13737 -0.0872,1.9e-4 -0.19128,0.006 -0.23131,0.0122 l -0.0728,0.012 v 0.59911 0.59911 h -0.12457 c -0.0685,0 -0.13665,0.005 -0.15143,0.0103 -0.0148,0.006 -0.0329,0.004 -0.0404,-0.003 z m -81.779721,-0.0155 c 0,-0.0268 0.334592,-1.11938 0.591803,-1.9325 0.609024,-1.92529 0.759158,-2.41283 0.9526,-3.09343 0.05731,-0.20162 0.10953,-0.37193 0.116049,-0.37845 0.0065,-0.006 0.620709,-0.0148 1.364862,-0.0183 l 1.353008,-0.006 0.109123,0.30821 c 0.134474,0.37981 0.298944,0.89582 0.567762,1.78131 0.11342,0.3736 0.279702,0.89762 0.369516,1.16448 0.08981,0.26686 0.229488,0.71228 0.310378,0.98982 0.0809,0.27753 0.19529,0.64434 0.2542,0.81513 0.0589,0.17079 0.112,0.32582 0.11795,0.3445 0.0102,0.032 -0.0447,0.034 -0.969299,0.034 h -0.980116 l -0.06273,-0.25716 c -0.0345,-0.14144 -0.09309,-0.35028 -0.130197,-0.46409 l -0.06747,-0.20692 -0.837609,0.0104 c -0.460686,0.006 -0.843369,0.0158 -0.850408,0.0225 -0.007,0.007 -0.07814,0.20869 -0.157996,0.44887 l -0.145199,0.43668 -0.953115,0.005 c -0.524214,0.003 -0.953115,10e-4 -0.953115,-0.004 z m 3.493315,-2.30611 c -3e-4,-0.0537 -0.08233,-0.3613 -0.201221,-0.75447 -0.06907,-0.22843 -0.140428,-0.49819 -0.158561,-0.59947 -0.04584,-0.25603 -0.04607,-0.25637 -0.09584,-0.14533 -0.07204,0.16074 -0.138042,0.36843 -0.243524,0.76629 -0.05514,0.20798 -0.129961,0.46125 -0.166272,0.56284 -0.03631,0.10159 -0.06602,0.18689 -0.06603,0.18955 -3e-6,0.003 0.209601,0.005 0.465788,0.005 0.359769,0 0.465762,-0.005 0.465657,-0.0243 z m 3.105426,-0.40535 v -2.71978 l 1.76128,0.0104 c 1.96588,0.0116 1.92209,0.009 2.2645,0.1486 0.76883,0.31403 1.28856,1.18433 1.17733,1.97146 -0.0846,0.59878 -0.40653,1.08701 -0.94789,1.43765 -0.056,0.0363 -0.10189,0.0715 -0.10189,0.0783 0,0.007 0.0771,0.1357 0.17124,0.28652 0.0942,0.15081 0.26156,0.42704 0.37193,0.61384 0.17052,0.28861 0.41626,0.69007 0.51973,0.84911 l 0.0284,0.0437 h -1.01757 -1.01756 l -0.22013,-0.43183 c -0.32769,-0.64284 -0.50137,-0.97659 -0.56113,-1.07832 -0.0486,-0.0827 -0.06,-0.0909 -0.1249,-0.0901 -0.0393,4e-4 -0.16312,0.003 -0.27521,0.005 l -0.20378,0.004 v 0.79573 0.79573 h -0.91218 -0.91218 z m 3.13052,-0.26159 c 0.16902,-0.0853 0.25383,-0.22717 0.25383,-0.42476 0,-0.15576 -0.0398,-0.25097 -0.1484,-0.35528 -0.0654,-0.0628 -0.0722,-0.0646 -0.31708,-0.0851 -0.15687,-0.0131 -0.40779,-0.0155 -0.67239,-0.006 l -0.42212,0.0145 v 0.44423 0.44424 h 0.62202 c 0.53387,0 0.63083,-0.004 0.68414,-0.0313 z m 4.2592,1.05511 -0.005,-1.92625 -0.85881,0.005 -0.85881,0.005 v -0.79616 -0.79616 h 2.71713 2.71713 v 0.79378 0.79378 l -0.8394,-0.003 -0.8394,-0.003 -0.005,1.92625 -0.005,1.92624 h -1.00903 -1.00903 z m 16.21049,-0.79269 v -2.71894 l 0.89519,0.007 0.8952,0.007 0.0866,0.097 c 0.28165,0.31568 0.4596,0.52755 0.73499,0.87511 0.70789,0.8934 0.86438,1.08895 0.93049,1.16274 l 0.0695,0.0776 -0.008,-1.11111 -0.008,-1.11111 h 0.89967 0.89968 l 0.004,2.44541 c 0.002,1.34499 0.005,2.56551 0.005,2.71228 l 3.3e-4,0.26686 -0.88421,0.005 -0.88422,0.005 -0.32879,-0.40349 c -0.18084,-0.22192 -0.58644,-0.72821 -0.90133,-1.12509 -0.3149,-0.39688 -0.57909,-0.72195 -0.5871,-0.72237 -0.008,-3.9e-4 -0.0146,0.50579 -0.0146,1.1249 v 1.12567 h -0.90247 -0.90248 v -2.71894 z m 12.46969,2.44303 c -0.24219,-0.28684 -0.73511,-0.89917 -1.25182,-1.55506 l -0.30083,-0.38185 -0.0122,0.19908 c -0.007,0.1095 -0.0133,0.60301 -0.0146,1.09671 l -0.002,0.89762 h -0.93163 -0.93165 l 0.005,-2.70257 0.005,-2.70258 0.92188,-0.004 0.92188,-0.004 0.54343,0.68323 c 0.29888,0.37577 0.70063,0.87534 0.89277,1.11016 l 0.34934,0.42695 0.005,-1.11084 0.005,-1.11084 h 0.90232 0.90231 v 2.71713 2.71713 h -0.88792 -0.88791 l -0.2329,-0.27584 z m 17.68483,0.0583 c -0.0594,-0.1205 -0.18606,-0.39813 -0.28136,-0.61695 -0.0953,-0.21883 -0.19936,-0.44946 -0.23125,-0.51252 l -0.058,-0.11467 -0.30763,0.72117 -0.30763,0.72116 h -0.75004 -0.75004 l -0.0905,-0.43183 c -0.11005,-0.52534 -0.22422,-1.11276 -0.46871,-2.41168 -0.17529,-0.93127 -0.46525,-2.43114 -0.4887,-2.52786 l -0.0106,-0.0439 0.91884,0.005 0.91883,0.005 0.0708,0.34934 c 0.0389,0.19214 0.11166,0.58516 0.16165,0.87336 0.10085,0.58138 0.20366,1.07715 0.22336,1.07715 0.0123,0 0.63128,-1.49608 0.79749,-1.9277 l 0.0809,-0.21008 0.0451,0.0974 c 0.0887,0.19146 0.22102,0.5038 0.38339,0.90502 0.21239,0.52479 0.33806,0.81573 0.43598,1.00922 l 0.0786,0.15526 0.01,-0.0679 c 0.005,-0.0374 0.0244,-0.17709 0.0421,-0.31052 0.0177,-0.13343 0.0881,-0.50985 0.15643,-0.83649 0.0683,-0.32664 0.13853,-0.70219 0.156,-0.83455 0.0175,-0.13236 0.0349,-0.25158 0.0388,-0.26492 0.005,-0.019 0.20638,-0.0242 0.92021,-0.0242 h 0.91315 l -0.01,0.0437 c -0.005,0.024 -0.0541,0.29694 -0.1082,0.60651 -0.0542,0.30955 -0.21219,1.15235 -0.35117,1.87287 -0.28382,1.47132 -0.46788,2.45488 -0.5038,2.69212 -0.0133,0.0876 -0.0292,0.16714 -0.0354,0.17664 -0.006,0.01 -0.34415,0.0233 -0.75096,0.0306 l -0.73964,0.0133 z m 8.91392,-2.49934 v -2.71732 l 1.59631,1e-5 c 1.94731,0 2.13329,0.0131 2.47367,0.17428 0.53693,0.25421 0.94899,0.74143 1.07401,1.26993 0.0595,0.2517 0.0602,0.7146 10e-4,0.93327 -0.12405,0.46062 -0.43787,0.87576 -0.8658,1.14532 -0.064,0.0403 -0.11945,0.0758 -0.12312,0.0788 -0.011,0.009 0.27233,0.50755 0.61685,1.08544 0.17818,0.29889 0.34778,0.58491 0.37688,0.63562 l 0.0529,0.0922 h -0.70437 c -0.3874,0 -0.83974,0.005 -1.00519,0.0118 l -0.30083,0.0118 -0.40756,-0.80269 -0.40757,-0.80268 -0.27635,-0.005 -0.27635,-0.005 -0.005,0.80111 -0.005,0.80112 -0.90733,0.005 -0.90733,0.005 v -2.71724 z m 3.03736,-0.26261 c 0.20462,-0.0384 0.23272,-0.0537 0.27183,-0.14849 0.0441,-0.10683 0.061,-0.37522 0.0296,-0.47022 -0.0293,-0.0887 -0.10334,-0.17797 -0.18247,-0.21993 -0.052,-0.0276 -0.1522,-0.0334 -0.69638,-0.0404 l -0.63562,-0.008 v 0.45788 0.45788 l 0.30568,0.007 c 0.40856,0.009 0.74193,-0.004 0.90733,-0.0351 z m 10.41243,2.24318 c 0,-0.40499 0.007,-0.73925 0.0146,-0.74279 0.008,-0.004 0.11062,-0.002 0.22804,0.004 l 0.21349,0.0101 0.0925,0.37846 c 0.12212,0.49962 0.17437,0.70029 0.18071,0.69397 0.003,-0.003 0.0411,-0.16236 0.085,-0.35444 0.0439,-0.19208 0.10392,-0.4322 0.13344,-0.53361 l 0.0537,-0.18438 0.20771,-0.005 0.20771,-0.006 v 0.73817 0.73816 h -0.13586 -0.13585 v -0.16012 c 0,-0.0881 -0.006,-0.33915 -0.0132,-0.55798 l -0.0132,-0.39786 -0.0526,0.27171 c -0.0289,0.14944 -0.0841,0.39639 -0.12264,0.54877 -0.0385,0.15238 -0.07,0.2812 -0.07,0.28627 0,0.005 -0.0729,0.009 -0.16204,0.009 h -0.16202 l -0.0436,-0.26685 c -0.0395,-0.24202 -0.12861,-0.66279 -0.17149,-0.81029 -0.0159,-0.0546 -0.0178,-0.0515 -0.0298,0.0485 -0.007,0.0587 -0.013,0.31418 -0.0131,0.56769 l -1.9e-4,0.46094 h -0.14556 -0.14556 v -0.73641 z m -37.30231,-1.99047 v -2.70742 h 2.36779 2.36778 v 0.78603 0.78602 h -1.4556 -1.4556 v 0.2329 0.2329 h 1.24211 1.24212 v 0.67928 0.67928 h -1.24212 -1.24211 v 0.28142 0.28141 h 1.4556 1.4556 v 0.7278 0.72781 h -2.36778 -2.36779 z m 7.04513,0.78603 v -1.9214 h -0.85395 -0.85395 v -0.78602 -0.78603 h 2.71712 2.71713 v 0.78603 0.78602 h -0.84425 -0.84425 v 1.9214 1.9214 h -1.01892 -1.01893 z m 22.55218,-0.78603 v -2.70742 h 0.91198 0.91197 l 0.005,0.86291 0.005,0.86291 0.2057,-0.25641 c 0.11315,-0.14102 0.31346,-0.40051 0.44516,-0.57664 0.13169,-0.17613 0.33882,-0.44906 0.46028,-0.6065 l 0.22085,-0.28627 h 1.16436 c 0.92641,0 1.16134,0.005 1.14961,0.0242 -0.008,0.0133 -0.11592,0.14653 -0.23957,0.29597 -0.12365,0.14944 -0.42486,0.52062 -0.66936,0.82485 -0.24449,0.30421 -0.61377,0.75619 -0.82061,1.00439 l -0.37608,0.45126 0.32734,0.4221 c 0.18004,0.23216 0.57236,0.74961 0.87183,1.1499 0.29947,0.4003 0.63339,0.84353 0.74204,0.98496 l 0.19755,0.25716 h -1.17381 -1.17382 l -0.66574,-0.99993 -0.66573,-0.99992 -0.005,0.99992 -0.005,0.99993 h -0.912 -0.91201 z M 87.70643,159.53015 v -22.1155 h 22.1252 22.12521 l -0.005,22.11064 -0.005,22.11064 -22.12035,0.005 -22.120338,0.005 z m 24.60943,19.69976 c 0.45384,-0.0338 1.49138,-0.13581 1.76613,-0.17362 0.16687,-0.023 1.38472,-0.26568 1.62057,-0.32297 0.0534,-0.013 0.34595,-0.0926 0.65017,-0.17688 1.31477,-0.36438 2.42328,-0.79083 3.6002,-1.385 3.37045,-1.70159 6.22777,-4.37144 8.14939,-7.6147 0.072,-0.12148 0.12371,-0.22757 0.11496,-0.23575 -0.009,-0.008 -0.2692,-0.15672 -0.57876,-0.33007 -0.30955,-0.17335 -1.803,-1.02416 -3.31877,-1.89068 -1.51578,-0.86652 -3.2756,-1.87125 -3.91073,-2.23273 -1.23267,-0.70157 -2.11659,-1.21157 -2.69772,-1.55653 -0.19748,-0.11722 -0.37831,-0.22338 -0.40185,-0.23592 -0.0405,-0.0216 -0.0527,-0.008 -0.2259,0.25399 -0.76643,1.15858 -1.66843,1.97502 -2.82392,2.55609 -0.97237,0.48898 -1.93507,0.72711 -3.04033,0.75206 -1.05024,0.0237 -1.96014,-0.15347 -2.96336,-0.57704 -1.51703,-0.64049 -2.82823,-1.89592 -3.57687,-3.42472 -0.35543,-0.72583 -0.56665,-1.44626 -0.66002,-2.25122 -0.0349,-0.30098 -0.0397,-1.20293 -0.008,-1.57597 0.15664,-1.8653 1.12641,-3.60908 2.70825,-4.86979 0.61134,-0.48723 1.39198,-0.90622 2.14231,-1.14983 0.45213,-0.1468 0.83759,-0.22796 1.36263,-0.28691 0.42077,-0.0472 1.37336,-0.0473 1.76206,-1.7e-4 0.64136,0.0778 1.16405,0.21819 1.83407,0.49259 1.31438,0.53829 2.55662,1.60241 3.32066,2.8445 0.0604,0.0983 0.11149,0.18066 0.11345,0.18311 0.002,0.002 0.11219,-0.0622 0.24494,-0.14378 0.13276,-0.0815 0.60819,-0.35524 1.05652,-0.60823 1.06689,-0.60204 1.7009,-0.96317 4.93935,-2.81344 1.48908,-0.85077 3.15284,-1.79836 3.69723,-2.10575 0.5444,-0.30739 1.00033,-0.56861 1.01318,-0.58048 0.0279,-0.0258 -0.24453,-0.48926 -0.62878,-1.06962 -0.78719,-1.18896 -1.5324,-2.09979 -2.55746,-3.12584 -0.69698,-0.69766 -1.31253,-1.23597 -2.02878,-1.77422 -1.08505,-0.8154 -1.98102,-1.3703 -3.13441,-1.94127 -1.05629,-0.52289 -1.9442,-0.87712 -2.99854,-1.19627 -1.94641,-0.58918 -3.7794,-0.86229 -5.79331,-0.86322 -1.70444,-7.9e-4 -3.07838,0.17039 -4.79089,0.59683 -1.93498,0.48185 -3.64775,1.18725 -5.33041,2.19531 -2.025181,1.21327 -3.89231,2.84794 -5.34326,4.67804 -1.613262,2.03481 -2.789768,4.32216 -3.516911,6.83753 -0.665014,2.30045 -0.904666,4.72801 -0.697248,7.06279 0.273388,3.07735 1.171513,5.87746 2.718159,8.47447 0.743462,1.24837 1.619973,2.40582 2.610854,3.44769 2.294399,2.41248 5.085436,4.18058 8.226466,5.2114 1.61589,0.53031 3.05074,0.8002 4.91994,0.92544 0.24551,0.0164 0.49442,0.0332 0.55313,0.0372 0.23618,0.0161 1.52912,-0.009 1.90199,-0.0364 z m 22.78507,-19.69006 v -18.96168 l 6.32218,0.001 6.32218,0.001 1.37797,1.71106 c 0.75788,0.94108 3.35665,4.1829 5.77503,7.20404 2.41838,3.02115 4.64545,5.80236 4.94905,6.18049 l 0.552,0.68749 0.005,-7.89274 0.005,-7.89274 h 6.31481 6.3148 l 0.0131,13.02767 c 0.007,7.16521 0.009,13.14556 0.005,13.28966 -0.005,0.14411 -0.009,2.81442 -0.0106,5.93402 l -0.002,5.67201 h -6.32381 -6.32317 l -2.27209,-2.83843 c -1.24965,-1.56114 -4.03344,-5.03931 -6.18621,-7.72926 -3.62998,-4.5358 -4.14439,-5.17225 -4.18047,-5.17225 -0.007,0 -0.0108,3.54148 -0.008,7.86996 l 0.006,7.86998 h -6.32783 -6.32782 z"
     id="path987" /></g>
<g
   inkscape:groupmode="layer"
   id="layer1"
   inkscape:label="Logo"><path
     style="fill:#ffffff;stroke-width:0.337376"
     d="m 13.400185,135.31526 c -0.07569,-0.28014 -0.104568,-15.03742 -0.06417,-32.79397 l 0.0733,-32.284643 h 6.101921 6.101924 l 0.08123,3.910254 0.08123,3.910255 h -2.529818 c -1.788451,0 -2.623825,0.160062 -2.850598,0.546172 -0.232539,0.395954 -0.300647,7.26271 -0.247611,24.965462 l 0.07319,24.41927 2.777669,0.11498 2.777658,0.11498 -0.08144,3.69502 -0.08144,3.69503 -6.0377,0.10833 c -4.675917,0.084 -6.068726,-0.006 -6.175255,-0.40105 z m 240.727655,0.22593 c -0.10411,-0.14709 -0.1892,-1.85477 -0.1892,-3.79494 v -3.52757 l 2.62524,-0.1153 2.62523,-0.1153 V 103.12287 78.257695 l -2.63537,-0.115464 -2.6354,-0.115465 0.0811,-3.895011 0.0811,-3.895027 h 6.38572 6.38575 l 0.0727,32.785972 0.0726,32.78594 h -6.34009 c -3.48704,0 -6.42522,-0.12033 -6.52928,-0.26737 z M 31.147453,123.0928 c -2.804338,-1.36331 -4.540969,-5.71839 -4.540969,-11.38771 0,-2.31354 0.737435,-6.41624 1.206193,-6.71065 0.11707,-0.0735 0.212861,-0.37419 0.212861,-0.66814 0,-0.69517 1.818064,-2.66086 3.263812,-3.52883 0.624381,-0.37485 2.667816,-1.233902 4.54097,-1.908982 4.371719,-1.575551 4.824916,-2.163011 4.714283,-6.110918 -0.08144,-2.906634 -3.250825,-4.280813 -4.717019,-2.045221 -0.376835,0.574584 -0.785813,1.760256 -0.908837,2.634806 l -0.223666,1.590091 -3.547628,0.0016 -3.547639,0.0016 -0.09122,-1.506882 c -0.05017,-0.828785 0.03573,-1.880002 0.190773,-2.336023 0.155083,-0.456022 0.364294,-1.35981 0.464925,-2.008441 0.281035,-1.811437 1.664407,-3.986507 3.296541,-5.183093 1.912019,-1.40178 5.01821,-2.017085 8.577478,-1.699151 4.207116,0.375796 6.417609,2.067 7.587815,5.805242 0.506115,1.616833 0.551809,2.814376 0.573853,15.040682 0.02227,12.32467 0.169469,16.29484 0.689809,18.5979 l 0.20387,0.90238 h -3.836776 -3.836774 l -0.311582,-1.26297 c -0.171358,-0.69464 -0.311572,-1.62254 -0.311572,-2.06199 0,-0.63188 -0.281969,-0.38438 -1.348101,1.18335 -2.142885,3.15109 -5.246447,4.14578 -8.301447,2.66061 z m 7.939784,-8.2259 c 0.990585,-0.87419 1.395002,-2.78604 1.480909,-7.00095 0.04572,-2.24402 0.0044,-4.19186 -0.09275,-4.32854 -0.09675,-0.13671 -0.885892,0.21045 -1.753724,0.77136 -0.867823,0.56095 -1.703946,1.01987 -1.858027,1.01987 -0.154094,0 -0.673139,0.55532 -1.153429,1.23402 -0.808813,1.14292 -0.873262,1.4412 -0.873262,4.04137 0,2.5905 0.06634,2.90117 0.859644,4.02212 0.748231,1.05731 0.991845,1.1797 1.879702,0.94433 0.561038,-0.14871 1.240943,-0.46533 1.510901,-0.70358 z m 17.941017,8.16371 c -2.47272,-1.4184 -4.104627,-4.37127 -4.906881,-8.87883 -0.637661,-3.58278 -0.916567,-11.01053 -0.613608,-16.341873 0.504572,-8.879459 1.469159,-12.15323 4.318747,-14.657732 0.842542,-0.7405 1.420337,-0.883971 3.560072,-0.883971 2.883981,0 3.877367,0.591644 5.499685,3.27549 l 0.886054,1.46582 V 78.71263 70.415731 l 4.116181,0.110924 4.116191,0.110924 0.01168,25.867808 0.01168,25.867823 -3.843984,0.11157 -3.843974,0.11157 v -2.01656 c 0,-1.99201 -0.4071,-2.68459 -0.772804,-1.31474 -0.338828,1.26915 -1.90154,3.19195 -3.135338,3.85779 -1.555565,0.83949 -3.847339,0.80032 -5.403557,-0.0923 z m 6.88197,-8.13854 c 1.111437,-0.7156 1.528006,-1.97719 1.84961,-5.6016 0.60061,-6.76865 0.197615,-15.139451 -0.826708,-17.17225 -1.19439,-2.370274 -3.52036,-1.857996 -4.529612,0.997636 -0.603608,1.707876 -0.627975,2.166265 -0.537366,10.109034 0.08449,7.40083 0.155926,8.45938 0.647098,9.58113 0.556445,1.27081 1.705042,2.51849 2.336666,2.53825 0.187777,0.005 0.664919,-0.19762 1.060312,-0.4522 z m 18.323109,8.18726 c -1.503681,-0.74689 -2.818466,-2.48235 -3.573276,-4.7165 -0.50681,-1.50012 -0.541983,-2.69729 -0.541983,-18.448372 V 83.070296 l 4.186213,-0.110925 4.186201,-0.110924 v 14.86786 14.867833 l 0.696627,0.9844 c 1.330389,1.87999 3.737271,0.91298 4.429835,-1.77975 0.271002,-1.05367 0.400878,-5.17991 0.477902,-15.182893 l 0.105767,-13.736011 h 3.926025 c 2.879074,0 3.962306,0.133628 4.062056,0.501316 0.0748,0.275721 0.13071,9.209137 0.12439,19.852058 l -0.0114,19.35072 h -4.067286 -4.067336 v -2.00527 c 0,-1.97005 -0.376498,-2.68388 -0.687462,-1.30342 -0.241312,1.07124 -2.021695,2.99498 -3.512063,3.79482 -1.620133,0.86951 -4.006015,0.87755 -5.733838,0.0193 z m 64.850657,-0.0723 c -4.03842,-1.6198 -5.72183,-4.45644 -5.88002,-9.90803 l -0.0801,-2.75714 3.59676,-0.11206 3.59674,-0.11206 0.31318,2.11726 c 0.36055,2.43768 0.47185,2.72219 1.42555,3.64445 1.92974,1.86614 4.52944,-0.17777 4.54248,-3.57133 0.01,-2.60211 -0.97949,-3.82809 -4.39278,-5.44258 -7.22629,-3.41812 -9.22469,-6.56459 -8.86598,-13.959584 0.0825,-1.701778 0.32315,-3.528151 0.5347,-4.058608 0.76719,-1.923837 2.00234,-3.97235 2.39514,-3.97235 0.221,0 0.40184,-0.145791 0.40184,-0.323869 0,-0.595715 2.10668,-1.641856 4.25717,-2.114062 2.58077,-0.56667 6.41808,-0.228319 8.35591,0.736786 2.84259,1.41571 4.69936,5.259345 4.69936,9.727935 v 1.598443 h -3.68953 -3.68954 l -0.006,-1.503947 c -0.003,-0.856711 -0.2411,-1.935416 -0.55193,-2.506561 -0.47978,-0.881653 -0.75699,-1.000848 -2.29775,-0.987761 -1.48393,0.01297 -1.8339,0.157467 -2.28617,0.946796 -0.82034,1.431571 -0.69065,3.367392 0.32135,4.797486 0.47047,0.664799 1.14098,1.321683 1.49,1.459723 0.34907,0.13801 0.89006,0.40397 1.20225,0.59092 0.31219,0.18696 1.27007,0.64376 2.12859,1.015097 3.90304,1.688196 6.02991,3.841576 7.12839,7.217156 0.69952,2.14973 0.71204,8.10738 0.0219,10.46764 -1.07528,3.67781 -3.12201,5.96635 -6.35725,7.10841 -2.39553,0.84562 -6.06911,0.80222 -8.31409,-0.0983 z m -24.6915,-0.30201 c -1.34339,-0.41875 -2.36953,-1.5386 -2.94588,-3.21494 -0.57579,-1.67474 -0.60175,-2.31873 -0.60175,-14.9313 0,-14.82845 0.19563,-13.667914 -2.30398,-13.667914 h -1.40611 l 0.0812,-3.910255 0.0812,-3.910239 1.77381,-0.119357 1.77381,-0.119357 v -5.807106 -5.807139 l 4.04431,0.111248 4.0443,0.111249 0.0788,5.714994 0.0786,5.714978 h 1.83698 1.83696 v 4.010476 4.010524 h -1.84476 -1.84477 l 0.005,10.728118 c 0.003,5.90047 0.0769,11.11219 0.16596,11.5816 0.19793,1.04227 1.22794,1.75337 2.53971,1.75337 h 0.97999 v 3.7632 c 0,3.56357 -0.0339,3.77606 -0.63856,4.00506 -0.71572,0.27101 -6.85292,0.25738 -7.73384,-0.0172 z m -18.02801,-0.43187 c -0.003,-0.16545 -0.003,-11.85108 -8.4e-4,-25.968083 l 0.005,-25.667298 4.11618,-0.110924 4.11618,-0.110924 v 26.079046 26.079083 h -4.11524 c -2.26339,0 -4.11797,-0.13541 -4.12131,-0.30079 z m 64.88704,-0.40107 c -0.15828,-0.74116 -0.8817,-5.4831 -1.30028,-8.52233 -0.33177,-2.40911 -1.07927,-7.56944 -1.59757,-11.02891 -0.69079,-4.610703 -1.17009,-7.847513 -1.6331,-11.028928 -0.24079,-1.654343 -0.56629,-3.820008 -0.72334,-4.812617 -0.60814,-3.843003 -0.84406,-3.609462 3.64628,-3.609462 2.34025,0 4.02849,0.164392 4.13259,0.402376 0.0968,0.221297 0.2978,2.071152 0.44674,4.110778 0.14887,2.039626 0.39067,4.701011 0.53722,5.914187 0.28428,2.353149 0.7316,7.277306 1.16589,12.833656 0.1466,1.87491 0.34649,3.95036 0.44438,4.61207 l 0.17795,1.20316 0.26558,-1.00263 c 0.14612,-0.55145 0.45933,-2.98782 0.69613,-5.41419 0.67369,-6.903156 1.91168,-18.556219 2.24855,-21.165369 l 0.19543,-1.513855 4.42309,0.110113 4.42303,0.110114 0.1941,1.604183 c 0.10671,0.882334 0.4011,3.769897 0.65411,6.416833 0.25304,2.646952 0.58435,5.895458 0.73627,7.218925 0.15196,1.323474 0.41931,3.940336 0.59416,5.815246 0.56745,6.08392 0.6726,6.84265 0.96065,6.93118 0.15616,0.048 0.37209,-1.17609 0.48003,-2.72013 0.10801,-1.54405 0.32741,-3.89021 0.48778,-5.21368 0.16038,-1.32345 0.48359,-4.391516 0.71833,-6.817862 0.23474,-2.426369 0.64466,-6.446786 0.91089,-8.93426 l 0.48409,-4.522689 3.85186,0.111086 3.85181,0.111086 -0.089,1.604184 c -0.049,0.882334 -0.25988,2.596826 -0.46862,3.809986 -0.37854,2.200206 -0.80816,4.955439 -1.71962,11.028927 -0.26485,1.764632 -0.64938,4.291242 -0.85454,5.614722 -0.20517,1.32347 -0.58465,3.85009 -0.84334,5.61471 -0.25868,1.76464 -0.57707,3.74984 -0.7076,4.41157 -0.13055,0.66174 -0.31654,1.83481 -0.41344,2.60683 -0.0968,0.77203 -0.31551,2.1707 -0.48587,3.10815 l -0.30975,1.70449 h -4.64058 -4.64059 l -0.15179,-1.1029 c -0.0835,-0.6066 -0.27752,-1.8725 -0.43111,-2.81311 -0.15358,-0.94064 -0.27845,-2.29417 -0.2774,-3.0079 0,-0.71371 -0.18573,-2.83168 -0.41499,-4.7066 -0.56282,-4.60268 -1.22822,-10.944672 -1.43103,-13.639203 -0.35668,-4.739186 -0.83229,-3.511463 -1.55497,4.013983 -0.15892,1.65433 -0.48659,4.72237 -0.72825,6.81786 -0.24167,2.0955 -0.61721,5.43425 -0.83451,7.41947 -0.21736,1.9852 -0.48381,4.37646 -0.59212,5.31391 l -0.19697,1.70449 h -4.7683 c -4.29493,0 -4.78315,-0.0697 -4.91812,-0.70186 z m 34.45265,-19.16127 V 82.84775 l 4.04431,0.111249 4.0443,0.111248 0.0736,19.751783 0.0736,19.75178 h -4.11793 -4.11795 z m 12.1341,0.11141 0.0722,-19.751894 3.97217,-0.111248 3.97216,-0.111249 0.005,2.31705 0.005,2.317066 0.98731,-1.663635 c 1.62093,-2.731264 2.93577,-3.4891 6.09684,-3.514058 2.0969,-0.01654 2.91077,0.142385 3.66153,0.714877 1.08159,0.824861 2.5823,2.984784 2.5823,3.716673 0,1.109614 0.76605,0.694735 1.6137,-0.873917 1.57358,-2.912213 2.62225,-3.544643 5.90728,-3.56253 2.95535,-0.01622 4.29099,0.564756 5.18588,2.255247 0.19858,0.375163 0.53326,0.925487 0.74374,1.222906 0.2105,0.297436 0.59079,1.552273 0.84514,2.788542 0.39275,1.909258 0.46237,4.639111 0.46237,18.12782 v 15.88007 h -4.11523 -4.11527 v -13.81017 c 0,-14.274465 -0.0699,-15.260344 -1.20361,-16.970522 -1.06238,-1.602627 -3.00725,-0.835823 -3.98481,1.571101 -0.43565,1.07264 -0.48779,2.69896 -0.48779,15.216011 v 14.01504 l -4.1862,-0.11109 -4.1862,-0.11092 -0.0746,-14.62175 -0.0746,-14.62174 -0.75904,-1.119539 c -0.86399,-1.274379 -1.77003,-1.416797 -2.9179,-0.458632 -1.64325,1.371697 -1.70825,2.025874 -1.70825,17.199521 v 13.82266 l -4.18622,1.1e-4 -4.18618,1.2e-4 z m -12.1341,-28.564007 v -4.623105 h 4.12458 4.12453 l -0.0803,4.511824 -0.0803,4.511824 -4.0443,0.111248 -4.04431,0.111249 z m 68.16409,-1.715481 c -0.0383,-1.316933 -0.16251,-1.710876 -0.54623,-1.732655 -0.42471,-0.02416 -0.41444,-0.07817 0.0709,-0.372861 0.78869,-0.47892 1.56096,-0.47892 1.56096,0 0,0.220567 -0.18422,0.401046 -0.4094,0.401046 -0.27538,0 -0.44496,0.557897 -0.51803,1.70447 l -0.10865,1.704469 z m 1.63432,-0.235341 c -0.072,-1.066867 -0.0323,-2.025955 0.0882,-2.131284 0.28806,-0.251575 0.77676,1.604362 0.49116,1.865309 -0.12065,0.110276 -0.271,0.651696 -0.33402,1.203154 -0.074,0.64769 -0.16087,0.315923 -0.24546,-0.937179 z m 0.98656,1.187472 c -0.23716,-0.873268 -0.0712,-1.107798 0.4573,-0.646247 0.32457,0.283457 0.3403,0.468314 0.0722,0.84737 -0.26825,0.37904 -0.38374,0.335173 -0.52936,-0.201123 z m 0.78667,-1.925329 c 0.0498,-0.477946 0.25015,-0.94326 0.44527,-1.034075 0.52457,-0.244115 0.4363,1.375929 -0.0905,1.661592 -0.3332,0.180673 -0.42247,0.0227 -0.35476,-0.627517 z"
     id="path357" /></g></svg>
