<?xml version="1.0" encoding="utf-8"?>
<!-- Generator: Adobe Illustrator 16.0.0, SVG Export Plug-In . SVG Version: 6.00 Build 0)  -->
<!DOCTYPE svg PUBLIC "-//W3C//DTD SVG 1.1//EN" "http://www.w3.org/Graphics/SVG/1.1/DTD/svg11.dtd">
<svg version="1.1" id="Layer_1" xmlns="http://www.w3.org/2000/svg" xmlns:xlink="http://www.w3.org/1999/xlink" x="0px" y="0px"
	 width="280px" height="280px" viewBox="0 0 280 280" enable-background="new 0 0 280 280" xml:space="preserve">
<rect y="-0.042" fill-rule="evenodd" clip-rule="evenodd" fill="#00B07B" width="280" height="280"/>
<g>
	<path fill-rule="evenodd" clip-rule="evenodd" fill="#FEF1EC" d="M122.278,94.473c4.809-3.458,1.803-13.685,9.261-11.19
		c8.16,2.731,0.134,9.209,0.321,14.042c0.013,0.316-0.078,0.647-0.177,0.954c-1.45,4.492-0.979,11.164-6.267,12.206
		c-5.618,1.107-6.462-6.039-9.63-9.347c-0.621-0.648-1.354-1.19-2.651-2.315c-1.141,2.982-2.275,5.467-3.034,8.06
		c-0.822,2.812-2.225,5.03-5.371,3.975c-3.024-1.015-3.146-3.948-2.447-6.57c1.409-5.289,2.774-10.62,4.694-15.736
		c2.898-7.727,5.045-7.93,10.172-1.349C118.914,89.465,120.468,91.89,122.278,94.473z"/>
	<path fill-rule="evenodd" clip-rule="evenodd" fill="#FEF1EC" d="M160.414,111.084c-2.566-0.493-4.373-2.182-4.158-4.599
		c0.267-3.02,1.534-5.627-3.371-5.939c-3.617-0.23-5.116,0.784-6.288,4.192c-1.01,2.93-1.892,8.054-6.893,5.653
		c-4.279-2.053-2.101-6.084-1.046-9.428c1.452-4.604,2.949-9.197,4.272-13.837c0.67-2.352,1.546-4.474,4.363-4.343
		c2.725,0.126,3.913,1.997,3.878,4.606c-0.03,2.491-1.027,5.364,3.353,5.234c3.177-0.095,5.627-0.43,6.605-4.179
		c0.781-2.998,1.862-7.068,6.313-5.406c4.156,1.554,2.676,5.078,1.657,8.276c-1.569,4.926-2.814,9.95-4.263,14.915
		C164.167,108.53,162.643,110.147,160.414,111.084z"/>
	<path fill-rule="evenodd" clip-rule="evenodd" fill="#FEF1EC" d="M187.762,90.643c3.438-2.487,6.042-4.41,8.688-6.273
		c2.224-1.563,4.585-2.923,6.831-0.161c2.196,2.702,0.77,5.221-1.475,6.639c-5.932,3.756-9.964,7.381-2.394,13.484
		c1.654,1.333,1.453,3.662,0.006,5.232c-1.828,1.983-4.09,1.781-6.092,0.125c-3.229-2.674-6.368-5.456-9.916-8.513
		c0.608-0.234-0.159-0.185-0.36,0.177c-1.978,3.554-1.043,10.983-7.215,9.195c-6.408-1.857-1.561-7.68-1.014-11.719
		c0.428-3.158,1.196-6.389,2.503-9.277c1.214-2.679,1.176-7.027,5.69-6.8C187.635,82.984,185.852,87.663,187.762,90.643z"/>
</g>
<g>
	<path fill-rule="evenodd" clip-rule="evenodd" fill="#F6FBF9" d="M128.802,160.427c-0.001-11.316,0.263-22.641-0.121-33.94
		c-0.171-5.02,1.738-5.774,5.833-5.719c14.595,0.196,29.198,0.178,43.794,0.008c3.806-0.046,5.803,0.594,5.508,5.339
		c-0.245,3.965-0.277,6.621-5.323,6.428c-10.315-0.393-20.663,0.1-30.987-0.216c-4.447-0.135-5.654,1.381-5.67,5.971
		c-0.054,15.304-0.229,15.304,14.229,15.304c6.516,0.002,13.036,0.235,19.539-0.068c4.58-0.213,4.321,2.659,4.311,5.879
		c-0.013,3.182,0.335,6.023-4.279,5.884c-9.426-0.285-18.87,0.091-28.296-0.156c-3.973-0.105-5.417,0.981-5.509,5.462
		c-0.382,18.521-0.535,18.52,17.207,18.52c6.964,0,13.938,0.276,20.886-0.092c4.917-0.26,4.64,2.746,4.751,6.248
		c0.121,3.733-0.735,5.516-4.814,5.457c-15.271-0.22-30.548-0.22-45.817-0.002c-4.153,0.061-5.411-1.362-5.322-5.655
		C128.96,183.531,128.802,171.978,128.802,160.427z"/>
</g>
</svg>
