<?xml version="1.0" encoding="utf-8"?>
<!-- Generator: Adobe Illustrator 16.0.0, SVG Export Plug-In . SVG Version: 6.00 Build 0)  -->
<!DOCTYPE svg PUBLIC "-//W3C//DTD SVG 1.1//EN" "http://www.w3.org/Graphics/SVG/1.1/DTD/svg11.dtd">
<svg version="1.1" id="Layer_1" xmlns="http://www.w3.org/2000/svg" xmlns:xlink="http://www.w3.org/1999/xlink" x="0px" y="0px"
	 width="280px" height="280px" viewBox="0 0 280 280" enable-background="new 0 0 280 280" xml:space="preserve">
<rect y="-0.042" fill-rule="evenodd" clip-rule="evenodd" fill="#EE3425" width="280" height="280"/>
<g>
	<path fill-rule="evenodd" clip-rule="evenodd" fill="#FEF1EC" d="M175.813,191.886c-14.26,11.286-28.24,12.958-41.213,5.417
		c-12.97-7.54-21.106-26.949-18.158-43.312c4.694-26.052,27.704-39.577,51.569-30.306c6.967,2.708,12.544,7.089,15.464,14.043
		c1.069,2.553,4.923,6.222,0.614,8.198c-3.566,1.637-8.297,3.295-11.818-2.19c-6.627-10.326-13.331-12.913-24.687-10.346
		c-10.176,2.299-14.998,9.608-17.033,19.146c-1.596,7.476-1.004,14.954,1.104,22.212c2.773,9.552,11.043,15.505,21.142,15.722
		c9.847,0.211,16.728-3.99,20.694-13.16c2.342-5.41,1.574-8.022-4.899-7.473c-2.598,0.222-5.251-0.158-7.847,0.09
		c-4.526,0.43-6.518-1.224-6.633-5.941c-0.135-5.434,3.158-5.273,7.015-5.436c25.944-1.089,25.942-1.135,25.942,24.501
		c0,2.603,0.324,5.258-0.08,7.8c-0.496,3.099,2.219,7.443-2.928,8.96C180.117,200.972,178.567,199.476,175.813,191.886z"/>
	<path fill-rule="evenodd" clip-rule="evenodd" fill="#FEF1EC" d="M122.278,94.473c4.809-3.458,1.803-13.685,9.261-11.19
		c8.16,2.731,0.134,9.209,0.321,14.042c0.013,0.316-0.078,0.647-0.177,0.954c-1.45,4.492-0.979,11.164-6.267,12.206
		c-5.618,1.107-6.462-6.039-9.63-9.347c-0.621-0.648-1.354-1.19-2.651-2.315c-1.141,2.982-2.275,5.467-3.034,8.06
		c-0.822,2.812-2.225,5.03-5.371,3.975c-3.024-1.015-3.146-3.948-2.447-6.57c1.409-5.289,2.774-10.62,4.694-15.736
		c2.898-7.727,5.045-7.93,10.172-1.349C118.914,89.465,120.468,91.89,122.278,94.473z"/>
	<path fill-rule="evenodd" clip-rule="evenodd" fill="#FEF1EC" d="M160.414,111.084c-2.566-0.493-4.373-2.182-4.158-4.599
		c0.267-3.02,1.534-5.627-3.371-5.939c-3.617-0.23-5.116,0.784-6.288,4.192c-1.01,2.93-1.892,8.054-6.893,5.653
		c-4.279-2.053-2.101-6.084-1.046-9.428c1.452-4.604,2.949-9.197,4.272-13.837c0.67-2.352,1.546-4.474,4.363-4.343
		c2.725,0.126,3.913,1.997,3.878,4.606c-0.03,2.491-1.027,5.364,3.353,5.234c3.177-0.095,5.627-0.43,6.605-4.179
		c0.781-2.998,1.862-7.068,6.313-5.406c4.156,1.554,2.676,5.078,1.657,8.276c-1.569,4.926-2.814,9.95-4.263,14.915
		C164.167,108.53,162.643,110.147,160.414,111.084z"/>
	<path fill-rule="evenodd" clip-rule="evenodd" fill="#FEF1EC" d="M187.762,90.643c3.438-2.487,6.042-4.41,8.688-6.273
		c2.224-1.563,4.585-2.923,6.831-0.161c2.196,2.702,0.77,5.221-1.475,6.639c-5.932,3.756-9.964,7.381-2.394,13.484
		c1.654,1.333,1.453,3.662,0.006,5.232c-1.828,1.983-4.09,1.781-6.092,0.125c-3.229-2.674-6.368-5.456-9.916-8.513
		c0.608-0.234-0.159-0.185-0.36,0.177c-1.978,3.554-1.043,10.983-7.215,9.195c-6.408-1.857-1.561-7.68-1.014-11.719
		c0.428-3.158,1.196-6.389,2.503-9.277c1.214-2.679,1.176-7.027,5.69-6.8C187.635,82.984,185.852,87.663,187.762,90.643z"/>
</g>
</svg>
