<?xml version="1.0" encoding="UTF-8" standalone="no"?>
<!-- Generator: Adobe Illustrator 16.0.0, SVG Export Plug-In . SVG Version: 6.00 Build 0)  -->

<svg
   version="1.1"
   id="Layer_1"
   x="0px"
   y="0px"
   width="280px"
   height="280px"
   viewBox="0 0 280 280"
   enable-background="new 0 0 280 280"
   xml:space="preserve"
   sodipodi:docname="ntv.svg"
   inkscape:version="1.2.2 (732a01da63, 2022-12-09)"
   xmlns:inkscape="http://www.inkscape.org/namespaces/inkscape"
   xmlns:sodipodi="http://sodipodi.sourceforge.net/DTD/sodipodi-0.dtd"
   xmlns="http://www.w3.org/2000/svg"
   xmlns:svg="http://www.w3.org/2000/svg"><defs
   id="defs275" /><sodipodi:namedview
   id="namedview273"
   pagecolor="#ffffff"
   bordercolor="#000000"
   borderopacity="0.25"
   inkscape:showpageshadow="2"
   inkscape:pageopacity="0.0"
   inkscape:pagecheckerboard="0"
   inkscape:deskcolor="#d1d1d1"
   showgrid="false"
   inkscape:zoom="2.9071429"
   inkscape:cx="121.08108"
   inkscape:cy="140.17199"
   inkscape:window-width="1920"
   inkscape:window-height="1007"
   inkscape:window-x="-7"
   inkscape:window-y="-7"
   inkscape:window-maximized="1"
   inkscape:current-layer="Layer_1" />
<rect
   y="-0.042"
   fill-rule="evenodd"
   clip-rule="evenodd"
   fill="#9C9EA0"
   width="280"
   height="280"
   id="rect210"
   style="fill:#818183;fill-opacity:1" />
<g
   id="g264">
	<path
   fill-rule="evenodd"
   clip-rule="evenodd"
   fill="#FCFCFC"
   d="M106.686,123.685c0.312,6.354,0.128,12.384-1.076,18.247   c-2.813,13.684-15.86,22.118-30.974,20.7c-13.27-1.244-25.286-9.536-26.003-26.236c-0.423-9.846-0.668-19.626,0.456-29.386   c1.192-10.349,8.667-18.266,19.311-21.079c13.439-3.553,26.798,0.671,33.514,10.506c4.172,6.112,4.292,13.147,4.747,20.103   C106.823,119.027,106.686,121.533,106.686,123.685z M61.938,127.574c10.086-7.519,18.972-14.18,27.909-20.77   c1.752-1.292,1.757-2.391,0.513-4.095c-4.348-5.962-10.48-6.711-16.97-5.595c-5.498,0.946-9.166,4.37-10.576,9.959   C61.205,113.45,62.324,119.859,61.938,127.574z M92.982,130.657c0-2.053,0.069-3.717-0.022-5.374   c-0.069-1.269,0.606-2.94-0.637-3.703c-1.411-0.866-2.343,0.793-3.326,1.507c-7.483,5.431-14.782,11.126-22.405,16.348   c-3.64,2.494-3.169,4.655-0.487,7.058c4.667,4.181,10.064,5.42,16.186,3.687c5.694-1.611,8.993-5.193,10.195-10.989   C93.105,136.205,92.841,133.239,92.982,130.657z"
   id="path212" />
	<path
   fill-rule="evenodd"
   clip-rule="evenodd"
   fill="#FCFCFC"
   d="M187.979,123.946c0.001-10.315,0.098-20.631-0.057-30.944   c-0.048-3.236,1.039-4.406,4.294-4.355c12.042,0.19,9.851-0.966,9.95,9.653c0.137,14.636,0.142,29.275-0.011,43.911   c-0.043,4.112,1.27,5.293,5.324,4.39c10.137-2.258,17.439-9.594,18.345-19.673c0.314-3.498,1.702-3.966,4.627-3.988   c9.144-0.067,10.335,1.4,7.794,10.336c-4.113,14.463-14.547,21.66-28.558,24.572c-5.882,1.223-11.885,1.172-17.883,1.213   c-3.196,0.021-3.904-1.299-3.872-4.169C188.05,144.577,187.979,134.261,187.979,123.946z"
   id="path214" />
	<path
   fill-rule="evenodd"
   clip-rule="evenodd"
   fill="#FCFCFC"
   d="M146.952,111.992c7.65,0.002,15.304,0.127,22.95-0.057   c3.261-0.079,4.601,1.047,4.27,4.297c-0.15,1.482-0.131,3-0.005,4.486c0.25,2.96-0.912,4.266-3.982,4.132   c-3.65-0.159-7.333,0.196-10.969-0.082c-4.019-0.307-5.892,0.942-5.435,5.238c0.225,2.111-0.108,4.307-0.373,6.441   c-1.896,15.271-13.086,20.703-25.154,22.619c-2.302,0.366-4.349-0.217-4.022-3.431c0.185-1.811,0.08-3.656,0.027-5.484   c-0.056-1.936,0.514-2.934,2.735-3.224c13.529-1.768,13.513-10.656,13.112-19.368c-0.123-2.669-1.892-2.723-3.798-2.727   c-4.158-0.008-8.319-0.124-12.472,0.03c-3.017,0.111-4.09-1.074-4.052-4.083c0.136-10.75-0.582-8.61,8.211-8.77   C134.312,111.897,140.633,111.989,146.952,111.992z"
   id="path216" />
	<path
   fill-rule="evenodd"
   clip-rule="evenodd"
   fill="#FCFCFC"
   d="M147.019,100.998c-7.636-0.001-15.275-0.121-22.908,0.055   c-3.197,0.073-4.641-0.935-4.311-4.236c0.165-1.644,0.113-3.322,0.011-4.976c-0.159-2.585,0.949-3.464,3.529-3.436   c15.269,0.165,30.543,0.444,45.806,0.159c5.708-0.106,4.851,3.199,5.061,6.69c0.238,3.953-0.446,6.139-5.281,5.855   C161.646,100.684,154.323,101,147.019,100.998z"
   id="path218" />
	<path
   fill-rule="evenodd"
   clip-rule="evenodd"
   fill="#F3F3F2"
   d="M103.069,180.175c0.207,3.462-0.434,5.992-4.361,5.946   c-3.712-0.044-4.688-2.404-4.742-5.581c-0.059-3.416,1.086-6.031,4.925-5.964C102.625,174.642,103.377,177.312,103.069,180.175z"
   id="path220" />
	<path
   fill-rule="evenodd"
   clip-rule="evenodd"
   fill="#F3F3F2"
   d="M161.965,180.502c-0.248-3.215,0.788-5.841,4.357-5.983   c3.996-0.159,4.757,2.648,4.733,6.083c-0.021,3.271-0.886,5.859-4.552,5.781C162.985,186.308,161.717,183.851,161.965,180.502z    M166.337,176.386c-1.128,0.355-1.983,1.036-2.094,2.313c-0.072,0.835,0.583,1.223,1.229,0.945c0.993-0.429,2.208-0.857,2.26-2.207   C167.759,176.689,167.062,176.44,166.337,176.386z"
   id="path222" />
	<path
   fill-rule="evenodd"
   clip-rule="evenodd"
   fill="#F3F3F2"
   d="M207.785,179.686c0.104-1.132,0.173-2.284,0.326-3.426   c0.101-0.753,0.626-1.139,1.381-1.095c0.789,0.046,1.177,0.577,1.185,1.303c0.032,2.658,0.23,5.339-0.046,7.968   c-0.211,1.998-1.73,1.795-2.804,0.666c-1.123-1.18-1.936-2.653-2.866-3.974c-0.391,0.157-0.778,0.188-0.891,0.38   c-0.771,1.313,0.805,4.088-1.498,4.079c-2.751-0.011-1.173-2.8-1.581-4.336c-0.165-0.621-0.11-1.336-0.009-1.985   c0.215-1.383-0.76-3.335,0.991-4.009c2.144-0.824,2.597,1.438,3.598,2.642C206.156,178.603,206.302,179.865,207.785,179.686z"
   id="path224" />
	<path
   fill-rule="evenodd"
   clip-rule="evenodd"
   fill="#FCFCFC"
   d="M108.653,182.281c-0.352,1.163,0.438,3.172-1.324,3.28   c-2.093,0.129-0.993-1.938-1.335-3.026c-0.048-0.15-0.039-0.335-0.005-0.493c0.482-2.296-1.417-5.848,1.21-6.683   c2.653-0.844,3.171,3.049,4.805,5.078c1.901-1.358,0.131-3.943,2.153-5.49c1.98,3.335,1.601,6.63,0.71,9.839   c-0.515,1.858-1.789,0.969-2.572,0.061c-0.965-1.119-1.746-2.397-2.607-3.604c-0.257-0.602-0.652-1.228-1.306-0.614   C107.874,181.104,108.17,181.788,108.653,182.281z"
   id="path226" />
	<path
   fill-rule="evenodd"
   clip-rule="evenodd"
   fill="#F3F3F2"
   d="M86.649,174.743c2.314-0.039,4.48,0.515,5.125,2.963   c0.683,2.593-1.015,3.931-3.328,4.603c-0.158,0.046-0.323,0.163-0.47,0.143c-2.338-0.331-1.991,4.931-3.876,2.784   c-2.041-2.324-0.964-6.306-0.475-9.516C83.811,174.5,85.526,174.774,86.649,174.743z"
   id="path228" />
	<path
   fill-rule="evenodd"
   clip-rule="evenodd"
   fill="#F3F3F2"
   d="M222.375,177.286c-2.656,0.798-4.778-1.919-6.215,0.693   c-0.835,1.517-0.703,3.238-0.097,4.852c0.42,1.115,1.389,1.396,2.444,1.139c1.384-0.337,1.452-1.167,0.568-2.139   c-1.043-1.146-0.652-1.779,0.728-1.811c1.241-0.028,2.955-0.391,2.811,1.748c-0.114,1.705-0.658,3.497-2.404,4.06   c-2.465,0.795-5.224,0.992-6.447-1.94c-1.262-3.025-1.594-6.406,1.496-8.583C217.724,173.567,220.142,174.27,222.375,177.286z"
   id="path230" />
	<path
   fill-rule="evenodd"
   clip-rule="evenodd"
   fill="#F3F3F2"
   d="M158.508,186.283c-2.255-2.337-3.229-8.866-5.861-1.331   c-0.245,0.702-0.876,0.899-1.6,0.749c-0.852-0.178-0.898-0.899-0.928-1.524c-0.075-1.65-0.179-3.313-0.059-4.954   c0.101-1.368-0.757-3.356,1.027-3.92c2.08-0.657,1.39,1.642,2.03,2.572c1.482,2.151,2.714,1.428,5.043-3.355   C159.768,178.478,159.216,181.963,158.508,186.283z"
   id="path232" />
	<path
   fill-rule="evenodd"
   clip-rule="evenodd"
   fill="#F3F3F2"
   d="M228.151,178.023c1.229,2.248,6.064,2.321,4.516,6.432   c-0.539,1.434-1.907,1.719-3.282,1.751c-2.104,0.048-3.885-0.381-4.188-2.844c1.678-1.439,2.84,0.843,4.508,0.221   c0.45-2.573-2.172-2.447-3.22-3.602c-0.92-1.012-1.856-1.924-1.037-3.449c0.811-1.507,2.189-1.985,3.731-1.983   c1.354,0.003,2.668,0.388,3.336,1.738c0.536,1.082-0.163,1.465-1.107,1.558C230.387,177.944,229.405,176.315,228.151,178.023z"
   id="path234" />
	<path
   fill-rule="evenodd"
   clip-rule="evenodd"
   fill="#F3F3F2"
   d="M72.959,185.398c0-2.128-0.03-4.257,0.008-6.384   c0.035-1.945-0.419-4.233,2.753-4.157c2.217,0.054,4.54,0.007,5.181,2.755c0.593,2.543-0.532,4.278-3.162,4.642   c-2.085,0.287-2.541,2.233-3.538,3.658C73.788,185.741,73.373,185.569,72.959,185.398z"
   id="path236" />
	<path
   fill-rule="evenodd"
   clip-rule="evenodd"
   fill="#F3F3F2"
   d="M187.513,174.866c3.811-0.156,5.349,1.919,5.353,5.535   c0.003,3.549-1.336,5.515-5.271,5.679c-4.476,0.187-3.749-2.808-3.597-5.318C184.146,178.317,182.482,174.54,187.513,174.866z    M186.102,180.651c0.361,1.076-0.405,3.098,1.9,3.058c2.046-0.036,2.018-1.789,2.016-3.241c-0.002-1.442,0.071-3.205-1.996-3.245   C185.738,177.179,186.378,179.133,186.102,180.651z"
   id="path238" />
	<path
   fill-rule="evenodd"
   clip-rule="evenodd"
   fill="#FCFCFC"
   d="M61.271,180.135c1.592-1.284-0.294-3.729,2.277-5.009   c1.008,3.144,0.717,6.228,0.399,9.197c-0.249,2.326-1.636,1.401-2.722,0.409c-1.307-1.192-1.514-3.305-3.649-4.247   c-1.01,1.554,0.151,3.69-1.565,5.404c-1.896-3.177-1.036-6.432-0.816-9.442c0.149-2.051,1.602-1.404,2.737-0.338   C59.208,177.309,59.43,179.417,61.271,180.135z"
   id="path240" />
	<path
   fill-rule="evenodd"
   clip-rule="evenodd"
   fill="#F3F3F2"
   d="M138.38,180.938c1.993-1.409,0.99-4.876,4.22-6.025   c0.347,4.108-1.226,7.402-3.004,10.29c-1.32,2.143-3.023-0.042-3.745-1.271c-0.856-1.458-1.295-3.275-1.471-4.981   c-0.137-1.331-2.191-3.364,0.104-3.957c2.054-0.531,2.065,2.035,2.51,3.52C137.276,179.458,137.331,180.479,138.38,180.938z"
   id="path242" />
	<path
   fill-rule="evenodd"
   clip-rule="evenodd"
   fill="#F3F3F2"
   d="M121.884,175.574c3.194-0.951,5.919-0.964,9.605-0.07   c-3.832,1.849-3.657,4.724-3.527,7.629c0.049,1.105,0.23,2.66-1.399,2.692c-1.658,0.032-1.396-1.537-1.474-2.639   C124.892,180.399,125.983,177.129,121.884,175.574z"
   id="path244" />
	<path
   fill-rule="evenodd"
   clip-rule="evenodd"
   fill="#F3F3F2"
   d="M69.918,180.308c0,1.235,0.072,2.073-0.018,2.894   c-0.116,1.06,0.26,2.657-1.53,2.511c-1.655-0.135-1.196-1.686-1.323-2.751c-0.078-0.655-0.133-1.349-0.006-1.985   c0.39-1.943-1.142-5.449,1.325-5.514C71.381,175.384,69.166,178.938,69.918,180.308z"
   id="path246" />
	<path
   fill-rule="evenodd"
   clip-rule="evenodd"
   fill="#FCFCFC"
   d="M181.188,184.813c-7.78,1.786-8.693,0.216-6.46-9.648   C178.289,177.625,172.582,185.515,181.188,184.813z"
   id="path248" />
	<path
   fill-rule="evenodd"
   clip-rule="evenodd"
   fill="#FCFCFC"
   d="M196.867,175.505c1.67,3.296,1.114,6.634,0.363,9.986   C195.204,182.267,195.861,178.888,196.867,175.505z"
   id="path250" />
	<path
   fill-rule="evenodd"
   clip-rule="evenodd"
   fill="#9E9FA1"
   d="M61.938,127.574c0.386-7.715-0.733-14.124,0.876-20.5   c1.411-5.589,5.079-9.013,10.576-9.959c6.49-1.117,12.622-0.368,16.97,5.595c1.244,1.704,1.239,2.803-0.513,4.095   C80.91,113.394,72.024,120.056,61.938,127.574z"
   id="path252"
   style="fill:#818183;fill-opacity:1" />
	<path
   fill-rule="evenodd"
   clip-rule="evenodd"
   fill="#9E9FA1"
   d="M92.982,130.657c-0.141,2.583,0.124,5.548-0.496,8.534   c-1.203,5.796-4.501,9.378-10.195,10.989c-6.121,1.733-11.518,0.494-16.186-3.687c-2.682-2.402-3.153-4.563,0.487-7.058   c7.624-5.222,14.922-10.917,22.405-16.348c0.983-0.713,1.915-2.373,3.326-1.507c1.243,0.763,0.567,2.434,0.637,3.703   C93.051,126.939,92.982,128.604,92.982,130.657z"
   id="path254"
   style="fill:#818183;fill-opacity:1" />
	<path
   fill-rule="evenodd"
   clip-rule="evenodd"
   fill="#FFFFFF"
   d="M166.337,176.386c0.725,0.055,1.422,0.304,1.395,1.051   c-0.052,1.35-1.267,1.778-2.26,2.207c-0.646,0.277-1.301-0.11-1.229-0.945C164.354,177.422,165.209,176.741,166.337,176.386z"
   id="path256" />
	<path
   fill-rule="evenodd"
   clip-rule="evenodd"
   fill="#9E9FA1"
   d="M186.102,180.651c0.276-1.519-0.363-3.473,1.92-3.429   c2.067,0.04,1.994,1.803,1.996,3.245c0.002,1.452,0.03,3.205-2.016,3.241C185.696,183.749,186.463,181.728,186.102,180.651z"
   id="path258"
   style="fill:#818183;fill-opacity:1" />
	<path
   fill-rule="evenodd"
   clip-rule="evenodd"
   fill="#9E9FA1"
   d="M132.102,139.651c0.276-1.519-0.363-3.473,1.92-3.429   c2.067,0.04,1.994,1.803,1.996,3.245c0.002,1.452,0.03,3.205-2.016,3.241C131.696,142.749,132.463,140.728,132.102,139.651z"
   id="path260"
   style="fill:#818183;fill-opacity:1" />
	<path
   fill-rule="evenodd"
   clip-rule="evenodd"
   fill="#9E9FA1"
   d="M164.535,180.776c0.275-1.519-0.363-3.473,1.92-3.429   c2.066,0.04,1.994,1.803,1.996,3.245c0.002,1.452,0.029,3.205-2.016,3.241C164.129,183.874,164.896,181.853,164.535,180.776z"
   id="path262"
   style="fill:#818183;fill-opacity:1" />
</g>
<path
   fill-rule="evenodd"
   clip-rule="evenodd"
   fill="#9E9FA1"
   d="M96.59,180.776c0.276-1.519-0.363-3.473,1.92-3.429  c2.067,0.04,1.994,1.803,1.996,3.245c0.002,1.452,0.03,3.205-2.016,3.241C96.185,183.874,96.951,181.853,96.59,180.776z"
   id="path266"
   style="fill:#818183;fill-opacity:1" />
<path
   fill-rule="evenodd"
   clip-rule="evenodd"
   fill="#9E9FA1"
   d="M85.456,178.659c0.301-0.962-0.396-2.198,2.091-2.171  c2.251,0.025,2.172,1.141,2.174,2.055c0.002,0.918,0.033,2.028-2.195,2.051C85.015,180.62,85.85,179.34,85.456,178.659z"
   id="path268"
   style="fill:#818183;fill-opacity:1" />
<path
   fill-rule="evenodd"
   clip-rule="evenodd"
   fill="#9E9FA1"
   d="M74.442,178.659c0.301-0.962-0.396-2.198,2.091-2.171  c2.251,0.025,2.172,1.141,2.174,2.055c0.002,0.918,0.033,2.028-2.195,2.051C74,180.62,74.835,179.34,74.442,178.659z"
   id="path270"
   style="fill:#818183;fill-opacity:1" />
</svg>
