<?xml version="1.0" encoding="UTF-8" standalone="no"?>
<!-- Generator: Adobe Illustrator 16.0.0, SVG Export Plug-In . SVG Version: 6.00 Build 0)  -->

<svg
   version="1.1"
   id="Layer_1"
   x="0px"
   y="0px"
   width="280px"
   height="280px"
   viewBox="0 0 280 280"
   enable-background="new 0 0 280 280"
   xml:space="preserve"
   sodipodi:docname="tbs.svg"
   inkscape:version="1.2.2 (732a01da63, 2022-12-09)"
   xmlns:inkscape="http://www.inkscape.org/namespaces/inkscape"
   xmlns:sodipodi="http://sodipodi.sourceforge.net/DTD/sodipodi-0.dtd"
   xmlns="http://www.w3.org/2000/svg"
   xmlns:svg="http://www.w3.org/2000/svg"><defs
   id="defs291" /><sodipodi:namedview
   id="namedview289"
   pagecolor="#ffffff"
   bordercolor="#000000"
   borderopacity="0.25"
   inkscape:showpageshadow="2"
   inkscape:pageopacity="0.0"
   inkscape:pagecheckerboard="0"
   inkscape:deskcolor="#d1d1d1"
   showgrid="false"
   inkscape:zoom="2.9071429"
   inkscape:cx="120.90909"
   inkscape:cy="140.17199"
   inkscape:window-width="1920"
   inkscape:window-height="1001"
   inkscape:window-x="-9"
   inkscape:window-y="-9"
   inkscape:window-maximized="1"
   inkscape:current-layer="g286"
   showguides="false" />
<rect
   y="-0.042"
   fill-rule="evenodd"
   clip-rule="evenodd"
   fill="#3E61AC"
   width="280"
   height="280"
   id="rect274"
   style="fill:#003487;fill-opacity:1" />
<g
   id="g286">
	<path
   fill-rule="evenodd"
   clip-rule="evenodd"
   fill="#FFFFFF"
   d="M110.981,130.36c0.001-13.987,0.12-27.975-0.082-41.958   c-0.051-3.571,0.636-4.913,4.566-4.794c10.147,0.306,20.322-0.19,30.464,0.185c10.412,0.384,18.572,5.315,23.49,14.541   c5.078,9.522,4.191,19.096-1.877,27.939c-1.393,2.029-1.615,2.816,0.008,4.827c7.293,9.037,8.775,19.153,3.586,29.594   c-5.318,10.705-14.305,16.057-26.383,16.012c-9.991-0.037-19.984-0.129-29.97,0.064c-3.126,0.059-3.907-0.91-3.873-3.953   C111.069,158.666,110.981,144.514,110.981,130.36z"
   id="path276" />
	<path
   fill-rule="evenodd"
   clip-rule="evenodd"
   fill="#FFFFFF"
   d="M219.664,82.65c12.816,0.457,22.791,4.437,28.85,15.54   c1.186,2.17,1.748,3.824-1.578,4.594c-2.205,0.511-4.412,1.431-6.354,2.605c-4.559,2.761-8.137,3.251-11.701-1.954   c-2.311-3.372-6.779-4.21-10.783-3.39c-4.287,0.878-7.494,3.73-8.18,8.232c-0.699,4.589,1.887,7.968,5.553,10.313   c3.34,2.136,7.248,3.022,11.027,4.168c7.848,2.378,15.373,5.725,20.588,12.197c11.674,14.491,3.932,33.846-12.51,40.487   c-14.014,5.662-27.441,3.68-39.146-6.521c-3.008-2.623-4.439-6.307-6.281-9.695c-0.746-1.373,0.152-1.994,1.443-2.504   c4.586-1.811,9.135-3.719,13.672-5.652c2.689-1.145,2.99,1.123,3.865,2.586c3.814,6.377,12.607,9.027,18.916,5.57   c3.305-1.811,5.477-4.484,5.803-8.475c0.359-4.387-1.809-7.221-5.328-9.295c-4.023-2.368-8.695-3.022-12.938-4.789   c-8.174-3.4-16.434-6.998-20.711-15.398c-8.508-16.71-0.109-32.628,17.314-37.389C214.17,83.066,217.293,82.197,219.664,82.65z"
   id="path278" />
	<path
   fill-rule="evenodd"
   clip-rule="evenodd"
   fill="#FFFFFF"
   d="M50.954,179.719c0-24.469-0.189-48.253,0.144-72.031   c0.076-5.399-1.559-6.836-6.602-6.37c-4.456,0.412-8.982,0.001-13.473,0.115c-2.303,0.058-3.497-0.663-3.174-3.114   c0.021-0.163-0.01-0.333,0.002-0.499c0.357-4.585-1.981-10.536,1.005-13.359c2.325-2.198,8.202-0.726,12.5-0.735   c16.144-0.038,32.288,0.078,48.43-0.092c3.306-0.035,4.355,0.93,4.104,4.175c-0.333,4.292,1.32,9.86-0.813,12.583   c-2.287,2.919-8.104,0.903-12.37,0.966c-9.877,0.146-9.878,0.046-9.878,9.87c0,18.807-0.059,37.615,0.067,56.419   c0.018,2.676-0.63,4.129-3.239,5.109C62.29,174.777,57.055,177.15,50.954,179.719z"
   id="path280" />
	<path
   fill-rule="evenodd"
   clip-rule="evenodd"
   fill="#4060AC"
   d="M129.753,148.643c-0.004-10.938-0.004-10.938,11.204-10.938   c8.855,0,13.308,2.526,14.958,8.485c1.699,6.133-2.836,12.873-9.197,13.527c-1.977,0.203-3.988,0.088-5.985,0.09   C129.757,159.824,129.757,159.82,129.753,148.643z"
   id="path282"
   style="fill:#003487;fill-opacity:1" />
	<path
   fill-rule="evenodd"
   clip-rule="evenodd"
   fill="#4060AC"
   d="M138.87,120.777c-9.074,0.051-9.074,0.051-9.082-9.054   c-0.01-11.016-0.008-10.907,11.138-11.064c4.914-0.069,9.287,0.621,12.072,5.194c3.791,6.228-0.32,14.29-7.635,14.896   C143.213,120.928,141.035,120.777,138.87,120.777z"
   id="path284"
   style="fill:#003487;fill-opacity:1" />
</g>
</svg>
