<?xml version="1.0" encoding="UTF-8" standalone="no"?>
<!-- Generator: Adobe Illustrator 16.0.0, SVG Export Plug-In . SVG Version: 6.00 Build 0)  -->

<svg
   version="1.1"
   id="Layer_1"
   x="0px"
   y="0px"
   width="280px"
   height="280px"
   viewBox="0 0 280 280"
   enable-background="new 0 0 280 280"
   xml:space="preserve"
   sodipodi:docname="tvtokyo.svg"
   inkscape:version="1.2.2 (732a01da63, 2022-12-09)"
   xmlns:inkscape="http://www.inkscape.org/namespaces/inkscape"
   xmlns:sodipodi="http://sodipodi.sourceforge.net/DTD/sodipodi-0.dtd"
   xmlns="http://www.w3.org/2000/svg"
   xmlns:svg="http://www.w3.org/2000/svg"><defs
   id="defs575" /><sodipodi:namedview
   id="namedview573"
   pagecolor="#ffffff"
   bordercolor="#000000"
   borderopacity="0.25"
   inkscape:showpageshadow="2"
   inkscape:pageopacity="0.0"
   inkscape:pagecheckerboard="0"
   inkscape:deskcolor="#d1d1d1"
   showgrid="false"
   inkscape:zoom="2.9071429"
   inkscape:cx="126.41278"
   inkscape:cy="140.17199"
   inkscape:window-width="1920"
   inkscape:window-height="1007"
   inkscape:window-x="-7"
   inkscape:window-y="-7"
   inkscape:window-maximized="1"
   inkscape:current-layer="g570" />
<rect
   fill-rule="evenodd"
   clip-rule="evenodd"
   fill="#D6203E"
   width="279.982"
   height="138.005"
   id="rect544"
   style="fill:#e60012;fill-opacity:1" />
<rect
   x="0"
   y="137.991"
   fill-rule="evenodd"
   clip-rule="evenodd"
   fill="#1D305E"
   width="279.982"
   height="142.009"
   id="rect546"
   style="fill:#003487;fill-opacity:1" />
<g
   id="g570">
	<path
   fill-rule="evenodd"
   clip-rule="evenodd"
   fill="#FFFFFF"
   d="M172.812,137.991c0.056-2.99,0.401-6.01,0.099-8.964   c-0.45-4.388,0.337-6.412,5.612-6.255c4.647,0.138,6.115,1.429,5.499,5.828c-0.267,1.897-0.045,3.862-0.045,6.484   c3.427-2.91,4.632-6.53,6.592-9.525c1.317-2.014,2.52-2.646,4.688-2.595c4.323,0.102,8.688,0.381,12.965-0.07   c4.136-0.436,5.906,1.476,7.196,4.93c1.352,3.618,3.064,7.101,4.788,11.029c2.497-3.583,3.729-7.275,4.773-10.991   c1.016-3.613,2.708-5.728,6.88-4.925c1.761,0.339,3.642,0.057,5.649,0.057c-1.007,5.412-3.498,10.097-5.37,14.998   c-6.136,14.762-14.255,28.288-26.015,39.239c-11.012,10.254-23.82,16.713-39.075,18.948c-15.948,2.336-29.837-1.806-42.933-10.199   c-9.346-5.989-15.402-14.748-20.027-24.616c-0.146-0.311,0.222-0.862,0.372-1.378c2.062,0.243,1.882,2.093,2.527,3.223   c8.611,15.082,20.957,24.852,38.42,27.824c18.978,3.231,35.057-2.405,49.684-14.451c7.22-5.946,12.194-13.445,17.488-20.814   c1.902-2.649,2.828-5.462,0.488-8.726c-2.029-2.83-2.84-6.44-5.093-9.216c-1.276-4.29-3.674-8.001-5.937-12.354   c-2.835,4.495-5.364,8.507-7.895,12.52c2.718,5.996,7.266,10.866,10.704,17.166c-4.864-0.907-10.063,1.876-13.551-1.706   c-2.882-2.96-4.222-7.421-7.319-11.03c0,2.354-0.272,4.745,0.058,7.051c0.651,4.55-1.057,5.686-5.568,5.706   c-4.577,0.021-6.018-1.232-5.575-5.734C173.262,145.665,172.867,141.812,172.812,137.991z"
   id="path548" />
	<path
   fill-rule="evenodd"
   clip-rule="evenodd"
   fill="#FFFFFF"
   d="M46.828,137.991c1-4.496-0.198-7.025-5.367-5.999   c-3.874,0.77-4.651-1.003-4.598-4.612c0.048-3.339,0.666-4.586,4.325-4.481c9.655,0.277,19.327,0.251,28.984,0.006   c3.258-0.083,5.213,1.101,5.692,4.021c0.539,3.283,3.383,5.615,3.3,9.156c-0.02,0.847,0.466,3.059,2.075,2.726   c1.094-0.226,2.193-1.022,2.937-2.695c3.608-8.114,7.517-16.081,12.795-23.348c11.324-15.592,26.323-26.178,44.863-30.431   c16.333-3.747,32.363-1.578,46.685,8.484c10.166,7.143,18.194,15.799,22.1,27.826c-3.519-1.533-4.509-5.3-6.292-8.057   c-1.704-2.631-3.503-5.048-5.585-7.35c-9.969-11.02-22.947-16.011-37.223-17.035c-9.901-0.71-19.533,2.06-28.667,6.352   c-11.568,5.437-20.301,14.334-27.47,24.279c-4.456,6.181-7.915,13.568-10.225,21.155c-2.126,4.41-2.417,9.434-5.026,13.778   c-1.337,2.225-2.241,3.712-4.948,3.228c-0.32-0.058-0.659-0.009-0.989-0.008c-9.977,0.022-11.16-1.084-13.513-11.612   c-0.437-1.953-1.769-3.707-2.687-5.552c-1.988-1.429,0.32-5.069-3.233-5.856c-5.415-1.199-6.958,0.085-6.622,6.037   c-0.056,4.483-0.296,8.974-0.102,13.447c0.123,2.826-0.734,3.924-3.574,3.569c-1.473-0.185-3.003-0.172-4.48-0.002   c-2.452,0.282-3.1-0.732-3.039-3.081C47.063,147.293,46.883,142.641,46.828,137.991z"
   id="path550" />
	<path
   fill-rule="evenodd"
   clip-rule="evenodd"
   fill="#FFFFFF"
   d="M137.816,137.991c2.738-13.817,13.722-19.573,25.015-13.009   c4.915,2.857,6.872,7.549,7.314,13.009c-0.317,6.866-1.436,13.685-9.083,15.914C148.471,157.577,138.468,153.888,137.816,137.991z    M158.813,137.991c0.056-0.825,0.13-1.649,0.162-2.475c0.108-2.75-1.458-4.709-3.765-5.416c-3.188-0.975-4.631,1.557-5.842,4.001   c-0.63,1.272-0.39,2.579-0.221,3.889c-0.278,2.455-0.312,4.808,0.794,7.192c1.04,2.245,2.385,2.947,4.857,2.906   c2.737-0.046,3.445-2.006,3.879-3.693C159.196,142.382,158.81,140.136,158.813,137.991z"
   id="path552" />
	<path
   fill-rule="evenodd"
   clip-rule="evenodd"
   fill="#FFFFFF"
   d="M236.804,137.991c0.645-7.056,3.69-13.004,10.756-14.622   c6.354-1.455,13.14-1.247,18.071,4.712c2.43,2.934,2.691,6.484,3.502,9.91c-0.348,11.181-5.588,15.864-11.591,16.922   C244.514,157.21,237.582,151.42,236.804,137.991z M257.801,137.991c0.249-1.646,0.108-3.104-0.703-4.721   c-1.196-2.386-2.745-3.715-5.384-3.238c-2.386,0.432-3.096,2.567-3.667,4.508c-0.31,1.051,0.038,2.294,0.089,3.451   c-0.048,1.962-0.477,4.013-0.045,5.863c0.543,2.328,1.559,4.275,4.877,4.275c3.319,0,4.335-1.947,4.878-4.275   C258.277,142.004,257.849,139.953,257.801,137.991z"
   id="path554" />
	<path
   fill-rule="evenodd"
   clip-rule="evenodd"
   fill="#FFFFFF"
   d="M116.819,137.991c1.152-5.005-1.116-6.775-5.824-5.976   c-3.938,0.668-4.063-1.494-4.108-4.545c-0.048-3.177,0.354-4.737,4.167-4.574c7.611,0.326,15.253,0.286,22.869,0.021   c4.064-0.141,3.038,2.48,3.022,4.562c-0.016,2.054,1.092,5.063-2.991,4.521c-0.489-0.065-1.009,0.073-1.488-0.021   c-5.204-1.016-6.273,1.595-5.315,6.012c-0.055,4.116-0.439,8.262-0.074,12.34c0.362,4.044-1.158,4.925-4.889,4.76   c-3.708-0.163-6.599,0.242-5.373-5.283C117.648,146.054,116.874,141.943,116.819,137.991z"
   id="path556" />
	<path
   fill-rule="evenodd"
   clip-rule="evenodd"
   fill="#D6203E"
   d="M194.143,137.991c2.53-4.013,5.06-8.025,7.895-12.52   c2.263,4.352,4.66,8.064,5.937,12.354C203.363,137.88,198.752,137.936,194.143,137.991z"
   id="path558" />
	<path
   fill-rule="evenodd"
   clip-rule="evenodd"
   fill="#D6203E"
   d="M58.137,138.005c-0.336-5.951,1.207-7.236,6.622-6.037   c3.553,0.787,1.245,4.427,3.233,5.856C64.707,137.885,61.421,137.945,58.137,138.005z"
   id="path560" />
	<path
   fill-rule="evenodd"
   clip-rule="evenodd"
   fill="#1D305E"
   d="M158.813,137.991c-0.004,2.145,0.383,4.391-0.135,6.405   c-0.434,1.688-1.142,3.647-3.879,3.693c-2.473,0.041-3.817-0.661-4.857-2.906c-1.105-2.385-1.072-4.737-0.794-7.192   C152.369,137.991,155.592,137.991,158.813,137.991z"
   id="path562"
   style="fill:#003487;fill-opacity:1" />
	<path
   fill-rule="evenodd"
   clip-rule="evenodd"
   fill="#D6203E"
   d="M158.813,137.991c-3.222,0-6.444,0-9.665,0   c-0.169-1.31-0.409-2.617,0.221-3.889c1.211-2.445,2.654-4.977,5.842-4.001c2.307,0.706,3.873,2.666,3.765,5.416   C158.943,136.342,158.869,137.166,158.813,137.991z"
   id="path564" />
	<path
   fill-rule="evenodd"
   clip-rule="evenodd"
   fill="#1D305E"
   d="M257.801,137.991c0.048,1.962,0.477,4.013,0.045,5.863   c-0.543,2.328-1.559,4.275-4.878,4.275c-3.318,0-4.334-1.947-4.877-4.275c-0.432-1.851-0.003-3.901,0.045-5.863   C251.357,137.991,254.579,137.991,257.801,137.991z"
   id="path566" />
	<path
   fill-rule="evenodd"
   clip-rule="evenodd"
   fill="#D6203E"
   d="M257.801,137.991c-3.222,0-6.443,0-9.665,0   c-0.051-1.157-0.398-2.4-0.089-3.451c0.571-1.941,1.281-4.077,3.667-4.508c2.639-0.477,4.188,0.853,5.384,3.238   C257.909,134.888,258.05,136.346,257.801,137.991z"
   id="path568" />
</g>
</svg>
