<?xml version="1.0" encoding="UTF-8" standalone="no"?>
<!-- Generator: Adobe Illustrator 16.0.0, SVG Export Plug-In . SVG Version: 6.00 Build 0)  -->

<svg
   version="1.1"
   id="Layer_1"
   x="0px"
   y="0px"
   width="280px"
   height="280px"
   viewBox="0 0 280 280"
   enable-background="new 0 0 280 280"
   xml:space="preserve"
   sodipodi:docname="amc.svg"
   inkscape:version="1.2.2 (732a01da63, 2022-12-09)"
   xmlns:inkscape="http://www.inkscape.org/namespaces/inkscape"
   xmlns:sodipodi="http://sodipodi.sourceforge.net/DTD/sodipodi-0.dtd"
   xmlns="http://www.w3.org/2000/svg"
   xmlns:svg="http://www.w3.org/2000/svg"><defs
   id="defs216276">
	
	
	
</defs><sodipodi:namedview
   id="namedview216274"
   pagecolor="#ffffff"
   bordercolor="#666666"
   borderopacity="1.0"
   inkscape:pageshadow="2"
   inkscape:pageopacity="0.0"
   inkscape:pagecheckerboard="0"
   showgrid="false"
   inkscape:zoom="1.0505587"
   inkscape:cx="-252.24673"
   inkscape:cy="130.4068"
   inkscape:window-width="1920"
   inkscape:window-height="991"
   inkscape:window-x="-9"
   inkscape:window-y="-9"
   inkscape:window-maximized="1"
   inkscape:current-layer="layer2"
   inkscape:showpageshadow="2"
   inkscape:deskcolor="#d1d1d1" />
<g
   inkscape:groupmode="layer"
   id="layer2"
   inkscape:label="BG"><rect
     y="0"
     fill-rule="evenodd"
     clip-rule="evenodd"
     fill="#164E86"
     width="280"
     height="280"
     id="rect4994-7"
     style="fill:#818183;fill-opacity:1;stroke:none;stroke-width:0.999999;stroke-opacity:1"
     x="0" /></g>
<g
   inkscape:groupmode="layer"
   id="layer1"
   inkscape:label="Logo"><path
     style="fill:#ffffff;stroke-width:0.195581"
     d="M 29.417527,130.82331 V 63.979928 H 142.06066 254.70379 v 66.843382 66.84332 H 142.06066 29.417527 Z m 223.193233,0 V 65.990252 H 142.06066 31.510557 V 130.82331 195.6563 H 142.06066 252.61076 Z M 71.294053,161.16903 c -7.322395,-1.35426 -13.329451,-6.36326 -15.482571,-12.91031 -0.497443,-1.51254 -0.588557,-2.11575 -0.659883,-4.36833 -0.158485,-5.00466 1.079735,-8.50566 4.154783,-11.74732 5.124631,-5.40229 13.982415,-7.85335 28.381175,-7.85335 h 5.502574 l -0.127557,-1.35698 c -0.07015,-0.74632 -0.242063,-1.89977 -0.381994,-2.56314 -0.799608,-3.79076 -3.058731,-6.48646 -6.435193,-7.67887 -1.446839,-0.51094 -1.767074,-0.54778 -4.692358,-0.53903 -3.414974,0.0104 -5.082685,0.33287 -6.974377,1.34935 -2.07773,1.11642 -3.676305,3.01752 -4.195096,4.98902 l -0.309446,1.17588 h -6.247898 c -5.816507,0 -6.249167,-0.0245 -6.266343,-0.3518 -0.126686,-2.41757 0.948767,-5.96534 2.617785,-8.63552 1.66978,-2.67151 4.877271,-5.62189 7.779718,-7.15617 1.503421,-0.79474 4.797527,-1.89368 6.762879,-2.25604 4.254194,-0.78448 10.352497,-0.70901 14.287919,0.17693 8.817147,1.98489 13.90375,7.51665 15.73951,17.11692 0.68243,3.56888 0.78007,6.61732 0.78007,24.35418 v 17.15909 h -6.088813 c -3.34885,0 -6.099708,-0.0227 -6.113024,-0.0503 -0.01331,-0.0276 -0.07753,-1.01761 -0.142713,-2.20003 l -0.118534,-2.14982 -1.046521,0.71491 c -2.597695,1.7747 -7.379945,3.70591 -11.131107,4.4951 -2.724332,0.57318 -7.301398,0.70938 -9.593021,0.28562 z m 10.544389,-11.83965 c 3.578236,-0.68153 5.991308,-1.89545 7.994833,-4.02188 2.23261,-2.36961 2.880265,-4.07585 3.074999,-8.10144 l 0.119139,-2.46264 H 88.66972 c -8.089237,0.006 -13.312034,0.82271 -16.620146,2.60576 -1.265144,0.68198 -2.76207,2.28332 -3.255884,3.48309 -0.627009,1.5234 -0.632403,3.90256 -0.0121,5.2342 1.079239,2.31613 4.095225,3.50527 8.965735,3.53501 1.476436,0.009 3.215994,-0.10749 4.090919,-0.27418 z m 118.231438,11.85493 c -8.65211,-1.49204 -15.19449,-6.86308 -19.10669,-15.68566 -3.4734,-7.83299 -3.97737,-17.7065 -1.32803,-26.01825 3.27052,-10.26062 10.56849,-16.83364 20.55469,-18.51291 3.53732,-0.59479 9.29793,-0.10205 12.55818,1.07437 4.72643,1.70542 9.29933,5.23854 12.38132,9.56614 2.09835,2.94643 4.31614,8.23632 4.91648,11.72683 l 0.12966,0.75388 h -6.16939 -6.16937 l -0.42582,-1.20304 c -1.24344,-3.51288 -4.08622,-6.9622 -7.04543,-8.54866 -2.54466,-1.36418 -5.8294,-1.83559 -8.5583,-1.22829 -5.75171,1.28009 -10.47081,7.31763 -11.6145,14.85948 -0.28401,1.87282 -0.15196,5.63227 0.26975,7.67988 1.3418,6.51513 5.28258,11.47994 10.48852,13.21397 1.70534,0.56796 4.71849,0.60191 6.56451,0.0738 4.21118,-1.20466 7.75307,-4.56984 9.64194,-9.16098 l 0.62264,-1.51342 6.28424,-0.0528 c 3.45633,-0.0289 6.28425,0 6.28425,0.067 0,0.44131 -0.87331,3.59101 -1.33935,4.8305 -1.55144,4.12628 -3.42089,7.12393 -6.45737,10.35434 -3.63489,3.86706 -7.23907,6.06464 -12.03064,7.3355 -1.6546,0.43885 -2.49167,0.5315 -5.38415,0.59567 -2.35982,0.0522 -3.93568,-0.0117 -5.06714,-0.20722 z m -87.50193,-30.26049 v -29.14973 h 9.8039 9.8039 l 0.15233,0.45231 c 0.0838,0.24878 2.37211,9.70034 5.08515,21.0034 2.71307,11.30312 4.96516,20.45072 5.00465,20.32796 0.0394,-0.12264 2.31743,-9.55156 5.06207,-20.95311 l 4.99027,-20.73005 9.82699,-0.0522 9.82699,-0.0522 v 29.15425 29.15418 l -6.4218,-0.0528 -6.42179,-0.0528 -0.0952,-20.35367 -0.0952,-20.35367 -5.4378,20.35367 -5.4378,20.35367 -5.90978,0.0528 c -4.6269,0.0414 -5.92857,0 -5.99635,-0.20101 -0.0477,-0.13972 -2.51895,-9.42678 -5.49181,-20.63784 l -5.40523,-20.38372 -0.0485,20.63502 -0.0485,20.63502 h -6.37333 -6.37334 z"
     id="path2642" /></g></svg>
