<?xml version="1.0" encoding="UTF-8" standalone="no"?>
<!-- Generator: Adobe Illustrator 16.0.0, SVG Export Plug-In . SVG Version: 6.00 Build 0)  -->

<svg
   version="1.1"
   id="Layer_1"
   x="0px"
   y="0px"
   width="280px"
   height="280px"
   viewBox="0 0 280 280"
   enable-background="new 0 0 280 280"
   xml:space="preserve"
   sodipodi:docname="bsasahi.svg"
   inkscape:version="1.2.2 (732a01da63, 2022-12-09)"
   xmlns:inkscape="http://www.inkscape.org/namespaces/inkscape"
   xmlns:sodipodi="http://sodipodi.sourceforge.net/DTD/sodipodi-0.dtd"
   xmlns="http://www.w3.org/2000/svg"
   xmlns:svg="http://www.w3.org/2000/svg"><defs
   id="defs425" /><sodipodi:namedview
   id="namedview423"
   pagecolor="#ffffff"
   bordercolor="#000000"
   borderopacity="0.25"
   inkscape:showpageshadow="2"
   inkscape:pageopacity="0.0"
   inkscape:pagecheckerboard="0"
   inkscape:deskcolor="#d1d1d1"
   showgrid="false"
   inkscape:zoom="1.4535715"
   inkscape:cx="454.05405"
   inkscape:cy="135.18427"
   inkscape:window-width="1920"
   inkscape:window-height="991"
   inkscape:window-x="-9"
   inkscape:window-y="-9"
   inkscape:window-maximized="1"
   inkscape:current-layer="g420" />
<g
   id="g420">
	<rect
   x="-0.039"
   fill-rule="evenodd"
   clip-rule="evenodd"
   fill="#ED177F"
   width="280.039"
   height="280"
   id="rect394"
   style="fill:#eb8d1b;fill-opacity:1" />
	
	
	
	
	
	
	
	
	
	
	
	
<path
   style="fill:#ffffff;stroke-width:0.220315"
   d="m 34.155085,180.14163 c -1.893395,-0.96301 -3.16617,-3.17689 -3.878749,-6.74678 -0.530335,-2.6568 -0.521474,-10.76812 0.01605,-14.54009 1.448251,-10.1663 4.218188,-19.66537 8.455424,-28.99654 6.512282,-14.3413 14.212916,-22.83087 21.42159,-23.61622 2.730307,-0.29746 6.273314,1.03253 9.356456,3.51232 8.491357,6.82957 17.495254,24.97817 21.03882,42.40674 1.212283,5.9623 1.455787,8.28178 1.477695,14.07733 0.02233,5.82759 -0.09168,6.8516 -1.097439,9.88272 -1.627565,4.90501 -6.056534,5.97647 -10.047545,2.43073 -1.445531,-1.28417 -3.111048,-3.45087 -5.768932,-7.50484 -5.029982,-7.67188 -6.95324,-9.88903 -10.005891,-11.53496 -1.843509,-0.99398 -1.860393,-0.99807 -4.131044,-0.99807 -2.197809,0 -2.337282,0.0302 -3.871283,0.83801 -2.936343,1.54634 -5.036053,3.85998 -9.203098,10.1407 -3.839049,5.78651 -4.353685,6.49258 -5.980831,8.20591 -1.805344,1.90094 -3.396418,2.77239 -5.290161,2.89744 -1.170979,0.0773 -1.598889,-6.7e-4 -2.490851,-0.4544 z M 35.07063,156.9717 c 0.698833,-2.2756 1.467717,-4.80198 1.708639,-5.61417 0.240922,-0.8122 0.739929,-2.34574 1.108882,-3.40784 0.369022,-1.06211 0.81905,-2.54452 1.000177,-3.29424 0.634714,-2.62769 4.396525,-11.94638 6.190635,-15.33526 0.429933,-0.8122 1.453833,-2.90801 2.275325,-4.65737 1.799343,-3.83195 3.682063,-6.92337 6.133352,-10.07109 1.816786,-2.33293 2.52755,-3.44348 2.208205,-3.45013 -0.09189,-0.002 -0.02302,-0.10257 0.153428,-0.22371 0.798049,-0.54846 -1.240052,-0.17604 -2.440126,0.44587 -6.047323,3.13387 -14.442953,17.87877 -17.856325,31.36059 -2.187134,8.63851 -3.107772,13.98948 -2.873618,16.70301 0.122798,1.42357 0.488193,2.24019 0.856797,1.91492 0.145264,-0.12822 0.835865,-2.09499 1.534629,-4.37058 z m 31.629191,-11.74543 c 1.7422,-0.86694 3.918309,-3.16284 4.719219,-4.97906 0.68146,-1.54521 0.775861,-4.09354 0.175336,-4.73211 -0.193686,-0.206 -0.39114,-0.32951 -0.438724,-0.27447 -0.04744,0.055 -0.525521,1.09687 -1.061926,2.31517 -0.536474,1.2183 -1.023411,2.21509 -1.082089,2.21509 -0.05861,0 0.08038,-0.5783 0.309019,-1.2851 1.424947,-4.4042 -0.666529,-9.66296 -4.60584,-11.58073 -5.277881,-2.56942 -11.381232,0.88893 -12.302288,6.97092 -0.381791,2.5209 0.179034,4.87147 1.660357,6.95862 1.059275,1.49249 1.883488,2.21019 3.413442,2.97235 1.121929,0.55892 1.483207,0.62131 3.59736,0.62131 2.191389,0 2.443893,-0.0479 3.738856,-0.70818 1.362502,-0.69481 2.619509,-1.80116 3.583545,-3.15403 0.267156,-0.37486 0.14359,-0.11012 -0.274552,0.58831 -0.758139,1.2664 -2.167179,2.68728 -3.90589,3.93875 -0.504589,0.36315 -0.976315,0.76164 -1.04832,0.88553 -0.260946,0.44897 2.138015,-0.0634 3.522495,-0.75237 z M 153.8075,174.7163 c -3.33188,-0.18626 -5.53255,-0.74494 -7.98677,-2.02764 -3.83654,-2.00512 -6.43456,-6.20714 -6.43456,-10.40719 v -1.16508 l 3.88657,0.0619 3.88656,0.0619 0.35081,1.24954 c 0.84103,2.99572 2.00412,4.14231 4.95149,4.88122 2.90411,0.72804 6.88612,0.31364 8.8714,-0.92327 1.57036,-0.97843 2.45736,-3.21636 1.99631,-5.03697 -0.50738,-2.0037 -2.16327,-2.78038 -10.49806,-4.92394 -7.04597,-1.8121 -8.804,-2.6196 -10.77282,-4.94812 -1.23468,-1.46029 -1.78867,-3.30779 -1.9601,-6.53618 -0.20792,-3.91699 0.7296,-6.75752 3.05803,-9.26496 1.43234,-1.54249 3.75574,-2.89812 6.16454,-3.59678 1.68031,-0.48738 6.96133,-0.68674 9.05176,-0.34171 3.7563,0.61997 7.29791,2.52639 9.03523,4.86355 1.60133,2.15422 2.74377,5.23576 2.74377,7.40085 v 0.93275 h -3.94838 -3.94845 l -0.12573,-0.62476 c -0.665,-3.3049 -2.36882,-4.93104 -5.77815,-5.51476 -3.07958,-0.52726 -6.06699,0.23561 -7.52941,1.92275 -1.53386,1.76946 -1.65526,3.66846 -0.3407,5.32969 0.7324,0.92557 1.75023,1.28835 9.27915,3.30733 7.2608,1.94706 8.86813,2.61249 10.76641,4.45736 1.99693,1.94079 2.90997,4.49811 2.90466,8.13577 -0.007,4.68994 -2.42673,8.78179 -6.4393,10.88853 -3.0283,1.59 -6.15972,2.09907 -11.18426,1.81817 z m 29.52501,0.12359 c -0.0815,-0.0866 -0.14819,-0.75395 -0.14819,-1.48285 v -1.32527 h -3.84568 -3.84575 v -2.95345 -2.95346 h 3.84575 3.84568 v -1.24954 -1.24953 h -3.84568 -3.84575 v -10.79148 -10.79147 h 3.84575 3.84568 v -1.24954 -1.24953 h -3.84568 -3.84575 v -2.95346 -2.95346 h 3.84575 3.84568 v -1.36313 -1.36314 h 2.99111 2.99104 v 1.36314 1.36313 h 3.84568 3.84575 v 2.95346 2.95346 h -3.73893 -3.73885 v 1.24953 1.24954 h 3.73885 3.73893 v 10.79147 10.79148 h -3.73893 -3.73885 v 1.24953 1.24954 h 3.73885 3.73893 v 2.95346 2.95345 h -3.84331 -3.84323 l 0.0509,1.41993 0.0509,1.41994 -2.89629,0.0629 c -1.59296,0.0346 -2.96299,-0.009 -3.04449,-0.0947 z m 6.90224,-17.91617 v -1.47674 h -4.05932 -4.05939 v 1.47674 1.47671 h 4.05939 4.05932 z m 0,-8.17882 v -1.47672 h -4.05932 -4.05939 v 1.47672 1.47675 h 4.05939 4.05932 z m 8.75963,4.88457 v -21.35582 h 8.94948 8.94947 l 0.14506,5.05496 c 0.0798,2.78022 0.11449,11.8717 0.0772,20.20328 -0.0663,14.88975 -0.0754,15.15927 -0.50892,15.78963 -0.77628,1.12868 -1.80429,1.4922 -4.56139,1.61294 l -2.48618,0.10882 -1.19875,-3.38013 -1.19881,-3.38012 2.00544,-0.065 2.00545,-0.065 v -3.28601 -3.28602 h -3.09793 -3.09794 v 6.70208 6.70206 h -2.99111 -2.99104 z m 12.13134,-0.96555 0.06,-2.66946 h -3.1047 -3.1047 v 2.73249 2.73252 l 3.04448,-0.063 3.04456,-0.063 z m -1.3e-4,-11.70651 0.06,-2.78934 -3.05119,0.0631 -3.05111,0.0631 -0.06,2.78935 -0.06,2.78934 3.05111,-0.0632 3.05119,-0.0631 z m 10.87168,33.87636 c -0.0784,-0.0833 -0.1424,-9.6934 -0.1424,-21.35576 v -21.20436 h 15.16907 15.16914 v 21.35576 21.35575 h -15.02667 c -8.26467,0 -15.09078,-0.0681 -15.16914,-0.15145 z m 24.42729,-12.23033 v -6.0205 h -9.2938 -9.29373 v 6.0205 6.0205 h 9.29373 9.2938 z m -0.0502,-18.23191 -0.0572,-6.07731 h -9.18698 -9.18691 l -0.0572,6.07731 -0.0572,6.0773 h 9.30071 9.30078 z m -143.3089,8.79067 v -21.14141 l 11.27002,0.0806 c 12.37429,0.0885 12.3258,0.0835 15.15099,1.54504 1.97936,1.02399 3.34256,2.44956 4.28775,4.48412 l 0.80454,1.73186 -0.009,2.96449 c -0.008,2.53011 -0.08,3.15429 -0.49217,4.25985 -0.54638,1.46539 -2.08547,3.41614 -3.15619,4.00023 l -0.71684,0.39106 1.75993,1.24608 c 2.94562,2.0856 4.00322,4.33849 4.00322,8.52752 0,5.73267 -2.45911,9.83634 -7.09474,11.83933 -2.61504,1.12992 -3.64801,1.21263 -15.1436,1.21263 h -10.6637 z m 20.65026,13.30562 c 1.42767,-0.45084 2.6888,-1.45529 3.17866,-2.53171 0.49127,-1.07958 0.66214,-3.61726 0.31816,-4.7256 -0.54931,-1.76975 -1.91174,-2.84589 -4.16341,-3.28853 -0.69354,-0.13633 -3.63427,-0.24787 -6.53503,-0.24787 h -5.27405 l -0.13242,0.85196 c -0.0728,0.46857 -0.13348,2.97333 -0.13473,5.56613 v 4.71416 h 5.83654 c 4.54891,0 6.07314,-0.0747 6.90866,-0.33854 z m -2.48771,-18.03853 c 3.6035,-0.27509 4.8183,-1.07643 5.33287,-3.51782 0.49921,-2.36899 -0.81075,-4.6235 -2.97305,-5.11661 -0.64999,-0.14823 -3.46088,-0.25116 -6.85932,-0.25116 h -5.75798 v 4.53143 4.53144 l 3.89912,0.005 c 2.1445,0.004 5.00577,-0.0793 6.35836,-0.1825 z"
   id="path1625" /></g>
</svg>
