<?xml version="1.0" encoding="UTF-8" standalone="no"?>
<!-- Generator: Adobe Illustrator 16.0.0, SVG Export Plug-In . SVG Version: 6.00 Build 0)  -->

<svg
   version="1.1"
   id="Layer_1"
   x="0px"
   y="0px"
   width="280px"
   height="280px"
   viewBox="0 0 280 280"
   enable-background="new 0 0 280 280"
   xml:space="preserve"
   sodipodi:docname="bsfujitv.svg"
   inkscape:version="1.2.2 (732a01da63, 2022-12-09)"
   xmlns:inkscape="http://www.inkscape.org/namespaces/inkscape"
   xmlns:sodipodi="http://sodipodi.sourceforge.net/DTD/sodipodi-0.dtd"
   xmlns="http://www.w3.org/2000/svg"
   xmlns:svg="http://www.w3.org/2000/svg"><defs
   id="defs35" /><sodipodi:namedview
   id="namedview33"
   pagecolor="#ffffff"
   bordercolor="#000000"
   borderopacity="0.25"
   inkscape:showpageshadow="2"
   inkscape:pageopacity="0.0"
   inkscape:pagecheckerboard="0"
   inkscape:deskcolor="#d1d1d1"
   showgrid="false"
   inkscape:zoom="1.0278302"
   inkscape:cx="109.94034"
   inkscape:cy="0.48646167"
   inkscape:window-width="1920"
   inkscape:window-height="991"
   inkscape:window-x="-9"
   inkscape:window-y="-9"
   inkscape:window-maximized="1"
   inkscape:current-layer="Layer_1" />
<rect
   y="-0.042"
   fill-rule="evenodd"
   clip-rule="evenodd"
   fill="#E92328"
   width="280"
   height="280"
   id="rect2"
   style="fill:#e60012;fill-opacity:1" />

<path
   style="fill:#ffffff;stroke-width:1.49312"
   d="m 20.427732,212.06711 v -24.69977 l 20.335581,0.48793 c 19.276086,0.46251 20.484446,0.6712 23.192525,4.0054 3.466624,4.2681 3.745145,13.18127 0.553673,17.71843 -2.082299,2.96033 -2.06795,3.63208 0.149629,7.00222 3.225902,4.9025 3.138353,13.65259 -0.173076,17.29618 -2.357662,2.59416 -4.742617,2.88938 -23.342154,2.88938 H 20.427732 Z m 33.951658,13.32257 c 1.811142,-4.69979 -1.64637,-7.22376 -10.53994,-7.69413 -8.256853,-0.43669 -8.448798,-0.54671 -8.448798,-4.84236 0,-4.1227 0.36547,-4.39553 5.88776,-4.39553 11.332287,0 17.023103,-4.89935 11.768486,-10.13173 -2.663415,-2.65215 -20.108743,-2.3586 -21.154845,0.35596 -0.454409,1.17913 -0.835889,8.21919 -0.84774,15.64457 l -0.02155,13.50067 h 11.208664 c 8.996844,0 11.394008,-0.48099 12.147975,-2.43745 z m 21.411145,6.95612 v -4.42108 l 16.833285,-0.42129 c 16.46484,-0.41206 16.84435,-0.49912 17.33827,-3.97768 0.70682,-4.97782 -1.8948,-6.07936 -14.419994,-6.10552 -16.636715,-0.0347 -22.744145,-4.49875 -22.744145,-16.62398 0,-2.97326 1.475867,-5.95712 4.373781,-8.84276 4.370489,-4.35199 4.387907,-4.35527 23.192528,-4.35527 H 119.183 v 4.46988 4.46988 h -15.4118 c -15.858665,0 -19.002914,1.02676 -19.002914,6.20542 0,4.05581 4.525012,5.5768 16.479314,5.53919 8.51087,-0.0268 11.81403,0.60439 14.80679,2.82935 7.0652,5.25262 7.8533,16.48037 1.59426,22.71293 -2.63881,2.62763 -5.03312,2.94201 -22.406318,2.94201 H 75.790535 Z m 66.099865,-0.20431 c 0.44717,-4.66339 0.95351,-5.12403 6.47029,-5.88593 7.52942,-1.03987 11.39789,-3.14029 16.15753,-8.77285 4.35608,-5.155 6.74898,-15.8622 4.13004,-18.48018 -1.00713,-1.00679 -8.97967,-2.02838 -19.23347,-2.46455 l -17.5133,-0.74498 -0.47346,-4.09739 -0.47346,-4.09739 h 20.84568 c 18.72734,0 21.24067,0.30938 24.73256,3.04448 4.88806,3.82867 6.36996,11.25769 4.07877,20.44756 -3.7719,15.12896 -14.18992,23.85175 -30.2154,25.29874 l -8.99091,0.81182 z m 46.4013,-0.15574 c 0.46847,-4.77703 0.4772,-4.7816 10.19477,-5.33924 13.9673,-0.80148 21.99871,-4.6873 25.15558,-12.17091 2.30876,-5.47305 3.00805,-5.98893 8.13691,-6.00279 6.39657,-0.0173 7.18297,2.38223 3.55095,10.83491 -5.00544,11.64892 -16.86278,17.45916 -35.63008,17.45916 h -11.87701 z m 0.29536,-22.69608 c -0.45525,-1.18135 -0.59323,-3.36042 -0.30662,-4.84237 0.4335,-2.24146 2.02707,-2.69447 9.47838,-2.69447 h 8.95726 l 0.46888,4.84238 0.46887,4.84237 h -9.11952 c -6.5617,0 -9.35168,-0.60244 -9.94725,-2.14791 z m 36.33391,-4.80524 c -0.54865,-0.54632 -0.99754,-2.22252 -0.99754,-3.7249 0,-2.24413 1.20157,-2.73159 6.73332,-2.73159 6.18466,0 6.73331,0.3035 6.73331,3.72489 0,3.32542 -0.61514,3.72491 -5.73578,3.72491 -3.15469,0 -6.18469,-0.447 -6.73331,-0.99331 z m -30.5493,-6.16967 c -5.93644,-0.4277 -6.35925,-0.74964 -6.35925,-4.84237 v -4.38421 h 9.7259 c 9.72165,0 9.72589,0.002 9.72589,4.29618 0,4.84551 -2.29179,5.70856 -13.09254,4.9304 z m 30.5493,-4.26005 c -0.54865,-0.54631 -0.99754,-2.22252 -0.99754,-3.7249 0,-2.24413 1.20157,-2.73159 6.73332,-2.73159 6.18466,0 6.73331,0.30351 6.73331,3.72491 0,3.3254 -0.61514,3.72489 -5.73578,3.72489 -3.15469,0 -6.18469,-0.44699 -6.73331,-0.99331 z M 119.183,176.23497 C 99.052412,171.27068 86.834725,158.23674 85.169398,139.9489 c -0.81132,-8.90957 2.368899,-17.77043 8.944023,-24.92019 l 3.022254,-3.28637 -4.985413,-7.88831 c -2.74199,-4.33858 -6.19799,-9.48732 -7.679992,-11.44166 -1.482018,-1.95433 -2.694567,-4.116175 -2.694567,-4.804104 0,-1.38316 7.918422,-5.797165 10.399739,-5.797165 2.23513,0 1.942541,3.078689 -0.555242,5.842519 -1.862289,2.06064 -1.44491,3.41625 3.366654,10.93476 5.809326,9.0776 6.274616,9.24138 15.900556,5.5971 3.43654,-1.30104 3.80671,-2.23224 3.80671,-9.57585 0,-13.039247 3.59707,-19.071496 9.92957,-16.651773 2.24093,0.85628 2.22718,1.178558 -0.16246,3.807905 -1.70717,1.878406 -2.68381,5.584264 -2.82218,10.708728 l -0.21162,7.83626 9.72591,1.65152 c 5.34924,0.90832 11.88078,2.78023 14.51453,4.1598 2.63377,1.37957 5.08856,2.50831 5.45511,2.50831 0.36657,0 2.81492,-3.33389 5.44079,-7.40863 5.91657,-9.18118 14.21317,-16.633826 17.23289,-15.479957 3.19174,1.219606 2.78096,4.522057 -0.67442,5.421847 -1.60591,0.41817 -5.96949,5.45465 -9.69684,11.19216 l -6.777,10.43184 5.20795,9.9493 c 8.28551,15.82864 7.05079,29.26751 -3.82195,41.59847 -9.71243,11.01502 -24.30913,15.48576 -38.8514,11.89956 z m 23.62621,-7.87566 c 6.82454,-3.50277 14.55732,-11.37816 16.6819,-16.98961 2.25164,-5.947 1.96865,-14.27694 -0.75543,-22.23791 -2.8971,-8.46653 -6.35633,-10.33805 -7.60619,-4.11513 -1.21848,6.06666 -3.78891,7.92806 -7.35864,5.32885 -2.78397,-2.02707 -2.7728,-2.20698 0.49683,-7.9999 1.83967,-3.25941 3.34487,-6.59662 3.34487,-7.416 0,-2.11408 -8.7809,-5.99442 -16.2596,-7.18525 -6.27141,-0.9986 -6.33287,-0.96529 -5.35763,2.90396 1.86895,7.41492 -6.17629,6.58686 -8.68034,-0.89344 -0.27378,-0.81787 -2.97942,-0.39277 -6.30404,0.99047 -4.467,1.85853 -5.41394,2.83201 -4.06319,4.17704 2.82076,2.80883 2.12877,7.11761 -1.14307,7.11761 -1.59734,0 -3.32041,-0.67048 -3.82903,-1.48995 -1.6035,-2.58355 -3.401131,-1.64386 -6.544824,3.42121 -6.36649,10.25759 -5.412021,24.71845 2.228299,33.76003 3.404005,4.02829 7.981885,6.54243 5.949055,3.26716 -0.43369,-0.69875 0.14963,-2.54257 1.29621,-4.09739 1.98239,-2.68818 2.16646,-2.60754 3.75013,1.64295 0.91598,2.45843 3.82794,6.29566 6.47101,8.52719 4.0064,3.38254 6.2464,4.06398 13.4689,4.09739 5.66524,0.0262 10.58446,-0.94597 14.21478,-2.80928 z m -25.4966,-13.65956 c -3.78388,-2.19458 -7.10737,-9.3578 -7.10737,-15.31878 0,-9.2824 12.3023,-15.98864 20.91273,-11.39998 3.69848,1.971 9.01312,10.73965 9.01312,14.87081 0,5.3248 -9.21879,13.46591 -15.18736,13.41197 -2.75693,-0.0248 -6.19093,-0.72873 -7.63112,-1.56402 z"
   id="path2566" /></svg>
