<?xml version="1.0" encoding="UTF-8" standalone="no"?>
<!-- Generator: Adobe Illustrator 16.0.0, SVG Export Plug-In . SVG Version: 6.00 Build 0)  -->

<svg
   version="1.1"
   id="Layer_1"
   x="0px"
   y="0px"
   width="280px"
   height="280px"
   viewBox="0 0 280 280"
   enable-background="new 0 0 280 280"
   xml:space="preserve"
   sodipodi:docname="bstbs.svg"
   inkscape:version="1.2.2 (732a01da63, 2022-12-09)"
   xmlns:inkscape="http://www.inkscape.org/namespaces/inkscape"
   xmlns:sodipodi="http://sodipodi.sourceforge.net/DTD/sodipodi-0.dtd"
   xmlns="http://www.w3.org/2000/svg"
   xmlns:svg="http://www.w3.org/2000/svg"><defs
   id="defs291" /><sodipodi:namedview
   id="namedview289"
   pagecolor="#ffffff"
   bordercolor="#000000"
   borderopacity="0.25"
   inkscape:showpageshadow="2"
   inkscape:pageopacity="0.0"
   inkscape:pagecheckerboard="0"
   inkscape:deskcolor="#d1d1d1"
   showgrid="false"
   inkscape:zoom="1.4535715"
   inkscape:cx="82.899262"
   inkscape:cy="197.78869"
   inkscape:window-width="1920"
   inkscape:window-height="991"
   inkscape:window-x="-9"
   inkscape:window-y="-9"
   inkscape:window-maximized="1"
   inkscape:current-layer="Layer_1"
   showguides="false" />
<rect
   y="-0.042"
   fill-rule="evenodd"
   clip-rule="evenodd"
   fill="#3E61AC"
   width="280"
   height="280"
   id="rect274"
   style="fill:#003487;fill-opacity:1" />
<path
   style="fill:#ffffff;stroke-width:0.176749"
   d="m 149.73659,135.28622 v -20.58613 h -6.31434 -6.31434 v -4.60856 -4.60857 h 17.84488 17.84487 v 4.60857 4.60856 h -6.31434 -6.31434 v 18.49139 18.49139 l -4.98741,2.00971 c -2.74308,1.10533 -5.09037,2.04797 -5.2162,2.09474 -0.18226,0.0677 -0.22878,-4.10064 -0.22878,-20.5011 z m -68.771961,19.84924 c -2.129143,-0.23097 -3.480323,-0.61741 -5.627429,-1.60941 -3.844851,-1.77641 -6.379644,-4.25928 -8.176778,-8.00928 l -0.489745,-1.02194 0.489745,-0.19917 c 0.905592,-0.36826 8.723719,-3.51333 8.9231,-3.58957 0.10849,-0.0415 0.500455,0.49673 0.871043,1.19601 0.782074,1.47577 2.142206,2.74602 3.654911,3.4134 1.966798,0.86773 4.748088,0.99514 6.444723,0.29523 1.082774,-0.44668 2.400416,-1.61817 2.986201,-2.65497 0.427103,-0.75594 0.486106,-1.05698 0.486438,-2.48183 3.64e-4,-1.36296 -0.0664,-1.73833 -0.418499,-2.35399 -1.006066,-1.75927 -2.714911,-2.7176 -7.175628,-4.0241 -6.771792,-1.98339 -11.468943,-5.16897 -13.624197,-9.23983 -1.082973,-2.04552 -1.462289,-3.61821 -1.461468,-6.05941 7.37e-4,-2.42743 0.274017,-3.63664 1.262692,-5.58902 1.191157,-2.35221 2.685277,-3.96179 5.022919,-5.41111 3.293765,-2.04209 6.893113,-2.82299 11.428707,-2.47951 6.356509,0.48137 10.616518,3.03479 13.375967,8.01746 0.476167,0.8598 0.837935,1.58662 0.803932,1.61515 -0.03399,0.0286 -2.038491,0.83804 -4.454408,1.79891 -2.415926,0.96087 -4.451425,1.77922 -4.523343,1.81855 -0.07195,0.0393 -0.344625,-0.32209 -0.606026,-0.80317 -0.662543,-1.21935 -1.901313,-2.31117 -3.344529,-2.94781 -1.021451,-0.45059 -1.492404,-0.55105 -2.818178,-0.60116 -1.39111,-0.0525 -1.717722,-0.006 -2.590779,0.36638 -3.606344,1.53975 -4.298123,5.78384 -1.386799,8.50812 1.002775,0.93834 3.172883,1.95728 5.569362,2.61499 6.022991,1.65301 10.646642,4.26698 13.009301,7.35477 1.759626,2.29969 2.519816,4.57554 2.505216,7.50013 -0.0275,5.50832 -3.42669,10.35268 -9.145897,13.03421 -1.936609,0.90802 -4.071496,1.39124 -6.917691,1.56581 -1.409288,0.0864 -2.60352,0.14883 -2.653852,0.13867 -0.05032,-0.0102 -0.688886,-0.0833 -1.419011,-0.16251 z m 157.264231,0.013 c -2.64075,-0.25562 -5.36684,-1.15886 -7.5271,-2.49397 -2.65636,-1.64172 -5.32254,-4.59371 -6.41638,-7.10417 -0.244,-0.56006 -0.41625,-1.04387 -0.38272,-1.07513 0.12885,-0.12016 9.50642,-3.85782 9.54155,-3.80302 0.0204,0.0318 0.28171,0.55263 0.58065,1.15732 2.05857,4.16411 8.34285,5.62349 11.84986,2.75184 0.37082,-0.30364 0.94292,-1.06109 1.27134,-1.68323 0.52235,-0.98953 0.59565,-1.29495 0.5854,-2.43924 -0.01,-1.06132 -0.10522,-1.48628 -0.5073,-2.25272 -0.95731,-1.82479 -2.34431,-2.62715 -6.98204,-4.03906 -3.44287,-1.04815 -5.64889,-1.99779 -7.88982,-3.3964 -4.0244,-2.5117 -6.09312,-5.11685 -7.05558,-8.88509 -0.5466,-2.14009 -0.42205,-5.34478 0.28257,-7.27075 1.63226,-4.46137 5.69029,-7.76917 11.02486,-8.98662 2.09128,-0.47727 5.94168,-0.51037 8.39211,-0.0721 5.11007,0.91387 8.86284,3.59285 11.18685,7.98596 0.38313,0.72425 0.6574,1.35339 0.60946,1.39809 -0.0479,0.0447 -2.10088,0.88582 -4.56211,1.86918 l -4.47499,1.78791 -0.51614,-0.88172 c -0.73168,-1.24996 -1.86623,-2.26377 -3.24136,-2.89646 -1.10631,-0.50899 -1.3149,-0.54557 -3.11141,-0.54557 -1.76451,0 -1.99624,0.0387 -2.76986,0.46286 -1.77581,0.97359 -2.79566,2.58054 -2.76837,4.36208 0.0261,1.70303 0.47743,2.69538 1.76615,3.88291 1.36528,1.25811 2.5403,1.8006 6.42208,2.96489 7.42817,2.228 11.97073,5.49383 13.80955,9.92826 1.36935,3.30229 1.18298,7.10749 -0.51373,10.4889 -2.0065,3.99877 -6.29413,7.23288 -11.06984,8.34985 -1.90732,0.4461 -5.3606,0.6456 -7.53368,0.43524 z M 24.913997,129.97667 v -24.49368 h 9.310266 c 7.507496,0 9.61909,0.0502 10.905158,0.25938 6.188097,1.00638 11.044352,5.3346 12.480778,11.12369 0.459813,1.85314 0.413062,4.79119 -0.105406,6.62448 -0.45173,1.59728 -1.550835,3.74107 -2.53781,4.94994 l -0.696786,0.85344 1.066511,1.25397 c 1.177065,1.38396 2.519914,3.81963 2.978732,5.40285 0.418234,1.44316 0.559922,4.56477 0.280765,6.18553 -1.020066,5.92247 -6.117206,10.84615 -12.489424,12.06438 -1.183455,0.22625 -3.004163,0.2697 -11.301757,0.2697 h -9.891027 z m 20.224186,15.35083 c 0.57907,-0.20901 1.326992,-0.7064 2.036693,-1.35444 1.495463,-1.36554 1.965554,-2.48733 1.859733,-4.43788 -0.125731,-2.31751 -1.42294,-4.08332 -3.72798,-5.07469 -0.851596,-0.36626 -1.16168,-0.3902 -5.704933,-0.44032 l -4.804389,-0.053 v 5.91391 5.91391 l 4.712884,-0.0685 c 4.110073,-0.0598 4.82992,-0.11083 5.627992,-0.39891 z m -0.268911,-20.51705 c 1.359303,-0.62871 2.134041,-1.34142 2.772156,-2.55025 0.508238,-0.9628 0.598002,-1.31816 0.598002,-2.3674 0,-1.07217 -0.08359,-1.38739 -0.635503,-2.39642 -0.459191,-0.83953 -0.889386,-1.34198 -1.55062,-1.81105 -1.475394,-1.04664 -2.135939,-1.15589 -6.988141,-1.15589 h -4.267859 v 5.3896 5.3896 l 4.621371,-0.0573 c 4.356007,-0.054 4.668976,-0.0793 5.450594,-0.44086 z m 137.262628,5.1635 v -24.51202 l 10.02059,0.0598 10.02057,0.0598 1.63819,0.47196 c 4.33878,1.24999 7.52121,3.68651 9.51876,7.2877 1.10587,1.99367 1.57011,3.60929 1.69274,5.89097 0.17241,3.20773 -0.65251,5.97352 -2.59267,8.69289 l -1.04573,1.46569 0.62095,0.64099 c 4.2173,4.3534 5.10519,10.90155 2.21439,16.33093 -1.91451,3.59575 -5.15653,6.14569 -9.5758,7.53163 l -1.55571,0.48789 -10.47814,0.0519 -10.47814,0.0519 z m 20.15959,15.31047 c 1.45617,-0.54096 2.58577,-1.53017 3.30655,-2.89562 0.53161,-1.00705 0.60076,-1.29876 0.59476,-2.50865 -0.009,-1.75951 -0.63239,-3.13545 -1.93702,-4.27351 -1.66621,-1.4535 -1.94967,-1.51386 -7.43618,-1.58321 l -4.80438,-0.0607 v 5.91423 5.91423 l 4.62136,-0.0614 c 4.27703,-0.0568 4.69838,-0.09 5.65491,-0.44536 z m -0.37056,-20.45182 c 1.98885,-0.85762 3.25468,-2.57967 3.40664,-4.63441 0.15779,-2.13362 -1.10342,-4.14117 -3.20677,-5.10443 l -1.04589,-0.47898 -4.52985,-0.0535 -4.52984,-0.0535 v 5.39829 5.3983 l 4.52984,-0.0535 c 4.17193,-0.0493 4.59671,-0.0823 5.37587,-0.41831 z m -91.53456,4.8027 v -4.01117 h 10.6154 10.61541 v 4.01117 4.01116 h -10.61541 -10.6154 z"
   id="path2258" />
</svg>
