<?xml version="1.0" encoding="UTF-8" standalone="no"?>
<!-- Generator: Adobe Illustrator 16.0.0, SVG Export Plug-In . SVG Version: 6.00 Build 0)  -->

<svg
   version="1.1"
   id="Layer_1"
   x="0px"
   y="0px"
   width="280px"
   height="280px"
   viewBox="0 0 280 280"
   enable-background="new 0 0 280 280"
   xml:space="preserve"
   sodipodi:docname="bstvtokyo.svg"
   inkscape:version="1.2.2 (732a01da63, 2022-12-09)"
   xmlns:inkscape="http://www.inkscape.org/namespaces/inkscape"
   xmlns:sodipodi="http://sodipodi.sourceforge.net/DTD/sodipodi-0.dtd"
   xmlns="http://www.w3.org/2000/svg"
   xmlns:svg="http://www.w3.org/2000/svg"><defs
   id="defs575" /><sodipodi:namedview
   id="namedview573"
   pagecolor="#ffffff"
   bordercolor="#000000"
   borderopacity="0.25"
   inkscape:showpageshadow="2"
   inkscape:pageopacity="0.0"
   inkscape:pagecheckerboard="0"
   inkscape:deskcolor="#d1d1d1"
   showgrid="false"
   inkscape:zoom="2.0556605"
   inkscape:cx="182.90958"
   inkscape:cy="117.48049"
   inkscape:window-width="1920"
   inkscape:window-height="991"
   inkscape:window-x="-9"
   inkscape:window-y="-9"
   inkscape:window-maximized="1"
   inkscape:current-layer="Layer_1" />
<rect
   fill-rule="evenodd"
   clip-rule="evenodd"
   fill="#D6203E"
   width="279.982"
   height="138.005"
   id="rect544"
   style="fill:#e60012;fill-opacity:1" />
<rect
   x="0"
   y="137.991"
   fill-rule="evenodd"
   clip-rule="evenodd"
   fill="#1D305E"
   width="279.982"
   height="142.009"
   id="rect546"
   style="fill:#003487;fill-opacity:1" />

<path
   style="fill:#ffffff;stroke-width:0.466466"
   d="m 136.16347,217.10838 c -21.76955,-2.64439 -41.368309,-16.93565 -54.419972,-39.6826 -2.336734,-4.07255 -7.737523,-16.16274 -7.737523,-17.32119 0,-0.22287 0.526849,-0.40415 1.170775,-0.40289 1.042258,0.001 1.379181,0.49214 3.06932,4.46452 1.044199,2.4542 3.274104,6.65052 4.955345,9.32513 3.250544,5.17117 10.629142,14.09497 14.858662,17.97033 9.545053,8.7458 20.580553,15.06984 30.653013,17.56616 9.57752,2.37363 21.63529,1.21392 32.7817,-3.15293 18.63751,-7.30166 35.51388,-25.38493 47.27034,-50.65084 l 2.43914,-5.24197 -5.88508,-15.074 c -3.23678,-8.2907 -5.99185,-15.05448 -6.12234,-15.03062 -0.1305,0.0239 -1.99191,3.20418 -4.13648,7.06738 l -3.89921,7.024 5.47901,10.18202 5.47901,10.18203 -6.03046,0.14239 c -3.31674,0.0784 -6.23416,0.0487 -6.48312,-0.066 -0.24897,-0.11468 -2.0778,-3.79639 -4.06407,-8.18154 l -3.6114,-7.973 -0.11698,8.16687 -0.11698,8.16688 h -5.31116 -5.31116 v -19.42158 -19.42155 h 5.31061 5.31062 l 0.11752,7.64461 0.11753,7.64462 3.59164,-7.65334 3.59163,-7.65334 10.4383,0.1365 10.4383,0.13649 2.66409,7.41086 c 1.46524,4.07597 2.97626,8.33061 3.35779,9.45475 l 0.69371,2.04389 0.64133,-1.4694 c 0.76781,-1.75922 5.24103,-16.41082 5.24103,-17.16647 0,-0.33871 2.06875,-0.52917 5.74744,-0.52917 3.16108,0 5.74743,0.0861 5.74743,0.19132 0,0.51264 -4.78137,15.50396 -6.37785,19.99687 -15.72463,44.25317 -40.25624,72.48625 -69.01099,79.42373 -7.50697,1.81117 -16.36708,2.49979 -22.53051,1.75111 z M 56.763655,155.91134 c -0.234156,-0.10564 -1.814701,-0.46745 -3.512325,-0.80393 l -3.086588,-0.61179 v -4.86364 c 0,-4.43133 0.06623,-4.831 0.745038,-4.49613 3.820382,1.8846 11.053976,2.44512 12.783793,0.99059 1.136686,-0.95579 1.217351,-2.33065 0.201164,-3.42858 -0.409771,-0.44272 -2.37348,-1.2995 -4.363796,-1.90394 -6.236186,-1.89387 -8.556796,-4.19604 -9.464101,-9.38888 -0.760292,-4.35145 0.103961,-8.16297 2.473191,-10.90725 2.147366,-2.48729 4.807736,-3.64167 9.422519,-4.08858 l 3.070219,-0.29734 2.755238,-6.6997 C 72.723848,97.410065 78.673288,87.651989 86.831264,78.178038 100.70036,62.071698 115.91384,53.321018 134.03164,51.028744 c 21.41704,-2.709695 42.60844,7.714209 57.79503,28.428963 5.6668,7.72962 11.0776,17.679715 14.56421,26.782573 l 1.68305,4.39413 h -1.17932 c -0.93649,0 -1.38045,-0.4296 -2.15607,-2.08631 -0.53722,-1.14748 -2.45614,-4.76985 -4.26428,-8.04973 -14.23087,-25.814036 -30.46005,-38.078262 -53.59469,-40.500945 -21.96129,-2.29981 -42.58742,8.867372 -57.882352,31.33806 -5.737481,8.429277 -11.40642,20.386595 -14.601511,30.798525 -0.776351,2.52992 -1.430053,4.64891 -1.452677,4.70888 -0.0226,0.06 -0.972645,-0.22752 -2.111171,-0.63887 -2.817561,-1.01797 -8.268407,-0.99059 -9.503242,0.0477 -1.214546,1.02126 -1.209385,2.55835 0.01171,3.48688 0.526848,0.40062 2.586348,1.21392 4.576665,1.80732 6.385022,1.90368 8.87913,4.75439 9.283695,10.61104 0.404365,5.85374 -2.133279,10.76441 -6.545146,12.66571 -1.918891,0.82694 -10.692165,1.63011 -11.891879,1.08865 z M 16.95731,136.24011 v -19.47258 h 9.48962 c 10.928915,0 13.669919,0.54506 15.926199,3.16696 1.718548,1.99703 2.447517,5.54279 1.825059,8.8772 -0.603281,3.23168 -1.194045,4.20554 -3.535184,5.82769 -1.987644,1.37721 -2.017059,1.43168 -0.947173,1.75405 1.867708,0.56275 4.321873,3.64398 4.909619,6.16409 1.135153,4.86724 -0.439924,9.35805 -4.04039,11.51984 -2.072357,1.24428 -2.409485,1.28242 -12.877908,1.45653 l -10.749842,0.17879 z m 16.385016,10.17743 c 1.135415,-1.28052 1.401943,-3.41831 0.639427,-5.12876 -0.491319,-1.10209 -2.862546,-2.02609 -5.21026,-2.03028 l -1.596512,-0.003 v 4.40573 4.40572 l 2.548587,-0.2213 c 1.927411,-0.16738 2.809424,-0.51548 3.618758,-1.42825 z m -1.808557,-14.85351 c 1.768335,-0.58956 2.452993,-1.70401 2.452993,-3.99284 0,-2.30005 -1.673259,-3.64835 -4.527645,-3.64835 h -2.284136 v 3.74802 c 0,2.06141 0.127721,3.90135 0.283825,4.08875 0.415889,0.49928 2.25568,0.41097 4.074963,-0.19558 z m 115.485981,22.84773 c -4.24519,-1.6794 -7.15786,-4.95336 -8.74624,-9.83112 -0.82089,-2.52087 -0.98801,-4.0047 -1.00263,-8.90265 -0.009,-3.23266 0.21087,-6.79754 0.49006,-7.92195 0.89638,-3.61024 3.16695,-7.55639 5.3629,-9.32051 2.87762,-2.31176 4.94924,-2.92645 9.85622,-2.92459 3.76143,0.002 4.56117,0.16884 6.86546,1.43713 3.24065,1.78365 5.30515,4.28271 6.81753,8.25251 0.99302,2.6066 1.19576,3.9226 1.35167,8.77387 0.32342,10.06397 -1.95428,15.91733 -7.46003,19.17124 -2.6171,1.54671 -3.23782,1.70006 -7.34533,1.81462 -2.842,0.0792 -5.11091,-0.12187 -6.18961,-0.54855 z m 8.5065,-9.82727 c 2.6729,-3.46235 2.52878,-15.41444 -0.22574,-18.72124 -2.34846,-2.81929 -5.77488,-1.25033 -6.78281,3.10584 -0.75049,3.24357 -0.5234,11.27748 0.3868,13.6839 0.95054,2.51308 1.81146,3.2104 3.98945,3.23133 1.20055,0.0115 1.87829,-0.32313 2.6323,-1.29983 z m 86.23281,9.47302 c -3.0305,-1.30817 -5.01513,-3.26295 -6.69261,-6.59197 -1.70489,-3.3834 -2.26084,-6.4635 -2.26084,-12.52551 0,-7.09236 1.08434,-10.86829 4.19091,-14.59381 2.81737,-3.37872 5.11924,-4.53584 9.8584,-4.9557 5.50413,-0.48763 10.72664,1.85353 13.5829,6.08896 0.56302,0.8349 1.50723,2.93366 2.09825,4.66392 0.91654,2.68326 1.07836,3.97274 1.10025,8.76795 0.0179,3.93533 -0.19308,6.47517 -0.70347,8.46566 -1.36425,5.32065 -4.75046,9.45046 -8.98736,10.96094 -3.12213,1.11306 -9.28689,0.97119 -12.18643,-0.28044 z m 9.00688,-9.14511 c 1.43578,-1.35581 2.04928,-4.19685 2.04928,-9.48994 0,-5.45033 -0.60726,-8.0955 -2.23629,-9.74106 -2.58441,-2.61064 -5.39263,-1.00473 -6.54186,3.74103 -1.32039,5.45264 -0.0881,15.0969 2.06142,16.1344 1.28561,0.62049 3.67767,0.29023 4.66745,-0.64443 z m -166.116558,2.77629 v -6.89975 h -2.576666 -2.576667 l 0.128683,-2.68324 0.128683,-2.68324 9.631709,-0.13722 9.63171,-0.13722 1.178146,5.24813 c 0.64797,2.88647 1.32876,5.44989 1.51287,5.69647 0.1841,0.24659 0.5573,-0.55838 0.82934,-1.78883 0.27203,-1.23044 0.83175,-3.73211 1.24381,-5.55926 l 0.74921,-3.32212 2.61881,-0.15216 c 1.44034,-0.0837 2.62984,0.0313 2.64334,0.25555 0.0135,0.22425 -1.0881,4.59872 -2.44798,9.72108 l -2.47253,9.31336 -3.22755,0.0144 -3.227541,0.0144 -1.815633,-6.89976 -1.815637,-6.89977 h -2.513634 -2.513636 v 6.89977 6.89976 H 87.2038 84.649382 v -6.89976 z m 31.504478,-6.89975 V 126.9894 h -4.91037 -4.91037 l 0.12084,-5.49425 0.12084,-5.49426 15.0072,-0.1343 15.00721,-0.13432 v 5.62857 5.62856 h -4.89596 -4.89598 v 13.79954 13.79952 h -5.3217 -5.32171 z"
   id="path2411" /></svg>
