<?xml version="1.0" encoding="utf-8"?>
<!-- Generator: Adobe Illustrator 16.0.0, SVG Export Plug-In . SVG Version: 6.00 Build 0)  -->
<!DOCTYPE svg PUBLIC "-//W3C//DTD SVG 1.1//EN" "http://www.w3.org/Graphics/SVG/1.1/DTD/svg11.dtd">
<svg version="1.1" id="Layer_1" xmlns="http://www.w3.org/2000/svg" xmlns:xlink="http://www.w3.org/1999/xlink" x="0px" y="0px"
	 width="280px" height="280px" viewBox="0 0 280 280" enable-background="new 0 0 280 280" xml:space="preserve">
<rect y="-0.042" fill-rule="evenodd" clip-rule="evenodd" width="280" height="280"/>
<g>
	<path fill-rule="evenodd" clip-rule="evenodd" fill="#FFFFFF" d="M97.794,132.332c-6.916-12.126-19.923-11.373-26.789-4.163
		c-7.055,7.408-7.057,19.428,0.041,26.949c7.129,7.554,20.188,7.427,26.781-4.237c8.741,5.484,17.483,10.971,26.357,16.537
		c-3.625,6.875-8.318,12.591-14.245,17.047c-8.986,6.758-18.979,9.898-29.845,9.188c-22.838-1.494-41.425-20.321-44.416-44.529
		c-3.406-27.565,12.025-50.188,33.081-57.349c20.542-6.986,44.118,1.977,55.405,24.048
		C115.375,121.326,106.583,126.83,97.794,132.332z"/>
	<path fill-rule="evenodd" clip-rule="evenodd" fill="#FFFFFF" d="M133.223,83.311c35.546,0,70.973,0,106.461,0
		c0,38.835,0,77.603,0,116.453c-35.471,0-70.928,0-106.461,0C133.223,160.977,133.223,122.181,133.223,83.311z M201.703,91.708
		c0,13.843,0,27.537,0,41.472c-0.385-0.48-0.629-0.762-0.85-1.063c-9.627-13.174-19.255-26.346-28.868-39.532
		c-0.472-0.648-0.961-0.958-1.759-0.955c-9.397,0.033-18.794,0.02-28.19,0.023c-0.39,0-0.778,0.041-1.154,0.062
		c0,33.347,0,66.559,0,99.744c10.163,0,20.239,0,30.426,0c0-13.791,0-27.482,0-41.396c0.333,0.426,0.525,0.658,0.703,0.902
		c9.685,13.229,19.37,26.453,29.039,39.693c0.483,0.662,0.986,0.922,1.77,0.92c9.36-0.031,18.721-0.02,28.08-0.02
		c0.392,0,0.784,0,1.188,0c0-33.379,0-66.594,0-99.851C221.97,91.708,211.922,91.708,201.703,91.708z"/>
	<path fill-rule="evenodd" clip-rule="evenodd" fill="#FFFFFF" d="M141.896,216.615c0,2.148,0,3.959,0,5.865
		c-1.425,0-2.804,0-4.24,0c0-4.684,0-9.318,0-14.146c1.334,0,2.686-0.043,4.031,0.033c0.282,0.018,0.584,0.432,0.807,0.725
		c1.202,1.58,2.383,3.182,3.745,5.01c0-2.041,0-3.818,0-5.686c1.513,0,2.895,0,4.352,0c0,4.664,0,9.33,0,14.15
		c-1.335,0-2.657,0.035-3.975-0.029c-0.262-0.014-0.553-0.361-0.753-0.625C144.595,220.246,143.348,218.559,141.896,216.615z"/>
	<path fill-rule="evenodd" clip-rule="evenodd" fill="#FFFFFF" d="M128.713,222.572c-1.298,0-2.55,0.049-3.794-0.035
		c-0.326-0.021-0.692-0.396-0.933-0.709c-1.252-1.627-2.47-3.287-3.882-5.18c0,2.125,0,3.955,0,5.854c-1.467,0-2.816,0-4.228,0
		c0-4.723,0-9.389,0-14.174c1.33,0,2.614-0.043,3.894,0.029c0.291,0.018,0.614,0.375,0.833,0.66c1.25,1.623,2.474,3.273,3.879,5.145
		c0-2.09,0-3.885,0-5.756c1.442,0,2.789,0,4.23,0C128.713,213.059,128.713,217.721,128.713,222.572z"/>
	<path fill-rule="evenodd" clip-rule="evenodd" fill="#FFFFFF" d="M187.073,218.783c-0.252,0.58-0.414,0.938-0.563,1.303
		c-1.134,2.768-1.135,2.779-3.918,2.469c-0.259-0.029-0.668-0.301-0.71-0.525c-0.831-4.504-1.619-9.018-2.445-13.699
		c1.39,0,2.67-0.039,3.944,0.037c0.213,0.012,0.517,0.496,0.58,0.811c0.332,1.648,0.6,3.313,0.948,5.314
		c0.773-2.016,1.425-3.719,2.161-5.643c0.735,1.893,1.39,3.576,2.175,5.6c0.355-1.924,0.699-3.523,0.928-5.143
		c0.106-0.754,0.333-1.041,1.048-1c1.102,0.064,2.209,0.018,3.459,0.018c-0.338,2.023-0.649,3.945-0.98,5.861
		c-0.417,2.42-0.87,4.83-1.262,7.256c-0.126,0.783-0.338,1.17-1.18,1.16c-2.634-0.027-2.634,0.018-3.71-2.67
		C187.421,219.613,187.286,219.297,187.073,218.783z"/>
	<path fill-rule="evenodd" clip-rule="evenodd" fill="#FFFFFF" d="M214.21,218.547c0,1.338,0,2.588,0,3.934
		c-1.398,0-2.744,0-4.175,0c0-4.666,0-9.332,0-14.156c2.379,0,4.769-0.008,7.157,0.004c0.551,0.004,1.125-0.023,1.648,0.127
		c1.784,0.508,2.999,1.75,3.441,3.719c0.434,1.93-0.12,3.586-1.46,4.922c-0.271,0.271-0.561,0.52-0.905,0.836
		c0.78,1.467,1.552,2.918,2.444,4.596c-1.643,0-3.125,0.025-4.604-0.033c-0.184-0.008-0.386-0.443-0.521-0.715
		c-0.402-0.814-0.83-1.621-1.145-2.477C215.728,218.314,215.132,218.219,214.21,218.547z M214.309,212.477c0,0.893,0,1.594,0,2.391
		c0.948,0,1.85,0.139,2.687-0.057c0.433-0.1,0.75-0.791,1.12-1.215c-0.372-0.373-0.703-0.986-1.122-1.068
		C216.146,212.357,215.253,212.477,214.309,212.477z"/>
	<path fill-rule="evenodd" clip-rule="evenodd" fill="#FFFFFF" d="M59.014,222.486c0-4.732,0-9.371,0-14.111
		c2.911,0,5.792-0.178,8.644,0.064c1.794,0.154,3.044,1.557,3.58,3.514c0.512,1.873,0.062,3.506-1.17,4.891
		c-0.333,0.373-0.708,0.699-1.124,1.104c0.779,1.467,1.549,2.916,2.449,4.611c-1.626,0-3.078,0.025-4.527-0.031
		c-0.197-0.006-0.429-0.396-0.562-0.658c-0.429-0.844-0.881-1.686-1.209-2.578c-0.369-1.006-0.975-1.045-1.838-0.768
		c0,1.313,0,2.596,0,3.963C61.828,222.486,60.481,222.486,59.014,222.486z M63.349,212.475c0,0.811,0,1.568,0,2.398
		c0.888,0,1.692,0,2.498,0c0.74,0,1.238-0.414,1.245-1.205c0.006-0.793-0.47-1.211-1.228-1.197
		C65.058,212.484,64.25,212.475,63.349,212.475z"/>
	<path fill-rule="evenodd" clip-rule="evenodd" fill="#FFFFFF" d="M156.889,217.275c0,0.535,0,0.926,0,1.457
		c2.285,0,4.557,0,6.895,0c0,1.328,0,2.516,0,3.768c-3.766,0-7.48,0-11.249,0c0-4.713,0-9.35,0-14.082c3.724,0,7.435,0,11.232,0
		c0,1.289,0,2.594,0,4.041c-2.271,0-4.544,0-6.873,0c0,0.525,0,0.916,0,1.443c1.907,0,3.812,0,5.778,0c0,1.166,0,2.195,0,3.373
		C160.743,217.275,158.84,217.275,156.889,217.275z"/>
	<path fill-rule="evenodd" clip-rule="evenodd" fill="#FFFFFF" d="M201.879,208.047c3.772,0.008,6.76,3.26,6.767,7.365
		c0.008,4.125-2.981,7.457-6.699,7.471c-3.764,0.014-6.868-3.371-6.847-7.465C195.12,211.297,198.116,208.039,201.879,208.047z
		 M201.835,218.094c1.375,0.021,2.527-1.166,2.541-2.619c0.014-1.406-1.191-2.744-2.472-2.742c-1.28,0.004-2.406,1.199-2.446,2.602
		C199.414,216.848,200.471,218.074,201.835,218.094z"/>
	<path fill-rule="evenodd" clip-rule="evenodd" fill="#FFFFFF" d="M100.938,215.455c0.004-4.156,2.954-7.41,6.715-7.408
		c3.813,0.002,6.867,3.334,6.829,7.451c-0.037,4.074-3.12,7.418-6.805,7.385C103.925,222.848,100.935,219.551,100.938,215.455z
		 M110.131,215.504c0.019-1.488-1.087-2.764-2.4-2.771c-1.305-0.006-2.518,1.295-2.514,2.695c0.004,1.412,1.09,2.625,2.387,2.664
		C109.003,218.133,110.112,216.996,110.131,215.504z"/>
	<path fill-rule="evenodd" clip-rule="evenodd" fill="#FFFFFF" d="M228.368,212.59c0.85-1.207,1.672-2.439,2.565-3.605
		c0.245-0.32,0.695-0.613,1.063-0.631c1.549-0.07,3.103-0.029,4.901-0.029c-0.911,1.254-1.709,2.365-2.52,3.465
		c-0.808,1.098-1.627,2.188-2.465,3.314c1.652,2.451,3.282,4.869,5.035,7.469c-1.857,0-3.508,0.041-5.153-0.035
		c-0.31-0.014-0.676-0.436-0.889-0.768c-0.867-1.346-1.686-2.73-2.708-4.406c0,1.912,0,3.486,0,5.137c-1.521,0-2.908,0-4.368,0
		c0-4.715,0-9.377,0-14.107c1.428,0,2.813,0,4.287,0c0,1.391,0,2.75,0,4.107C228.201,212.529,228.285,212.561,228.368,212.59z"/>
	<path fill-rule="evenodd" clip-rule="evenodd" fill="#FFFFFF" d="M92.924,208.047c3.772-0.012,6.777,3.203,6.833,7.314
		c0.058,4.117-3.032,7.545-6.78,7.521c-3.747-0.021-6.752-3.314-6.764-7.412C86.203,211.346,89.173,208.061,92.924,208.047z
		 M93.01,218.092c1.377-0.02,2.447-1.221,2.414-2.715c-0.032-1.436-1.129-2.641-2.406-2.643c-1.331-0.004-2.49,1.254-2.485,2.695
		C90.537,216.916,91.649,218.111,93.01,218.092z"/>
	<path fill-rule="evenodd" clip-rule="evenodd" fill="#FFFFFF" d="M48.256,220.199c-0.699,2.377-0.699,2.377-2.873,2.377
		c-0.738,0-1.476,0-2.391,0c1.375-4.813,2.718-9.51,4.063-14.215c2.185,0,4.289,0,6.529,0c1.33,4.641,2.67,9.313,4.071,14.199
		c-1.466,0-2.854,0.055-4.231-0.051c-0.242-0.018-0.561-0.678-0.635-1.086c-0.176-0.959-0.574-1.348-1.508-1.248
		C50.296,220.283,49.295,220.199,48.256,220.199z M50.423,212.631c-0.069,0-0.139,0-0.208,0.002
		c-0.329,1.289-0.658,2.58-1.003,3.938c0.797,0,1.479,0,2.232,0C51.09,215.205,50.757,213.918,50.423,212.631z"/>
	<path fill-rule="evenodd" clip-rule="evenodd" fill="#FFFFFF" d="M42.7,211.723c-1.169,0.738-2.277,1.438-3.373,2.131
		c-1.863-1.699-3.306-1.814-4.48-0.389c-0.979,1.189-0.922,2.895,0.136,4.045c1.143,1.244,2.705,1.078,4.3-0.547
		c0.529,0.332,1.096,0.688,1.66,1.047c0.568,0.361,1.134,0.73,1.696,1.094c-1.341,2.797-4.344,4.234-7.295,3.551
		c-2.87-0.662-5.067-3.424-5.219-6.559c-0.176-3.613,1.559-6.604,4.462-7.689C37.612,207.275,40.696,208.488,42.7,211.723z"/>
	<path fill-rule="evenodd" clip-rule="evenodd" fill="#FFFFFF" d="M72.664,208.363c4.321,0,8.567,0,12.899,0c0,1.32,0,2.631,0,4.066
		c-1.25,0-2.523,0-3.936,0c0,3.408,0,6.695,0,10.064c-1.673,0-3.209,0-4.891,0c0-3.301,0-6.588,0-9.977c-1.423,0-2.704,0-4.073,0
		C72.664,211.107,72.664,209.801,72.664,208.363z"/>
	<path fill-rule="evenodd" clip-rule="evenodd" fill="#FFFFFF" d="M165.367,212.514c0-1.488,0-2.768,0-4.119c4.318,0,8.59,0,12.94,0
		c0,1.318,0,2.627,0,4.039c-1.313,0-2.593,0-4.006,0c0,3.393,0,6.686,0,10.061c-1.7,0-3.268,0-4.925,0c0-3.334,0-6.596,0-9.98
		C168.016,212.514,166.741,212.514,165.367,212.514z"/>
	<path fill-rule="evenodd" clip-rule="evenodd" d="M201.703,91.708c10.219,0,20.267,0,30.385,0c0,33.257,0,66.472,0,99.851
		c-0.404,0-0.797,0-1.188,0c-9.359,0-18.72-0.012-28.08,0.02c-0.783,0.002-1.286-0.258-1.77-0.92
		c-9.669-13.24-19.354-26.465-29.039-39.693c-0.178-0.244-0.37-0.477-0.703-0.902c0,13.914,0,27.605,0,41.396
		c-10.187,0-20.263,0-30.426,0c0-33.185,0-66.397,0-99.744c0.376-0.021,0.765-0.062,1.154-0.062
		c9.396-0.003,18.793,0.009,28.19-0.023c0.798-0.003,1.287,0.307,1.759,0.955c9.613,13.186,19.241,26.358,28.868,39.532
		c0.221,0.302,0.465,0.583,0.85,1.063C201.703,119.245,201.703,105.551,201.703,91.708z"/>
	<path fill-rule="evenodd" clip-rule="evenodd" d="M214.309,212.477c0.944,0,1.838-0.119,2.685,0.051
		c0.419,0.082,0.75,0.695,1.122,1.068c-0.37,0.424-0.688,1.115-1.12,1.215c-0.837,0.195-1.738,0.057-2.687,0.057
		C214.309,214.07,214.309,213.369,214.309,212.477z"/>
	<path fill-rule="evenodd" clip-rule="evenodd" d="M63.349,212.475c0.901,0,1.708,0.01,2.515-0.004
		c0.758-0.014,1.234,0.404,1.228,1.197c-0.006,0.791-0.504,1.205-1.245,1.205c-0.806,0-1.61,0-2.498,0
		C63.349,214.043,63.349,213.285,63.349,212.475z"/>
	<path fill-rule="evenodd" clip-rule="evenodd" d="M201.835,218.094c-1.364-0.02-2.421-1.246-2.377-2.76
		c0.04-1.402,1.166-2.598,2.446-2.602c1.28-0.002,2.485,1.336,2.472,2.742C204.362,216.928,203.21,218.115,201.835,218.094z"/>
	<path fill-rule="evenodd" clip-rule="evenodd" d="M110.131,215.504c-0.019,1.492-1.128,2.629-2.526,2.588
		c-1.297-0.039-2.383-1.252-2.387-2.664c-0.004-1.4,1.208-2.701,2.514-2.695C109.043,212.74,110.15,214.016,110.131,215.504z"/>
	<path fill-rule="evenodd" clip-rule="evenodd" d="M93.01,218.092c-1.361,0.02-2.474-1.176-2.478-2.662
		c-0.005-1.441,1.154-2.699,2.485-2.695c1.277,0.002,2.374,1.207,2.406,2.643C95.457,216.871,94.387,218.072,93.01,218.092z"/>
	<path fill-rule="evenodd" clip-rule="evenodd" d="M50.423,212.631c0.333,1.287,0.667,2.574,1.021,3.939c-0.753,0-1.435,0-2.232,0
		c0.345-1.357,0.674-2.648,1.003-3.938C50.284,212.631,50.354,212.631,50.423,212.631z"/>
</g>
</svg>
