<?xml version="1.0" encoding="utf-8"?>
<!-- Generator: Adobe Illustrator 16.0.0, SVG Export Plug-In . SVG Version: 6.00 Build 0)  -->
<!DOCTYPE svg PUBLIC "-//W3C//DTD SVG 1.1//EN" "http://www.w3.org/Graphics/SVG/1.1/DTD/svg11.dtd">
<svg version="1.1" id="Layer_1" xmlns="http://www.w3.org/2000/svg" xmlns:xlink="http://www.w3.org/1999/xlink" x="0px" y="0px"
	 width="280px" height="280px" viewBox="0 0 280 280" enable-background="new 0 0 280 280" xml:space="preserve">
<g>
	<path fill-rule="evenodd" clip-rule="evenodd" fill="#CC2227" d="M140.233,280.233c-46.317,0-92.633-0.003-138.95,0.021
		c-0.875,0.001-1.072-0.196-1.071-1.071c0.023-92.634,0.023-185.267,0-277.9c0-0.875,0.197-1.072,1.071-1.071
		c92.633,0.023,185.267,0.023,277.9,0c0.875,0,1.071,0.197,1.071,1.071c-0.022,92.633-0.022,185.267,0,277.9
		c0,0.875-0.196,1.072-1.071,1.071C232.866,280.23,186.55,280.233,140.233,280.233z M129.955,141.899
		c0.345,0.526,0.519,0.767,0.667,1.022c3.145,5.423,6.281,10.852,9.432,16.271c4.416,7.597,8.757,15.236,13.283,22.767
		c6.244,10.392,20.709,12.079,29.271,3.51c3.816-3.82,5.573-8.465,5.56-13.843c-0.024-9.333-0.006-18.666-0.006-27.999
		c0-0.435,0-0.869,0-1.304c0.482,0.319,0.701,0.663,0.905,1.015c7.415,12.748,14.792,25.519,22.259,38.235
		c3.457,5.89,8.718,8.98,15.54,9.333c10.34,0.536,19.476-7.906,19.504-18.253c0.072-27.261,0.024-54.521,0.049-81.78
		c0.001-0.799-0.25-0.964-0.984-0.958c-3.306,0.034-6.612,0.065-9.916-0.014c-1.081-0.026-1.253,0.333-1.251,1.314
		c0.031,14.933,0.022,29.866,0.022,44.798c0,11.822-0.013,23.644,0.011,35.465c0.005,2.034-0.571,3.804-1.927,5.318
		c-3.202,3.579-9.336,3.34-12.309-1.835c-10.798-18.795-21.701-37.529-32.565-56.286c-2.153-3.718-4.299-7.44-6.47-11.147
		c-0.724-1.234-1.771-1.663-3.052-1.352c-1.128,0.274-1.805,1.236-1.846,2.635c-0.011,0.389-0.004,0.778-0.004,1.167
		c0,20.299-0.001,40.598,0.003,60.897c0,1.014-0.047,2.021-0.353,2.993c-0.952,3.033-3.042,4.89-6.148,5.283
		c-3.368,0.426-5.93-1.039-7.64-3.993c-8.825-15.242-17.657-30.479-26.488-45.718c-4.193-7.234-8.39-14.465-12.583-21.7
		c-0.462-0.797-1.01-1.456-2.006-1.6c-1.862-0.27-3.08,0.939-3.08,3.106c-0.002,20.299,0,40.598-0.001,60.898
		c0,4.796-3.56,8.354-8.38,8.355c-10.383,0.006-20.766,0.033-31.149-0.01c-9.784-0.041-18.343-3.358-25.626-9.888
		c-12.826-11.5-16.451-30.517-8.39-45.672c7.325-13.771,19.082-20.629,34.642-20.941c4.859-0.098,9.722-0.038,14.583,0.006
		c0.837,0.008,1.019-0.231,1.008-1.033c-0.047-3.344-0.049-6.689,0-10.032c0.013-0.839-0.25-1.024-1.045-1.018
		c-4.394,0.037-8.788,0.009-13.183,0.02c-3.614,0.009-7.213,0.146-10.787,0.809c-13.094,2.428-23.724,8.928-31.602,19.612
		c-8.643,11.722-11.626,24.902-8.983,39.257c2.198,11.939,8.108,21.781,17.428,29.484c9.499,7.853,20.541,11.547,32.854,11.52
		c9.994-0.022,19.988-0.012,29.982,0.002c1.948,0.002,3.884-0.099,5.798-0.457c6.122-1.146,10.705-4.318,13.22-10.153
		c1.229-2.853,1.732-5.871,1.742-8.955C129.975,161.448,129.955,151.846,129.955,141.899z M159.152,138.245
		c-0.07,0.014-0.142,0.028-0.212,0.042c-3.066-5.287-6.127-10.577-9.201-15.858c-4.732-8.13-9.321-16.349-14.25-24.357
		c-6.119-9.94-20.46-11.475-28.776-3.281c-3.903,3.846-5.752,8.511-5.739,14c0.039,16.177,0.015,32.354,0.013,48.531
		c0,3.099-1.195,4.279-4.311,4.28c-5.328,0.001-10.655,0.013-15.983-0.007c-1.67-0.007-3.357,0.034-5.008-0.173
		c-11.768-1.476-20.046-12.446-18.327-24.217c1.524-10.436,10.196-18.081,20.752-18.22c5.093-0.067,10.188-0.045,15.282,0.004
		c0.952,0.009,1.141-0.287,1.128-1.168c-0.05-3.305-0.059-6.611,0.005-9.916c0.018-0.912-0.266-1.065-1.101-1.059
		c-5.133,0.04-10.266,0.023-15.399,0.018c-2.928-0.003-5.804,0.413-8.614,1.2c-15.754,4.414-26.072,19.502-24.332,35.699
		c0.835,7.771,4.039,14.497,9.576,20.039c5.842,5.846,12.918,9.431,21.165,9.698c11.305,0.366,22.628,0.12,33.945,0.139
		c1.094,0.002,1.91-0.5,2.574-1.341c0.628-0.795,0.637-1.71,0.637-2.65c-0.005-20.026-0.003-40.054-0.006-60.081
		c0-1.014,0.056-2.017,0.353-2.992c0.871-2.867,3.359-5.051,6.158-5.292c3.387-0.292,5.924,1.082,7.635,4.036
		c9.117,15.742,18.248,31.477,27.371,47.214c3.901,6.73,7.804,13.461,11.691,20.198c0.563,0.977,1.287,1.642,2.476,1.638
		c1.62-0.005,2.61-1.197,2.61-3.163c0.002-20.61,0-41.221,0.005-61.831c0-0.659-0.025-1.333,0.102-1.973
		c0.644-3.246,2.946-5.525,6.089-6.097c3.03-0.551,6.128,0.968,7.822,3.889c8.254,14.229,16.497,28.464,24.745,42.696
		c4.794,8.271,9.594,16.539,14.383,24.813c0.464,0.803,1.004,1.464,1.988,1.616c1.882,0.291,3.068-0.871,3.068-3.1
		c0.007-26.754,0.001-53.508,0.021-80.263c0.001-0.813-0.216-1.058-1.039-1.046c-3.227,0.045-6.456,0.059-9.682-0.005
		c-1.029-0.021-1.363,0.204-1.36,1.314c0.041,15.282,0.028,30.565,0.028,45.848c0,0.396,0,0.792,0,1.188
		c-1.439-1.999-2.621-4.033-3.804-6.066c-6.581-11.308-13.076-22.668-19.776-33.906c-4.38-7.348-13.587-10.539-21.704-7.852
		c-7.743,2.563-12.956,9.687-12.987,17.867c-0.036,9.566-0.009,19.132-0.01,28.699C159.152,137.414,159.152,137.83,159.152,138.245z
		"/>
	<path fill-rule="evenodd" clip-rule="evenodd" fill="#FFFDFD" d="M129.955,141.899c0,9.946,0.02,19.549-0.011,29.152
		c-0.01,3.084-0.513,6.103-1.742,8.955c-2.515,5.835-7.098,9.008-13.22,10.153c-1.914,0.358-3.85,0.459-5.798,0.457
		c-9.994-0.014-19.988-0.024-29.982-0.002c-12.313,0.027-23.354-3.667-32.854-11.52c-9.32-7.703-15.229-17.545-17.428-29.484
		c-2.644-14.355,0.34-27.535,8.983-39.257C45.782,99.67,56.412,93.17,69.506,90.743c3.574-0.663,7.172-0.8,10.787-0.809
		c4.395-0.011,8.789,0.017,13.183-0.02c0.795-0.006,1.058,0.179,1.045,1.018c-0.05,3.343-0.048,6.688,0,10.032
		c0.011,0.801-0.17,1.041-1.008,1.033c-4.861-0.043-9.724-0.104-14.583-0.006c-15.561,0.312-27.317,7.17-34.642,20.941
		c-8.061,15.155-4.436,34.172,8.39,45.672c7.283,6.529,15.842,9.847,25.626,9.888c10.383,0.043,20.766,0.016,31.149,0.01
		c4.82-0.002,8.38-3.56,8.38-8.355c0.001-20.3,0-40.599,0.001-60.898c0-2.167,1.218-3.376,3.08-3.106
		c0.996,0.145,1.543,0.803,2.006,1.6c4.192,7.235,8.39,14.466,12.583,21.7c8.831,15.238,17.663,30.476,26.488,45.718
		c1.71,2.954,4.271,4.419,7.64,3.993c3.106-0.394,5.196-2.25,6.148-5.283c0.306-0.972,0.353-1.979,0.353-2.993
		c-0.004-20.299-0.003-40.598-0.003-60.897c0-0.389-0.007-0.778,0.004-1.167c0.041-1.398,0.718-2.36,1.846-2.635
		c1.28-0.312,2.328,0.117,3.052,1.352c2.171,3.707,4.316,7.43,6.47,11.147c10.864,18.757,21.768,37.491,32.565,56.286
		c2.973,5.175,9.106,5.414,12.309,1.835c1.355-1.515,1.932-3.284,1.927-5.318c-0.023-11.821-0.011-23.643-0.011-35.465
		c0-14.933,0.009-29.865-0.022-44.798c-0.002-0.981,0.17-1.34,1.251-1.314c3.304,0.08,6.61,0.048,9.916,0.014
		c0.734-0.007,0.985,0.158,0.984,0.958c-0.024,27.26,0.023,54.52-0.049,81.78c-0.028,10.347-9.164,18.789-19.504,18.253
		c-6.822-0.353-12.083-3.443-15.54-9.333c-7.467-12.717-14.844-25.487-22.259-38.235c-0.204-0.352-0.423-0.695-0.905-1.015
		c0,0.435,0,0.869,0,1.304c0,9.333-0.019,18.666,0.006,27.999c0.014,5.378-1.743,10.022-5.56,13.843
		c-8.563,8.569-23.027,6.882-29.271-3.51c-4.525-7.53-8.867-15.17-13.283-22.767c-3.151-5.42-6.287-10.849-9.432-16.271
		C130.474,142.666,130.3,142.426,129.955,141.899z"/>
	<path fill-rule="evenodd" clip-rule="evenodd" fill="#FFFDFD" d="M159.152,138.245c0-0.415,0-0.831,0-1.246
		c0.001-9.566-0.026-19.132,0.01-28.699c0.031-8.18,5.244-15.303,12.987-17.867c8.117-2.688,17.324,0.503,21.704,7.852
		c6.7,11.238,13.195,22.598,19.776,33.906c1.183,2.033,2.364,4.068,3.804,6.066c0-0.396,0-0.792,0-1.188
		c0-15.283,0.013-30.565-0.028-45.848c-0.003-1.11,0.331-1.334,1.36-1.314c3.226,0.063,6.455,0.05,9.682,0.005
		c0.823-0.012,1.04,0.234,1.039,1.046c-0.021,26.755-0.015,53.509-0.021,80.263c0,2.229-1.187,3.391-3.068,3.1
		c-0.984-0.152-1.524-0.813-1.988-1.616c-4.789-8.274-9.589-16.543-14.383-24.813c-8.248-14.232-16.491-28.468-24.745-42.696
		c-1.694-2.921-4.792-4.44-7.822-3.889c-3.143,0.572-5.445,2.851-6.089,6.097c-0.127,0.639-0.102,1.314-0.102,1.973
		c-0.005,20.61-0.003,41.22-0.005,61.831c0,1.966-0.99,3.158-2.61,3.163c-1.188,0.004-1.912-0.661-2.476-1.638
		c-3.888-6.737-7.79-13.468-11.691-20.198c-9.123-15.737-18.254-31.472-27.371-47.214c-1.711-2.955-4.249-4.328-7.635-4.036
		c-2.799,0.24-5.287,2.425-6.158,5.292c-0.297,0.975-0.354,1.979-0.353,2.992c0.003,20.027,0.001,40.054,0.006,60.081
		c0,0.94-0.008,1.855-0.637,2.65c-0.665,0.841-1.48,1.343-2.574,1.341c-11.316-0.019-22.64,0.228-33.945-0.139
		c-8.247-0.268-15.323-3.853-21.165-9.698c-5.538-5.542-8.741-12.268-9.576-20.039c-1.741-16.197,8.578-31.285,24.332-35.699
		c2.81-0.787,5.686-1.203,8.614-1.2c5.133,0.005,10.267,0.021,15.399-0.018c0.835-0.006,1.119,0.146,1.101,1.059
		c-0.064,3.304-0.055,6.611-0.005,9.916c0.013,0.882-0.176,1.178-1.128,1.168c-5.094-0.049-10.189-0.072-15.282-0.004
		c-10.556,0.14-19.228,7.784-20.752,18.22c-1.719,11.771,6.559,22.741,18.327,24.217c1.651,0.207,3.338,0.166,5.008,0.173
		c5.328,0.02,10.655,0.008,15.983,0.007c3.116-0.001,4.311-1.182,4.311-4.28c0.002-16.177,0.026-32.354-0.013-48.531
		c-0.013-5.488,1.835-10.153,5.739-14c8.316-8.194,22.658-6.66,28.776,3.281c4.93,8.008,9.518,16.227,14.25,24.357
		c3.074,5.282,6.135,10.572,9.201,15.858C159.011,138.272,159.082,138.259,159.152,138.245z"/>
</g>
</svg>
