<?xml version="1.0" encoding="utf-8"?>
<!-- Generator: Adobe Illustrator 16.0.0, SVG Export Plug-In . SVG Version: 6.00 Build 0)  -->
<!DOCTYPE svg PUBLIC "-//W3C//DTD SVG 1.1//EN" "http://www.w3.org/Graphics/SVG/1.1/DTD/svg11.dtd">
<svg version="1.1" id="Layer_1" xmlns="http://www.w3.org/2000/svg" xmlns:xlink="http://www.w3.org/1999/xlink" x="0px" y="0px"
	 width="280px" height="280px" viewBox="0 0 280 280" enable-background="new 0 0 280 280" xml:space="preserve">
<rect y="-0.042" fill-rule="evenodd" clip-rule="evenodd" fill="#ED1D75" width="280" height="280"/>
<g>
	<path fill-rule="evenodd" clip-rule="evenodd" fill="#F1F2F2" d="M252,119c-2.346,1.216-2.786,3.778-3.878,5.795
		c-6.043,11.156-11.911,22.408-18.217,34.343c-3.966-7.569-7.531-14.391-11.112-21.204c-1.497-2.847-7.113-4.586-9.74-3.113
		c-1.378,0.772-0.905,2.016-0.916,3.086c-0.05,5.331-0.225,10.675,0.047,15.993c0.187,3.652-0.596,4.858-4.72,5.121
		c-8.118,0.518-14.65-1.517-20.726-7.121c-6.553-6.045-13.955-11.168-21.736-17.283c0,7.468-0.113,14.189,0.056,20.903
		c0.066,2.638-0.774,3.299-3.38,3.375c-13.947,0.405-13.944,0.485-13.944-13.281c0-15.445,0-30.89,0-47.07
		c10.001,7.9,19.417,15.337,29.895,23.613c0-7.169,0.175-13.207-0.067-19.227c-0.139-3.452,0.426-5.373,4.504-4.781
		c4.367,0.634,10.276-1.934,12.797,1.112c2.162,2.613,1.115,8.319,0.646,12.564c-0.601,5.438,1.515,6.583,6.515,6.283
		c7.305-0.438,14.662,0.067,21.985-0.178c4.579-0.153,8.641-0.072,9.822,6.393c1.76-8.263,7.735-6.185,12.725-6.312
		c3.146-0.08,6.297-0.012,9.445-0.011C252,118.333,252,118.667,252,119z M214.906,130.854c-0.713-1.488-1.467-2.742-1.935-4.095
		c-1.499-4.333-4.312-5.978-8.967-5.469c-4.104,0.449-8.308,0.298-12.442,0.03c-3.432-0.222-4.786,0.816-4.49,4.403
		c0.244,2.959-0.669,6.38,4.294,5.371c3.276-0.666,3.835,0.952,3.708,3.838c-0.218,4.973,0.269,9.991-0.158,14.937
		c-0.379,4.369,0.927,5.525,5.328,5.444c4.024-0.074,5.176-1.246,4.769-5.038c-0.299-2.792-0.155-5.646-0.034-8.464
		c0.148-3.445-1.431-7.736,0.687-10.059C207.154,130.119,211.487,131.077,214.906,130.854z M229.883,151.799
		c5.543-10.471,10.657-20.132,15.656-29.574c-9.955-4.195-12.625,3.044-15.556,10.027c-6-11.774-6-11.774-15.166-10.378
		c-0.015,0.307-0.148,0.676-0.025,0.913C219.655,132.171,224.541,141.545,229.883,151.799z"/>
	<path fill-rule="evenodd" clip-rule="evenodd" fill="#F1F2F2" d="M145.861,167.05c-4.578,6.657-9.155,13.314-13.733,19.973
		C97.418,187.015,62.709,187.008,28,187c0-6.667,0-13.333,0-20C67.287,167.017,106.574,167.033,145.861,167.05z"/>
	<path fill-rule="evenodd" clip-rule="evenodd" fill="#F1F2F2" d="M28,123c3.061-5.532,5.233-11.492,10.213-15.96
		c11.032-9.896,28.168-11.166,40.402-2.458c-3.649,4.392-5.991,9.478-7.865,15.193c-3.75-2.963-7.681-4.99-12.541-4.149
		c-3.743,0.647-6.934,2.178-9.35,5.158c-4.033,4.975-3.841,12.086,0.49,16.828c4.056,4.44,12.789,7.438,21.297,0.383
		c1.752,4.634,3.454,9.241,6.629,13.019c1.562,1.857,0.841,2.811-0.934,3.775c-17.4,9.455-38.372,2.809-46.203-15.606
		c-0.614-1.445-0.387-3.32-2.139-4.183C28,131,28,127,28,123z"/>
	<path fill-rule="evenodd" clip-rule="evenodd" fill="#F1F2F2" d="M252,169c-1.87,5.066-6.218,3.4-9.889,3.717
		c-1.434,0.123-3.903-1.02-3.964,1.523c-0.063,2.654,2.464,1.287,3.867,1.642c0.313,0.078,0.701-0.087,0.988,0.027
		c1.671,0.661,4.723-1.646,4.994,1.731c0.289,3.601-2.817,2.668-5.01,3.024c-2.392,0.389-6.716-1.613-6.776,1.527
		c-0.069,3.613,4.237,0.886,6.454,1.689c0.441,0.16,1-0.038,1.485,0.045c1.129,0.194,2.939-0.64,2.779,1.655
		c-0.113,1.617-1.117,2.283-2.683,2.281c-5.15-0.004-10.303-0.066-15.45,0.052c-2.457,0.057-2.261-1.291-1.841-2.865
		c1.49-5.598,3.087-11.168,4.483-16.788c0.525-2.112,1.757-2.367,3.614-2.332c5.647,0.107,11.298,0.059,16.946,0.07
		C252,167,252,168,252,169z"/>
	<path fill-rule="evenodd" clip-rule="evenodd" fill="#F1F2F2" d="M145.861,167.05C106.574,167.033,67.287,167.017,28,167
		c0-0.334,0-0.666,0-1c38.375-0.039,76.75-0.086,115.125-0.081C144.076,165.919,145.582,165.178,145.861,167.05z"/>
	<path fill-rule="evenodd" clip-rule="evenodd" fill="#F1F2F2" d="M28,187c34.709,0.008,69.418,0.015,104.128,0.022
		c-1.608,1.798-3.73,0.91-5.587,0.914C93.694,188.006,60.847,187.994,28,188C28,187.667,28,187.333,28,187z"/>
	<path fill-rule="evenodd" clip-rule="evenodd" fill="#F1F2F2" d="M138.379,128.246c0.139,16.903-13.739,30.571-31.17,30.7
		c-17.619,0.131-31.87-13.604-31.81-30.656c0.058-16.499,14.122-30.084,31.271-30.208
		C124.105,97.954,138.241,111.402,138.379,128.246z M107.135,115.742c-7.603-0.065-13.717,5.677-13.675,12.843
		c0.041,7,5.963,12.698,13.293,12.789c7.507,0.093,13.619-5.704,13.595-12.895C120.325,121.461,114.457,115.805,107.135,115.742z"/>
	<path fill-rule="evenodd" clip-rule="evenodd" fill="#F1F2F2" d="M214.286,173.595c3.3-4.071,6.115-7.935,11.979-6.803
		c2.543,0.491,2.982,1.016,2.31,3.339c-1.335,4.616-2.762,9.244-3.563,13.968c-0.763,4.5-3.946,4.159-6.691,3.564
		c-3.313-0.718-0.988-3.373-0.901-5.169c0.046-0.941,0.781-1.839,0.27-2.928c-2.349,1.111-3.122,4.255-5.35,4.969
		c-3.66,1.173-1.885-3.906-4.465-4.565c-1.339,0.942-1.313,2.682-1.439,3.927c-0.376,3.679-2.509,4.063-5.523,3.959
		c-2.368-0.083-3.397-0.548-2.62-3.181c1.455-4.926,2.834-9.883,3.971-14.89c0.868-3.822,4.183-3.105,6.578-3.745
		c2.788-0.745,2.974,1.716,3.485,3.691C212.639,170.936,213.458,172.009,214.286,173.595z"/>
	<path fill-rule="evenodd" clip-rule="evenodd" fill="#F1F2F2" d="M179.613,175.813c0.577-2.117,1.321-3.925,1.531-5.794
		c0.566-5.035,4.202-4.091,7.391-3.951c2.032,0.09,1.194,1.449,0.912,2.504c-1.285,4.794-2.5,9.607-3.885,14.372
		c-0.639,2.2-0.394,5.063-4.248,4.944c-3.174-0.097-5.842-0.077-6.973-3.835c-0.495-1.645-1.087-3.481-2.767-4.697
		c-1.421,1.958-1.453,4.298-2.144,6.404c-0.384,1.171-0.788,2.214-2.351,1.96c-1.18-0.191-1.677-1.016-1.853-2.041
		c-0.947-5.571-1.331-11.085,0.746-16.571c0.686-1.812,1.688-2.271,3.334-2.119c2.316,0.213,5.005-0.97,6.479,2.159
		C176.813,171.327,177.31,173.86,179.613,175.813z"/>
	<path fill-rule="evenodd" clip-rule="evenodd" fill="#F1F2F2" d="M137.387,187.675c4.744-6.819,8.884-12.962,13.238-18.948
		c2.141-2.944,5.564-1.943,8.349-1.562c2.16,0.296,0.985,2.948,1.508,4.285c1.343,3.432,0.962,7.01,1.87,10.433
		c1.496,5.641-0.674,7.877-5.999,5.635c-4.019-1.692-7.29-1.795-11.206,0.009C143.276,188.388,140.681,187.675,137.387,187.675z"/>
	<path fill-rule="evenodd" clip-rule="evenodd" fill="#F1F2F2" d="M191.087,187.819c-3.975,0.957-3.668-1.431-2.913-4.143
		c1.197-4.303,2.795-8.541,3.484-12.923c0.684-4.34,2.902-5.235,6.754-4.856c2.087,0.205,2.423,0.706,1.858,2.681
		c-1.593,5.568-3.022,11.187-4.396,16.813C195.222,188.07,193.332,188.034,191.087,187.819z"/>
</g>
<polygon fill="#ED1D75" points="152.131,172.579 153.898,176.395 155.667,180.211 152.131,180.211 148.594,180.211 150.362,176.395 
	"/>
</svg>
