<?xml version="1.0" encoding="UTF-8" standalone="no"?>
<!-- Generator: Adobe Illustrator 16.0.0, SVG Export Plug-In . SVG Version: 6.00 Build 0)  -->

<svg
   version="1.1"
   id="Layer_1"
   x="0px"
   y="0px"
   width="280px"
   height="280px"
   viewBox="0 0 280 280"
   enable-background="new 0 0 280 280"
   xml:space="preserve"
   sodipodi:docname="fujitvnext.svg"
   inkscape:version="1.2.2 (732a01da63, 2022-12-09)"
   xmlns:inkscape="http://www.inkscape.org/namespaces/inkscape"
   xmlns:sodipodi="http://sodipodi.sourceforge.net/DTD/sodipodi-0.dtd"
   xmlns="http://www.w3.org/2000/svg"
   xmlns:svg="http://www.w3.org/2000/svg"><defs
   id="defs35" /><sodipodi:namedview
   id="namedview33"
   pagecolor="#ffffff"
   bordercolor="#000000"
   borderopacity="0.25"
   inkscape:showpageshadow="2"
   inkscape:pageopacity="0.0"
   inkscape:pagecheckerboard="0"
   inkscape:deskcolor="#d1d1d1"
   showgrid="false"
   inkscape:zoom="1.0278302"
   inkscape:cx="109.94034"
   inkscape:cy="0.48646167"
   inkscape:window-width="1920"
   inkscape:window-height="991"
   inkscape:window-x="-9"
   inkscape:window-y="-9"
   inkscape:window-maximized="1"
   inkscape:current-layer="Layer_1" />
<rect
   y="-0.042"
   fill-rule="evenodd"
   clip-rule="evenodd"
   fill="#E92328"
   width="280"
   height="280"
   id="rect2"
   style="fill:#009944;fill-opacity:1" />

<path
   style="fill:#ffffff;stroke-width:0.539062"
   d="m 49.641819,196.50564 c -0.941867,-0.7723 -1.049014,-1.62263 -1.199727,-9.52125 -0.164728,-8.63298 -0.159438,-8.6798 1.140005,-10.09188 l 1.305503,-1.41865 h 90.68741 90.68741 l 1.12437,1.30057 c 1.05252,1.21746 1.12438,1.84594 1.12438,9.8339 0,7.78408 -0.0908,8.632 -1.03424,9.6572 -1.02651,1.11549 -1.71263,1.12373 -91.91755,1.10601 -80.210441,-0.0158 -91.004783,-0.11748 -91.917561,-0.8659 z m 26.598157,-4.65288 c 2.228738,-1.16124 3.589971,-3.15754 3.992909,-5.85576 l 0.312716,-2.09409 H 74.531096 68.51659 v 1.40485 c 0,1.38143 0.06895,1.40483 4.136936,1.40483 2.275315,0 4.136937,0.14913 4.136937,0.33138 0,0.84127 -2.520749,2.49598 -4.310528,2.82958 -2.047716,0.38168 -2.74856,1.25673 -2.215515,2.76623 0.368254,1.04282 3.172358,0.6735 5.975556,-0.78702 z m 18.13247,-2.1158 c 0,-3.3308 0.16189,-3.91926 1.55135,-5.63893 3.13474,-3.87973 0.90008,-5.88678 -2.41921,-2.17282 -1.14345,1.27943 -2.72643,2.26497 -4.57701,2.84957 -2.42511,0.7661 -2.82901,1.08857 -2.82901,2.25867 0,1.51785 0.74779,1.69811 3.49396,0.84225 l 1.67721,-0.52271 v 3.05143 c 0,3.01585 0.0181,3.05143 1.55136,3.05143 h 1.55135 z m 16.398354,1.83812 c 1.76326,-0.99305 4.28633,-5.0615 4.28633,-6.91171 0,-0.60917 0.34165,-1.59845 0.75923,-2.19838 0.41757,-0.59994 0.76663,-1.77033 0.77568,-2.6009 0.0152,-1.38974 -0.14488,-1.50769 -2.0075,-1.47975 -1.53314,0.023 -2.08569,0.28699 -2.27861,1.08865 -0.22121,0.91924 -0.77068,1.0583 -4.18147,1.0583 -3.84383,0 -3.92679,0.0297 -3.92679,1.40485 0,1.37361 0.0862,1.40483 3.87838,1.40483 3.48206,0 3.87838,0.11045 3.87838,1.08077 0,1.59434 -2.37791,4.38425 -4.42109,5.18711 -1.43308,0.56314 -1.78432,0.99911 -1.78432,2.21489 0,1.41804 0.10626,1.4876 1.68063,1.10014 0.92435,-0.22748 2.42787,-0.83444 3.34115,-1.3488 z m 27.63248,-0.13243 c 1.38773,-0.776 4.06105,-5.79007 4.06105,-7.61691 0,-0.53921 0.2327,-1.13665 0.51712,-1.32766 0.83255,-0.55915 0.59403,-2.93834 -0.33334,-3.32505 -0.46776,-0.19507 -1.24236,0.0307 -1.72135,0.5018 -0.63068,0.62024 -2.03636,0.85646 -5.09639,0.85646 -4.16245,0 -4.2255,0.021 -4.2255,1.40485 0,1.37361 0.0862,1.40483 3.87838,1.40483 4.31633,0 4.52644,0.24287 2.82842,3.26937 -0.63606,1.13369 -1.9528,2.30038 -3.35933,2.97646 -2.12281,1.02042 -2.9497,2.42816 -2.0198,3.43866 0.3623,0.3937 3.62337,-0.54981 5.47074,-1.58281 z m 3.02682,-10.34942 c 0,-0.30907 0.2327,-0.56194 0.51711,-0.56194 0.28442,0 0.51712,0.25287 0.51712,0.56194 0,0.30907 -0.2327,0.56193 -0.51712,0.56193 -0.28441,0 -0.51711,-0.25286 -0.51711,-0.56193 z m 36.71531,10.70227 c 0,-1.9265 -0.7471,-2.17547 -7.23964,-2.41256 -3.82695,-0.13975 -3.87838,-0.12295 -3.87838,1.26323 0,1.34774 0.16811,1.42125 4.13694,1.80889 2.27531,0.22223 4.60234,0.50387 5.17117,0.62588 0.56883,0.12204 1.20876,0.2563 1.42207,0.29838 0.21331,0.0421 0.38784,-0.67063 0.38784,-1.58382 z m 9.30808,0.81745 c 0.82499,-0.46359 1.72531,-1.28543 2.00074,-1.82629 0.27542,-0.54088 1.37248,-1.48914 2.43792,-2.10728 2.57472,-1.49377 3.9537,-3.63925 4.03068,-6.27113 l 0.0631,-2.15792 -5.55901,-0.1595 -5.55901,-0.15949 v 1.70482 1.70481 h 3.87838 c 2.97031,0 3.87838,0.18328 3.87838,0.7828 0,0.43053 -0.34906,0.92833 -0.77568,1.10623 -0.42662,0.1779 -0.77568,0.0785 -0.77568,-0.22085 0,-0.29937 -0.58175,-0.5443 -1.29279,-0.5443 -1.03877,0 -1.29279,0.27972 -1.29279,1.42358 0,0.8777 -0.69403,2.17775 -1.80991,3.39036 -1.75152,1.90333 -2.1828,3.02259 -1.46516,3.80243 0.4669,0.50737 0.52694,0.49482 2.24081,-0.46827 z m -30.75188,-1.10473 c 2.02834,-1.2917 3.19912,-3.10342 4.09771,-6.34094 0.31032,-1.11808 0.16854,-1.26437 -1.22543,-1.26437 -1.25066,0 -1.64346,0.2906 -1.9012,1.4065 -0.35767,1.5486 -2.96955,4.21288 -4.13002,4.21288 -0.57931,0 -0.736,-1.02482 -0.736,-4.8138 v -4.81378 l -1.42207,0.17781 -1.42207,0.17781 -0.14622,6.32178 -0.14621,6.3218 h 2.42781 c 1.6477,0 3.12697,-0.44525 4.6037,-1.38569 z m 57.62151,0.96424 c -0.0113,-0.2318 -0.656,-2.19156 -1.43276,-4.35502 -1.22357,-3.40792 -1.60089,-3.95731 -2.82367,-4.11136 -1.63401,-0.20587 -1.85788,0.94516 -0.6357,3.26845 1.2355,2.3486 0.9809,2.8097 -1.55135,2.8097 -1.27987,0 -2.32703,-0.0822 -2.32703,-0.18255 0,-0.10042 0.58176,-2.04123 1.29279,-4.31296 1.64295,-5.24912 1.63868,-5.73988 -0.048,-5.5162 -1.17544,0.15588 -1.53425,0.76702 -2.90861,4.95426 -0.86226,2.62706 -1.6815,5.47187 -1.82053,6.3218 l -0.25279,1.54533 h 6.2641 c 3.44526,0 6.25488,-0.18966 6.24362,-0.42145 z m -89.18221,-6.04083 c 0,-1.49678 -0.17316,-1.68581 -1.54427,-1.68581 -1.0786,0 -1.59858,0.30644 -1.72436,1.01622 -0.32303,1.82271 0.33174,2.7225 1.84362,2.53352 1.20217,-0.15026 1.42501,-0.44173 1.42501,-1.86393 z m 51.97026,0.35924 c 0,-1.51963 -0.14846,-1.62691 -2.71486,-1.9619 -1.49318,-0.1949 -3.5875,-0.35654 -4.65405,-0.35924 -1.80504,-0.004 -1.93919,0.11019 -1.93919,1.65821 v 1.66309 l 4.26621,0.18931 c 2.34642,0.10406 4.44075,0.24078 4.65406,0.30369 0.21331,0.0629 0.38783,-0.60901 0.38783,-1.49316 z m 0.51712,-4.47299 v -1.62023 l -4.76897,-0.33574 c -4.89398,-0.34455 -5.74093,-0.0556 -5.4388,1.85519 0.0968,0.61217 1.05209,0.91982 3.48989,1.12387 1.84614,0.15454 4.1129,0.35212 5.03725,0.43907 1.54114,0.14496 1.68063,0.0236 1.68063,-1.46216 z m -97.830057,-0.52224 -0.163627,-1.54531 -5.050894,-0.16096 c -4.15911,-0.13253 -5.104721,-0.009 -5.355776,0.70242 -0.761863,2.15748 0.08515,2.54918 5.512178,2.54918 h 5.221745 z m 18.834133,-36.24492 0.13557,-20.93216 4.756254,-0.16118 4.75625,-0.16119 1.96627,2.76803 c 1.08145,1.52241 4.2933,6.45957 7.13745,10.97148 2.84414,4.51189 5.34067,8.2066 5.54784,8.21044 0.20717,0.004 0.43987,-4.86079 0.51712,-10.8103 l 0.14044,-10.81728 h 4.39549 4.3955 l 0.13557,20.93216 0.13557,20.93215 h -4.09977 -4.09978 l -1.50017,-2.10727 c -0.82509,-1.159 -4.37158,-6.59574 -7.88108,-12.08164 -3.5095,-5.48591 -6.57722,-9.97438 -6.81716,-9.97438 -0.23993,0 -0.43624,5.43674 -0.43624,12.08164 v 12.08165 h -4.66035 -4.660344 z m 39.930694,20.22702 c -0.13695,-0.38781 -0.18783,-9.80727 -0.11306,-20.93215 l 0.13595,-20.22703 14.09144,-0.14951 14.09144,-0.14952 v 4.49155 4.49157 l -9.17882,0.15345 -9.17883,0.15345 v 3.37162 3.37162 l 7.90754,0.15525 7.90754,0.15525 -0.15078,4.34025 -0.15079,4.34025 -7.90935,0.15525 -7.90935,0.15527 0.15259,3.77829 0.1526,3.77831 9.3081,0.28096 9.30811,0.28097 0.15103,4.35502 0.15104,4.35501 h -14.25871 c -10.95901,0 -14.31632,-0.16318 -14.50769,-0.70513 z m 30.79136,0.276 c 0,-0.23601 3.14148,-4.83812 6.98108,-10.22691 3.83959,-5.38879 6.98108,-10.1093 6.98108,-10.49001 0,-0.38072 -3.17113,-5.19807 -7.04696,-10.70524 l -7.04696,-10.01302 5.58798,-0.16051 c 4.12712,-0.11855 5.76813,0.0352 6.27704,0.58825 0.37897,0.41182 2.25847,3.11859 4.17667,6.01504 1.9182,2.89646 3.75712,5.36391 4.08649,5.48322 0.32937,0.1193 2.05072,-1.88306 3.82522,-4.4497 5.67679,-8.21094 5.02292,-7.75727 11.18051,-7.75727 2.93314,0 5.33298,0.21017 5.33298,0.46703 0,0.25687 -3.14149,4.85126 -6.98108,10.20977 -3.8396,5.35851 -6.98108,9.96898 -6.98108,10.24549 0,0.27652 1.93077,3.20505 4.29059,6.50787 7.21069,10.09203 9.45396,13.28003 9.86023,14.01269 0.30265,0.54583 -0.9414,0.70243 -5.57991,0.70243 h -5.96941 l -4.47116,-6.50109 c -2.45914,-3.5756 -4.6358,-6.29397 -4.83702,-6.04082 -0.20122,0.25314 -1.72133,2.60966 -3.37802,5.23672 -4.90295,7.77476 -4.2158,7.30519 -10.69012,7.30519 -3.07898,0 -5.59815,-0.19311 -5.59815,-0.42913 z m 55.72732,-15.7056 -0.13724,-16.17665 -6.2054,-0.28097 -6.20541,-0.28097 v -4.4955 -4.49549 l 17.73229,-0.14789 17.73228,-0.14789 -0.1503,4.64338 -0.15031,4.64339 -6.32678,0.15771 -6.32678,0.15771 -0.13718,16.13847 -0.13718,16.13846 -4.77537,0.16146 -4.77538,0.16145 z M 55.330106,163.91871 c -0.568829,-0.14699 -2.43045,-0.55615 -4.136936,-0.90925 -10.276135,-2.12626 -18.690669,-11.14691 -21.20031,-22.72738 -1.402628,-6.47227 -0.910519,-15.70779 1.199443,-22.51046 l 1.600813,-5.16113 -1.288397,-5.51568 c -1.66007,-7.106812 -2.554088,-14.925762 -2.087679,-18.258571 0.775768,-5.543391 4.904648,-9.161794 9.978383,-8.744696 5.420551,0.445611 8.406002,4.264905 12.814787,16.393979 1.565551,4.307018 3.024333,8.019518 3.241734,8.250008 0.217401,0.23049 2.722305,-0.20044 5.566449,-0.95762 11.305533,-3.0098 18.908829,-4.264906 27.665763,-4.56688 9.16388,-0.316011 11.525624,0.04832 14.518144,2.2398 7.03306,5.15037 4.67537,15.16729 -4.254784,18.07695 -1.23643,0.40286 -3.93514,1.04054 -5.99715,1.41707 -3.95617,0.72241 -4.17638,0.97446 -3.22562,3.69189 0.83916,2.39845 -0.20731,5.42233 -2.76209,7.98135 -1.22802,1.23006 -2.533149,2.34528 -2.900271,2.47827 -0.500026,0.18111 -0.393686,0.72986 0.423851,2.18717 1.82527,3.25364 1.36573,6.19179 -1.528677,9.77407 -1.466497,1.81501 -1.590492,2.21643 -1.068876,3.46048 2.052924,4.89621 -1.326343,10.18024 -7.896661,12.34774 -2.580544,0.8513 -16.420338,1.63212 -18.661916,1.05289 z m 13.345989,-5.9257 c 4.031656,-0.67511 5.167188,-1.15166 6.950854,-2.91706 1.434561,-1.41988 1.465246,-2.31362 0.12928,-3.76538 -0.849158,-0.92276 -1.723722,-1.12388 -4.88716,-1.12388 -4.371454,0 -8.779794,0.85487 -10.497073,2.03561 -1.363436,0.93744 -1.583262,3.62953 -0.384652,4.71051 0.653455,0.58933 2.930063,1.40228 4.551814,1.62542 0.229931,0.0316 2.091553,-0.22271 4.136937,-0.56522 z m -15.58056,-2.17985 c -0.327651,-1.59605 0.488194,-4.49841 1.706895,-6.07229 1.214273,-1.56815 1.223255,-1.65666 0.415798,-4.09672 -1.136618,-3.43475 -0.56993,-6.34865 1.71823,-8.83513 l 1.783339,-1.93791 -1.048449,-2.35352 c -1.755193,-3.94 -1.309717,-6.67027 1.5912,-9.75227 2.080418,-2.21029 4.851297,-3.1674 13.390978,-4.62546 3.55518,-0.60701 10.303557,-1.76462 14.99639,-2.57247 4.69284,-0.80785 9.52236,-1.93286 10.73228,-2.50003 3.493934,-1.63782 4.087104,-5.34866 1.12137,-7.01523 -3.90624,-2.19507 -22.080188,-0.1606 -38.432727,4.30234 -9.583497,2.61552 -8.572849,3.33532 -13.756047,-9.79721 -2.417522,-6.125213 -4.901468,-11.751607 -5.519878,-12.503102 -1.453766,-1.766613 -4.250278,-1.860934 -5.641608,-0.190284 -1.475578,1.771822 -1.196034,6.16454 1.04496,16.420156 l 1.941753,8.8862 -1.039167,2.63351 c -2.552381,6.46837 -3.715383,15.46618 -2.734572,21.15665 1.214584,7.04678 4.974687,13.30931 10.138602,16.88605 4.228549,2.92885 7.98814,3.90296 7.590653,1.96672 z m 22.015792,-11.499 c 4.433265,-1.49369 5.451758,-5.03824 1.872589,-6.51698 -3.322756,-1.3728 -13.372952,0.15587 -15.534863,2.36291 -1.587219,1.62036 -1.523515,2.92815 0.215736,4.42866 1.293041,1.11555 1.844365,1.20027 6.076125,0.93374 2.55973,-0.16121 5.876415,-0.70495 7.370413,-1.20833 z m 4.41046,-13.76304 c 3.483616,-1.45669 4.896271,-3.25193 3.996508,-5.07887 -0.836473,-1.69843 -2.614564,-2.25853 -7.169967,-2.25853 -4.29503,0 -9.203102,1.14249 -11.707644,2.72527 -2.067744,1.30675 -2.410841,4.0459 -0.677925,5.41226 1.790533,1.41179 11.458248,0.91463 15.559028,-0.80013 z m 40.189393,-13.19104 c 0,-0.43791 0.93081,-3.61982 2.06847,-7.07092 1.13766,-3.45109 2.06847,-6.633 2.06847,-7.07091 0,-0.63643 -1.0896,-0.79621 -5.42973,-0.79621 h -5.42973 v -3.090649 -3.090654 h 10.39767 c 9.69943,0 10.3727,0.06603 10.02587,0.98339 -0.20449,0.540865 -1.80103,5.155773 -3.54787,10.255353 -1.74684,5.09958 -3.36344,9.58805 -3.59243,9.97438 -0.61729,1.04143 -6.56072,0.95647 -6.56072,-0.0938 z m 17.93826,0.43411 c -0.19595,-0.21294 -0.35628,-1.48293 -0.35628,-2.82222 v -2.43506 h 6.10198 c 4.0565,0 6.31,-0.22604 6.72252,-0.67432 0.3413,-0.37088 0.62054,-2.01455 0.62054,-3.65259 v -2.97827 h 2.86108 2.86108 l -0.14621,6.32179 -0.14622,6.3218 -9.0811,0.15302 c -4.99461,0.0841 -9.24143,-0.0212 -9.43739,-0.23415 z m 30.42832,-3.2606 0.35702,-3.62269 -3.03072,-0.17038 -3.03072,-0.17039 v -2.80968 -2.80969 h 9.30811 9.3081 v 2.80969 2.80968 l -3.20388,0.16651 -3.20389,0.1665 -0.35275,2.64319 c -0.55789,4.18027 -0.92137,4.60995 -3.89973,4.60995 h -2.60855 z m 18.05922,2.91519 c -0.14277,-0.40432 -0.19584,-5.27831 -0.11793,-10.8311 l 0.14167,-10.095975 2.97343,-0.168525 2.97342,-0.16853 v 7.23957 c 0,3.98176 0.11926,7.36917 0.26503,7.52756 0.14576,0.1584 2.97697,-0.16763 6.29158,-0.72452 3.31462,-0.55689 6.22049,-0.88229 6.4575,-0.72312 0.23701,0.15918 0.43093,1.4076 0.43093,2.77426 0,2.70588 0.12027,2.61513 -4.39549,3.3168 -6.42016,0.9976 -12.55891,2.03341 -13.58568,2.29238 -0.7063,0.17813 -1.2784,0.003 -1.43446,-0.4388 z m 23.714,-0.0801 c -0.23099,-0.44701 -0.35166,-5.38365 -0.26815,-10.97032 l 0.15184,-10.157579 h 2.79577 2.79578 l 0.15509,3.231139 0.15508,3.23114 6.85181,0.15679 6.8518,0.1568 v 2.77706 2.77707 l -6.8518,0.15679 -6.85181,0.1568 -0.16215,1.52876 -0.16216,1.52877 6.88468,0.15705 6.88468,0.15704 v 2.80968 2.80969 l -9.40523,0.15303 c -7.77169,0.12645 -9.47818,0.0118 -9.82523,-0.65971 z m -72.55782,-10.42647 v -2.83431 h 3.90671 3.90671 l -0.15761,2.6692 -0.15761,2.6692 -3.7491,0.16511 -3.7491,0.1651 z m 10.7116,-4.30617 c -0.20309,-0.2207 -0.36926,-1.74991 -0.36926,-3.398261 v -2.996997 h 2.09427 2.09428 l -0.15509,3.231139 c -0.15092,3.144379 -0.19724,3.235629 -1.72502,3.398249 -0.86346,0.0919 -1.7361,-0.0134 -1.93918,-0.23413 z m 5.66378,-0.0266 c -0.18961,-0.20604 -0.34475,-1.72327 -0.34475,-3.371625 v -2.997001 h 2.06847 2.06847 v 3.030533 c 0,2.245063 -0.21201,3.118933 -0.81797,3.371623 -1.08003,0.45037 -2.54411,0.43386 -2.97422,-0.0335 z m -16.37538,-3.583555 v -2.834303 l 3.7491,0.165103 3.7491,0.165102 0.15761,2.669202 0.15761,2.669201 h -3.90671 -3.90671 z m 24.82162,0.02462 V 96.24075 h 9.56667 9.56666 v 2.809685 2.809685 h -9.56666 -9.56667 z m 58.28636,1.899755 c -0.20309,-0.22069 -0.36925,-1.765165 -0.36925,-3.432168 v -3.03092 l 1.93919,0.174402 1.93919,0.174409 v 3.090654 c 0,3.030873 -0.0304,3.093883 -1.56994,3.257763 -0.86347,0.0919 -1.7361,-0.0134 -1.93919,-0.23413 z m 5.17117,0 c -0.20308,-0.22069 -0.36925,-1.749898 -0.36925,-3.39825 v -2.996995 h 2.09427 2.09428 l -0.15509,3.231137 c -0.15092,3.144378 -0.19724,3.235628 -1.72502,3.398248 -0.86347,0.0919 -1.7361,-0.0134 -1.93919,-0.23413 z"
   id="path3996" /></svg>
