<?xml version="1.0" encoding="utf-8"?>
<!-- Generator: Adobe Illustrator 16.0.0, SVG Export Plug-In . SVG Version: 6.00 Build 0)  -->
<!DOCTYPE svg PUBLIC "-//W3C//DTD SVG 1.1//EN" "http://www.w3.org/Graphics/SVG/1.1/DTD/svg11.dtd">
<svg version="1.1" id="Layer_1" xmlns="http://www.w3.org/2000/svg" xmlns:xlink="http://www.w3.org/1999/xlink" x="0px" y="0px"
	 width="280px" height="280px" viewBox="0 0 280 280" enable-background="new 0 0 280 280" xml:space="preserve">
<rect y="-0.042" fill-rule="evenodd" clip-rule="evenodd" fill="#C5302C" width="280" height="280"/>
<g>
	<g>
		<path fill-rule="evenodd" clip-rule="evenodd" fill="#F1E6E4" d="M57.195,105.351c-2.902,0.061-5.806,0.039-8.706,0.205
			c-2.893,0.167-3.311-1.848-2.405-5.293c2.024-7.694,4.043-15.391,6.03-23.105c0.683-2.649,1.76-6.162-1.466-6.286
			c-9.973-0.382-19.972-1.436-29.914,0.831c3.205,7.737,7.893,11.676,14.099,11.105c3.504-0.322,3.774,1.492,2.625,5.74
			c-6.27,23.188-12.385,46.464-18.629,69.666c-2.323,8.629-2.386,8.646,4.063,9.036l-0.085,0.106
			c0.895,0.033,1.792,0.068,2.687,0.101c2.848-0.635,3.806-3.792,4.708-7.218c3.127-11.863,6.335-23.682,9.514-35.522
			c0.215-3.698,1.556-5.389,4.13-5.309c3.864,0.119,7.733,0.146,11.597,0.019c2.817-0.094,3.915,1.133,2.723,5.406
			c-3.512,12.592-6.916,25.247-10.363,37.878l0.05-0.068c-0.723,7.327,3.327,3.317,5.145,4.61l-0.053,0.091
			c0.936,0.085,1.871,0.168,2.807,0.253c2.245-0.05,3.391-1.857,4.174-4.837c7.355-27.937,14.827-55.809,22.156-83.76
			c2.025-7.724,1.619-8.299-4.093-8.423c-2.429-0.053-4.863-0.198-7.01,1.92c-0.148,9.755-4.397,17.548-5.976,26.6
			C63.891,105.479,61.431,107.605,57.195,105.351z"/>
		<path fill-rule="evenodd" clip-rule="evenodd" fill="#F1E6E4" d="M222.117,106.511c-13.008,1.044-13.015,1.04-8.728-16.23
			c1.1-4.431,2.224-8.851,3.404-13.237c1.272-4.722,0.183-6.594-3.226-6.327c-2.681,0.209-5.535-1.14-7.752,2.303
			c-0.655,2.9-1.225,5.846-1.977,8.69c-6.978,26.394-13.957,52.789-21.019,79.134c-1.05,3.915-1.884,7.045,2.428,6.238l-0.047,0.089
			c1.543,0.104,3.085,0.208,4.628,0.313c2.703-0.136,3.735-2.761,4.607-6.057c3.066-11.574,6.269-23.07,9.419-34.599
			c0.117-4.758,1.792-6.544,5.028-6.26c3.549,0.311,7.135,0.354,10.681,0.014c4.016-0.384,3.818,2.469,2.73,6.438
			c-2.521,9.191-4.993,18.411-7.541,27.588c-3.21,11.567-3.234,11.554,5.188,12.927c3.525,0,4.31-3.938,5.31-7.708
			c6.911-26.06,13.901-52.075,20.732-78.18c0.822-3.144,3.482-7.209,0.646-9.977c-3.053-2.979-6.854-3.318-10.16,0.465
			c-2.403,9.49-5.002,18.894-7.141,28.518C228.067,106.339,225.944,108.278,222.117,106.511z"/>
		<path fill-rule="evenodd" clip-rule="evenodd" fill="#F1E6E4" d="M170.111,167.815c2.215-0.572,3.114-3.028,3.828-5.726
			c7.374-27.907,14.679-55.854,22.166-83.696c1.566-5.827,0.929-8.283-3.612-7.859c-3.035,0.283-6.188-0.55-8.535,3.327
			c-0.467,0.951-0.881,1.965-1.405,2.839c-16.188,26.979-32.424,53.899-48.529,80.984c-1.491,2.508-4.803,4.593-3.884,7.934
			c0.646,2.351,4.083,0.128,6.221,0.912c2.485,1.012,4.163-0.462,5.877-3.159c3.483-5.479,6.286-11.938,10.648-16.188
			c1.063-4.65,3.132-9.152,6.089-10.034c2.029-0.606,0.888,5.847,2.813,7.851c3.516,3.657,2.887,7.799,1.309,12.819
			c-2.451,7.797-2.241,7.997,3.92,8.426C168.215,166.329,169.213,166.728,170.111,167.815z M174.092,109.575
			c0.515,0.292,1.029,0.585,1.544,0.878c-2.151,7.921-3.903,16.152-6.631,23.626c-1.289,3.531-5.122,2.5-7.058,0.749
			c-2.286-2.072,0.65-4.303,1.44-5.863C166.767,122.297,170.492,116.004,174.092,109.575z"/>
		<path fill-rule="evenodd" clip-rule="evenodd" fill="#F1E6E4" d="M114.612,167.516c2.745-0.28,4.731-2.325,6.517-5.313
			c16.75-28.038,33.568-55.989,50.308-84.041c0.987-1.657,2.865-3.404,2.143-5.865c-0.881-2.997-3.135-1.313-4.783-1.584
			c-2.277-0.374-4.521-0.113-6.422,2.13c-6.28,12.308-13.763,23.108-20.543,34.791c-1.08,1.861-1.867,5.342-3.874,4.517
			c-1.816-0.747-1.509-4.362-2.215-6.659c-0.128-0.415-0.109-0.924-0.159-1.389c-3.622-8.856-5.709-18.714-8.607-28.044
			c-2.105-6.777-9.2-8.092-12.885-2.39c3.798,9.332,6.253,19.57,9.017,29.546c1.885,6.806,5.021,10.43,9.614,11.075
			c4.42,0.62,3.944,2.354,1.503,6.268c-8.518,13.662-17.479,26.746-25.145,41.529c-1.849,3.566-1.498,4.742,1.308,5.242
			l-0.062-0.024C111.767,166.848,113.198,166.811,114.612,167.516z"/>
		<path fill-rule="evenodd" clip-rule="evenodd" fill="#F1E6E4" d="M244.964,148.476c6.135-6.431,9.538-15.345,12.002-25.651
			c3.339-13.973,7.478-27.535,11.175-41.33c2.969-11.082,2.147-12.458-5.865-10.768c-1.281,0.27-2.558,0.304-3.675,1.388
			c-2.231,8.561-4.454,17.13-6.694,25.69c-4.104,15.682-8.096,31.429-12.395,46.996c-1.37,4.955,0.107,5.262,2.663,4.799
			C243.122,149.427,244.035,148.861,244.964,148.476z"/>
		<path fill-rule="evenodd" clip-rule="evenodd" fill="#F1E6E4" d="M89.488,131.879c-0.076-4.841,1.616-8.962,2.815-13.169
			c2.522-8.851,3.803-17.697,1.813-27.106c-4.817-6.402-4.755-6.368-7.157,2.703c-5.244,19.801-10.573,39.554-15.838,59.343
			c-3.317,12.472-3.293,12.485,5.531,13.848c3.212-1,3.861-5.111,4.893-8.692c2.228-7.732,3.653-15.963,6.745-23.165
			C88.689,134.384,89.089,133.131,89.488,131.879z"/>
		<path fill-rule="evenodd" clip-rule="evenodd" fill="#351F1E" d="M25.493,167.456c-0.895-0.032-1.792-0.067-2.688-0.101
			c-0.002,0.001,0.087-0.106,0.087-0.106c-6.448-0.391-6.386-0.407-4.063-9.036c6.245-23.202,12.359-46.479,18.629-69.666
			c1.149-4.248,0.879-6.062-2.625-5.74c-6.206,0.571-10.894-3.368-14.099-11.105c-2.337-0.012-5.25-1.202-6.262,2.969
			c-0.856,3.526,1.279,5.844,2.925,8.237c2.271,3.3,4.816,5.576,7.984,6.125c4.058,0.704,4.633,4.004,3.325,8.897
			c-4.286,16.026-8.603,32.035-12.835,48.092c-1.851,7.018-3.601,14.098-5.249,21.222c-0.903,3.904-0.07,6.566,3.092,6.545
			c3.067-0.022,6.156,0.125,9.193-0.359C25.095,173.079,26.441,171.114,25.493,167.456z"/>
		<path fill-rule="evenodd" clip-rule="evenodd" fill="#351F1E" d="M76.651,167.497c-8.824-1.362-8.848-1.376-5.531-13.848
			c5.265-19.789,10.594-39.542,15.838-59.343c2.402-9.07,2.34-9.105,7.157-2.703c2.045-2.258,5.293-2.972,4.979-8.257
			c-2.574-0.187-5.844,0.989-7.563-0.876c-2.671-2.898,1.626-6.795,0.774-10.666c-3.777-3.404-5.576-0.32-6.866,4.45
			c-6.334,23.441-12.676,46.876-19,70.323c-1.596,5.918-3.265,11.804-4.667,17.819c-1.838,7.88-1.143,9.232,4.426,9.434
			c2.102,0.075,4.22,0.143,6.309-0.138C74.989,173.36,76.911,171.894,76.651,167.497z"/>
		<path fill-rule="evenodd" clip-rule="evenodd" fill="#351F1E" d="M110.388,167.33c-2.805-0.5-3.157-1.676-1.308-5.242
			c7.666-14.783,16.627-27.868,25.145-41.529c2.441-3.915,2.917-5.648-1.503-6.268c-4.593-0.645-7.729-4.269-9.614-11.075
			c-2.763-9.977-5.219-20.215-9.017-29.546c-1.857-2.214-4.137-2.415-5.811-0.523c-1.937,2.188-0.333,5.333,0.299,7.777
			c2.163,8.352,4.351,16.714,6.916,24.811c1.809,5.711,3.798,11.502,8.403,13.887c3.213,1.666,1.901,4.491,0.605,7.163
			c-4.667,9.626-10.627,17.604-15.876,26.486c-2,3.384-4.185,6.57-5.964,10.183c-1.234,2.505-3.744,4.915-2.406,8.546
			c1.199,3.254,3.795,1.557,5.785,1.771c1.599,0.174,3.248,0.108,4.828-0.265c2.233-0.527,4.021-1.967,3.741-5.988
			c-1.414-0.705-2.846-0.668-4.287-0.211L110.388,167.33z"/>
		<path fill-rule="evenodd" clip-rule="evenodd" fill="#351F1E" d="M244.964,148.476c-0.929,0.386-1.842,0.951-2.789,1.124
			c-2.556,0.463-4.033,0.156-2.663-4.799c4.299-15.567,8.291-31.314,12.395-46.996c2.24-8.56,4.463-17.129,6.694-25.69
			c-3.866-1.765-6.073,0.638-7.464,5.875c-6.707,25.278-13.491,50.514-20.262,75.757c-1.119,4.172-2.466,8.229-3.412,12.479
			c-0.988,4.432-0.096,7.486,3.547,7.507c2.428,0.015,4.862,0.209,7.278-0.025c2.482-0.239,4.399-1.725,4.301-6.054
			c-1.755-0.203-3.511-0.633-5.257-0.559c-3.129,0.133-3.041-1.573-2.516-5.592c1.198-9.178,5.89-8.176,10.227-8.694
			C245.017,151.364,244.99,149.919,244.964,148.476z"/>
		<path fill-rule="evenodd" clip-rule="evenodd" fill="#351F1E" d="M185.249,167.082c-4.312,0.807-3.478-2.323-2.428-6.238
			c7.062-26.346,14.041-52.74,21.019-79.134c0.752-2.844,1.321-5.79,1.977-8.69c-3.584-3.604-5.553-0.082-6.79,3.916
			c-2.724,8.795-5.124,17.808-7.574,26.78c-5.31,19.441-10.584,38.904-15.838,58.377c-2.357,8.738-0.964,11.725,5.504,11.736
			c2.091,0.003,4.205-0.233,6.265-0.733c2.073-0.503,3.105-2.373,2.444-5.613c-1.54-0.104-3.082-0.207-4.625-0.312L185.249,167.082z
			"/>
		<path fill-rule="evenodd" clip-rule="evenodd" fill="#351F1E" d="M136.361,166.53c-2.139-0.784-5.575,1.438-6.221-0.912
			c-0.919-3.341,2.393-5.426,3.884-7.934c16.105-27.085,32.34-54.005,48.529-80.984c0.524-0.874,0.938-1.888,1.405-2.839
			c-2.906-3.347-4.823-0.433-6.567,2.429c-10.629,17.443-21.438,34.668-31.71,52.55c-6.326,11.014-13.723,20.426-20.243,31.101
			c-2.155,3.527-4.864,7.995-3.471,12.155c1.284,3.835,5.338,1.724,8.134,1.693C133.219,173.756,136.455,172.924,136.361,166.53z"/>
		<path fill-rule="evenodd" clip-rule="evenodd" fill="#351F1E" d="M52.997,167.252c-1.818-1.293-5.868,2.717-5.145-4.61
			c0.001,0.001-0.05,0.068-0.05,0.068c3.447-12.631,6.851-25.286,10.363-37.878c1.192-4.273,0.094-5.5-2.723-5.406
			c-3.864,0.127-7.733,0.1-11.597-0.019c-2.574-0.08-3.915,1.611-4.13,5.309c1.438,2.792,3.521,1.794,5.382,1.863
			c5.641,0.207,5.919,0.619,3.931,8.581c-2.261,9.057-4.688,18.026-7.059,27.025c-2.651,10.063-2.032,11.451,5.256,11.596
			c1.772,0.034,3.576,0.29,5.312-0.082c2.254-0.484,4.075-1.914,3.212-6.104c-0.932-0.084-1.868-0.167-2.804-0.252
			C52.943,167.344,52.997,167.252,52.997,167.252z"/>
		<path fill-rule="evenodd" clip-rule="evenodd" fill="#351F1E" d="M219.943,167.534c-8.423-1.373-8.398-1.359-5.188-12.927
			c2.548-9.177,5.021-18.396,7.541-27.588c1.088-3.969,1.285-6.822-2.73-6.438c-3.546,0.34-7.132,0.297-10.681-0.014
			c-3.236-0.284-4.911,1.502-5.028,6.26c0.941,0.172,1.888,0.536,2.825,0.482c8.23-0.472,9.307,1.745,5.793,12.78
			c-2.783,8.748-4.924,17.823-7.045,26.929c-1.117,4.794,0.305,6.651,3.357,6.755c2.732,0.093,5.489,0.232,8.197-0.183
			C219.243,173.246,221.131,171.805,219.943,167.534z"/>
		<path fill-rule="evenodd" clip-rule="evenodd" fill="#351F1E" d="M170.111,167.815c-0.898-1.088-1.896-1.486-3.094-1.57
			c-6.161-0.429-6.371-0.629-3.92-8.426c1.578-5.021,2.207-9.162-1.309-12.819c-1.926-2.004-0.784-8.457-2.813-7.851
			c-2.957,0.882-5.025,5.384-6.089,10.034c3.866,4.883,4.43,10.216,2.363,17.311c-2.214,7.604-0.874,9.925,4.934,9.205
			C163.727,173.261,168.701,176.44,170.111,167.815z"/>
		<path fill-rule="evenodd" clip-rule="evenodd" fill="#351F1E" d="M89.488,131.879c-0.399,1.252-0.798,2.505-1.199,3.761
			c-0.075,4.358,1.412,6.377,4.366,6.367c4.482-0.014,8.964,0.132,13.446,0.063c2.744-0.043,4.634-1.706,4.647-6.22
			c-1.89-0.253-3.777-0.667-5.669-0.73c-7.993-0.265-7.993-0.227-5.565-11.116c-3.022-3.426-4.742,0.174-6.818,2.506
			C91.346,128.025,91.704,131.583,89.488,131.879z"/>
		<path fill-rule="evenodd" clip-rule="evenodd" fill="#351F1E" d="M135.583,104.103c0.05,0.465,0.031,0.974,0.159,1.389
			c0.706,2.297,0.398,5.912,2.215,6.659c2.007,0.825,2.794-2.656,3.874-4.517c6.78-11.683,14.263-22.483,20.543-34.791
			c-3.526-3.32-5.478,0.948-7.338,3.758c-4.909,7.422-9.507,15.279-14.301,22.869C139.347,101.671,138.011,104.249,135.583,104.103z
			"/>
		<path fill-rule="evenodd" clip-rule="evenodd" fill="#351F1E" d="M57.195,105.351c4.236,2.255,6.696,0.128,7.808-6.254
			c1.579-9.052,5.827-16.845,5.976-26.6c-2.828-2.864-4.72-1.47-5.871,2.853C62.448,85.337,59.83,95.349,57.195,105.351z"/>
		<path fill-rule="evenodd" clip-rule="evenodd" fill="#351F1E" d="M222.117,106.511c3.827,1.767,5.95-0.172,7.214-5.859
			c2.139-9.624,4.737-19.028,7.141-28.518c-3.473-2.466-5.992,0.536-7.073,4.316C226.599,86.246,223.537,95.978,222.117,106.511z"/>
		<path fill-rule="evenodd" clip-rule="evenodd" fill="#F1E6E4" d="M99.514,124.004c-2.428,10.889-2.428,10.851,5.565,11.116
			c1.892,0.063,3.779,0.477,5.669,0.73c0.792-0.763,1.941-1.266,2.31-2.339c1.042-3.037,3.221-6.225,2.069-9.563
			c-1.018-2.95-3.79-1.697-5.764-1.598C106.066,122.514,102.602,121.086,99.514,124.004z"/>
		<path fill-rule="evenodd" clip-rule="evenodd" fill="#F1E6E4" d="M245.043,152.808c-4.337,0.519-9.028-0.483-10.227,8.694
			c-0.525,4.019-0.613,5.725,2.516,5.592c1.746-0.074,3.502,0.355,5.257,0.559c4.144-1.33,4.349-6.676,5.16-11.181
			C248.274,153.556,246.331,153.45,245.043,152.808z"/>
		<path fill-rule="evenodd" clip-rule="evenodd" fill="#F1E6E4" d="M92.305,71.804c0.852,3.871-3.446,7.768-0.774,10.666
			c1.719,1.866,4.989,0.689,7.563,0.876c3.952-0.568,3.969-5.505,4.702-9.397c0.495-2.621-1.101-3.095-2.43-3.132
			C98.33,70.733,95.241,69.875,92.305,71.804z"/>
		<path fill-rule="evenodd" clip-rule="evenodd" fill="#C5302C" d="M22.891,167.249c0,0-0.089,0.107-0.087,0.106
			C22.806,167.355,22.891,167.249,22.891,167.249z"/>
		<path fill-rule="evenodd" clip-rule="evenodd" fill="#C5302C" d="M52.997,167.252c0,0-0.054,0.092-0.053,0.091
			C52.944,167.343,52.997,167.252,52.997,167.252z"/>
		<path fill-rule="evenodd" clip-rule="evenodd" fill="#C5302C" d="M47.802,162.71c0,0,0.052-0.067,0.05-0.068
			C47.852,162.642,47.802,162.71,47.802,162.71z"/>
		<path fill-rule="evenodd" clip-rule="evenodd" fill="#C5302C" d="M185.249,167.082l-0.047,0.089L185.249,167.082z"/>
		<path fill-rule="evenodd" clip-rule="evenodd" fill="#351F1E" d="M174.092,109.575c-3.6,6.429-7.325,12.723-10.704,19.39
			c-0.79,1.56-3.727,3.791-1.44,5.863c1.936,1.751,5.769,2.783,7.058-0.749c2.728-7.474,4.479-15.705,6.631-23.626
			C175.121,110.16,174.606,109.867,174.092,109.575z"/>
		<path fill-rule="evenodd" clip-rule="evenodd" fill="#C5302C" d="M110.388,167.33l-0.062-0.025
			C110.326,167.306,110.388,167.33,110.388,167.33z"/>
	</g>
</g>
</svg>
