<?xml version="1.0" encoding="UTF-8" standalone="no"?>
<!-- Generator: Adobe Illustrator 16.0.0, SVG Export Plug-In . SVG Version: 6.00 Build 0)  -->

<svg
   version="1.1"
   id="Layer_1"
   x="0px"
   y="0px"
   width="280px"
   height="280px"
   viewBox="0 0 280 280"
   enable-background="new 0 0 280 280"
   xml:space="preserve"
   sodipodi:docname="ion.svg"
   inkscape:version="1.2.2 (732a01da63, 2022-12-09)"
   xmlns:inkscape="http://www.inkscape.org/namespaces/inkscape"
   xmlns:sodipodi="http://sodipodi.sourceforge.net/DTD/sodipodi-0.dtd"
   xmlns="http://www.w3.org/2000/svg"
   xmlns:svg="http://www.w3.org/2000/svg"><defs
   id="defs216276">
	
	
	
</defs><sodipodi:namedview
   id="namedview216274"
   pagecolor="#ffffff"
   bordercolor="#666666"
   borderopacity="1.0"
   inkscape:pageshadow="2"
   inkscape:pageopacity="0.0"
   inkscape:pagecheckerboard="0"
   showgrid="false"
   inkscape:zoom="1.0505587"
   inkscape:cx="-109.9415"
   inkscape:cy="130.4068"
   inkscape:window-width="1920"
   inkscape:window-height="1001"
   inkscape:window-x="-9"
   inkscape:window-y="-9"
   inkscape:window-maximized="1"
   inkscape:current-layer="layer1"
   inkscape:showpageshadow="2"
   inkscape:deskcolor="#d1d1d1" />
<g
   inkscape:groupmode="layer"
   id="layer2"
   inkscape:label="BG"><rect
     y="0"
     fill-rule="evenodd"
     clip-rule="evenodd"
     fill="#164E86"
     width="280"
     height="280"
     id="rect4994-7"
     style="fill:#818183;fill-opacity:1;stroke:none;stroke-width:0.999999;stroke-opacity:1"
     x="0" /></g>
<g
   inkscape:groupmode="layer"
   id="layer1"
   inkscape:label="Logo"><path
     style="fill:#ffffff;stroke-width:0.217246"
     d="m 32.541035,209.26793 c -0.873319,-0.25838 -1.973094,-1.50545 -2.13728,-2.42351 -0.06987,-0.39087 -0.09911,-19.1559 -0.06508,-41.70005 l 0.06211,-40.98935 0.447892,-0.59992 c 0.246377,-0.32996 0.717921,-0.80149 1.047861,-1.04783 0.586176,-0.43765 0.835956,-0.44793 10.887268,-0.44793 10.051313,0 10.301092,0.01 10.887286,0.44793 0.329972,0.24634 0.801517,0.71789 1.047861,1.04784 l 0.447924,0.59996 v 41.53244 c 0,40.30567 -0.01156,41.55026 -0.408877,42.13549 -0.224838,0.33169 -0.713643,0.82048 -1.086231,1.08624 -0.674199,0.48094 -0.723339,0.48337 -10.562087,0.52212 -5.599189,0.0221 -10.181273,-0.0489 -10.568677,-0.16336 z m 72.918415,0.002 C 98.862147,208.54 91.639657,205.98501 86.269055,202.48085 65.723064,189.0752 59.952323,161.52469 73.440471,141.2348 c 11.875551,-17.86411 34.938979,-24.61223 54.418589,-15.9223 8.13986,3.63122 15.217,9.86639 19.88154,17.51627 7.13635,11.70362 8.31113,27.10721 3.01429,39.52292 -6.09313,14.28224 -18.51293,24.06487 -33.78136,26.6084 -2.49948,0.41638 -8.97382,0.59041 -11.51408,0.30949 z m 9.48698,-22.80708 c 2.2683,-0.52728 5.23513,-1.80673 7.16591,-3.09032 1.74989,-1.16331 4.81012,-4.26104 6.01729,-6.09101 2.61699,-3.96719 3.84416,-8.8857 3.37967,-13.54605 -0.52182,-5.23641 -2.39905,-9.37965 -5.9059,-13.035 -4.72047,-4.92036 -10.537,-7.08951 -17.5289,-6.53703 -9.13363,0.72172 -16.948458,7.60891 -19.043337,16.78279 -0.60613,2.65433 -0.512954,6.94991 0.210963,9.72773 3.00087,11.51464 14.282034,18.44409 25.704304,15.78889 z m 52.10241,22.88197 c -0.71587,-0.1845 -1.61182,-0.92047 -2.0128,-1.65341 -0.34993,-0.63959 -0.38161,-2.36136 -0.44221,-24.04292 -0.0677,-24.22618 -0.0116,-26.29063 0.83805,-30.46909 2.45784,-12.0968 10.92014,-22.85505 22.25535,-28.29356 3.95179,-1.89602 8.14011,-3.17181 12.60031,-3.83811 2.73622,-0.40877 9.19486,-0.35849 12.05716,0.0938 17.98999,2.84311 31.71622,16.27457 34.68384,33.93896 0.37424,2.22762 0.40148,4.07962 0.40148,27.30272 0,24.82303 0,24.91516 -0.44794,25.51303 -0.24634,0.33003 -0.71774,0.8016 -1.04755,1.04795 -0.58203,0.43476 -0.89036,0.44977 -10.49134,0.51065 -9.65287,0.0613 -9.9143,0.0519 -10.82868,-0.39083 -1.88795,-0.91394 -1.71857,1.40429 -1.84858,-25.30698 l -0.1153,-23.67986 -0.49706,-1.62935 c -1.50905,-4.94659 -5.07418,-8.87628 -9.80893,-10.81201 -2.0486,-0.83755 -3.88093,-1.17133 -6.40147,-1.16618 -3.37689,0.007 -6.65838,0.96886 -9.31063,2.72932 -1.08471,0.72 -3.33258,2.86148 -4.24075,4.04006 -0.76171,0.98853 -1.94262,3.33322 -2.45922,4.88293 l -0.50698,1.52073 -0.10885,23.827 c -0.10802,23.64133 -0.11232,23.83166 -0.55677,24.4268 -0.24635,0.32989 -0.71776,0.80137 -1.0476,1.04772 -0.58342,0.43575 -0.86645,0.4488 -10.4144,0.48021 -5.39811,0.0178 -10.01025,-0.018 -10.2492,-0.0796 z M 31.81279,109.51336 c -0.393879,-0.26884 -0.89907,-0.83096 -1.122702,-1.24916 -0.38268,-0.71571 -0.403129,-1.33678 -0.34791,-10.575064 0.05682,-9.526568 0.07169,-9.832304 0.506529,-10.414408 0.246377,-0.329835 0.717921,-0.801266 1.047861,-1.047621 0.585681,-0.437264 0.838549,-0.447916 10.631642,-0.447916 h 10.031723 l 0.709315,0.505933 c 1.496727,1.06753 1.463163,0.799147 1.463163,11.698315 0,9.618051 -0.0099,9.826811 -0.454482,10.427831 -0.249961,0.33731 -0.777649,0.83325 -1.172651,1.10209 l -0.718235,0.48881 h -9.929066 -9.929082 z"
     id="path210" /></g></svg>
