<?xml version="1.0" encoding="utf-8"?>
<!-- Generator: Adobe Illustrator 16.0.0, SVG Export Plug-In . SVG Version: 6.00 Build 0)  -->
<!DOCTYPE svg PUBLIC "-//W3C//DTD SVG 1.1//EN" "http://www.w3.org/Graphics/SVG/1.1/DTD/svg11.dtd">
<svg version="1.1" id="Layer_1" xmlns="http://www.w3.org/2000/svg" xmlns:xlink="http://www.w3.org/1999/xlink" x="0px" y="0px"
	 width="280px" height="280px" viewBox="0 0 280 280" enable-background="new 0 0 280 280" xml:space="preserve">
<rect y="-0.042" fill-rule="evenodd" clip-rule="evenodd" fill="#164E86" width="280" height="280"/>
<g>
	<path fill-rule="evenodd" clip-rule="evenodd" fill="#FDFDFE" d="M246.102,121.071c0.074,13.103-3.277,25.104-11.836,35.358
		c-8.247,9.881-18.898,14.924-31.869,15.363c-12.97,0.438-24.195-3.42-33.231-12.811c-6.685-6.947-10.92-15.202-12.743-24.591
		c-2.394-12.323-1.93-24.53,3.238-36.125c6.597-14.8,17.516-24.879,34.213-27.099c19.391-2.578,35.695,4.478,45.803,22.745
		C244.386,102.425,246.093,110.488,246.102,121.071z M219.748,121.559c-0.133-7.138-1.172-13.886-5.076-19.893
		c-3.064-4.713-7.197-7.869-13.082-8.181c-7.807-0.414-12.9,3.612-16.277,10.1c-3.516,6.756-4.117,14.059-3.568,21.498
		c0.464,6.288,2.113,12.194,6.061,17.307c6.837,8.856,19.317,8.813,26.006-0.118C218.461,136.061,219.58,128.856,219.748,121.559z"
		/>
	<path fill-rule="evenodd" clip-rule="evenodd" fill="#FAFAFA" d="M45.766,146.635c-4.374-6.756-4.666-11.727-1.071-16.556
		c3.613-4.852,8.475-5.949,16.55-3.735c0.865-8.565,3.83-12.69,10.188-14.176c5.63-1.316,10.715,1.19,14.512,7.235
		c3.537-6.117,8.763-9.007,15.679-6.862c6.572,2.039,9.214,7.152,8.91,14.029c4.369-2.098,8.626-2.114,13.033,0.114
		c-0.234-7.884,0.459-15.533-0.396-23.14c-0.608-5.411-4.207-7.485-9.429-5.815c-1.705,0.545-3.298-0.389-3.655-2.054
		c-0.15-0.702,0.389-0.787,0.726-1.035c10.521-7.743,21.053-15.47,31.574-23.215c1.507-1.109,3.193-0.512,4.807-0.591
		c0.524-0.025,0.645,0.412,0.643,0.862c-0.002,0.546,0.007,1.092,0.007,1.639c0,27.517-0.001,55.034,0.004,82.552
		c0.001,1.501,0.034,3.004,0.097,4.505c0.206,4.953,2.594,7.85,7.522,8.824c1.192,0.236,1.456,0.648,1.39,1.7
		c-0.084,1.313-1.061,0.836-1.688,0.837c-36.28,0.021-72.559,0.031-108.838,0.004c-6.501-0.005-12.083-5.339-12.413-11.675
		C33.552,153.064,38.355,147.545,45.766,146.635z M78.551,160.402c1.852-11.749,3.596-22.916,5.378-34.077
		c0.669-4.192-1.133-8.178-4.758-10.295c-3.569-2.086-8.186-1.711-11.405,0.926c-3.167,2.594-4.34,6.906-2.871,10.916
		c0.795,2.17,1.729,4.292,2.627,6.424C71.114,142.814,74.717,151.33,78.551,160.402z M76.763,163.76
		c-0.618-1.527-1.226-3.085-1.874-4.625c-3.542-8.427-7.034-16.875-10.667-25.264c-2.195-5.068-7.458-7.386-12.414-5.667
		c-3.707,1.287-6.024,3.882-6.641,7.682c-0.658,4.052,0.809,7.416,4.247,9.778c8.729,5.998,17.496,11.945,26.251,17.908
		C75.925,163.748,76.165,164.062,76.763,163.76z M95.512,164.061c1.118-0.748,2.248-1.493,3.366-2.255
		c7.842-5.345,15.719-10.642,23.511-16.059c5.069-3.524,6.009-10.115,2.235-14.519c-4.882-5.698-13.814-4.479-16.87,2.489
		c-4.22,9.625-8.182,19.359-12.251,29.049C95.351,163.13,95.091,163.494,95.512,164.061z M93.37,160.36
		c1.381-3.265,2.574-6.064,3.752-8.87c3.304-7.86,6.724-15.676,9.86-23.602c2.165-5.47-0.823-11.086-6.464-12.823
		c-5.174-1.594-10.837,1.547-12.322,6.834c-0.765,2.722-0.705,2.799,2.205,2.802c0.553,0,1.105-0.012,1.658,0.006
		c0.966,0.031,2.299-0.063,2.593,0.835c0.33,1.005-1.1,1.144-1.779,1.575c-2.42,1.537-4.224,3.408-3.746,6.495
		C90.48,142.354,91.895,151.088,93.37,160.36z M93.787,168.565c0.041,0.144,0.082,0.286,0.123,0.429
		c10.548,0,21.096,0.063,31.643-0.029c4.37-0.039,7.836-2.746,9.158-6.727c1.276-3.843-0.018-8.139-3.218-10.691
		c-3.269-2.605-7.781-3.049-11.394-0.674C111.267,156.678,102.55,162.656,93.787,168.565z M78.476,168.827
		c-8.706-5.896-17.005-11.517-25.306-17.136c-0.397-0.27-0.797-0.538-1.21-0.783c-1.943-1.148-4.027-1.809-6.306-1.481
		c-5.604,0.805-9.221,5.075-8.907,10.448c0.302,5.174,4.455,9.071,10.053,9.12c10.142,0.089,20.287,0.023,30.43,0.017
		C77.481,169.012,77.733,168.939,78.476,168.827z"/>
	<path fill-rule="evenodd" clip-rule="evenodd" fill="#F9FAFD" d="M52.977,196.988c0-3.271,0.041-6.545-0.023-9.816
		c-0.021-1.101,0.226-1.541,1.455-1.521c4.759,0.077,9.521,0.036,14.281,0.063c1.319,0.008,2.604,0.285,3.833,0.754
		c3.852,1.467,4.973,6.061,2.113,8.984c-0.764,0.78-0.84,0.96,0.059,1.732c4.045,3.473,2.874,9.116-2.164,10.898
		c-1.657,0.586-3.377,0.644-5.102,0.648c-4.208,0.014-8.418-0.051-12.625,0.037c-1.394,0.029-1.917-0.268-1.864-1.76
		C53.058,203.673,52.977,200.33,52.977,196.988z M63.703,204.982c0-0.029,0-0.06,0-0.089c1.857,0,3.726,0.13,5.567-0.038
		c1.776-0.161,3.197-1.006,3.189-3.062c-0.008-2.037-1.364-2.818-3.184-3.059c-3.564-0.47-7.148-0.106-10.72-0.228
		c-0.844-0.029-0.984,0.383-1.055,1.111c-0.521,5.365-0.537,5.363,4.758,5.363C62.74,204.982,63.222,204.982,63.703,204.982z
		 M63.799,194.742c1.771-0.186,3.93,0.349,6.021-0.365c1.102-0.377,1.748-1.133,1.751-2.268c0.004-1.135-0.625-1.965-1.735-2.273
		c-0.853-0.236-1.754-0.384-2.639-0.412c-1.93-0.061-3.864-0.021-5.796-0.021c-4.2,0-4.166-0.002-3.907,4.198
		c0.055,0.891,0.304,1.188,1.198,1.156C60.276,194.702,61.865,194.742,63.799,194.742z"/>
	<path fill-rule="evenodd" clip-rule="evenodd" fill="#F6F7FC" d="M221.793,202.303c0-5.41,0.092-10.257-0.048-15.098
		c-0.053-1.83,0.999-1.576,2.065-1.516c1.089,0.062,2.508-0.613,2.465,1.581c-0.122,6.208-0.017,12.42-0.071,18.63
		c-0.008,0.927,0.603,2.469-0.522,2.686c-1.547,0.299-3.326,0.721-4.771-0.894c-3.295-3.678-6.742-7.222-10.133-10.816
		c-1.529-1.621-3.07-3.231-5.068-4.671c0,1.189,0,2.379,0,3.568c0,3.549,0.027,7.098-0.021,10.646
		c-0.01,0.755,0.482,1.927-0.395,2.196c-1.069,0.33-2.327,0.158-3.49,0.055c-0.675-0.061-0.432-0.754-0.434-1.181
		c-0.015-6.825,0.012-13.649-0.033-20.474c-0.007-1.093,0.373-1.288,1.416-1.383c2.373-0.215,4.075,0.463,5.707,2.325
		C212.646,192.734,217.096,197.285,221.793,202.303z"/>
	<path fill-rule="evenodd" clip-rule="evenodd" fill="#F6F7FB" d="M124.272,209.221c-1.495-0.015-4.103-0.134-6.553-1.271
		c-1.202-0.558-2.335-1.198-3.246-2.147c-0.799-0.834-2.131-1.884-1.682-2.843c0.548-1.171,2.365-1.034,3.619-1.495
		c0.634-0.233,0.798,0.393,1.029,0.773c2.328,3.85,10.871,3.852,13.715,1.924c1.787-1.211,1.609-3.053-0.455-3.939
		c-2.376-1.02-4.982-1.014-7.497-1.396c-2.252-0.344-4.511-0.635-6.567-1.695c-2.066-1.067-3.25-2.722-3.275-5.066
		c-0.026-2.385,0.916-4.455,3.142-5.348c5.749-2.305,11.522-2.389,17.112,0.646c0.417,0.227,0.8,0.553,1.122,0.901
		c0.783,0.851,2.081,1.933,1.572,2.876c-0.556,1.032-2.315,0.949-3.526,1.415c-0.536,0.206-0.686-0.331-0.877-0.657
		c-0.943-1.609-2.448-2.355-4.211-2.668c-2.608-0.465-5.226-0.585-7.773,0.281c-0.991,0.338-1.88,0.918-1.897,2.166
		c-0.018,1.336,0.995,1.773,2.007,1.973c2.837,0.559,5.698,1,8.552,1.477c1.498,0.25,2.967,0.58,4.378,1.168
		c2.446,1.018,3.989,2.73,4.063,5.407c0.077,2.778-1.258,4.801-3.758,6.103C130.789,209.095,128.112,209.217,124.272,209.221z"/>
	<path fill-rule="evenodd" clip-rule="evenodd" fill="#F6F7FC" d="M95.021,209.262c-4.683-0.001-8.974-0.961-11.78-5.088
		c-2.785-4.094-2.841-8.52-0.721-12.82c2.068-4.196,5.884-5.969,10.49-6.058c2.402-0.047,4.818-0.246,7.205,0.383
		c5.942,1.567,9.252,6.413,8.716,12.868c-0.466,5.607-4.856,9.972-10.604,10.518C97.229,209.169,96.123,209.197,95.021,209.262z
		 M94.904,205.397c4.823,0.02,8.144-1.994,9.106-5.521c1.509-5.533-1.238-9.778-6.961-10.757c-5.109-0.873-9.681,1.324-10.896,5.236
		C84.225,200.56,88.038,205.369,94.904,205.397z"/>
	<path fill-rule="evenodd" clip-rule="evenodd" fill="#F6F7FC" d="M182.137,185.192c1.373,0.083,2.779,0.013,4.117,0.275
		c6.537,1.284,10.203,6.126,9.709,12.685c-0.477,6.336-4.845,10.539-11.441,10.966c-2.894,0.187-5.779,0.259-8.584-0.741
		c-5.6-1.996-8.564-7.18-7.611-13.381c0.863-5.607,5.465-9.559,11.322-9.713c0.826-0.021,1.655-0.002,2.483-0.002
		C182.133,185.251,182.135,185.221,182.137,185.192z M182.096,205.397c4.672-0.005,8.025-2.047,8.965-5.458
		c1.52-5.52-1.224-9.809-6.913-10.807c-5.001-0.877-9.566,1.209-10.878,4.973C171.079,200.391,174.998,205.405,182.096,205.397z"/>
	<path fill-rule="evenodd" clip-rule="evenodd" fill="#F8F9FC" d="M152.879,185.678c3.73,0,7.463,0.08,11.189-0.039
		c1.565-0.049,1.666,0.688,1.592,1.844c-0.066,1.051,0.311,2.223-1.562,2.104c-2.339-0.146-4.7,0.06-7.042-0.066
		c-1.604-0.086-1.971,0.51-1.945,1.996c0.082,5.117-0.081,10.24,0.086,15.354c0.066,2.072-1.027,1.861-2.393,1.898
		c-1.471,0.039-2.401,0.014-2.34-1.969c0.158-5.182,0.01-10.373,0.082-15.559c0.018-1.332-0.358-1.78-1.731-1.718
		c-2.344,0.106-4.702-0.081-7.042,0.065c-1.658,0.104-1.743-0.693-1.699-1.945c0.041-1.134-0.155-2.074,1.617-2.008
		C145.416,185.775,149.149,185.678,152.879,185.678z"/>
	<path fill-rule="evenodd" clip-rule="evenodd" fill="#CA242B" d="M78.551,160.402c-3.834-9.072-7.437-17.588-11.029-26.106
		c-0.899-2.132-1.832-4.254-2.627-6.424c-1.469-4.01-0.295-8.322,2.871-10.916c3.219-2.637,7.836-3.012,11.405-0.926
		c3.625,2.118,5.427,6.104,4.758,10.295C82.147,137.486,80.403,148.653,78.551,160.402z"/>
	<path fill-rule="evenodd" clip-rule="evenodd" fill="#F27225" d="M76.763,163.76c-0.598,0.302-0.838-0.012-1.097-0.188
		c-8.755-5.963-17.521-11.91-26.251-17.908c-3.438-2.362-4.905-5.727-4.247-9.778c0.617-3.799,2.934-6.395,6.641-7.682
		c4.956-1.719,10.219,0.599,12.414,5.667c3.633,8.389,7.124,16.837,10.667,25.264C75.537,160.675,76.145,162.232,76.763,163.76z"/>
	<path fill-rule="evenodd" clip-rule="evenodd" fill="#2177BD" d="M95.512,164.061c-0.421-0.566-0.162-0.931-0.009-1.295
		c4.07-9.689,8.032-19.424,12.251-29.049c3.055-6.968,11.987-8.187,16.87-2.489c3.774,4.404,2.834,10.995-2.235,14.519
		c-7.792,5.417-15.668,10.714-23.511,16.059C97.76,162.567,96.63,163.313,95.512,164.061z"/>
	<path fill-rule="evenodd" clip-rule="evenodd" fill="#6458A6" d="M93.37,160.36c-1.476-9.272-2.89-18.006-4.243-26.748
		c-0.478-3.087,1.326-4.958,3.746-6.495c0.679-0.431,2.109-0.57,1.779-1.575c-0.294-0.898-1.627-0.804-2.593-0.835
		c-0.553-0.018-1.105-0.005-1.658-0.006c-2.91-0.003-2.97-0.08-2.205-2.802c1.485-5.287,7.148-8.428,12.322-6.834
		c5.641,1.737,8.628,7.353,6.464,12.823c-3.136,7.925-6.556,15.741-9.86,23.602C95.944,154.296,94.751,157.096,93.37,160.36z"/>
	<path fill-rule="evenodd" clip-rule="evenodd" fill="#32A94A" d="M93.787,168.565c8.763-5.909,17.48-11.888,26.312-17.692
		c3.612-2.375,8.125-1.932,11.394,0.674c3.201,2.553,4.494,6.849,3.218,10.691c-1.322,3.98-4.788,6.688-9.158,6.727
		c-10.547,0.092-21.095,0.029-31.643,0.029C93.868,168.852,93.828,168.709,93.787,168.565z"/>
	<path fill-rule="evenodd" clip-rule="evenodd" fill="#F5B21D" d="M78.476,168.827c-0.742,0.112-0.994,0.185-1.246,0.185
		c-10.144,0.007-20.288,0.072-30.43-0.017c-5.599-0.049-9.751-3.946-10.053-9.12c-0.313-5.373,3.303-9.644,8.907-10.448
		c2.278-0.327,4.362,0.333,6.306,1.481c0.414,0.245,0.813,0.514,1.21,0.783C61.47,157.311,69.77,162.932,78.476,168.827z"/>
</g>
</svg>
