<?xml version="1.0" encoding="utf-8"?>
<!-- Generator: Adobe Illustrator 16.0.0, SVG Export Plug-In . SVG Version: 6.00 Build 0)  -->
<!DOCTYPE svg PUBLIC "-//W3C//DTD SVG 1.1//EN" "http://www.w3.org/Graphics/SVG/1.1/DTD/svg11.dtd">
<svg version="1.1" id="Layer_1" xmlns="http://www.w3.org/2000/svg" xmlns:xlink="http://www.w3.org/1999/xlink" x="0px" y="0px"
	 width="280px" height="280px" viewBox="0 0 280 280" enable-background="new 0 0 280 280" xml:space="preserve">
<rect y="-0.042" fill-rule="evenodd" clip-rule="evenodd" fill="#164E86" width="280" height="280"/>
<g>
	<path fill-rule="evenodd" clip-rule="evenodd" fill="#FDFDFE" d="M260.828,127.21c0.079,14.699-3.505,28.163-12.657,39.667
		c-8.819,11.085-20.21,16.742-34.081,17.235c-13.87,0.49-25.874-3.837-35.537-14.372c-7.148-7.794-11.678-17.055-13.628-27.587
		c-2.56-13.824-2.063-27.519,3.463-40.526c7.055-16.604,18.731-27.911,36.587-30.401c20.736-2.892,38.173,5.024,48.981,25.517
		C258.993,106.292,260.818,115.336,260.828,127.21z M232.646,127.757c-0.142-8.008-1.253-15.578-5.429-22.316
		c-3.276-5.287-7.696-8.828-13.989-9.178c-8.349-0.464-13.796,4.052-17.407,11.331c-3.76,7.579-4.403,15.772-3.816,24.117
		c0.496,7.054,2.261,13.68,6.481,19.416c7.312,9.936,20.658,9.888,27.811-0.133C231.27,144.025,232.466,135.943,232.646,127.757z"/>
	<path fill-rule="evenodd" clip-rule="evenodd" fill="#FAFAFA" d="M46.589,155.889c-4.678-7.579-4.99-13.156-1.145-18.574
		c3.863-5.442,9.063-6.673,17.698-4.19c0.925-9.608,4.095-14.236,10.896-15.903c6.021-1.477,11.458,1.335,15.519,8.117
		c3.782-6.862,9.372-10.104,16.768-7.698c7.028,2.287,9.853,8.023,9.528,15.738c4.672-2.354,9.225-2.372,13.937,0.127
		c-0.25-8.844,0.491-17.426-0.423-25.959c-0.65-6.07-4.499-8.397-10.083-6.524c-1.823,0.612-3.527-0.437-3.908-2.304
		c-0.161-0.788,0.416-0.882,0.776-1.162c11.25-8.687,22.514-17.355,33.765-26.043c1.611-1.245,3.415-0.575,5.14-0.663
		c0.561-0.029,0.689,0.462,0.688,0.967c-0.002,0.612,0.007,1.225,0.007,1.838c0,30.87-0.001,61.74,0.005,92.611
		c0.001,1.684,0.036,3.37,0.103,5.054c0.221,5.557,2.774,8.806,8.045,9.899c1.275,0.265,1.557,0.728,1.486,1.907
		c-0.09,1.473-1.135,0.938-1.805,0.939c-38.798,0.022-77.595,0.034-116.392,0.004c-6.952-0.006-12.922-5.989-13.274-13.098
		C33.528,163.102,38.665,156.909,46.589,155.889z M81.65,171.333c1.98-13.181,3.846-25.708,5.751-38.229
		c0.715-4.703-1.212-9.174-5.088-11.55c-3.817-2.34-8.754-1.919-12.197,1.039c-3.386,2.91-4.642,7.747-3.07,12.246
		c0.851,2.435,1.848,4.815,2.81,7.207C73.697,151.603,77.55,161.155,81.65,171.333z M79.737,175.1
		c-0.661-1.713-1.311-3.461-2.003-5.188c-3.788-9.453-7.522-18.931-11.407-28.342c-2.347-5.686-7.976-8.286-13.275-6.357
		c-3.964,1.443-6.442,4.355-7.102,8.617c-0.704,4.546,0.865,8.32,4.542,10.97c9.335,6.729,18.71,13.401,28.073,20.091
		C78.841,175.087,79.098,175.438,79.737,175.1z M99.788,175.438c1.195-0.839,2.403-1.675,3.6-2.529
		c8.387-5.996,16.811-11.938,25.143-18.016c5.421-3.954,6.426-11.348,2.391-16.289c-5.221-6.393-14.773-5.025-18.041,2.792
		c-4.513,10.798-8.75,21.718-13.102,32.588C99.615,174.394,99.337,174.802,99.788,175.438z M97.498,171.286
		c1.477-3.662,2.752-6.804,4.013-9.951c3.533-8.817,7.19-17.586,10.544-26.477c2.315-6.136-0.88-12.437-6.912-14.385
		c-5.533-1.788-11.589,1.735-13.178,7.667c-0.818,3.054-0.753,3.14,2.358,3.144c0.591,0,1.182-0.013,1.773,0.006
		c1.034,0.035,2.458-0.071,2.773,0.937c0.353,1.127-1.176,1.283-1.903,1.767c-2.588,1.724-4.517,3.824-4.006,7.287
		C94.407,151.086,95.919,160.884,97.498,171.286z M97.943,180.491c0.044,0.161,0.087,0.321,0.131,0.48
		c11.28,0,22.561,0.07,33.839-0.032c4.673-0.044,8.38-3.081,9.794-7.547c1.364-4.311-0.02-9.13-3.442-11.994
		c-3.496-2.923-8.321-3.42-12.185-0.756C116.636,167.155,107.314,173.862,97.943,180.491z M81.569,180.785
		c-9.311-6.614-18.186-12.92-27.063-19.225c-0.425-0.302-0.852-0.604-1.294-0.878c-2.078-1.289-4.307-2.029-6.743-1.662
		c-5.993,0.902-9.861,5.693-9.525,11.722c0.323,5.804,4.764,10.177,10.751,10.231c10.846,0.1,21.694,0.026,32.542,0.019
		C80.506,180.992,80.775,180.911,81.569,180.785z"/>
	<path fill-rule="evenodd" clip-rule="evenodd" fill="#CA242B" d="M81.65,171.333c-4.1-10.178-7.953-19.73-11.794-29.287
		c-0.961-2.392-1.959-4.772-2.81-7.207c-1.571-4.499-0.316-9.336,3.07-12.246c3.442-2.958,8.379-3.379,12.197-1.039
		c3.876,2.375,5.803,6.847,5.088,11.55C85.496,145.625,83.63,158.152,81.65,171.333z"/>
	<path fill-rule="evenodd" clip-rule="evenodd" fill="#F27225" d="M79.737,175.1c-0.64,0.339-0.896-0.013-1.173-0.21
		c-9.363-6.689-18.737-13.361-28.073-20.091c-3.676-2.649-5.246-6.424-4.542-10.97c0.66-4.262,3.138-7.174,7.102-8.617
		c5.3-1.929,10.928,0.671,13.275,6.357c3.885,9.411,7.619,18.889,11.407,28.342C78.427,171.639,79.077,173.387,79.737,175.1z"/>
	<path fill-rule="evenodd" clip-rule="evenodd" fill="#2177BD" d="M99.788,175.438c-0.451-0.636-0.173-1.044-0.009-1.453
		c4.352-10.87,8.589-21.79,13.102-32.588c3.267-7.817,12.819-9.185,18.041-2.792c4.036,4.941,3.03,12.334-2.391,16.289
		c-8.332,6.077-16.756,12.02-25.143,18.016C102.191,173.763,100.983,174.599,99.788,175.438z"/>
	<path fill-rule="evenodd" clip-rule="evenodd" fill="#6458A6" d="M97.498,171.286c-1.578-10.402-3.091-20.2-4.537-30.007
		c-0.511-3.463,1.418-5.563,4.006-7.287c0.727-0.483,2.255-0.639,1.903-1.767c-0.315-1.008-1.74-0.902-2.773-0.937
		c-0.591-0.02-1.182-0.006-1.773-0.006c-3.112-0.003-3.176-0.089-2.358-3.144c1.588-5.931,7.645-9.455,13.178-7.667
		c6.032,1.948,9.227,8.249,6.912,14.385c-3.354,8.891-7.011,17.66-10.544,26.477C100.25,164.482,98.975,167.624,97.498,171.286z"/>
	<path fill-rule="evenodd" clip-rule="evenodd" fill="#32A94A" d="M97.943,180.491c9.371-6.629,18.693-13.336,28.138-19.849
		c3.863-2.664,8.689-2.167,12.185,0.756c3.422,2.864,4.806,7.684,3.442,11.994c-1.414,4.466-5.121,7.503-9.794,7.547
		c-11.279,0.103-22.56,0.032-33.839,0.032C98.03,180.813,97.987,180.652,97.943,180.491z"/>
	<path fill-rule="evenodd" clip-rule="evenodd" fill="#F5B21D" d="M81.569,180.785c-0.794,0.126-1.063,0.207-1.333,0.207
		c-10.848,0.008-21.696,0.081-32.542-0.019c-5.987-0.055-10.428-4.428-10.751-10.231c-0.335-6.028,3.532-10.819,9.525-11.722
		c2.437-0.367,4.665,0.373,6.743,1.662c0.442,0.274,0.87,0.576,1.294,0.878C63.384,167.865,72.259,174.171,81.569,180.785z"/>
</g>
</svg>
