<?xml version="1.0" encoding="utf-8"?>
<!-- Generator: Adobe Illustrator 16.0.0, SVG Export Plug-In . SVG Version: 6.00 Build 0)  -->
<!DOCTYPE svg PUBLIC "-//W3C//DTD SVG 1.1//EN" "http://www.w3.org/Graphics/SVG/1.1/DTD/svg11.dtd">
<svg version="1.1" id="Layer_1" xmlns="http://www.w3.org/2000/svg" xmlns:xlink="http://www.w3.org/1999/xlink" x="0px" y="0px"
	 width="280px" height="280px" viewBox="0 0 280 280" enable-background="new 0 0 280 280" xml:space="preserve">
<rect y="-0.042" fill-rule="evenodd" clip-rule="evenodd" fill="#58489D" width="280" height="280"/>
<g>
	<path fill-rule="evenodd" clip-rule="evenodd" fill="#FFFFFF" d="M273.369,119.841c-0.586,0.54-0.817,1.31-1.184,1.985
		c-3.895,7.187-7.768,14.386-11.664,21.572c-0.281,0.521-0.362,1.036-0.361,1.611c0.011,4.449-0.014,8.898,0.023,13.348
		c0.007,0.82-0.173,1.111-1.025,1.095c-2.711-0.058-5.426-0.049-8.137-0.005c-0.762,0.013-0.996-0.196-0.988-1
		c0.036-4.449,0.011-8.898,0.024-13.348c0.001-0.58-0.126-1.076-0.405-1.594c-4.035-7.451-8.047-14.915-12.063-22.377
		c-0.241-0.45-0.464-0.911-0.77-1.514c2.95,0,5.77,0.17,8.558-0.057c2.008-0.164,2.966,0.624,3.798,2.388
		c1.688,3.579,3.602,7.045,5.425,10.557c0.133,0.254,0.194,0.566,0.506,0.724c0.373-0.225,0.46-0.652,0.642-1
		c2.038-3.904,4.083-7.806,6.082-11.731c0.332-0.652,0.687-0.91,1.423-0.9c3.371,0.045,6.745,0.021,10.117,0.021
		C273.369,119.69,273.369,119.766,273.369,119.841z"/>
	<path fill-rule="evenodd" clip-rule="evenodd" fill="#FFFFFF" d="M9.369,139.074c0.538,0.257,0.679-0.29,0.915-0.532
		c5.944-6.096,11.874-12.207,17.797-18.323c0.281-0.29,0.484-0.66,0.724-0.993c0.089,0.06,0.179,0.12,0.268,0.181
		c0,13.373,0,26.746,0,40.268c-0.346-0.323-0.639-0.574-0.907-0.852c-5.96-6.133-11.915-12.27-17.884-18.394
		c-0.258-0.265-0.41-0.738-0.912-0.676C9.369,139.526,9.369,139.3,9.369,139.074z"/>
	<path fill-rule="evenodd" clip-rule="evenodd" fill="#FFFFFF" d="M182.368,139.52c-1.788,3.748-3.571,7.48-5.349,11.214
		c-1.252,2.627-2.512,5.25-3.734,7.891c-0.269,0.581-0.582,0.826-1.24,0.829c-2.962,0.012-2.95,0.031-4.063-2.806
		c-4.708-11.994-9.424-23.986-14.136-35.979c-0.12-0.306-0.231-0.615-0.396-1.053c3.648,0,7.189,0.009,10.729-0.009
		c0.632-0.003,0.649,0.483,0.802,0.882c2.169,5.688,4.338,11.377,6.507,17.066c0.115,0.299,0.232,0.597,0.355,0.917
		c0.397-0.207,0.427-0.571,0.558-0.862c2.547-5.65,5.106-11.296,7.616-16.965c0.333-0.752,0.729-0.948,1.518-1.077
		c2.274-0.373,3.267,0.67,4.121,2.757c2.153,5.25,4.594,10.377,6.919,15.552c0.091,0.202,0.195,0.397,0.384,0.777
		c0.954-2.488,1.854-4.824,2.744-7.163c1.396-3.666,2.802-7.326,4.158-11.006c0.245-0.666,0.54-0.9,1.244-0.891
		c3.115,0.045,6.231,0.052,9.346,0c0.924-0.016,0.915,0.272,0.624,1.008c-4.999,12.682-9.983,25.37-14.962,38.06
		c-0.218,0.553-0.501,0.787-1.13,0.793c-2.983,0.029-2.983,0.056-4.271-2.672c-2.552-5.4-5.101-10.803-7.659-16.2
		C182.879,140.225,182.808,139.787,182.368,139.52z"/>
	<path fill-rule="evenodd" clip-rule="evenodd" fill="#FFFFFF" d="M114.462,139.404c0-3.002,0.019-5.783-0.005-8.563
		c-0.029-3.431-0.076-6.861-0.157-10.291c-0.018-0.729,0.174-0.965,0.907-0.953c2.785,0.042,5.571,0.036,8.357,0.003
		c0.649-0.007,0.881,0.141,0.88,0.866c-0.022,12.706-0.021,25.411-0.001,38.116c0.001,0.736-0.288,0.796-0.897,0.874
		c-2.076,0.267-3.601-0.455-5.106-2.006c-5.672-5.839-11.488-11.53-17.252-17.277c-0.255-0.254-0.519-0.5-0.957-0.921
		c0,0.599,0,0.994,0,1.389c0,5.918-0.019,11.838,0.021,17.757c0.006,0.863-0.236,1.068-1.044,1.053
		c-2.675-0.053-5.353-0.063-8.027,0.004c-0.916,0.022-1.08-0.312-1.078-1.163c0.023-12.518,0.023-25.034,0-37.551
		c-0.001-0.838,0.162-1.086,1.053-1.171c2.083-0.198,3.57,0.51,5.086,2.046c5.718,5.791,11.601,11.41,17.423,17.091
		C113.87,138.908,114.098,139.087,114.462,139.404z"/>
	<path fill-rule="evenodd" clip-rule="evenodd" fill="#FFFFFF" d="M128.785,139.508c0-6.258,0.014-12.517-0.019-18.775
		c-0.004-0.855,0.176-1.146,1.073-1.141c6.598,0.042,13.196,0.037,19.794,0.003c0.74-0.004,1.104,0.215,1.371,0.923
		c0.934,2.483,1.906,4.951,2.913,7.404c0.33,0.804,0.186,1.014-0.667,1.007c-4.436-0.034-8.871,0.009-13.306-0.036
		c-0.897-0.009-1.232,0.219-1.18,1.185c0.077,1.391,0.094,2.794-0.004,4.182c-0.076,1.063,0.333,1.228,1.247,1.212
		c3.261-0.054,6.524,0.01,9.787-0.042c0.844-0.014,1.046,0.253,1.024,1.083c-0.055,2.147-0.057,4.298,0,6.446
		c0.024,0.869-0.189,1.164-1.083,1.15c-3.298-0.056-6.598,0.003-9.896-0.04c-0.805-0.01-1.116,0.201-1.072,1.069
		c0.065,1.279,0.078,2.566-0.003,3.844c-0.06,0.957,0.33,1.121,1.148,1.117c5.058-0.03,10.118,0.007,15.175-0.035
		c0.927-0.008,1.281,0.184,1.245,1.229c-0.082,2.41-0.045,4.825-0.015,7.237c0.01,0.683-0.192,0.913-0.873,0.912
		c-8.614-0.021-17.229-0.027-25.843,0.007c-0.877,0.005-0.822-0.461-0.82-1.054C128.786,152.1,128.785,145.805,128.785,139.508z"/>
	<path fill-rule="evenodd" clip-rule="evenodd" fill="#FFFFFF" d="M224.387,118.919c5.381,0.051,9.706,2.119,12.613,6.956
		c0.442,0.734,0.461,1.158-0.275,1.699c-1.726,1.269-3.414,2.598-5.059,3.977c-0.678,0.569-0.989,0.517-1.505-0.22
		c-1.106-1.585-2.469-2.879-4.454-3.233c-1.028-0.183-2.045-0.181-3.04,0.148c-0.807,0.267-1.47,0.758-1.629,1.662
		c-0.177,1.015,0.006,1.943,0.901,2.607c1.263,0.935,2.737,1.401,4.139,2.027c2.978,1.333,5.995,2.549,8.617,4.624
		c5.845,4.624,4.974,14.438-1.119,18.391c-3.261,2.116-6.846,2.793-10.601,2.519c-3.841-0.279-7.339-1.589-10.308-4.211
		c-1.32-1.168-2.37-2.555-3.276-4.072c-0.257-0.43-0.249-0.672,0.187-1c1.918-1.448,3.816-2.924,5.686-4.434
		c0.504-0.406,0.72-0.33,1.098,0.165c1.791,2.349,3.947,4.108,6.973,4.454c1.076,0.123,2.123,0.051,3.153-0.229
		c1.086-0.294,1.782-1.029,1.958-2.186c0.177-1.158-0.266-2.07-1.207-2.707c-1.102-0.748-2.331-1.242-3.53-1.793
		c-2.83-1.302-5.721-2.471-8.239-4.404c-3.649-2.803-5.303-6.514-4.507-11.126c0.816-4.741,3.895-7.501,8.221-8.898
		C220.862,119.093,222.604,118.831,224.387,118.919z"/>
	<path fill-rule="evenodd" clip-rule="evenodd" fill="#FFFFFF" d="M39.116,183.922c0-14.851,0-29.492,0-44.14
		c0.408-0.055,0.538,0.276,0.726,0.469c6.734,6.928,13.459,13.864,20.191,20.793c0.404,0.417,0.768,0.674,0.138,1.317
		c-6.861,7.01-13.686,14.059-20.521,21.094C39.526,183.582,39.385,183.688,39.116,183.922z"/>
	<path fill-rule="evenodd" clip-rule="evenodd" fill="#FFFFFF" d="M52.855,139.354c-0.375-0.36-0.642-0.601-0.893-0.859
		c-6.629-6.822-13.246-13.658-19.902-20.453c-0.654-0.668-0.636-0.981,0.006-1.637c6.65-6.801,13.264-13.64,19.889-20.465
		c0.25-0.257,0.518-0.495,0.899-0.858C52.855,109.886,52.855,124.515,52.855,139.354z"/>
	<path fill-rule="evenodd" clip-rule="evenodd" fill="#FFFFFF" d="M62.882,159.733c0-13.573,0-26.933,0-40.299
		c0.412-0.065,0.542,0.269,0.73,0.461c6.117,6.287,12.225,12.583,18.341,18.871c0.411,0.422,0.754,0.688,0.139,1.317
		c-6.238,6.375-12.442,12.786-18.658,19.185C63.311,159.394,63.165,159.496,62.882,159.733z"/>
</g>
</svg>
