<?xml version="1.0" encoding="UTF-8" standalone="no"?>
<!-- Generator: Adobe Illustrator 16.0.0, SVG Export Plug-In . SVG Version: 6.00 Build 0)  -->

<svg
   version="1.1"
   id="Layer_1"
   x="0px"
   y="0px"
   width="280px"
   height="280px"
   viewBox="0 0 280 280"
   enable-background="new 0 0 280 280"
   xml:space="preserve"
   sodipodi:docname="nhkbsp.svg"
   inkscape:version="1.2.2 (732a01da63, 2022-12-09)"
   xmlns:inkscape="http://www.inkscape.org/namespaces/inkscape"
   xmlns:sodipodi="http://sodipodi.sourceforge.net/DTD/sodipodi-0.dtd"
   xmlns="http://www.w3.org/2000/svg"
   xmlns:svg="http://www.w3.org/2000/svg"><defs
   id="defs17"><pattern
     id="EMFhbasepattern"
     patternUnits="userSpaceOnUse"
     width="6"
     height="6"
     x="0"
     y="0" /></defs><sodipodi:namedview
   id="namedview15"
   pagecolor="#ffffff"
   bordercolor="#000000"
   borderopacity="0.25"
   inkscape:showpageshadow="2"
   inkscape:pageopacity="0.0"
   inkscape:pagecheckerboard="0"
   inkscape:deskcolor="#d1d1d1"
   showgrid="false"
   inkscape:zoom="1.5386675"
   inkscape:cx="112.7599"
   inkscape:cy="207.6472"
   inkscape:window-width="1920"
   inkscape:window-height="991"
   inkscape:window-x="-9"
   inkscape:window-y="-9"
   inkscape:window-maximized="1"
   inkscape:current-layer="Layer_1" />
<rect
   y="-0.042"
   fill-rule="evenodd"
   clip-rule="evenodd"
   fill="#EE3425"
   width="280"
   height="280"
   id="rect2"
   style="fill:#9a009a;fill-opacity:1" />

<path
   style="fill:#ffffff;stroke-width:0.105345"
   d="m 105.44825,197.01715 c -8.022758,-0.78003 -13.316078,-4.01767 -16.351538,-10.00137 -1.33402,-2.62971 -2.3472,-6.62743 -2.53605,-10.00653 l -0.0634,-1.13377 h 4.37843 4.37843 l 0.0628,0.79194 c 0.26285,3.31634 1.38472,6.18455 3.1869,8.14778 2.258988,2.46086 5.411188,3.60848 9.911588,3.60848 3.49549,0 5.94347,-0.62863 7.98434,-2.05036 1.714,-1.19401 2.9525,-3.23053 3.29248,-5.41396 0.1519,-0.97553 0.12833,-3.07326 -0.0442,-3.93138 -0.41305,-2.05467 -1.70647,-3.78167 -3.71543,-4.96091 -1.8428,-1.0817 -2.92007,-1.44696 -9.77114,-3.31299 -5.70289,-1.55331 -6.744608,-1.87997 -8.427588,-2.64269 -5.96217,-2.70204 -9.18741,-7.28347 -9.65275,-13.71163 -0.27997,-3.86761 0.56251,-7.997 2.26758,-11.11443 2.1461,-3.92377 5.94116,-6.79053 10.596438,-8.00447 2.21723,-0.57818 3.22342,-0.68889 6.25419,-0.68814 2.95643,6.9e-4 4.22383,0.12922 6.27481,0.6361 7.95074,1.96497 12.76582,7.62405 14.01069,16.46655 0.106,0.75289 0.19273,1.58706 0.19274,1.85371 l 2e-5,0.48482 h -4.31809 -4.31809 l -0.0653,-0.54186 c -0.0359,-0.29802 -0.17156,-1.01841 -0.30145,-1.60086 -0.93071,-4.1733 -3.47443,-6.97846 -7.41145,-8.17318 -1.7328,-0.52583 -4.85579,-0.68385 -6.80562,-0.34436 -3.60594,0.62784 -6.054928,2.51331 -7.104668,5.46986 -0.31969,0.90038 -0.45578,1.84375 -0.45277,3.13858 0.007,2.9109 1.17779,4.95046 3.683858,6.41603 1.46724,0.85806 1.74175,0.94645 9.29061,2.99149 2.91608,0.78998 5.89297,1.64262 6.6153,1.89475 3.77245,1.31676 6.53405,3.08492 8.61809,5.51786 2.11168,2.46522 3.25769,5.14511 3.69638,8.64381 0.22182,1.76917 0.14633,5.12839 -0.15194,6.76059 -0.5874,3.21441 -1.76924,5.92831 -3.5349,8.11737 -3.0139,3.7366 -7.45394,5.9419 -13.28856,6.60021 -1.33772,0.15093 -5.20506,0.20727 -6.38079,0.093 z m -66.813628,-1.592 c -0.038,-0.0445 -0.069,-13.90678 -0.069,-30.80503 v -30.72408 h 12.72729 c 8.25621,0 13.10062,0.0426 13.78999,0.12126 6.44502,0.73541 10.94315,4.33707 12.49636,10.00588 0.45505,1.66078 0.6141,2.93787 0.6141,4.9307 0,2.01334 -0.16955,3.35619 -0.62598,4.95779 -1.00224,3.51678 -3.30332,6.30873 -6.4573,7.83479 -0.48321,0.23381 -0.81289,0.44857 -0.73264,0.47727 2.81595,1.00676 5.30852,2.78429 6.88934,4.91299 1.88248,2.53491 2.77717,5.47327 2.90442,9.53872 0.17353,5.544 -1.18228,9.91756 -4.13775,13.3475 -2.48458,2.88346 -5.36781,4.42765 -9.74193,5.21758 -0.89449,0.16153 -2.67287,0.18951 -14.30466,0.22502 -7.30574,0.0223 -13.31424,0.004 -13.35221,-0.0404 z m 24.95343,-9.06699 c 1.21615,-0.15339 2.53008,-0.53943 3.40793,-1.00126 2.52898,-1.33052 4.04594,-3.98272 4.24293,-7.41818 0.31439,-5.48311 -1.6863,-8.86482 -5.94427,-10.04741 -1.36385,-0.37879 -3.16497,-0.45678 -10.55561,-0.45707 l -7.12604,-2.8e-4 v 9.52523 9.52522 h 7.48704 c 4.80485,0 7.84564,-0.0452 8.48802,-0.12625 z m -1.14159,-27.71304 c 3.49282,-0.46917 5.64484,-2.28357 6.48843,-5.47048 0.19883,-0.75112 0.2263,-1.08532 0.22506,-2.73779 -0.001,-1.80608 -0.0134,-1.92166 -0.29768,-2.8569 -0.86903,-2.85899 -2.74685,-4.35179 -6.01108,-4.77859 -0.57409,-0.0751 -3.6668,-0.12158 -8.084,-0.12158 h -7.1542 v 8.04226 8.04225 l 6.98012,-9.1e-4 c 4.14459,-5.7e-4 7.33485,-0.0486 7.85335,-0.11823 z m 75.251398,6.04642 v -30.80476 l 11.99023,0.0386 c 10.88955,0.035 12.08401,0.057 13.01172,0.23904 4.99446,0.9801 8.46193,3.18876 10.86136,6.91834 0.64838,1.0078 1.62744,3.19875 1.96782,4.40359 1.5168,5.36891 1.20029,12.11219 -0.78606,16.7476 -0.67728,1.58053 -1.43455,2.80103 -2.55702,4.12114 -2.49006,2.92854 -5.6409,4.59247 -10.16709,5.36914 -0.94399,0.16198 -2.23197,0.19968 -8.2448,0.24135 l -7.12605,0.0494 v 11.74068 11.74068 h -4.47506 -4.47505 z m 23.2022,-2.01718 c 4.1973,-1.13377 6.35666,-3.90564 6.76392,-8.68256 0.18669,-2.18972 -0.12171,-4.40539 -0.85533,-6.14515 -0.98471,-2.3352 -2.86718,-3.91014 -5.57825,-4.66693 -0.64391,-0.17974 -1.44754,-0.20508 -7.65095,-0.24128 l -6.93148,-0.0405 v 10.05061 10.05062 l 6.68827,-0.0442 c 6.34562,-0.0419 6.73312,-0.0563 7.56382,-0.28068 z m 42.17256,25.92043 v -6.90151 H 191.05806 179.0435 v -5.17144 -5.17143 l 12.23345,-18.72203 12.23345,-18.72202 4.25617,-0.005 4.25617,-0.005 v 19.56378 19.56378 h 4.08592 4.08592 v 4.33484 4.33483 h -4.08592 -4.08592 v 6.90151 6.90151 h -4.47506 -4.47506 z m 0,-27.62886 c 0,-6.91214 -0.0364,-12.01143 -0.0853,-11.94931 -0.0469,0.0596 -0.67305,1.00671 -1.39144,2.10468 -3.3723,5.15411 -13.78795,21.09429 -14.03191,21.47453 l -0.27446,0.42778 h 7.89154 7.89154 z m 24.46325,34.38777 c -0.0254,-0.0784 -0.035,-13.92564 -0.0213,-30.7716 l 0.0249,-30.62902 4.49899,-0.0297 4.49897,-0.0297 0.0247,13.35802 0.0247,13.35802 11.18764,-13.35009 11.18765,-13.3501 5.83633,-0.007 5.83633,-0.007 -2.52868,2.99339 c -1.39077,1.64637 -6.09656,7.19289 -10.45731,12.3256 -4.36076,5.13272 -7.94446,9.35254 -7.96379,9.37739 -0.0193,0.0248 5.10446,8.27422 11.38619,18.33193 6.28175,10.05772 11.45498,18.35093 11.49608,18.42935 0.0594,0.11344 -1.0687,0.1426 -5.51738,0.1426 h -5.59208 l -9.06384,-14.88673 c -4.98511,-8.1877 -9.11182,-14.88673 -9.17044,-14.88673 -0.0586,0 -1.58682,1.7308 -3.39597,3.84622 l -3.28938,3.84622 v 11.04051 11.04051 h -4.47811 c -3.493,0 -4.48827,-0.0314 -4.52429,-0.1426 z M 126.43732,112.39521 c -0.28088,-0.0927 -0.67488,-0.26707 -0.87556,-0.38741 -0.89474,-0.53653 -1.17568,-0.98148 -4.94836,-7.83711 -2.85243,-5.183351 -3.69173,-6.631537 -3.74517,-6.462133 -0.0379,0.120082 -0.69165,2.754533 -1.4528,5.854343 -0.76116,3.0998 -1.49112,5.88666 -1.62213,6.19301 -0.70215,1.64181 -2.33034,2.71239 -3.86893,2.54391 -2.09832,-0.22976 -3.6641,-2.20783 -3.67363,-4.64092 -0.003,-0.78836 0.21199,-1.72464 2.73831,-11.920787 1.50791,-6.085876 2.85768,-11.346909 2.99949,-11.691184 0.90144,-2.188457 3.37754,-3.175747 5.26202,-2.09811 1.04501,0.597584 1.33884,1.056325 5.03283,7.857418 1.90834,3.513496 3.52101,6.452085 3.58372,6.530196 0.0881,0.109769 0.44259,-1.198445 1.5609,-5.760764 0.79578,-3.246532 1.55785,-6.18512 1.69349,-6.530196 0.33363,-0.848723 1.12329,-1.751157 1.91016,-2.18293 2.11465,-1.160354 4.54075,0.06861 5.41196,2.741474 0.15226,0.467115 0.20927,0.900326 0.21173,1.608873 0.003,0.934369 -0.0961,1.375651 -2.7329,12.13374 -1.50494,6.14026 -2.82874,11.38812 -2.94177,11.66191 -0.3464,0.83909 -1.00832,1.59735 -1.78965,2.05015 -0.58794,0.34073 -0.8397,0.41885 -1.47595,0.45797 -0.49757,0.0306 -0.94652,-0.0121 -1.27776,-0.12145 z m 15.36361,0.0468 c -1.18482,-0.27341 -2.24381,-1.24094 -2.79838,-2.55669 -0.29443,-0.69857 -0.36025,-0.99189 -0.40116,-1.78774 l -0.0489,-0.95205 2.78914,-11.407453 c 1.68229,-6.880443 2.88291,-11.595879 3.02539,-11.882262 0.80658,-1.621169 2.26987,-2.539139 3.83781,-2.40759 2.14817,0.180228 3.92994,2.694661 3.65179,5.153401 -0.0484,0.427841 -0.85178,3.997063 -1.27977,5.685696 -0.0477,0.188071 0.20595,0.199631 4.37966,0.199631 h 4.43025 l 0.1468,-0.598891 c 0.0807,-0.329391 0.51468,-2.116069 0.96432,-3.970397 0.44964,-1.854328 0.92796,-3.625335 1.06293,-3.935571 0.70962,-1.630983 2.27684,-2.658728 3.85815,-2.530094 0.94732,0.07706 1.6907,0.461006 2.38642,1.232549 0.90873,1.007774 1.31521,2.112002 1.31521,3.572852 0,0.708422 -0.31773,2.10175 -2.73188,11.979888 -1.50253,6.148021 -2.8207,11.382381 -2.92926,11.631911 -0.10855,0.24952 -0.42238,0.73267 -0.69738,1.07366 -1.95312,2.42181 -5.27632,1.74866 -6.51289,-1.31925 -0.28174,-0.69901 -0.30865,-0.86297 -0.30366,-1.85067 0.005,-0.98372 0.0642,-1.32316 0.64167,-3.6789 l 0.63622,-2.5952 -4.43646,8e-4 -4.43647,8e-4 -0.96975,3.84919 c -0.53336,2.11706 -1.11387,4.18964 -1.29,4.60574 -0.53117,1.25481 -1.51827,2.1415 -2.715,2.43881 -0.73914,0.18363 -0.95738,0.19025 -1.57476,0.0478 z m 32.37838,-0.0339 c -1.15044,-0.29427 -2.294,-1.38449 -2.79755,-2.66706 -0.20142,-0.51302 -0.26629,-0.88076 -0.29722,-1.6851 l -0.0396,-1.02886 2.74395,-11.234148 c 1.85218,-7.583111 2.83993,-11.446836 3.0393,-11.888591 0.3829,-0.848428 1.08303,-1.607562 1.9017,-2.061955 0.59917,-0.332569 0.73572,-0.363062 1.62691,-0.363325 0.8925,-2.28e-4 1.02698,0.02979 1.62861,0.363968 0.84874,0.471449 1.55005,1.293798 1.9521,2.289033 0.29275,0.724662 0.31026,0.841217 0.30402,2.023768 -0.006,1.200247 -0.0328,1.356099 -0.60828,3.583549 -0.3309,1.280802 -0.58861,2.344024 -0.57266,2.362719 0.0159,0.01869 2.54422,-2.20104 5.61839,-4.932742 3.07417,-2.731702 5.76452,-5.073259 5.97854,-5.203461 2.1476,-1.306494 4.80319,-0.115944 5.65636,2.535854 0.25341,0.787649 0.22975,2.501526 -0.0457,3.308162 -0.41621,1.218983 -0.65411,1.470364 -5.44357,5.751999 l -4.58395,4.097916 1.14864,1.434698 c 4.39992,5.495646 4.79059,6.010336 5.07208,6.682126 0.54199,1.29346 0.53955,2.93051 -0.006,4.23886 -0.38261,0.91703 -1.24805,1.86791 -2.0131,2.21184 -1.14751,0.51585 -2.57057,0.39711 -3.59653,-0.30011 -0.25329,-0.17212 -2.08768,-2.39941 -4.85459,-5.89438 -2.44609,-3.08974 -4.54113,-5.73415 -4.65562,-5.87647 l -0.20818,-0.258753 -1.15768,4.757523 c -0.63672,2.61663 -1.2638,5.00723 -1.3935,5.31243 -0.51229,1.20546 -1.68818,2.21253 -2.88681,2.47235 -0.6847,0.14842 -0.81592,0.14565 -1.50982,-0.0318 z"
   id="path342" /></svg>
