<?xml version="1.0" encoding="UTF-8" standalone="no"?>
<!-- Generator: Adobe Illustrator 16.0.0, SVG Export Plug-In . SVG Version: 6.00 Build 0)  -->

<svg
   version="1.1"
   id="Layer_1"
   x="0px"
   y="0px"
   width="280px"
   height="280px"
   viewBox="0 0 280 280"
   enable-background="new 0 0 280 280"
   xml:space="preserve"
   sodipodi:docname="bsnhk.svg"
   inkscape:version="1.2.2 (732a01da63, 2022-12-09)"
   xmlns:inkscape="http://www.inkscape.org/namespaces/inkscape"
   xmlns:sodipodi="http://sodipodi.sourceforge.net/DTD/sodipodi-0.dtd"
   xmlns="http://www.w3.org/2000/svg"
   xmlns:svg="http://www.w3.org/2000/svg"><defs
   id="defs17"><pattern
     id="EMFhbasepattern"
     patternUnits="userSpaceOnUse"
     width="6"
     height="6"
     x="0"
     y="0" /></defs><sodipodi:namedview
   id="namedview15"
   pagecolor="#ffffff"
   bordercolor="#000000"
   borderopacity="0.25"
   inkscape:showpageshadow="2"
   inkscape:pageopacity="0.0"
   inkscape:pagecheckerboard="0"
   inkscape:deskcolor="#d1d1d1"
   showgrid="false"
   inkscape:zoom="2.0304066"
   inkscape:cx="120.91174"
   inkscape:cy="195.77359"
   inkscape:window-width="1920"
   inkscape:window-height="991"
   inkscape:window-x="-9"
   inkscape:window-y="-9"
   inkscape:window-maximized="1"
   inkscape:current-layer="Layer_1" />
<rect
   y="-0.042"
   fill-rule="evenodd"
   clip-rule="evenodd"
   fill="#EE3425"
   width="280"
   height="280"
   id="rect2"
   style="fill:#015aff;fill-opacity:1" />

<path
   style="fill:#ffffff;stroke-width:0.868986"
   d="m 182.92054,197.09142 c -12.41563,-2.23872 -22.24882,-12.31458 -22.24882,-22.79787 v -2.45669 h 6.03826 6.03824 l 0.93732,3.49379 c 1.358,5.06186 5.29633,9.16318 9.92154,10.33212 9.36749,2.36749 19.02706,0.13573 21.67737,-5.00836 2.66722,-5.17692 1.19939,-10.11664 -3.77305,-12.6975 -1.3333,-0.69202 -7.68898,-2.57553 -14.12372,-4.18558 -17.88654,-4.4754 -23.66332,-8.93055 -24.69596,-19.04592 -0.74978,-7.34459 0.87789,-11.78934 6.23584,-17.02858 6.05908,-5.92482 11.3052,-7.57312 22.44475,-7.05202 14.82918,0.6937 24.3025,7.85505 26.20737,19.81142 l 0.57398,3.60277 -6.35347,-0.25817 c -6.3377,-0.25751 -6.35526,-0.26506 -7.06653,-3.03079 -1.81161,-7.04439 -11.01114,-11.12241 -20.3558,-9.02344 -7.85817,1.76508 -11.46198,8.80484 -7.25525,14.17259 2.14693,2.73949 4.16933,3.52291 16.50968,6.39547 19.61254,4.56538 26.02151,10.19992 26.02151,22.87718 0,9.73578 -5.99675,17.49253 -15.88102,20.54194 -5.39367,1.66402 -15.50291,2.3222 -20.85224,1.35764 z M 93.883191,158.77801 v -36.5648 h 20.646899 c 20.54269,0 20.66994,0.0115 25.21237,2.28348 12.33973,6.17188 13.14649,22.88865 1.4501,30.0477 -1.56941,0.9606 -2.07661,1.61666 -1.25134,1.61858 2.6122,0.007 8.69131,5.2711 10.36921,8.98053 3.66817,8.10938 1.04315,20.31906 -5.43468,25.2782 -5.81653,4.4529 -8.73912,4.9211 -30.7181,4.9211 H 93.883191 Z m 39.890059,23.9462 c 3.60034,-1.8687 5.21388,-4.63777 5.21388,-8.94782 0,-9.20427 -4.18241,-11.51602 -20.83476,-11.51602 h -11.25843 v 10.88237 10.88238 h 12.18644 c 9.11522,0 12.81812,-0.32786 14.69287,-1.30091 z m -1.86803,-32.85447 c 4.1463,-2.13281 5.76821,-8.88156 3.06533,-12.75475 -2.42551,-3.47569 -6.30228,-4.4547 -17.64014,-4.4547 h -10.43647 l -0.001,9.35885 -10e-4,9.35884 11.49436,-0.23314 c 6.74911,-0.1369 12.33069,-0.6633 13.52005,-1.2751 z m -25.48987,-40.76518 c -1.56349,-1.73403 -1.56578,-1.98215 -0.0719,-7.80258 0.84861,-3.306377 2.39411,-8.670741 3.43444,-11.920818 1.85797,-5.804456 1.94508,-5.909217 4.91329,-5.909217 2.75958,0 3.37597,0.517573 7.10368,5.964831 l 4.08192,5.964831 1.4556,-5.094242 c 1.78728,-6.255034 2.55781,-7.27072 5.51582,-7.27072 2.74447,0 4.40419,1.429108 4.40419,3.792229 0,3.005839 -5.37755,20.965756 -6.74985,22.543126 -2.69653,3.09948 -5.10913,1.93193 -9.40414,-4.55107 -3.65313,-5.514091 -5.52238,-6.899781 -5.53543,-4.10345 -0.002,0.57028 -0.40769,2.49276 -0.90008,4.27219 -1.60423,5.79763 -5.13978,7.56159 -8.24751,4.11489 z m 33.61264,0.74627 c -1.58139,-1.58725 -1.28572,-4.1609 1.65325,-14.390124 3.40174,-11.839973 3.72276,-12.424061 6.82845,-12.424061 3.48443,0 5.31553,2.734606 4.27335,6.381912 -0.43184,1.511283 -0.78516,2.848318 -0.78516,2.971188 0,0.122871 1.88983,0.223395 4.19962,0.223395 4.19083,0 4.20192,-0.0076 5.29388,-3.700003 1.42247,-4.809787 2.36361,-5.876492 5.18475,-5.876492 2.74447,0 4.40419,1.429108 4.40419,3.792229 0,3.431937 -5.44947,21.070176 -7.01884,22.717796 -1.32175,1.38765 -2.05716,1.5418 -4.02157,0.84294 -2.1672,-0.771 -2.40404,-1.26006 -2.40404,-4.96432 v -4.10907 l -4.05036,0.001 -4.05036,10e-4 -1.41535,4.27697 c -0.77844,2.35234 -2.0127,4.50705 -2.7428,4.78824 -2.1035,0.81019 -4.2207,0.59904 -5.34901,-0.53342 z m 33.82796,0 c -1.5814,-1.58725 -1.28572,-4.1609 1.65325,-14.390124 3.40174,-11.839973 3.72277,-12.424061 6.82845,-12.424061 3.3737,0 5.31219,2.746269 4.34003,6.148532 -0.70554,2.469198 -0.61596,2.436529 4.98219,-1.817059 6.2233,-4.728571 9.91913,-5.580681 11.48313,-2.64752 1.62586,3.049181 0.95668,4.366178 -4.30055,8.463889 l -5.19846,4.051897 2.87447,3.564856 c 4.2045,5.21433 4.342,5.60412 2.80659,7.9561 -2.30521,3.53121 -4.84387,2.73807 -10.64533,-3.32588 l -5.22755,-5.464064 -1.06804,4.182744 c -0.58744,2.30052 -1.64254,4.75935 -2.34467,5.46407 -1.54262,1.54834 -4.75418,1.67124 -6.18351,0.23662 z"
   id="path1347" /></svg>
