<?xml version="1.0" encoding="utf-8"?>
<!-- Generator: Adobe Illustrator 16.0.0, SVG Export Plug-In . SVG Version: 6.00 Build 0)  -->
<!DOCTYPE svg PUBLIC "-//W3C//DTD SVG 1.1//EN" "http://www.w3.org/Graphics/SVG/1.1/DTD/svg11.dtd">
<svg version="1.1" id="Layer_1" xmlns="http://www.w3.org/2000/svg" xmlns:xlink="http://www.w3.org/1999/xlink" x="0px" y="0px"
	 width="280px" height="280px" viewBox="0 0 280 280" enable-background="new 0 0 280 280" xml:space="preserve">
<g>
	<path fill-rule="evenodd" clip-rule="evenodd" fill="#FEFEFE" d="M0.187,219.52c0-57.058,0-114.115,0-171.173
		c46.917,0,93.833,0,140.749-0.001c0.402,0.018,0.805,0.052,1.207,0.052c45.675,0.002,91.35,0.002,137.024,0
		c0.34,0,0.68-0.033,1.02-0.051c0,57.058,0,114.115,0,171.173c-0.369-0.022-0.738-0.065-1.107-0.065
		c-92.563-0.003-185.125-0.003-277.687,0C0.991,219.454,0.588,219.497,0.187,219.52z M66.551,99.381
		c-0.118-0.083-0.185-0.106-0.215-0.154c-5.645-9.08-11.296-18.156-16.925-27.246c-2.286-3.691-5.593-5.551-9.889-5.101
		c-4.199,0.44-7.131,2.822-8.537,6.851c-5.102,14.617-10.168,29.247-15.244,43.873c-0.642,1.851-0.847,3.748-0.382,5.663
		c1.142,4.703,4.811,7.58,9.055,7.931c4.679,0.386,8.777-2.276,10.349-6.683c2.333-6.539,4.577-13.108,6.857-19.665
		c0.717-2.062,1.433-4.124,2.186-6.292c0.168,0.212,0.251,0.299,0.313,0.399c5.645,9.08,11.292,18.159,16.928,27.245
		c1.985,3.2,4.882,4.878,8.604,4.989c4.336,0.129,8.225-2.676,9.688-6.875c5.093-14.62,10.169-29.246,15.241-43.874
		c0.595-1.717,0.772-3.463,0.468-5.294c-0.694-4.163-4.091-7.782-8.682-8.297c-5.869-0.658-9.592,3.126-10.783,6.568
		C72.59,82.071,69.57,90.711,66.551,99.381z M150.998,108.076c-1.098,3.212-2.145,6.326-3.229,9.426
		c-0.638,1.825-0.857,3.673-0.43,5.565c1.063,4.701,4.736,7.846,9.715,8.059c4.074,0.174,8.226-2.288,9.833-6.931
		c4.774-13.789,9.574-27.568,14.343-41.359c0.842-2.436,1.816-4.819,1.361-7.55c-0.794-4.763-4.833-8.676-10.217-8.579
		c-4.442,0.081-7.957,2.805-9.425,7.001c-1.744,4.988-3.493,9.974-5.202,14.974c-0.233,0.683-0.503,0.95-1.279,0.945
		c-6.75-0.039-13.5-0.021-20.25-0.02c-0.586,0-1.171,0-1.835,0c1.056-3.021,2.065-5.982,3.13-8.924
		c0.647-1.79,0.907-3.636,0.565-5.479c-0.902-4.867-4.581-7.874-8.665-8.345c-5.04-0.582-9.209,2.085-10.9,6.762
		c-0.731,2.022-1.439,4.054-2.143,6.086c-4.4,12.716-8.808,25.428-13.188,38.151c-2.183,6.34,2.431,13.296,9.704,13.342
		c4.156,0.026,7.964-2.703,9.373-6.672c1.849-5.211,3.626-10.448,5.448-15.669c0.128-0.367,0.146-0.803,0.799-0.801
		C135.971,108.086,143.436,108.076,150.998,108.076z M221.587,89.32c0.96-2.771,1.808-5.303,2.713-7.813
		c0.776-2.149,1.308-4.305,0.822-6.613c-1.021-4.854-5.146-8.308-10.175-8.184c-4.512,0.112-7.946,2.824-9.43,7.098
		c-5.025,14.481-10.048,28.965-15.084,43.443c-0.623,1.792-0.892,3.628-0.543,5.479c0.856,4.547,4.449,8.193,9.702,8.405
		c4.177,0.168,8.353-2.436,9.864-6.882c1.71-5.031,3.475-10.044,5.22-15.064c0.556-1.599,1.124-3.192,1.74-4.941
		c0.206,0.263,0.292,0.394,0.399,0.506c7.188,7.542,14.385,15.076,21.565,22.626c2.408,2.532,5.357,3.653,8.794,3.256
		c7.396-0.855,11.195-9.758,6.701-15.703c-1.612-2.133-3.618-3.932-5.458-5.87c-2.711-2.857-5.434-5.702-8.192-8.595
		c1.219-0.776,2.39-1.523,3.562-2.27c6.806-4.336,13.639-8.631,20.405-13.026c3.293-2.139,4.864-6.351,3.958-9.995
		c-1.69-6.794-8.964-9.725-14.897-5.989c-3.559,2.24-7.1,4.506-10.647,6.763C235.67,80.362,228.733,84.775,221.587,89.32z
		 M43.079,167.757c0.061-0.003,0.121-0.007,0.182-0.01c0.033,0.276,0.058,0.555,0.101,0.83c0.785,5.024,1.58,10.047,2.354,15.072
		c0.893,5.792,1.77,11.586,2.644,17.381c0.061,0.402,0.197,0.582,0.646,0.579c3.173-0.018,6.345-0.016,9.518-0.002
		c0.416,0.002,0.585-0.112,0.66-0.554c0.42-2.505,0.873-5.006,1.329-7.505c2.324-12.74,4.65-25.48,6.992-38.218
		c0.094-0.509,0.007-0.649-0.514-0.646c-2.612,0.02-5.226,0.021-7.838-0.001c-0.523-0.005-0.671,0.178-0.739,0.685
		c-0.311,2.304-0.675,4.602-1.021,6.901c-0.713,4.754-1.428,9.507-2.14,14.26c-0.634,4.229-1.266,8.459-1.927,12.879
		c-0.325-1.046-0.387-1.94-0.527-2.821c-1.661-10.378-3.333-20.754-4.972-31.136c-0.092-0.583-0.23-0.779-0.836-0.771
		c-2.55,0.033-5.101,0.031-7.651,0c-0.54-0.007-0.78,0.143-0.862,0.682c-0.363,2.391-0.754,4.777-1.132,7.166
		c-1.262,7.992-2.51,15.987-3.796,23.976c-0.143,0.885-0.169,1.812-0.592,2.839c-0.328-2.227-0.622-4.251-0.924-6.273
		c-0.72-4.815-1.443-9.63-2.167-14.444c-0.665-4.415-1.345-8.829-1.982-13.248c-0.08-0.555-0.251-0.702-0.799-0.695
		c-2.55,0.029-5.101,0.023-7.651,0.004c-0.527-0.004-0.744,0.033-0.619,0.691c0.821,4.322,1.586,8.654,2.375,12.982
		c1.21,6.646,2.427,13.289,3.636,19.935c0.766,4.207,1.521,8.415,2.283,12.622c0.073,0.4,0.146,0.71,0.732,0.702
		c3.141-0.038,6.283-0.026,9.424-0.009c0.465,0.003,0.597-0.127,0.667-0.604c0.605-4.11,1.252-8.215,1.887-12.321
		c0.854-5.516,1.706-11.031,2.562-16.546C42.607,170.677,42.846,169.218,43.079,167.757z M155.723,178.33
		c3.889-0.819,6.209-3.256,7.191-6.984c0.722-2.74,0.766-5.536,0.183-8.311c-0.615-2.931-2.123-5.271-4.814-6.734
		c-1.771-0.963-3.685-1.517-5.688-1.538c-6.033-0.065-12.067-0.031-18.1-0.091c-0.881-0.009-1.041,0.258-1.04,1.075
		c0.024,14.929,0.018,29.857,0.018,44.786c0,0.187,0.021,0.376-0.004,0.56c-0.056,0.425,0.141,0.517,0.532,0.515
		c2.799-0.014,5.598-0.022,8.397,0.006c0.532,0.005,0.609-0.203,0.59-0.652c-0.03-0.715-0.008-1.431-0.008-2.146
		c0-5.411-0.003-10.823,0.006-16.234c0.001-0.348-0.214-0.829,0.511-0.811c1.865,0.047,3.736-0.04,5.597,0.069
		c1.767,0.104,3.09,0.975,3.806,2.678c0.479,1.135,0.685,2.314,0.719,3.529c0.079,2.829,0.101,5.659,0.229,8.485
		c0.066,1.479,0.1,2.989,0.756,4.374c0.201,0.425,0.428,0.726,1.035,0.716c3.017-0.047,6.033-0.019,9.051-0.027
		c0.196,0,0.475,0.13,0.582-0.132c0.104-0.254-0.14-0.364-0.312-0.497c-0.954-0.739-1.311-1.791-1.42-2.926
		c-0.229-2.382-0.347-4.771-0.414-7.166c-0.06-2.078-0.145-4.157-0.528-6.214c-0.58-3.104-2.27-5.145-5.42-5.884
		C156.706,178.665,156.178,178.693,155.723,178.33z M230.623,178.177c0,7.524,0.01,15.048-0.017,22.571
		c-0.002,0.693,0.157,0.876,0.867,0.871c4.912-0.036,9.825-0.007,14.737-0.027c2.088-0.008,4.148-0.285,6.12-0.999
		c4.403-1.593,6.676-5.011,7.886-9.315c0.982-3.49,1.261-7.077,1.396-10.677c0.189-5.069,0.099-10.133-1.044-15.103
		c-1.606-6.985-6.037-10.616-13.187-10.755c-5.283-0.103-10.57-0.022-15.855-0.066c-0.743-0.006-0.922,0.202-0.919,0.928
		C230.634,163.129,230.623,170.652,230.623,178.177z M113.487,178.196c0-0.777,0.028-1.557-0.004-2.333
		c-0.168-3.969-0.209-7.953-1.293-11.821c-1.41-5.033-4.38-8.563-9.641-9.778c-2.875-0.664-5.8-0.656-8.709-0.25
		c-4.182,0.584-7.443,2.609-9.508,6.37c-1.223,2.227-1.859,4.646-2.192,7.146c-0.618,4.637-0.677,9.302-0.538,13.965
		c0.108,3.626,0.269,7.259,1.271,10.79c1.273,4.485,3.782,7.861,8.413,9.247c2.703,0.81,5.494,0.945,8.306,0.72
		c2.369-0.189,4.67-0.614,6.759-1.818c3.714-2.14,5.348-5.654,6.189-9.62C113.421,186.658,113.448,182.423,113.487,178.196z
		 M186.267,178.09c0,7.528,0.015,15.056-0.021,22.583c-0.004,0.794,0.209,0.948,0.968,0.946c8.118-0.03,16.236-0.03,24.355-0.001
		c0.741,0.003,0.919-0.197,0.901-0.915c-0.051-1.989-0.052-3.982,0-5.972c0.02-0.734-0.184-0.929-0.92-0.923
		c-4.853,0.034-9.705,0.018-14.558,0.018c-1.27,0-1.27,0-1.27-1.287c0-12.255-0.013-24.511,0.023-36.767
		c0.003-0.93-0.256-1.122-1.134-1.1c-2.486,0.063-4.977,0.056-7.464,0.001c-0.758-0.016-0.9,0.222-0.898,0.927
		C186.276,163.098,186.267,170.594,186.267,178.09z"/>
	<path fill-rule="evenodd" clip-rule="evenodd" fill="#DF2126" d="M0.187,219.52c0.402-0.022,0.804-0.065,1.206-0.065
		c92.562-0.003,185.124-0.003,277.687,0c0.369,0,0.738,0.043,1.107,0.065c0,19.969-0.003,39.938,0.016,59.906
		c0.001,0.608-0.08,0.78-0.748,0.78c-92.845-0.021-185.69-0.021-278.535,0c-0.668,0-0.749-0.172-0.748-0.78
		C0.19,259.457,0.187,239.488,0.187,219.52z M255.8,260.165c-0.066,0.013-0.134,0.025-0.2,0.038
		c-0.152-0.292-0.309-0.581-0.456-0.875c-3.397-6.738-6.796-13.477-10.187-20.218c-0.198-0.393-0.32-0.747-0.906-0.735
		c-2.083,0.039-4.168,0.033-6.252,0.003c-0.553-0.008-0.675,0.194-0.674,0.702c0.012,9.426,0.015,18.851-0.005,28.276
		c-0.001,0.61,0.217,0.719,0.758,0.705c1.337-0.034,2.678-0.062,4.012,0.007c0.829,0.042,1.086-0.168,1.081-1.048
		c-0.041-6.813-0.023-13.625-0.018-20.438c0-0.305-0.093-0.644,0.169-1.002c0.196,0.388,0.351,0.684,0.498,0.983
		c3.408,6.941,6.822,13.881,10.213,20.83c0.233,0.479,0.477,0.68,1.029,0.67c2.021-0.037,4.044-0.037,6.065-0.001
		c0.59,0.011,0.725-0.179,0.724-0.74c-0.017-9.394-0.018-18.789,0.001-28.183c0.002-0.635-0.211-0.781-0.805-0.764
		c-1.398,0.041-2.801,0.058-4.198-0.005c-0.733-0.033-0.866,0.229-0.863,0.898c0.024,5.537,0.014,11.074,0.014,16.611
		C255.8,257.31,255.8,258.737,255.8,260.165z M98.388,248.489c-1.438-2.854-4.002-3.36-6.732-3.354
		c-2.739,0.007-5.11,1.011-7.078,3.33c0-0.834-0.032-1.412,0.009-1.985c0.041-0.573-0.087-0.834-0.749-0.807
		c-1.335,0.055-2.674,0.037-4.011,0.005c-0.515-0.013-0.694,0.118-0.693,0.666c0.018,7.028,0.016,14.058,0.002,21.086
		c-0.001,0.477,0.117,0.643,0.618,0.631c1.43-0.033,2.863-0.058,4.291,0.007c0.746,0.034,0.911-0.198,0.906-0.917
		c-0.033-4.696-0.021-9.393-0.015-14.089c0.003-2.065,1.104-3.612,3.086-4.123c2.675-0.688,5.037,0.037,4.975,3.545
		c-0.005,0.279,0,0.56,0,0.84c0,4.634,0.013,9.268-0.014,13.902c-0.003,0.635,0.134,0.869,0.812,0.84
		c1.272-0.056,2.554-0.079,3.823,0.005c0.949,0.063,1.234-0.193,1.221-1.188c-0.06-4.478-0.041-8.957-0.021-13.436
		c0.012-2.864,1.465-4.44,4.288-4.73c2.12-0.218,3.348,0.734,3.726,2.842c0.111,0.62,0.118,1.236,0.118,1.857
		c0.003,4.603,0.013,9.206-0.012,13.809c-0.003,0.616,0.098,0.871,0.792,0.843c1.459-0.058,2.923-0.035,4.384-0.007
		c0.482,0.009,0.635-0.124,0.634-0.623c-0.019-5.599,0.021-11.197-0.031-16.795c-0.024-2.583-1.401-4.425-3.87-5.066
		C104.887,244.548,101.267,245.051,98.388,248.489z M181.18,268.05c0.031-0.132,0.052-0.166,0.043-0.191
		c-3.282-9.651-6.57-19.301-9.838-28.958c-0.16-0.475-0.426-0.518-0.83-0.516c-1.99,0.011-3.982,0.061-5.97-0.02
		c-0.917-0.037-1.319,0.225-1.641,1.115c-2.679,7.408-5.423,14.793-8.142,22.187c-0.773,2.102-1.531,4.209-2.321,6.383
		c2.013,0,3.909-0.013,5.805,0.01c0.45,0.005,0.639-0.147,0.778-0.581c0.654-2.03,1.364-4.042,2.03-6.068
		c0.156-0.476,0.375-0.658,0.913-0.652c3.266,0.032,6.531,0.03,9.796,0.003c0.557-0.005,0.811,0.15,0.979,0.697
		c0.615,2.009,1.302,3.997,1.928,6.003c0.131,0.421,0.293,0.605,0.759,0.6C177.364,268.035,179.261,268.05,181.18,268.05z
		 M205.493,268.05c1.93,0,3.763-0.022,5.596,0.014c0.584,0.011,0.863-0.136,1.05-0.735c0.614-1.976,1.313-3.926,1.971-5.89
		c0.147-0.439,0.31-0.692,0.888-0.686c3.296,0.043,6.593,0.036,9.89,0.006c0.545-0.005,0.743,0.187,0.896,0.675
		c0.626,2.006,1.301,3.997,1.943,5.998c0.108,0.337,0.162,0.632,0.637,0.627c1.949-0.021,3.899-0.009,5.867-0.009
		c-0.01-0.167,0.004-0.264-0.024-0.347c-3.261-9.562-6.53-19.12-9.771-28.688c-0.181-0.533-0.438-0.639-0.935-0.634
		c-2.083,0.021-4.168,0.039-6.25-0.008c-0.67-0.016-0.942,0.197-1.173,0.83c-2.556,7.025-5.153,14.036-7.735,21.053
		C207.395,262.829,206.459,265.407,205.493,268.05z M184.12,253.201c0,4.664,0.015,9.327-0.017,13.99
		c-0.005,0.696,0.167,0.907,0.876,0.876c1.396-0.06,2.8-0.063,4.195,0c0.809,0.036,1.097-0.138,1.081-1.032
		c-0.061-3.449,0-6.901-0.043-10.352c-0.01-0.76,0.223-0.944,0.942-0.92c1.553,0.051,3.108,0.017,4.663,0.015
		c2.514-0.002,4.938-0.395,7.139-1.7c5.016-2.976,5.283-10.761,0.471-13.911c-2.13-1.395-4.552-1.736-7.023-1.762
		c-3.792-0.04-7.586,0.008-11.378-0.034c-0.749-0.008-0.928,0.207-0.923,0.935C184.136,243.938,184.12,248.569,184.12,253.201z
		 M52.717,256.932c0.084,1.057,0.064,2.333,0.302,3.591c0.729,3.846,2.708,6.636,6.651,7.655c2.375,0.613,4.785,0.612,7.195,0.085
		c3.47-0.759,5.72-2.831,6.697-6.231c1.02-3.544,0.978-7.12-0.033-10.65c-0.86-3.002-2.864-4.932-5.905-5.734
		c-2.505-0.662-5.029-0.693-7.563-0.183c-3.407,0.687-5.645,2.672-6.664,6.011C52.875,253.186,52.792,254.951,52.717,256.932z
		 M143.759,250.128c-0.009,0-0.017,0-0.025,0c0,3.668,0.029,7.337-0.01,11.005c-0.026,2.428-1.199,3.706-3.459,3.916
		c-0.624,0.059-1.235-0.021-1.85-0.146c-1.344-0.275-2.197-1.028-2.559-2.375c-0.223-0.829-0.217-1.665-0.182-2.496
		c0.029-0.698-0.12-1.002-0.904-0.947c-1.083,0.075-2.175,0.019-3.263,0.019c-1.736,0-1.736,0-1.679,1.718
		c0.145,4.336,1.996,6.555,6.193,7.448c2.247,0.479,4.503,0.45,6.761,0.138c4.283-0.592,7.045-3.471,7.088-7.631
		c0.074-7.242,0.018-14.486,0.036-21.729c0.002-0.541-0.163-0.679-0.684-0.667c-1.554,0.032-3.109,0.046-4.662-0.005
		c-0.678-0.022-0.82,0.208-0.814,0.843C143.773,242.854,143.759,246.491,143.759,250.128z M23.512,258.509
		c0,2.892,0.021,5.783-0.015,8.675c-0.008,0.661,0.104,0.924,0.845,0.887c1.364-0.07,2.737-0.062,4.102-0.003
		c0.699,0.03,0.875-0.164,0.871-0.866c-0.032-5.379-0.018-10.758-0.018-16.137c0-2.043,0-2.038,2.08-2.046
		c0.834-0.003,1.984,0.29,2.422-0.136c0.562-0.547,0.104-1.7,0.188-2.587c0.048-0.513-0.174-0.635-0.646-0.615
		c-0.807,0.033-1.616,0.009-2.424,0.009c-1.635,0-1.635,0-1.619-1.664c0.014-1.521,0.648-2.201,2.179-2.298
		c0.62-0.039,1.244-0.06,1.864-0.034c0.471,0.02,0.676-0.104,0.651-0.617c-0.038-0.775-0.036-1.555,0-2.331
		c0.021-0.46-0.154-0.552-0.582-0.576c-1.585-0.094-3.172-0.167-4.748,0.034c-2.144,0.275-4.073,0.927-4.87,3.25
		c-0.298,0.869-0.284,1.769-0.281,2.67c0.004,1.566,0,1.554-1.537,1.572c-0.802,0.01-1.844-0.34-2.344,0.135
		c-0.552,0.522-0.105,1.588-0.195,2.411c-0.064,0.583,0.102,0.839,0.748,0.794c0.835-0.058,1.681,0.029,2.517-0.027
		c0.659-0.045,0.836,0.172,0.829,0.827C23.492,252.726,23.512,255.617,23.512,258.509z M42.568,249.031
		c0-0.864-0.043-1.732,0.014-2.593c0.042-0.643-0.205-0.776-0.792-0.762c-1.43,0.038-2.861,0.04-4.291,0
		c-0.571-0.017-0.737,0.144-0.735,0.725c0.02,6.997,0.019,13.994,0.001,20.991c-0.001,0.537,0.154,0.682,0.679,0.669
		c1.43-0.034,2.863-0.059,4.29,0.008c0.732,0.034,0.854-0.213,0.85-0.882c-0.031-4.136-0.025-8.271-0.012-12.408
		c0.008-2.474,1.047-4.054,3.125-4.752c1.036-0.348,2.116-0.479,3.212-0.401c0.605,0.044,1.426,0.424,1.752,0.059
		c0.315-0.353,0.131-1.179,0.112-1.796c-0.027-0.861,0.395-2.092-0.153-2.502c-0.882-0.659-2.152-0.229-3.253-0.021
		c-0.03,0.006-0.056,0.028-0.086,0.035C45.184,245.905,43.761,247.257,42.568,249.031z"/>
	<path fill-rule="evenodd" clip-rule="evenodd" fill="#D8D9D8" d="M140.936,48.346c-46.917,0-93.833,0.001-140.749,0.001
		c0-15.766,0.008-31.531-0.024-47.296C0.161,0.245,0.387,0.169,1.096,0.169c46.613,0.019,93.225,0.017,139.837,0.017
		C140.934,16.24,140.935,32.293,140.936,48.346z"/>
	<path fill-rule="evenodd" clip-rule="evenodd" fill="#454545" d="M140.936,48.346c-0.001-16.053-0.001-32.106-0.002-48.159
		c46.138,0,92.276,0.002,138.414-0.017c0.7,0,0.858,0.157,0.857,0.857c-0.022,15.773-0.018,31.546-0.018,47.32
		c-0.34,0.018-0.68,0.051-1.02,0.051c-45.675,0.002-91.35,0.002-137.024,0C141.74,48.397,141.338,48.364,140.936,48.346z"/>
	<path fill-rule="evenodd" clip-rule="evenodd" fill="#0D0D0D" d="M66.551,99.381c3.019-8.67,6.039-17.311,9.032-25.96
		c1.191-3.442,4.914-7.227,10.783-6.568c4.591,0.515,7.988,4.135,8.682,8.297c0.305,1.831,0.127,3.577-0.468,5.294
		c-5.072,14.627-10.148,29.253-15.241,43.874c-1.463,4.2-5.352,7.004-9.688,6.875c-3.721-0.111-6.618-1.79-8.604-4.989
		c-5.636-9.086-11.284-18.165-16.928-27.245c-0.062-0.1-0.146-0.187-0.313-0.399c-0.753,2.167-1.468,4.23-2.186,6.292
		c-2.281,6.557-4.525,13.126-6.857,19.665c-1.572,4.406-5.67,7.069-10.349,6.683c-4.244-0.351-7.913-3.228-9.055-7.931
		c-0.465-1.916-0.26-3.813,0.382-5.663c5.076-14.626,10.142-29.256,15.244-43.873c1.406-4.029,4.338-6.41,8.537-6.851
		c4.296-0.451,7.603,1.41,9.889,5.101c5.629,9.09,11.28,18.166,16.925,27.246C66.366,99.275,66.434,99.299,66.551,99.381z"/>
	<path fill-rule="evenodd" clip-rule="evenodd" fill="#0D0D0D" d="M150.998,108.076c-7.563,0-15.027,0.01-22.492-0.018
		c-0.653-0.002-0.671,0.434-0.799,0.801c-1.821,5.221-3.599,10.458-5.448,15.669c-1.409,3.969-5.217,6.698-9.373,6.672
		c-7.273-0.046-11.887-7.001-9.704-13.342c4.38-12.723,8.788-25.435,13.188-38.151c0.704-2.032,1.412-4.063,2.143-6.086
		c1.691-4.677,5.861-7.344,10.9-6.762c4.084,0.472,7.762,3.478,8.665,8.345c0.341,1.843,0.082,3.689-0.565,5.479
		c-1.064,2.941-2.074,5.903-3.13,8.924c0.664,0,1.25,0,1.835,0c6.75-0.001,13.5-0.019,20.25,0.02
		c0.776,0.005,1.046-0.262,1.279-0.945c1.709-5,3.458-9.986,5.202-14.974c1.468-4.197,4.982-6.92,9.425-7.001
		c5.384-0.097,9.423,3.816,10.217,8.579c0.455,2.73-0.52,5.114-1.361,7.55c-4.769,13.791-9.568,27.57-14.343,41.359
		c-1.607,4.643-5.759,7.105-9.833,6.931c-4.979-0.212-8.652-3.357-9.715-8.059c-0.428-1.892-0.208-3.74,0.43-5.565
		C148.854,114.401,149.9,111.288,150.998,108.076z"/>
	<path fill-rule="evenodd" clip-rule="evenodd" fill="#0D0D0D" d="M221.587,89.32c7.146-4.545,14.083-8.958,21.02-13.369
		c3.548-2.256,7.089-4.523,10.647-6.763c5.934-3.735,13.207-0.805,14.897,5.989c0.906,3.644-0.665,7.856-3.958,9.995
		c-6.767,4.395-13.6,8.689-20.405,13.026c-1.172,0.746-2.343,1.493-3.562,2.27c2.759,2.893,5.481,5.738,8.192,8.595
		c1.84,1.938,3.846,3.737,5.458,5.87c4.494,5.945,0.694,14.848-6.701,15.703c-3.437,0.397-6.386-0.724-8.794-3.256
		c-7.181-7.55-14.377-15.084-21.565-22.626c-0.107-0.112-0.193-0.243-0.399-0.506c-0.616,1.749-1.185,3.343-1.74,4.941
		c-1.745,5.02-3.51,10.033-5.22,15.064c-1.512,4.446-5.688,7.05-9.864,6.882c-5.253-0.211-8.846-3.857-9.702-8.405
		c-0.349-1.85-0.08-3.687,0.543-5.479c5.036-14.478,10.059-28.961,15.084-43.443c1.483-4.273,4.918-6.986,9.43-7.098
		c5.028-0.124,9.154,3.33,10.175,8.184c0.485,2.308-0.046,4.463-0.822,6.613C223.395,84.018,222.547,86.549,221.587,89.32z"/>
	<path fill-rule="evenodd" clip-rule="evenodd" fill="#0D0D0D" d="M43.079,167.757c-0.233,1.461-0.471,2.92-0.698,4.381
		c-0.856,5.515-1.708,11.03-2.562,16.546c-0.635,4.106-1.282,8.211-1.887,12.321c-0.07,0.478-0.202,0.607-0.667,0.604
		c-3.141-0.018-6.283-0.029-9.424,0.009c-0.586,0.008-0.659-0.302-0.732-0.702c-0.763-4.207-1.518-8.415-2.283-12.622
		c-1.209-6.646-2.426-13.289-3.636-19.935c-0.789-4.328-1.553-8.66-2.375-12.982c-0.125-0.658,0.092-0.695,0.619-0.691
		c2.55,0.02,5.101,0.025,7.651-0.004c0.547-0.007,0.719,0.141,0.799,0.695c0.637,4.419,1.317,8.833,1.982,13.248
		c0.725,4.814,1.447,9.629,2.167,14.444c0.303,2.022,0.596,4.047,0.924,6.273c0.423-1.027,0.449-1.954,0.592-2.839
		c1.286-7.988,2.535-15.983,3.796-23.976c0.377-2.389,0.769-4.775,1.132-7.166c0.082-0.539,0.322-0.688,0.862-0.682
		c2.55,0.031,5.101,0.033,7.651,0c0.605-0.008,0.744,0.188,0.836,0.771c1.638,10.382,3.311,20.758,4.972,31.136
		c0.141,0.881,0.202,1.775,0.527,2.821c0.662-4.42,1.293-8.649,1.927-12.879c0.712-4.753,1.427-9.506,2.14-14.26
		c0.345-2.3,0.709-4.598,1.021-6.901c0.068-0.507,0.215-0.689,0.739-0.685c2.612,0.022,5.226,0.021,7.838,0.001
		c0.521-0.004,0.607,0.137,0.514,0.646c-2.342,12.737-4.668,25.478-6.992,38.218c-0.456,2.499-0.909,5-1.329,7.505
		c-0.074,0.441-0.244,0.556-0.66,0.554c-3.173-0.014-6.345-0.016-9.518,0.002c-0.449,0.003-0.585-0.177-0.646-0.579
		c-0.874-5.795-1.751-11.589-2.644-17.381c-0.774-5.025-1.57-10.048-2.354-15.072c-0.043-0.275-0.067-0.554-0.101-0.83
		C43.2,167.75,43.139,167.754,43.079,167.757z"/>
	<path fill-rule="evenodd" clip-rule="evenodd" fill="#0D0D0D" d="M155.723,178.33c0.455,0.363,0.983,0.335,1.454,0.445
		c3.15,0.739,4.84,2.779,5.42,5.884c0.384,2.057,0.469,4.136,0.528,6.214c0.067,2.395,0.186,4.784,0.414,7.166
		c0.109,1.135,0.466,2.187,1.42,2.926c0.172,0.133,0.416,0.243,0.312,0.497c-0.107,0.262-0.386,0.132-0.582,0.132
		c-3.018,0.009-6.034-0.02-9.051,0.027c-0.607,0.01-0.834-0.291-1.035-0.716c-0.656-1.385-0.689-2.895-0.756-4.374
		c-0.128-2.826-0.149-5.656-0.229-8.485c-0.034-1.215-0.24-2.395-0.719-3.529c-0.716-1.703-2.039-2.574-3.806-2.678
		c-1.86-0.109-3.731-0.022-5.597-0.069c-0.725-0.019-0.51,0.463-0.511,0.811c-0.009,5.411-0.006,10.823-0.006,16.234
		c0,0.716-0.022,1.432,0.008,2.146c0.02,0.449-0.058,0.657-0.59,0.652c-2.799-0.028-5.599-0.02-8.397-0.006
		c-0.391,0.002-0.588-0.09-0.532-0.515c0.024-0.184,0.004-0.373,0.004-0.56c0-14.929,0.007-29.857-0.018-44.786
		c-0.001-0.817,0.158-1.084,1.04-1.075c6.033,0.06,12.067,0.025,18.1,0.091c2.003,0.021,3.917,0.575,5.688,1.538
		c2.691,1.464,4.199,3.804,4.814,6.734c0.583,2.774,0.539,5.57-0.183,8.311C161.932,175.074,159.611,177.511,155.723,178.33z
		 M142.98,168.371c0,2.052,0.011,4.103-0.009,6.154c-0.004,0.451,0.074,0.663,0.599,0.646c1.583-0.055,3.172,0.002,4.753-0.093
		c2.859-0.172,4.774-1.753,5.404-4.4c0.267-1.123,0.346-2.274,0.241-3.426c-0.27-2.971-1.626-4.723-4.206-5.338
		c-2.111-0.503-4.271-0.182-6.408-0.26c-0.547-0.021-0.365,0.395-0.367,0.656C142.975,164.33,142.98,166.351,142.98,168.371z"/>
	<path fill-rule="evenodd" clip-rule="evenodd" fill="#0D0D0D" d="M230.623,178.177c0-7.524,0.011-15.048-0.016-22.572
		c-0.003-0.726,0.176-0.934,0.919-0.928c5.285,0.044,10.572-0.036,15.855,0.066c7.149,0.139,11.58,3.77,13.187,10.755
		c1.143,4.97,1.233,10.033,1.044,15.103c-0.135,3.6-0.413,7.187-1.396,10.677c-1.21,4.305-3.482,7.723-7.886,9.315
		c-1.972,0.714-4.032,0.991-6.12,0.999c-4.912,0.021-9.825-0.009-14.737,0.027c-0.71,0.005-0.869-0.178-0.867-0.871
		C230.633,193.225,230.623,185.701,230.623,178.177z M240.09,178.074c0,5.223,0.013,10.446-0.016,15.67
		c-0.004,0.684,0.147,0.936,0.868,0.896c1.147-0.061,2.301,0.007,3.45-0.021c3.674-0.087,5.547-1.335,6.616-4.452
		c0.279-0.814,0.483-1.668,0.611-2.521c0.682-4.568,0.638-9.171,0.493-13.769c-0.066-2.105-0.194-4.214-0.669-6.286
		c-0.944-4.119-3.189-5.934-7.419-5.939c-1.026-0.001-2.055,0.046-3.077-0.016c-0.691-0.042-0.882,0.146-0.877,0.859
		C240.105,167.689,240.09,172.882,240.09,178.074z"/>
	<path fill-rule="evenodd" clip-rule="evenodd" fill="#0D0D0D" d="M113.487,178.196c-0.039,4.227-0.065,8.462-0.947,12.617
		c-0.841,3.966-2.476,7.48-6.189,9.62c-2.089,1.204-4.391,1.629-6.759,1.818c-2.812,0.226-5.604,0.09-8.306-0.72
		c-4.631-1.386-7.14-4.762-8.413-9.247c-1.002-3.531-1.163-7.164-1.271-10.79c-0.139-4.663-0.08-9.328,0.538-13.965
		c0.333-2.5,0.969-4.92,2.192-7.146c2.065-3.761,5.327-5.786,9.508-6.37c2.909-0.406,5.835-0.414,8.709,0.25
		c5.26,1.216,8.231,4.745,9.641,9.778c1.083,3.868,1.125,7.853,1.293,11.821C113.515,176.64,113.487,177.419,113.487,178.196z
		 M91.112,178.11c0,1.897-0.065,3.797,0.016,5.69c0.112,2.6,0.265,5.194,1.035,7.724c1.119,3.675,4.128,4.566,7.259,3.756
		c2.17-0.562,3.069-2.277,3.608-4.231c0.825-2.991,0.911-6.074,0.931-9.146c0.032-4.97,0.231-9.949-0.544-14.891
		c-0.198-1.259-0.526-2.478-1.111-3.621c-0.996-1.943-2.682-2.653-4.75-2.662c-2.065-0.008-3.767,0.68-4.783,2.61
		c-0.583,1.107-0.902,2.301-1.117,3.522C91.001,170.586,91.099,174.353,91.112,178.11z"/>
	<path fill-rule="evenodd" clip-rule="evenodd" fill="#0D0D0D" d="M186.267,178.09c0-7.496,0.01-14.992-0.016-22.489
		c-0.002-0.705,0.141-0.942,0.898-0.927c2.487,0.055,4.978,0.062,7.464-0.001c0.878-0.022,1.137,0.17,1.134,1.1
		c-0.036,12.256-0.023,24.512-0.023,36.767c0,1.287,0,1.287,1.27,1.287c4.853,0,9.705,0.017,14.558-0.018
		c0.736-0.006,0.939,0.188,0.92,0.923c-0.052,1.989-0.051,3.982,0,5.972c0.018,0.718-0.16,0.918-0.901,0.915
		c-8.119-0.029-16.237-0.029-24.355,0.001c-0.759,0.002-0.972-0.152-0.968-0.946C186.281,193.146,186.267,185.618,186.267,178.09z"
		/>
	<path fill-rule="evenodd" clip-rule="evenodd" fill="#FFFCFB" d="M255.8,260.165c0-1.428,0-2.855,0-4.283
		c0-5.537,0.011-11.074-0.014-16.611c-0.003-0.67,0.13-0.932,0.863-0.898c1.397,0.063,2.8,0.046,4.198,0.005
		c0.594-0.018,0.807,0.129,0.805,0.764c-0.019,9.394-0.018,18.789-0.001,28.183c0.001,0.562-0.134,0.751-0.724,0.74
		c-2.021-0.036-4.044-0.036-6.065,0.001c-0.553,0.01-0.796-0.191-1.029-0.67c-3.391-6.949-6.805-13.889-10.213-20.83
		c-0.147-0.3-0.302-0.596-0.498-0.983c-0.262,0.358-0.169,0.697-0.169,1.002c-0.006,6.813-0.023,13.625,0.018,20.438
		c0.005,0.88-0.252,1.09-1.081,1.048c-1.334-0.068-2.675-0.041-4.012-0.007c-0.541,0.014-0.759-0.095-0.758-0.705
		c0.02-9.426,0.017-18.851,0.005-28.276c-0.001-0.508,0.121-0.71,0.674-0.702c2.084,0.03,4.169,0.036,6.252-0.003
		c0.586-0.012,0.708,0.343,0.906,0.735c3.391,6.741,6.789,13.479,10.187,20.218c0.147,0.294,0.304,0.583,0.456,0.875
		C255.666,260.19,255.733,260.178,255.8,260.165z"/>
	<path fill-rule="evenodd" clip-rule="evenodd" fill="#FFFCFB" d="M98.388,248.489c2.879-3.438,6.499-3.941,10.458-2.913
		c2.469,0.642,3.846,2.483,3.87,5.066c0.053,5.598,0.013,11.196,0.031,16.795c0.001,0.499-0.151,0.632-0.634,0.623
		c-1.461-0.028-2.925-0.051-4.384,0.007c-0.694,0.028-0.794-0.227-0.792-0.843c0.025-4.603,0.015-9.206,0.012-13.809
		c0-0.621-0.007-1.237-0.118-1.857c-0.378-2.107-1.606-3.06-3.726-2.842c-2.823,0.29-4.276,1.866-4.288,4.73
		c-0.02,4.479-0.04,8.958,0.021,13.436c0.013,0.995-0.272,1.251-1.221,1.188c-1.27-0.084-2.551-0.061-3.823-0.005
		c-0.678,0.029-0.815-0.205-0.812-0.84c0.027-4.635,0.015-9.269,0.014-13.902c0-0.28-0.005-0.561,0-0.84
		c0.062-3.508-2.3-4.233-4.975-3.545c-1.981,0.511-3.083,2.058-3.086,4.123c-0.006,4.696-0.018,9.393,0.015,14.089
		c0.005,0.719-0.16,0.951-0.906,0.917c-1.428-0.064-2.861-0.04-4.291-0.007c-0.5,0.012-0.619-0.154-0.618-0.631
		c0.013-7.028,0.015-14.058-0.002-21.086c-0.001-0.548,0.178-0.679,0.693-0.666c1.336,0.032,2.676,0.05,4.011-0.005
		c0.662-0.027,0.79,0.233,0.749,0.807c-0.041,0.573-0.009,1.151-0.009,1.985c1.968-2.319,4.339-3.323,7.078-3.33
		C94.386,245.129,96.95,245.636,98.388,248.489z"/>
	<path fill-rule="evenodd" clip-rule="evenodd" fill="#FFFCFB" d="M181.18,268.05c-1.919,0-3.815-0.015-5.711,0.011
		c-0.466,0.006-0.628-0.179-0.759-0.6c-0.626-2.006-1.313-3.994-1.928-6.003c-0.168-0.547-0.422-0.702-0.979-0.697
		c-3.265,0.027-6.53,0.029-9.796-0.003c-0.538-0.006-0.757,0.177-0.913,0.652c-0.666,2.026-1.376,4.038-2.03,6.068
		c-0.14,0.434-0.328,0.586-0.778,0.581c-1.896-0.022-3.792-0.01-5.805-0.01c0.79-2.174,1.548-4.281,2.321-6.383
		c2.719-7.394,5.463-14.778,8.142-22.187c0.321-0.891,0.724-1.152,1.641-1.115c1.987,0.08,3.979,0.03,5.97,0.02
		c0.404-0.002,0.67,0.041,0.83,0.516c3.268,9.657,6.556,19.307,9.838,28.958C181.231,267.884,181.211,267.918,181.18,268.05z
		 M167.163,242.574c-0.062-0.002-0.123-0.003-0.185-0.004c-1.457,4.643-2.914,9.285-4.371,13.928
		c-0.167,0.533,0.164,0.529,0.546,0.528c2.578-0.009,5.157-0.024,7.734,0.011c0.603,0.008,0.587-0.252,0.465-0.656
		C169.958,251.778,168.56,247.176,167.163,242.574z"/>
	<path fill-rule="evenodd" clip-rule="evenodd" fill="#FFFCFB" d="M205.493,268.05c0.966-2.643,1.901-5.221,2.849-7.794
		c2.582-7.017,5.18-14.027,7.735-21.053c0.23-0.633,0.503-0.846,1.173-0.83c2.082,0.047,4.167,0.029,6.25,0.008
		c0.497-0.005,0.754,0.101,0.935,0.634c3.241,9.568,6.511,19.127,9.771,28.688c0.028,0.083,0.015,0.18,0.024,0.347
		c-1.968,0-3.918-0.012-5.867,0.009c-0.475,0.005-0.528-0.29-0.637-0.627c-0.643-2.001-1.317-3.992-1.943-5.998
		c-0.153-0.488-0.352-0.68-0.896-0.675c-3.297,0.03-6.594,0.037-9.89-0.006c-0.578-0.007-0.74,0.246-0.888,0.686
		c-0.657,1.964-1.356,3.914-1.971,5.89c-0.187,0.6-0.466,0.746-1.05,0.735C209.256,268.027,207.423,268.05,205.493,268.05z
		 M220.167,242.529c-0.132,0.075-0.173,0.085-0.18,0.105c-1.446,4.591-2.887,9.184-4.339,13.772
		c-0.167,0.526,0.021,0.628,0.518,0.624c2.579-0.021,5.157-0.028,7.736,0.005c0.592,0.008,0.593-0.235,0.466-0.652
		C222.973,251.779,221.575,247.175,220.167,242.529z"/>
	<path fill-rule="evenodd" clip-rule="evenodd" fill="#FFFCFB" d="M184.12,253.201c0-4.632,0.016-9.264-0.017-13.896
		c-0.005-0.728,0.174-0.942,0.923-0.935c3.792,0.042,7.586-0.006,11.378,0.034c2.472,0.025,4.894,0.367,7.023,1.762
		c4.813,3.15,4.545,10.936-0.471,13.911c-2.201,1.306-4.625,1.698-7.139,1.7c-1.555,0.002-3.11,0.036-4.663-0.015
		c-0.72-0.024-0.952,0.16-0.942,0.92c0.043,3.45-0.018,6.902,0.043,10.352c0.016,0.895-0.272,1.068-1.081,1.032
		c-1.396-0.063-2.799-0.06-4.195,0c-0.709,0.031-0.881-0.18-0.876-0.876C184.135,262.528,184.12,257.865,184.12,253.201z
		 M190.231,247.083c0,1.492-0.003,2.983,0.003,4.475c0.001,0.287-0.117,0.665,0.404,0.646c2.044-0.078,4.104,0.209,6.132-0.209
		c2.488-0.513,3.896-2.264,3.916-4.801c0.021-2.798-1.149-4.318-3.799-4.918c-2.022-0.457-4.08-0.263-6.124-0.314
		c-0.498-0.013-0.54,0.26-0.537,0.647C190.238,244.101,190.231,245.592,190.231,247.083z"/>
	<path fill-rule="evenodd" clip-rule="evenodd" fill="#FFFCFB" d="M52.717,256.932c0.075-1.98,0.158-3.746,0.681-5.457
		c1.02-3.339,3.257-5.324,6.664-6.011c2.534-0.511,5.058-0.479,7.563,0.183c3.041,0.803,5.045,2.732,5.905,5.734
		c1.011,3.53,1.053,7.106,0.033,10.65c-0.978,3.4-3.228,5.473-6.697,6.231c-2.41,0.527-4.82,0.528-7.195-0.085
		c-3.943-1.02-5.922-3.81-6.651-7.655C52.781,259.265,52.801,257.988,52.717,256.932z M58.619,256.991
		c0,0.963-0.018,1.926,0.008,2.888c0.012,0.431,0.111,0.859,0.173,1.289c0.333,2.322,1.416,3.659,3.365,4.019
		c0.663,0.122,1.362,0.085,2.042,0.063c1.745-0.058,2.956-0.968,3.579-2.612c0.492-1.3,0.562-2.663,0.627-4.023
		c0.116-2.391,0.141-4.784-0.615-7.095c-0.698-2.133-2.116-3.084-4.433-3.064c-2.148,0.018-3.52,1.047-4.217,3.109
		C58.549,253.333,58.589,255.165,58.619,256.991z"/>
	<path fill-rule="evenodd" clip-rule="evenodd" fill="#FFFCFB" d="M143.759,250.128c0-3.637,0.015-7.274-0.014-10.911
		c-0.006-0.635,0.137-0.865,0.814-0.843c1.553,0.051,3.108,0.037,4.662,0.005c0.521-0.012,0.686,0.126,0.684,0.667
		c-0.019,7.243,0.038,14.487-0.036,21.729c-0.043,4.16-2.805,7.039-7.088,7.631c-2.258,0.313-4.515,0.341-6.761-0.138
		c-4.197-0.894-6.048-3.112-6.193-7.448c-0.057-1.718-0.057-1.718,1.679-1.718c1.088,0,2.18,0.057,3.263-0.019
		c0.784-0.055,0.934,0.249,0.904,0.947c-0.035,0.831-0.041,1.667,0.182,2.496c0.362,1.347,1.215,2.1,2.559,2.375
		c0.615,0.126,1.227,0.205,1.85,0.146c2.26-0.21,3.433-1.488,3.459-3.916c0.039-3.668,0.01-7.337,0.01-11.005
		C143.742,250.128,143.75,250.128,143.759,250.128z"/>
	<path fill-rule="evenodd" clip-rule="evenodd" fill="#FFFCFB" d="M23.512,258.509c0-2.892-0.02-5.783,0.016-8.674
		c0.008-0.655-0.169-0.872-0.829-0.827c-0.836,0.057-1.681-0.03-2.517,0.027c-0.646,0.045-0.813-0.211-0.748-0.794
		c0.09-0.823-0.356-1.889,0.195-2.411c0.5-0.475,1.542-0.125,2.344-0.135c1.537-0.019,1.541-0.006,1.537-1.572
		c-0.002-0.901-0.017-1.801,0.281-2.67c0.797-2.323,2.727-2.975,4.87-3.25c1.576-0.201,3.163-0.128,4.748-0.034
		c0.428,0.024,0.603,0.116,0.582,0.576c-0.036,0.776-0.038,1.556,0,2.331c0.025,0.513-0.181,0.637-0.651,0.617
		c-0.62-0.025-1.244-0.005-1.864,0.034c-1.53,0.097-2.165,0.776-2.179,2.298c-0.016,1.664-0.016,1.664,1.619,1.664
		c0.808,0,1.618,0.024,2.424-0.009c0.472-0.02,0.694,0.103,0.646,0.615c-0.083,0.887,0.374,2.04-0.188,2.587
		c-0.438,0.426-1.588,0.133-2.422,0.136c-2.08,0.008-2.08,0.003-2.08,2.046c0,5.379-0.015,10.758,0.018,16.137
		c0.004,0.702-0.172,0.896-0.871,0.866c-1.365-0.059-2.738-0.067-4.102,0.003c-0.741,0.037-0.853-0.226-0.845-0.887
		C23.532,264.292,23.512,261.4,23.512,258.509z"/>
	<path fill-rule="evenodd" clip-rule="evenodd" fill="#FFFCFB" d="M42.568,249.031c1.193-1.774,2.615-3.126,4.714-3.631
		c0.03-0.007,0.056-0.029,0.086-0.035c1.101-0.208,2.371-0.638,3.253,0.021c0.548,0.41,0.126,1.641,0.153,2.502
		c0.019,0.617,0.203,1.443-0.112,1.796c-0.326,0.365-1.147-0.015-1.752-0.059c-1.096-0.078-2.176,0.054-3.212,0.401
		c-2.079,0.698-3.117,2.278-3.125,4.752c-0.014,4.137-0.02,8.272,0.012,12.408c0.005,0.669-0.118,0.916-0.85,0.882
		c-1.427-0.066-2.86-0.042-4.29-0.008c-0.525,0.013-0.681-0.132-0.679-0.669c0.018-6.997,0.019-13.994-0.001-20.991
		c-0.001-0.581,0.164-0.741,0.735-0.725c1.429,0.04,2.861,0.038,4.291,0c0.588-0.015,0.835,0.119,0.792,0.762
		C42.525,247.299,42.568,248.167,42.568,249.031z"/>
	<path fill-rule="evenodd" clip-rule="evenodd" fill="#FEFEFE" d="M142.98,168.371c0-2.021-0.006-4.041,0.007-6.061
		c0.002-0.262-0.18-0.677,0.367-0.656c2.137,0.078,4.297-0.243,6.408,0.26c2.58,0.615,3.937,2.367,4.206,5.338
		c0.104,1.151,0.025,2.303-0.241,3.426c-0.63,2.647-2.545,4.229-5.404,4.4c-1.581,0.095-3.17,0.038-4.753,0.093
		c-0.524,0.018-0.603-0.194-0.599-0.646C142.991,172.474,142.98,170.423,142.98,168.371z"/>
	<path fill-rule="evenodd" clip-rule="evenodd" fill="#FFFCFB" d="M240.09,178.074c0-5.192,0.016-10.385-0.019-15.577
		c-0.005-0.713,0.186-0.901,0.877-0.859c1.022,0.062,2.051,0.015,3.077,0.016c4.229,0.006,6.475,1.82,7.419,5.939
		c0.475,2.072,0.603,4.181,0.669,6.286c0.145,4.598,0.188,9.2-0.493,13.769c-0.128,0.853-0.332,1.706-0.611,2.521
		c-1.069,3.117-2.942,4.365-6.616,4.452c-1.149,0.027-2.303-0.04-3.45,0.021c-0.721,0.039-0.872-0.213-0.868-0.896
		C240.103,188.521,240.09,183.297,240.09,178.074z"/>
	<path fill-rule="evenodd" clip-rule="evenodd" fill="#FEFEFE" d="M91.112,178.11c-0.014-3.758-0.111-7.524,0.542-11.249
		c0.214-1.222,0.534-2.415,1.117-3.522c1.017-1.931,2.718-2.618,4.783-2.61c2.068,0.009,3.754,0.719,4.75,2.662
		c0.585,1.144,0.914,2.362,1.111,3.621c0.775,4.941,0.577,9.921,0.544,14.891c-0.02,3.072-0.105,6.155-0.931,9.146
		c-0.539,1.954-1.438,3.67-3.608,4.231c-3.13,0.811-6.14-0.081-7.259-3.756c-0.77-2.529-0.923-5.124-1.035-7.724
		C91.047,181.907,91.112,180.008,91.112,178.11z"/>
	<path fill-rule="evenodd" clip-rule="evenodd" fill="#DF2126" d="M167.163,242.574c1.396,4.602,2.795,9.204,4.189,13.807
		c0.122,0.404,0.138,0.664-0.465,0.656c-2.577-0.035-5.156-0.02-7.734-0.011c-0.382,0.001-0.713,0.005-0.546-0.528
		c1.457-4.643,2.914-9.285,4.371-13.928C167.04,242.571,167.102,242.572,167.163,242.574z"/>
	<path fill-rule="evenodd" clip-rule="evenodd" fill="#DF2126" d="M220.167,242.529c1.408,4.646,2.806,9.25,4.201,13.854
		c0.127,0.417,0.126,0.66-0.466,0.652c-2.579-0.033-5.157-0.025-7.736-0.005c-0.497,0.004-0.685-0.098-0.518-0.624
		c1.452-4.589,2.893-9.182,4.339-13.772C219.994,242.614,220.035,242.604,220.167,242.529z"/>
	<path fill-rule="evenodd" clip-rule="evenodd" fill="#DF2126" d="M190.231,247.083c0-1.491,0.007-2.982-0.005-4.475
		c-0.003-0.388,0.039-0.66,0.537-0.647c2.044,0.052,4.102-0.143,6.124,0.314c2.649,0.6,3.82,2.12,3.799,4.918
		c-0.021,2.537-1.428,4.288-3.916,4.801c-2.028,0.418-4.088,0.131-6.132,0.209c-0.521,0.02-0.403-0.358-0.404-0.646
		C190.229,250.066,190.231,248.575,190.231,247.083z"/>
	<path fill-rule="evenodd" clip-rule="evenodd" fill="#DF2126" d="M58.619,256.991c-0.03-1.826-0.069-3.658,0.529-5.428
		c0.698-2.063,2.069-3.092,4.217-3.109c2.317-0.02,3.735,0.932,4.433,3.064c0.756,2.311,0.731,4.704,0.615,7.095
		c-0.066,1.36-0.135,2.724-0.627,4.023c-0.623,1.645-1.834,2.555-3.579,2.612c-0.68,0.022-1.38,0.06-2.042-0.063
		c-1.949-0.359-3.032-1.696-3.365-4.019c-0.062-0.43-0.161-0.858-0.173-1.289C58.601,258.917,58.619,257.954,58.619,256.991z"/>
</g>
</svg>
