<?xml version="1.0" encoding="utf-8"?>
<!-- Generator: Adobe Illustrator 16.0.0, SVG Export Plug-In . SVG Version: 6.00 Build 0)  -->
<!DOCTYPE svg PUBLIC "-//W3C//DTD SVG 1.1//EN" "http://www.w3.org/Graphics/SVG/1.1/DTD/svg11.dtd">
<svg version="1.1" id="Layer_1" xmlns="http://www.w3.org/2000/svg" xmlns:xlink="http://www.w3.org/1999/xlink" x="0px" y="0px"
	 width="280px" height="280px" viewBox="0 0 280 280" enable-background="new 0 0 280 280" xml:space="preserve">
<rect y="-0.042" fill-rule="evenodd" clip-rule="evenodd" fill="#F26822" width="280" height="280"/>
<polygon fill="#ED1D75" points="152.131,172.579 153.898,176.395 155.667,180.211 152.131,180.211 148.594,180.211 150.362,176.395 
	"/>
<g>
	<path fill-rule="evenodd" clip-rule="evenodd" fill="#FFFFFF" d="M251.773,180.561c-0.254,0.768-0.436,1.572-0.872,2.241
		c-0.777,1.188-1.769,1.873-3.014,1.989c-0.25,0.024-0.501,0.028-0.752,0.028c-6.334,0.001-12.668-0.004-19.001,0.014
		c-0.394,0-0.606-0.164-0.817-0.544c-4.101-7.363-8.212-14.717-12.321-22.072c-0.089-0.16-0.184-0.315-0.305-0.523
		c-0.103,0.247-0.064,0.462-0.064,0.663c-0.002,7.328-0.008,14.656,0.008,21.985c0.001,0.541-0.103,0.687-0.556,0.685
		c-7.811-0.018-15.62-0.018-23.431,0c-0.438,0-0.526-0.153-0.526-0.662c0.011-19.861,0.006-39.722,0.011-59.583
		c0.002-6.889,3.563-12.789,8.848-14.696c5.785-2.087,12.024,1.406,14.517,8.119c0.785,2.115,1.13,4.333,1.129,6.645
		c-0.004,4.934-0.001,9.868-0.001,14.801c0,0.214,0,0.427,0,0.702c0.199-0.13,0.239-0.327,0.313-0.484
		c3.576-7.728,7.131-15.471,10.734-23.18c2.003-4.284,5.063-6.825,9.058-7.514c6.456-1.115,12.429,4.118,13.654,11.9
		c0.568,3.604,0.114,7.035-1.347,10.265c-3.088,6.824-6.162,13.658-9.252,20.48c-0.154,0.344-0.154,0.572,0.028,0.906
		c4.351,7.935,8.685,15.882,13.036,23.815c0.412,0.75,0.68,1.563,0.924,2.398C251.773,179.48,251.773,180.021,251.773,180.561z"/>
	<path fill-rule="evenodd" clip-rule="evenodd" fill="#FFFFFF" d="M24.987,146.635c0.18-0.429,0.116-0.905,0.151-1.355
		c0.488-6.168,2.043-11.907,4.777-17.122c4.98-9.499,12.021-15.419,21.08-17.734c1.938-0.495,3.904-0.661,5.881-0.784
		c0.908-0.057,1.807-0.158,2.72-0.084c3.634,0.292,7.14,1.269,10.46,3.075c9.455,5.142,15.626,13.806,18.481,25.949
		c0.771,3.281,1.117,6.648,1.117,10.063c0.004,11.974-0.001,23.947,0.013,35.92c0.001,0.547-0.108,0.675-0.553,0.673
		c-7.795-0.018-15.589-0.019-23.384,0.002c-0.459,0.001-0.548-0.153-0.547-0.683c0.013-11.488,0.013-22.976,0.008-34.463
		c-0.001-3.454-0.442-6.802-1.77-9.903c-0.706-1.648-1.51-3.219-2.757-4.366c-2.266-2.085-5.077-1.924-7.131,0.481
		c-1.871,2.19-2.964,4.927-3.562,7.977c-0.383,1.951-0.515,3.938-0.515,5.938c-0.001,11.415,0,22.83-0.002,34.245
		c0,0.885,0.099,0.757-0.641,0.757c-7.765,0.003-15.53,0.002-23.296,0.002c-0.177,0-0.354-0.01-0.531-0.016
		C24.987,172.349,24.987,159.492,24.987,146.635z"/>
	<path fill-rule="evenodd" clip-rule="evenodd" fill="#FFFFFF" d="M174.442,145.47c-3.898,0-7.796,0-11.693,0
		c-0.672,0-0.643-0.005-0.721-0.802c-0.301-3.06-0.988-5.978-2.255-8.66c-0.585-1.239-1.319-2.346-2.262-3.22
		c-2.168-2.012-4.777-1.679-6.738,0.902c-1.599,2.104-2.523,4.669-3.16,7.384c-0.869,3.707-1.048,7.494-0.747,11.328
		c0.288,3.68,1.079,7.156,2.689,10.318c0.708,1.392,1.552,2.633,2.742,3.451c1.78,1.222,3.655,0.946,5.365-0.788
		c0.951-0.966,1.779-2.103,2.307-3.452c0.867-2.215,1.574-4.519,1.889-6.968c0.081-0.639,0.157-1.278,0.221-1.92
		c0.026-0.261,0.104-0.393,0.333-0.355c0.102,0.018,0.206,0.003,0.31,0.003c7.796,0,15.591,0,23.387,0c0.641,0,0.636,0,0.568,0.797
		c-0.353,4.16-1.194,8.168-2.671,11.94c-4.584,11.707-12.047,19.111-22.434,22.018c-3.92,1.098-7.9,1.197-11.872,0.443
		c-7.403-1.403-13.698-5.403-18.801-12.132c-3.981-5.249-6.616-11.363-7.883-18.345c-0.657-3.62-0.888-7.281-0.69-10.988
		c0.447-8.359,2.789-15.831,7.114-22.329c4.829-7.253,11.023-11.839,18.524-13.792c2.597-0.677,5.222-0.96,7.869-0.818
		c6.72,0.361,12.823,2.923,18.196,7.881c6.579,6.071,10.597,14.133,12.251,23.964c0.208,1.23,0.292,2.489,0.456,3.73
		c0.066,0.509-0.203,0.406-0.425,0.406c-3.558,0.002-7.117,0.001-10.675,0.001C175.239,145.47,174.841,145.47,174.442,145.47z"/>
	<path fill-rule="evenodd" clip-rule="evenodd" fill="#FFFFFF" d="M94.236,157.089c0-8.678-0.003-17.356,0.001-26.036
		c0.002-4.486,1.359-8.25,4.069-11.292c1.489-1.67,2.978-3.34,4.217-5.306c0.505-0.801,0.956-1.641,1.187-2.626
		c0.275-1.171,0.025-2.241-0.459-3.25c-0.746-1.553-1.781-2.818-2.802-4.09c-1.446-1.801-2.958-3.525-4.356-5.379
		c-2.655-3.521-3.802-7.742-3.49-12.485c0.492-7.475,5.032-13.536,11.161-14.822c6.802-1.427,12.849,2.766,15.328,9.992
		c2.116,6.168,1.327,11.988-2.172,17.15c-1.474,2.175-3.147,4.146-4.766,6.169c-0.722,0.902-1.416,1.837-2.005,2.876
		c-1.124,1.98-1.149,3.577-0.078,5.595c0.783,1.475,1.791,2.72,2.786,3.974c1.109,1.397,2.317,2.68,3.337,4.176
		c1.922,2.814,2.853,6.092,2.855,9.743c0.009,17.664,0.002,35.327,0.013,52.99c0,0.471-0.127,0.556-0.479,0.556
		c-7.958-0.012-15.915-0.013-23.872,0.003c-0.401,0.001-0.482-0.141-0.482-0.604C94.239,175.312,94.236,166.2,94.236,157.089z"/>
</g>
</svg>
