<?xml version="1.0" encoding="utf-8"?>
<!-- Generator: Adobe Illustrator 16.0.0, SVG Export Plug-In . SVG Version: 6.00 Build 0)  -->
<!DOCTYPE svg PUBLIC "-//W3C//DTD SVG 1.1//EN" "http://www.w3.org/Graphics/SVG/1.1/DTD/svg11.dtd">
<svg version="1.1" id="Layer_1" xmlns="http://www.w3.org/2000/svg" xmlns:xlink="http://www.w3.org/1999/xlink" x="0px" y="0px"
	 width="280px" height="280px" viewBox="0 0 280 280" enable-background="new 0 0 280 280" xml:space="preserve">
<g>
	<path fill="#9AC0E6" d="M281.435,228.063c0,28.685-23.424,51.938-52.313,51.938H54.747c-28.891,0-52.313-23.253-52.313-51.938
		V54.938C2.435,26.253,25.856,3,54.747,3h174.375c28.889,0,52.313,23.253,52.313,51.938V228.063z"/>
	<linearGradient id="SVGID_1_" gradientUnits="userSpaceOnUse" x1="54.083" y1="31.6484" x2="229.7825" y2="207.3479">
		<stop  offset="0" style="stop-color:#545554"/>
		<stop  offset="0.6207" style="stop-color:#545554"/>
		<stop  offset="0.6305" style="stop-color:#3C3C3C"/>
	</linearGradient>
	<path fill="url(#SVGID_1_)" d="M259.999,154.806c0,29.399-23.423,53.242-52.313,53.242H76.18
		c-28.891,0-52.313-23.843-52.313-53.242V84.191c0-29.403,23.421-53.24,52.313-53.24h131.507c28.89,0,52.313,23.837,52.313,53.24
		V154.806z"/>
	<path fill="#545554" d="M111.146,247.676c0,2.314-1.89,4.191-4.224,4.191l0,0c-2.333,0-4.223-1.877-4.223-4.191v-18.934
		c0-2.322,1.89-4.195,4.223-4.195l0,0c2.333,0,4.224,1.873,4.224,4.195V247.676z"/>
	<path fill="#545554" d="M128.314,247.676c0,2.314-1.893,4.191-4.226,4.191l0,0c-2.333,0-4.223-1.877-4.223-4.191v-18.934
		c0-2.322,1.89-4.195,4.223-4.195l0,0c2.333,0,4.226,1.873,4.226,4.195V247.676z"/>
	<path fill="#545554" d="M146.162,247.676c0,2.314-1.895,4.191-4.228,4.191l0,0c-2.333,0-4.224-1.877-4.224-4.191v-18.934
		c0-2.322,1.891-4.195,4.224-4.195l0,0c2.333,0,4.228,1.873,4.228,4.195V247.676z"/>
	<path fill="#545554" d="M163.187,247.676c0,2.314-1.891,4.191-4.219,4.191l0,0c-2.337,0-4.228-1.877-4.228-4.191v-18.934
		c0-2.322,1.891-4.195,4.228-4.195l0,0c2.328,0,4.219,1.873,4.219,4.195V247.676z"/>
	<path fill="#545554" d="M180.896,247.676c0,2.314-1.891,4.191-4.219,4.191l0,0c-2.337,0-4.228-1.877-4.228-4.191v-18.934
		c0-2.322,1.891-4.195,4.228-4.195l0,0c2.328,0,4.219,1.873,4.219,4.195V247.676z"/>
	<path fill="#FFFFFF" stroke="#68A0D6" stroke-width="7" stroke-miterlimit="10" d="M74.364,244.156
		c0,12.181-9.881,22.047-22.069,22.047c-12.186,0-22.067-9.866-22.067-22.047c0-12.176,9.881-22.048,22.067-22.048
		C64.483,222.108,74.364,231.98,74.364,244.156z"/>
	<path fill="#FFFFFF" stroke="#68A0D6" stroke-width="7" stroke-miterlimit="10" d="M252.28,239.828
		c0,12.181-9.876,22.047-22.073,22.047c-12.188,0-22.064-9.866-22.064-22.047c0-12.176,9.877-22.048,22.064-22.048
		C242.404,217.78,252.28,227.652,252.28,239.828z"/>
</g>
</svg>
