<?xml version="1.0" encoding="utf-8"?>
<!-- Generator: Adobe Illustrator 16.0.0, SVG Export Plug-In . SVG Version: 6.00 Build 0)  -->
<!DOCTYPE svg PUBLIC "-//W3C//DTD SVG 1.1//EN" "http://www.w3.org/Graphics/SVG/1.1/DTD/svg11.dtd">
<svg version="1.1" id="Layer_1" xmlns="http://www.w3.org/2000/svg" xmlns:xlink="http://www.w3.org/1999/xlink" x="0px" y="0px"
	 width="280px" height="280px" viewBox="0 0 280 280" enable-background="new 0 0 280 280" xml:space="preserve">
<rect y="-0.042" fill-rule="evenodd" clip-rule="evenodd" fill="#4168B2" width="280" height="280"/>
<g>
	<path fill-rule="evenodd" clip-rule="evenodd" fill="#FCFDFE" d="M156.843,67.849c30.717-0.324,59.231,19.679,65.147,49.418
		c3.27,16.433-0.456,31.645-10.708,45.504c-0.828,1.117-1.492,1.289-2.682,0.516c-1.432-0.932-2.672-2.014-3.77-3.26
		c-5.516-6.27-11.146-12.449-17.002-18.457c-2.016-2.069-4.272-3.806-7.129-4.806c-0.972-0.339-1.563-0.983-2.064-1.795
		c-4.132-6.694-8.346-13.348-12.42-20.071c-1.72-2.838-4.514-4.492-7.309-6.199c-0.542-0.331-1.152-0.342-1.691-0.003
		c-1.424,0.895-2.953,1.671-3.969,3.028c-0.949,1.271-2.095,2.436-2.897,3.776c-1.95,3.256-5.507,5.133-7.897,8.037
		c-5.355,6.504-10.965,12.831-16.458,19.24c-0.811,0.947-1.622,1.832-2.966,2.193c-0.932,0.25-1.425,1.031-1.992,1.695
		c-3.875,4.539-7.757,9.076-11.626,13.621c-1.149,1.35-2.525,2.441-4.127,3.324c-0.813,0.449-1.292,0.355-1.855-0.385
		c-5.476-7.174-9.26-15.006-10.962-23.634c-3.484-17.659,0.526-33.788,12.387-48.059c10.832-13.032,25.289-20.707,43.016-23.134
		c0.643-0.088,1.285-0.178,1.93-0.253C152.279,67.858,154.771,67.775,156.843,67.849z M212.232,133.444
		c-1.318-3.666,1.128-4.51,3.964-5.357c-3.305-0.184-4.568-1.746-3.991-4.563c0.012-0.056-0.118-0.136-0.271-0.298
		c-0.507,0.631-1.044,1.185-1.436,1.813c-0.588,0.946-1.289,1.144-2.396,0.711c-0.721-0.28-1.483-0.688-2.784-0.496
		c3.064,1.989,2.436,3.917,0.405,5.843c-0.035,0.034,0.012,0.141,0.046,0.419C208.488,129.966,210.679,130.177,212.232,133.444z
		 M145.222,85.207c0.008-0.161,0.018-0.322,0.027-0.483c-0.655-0.943-1.751-1.851-1.849-2.84c-0.108-1.104,1.433-1.865,2.138-3.411
		c-2.911,1.687-4.977,1.274-6.259-1.361c-0.021-0.043-0.189-0.024-0.388-0.045c-0.234,1.157,0.465,2.617-0.313,3.416
		c-0.745,0.764-2.259,0.897-3.74,1.414c1.059,0.344,1.782,0.683,2.546,0.804c1.225,0.192,1.572,0.803,1.453,1.856
		c-0.083,0.732-0.016,1.479-0.016,2.218c0.125,0.085,0.25,0.17,0.376,0.254C140.378,84.235,142.283,83.357,145.222,85.207z
		 M109.343,102.813c3.004-1.569,5.196-1.209,6.646,1.932c-0.779-3.292,0.722-4.795,4.164-5.148
		c-3.325-0.433-4.991-1.836-4.176-5.164c-1.462,3.016-3.563,3.535-6.682,1.936C112.277,98.615,111.845,100.631,109.343,102.813z
		 M111.925,144.977c0.138-0.094,0.276-0.184,0.415-0.275c-3.367-1.039-3.75-2.959-2.318-5.423c0.027-0.048-0.068-0.154-0.208-0.441
		c-1.987,2.464-4.095,2.324-6.233,0.273c-0.04-0.037-0.178,0.012-0.367,0.029c0.238,0.72,0.389,1.452,0.72,2.107
		c0.498,0.99,0.301,1.654-0.752,2.197c-0.708,0.365-1.323,0.881-1.979,1.33c1.384,0.35,2.809-0.008,3.787,0.443
		c1.115,0.516,0.896,2.107,1.51,3.135c0.034,0.059,0.134,0.084,0.205,0.125c0.469-1.104,0.615-2.594,1.486-3.178
		C109.055,144.717,110.649,145.045,111.925,144.977z M202.239,145.002c0.347,0.023,0.543,0.045,0.74,0.049
		c3.322,0.078,3.32,0.078,4.439,2.982c0.055,0.139-0.026,0.432,0.585,0.309c0.094-2.895,1.914-3.988,5.205-3.34
		c-0.743-0.703-1.341-1.199-2.026-1.551c-1.029-0.531-1.287-1.164-0.803-2.184c0.313-0.659,0.729-1.36,0.547-2.573
		c-2.307,2.913-4.459,2.254-6.623,0.163c0.186,0.912,0.377,1.683,0.705,2.4c0.431,0.943,0.372,1.613-0.721,2.17
		C203.577,143.791,202.812,144.197,202.239,145.002z M162.832,78.079c-0.114-0.123-0.229-0.246-0.345-0.37
		c-0.358,0-0.717,0.003-1.074,0c-2.861-0.024-2.863-0.023-3.783-2.571c-0.115-0.318-0.185-0.652-0.555-0.903
		c-0.242,0.626-0.586,1.215-0.685,1.836c-0.212,1.336-0.938,1.862-2.407,1.656c-0.707-0.1-1.445-0.018-2.17-0.018
		c-0.12,0.103-0.24,0.205-0.359,0.307c3.38,1.136,4.016,3.075,2.201,5.913c2.38-2.39,4.584-2.562,7.029-0.011
		C158.889,81.069,159.504,79.161,162.832,78.079z M175.639,77.105c-0.258-0.056-0.425-0.111-0.437-0.091
		c-1.401,2.428-3.331,3.377-6.275,1.653c0.233,0.545,0.432,0.825,0.643,1.096c1.645,2.117,1.639,2.112,0.044,4.188
		c-0.228,0.295-0.636,0.531-0.542,1.031c0.275-0.052,0.535-0.084,0.783-0.151c3.012-0.817,3.01-0.817,4.927,1.501
		c0.147,0.179,0.243,0.448,0.696,0.393c0.015-0.163,0.04-0.343,0.046-0.521c0.101-3.009,0.101-3.01,3.239-4.033
		c0.202-0.066,0.422-0.105,0.322-0.567C175.902,81.522,174.81,79.869,175.639,77.105z M103.195,117.57
		c2.332-2.704,4.427-2.158,6.523-0.232c0.039,0.035,0.177-0.021,0.364-0.049c-0.203-0.57-0.34-1.146-0.607-1.667
		c-0.649-1.266-0.475-2.211,0.992-2.892c0.578-0.269,1.197-0.606,1.647-1.33c-0.684,0-1.224-0.071-1.733,0.013
		c-1.806,0.3-2.848-0.289-3.101-2.011c-0.075-0.507-0.361-0.987-0.55-1.48c-0.466,2.83-2.081,4.085-5.194,3.503
		c-0.063-0.012-0.153,0.094-0.463,0.299C104.172,112.796,104.94,114.652,103.195,117.57z M204.224,117.531
		c2.324-2.344,4.49-2.444,6.686,0.069c0.2-1.084-0.216-1.758-0.521-2.409c-0.465-0.994-0.293-1.658,0.762-2.199
		c0.715-0.368,1.34-0.882,2.393-1.592c-1.334,0-2.145-0.07-2.933,0.017c-1.185,0.131-1.759-0.274-2.028-1.348
		c-0.177-0.712-0.256-1.535-1.002-2.142c-0.287,0.793-0.614,1.482-0.778,2.204c-0.225,0.988-0.731,1.427-1.887,1.288
		c-0.851-0.101-1.728-0.02-2.593-0.02c-0.09,0.114-0.18,0.227-0.268,0.341C205.347,112.841,206.022,114.71,204.224,117.531z
		 M129.598,84.607c-0.169-0.003-0.339-0.006-0.509-0.01c-1.021,0.641-1.999,1.718-3.073,1.806c-1.184,0.097-2.083-1.235-3.206-1.805
		c-0.057-0.029-0.174,0.04-0.317,0.078c0.183,0.511,0.313,1.042,0.557,1.524c0.683,1.347,0.588,2.407-1.062,3.103
		c-0.545,0.23-0.983,0.673-1.471,1.019c-0.049,0.146-0.099,0.291-0.147,0.436c3.757-1.273,4.888,0.698,5.546,3.305
		c0.592-0.712,0.765-1.566,0.972-2.358c0.256-0.979,0.783-1.254,1.817-1.203c0.846,0.042,1.744,0.178,3.062-0.273
		C128.257,89.123,127.763,87.223,129.598,84.607z M183.095,90.456c1.266,0.057,2.773-0.255,3.734,0.271
		c1.025,0.562,0.875,2.142,1.435,3.209c0.024,0.047,0.138,0.055,0.421,0.156c0.064-2.981,1.763-4.135,4.861-3.605
		c0.047,0.009,0.121-0.121,0.323-0.334c-3.155-1.044-3.622-3.001-1.888-5.639c-0.551,0.176-0.795,0.278-1.012,0.415
		c-2.578,1.625-2.575,1.624-5.201-0.045c-0.193-0.123-0.381-0.356-0.893-0.115C186.624,87.215,186.032,89.13,183.095,90.456z
		 M198.537,94.239c-0.472,1.716,0.346,3.177-0.566,3.982c-0.845,0.747-2.33,0.886-3.753,1.366c0.855,0.283,1.476,0.589,2.133,0.685
		c1.559,0.225,2.225,0.944,1.964,2.408c-0.104,0.583-0.017,1.193-0.017,1.997c1.239-1.013,1.524-2.625,2.766-2.807
		c1.145-0.167,2.439,0.525,3.669,0.839c-2.351-2.091-2.491-4.106,0.236-6.345C201.929,98,199.853,97.417,198.537,94.239z
		 M102.267,133.307c1.421-3.046,3.566-3.213,6.176-1.977c0.035,0.017,0.135-0.083,0.257-0.163c-0.475-0.609-0.884-1.261-1.425-1.803
		c-0.788-0.788-0.861-1.468-0.027-2.276c0.557-0.54,0.973-1.202,1.452-1.81c-0.019-0.152-0.038-0.305-0.058-0.458
		c-2.895,1.864-4.922,1.143-6.429-1.706c0.884,3.277-0.857,4.511-3.721,4.982c-0.053,0.009-0.084,0.13-0.234,0.378
		C101.539,128.555,102.953,130.061,102.267,133.307z"/>
	<path fill-rule="evenodd" clip-rule="evenodd" fill="#FCFDFE" d="M111.927,191.609c1.256-0.857,2.392-1.889,3.927-2.346
		c0.881-0.262,1.827-0.576,2.611,0.115c0.825,0.727,0.374,1.594,0.029,2.357c-0.391,0.867-0.916,1.684-1.384,2.523
		c-0.15,0.27-0.304,0.566-0.05,0.82c0.25,0.252,0.622,0.18,0.916,0.072c1.271-0.469,2.355-1.213,3.398-2.012
		c4.11-3.139,8.723-4.744,14.143-3.889c0.213,0.035,0.434,0.033,0.646,0.07c2.248,0.408,2.423,0.717,1.512,2.625
		c-2.082,4.357-4.188,8.707-6.214,13.086c-0.37,0.799-1.25,1.928-0.151,2.547c0.987,0.559,1.854-0.488,2.56-1.139
		c2.291-2.105,3.839-4.668,5.175-7.34c1.418-2.838,2.816-5.688,4.127-8.568c0.402-0.883,0.919-1.238,1.936-1.154
		c0.808,0.066,1.635,0.078,2.439,0c1.525-0.146,1.631,0.398,1,1.473c-0.189,0.322-0.475,0.68-0.285,1.252
		c0.754-0.547,1.43-1.07,2.145-1.543c0.882-0.586,1.844-1.039,2.902-1.303c3.303-0.826,4.678,0.033,5.025,3.289
		c1.995-1.561,3.994-2.949,6.578-3.412c3.475-0.621,5.308,1.018,4.444,4.154c-0.906,3.293-2.835,6.207-4.302,9.291
		c-0.518,1.09-1.08,2.164-1.574,3.264c-0.259,0.576-0.719,1.277,0.026,1.758c0.687,0.443,1.388-0.043,1.915-0.432
		c2.194-1.615,3.863-3.627,4.84-6.043c1.213-2.998,2.582-5.914,4.971-8.293c2.842-2.83,6.299-4.346,10.602-3.643
		c2.381,0.389,3.796,1.754,4.403,3.881c0.615,2.152,2.223,2.693,4.327,1.451c1.427-0.842,2.308-2.115,2.86-3.531
		c0.515-1.318,1.356-1.844,2.896-1.682c1.213,0.129,2.455,0.025,3.94,0.025c-1.128,2.27-2.155,4.328-3.175,6.389
		c-1.631,3.295-3.285,6.582-4.861,9.898c-0.292,0.615-0.941,1.465-0.01,2.01c0.795,0.465,1.568-0.115,2.19-0.586
		c2.48-1.879,4.116-4.346,5.451-6.963c1.626-3.186,3.12-6.43,4.613-9.672c0.369-0.801,0.839-1.162,1.817-1.094
		c1.133,0.078,2.281,0.076,3.416,0.002c1.162-0.076,1.256,0.268,0.825,1.16c-2.228,4.625-4.411,9.268-6.609,13.904
		c-0.259,0.545-0.563,1.078-0.742,1.646c-0.166,0.529-0.714,1.178,0.046,1.615c0.652,0.375,1.244-0.088,1.764-0.439
		c1.558-1.057,2.588-2.525,3.648-3.967c2.684-3.648,4.374-7.744,6.2-11.768c0.674-1.484,1.452-2.275,3.304-2.002
		c0.996,0.146,2.039,0.025,3.086,0.025c-0.012,0.83-0.518,1.381-0.732,2.027c0.672,0.338,0.994-0.184,1.396-0.469
		c1.393-0.986,2.904-1.723,4.668-1.971c3.051-0.432,4.952,1.414,4.271,4.172c-0.518,2.1-1.664,3.969-2.633,5.902
		c-1.151,2.297-2.306,4.594-3.424,6.902c-0.238,0.49-0.494,1.141,0.016,1.535c0.575,0.447,1.236,0.059,1.786-0.256
		c1.122-0.645,1.958-1.559,2.766-2.5c3.362-3.912,5.222-8.549,7.469-12.998c0.325-0.646,0.05-0.791-0.593-0.771
		c-0.537,0.016-1.076,0.002-1.673,0.002c0.135-1.227,0.745-1.766,2.014-1.576c1.013,0.152,1.547-0.242,1.927-1.129
		c0.811-1.891,1.797-3.717,2.632-5.598c0.312-0.701,0.697-1.004,1.547-0.971c1.515,0.061,3.034,0.018,4.8,0.018
		c-0.941,2.016-1.82,3.904-2.706,5.791c-0.88,1.875-0.882,1.865,1.257,1.896c0.471,0.006,0.973-0.133,1.408,0.158
		c-0.02,1.176-0.726,1.596-1.898,1.402c-1.91-0.313-2.863,0.412-3.553,2.082c-1.854,4.494-4.398,8.729-6.092,13.287
		c-0.33,0.887-0.586,1.816-0.698,2.744c-0.214,1.756,0.881,2.568,2.78,2.242c1.416-0.244,2.426-1.063,3.428-1.895
		c1.131-0.938,2.049-2.051,2.947-3.174c0.242-0.303,0.487-0.563,0.906-0.199c0.314,0.271,0.685,0.482,0.283,0.969
		c-2.531,3.08-5.056,6.146-9.676,6.707c-3.871,0.469-6.406-1.852-5.889-5.42c0.083-0.568,0.17-1.135,0.314-2.09
		c-1.461,1.293-2.518,2.42-3.873,3.234c-1.374,0.826-2.787,1.518-4.5,1.512c-2.395-0.008-3.725-1.365-3.395-3.541
		c0.219-1.436,0.746-2.787,1.42-4.094c1.523-2.959,3.068-5.91,4.537-8.891c0.376-0.766,1.174-1.799,0.181-2.436
		c-0.948-0.609-1.962,0.182-2.755,0.775c-1.451,1.084-2.441,2.523-3.334,4.004c-2.436,4.043-4.242,8.357-6.271,12.572
		c-0.5,1.041-1.09,1.416-2.295,1.328c-1.346-0.1-2.707-0.023-4.119-0.023c-0.043-0.785,0.545-1.322,0.673-1.982
		c0.134-0.199,0.315-0.406,0.086-0.627c-0.023-0.021-0.299,0.178-0.456,0.273c-1.276,1.076-2.533,2.17-4.271,2.627
		c-3.029,0.797-4.621-0.27-4.642-3.133c-0.001-0.295,0-0.594,0-0.998c-0.782,0.223-1.104,0.836-1.577,1.252
		c-1.545,1.359-3.205,2.535-5.334,3.004c-2.632,0.58-4.531-0.813-4.509-3.279c0.011-1.215,0.373-2.352,0.917-3.445
		c1.299-2.613,2.606-5.225,3.975-7.967c-1.34,0.064-2.561,0.35-3.84,0.121c-0.646-0.117-0.551,0.801-0.656,1.264
		c-0.758,3.313-2.25,6.316-4.554,8.953c-2.338,2.678-5.323,4.367-9.155,4.496c-4.244,0.143-6.478-1.654-6.969-5.611
		c-1.032,0.471-1.496,1.389-2.201,2.064c-1.671,1.6-3.406,3.063-5.959,3.352c-3.254,0.371-4.847-1.211-4.176-4.123
		c0.238-1.033,0.681-1.984,1.16-2.926c1.533-3.01,3.092-6.01,4.617-9.023c0.293-0.58,0.555-1.195,0.684-1.818
		c0.191-0.92-0.295-1.305-1.309-1.096c-0.938,0.193-1.662,0.701-2.322,1.305c-1.84,1.68-3.003,3.754-4.045,5.889
		c-1.678,3.439-3.332,6.889-4.943,10.354c-0.369,0.793-0.822,1.152-1.811,1.098c-1.51-0.084-3.029-0.021-4.533-0.021
		c-0.154-0.637,0.221-1.041,0.428-1.482c2.326-4.963,4.678-9.918,6.977-14.893c0.309-0.668,1.121-1.529,0.176-2.139
		c-0.902-0.58-1.748,0.191-2.435,0.701c-2.239,1.668-3.722,3.865-4.892,6.236c-1.717,3.477-3.391,6.973-5.031,10.482
		c-0.369,0.791-0.818,1.152-1.806,1.094c-1.458-0.086-2.926-0.021-4.562-0.021c0.358-0.893,0.679-1.691,1-2.488
		c-0.065-0.055-0.131-0.109-0.197-0.164c-0.36,0.299-0.728,0.59-1.078,0.896c-0.829,0.729-1.733,1.354-2.807,1.746
		c-3.125,1.143-4.982-0.025-5.552-3.578c-1.042,0.84-2.003,1.688-3.049,2.438c-1.352,0.969-2.863,1.566-4.652,1.477
		c-2.351-0.117-3.786-1.402-3.921-3.576c-0.207-3.295,1.348-6.066,3.085-8.785c0.375-0.588,0.794-1.152,1.361-1.971
		c-1.766,0.531-3.334,1.525-4.839,0.52c-1.764-1.18-0.179-2.594,0.067-4.07c-0.983,0.16-1.433,0.789-1.907,1.318
		c-1.387,1.545-2.356,3.322-3.232,5.143c-1.617,3.355-3.248,6.705-4.818,10.078c-0.341,0.734-0.723,1.092-1.658,1.039
		c-1.452-0.084-2.914-0.021-4.563-0.021c0.449-1.037,0.836-1.932,1.329-3.07c-1.204,0.871-2.126,1.611-3.129,2.244
		c-1.029,0.65-2.151,1.137-3.46,1.152c-2.201,0.025-3.164-0.777-3.305-2.813c-0.016-0.229-0.033-0.457-0.062-0.852
		c-0.901,0.74-1.631,1.383-2.407,1.973c-0.882,0.67-1.876,1.164-2.987,1.467c-3.921,1.07-6.619-0.953-6.22-4.678
		c0.749-6.99,8.26-15.027,15.678-16.746c2.688-0.623,5.374-0.449,8.047,0.133c1.171,0.256,1.438,0.768,0.919,1.82
		c-2.112,4.293-4.149,8.617-6.213,12.93c-0.174,0.363-0.398,0.715-0.499,1.096c-0.216,0.816-1.094,1.857-0.023,2.418
		c0.927,0.486,1.792-0.451,2.447-1.072c2.479-2.355,4.159-5.191,5.62-8.139c1.274-2.572,2.557-5.146,3.699-7.768
		c0.507-1.166,1.232-1.629,2.547-1.451c0.425,0.059,0.867,0.01,1.301,0.01c2.141,0,2.141,0,1.463,1.834
		c-0.148,0.221-0.369,0.449-0.062,0.684C111.529,191.934,111.779,191.715,111.927,191.609z M174.551,207.227
		c0.017,0.824,0.063,1.578,0.833,1.93c0.768,0.352,1.584,0.197,2.32-0.225c0.994-0.568,1.673-1.406,2.293-2.281
		c2.436-3.436,4.188-7.148,5.328-11.104c0.247-0.859,0.448-1.742,0.535-2.625c0.066-0.684-0.002-1.463-0.797-1.814
		c-0.731-0.324-1.522-0.176-2.138,0.299c-0.615,0.477-1.202,1.006-1.694,1.59c-2.474,2.934-4.156,6.246-5.471,9.732
		C175.194,204.23,174.733,205.752,174.551,207.227z M132.37,190.943c-2.505,0.018-4.278,1.02-5.76,2.414
		c-3.462,3.258-5.788,7.141-7.163,11.502c-0.119,0.377-0.216,0.771-0.245,1.162c-0.119,1.598,0.804,2.217,2.42,1.59
		c1.235-0.477,2.106-1.373,2.887-2.34C127.991,200.961,129.751,195.875,132.37,190.943z M83.967,207.789
		c0.866,0.018,1.564-0.467,2.224-0.986c1.079-0.85,1.917-1.891,2.677-2.982c2.635-3.785,4.301-8,6.355-12.043
		c0.51-1.002-0.218-0.855-0.822-0.748c-2.299,0.408-4.041,1.668-5.493,3.246c-2.571,2.795-4.499,5.951-5.818,9.4
		c-0.336,0.881-0.538,1.822-0.653,2.752C82.326,207.32,82.849,207.834,83.967,207.789z"/>
	<path fill-rule="evenodd" clip-rule="evenodd" fill="#FCFDFE" d="M178.992,141.846c0.038-0.393,0.101-0.633,0.075-0.864
		c-0.105-1.011,0.307-1.029,1.196-0.66c1.778,0.739,3.167,1.897,4.446,3.194c5.971,6.043,11.644,12.318,17.234,18.658
		c0.473,0.537,0.953,1.07,1.43,1.604c-0.422,0.471-0.946,0.285-1.395,0.279c-3.906-0.051-7.811-0.164-11.717-0.174
		c-1.193-0.002-1.864-0.426-2.41-1.365c-2.254-3.881-5.197-7.316-8.334-10.619c-0.314-0.332-0.577-1.002-1.253-0.639
		c-0.63,0.338-0.272,0.904-0.099,1.344c0.846,2.143,1.726,4.273,2.592,6.41c0.113,0.279,0.225,0.559,0.326,0.842
		c1.017,2.838,0.396,3.477-2.791,3.023c-3.263-0.463-6.531-0.895-9.75-1.582c-0.996-0.213-1.246,0.025-1.049,0.951
		c0.381,1.809,0.336,1.816-1.737,1.818c-2.659,0.002-5.32-0.068-7.976,0.027c-1.381,0.051-1.75-0.445-1.842-1.613
		c-0.193-2.438,0.422-4.73,1.199-7.01c0.857-2.51,1.875-4.973,3.152-7.322c0.582-1.068,0.238-1.363-0.801-1.766
		c-3.291-1.271-6.727-1.406-10.213-1.318c-1.074,0.027-2.149,0.004-3.321,0.004c0.226-1.252,0.88-2.234,1.356-3.264
		c1.644-3.559,3.341-7.098,5.029-10.641c0.49-1.028,0.808-2.021-0.596-2.664c-0.635-0.29-0.307-0.638-0.147-0.975
		c2.21-4.685,4.446-9.358,6.626-14.056c0.354-0.762,0.656-0.678,1.279-0.284c1.455,0.919,2.625,2.038,3.502,3.458
		c4.93,7.988,9.889,15.962,14.852,23.934C178.114,140.987,178.239,141.506,178.992,141.846z"/>
	<path fill-rule="evenodd" clip-rule="evenodd" fill="#FCFDFE" d="M66.767,164.039c6.392,0.088,12.173,0.721,17.446,3.408
		c9.418,4.797,10.335,15.15,1.906,21.34c-4.479,3.287-9.723,4.934-15.278,5.816c-1.434,0.227-2.162,0.654-2.63,2.014
		c-2.442,7.074-6.188,13.463-12.624,18.205c-7.112,5.24-15.238,6.959-24.121,5.115c-3.911-0.811-6.904-2.885-7.824-6.75
		c-0.324-1.359-0.422-2.764,0.111-4.109c0.498-1.258,1.806-1.91,3.091-1.541c1.36,0.391,1.797,1.303,1.594,2.561
		c-0.4,2.49-0.25,4.896,1.776,6.838c2.217,2.127,5.098,2.471,8.104,2.313c6.203-0.326,10.582-3.432,14.039-7.869
		c3.965-5.088,6.455-10.875,9.227-16.527c2.819-5.75,5.603-11.521,10.14-16.385c1.456-1.559,3.119-2.902,4.965-4.055
		c0.275-0.172,0.587-0.561,0.979-0.174c0.377,0.371-0.024,0.635-0.229,0.898c-3.931,5.068-5.776,10.936-7.674,16.785
		c-0.308,0.949,0.073,1.098,1.024,0.963c8.945-1.264,16.682-9.777,13.144-19.303c-1.385-3.727-4.581-5.975-8.611-6.844
		c-12.336-2.662-23.408-0.434-32.348,8.117c-4.532,4.338-6.148,9.76-4.838,15.715c1.071,4.865,5.662,7.311,10.632,5.844
		c3.242-0.955,5.191-3.588,5.242-7.295c0.017-1.273,0.506-2.045,1.883-2.125c1.23-0.07,2.105,0.395,2.114,1.703
		c0.02,3.016-1.321,5.389-4.033,7.072c-4.405,2.734-12.017,2.705-16.348-0.143c-3.937-2.588-5.046-6.336-4.574-10.529
		c0.767-6.807,4.984-11.607,11.032-15.197C51.12,165.725,58.97,164.125,66.767,164.039z"/>
	<path fill-rule="evenodd" clip-rule="evenodd" fill="#FCFDFE" d="M146.782,133.491c0.157,0.779-0.239,1.171-0.461,1.604
		c-1.221,2.377-2.495,4.731-3.682,7.124c-0.709,1.428-1.65,2.92,0.176,4.289c0.075,0.057,0.113,0.172,0.135,0.266
		c0.215,0.934-2.214,4.586-3.238,4.898c-1.259,0.385-2.3,1.09-3.264,1.904c-2.01,1.695-3.603,3.699-5.1,5.777
		c-0.238,0.33-0.353,0.951-1.015,0.746c-0.644-0.199-0.851-0.744-0.854-1.32c-0.003-0.51,0.279-0.947,0.562-1.375
		c0.813-1.232,1.693-2.434,2.391-3.717c0.528-0.973,1.878-1.742,1.08-3.148c-0.097-0.17,0.314-0.594,0.51-0.889
		c1.904-2.887,3.843-5.756,5.712-8.663C141.569,138.131,143.996,135.762,146.782,133.491z"/>
	<path fill-rule="evenodd" clip-rule="evenodd" fill="#456BB3" d="M212.232,133.444c-1.554-3.267-3.744-3.478-6.462-1.929
		c-0.034-0.278-0.081-0.385-0.046-0.419c2.03-1.926,2.659-3.854-0.405-5.843c1.301-0.191,2.063,0.216,2.784,0.496
		c1.106,0.433,1.808,0.235,2.396-0.711c0.392-0.629,0.929-1.183,1.436-1.813c0.152,0.162,0.282,0.242,0.271,0.298
		c-0.577,2.817,0.687,4.38,3.991,4.563C213.36,128.934,210.914,129.778,212.232,133.444z"/>
	<path fill-rule="evenodd" clip-rule="evenodd" fill="#456BB3" d="M145.222,85.207c-2.938-1.85-4.844-0.972-6.024,1.821
		c-0.126-0.084-0.251-0.169-0.376-0.254c0-0.739-0.067-1.485,0.016-2.218c0.119-1.054-0.228-1.664-1.453-1.856
		c-0.764-0.121-1.487-0.46-2.546-0.804c1.48-0.517,2.995-0.65,3.74-1.414c0.778-0.799,0.079-2.259,0.313-3.416
		c0.198,0.021,0.367,0.002,0.388,0.045c1.282,2.636,3.348,3.048,6.259,1.361c-0.705,1.546-2.246,2.308-2.138,3.411
		c0.098,0.989,1.193,1.896,1.849,2.84C145.239,84.884,145.229,85.045,145.222,85.207z"/>
	<path fill-rule="evenodd" clip-rule="evenodd" fill="#456BB3" d="M109.343,102.813c2.502-2.182,2.934-4.198-0.048-6.445
		c3.119,1.6,5.22,1.08,6.682-1.936c-0.815,3.328,0.852,4.731,4.176,5.164c-3.442,0.354-4.943,1.856-4.164,5.148
		C114.539,101.604,112.347,101.244,109.343,102.813z"/>
	<path fill-rule="evenodd" clip-rule="evenodd" fill="#456BB3" d="M111.925,144.977c-1.275,0.068-2.87-0.26-3.736,0.322
		c-0.871,0.584-1.017,2.074-1.486,3.178c-0.071-0.041-0.171-0.066-0.205-0.125c-0.614-1.027-0.395-2.619-1.51-3.135
		c-0.978-0.451-2.403-0.094-3.787-0.443c0.656-0.449,1.271-0.965,1.979-1.33c1.054-0.543,1.25-1.207,0.752-2.197
		c-0.331-0.655-0.481-1.387-0.72-2.107c0.189-0.018,0.328-0.066,0.367-0.029c2.138,2.05,4.246,2.191,6.233-0.273
		c0.14,0.287,0.235,0.394,0.208,0.441c-1.431,2.464-1.048,4.384,2.318,5.423C112.201,144.793,112.063,144.883,111.925,144.977z"/>
	<path fill-rule="evenodd" clip-rule="evenodd" fill="#456BB3" d="M202.239,145.002c0.572-0.805,1.338-1.211,2.049-1.574
		c1.093-0.557,1.151-1.227,0.721-2.17c-0.328-0.717-0.52-1.488-0.705-2.4c2.164,2.091,4.316,2.75,6.623-0.163
		c0.182,1.213-0.233,1.914-0.547,2.573c-0.484,1.02-0.227,1.652,0.803,2.184c0.686,0.352,1.283,0.848,2.026,1.551
		c-3.291-0.648-5.111,0.445-5.205,3.34c-0.611,0.123-0.53-0.17-0.585-0.309c-1.119-2.904-1.117-2.904-4.439-2.982
		C202.782,145.047,202.586,145.025,202.239,145.002z"/>
	<path fill-rule="evenodd" clip-rule="evenodd" fill="#456BB3" d="M162.832,78.079c-3.328,1.082-3.943,2.99-2.147,5.839
		c-2.445-2.551-4.649-2.379-7.029,0.011c1.814-2.838,1.179-4.777-2.201-5.913c0.119-0.102,0.239-0.204,0.359-0.307
		c0.725,0,1.463-0.082,2.17,0.018c1.47,0.206,2.195-0.32,2.407-1.656c0.099-0.621,0.442-1.21,0.685-1.836
		c0.37,0.251,0.439,0.585,0.555,0.903c0.92,2.548,0.922,2.547,3.783,2.571c0.357,0.003,0.716,0,1.074,0
		C162.603,77.833,162.718,77.956,162.832,78.079z"/>
	<path fill-rule="evenodd" clip-rule="evenodd" fill="#456BB3" d="M175.639,77.105c-0.829,2.764,0.264,4.417,3.446,4.498
		c0.1,0.462-0.12,0.501-0.322,0.567c-3.139,1.023-3.139,1.024-3.239,4.033c-0.006,0.179-0.031,0.358-0.046,0.521
		c-0.453,0.056-0.549-0.214-0.696-0.393c-1.917-2.318-1.915-2.318-4.927-1.501c-0.248,0.067-0.508,0.1-0.783,0.151
		c-0.094-0.5,0.314-0.736,0.542-1.031c1.595-2.076,1.601-2.071-0.044-4.188c-0.211-0.271-0.409-0.551-0.643-1.096
		c2.944,1.724,4.874,0.774,6.275-1.653C175.214,76.994,175.381,77.049,175.639,77.105z"/>
	<path fill-rule="evenodd" clip-rule="evenodd" fill="#456BB3" d="M103.195,117.57c1.745-2.918,0.977-4.773-2.124-5.847
		c0.311-0.205,0.4-0.311,0.463-0.299c3.114,0.582,4.729-0.673,5.194-3.503c0.189,0.493,0.476,0.974,0.55,1.48
		c0.253,1.722,1.295,2.311,3.101,2.011c0.509-0.084,1.049-0.013,1.733-0.013c-0.45,0.724-1.069,1.062-1.647,1.33
		c-1.467,0.681-1.641,1.626-0.992,2.892c0.267,0.521,0.404,1.097,0.607,1.667c-0.187,0.027-0.325,0.084-0.364,0.049
		C107.622,115.412,105.526,114.866,103.195,117.57z"/>
	<path fill-rule="evenodd" clip-rule="evenodd" fill="#456BB3" d="M204.224,117.531c1.799-2.82,1.123-4.689-2.17-5.79
		c0.088-0.114,0.178-0.227,0.268-0.341c0.865,0,1.742-0.081,2.593,0.02c1.155,0.139,1.662-0.3,1.887-1.288
		c0.164-0.722,0.491-1.411,0.778-2.204c0.746,0.606,0.825,1.43,1.002,2.142c0.27,1.073,0.844,1.479,2.028,1.348
		c0.788-0.087,1.599-0.017,2.933-0.017c-1.053,0.71-1.678,1.224-2.393,1.592c-1.055,0.541-1.227,1.205-0.762,2.199
		c0.306,0.651,0.722,1.325,0.521,2.409C208.714,115.086,206.548,115.187,204.224,117.531z"/>
	<path fill-rule="evenodd" clip-rule="evenodd" fill="#456BB3" d="M129.598,84.607c-1.835,2.616-1.341,4.516,2.168,5.62
		c-1.318,0.451-2.216,0.315-3.062,0.273c-1.034-0.051-1.561,0.224-1.817,1.203c-0.207,0.792-0.379,1.646-0.972,2.358
		c-0.658-2.606-1.789-4.578-5.546-3.305c0.049-0.145,0.098-0.29,0.147-0.436c0.487-0.346,0.925-0.788,1.471-1.019
		c1.65-0.695,1.745-1.756,1.062-3.103c-0.245-0.482-0.374-1.014-0.557-1.524c0.143-0.038,0.26-0.107,0.317-0.078
		c1.122,0.569,2.022,1.901,3.206,1.805c1.074-0.088,2.053-1.165,3.073-1.806C129.258,84.601,129.428,84.604,129.598,84.607z"/>
	<path fill-rule="evenodd" clip-rule="evenodd" fill="#456BB3" d="M183.095,90.456c2.938-1.325,3.529-3.24,1.781-5.688
		c0.512-0.241,0.699-0.008,0.893,0.115c2.626,1.669,2.623,1.67,5.201,0.045c0.217-0.137,0.461-0.239,1.012-0.415
		c-1.734,2.638-1.268,4.595,1.888,5.639c-0.202,0.213-0.276,0.343-0.323,0.334c-3.099-0.529-4.797,0.624-4.861,3.605
		c-0.283-0.102-0.396-0.109-0.421-0.156c-0.56-1.067-0.409-2.647-1.435-3.209C185.868,90.201,184.36,90.512,183.095,90.456z"/>
	<path fill-rule="evenodd" clip-rule="evenodd" fill="#456BB3" d="M198.537,94.239c1.315,3.178,3.392,3.762,6.432,2.126
		c-2.728,2.238-2.587,4.254-0.236,6.345c-1.229-0.313-2.524-1.006-3.669-0.839c-1.241,0.182-1.526,1.794-2.766,2.807
		c0-0.804-0.088-1.414,0.017-1.997c0.261-1.464-0.405-2.184-1.964-2.408c-0.657-0.096-1.277-0.401-2.133-0.685
		c1.423-0.48,2.908-0.619,3.753-1.366C198.883,97.416,198.065,95.955,198.537,94.239z"/>
	<path fill-rule="evenodd" clip-rule="evenodd" fill="#456BB3" d="M102.267,133.307c0.687-3.246-0.728-4.752-4.008-4.832
		c0.15-0.248,0.181-0.369,0.234-0.378c2.864-0.472,4.604-1.705,3.721-4.982c1.507,2.849,3.534,3.57,6.429,1.706
		c0.02,0.153,0.039,0.306,0.058,0.458c-0.479,0.607-0.895,1.27-1.452,1.81c-0.834,0.809-0.761,1.488,0.027,2.276
		c0.541,0.542,0.951,1.193,1.425,1.803c-0.122,0.08-0.223,0.18-0.257,0.163C105.833,130.094,103.688,130.261,102.267,133.307z"/>
	<path fill-rule="evenodd" clip-rule="evenodd" fill="#456BB3" d="M174.551,207.227c0.183-1.475,0.644-2.996,1.21-4.498
		c1.314-3.486,2.997-6.799,5.471-9.732c0.492-0.584,1.079-1.113,1.694-1.59c0.615-0.475,1.406-0.623,2.138-0.299
		c0.795,0.352,0.863,1.131,0.797,1.814c-0.087,0.883-0.288,1.766-0.535,2.625c-1.141,3.955-2.893,7.668-5.328,11.104
		c-0.62,0.875-1.299,1.713-2.293,2.281c-0.736,0.422-1.553,0.576-2.32,0.225C174.613,208.805,174.567,208.051,174.551,207.227z"/>
	<path fill-rule="evenodd" clip-rule="evenodd" fill="#456BB3" d="M132.37,190.943c-2.619,4.932-4.378,10.018-7.861,14.328
		c-0.781,0.967-1.652,1.863-2.887,2.34c-1.616,0.627-2.539,0.008-2.42-1.59c0.029-0.391,0.126-0.785,0.245-1.162
		c1.375-4.361,3.701-8.244,7.163-11.502C128.091,191.963,129.865,190.961,132.37,190.943z"/>
	<path fill-rule="evenodd" clip-rule="evenodd" fill="#456BB3" d="M83.967,207.789c-1.118,0.045-1.642-0.469-1.53-1.361
		c0.115-0.93,0.316-1.871,0.653-2.752c1.319-3.449,3.247-6.605,5.818-9.4c1.452-1.578,3.194-2.838,5.493-3.246
		c0.604-0.107,1.332-0.254,0.822,0.748c-2.054,4.043-3.72,8.258-6.355,12.043c-0.76,1.092-1.598,2.133-2.677,2.982
		C85.531,207.322,84.833,207.807,83.967,207.789z"/>
	<path fill-rule="evenodd" clip-rule="evenodd" fill="#4168B2" d="M111.927,191.609c-0.148,0.105-0.398,0.324-0.429,0.301
		c-0.308-0.234-0.087-0.463,0.062-0.684C111.682,191.354,111.805,191.48,111.927,191.609z"/>
	<path fill-rule="evenodd" clip-rule="evenodd" fill="#4168B2" d="M210.173,208.424c0.157-0.096,0.433-0.295,0.456-0.273
		c0.229,0.221,0.048,0.428-0.086,0.627C210.42,208.66,210.296,208.541,210.173,208.424z"/>
</g>
</svg>
