<?xml version="1.0" encoding="utf-8"?>
<!-- Generator: Adobe Illustrator 16.0.0, SVG Export Plug-In . SVG Version: 6.00 Build 0)  -->
<!DOCTYPE svg PUBLIC "-//W3C//DTD SVG 1.1//EN" "http://www.w3.org/Graphics/SVG/1.1/DTD/svg11.dtd">
<svg version="1.1" id="Layer_1" xmlns="http://www.w3.org/2000/svg" xmlns:xlink="http://www.w3.org/1999/xlink" x="0px" y="0px"
	 width="280px" height="280px" viewBox="0 0 280 280" enable-background="new 0 0 280 280" xml:space="preserve">
<rect y="-0.042" fill-rule="evenodd" clip-rule="evenodd" width="280" height="280"/>
<g>
	<path fill-rule="evenodd" clip-rule="evenodd" fill="#FFFFFF" d="M71.732,78.512c-0.063,0.587,0.34,0.444,0.562,0.476
		c6.412,0.913,12.44,3.305,18.033,7.183c12.628,8.756,20.879,21.666,24.535,38.811c1.311,6.15,1.769,12.395,1.432,18.773
		c-0.594,11.271-3.443,21.567-8.711,30.828c-7.742,13.608-18.343,22.116-31.637,25.635c-1.462,0.387-2.947,0.74-4.46,0.8
		c-0.213,0.008-0.625-0.118-0.563,0.471c-0.607,0-1.214,0-1.821,0c-0.202-0.35-0.404-0.291-0.607,0c-1.821,0-3.643,0-5.464,0
		c-0.135-0.163-0.27-0.453-0.405,0c-0.674,0-1.349,0-2.023,0c0.11-0.587-0.285-0.46-0.503-0.476
		c-1.841-0.133-3.654-0.543-5.434-1.063c-13.344-3.913-23.869-12.781-31.389-26.763c-4.15-7.718-6.711-16.189-7.611-25.374
		c-0.027-0.275,0.076-0.745-0.393-0.68c0-0.573,0-1.148,0-1.722c0.335-0.247,0.139-0.492,0-0.738c0-3.197,0-6.395,0-9.592
		c0.126-0.164,0.363-0.328,0-0.492c0-0.656,0-1.312,0-1.967c0.459,0.236,0.37-0.26,0.385-0.482c0.16-2.355,0.56-4.659,1.037-6.938
		c2.996-14.328,9.396-25.923,19.138-34.737C42.838,84.126,50.7,80.26,59.396,78.982c0.187-0.027,0.591,0.087,0.396-0.47
		c0.54,0,1.079,0,1.619,0c0.135,0.438,0.27,0.164,0.404,0c2.631,0,5.262,0,7.892,0c0.203,0.163,0.405,0.411,0.607,0
		C70.788,78.512,71.26,78.512,71.732,78.512z M55.922,176.845c3.372,0,6.743,0,10.115,0c1.324,0,1.325-0.001,1.325-1.552
		c0.001-3.319-0.011-6.638,0.007-9.957c0.005-1.017-0.355-2.313,0.146-2.975c0.51-0.676,1.591-0.139,2.418-0.224
		c0.134-0.014,0.27-0.002,0.404-0.005c3.761-0.083,6.462-3.386,6.479-7.947c0.013-3.646,0.03-7.294-0.015-10.94
		c-0.012-0.978,0.132-1.453,1.037-1.59c1.43-0.217,2.842-0.635,4.253-1.01c1.827-0.485,2.314-1.75,1.451-3.756
		c-4.722-10.969-9.457-21.928-14.161-32.908c-0.292-0.683-0.608-0.903-1.228-0.899c-4.889,0.032-9.777,0.025-14.666,0.014
		c-1.419-0.003-2.818,0.174-4.217,0.465c-12.769,2.663-21.832,16.911-20.665,32.507c0.778,10.396,6.918,19.678,15.146,22.826
		c0.648,0.248,0.89,0.531,0.883,1.399c-0.04,5.162-0.003,10.325-0.037,15.488c-0.006,0.876,0.208,1.089,0.906,1.081
		C48.977,176.821,52.449,176.845,55.922,176.845z M79.954,103.101c0.197,0.473,0.312,0.76,0.434,1.043
		c4.663,10.824,9.327,21.646,13.987,32.471c0.946,2.197,0.387,3.613-1.608,4.1c-1.384,0.338-2.762,0.73-4.157,0.975
		c-0.707,0.124-0.862,0.482-0.856,1.275c0.026,3.852,0.038,7.704,0.002,11.557c-0.034,3.699-2.087,6.627-5.052,7.399
		c-1.207,0.313-2.418,0.217-3.626,0.193c-0.645-0.013-0.786,0.252-0.782,0.982c0.025,4.262,0.024,8.524,0.001,12.786
		c-0.004,0.743,0.178,0.988,0.804,0.979c2.461-0.04,4.924-0.073,7.384,0.012c0.92,0.033,1.115-0.313,1.102-1.371
		c-0.051-4.098,0-8.196-0.037-12.294c-0.007-0.862,0.187-1.161,0.899-1.088c0.703,0.072,1.415,0.027,2.123,0.011
		c3.778-0.081,6.457-3.367,6.47-7.946c0.01-3.771,0.017-7.54-0.01-11.311c-0.005-0.693,0.131-1.035,0.73-1.157
		c1.424-0.292,2.837-0.666,4.257-0.995c2.067-0.477,2.577-1.749,1.597-4.028c-2.134-4.96-4.273-9.919-6.409-14.878
		c-2.558-5.937-5.115-11.874-7.676-17.809c-0.196-0.454-0.321-0.933-0.918-0.924C85.781,103.123,82.95,103.101,79.954,103.101z"/>
	<path fill-rule="evenodd" clip-rule="evenodd" fill="#FFFFFF" d="M258.109,160.414c-0.363-0.205-0.338,0.189-0.373,0.395
		c-1.561,8.938-6.486,13.718-13.438,15.816c-7.801,2.354-15.127,0.606-22.045-4.163c-0.533-0.368-0.809-0.769-0.799-1.612
		c0.051-4.18,0.02-8.361,0.027-12.542c0-0.309-0.088-0.642,0.133-1.019c2.105,2.063,4.359,3.811,6.891,4.96
		c3.965,1.803,8.021,2.798,12.238,1.58c2.293-0.662,4.16-2.126,4.568-5.189c0.408-3.076-0.529-5.611-2.557-7.548
		c-2.287-2.187-4.879-3.757-7.416-5.432c-3.408-2.247-6.738-4.61-9.477-8.036c-3.564-4.459-5.063-9.816-4.855-15.956
		c0.334-9.947,5.777-16.688,13.709-18.54c6.438-1.503,12.637-0.167,18.662,2.705c0.322,0.153,0.693,0.227,0.691,0.867
		c-0.021,4.377-0.012,8.754-0.012,13.275c-1.359-0.705-2.535-1.562-3.801-2.195c-3.73-1.868-7.586-2.742-11.617-2.367
		c-0.5,0.047-1.002,0.156-1.488,0.313c-4.818,1.564-4.977,6.861-2.738,10.33c1.467,2.273,3.492,3.686,5.525,5.064
		c3.459,2.348,7.109,4.288,10.299,7.208c3.736,3.422,6.564,7.593,7.494,13.345c0.031,0.185,0.154,0.347,0.234,0.52
		c0.025-0.018,0.051-0.032,0.072-0.054c0.025-0.026,0.047-0.059,0.07-0.088c0,0.246,0,0.491,0,0.737
		c-0.389,0.328-0.148,0.656,0,0.984c0,1.886,0,3.771,0,5.656c-0.105-0.056-0.174-0.01-0.174,0.124
		c-0.002,0.14,0.072,0.175,0.174,0.122C258.109,159.923,258.109,160.168,258.109,160.414z"/>
	<path fill-rule="evenodd" clip-rule="evenodd" fill="#010102" d="M258.109,153.773c-0.148-0.328-0.389-0.656,0-0.984
		C258.109,153.117,258.109,153.445,258.109,153.773z"/>
	<path fill-rule="evenodd" clip-rule="evenodd" fill="#010102" d="M70.316,78.512c-0.202,0.411-0.405,0.163-0.607,0
		C69.911,78.512,70.114,78.512,70.316,78.512z"/>
	<path fill-rule="evenodd" clip-rule="evenodd" fill="#010102" d="M15.273,144.673c0.139,0.246,0.335,0.491,0,0.738
		C15.273,145.164,15.273,144.919,15.273,144.673z"/>
	<path fill-rule="evenodd" clip-rule="evenodd" fill="#010102" d="M68.495,201.488c0.203-0.291,0.405-0.35,0.607,0
		C68.899,201.488,68.697,201.488,68.495,201.488z"/>
	<path fill-rule="evenodd" clip-rule="evenodd" fill="#010102" d="M61.816,78.512c-0.135,0.164-0.27,0.438-0.404,0
		C61.547,78.512,61.682,78.512,61.816,78.512z"/>
	<path fill-rule="evenodd" clip-rule="evenodd" fill="#010102" d="M15.273,134.589c0.363,0.164,0.126,0.328,0,0.492
		C15.273,134.917,15.273,134.753,15.273,134.589z"/>
	<path fill-rule="evenodd" clip-rule="evenodd" fill="#010102" d="M62.626,201.488c0.135-0.453,0.27-0.163,0.405,0
		C62.896,201.488,62.761,201.488,62.626,201.488z"/>
	<path fill-rule="evenodd" clip-rule="evenodd" fill="#010102" d="M258.109,159.676c-0.102,0.053-0.176,0.018-0.174-0.122
		c0-0.134,0.068-0.18,0.174-0.124C258.109,159.512,258.109,159.594,258.109,159.676z"/>
	<path fill-rule="evenodd" clip-rule="evenodd" fill="#FFFFFF" d="M205.096,137.128c4.055,1.693,7.074,4.68,8.646,9.342
		c2.482,7.363,1.508,14.373-2.25,20.748c-2.986,5.068-7.293,7.709-12.236,8.925c-2.25,0.555-4.537,0.708-6.83,0.711
		c-5.766,0.006-11.531-0.017-17.297,0.023c-0.789,0.005-1.018-0.241-1.018-1.226c0.023-23.809,0.023-47.619,0-71.428
		c-0.002-0.942,0.221-1.143,0.959-1.138c6.338,0.037,12.682-0.13,19.016,0.071c5.104,0.163,9.83,1.851,13.432,6.666
		c2.58,3.452,3.547,7.628,3.549,12.18c0.004,4.264-0.762,8.275-2.992,11.707C207.242,134.987,206.236,136.064,205.096,137.128z
		 M186.068,154.737c0,0.942-0.021,1.887,0.004,2.827c0.064,2.239-0.16,4.485,0.119,6.718c1.844,0.237,3.695,0.061,5.541,0.099
		c1.818,0.037,3.639,0.018,5.416-0.535c2.637-0.818,4.807-2.348,5.713-5.713c1.709-6.357-1.566-12.169-7.096-12.74
		c-2.965-0.307-5.93-0.099-8.891-0.216c-0.715-0.028-0.824,0.328-0.818,1.078C186.086,149.081,186.068,151.91,186.068,154.737z
		 M186.068,124.501c0,2.743-0.002,5.486,0.004,8.23c0.002,0.414-0.137,0.975,0.473,0.96c2.451-0.06,4.93,0.317,7.346-0.387
		c3.932-1.146,6.047-5.17,5.52-10.327c-0.453-4.41-3.443-7.414-7.344-7.378c-1.686,0.015-3.369,0.08-5.053,0.028
		c-0.73-0.022-0.986,0.177-0.965,1.133C186.107,119.339,186.068,121.92,186.068,124.501z"/>
	<path fill-rule="evenodd" clip-rule="evenodd" fill="#FFFFFF" d="M128.318,139.88c0-11.8,0.014-23.601-0.022-35.401
		c-0.003-1.143,0.267-1.408,1.176-1.399c5.427,0.053,10.858-0.09,16.282,0.062c4.984,0.14,9.721,1.54,13.811,5.251
		c3.699,3.355,5.871,7.896,6.768,13.349c0.902,5.479,0.777,10.917-0.93,16.157c-2.412,7.403-7.131,11.66-13.24,13.895
		c-3.514,1.285-7.127,1.663-10.773,1.49c-0.965-0.046-1.173,0.351-1.167,1.446c0.036,6.924,0,13.85,0.037,20.773
		c0.006,1.06-0.199,1.4-1.115,1.379c-3.201-0.072-6.405-0.073-9.606,0c-0.962,0.022-1.246-0.278-1.242-1.479
		C128.333,163.563,128.318,151.722,128.318,139.88z M140.241,128.065c0,3.895,0.021,7.787-0.015,11.68
		c-0.009,0.911,0.208,1.239,0.973,1.186c1.613-0.112,3.244-0.01,4.846-0.229c2.559-0.353,4.887-1.412,6.693-3.812
		c1.625-2.16,2.273-4.771,2.477-7.592c0.385-5.393-1.516-10.516-6.145-12.769c-2.584-1.258-5.27-1.11-7.959-1.148
		c-0.738-0.01-0.891,0.307-0.884,1.128C140.257,120.361,140.241,124.214,140.241,128.065z"/>
	<path fill-rule="evenodd" clip-rule="evenodd" d="M55.922,176.845c-3.473,0-6.945-0.023-10.417,0.02
		c-0.698,0.008-0.912-0.205-0.906-1.081c0.034-5.163-0.003-10.326,0.037-15.488c0.007-0.868-0.234-1.151-0.883-1.399
		c-8.228-3.148-14.368-12.43-15.146-22.826c-1.167-15.597,7.896-29.845,20.665-32.507c1.398-0.292,2.797-0.469,4.217-0.465
		c4.889,0.011,9.777,0.018,14.666-0.014c0.62-0.004,0.935,0.216,1.228,0.899c4.704,10.98,9.439,21.939,14.161,32.908
		c0.863,2.006,0.375,3.271-1.451,3.756c-1.411,0.375-2.823,0.793-4.253,1.01c-0.905,0.137-1.049,0.612-1.037,1.59
		c0.044,3.646,0.028,7.294,0.015,10.94c-0.017,4.562-2.718,7.864-6.479,7.947c-0.135,0.003-0.271-0.009-0.404,0.005
		c-0.827,0.085-1.908-0.452-2.418,0.224c-0.501,0.662-0.141,1.958-0.146,2.975c-0.019,3.319-0.006,6.638-0.007,9.957
		c0,1.551-0.001,1.552-1.325,1.552C62.665,176.845,59.293,176.845,55.922,176.845z M70.349,128.38
		c0.012-3.891-2.57-7.063-5.738-7.05c-3.118,0.012-5.693,3.147-5.724,6.968c-0.03,3.801,2.54,6.994,5.655,7.028
		C67.75,135.362,70.337,132.267,70.349,128.38z"/>
	<path fill-rule="evenodd" clip-rule="evenodd" d="M79.954,103.101c2.996,0,5.827,0.022,8.658-0.018
		c0.597-0.009,0.722,0.47,0.918,0.924c2.561,5.935,5.118,11.872,7.676,17.809c2.136,4.959,4.275,9.918,6.409,14.878
		c0.98,2.279,0.47,3.552-1.597,4.028c-1.42,0.329-2.833,0.703-4.257,0.995c-0.599,0.122-0.735,0.464-0.73,1.157
		c0.027,3.771,0.021,7.54,0.01,11.311c-0.013,4.579-2.692,7.865-6.47,7.946c-0.708,0.017-1.42,0.062-2.123-0.011
		c-0.713-0.073-0.907,0.226-0.899,1.088c0.037,4.098-0.014,8.196,0.037,12.294c0.013,1.058-0.182,1.404-1.102,1.371
		c-2.459-0.085-4.922-0.052-7.384-0.012c-0.625,0.009-0.808-0.236-0.804-0.979c0.023-4.262,0.024-8.524-0.001-12.786
		c-0.004-0.73,0.137-0.995,0.782-0.982c1.208,0.023,2.419,0.12,3.626-0.193c2.965-0.772,5.018-3.7,5.052-7.399
		c0.035-3.853,0.024-7.705-0.002-11.557c-0.005-0.793,0.15-1.151,0.856-1.275c1.396-0.244,2.773-0.637,4.157-0.975
		c1.996-0.486,2.555-1.902,1.608-4.1c-4.66-10.825-9.324-21.647-13.987-32.471C80.266,103.86,80.151,103.573,79.954,103.101z"/>
	<path fill-rule="evenodd" clip-rule="evenodd" fill="#FFFFFF" d="M70.349,128.38c-0.012,3.887-2.599,6.982-5.806,6.946
		c-3.116-0.034-5.685-3.228-5.655-7.028c0.03-3.82,2.605-6.956,5.724-6.968C67.778,121.317,70.36,124.489,70.349,128.38z"/>
</g>
</svg>
