<?xml version="1.0" encoding="utf-8"?>
<!-- Generator: Adobe Illustrator 16.0.0, SVG Export Plug-In . SVG Version: 6.00 Build 0)  -->
<!DOCTYPE svg PUBLIC "-//W3C//DTD SVG 1.1//EN" "http://www.w3.org/Graphics/SVG/1.1/DTD/svg11.dtd">
<svg version="1.1" id="Layer_1" xmlns="http://www.w3.org/2000/svg" xmlns:xlink="http://www.w3.org/1999/xlink" x="0px" y="0px"
	 width="280px" height="280px" viewBox="0 0 280 280" enable-background="new 0 0 280 280" xml:space="preserve">
<rect y="-0.042" fill-rule="evenodd" clip-rule="evenodd" fill="#222222" width="280" height="280"/>
<g>
	<path fill-rule="evenodd" clip-rule="evenodd" fill="#FFFFFF" d="M129.597,165.883c-2.71,10.447-5.18,20.227-7.875,29.943
		c-0.254,0.916-1.84,1.833-2.954,2.075c-3.716,0.807-7.499,1.307-11.742,2.004c0-4.871,0-9.481,0-14.555
		c-29.37,5.433-58.219,10.769-87.506,16.186c0-36.054,0-71.148,0-106.819c31.528-5.301,63.125-10.614,95.36-16.034
		c0,4.986,0,9.549,0,14.623c29.526-5.493,58.399-10.865,87.638-16.306c0,35.731,0,71.115,0,106.869
		c-20.711,3.489-41.313,6.961-62.931,10.604c2.514-9.626,4.821-18.458,7.182-27.496c18.407,13.899,42.45-0.365,44.163-22.993
		c0.213-2.806,0.231-5.709-0.235-8.47c-2.976-17.613-21.324-22.756-32.729-13.033c-0.096-1.277-0.172-2.293-0.271-3.608
		c-4.924,0-9.843,0-15.286,0c-1.336,4.819-2.723,9.816-4.181,15.073c-11.566-17.065-22.965-20.36-41.181-11.924
		c-2.848-15.93-14.876-18.351-28.071-18.826c-5.658-0.204-11.339-0.209-16.988,0.093c-1.335,0.071-3.419,1.518-3.75,2.72
		c-5.875,21.287-11.534,42.634-17.212,63.975c-0.116,0.435,0.105,0.959,0.164,1.409c0.387,0.138,0.693,0.326,1.011,0.348
		c15.632,1.094,15.632,1.093,19.649-14.064c0.467-1.763,0.932-3.525,1.236-4.674c10.416-1.436,20.513-2.828,30.986-4.273
		c1.094,9.207,5.373,17.934,16.162,21.926C110.568,174.478,120.12,172.641,129.597,165.883z"/>
	<path fill-rule="evenodd" clip-rule="evenodd" fill="#FFFFFF" d="M216.539,183.56c0-6.194,0-12.12,0-18.285
		c-2.574-0.164-4.687-0.298-7.31-0.466c-0.079-1.748-0.158-3.484-0.267-5.858c8.562,0,16.834-0.097,25.097,0.134
		c0.934,0.025,2.159,1.742,2.657,2.926c1.514,3.598,2.736,7.318,4.435,11.989c1.531-3.936,3.132-6.712,3.654-9.679
		c1.013-5.758,4.527-6.039,9.563-4.973c-3.146,7.679-6.079,15.219-9.42,22.573c-0.496,1.094-2.942,1.846-4.439,1.771
		c-1.242-0.061-2.934-1.309-3.521-2.482c-1.848-3.7-3.578-7.519-4.77-11.468c-1.26-4.176-3.564-5.705-8.383-4.267
		c0,5.709,0,11.763,0,18.084C221.233,183.56,219.297,183.56,216.539,183.56z"/>
	<path fill-rule="evenodd" clip-rule="evenodd" fill="#FFFFFF" d="M100.901,147.092c-0.011-7.868,5.489-14.207,12.274-14.146
		c5.683,0.051,9.82,4.461,9.706,10.348c-0.145,7.446-6.229,14.428-12.504,14.347C104.77,157.568,100.909,153.271,100.901,147.092z"
		/>
	<path fill-rule="evenodd" clip-rule="evenodd" fill="#FFFFFF" d="M174.271,143.47c-0.139,7.683-6.001,14.337-12.479,14.165
		c-5.441-0.144-9.581-4.828-9.469-10.715c0.144-7.569,6.077-14.145,12.61-13.973C170.67,133.097,174.384,137.283,174.271,143.47z"/>
	<path fill-rule="evenodd" clip-rule="evenodd" fill="#FFFFFF" d="M57.405,137.114c1.833-6.917,3.261-12.305,4.75-17.924
		c3.417,0,6.582-0.223,9.702,0.058c3.646,0.328,7.082,1.615,7.759,5.774c0.656,4.026-1.109,7.74-4.866,8.898
		C69.51,135.536,63.91,135.983,57.405,137.114z"/>
</g>
</svg>
