<?xml version="1.0" encoding="UTF-8" standalone="no"?>
<!-- Generator: Adobe Illustrator 16.0.0, SVG Export Plug-In . SVG Version: 6.00 Build 0)  -->

<svg
   version="1.1"
   id="Layer_1"
   x="0px"
   y="0px"
   width="280px"
   height="280px"
   viewBox="0 0 280 280"
   enable-background="new 0 0 280 280"
   xml:space="preserve"
   sodipodi:docname="tcm.svg"
   inkscape:version="1.2.2 (732a01da63, 2022-12-09)"
   xmlns:inkscape="http://www.inkscape.org/namespaces/inkscape"
   xmlns:sodipodi="http://sodipodi.sourceforge.net/DTD/sodipodi-0.dtd"
   xmlns="http://www.w3.org/2000/svg"
   xmlns:svg="http://www.w3.org/2000/svg"><defs
   id="defs5011" /><sodipodi:namedview
   id="namedview5009"
   pagecolor="#ffffff"
   bordercolor="#000000"
   borderopacity="0.25"
   inkscape:showpageshadow="2"
   inkscape:pageopacity="0.0"
   inkscape:pagecheckerboard="0"
   inkscape:deskcolor="#d1d1d1"
   showgrid="false"
   inkscape:zoom="1.4767857"
   inkscape:cx="-112.40629"
   inkscape:cy="228.87546"
   inkscape:window-width="1920"
   inkscape:window-height="991"
   inkscape:window-x="-9"
   inkscape:window-y="-9"
   inkscape:window-maximized="1"
   inkscape:current-layer="Layer_1"
   inkscape:pageshadow="2"
   showguides="false" />
<rect
   y="0.023242312"
   fill-rule="evenodd"
   clip-rule="evenodd"
   fill="#164E86"
   width="280"
   height="280"
   id="rect4994-7"
   style="fill:#818183;fill-opacity:1;stroke:none;stroke-width:0.999999;stroke-opacity:1"
   x="0" />

<path
   style="fill:#ffffff;stroke-width:0.545147"
   d="m 40.195011,185.0188 c -1.406255,-1.22561 -1.504245,-1.62749 -1.504245,-6.16898 0,-3.97889 0.158494,-4.85795 0.87591,-4.85795 0.715806,0 0.875911,0.86518 0.875911,4.73304 0,5.36395 0.357014,5.95446 3.599901,5.95446 2.917182,0 3.407409,-0.91044 3.407409,-6.32815 0,-3.67511 0.14814,-4.35935 0.943832,-4.35935 0.821858,0 0.913525,0.65767 0.709299,5.0891 -0.272048,5.90303 -0.743011,6.59452 -4.760238,6.98915 -2.279441,0.22393 -2.850696,0.0791 -4.147779,-1.05132 z m 67.465219,0.50603 c -1.99021,-1.00258 -2.93947,-2.77376 -2.96329,-5.52911 -0.0375,-4.34272 2.1984,-6.51278 6.71056,-6.51278 1.56204,0 2.5656,0.39035 3.82463,1.48764 1.76826,1.5411 2.25464,3.09272 0.96947,3.09272 -0.4056,0 -0.99684,-0.51123 -1.31387,-1.13605 -1.22469,-2.41368 -5.8726,-2.74427 -7.72973,-0.54978 -1.20956,1.42927 -0.92917,6.09253 0.43795,7.28405 2.21098,1.92695 7.59126,0.90662 7.59126,-1.43963 0,-0.32784 0.39416,-0.59609 0.87591,-0.59609 1.27768,0 1.07152,1.27184 -0.45722,2.82079 -1.60735,1.62863 -5.73988,2.18941 -7.94567,1.07824 z m 34.82629,-0.32384 c -0.88321,-0.60743 -1.60584,-1.54584 -1.60584,-2.08534 0,-1.28676 0.95943,-1.25348 1.76678,0.0613 1.56005,2.54051 6.70039,2.12613 6.70039,-0.54015 0,-1.08218 -0.46517,-1.3998 -3.21169,-2.19299 -3.80474,-1.09881 -5.25548,-2.11873 -5.25548,-3.69477 0,-1.5769 2.62154,-3.2661 5.0688,-3.2661 2.13464,0 4.85822,1.84157 4.85822,3.28491 0,1.1435 -1.56206,0.96503 -1.91734,-0.21907 -0.69535,-2.31743 -6.25785,-2.39492 -6.25785,-0.0872 0,1.25997 0.93163,1.88762 3.79562,2.55718 3.41401,0.79816 4.96351,1.91415 4.96351,3.57486 0,1.90343 -1.75346,3.17189 -4.79382,3.46788 -1.9685,0.19163 -2.84961,0.007 -4.1113,-0.86052 z m 13.20532,0.4378 c -1.03663,-0.46063 -2.54837,-2.40255 -2.54837,-3.27355 0,-0.74466 1.73734,-0.0542 2.05441,0.8165 0.78743,2.16225 5.50922,2.42665 6.76667,0.37889 0.8565,-1.39478 -0.61465,-2.69684 -3.84902,-3.40665 -2.9673,-0.65119 -4.39173,-1.71553 -4.37918,-3.27212 0.0112,-1.39457 0.52793,-2.07314 2.14246,-2.8138 2.97387,-1.36425 6.61675,-0.22286 7.47226,2.34123 0.53761,1.61126 -1.06677,1.51661 -1.91882,-0.1132 -1.28724,-2.46229 -5.953,-2.07151 -5.953,0.49858 0,1.06804 0.45393,1.35521 3.27009,2.06872 5.14535,1.30364 6.71924,3.36129 4.44409,5.81004 -1.21067,1.30305 -5.49954,1.85498 -7.50159,0.96536 z m 17.95389,-0.11396 c -1.99022,-1.00258 -2.93947,-2.77376 -2.96329,-5.52911 -0.0373,-4.31157 2.20045,-6.51278 6.62083,-6.51278 2.35994,0 5.62126,2.09314 5.62126,3.60774 0,1.33371 -1.34608,1.22647 -2.05131,-0.16343 -1.22468,-2.41368 -5.87259,-2.74427 -7.72972,-0.54978 -1.20956,1.42927 -0.92918,6.09253 0.43795,7.28405 2.21098,1.92695 7.59126,0.90662 7.59126,-1.43963 0,-0.32784 0.39416,-0.59609 0.87591,-0.59609 1.35022,0 1.03768,1.72585 -0.54758,3.02381 -1.74526,1.42896 -5.84852,1.88614 -7.85531,0.87522 z m 35.73624,0.16752 c -4.18939,-1.47073 -4.78095,-8.54693 -0.93492,-11.18359 2.61129,-1.79018 7.45577,-1.15647 9.23323,1.20779 1.10009,1.46328 1.28706,6.30629 0.3052,7.90524 -1.311,2.13494 -5.52871,3.14999 -8.60351,2.07056 z m 5.67721,-1.53021 c 1.70703,-0.79622 2.61171,-4.03549 1.75725,-6.29195 -0.80666,-2.1302 -2.04684,-2.86047 -4.85785,-2.86047 -2.91572,0 -4.21649,1.49153 -4.21649,4.83483 0,3.3433 1.30077,4.83482 4.21649,4.83482 1.09542,0 2.4907,-0.23275 3.1006,-0.51723 z m 34.80551,0.98922 c -1.6296,-1.11718 -2.08975,-3.01663 -0.7308,-3.01663 0.4443,0 0.94443,0.45528 1.11139,1.01173 0.77752,2.59131 6.54798,2.14217 6.54798,-0.50966 0,-1.08218 -0.46517,-1.3998 -3.21169,-2.193 -3.80473,-1.09881 -5.25548,-2.11872 -5.25548,-3.69476 0,-1.54315 2.61837,-3.2661 4.96351,-3.2661 1.03747,0 2.57867,0.47466 3.4249,1.05479 1.66715,1.14293 2.07877,3.01664 0.66269,3.01664 -0.48175,0 -0.87591,-0.33825 -0.87591,-0.75166 0,-2.19279 -5.39191,-2.80573 -6.15871,-0.70011 -0.5173,1.42048 0.54279,2.26986 3.69461,2.96023 3.41375,0.74776 4.79987,1.79395 4.79987,3.62277 0,1.90279 -2.415,3.52056 -5.25548,3.52056 -1.31949,0 -2.78486,-0.41585 -3.71688,-1.0548 z M 31.683456,180.35348 v -5.34376 h -1.75183 c -0.963501,0 -1.75183,-0.22901 -1.75183,-0.50892 0,-0.29405 1.849157,-0.50893 4.37957,-0.50893 2.530413,0 4.37957,0.21488 4.37957,0.50893 0,0.27991 -0.78832,0.50892 -1.75183,0.50892 h -1.75183 v 5.34376 c 0,4.41071 -0.152926,5.34375 -0.87591,5.34375 -0.722975,0 -0.87591,-0.93304 -0.87591,-5.34375 z m 20.437984,-0.50893 v -5.85268 h 3.753913 c 2.634063,0 4.027664,0.23858 4.671543,0.79974 1.772925,1.54518 0.75309,5.3074 -1.438688,5.3074 -1.547898,0 -1.475862,0.23699 0.946189,3.11263 2.860589,3.39629 1.102888,3.36181 -1.904885,-0.0374 -1.477233,-1.66947 -2.676924,-2.5303 -3.546318,-2.54464 -1.190663,-0.0196 -1.31387,0.21692 -1.31387,2.52295 0,1.39955 -0.262771,2.54464 -0.583947,2.54464 -0.355441,0 -0.583937,-2.29018 -0.583937,-5.85267 z m 7.492024,-2.48941 c 0.23712,-1.81035 -0.612891,-2.32748 -3.842387,-2.33762 l -2.481753,-0.008 v 2.06231 2.06231 l 3.065699,-0.15383 c 2.898518,-0.14544 3.076211,-0.23408 3.258441,-1.62539 z m 4.770767,2.48941 c 0,-7.40084 0.571558,-7.54416 5.136469,-1.28796 1.831882,2.5106 3.527773,4.57177 3.768648,4.58036 0.240884,0.009 0.43796,-2.04553 0.43796,-4.56472 0,-2.71429 0.237902,-4.58036 0.583946,-4.58036 0.355441,0 0.583937,2.29018 0.583937,5.85268 0,7.38574 -0.545217,7.52152 -5.116792,1.27422 -1.842705,-2.51815 -3.54745,-4.57931 -3.788325,-4.58035 -0.240875,-8.7e-4 -0.43796,2.05926 -0.43796,4.57845 0,2.71429 -0.237902,4.58036 -0.583946,4.58036 -0.355441,0 -0.583937,-2.29018 -0.583937,-5.85268 z m 14.01462,0 v -5.85268 h 4.087597 c 2.335767,0 4.087597,0.21811 4.087597,0.50893 0,0.28274 -1.557184,0.50892 -3.50366,0.50892 h -3.50365 v 2.03572 2.03572 h 3.50365 c 4.47479,0 4.594418,0.91748 0.145987,1.11969 l -3.357664,0.15263 -0.179571,2.16294 -0.179561,2.16295 h 3.537235 c 1.968858,0 3.537234,0.22566 3.537234,0.50893 0,0.29082 -1.75183,0.50893 -4.087597,0.50893 h -4.087597 z m 10.510961,0 v -5.85268 h 3.753913 c 2.634063,0 4.027664,0.23858 4.67154,0.79974 1.77293,1.54518 0.75309,5.3074 -1.438685,5.3074 -1.576678,0 -1.450828,0.41823 0.902119,2.99797 2.322636,2.5465 2.346906,2.60025 1.173546,2.60025 -0.47553,0 -1.845485,-1.14509 -3.044357,-2.54464 -1.505717,-1.75776 -2.592656,-2.54465 -3.51498,-2.54465 -1.212953,0 -1.335213,0.233 -1.335213,2.54465 0,1.39955 -0.26277,2.54464 -0.583937,2.54464 -0.35545,0 -0.583946,-2.29018 -0.583946,-5.85268 z m 7.492024,-2.48941 c 0.237123,-1.81035 -0.612892,-2.32748 -3.842387,-2.33762 l -2.481754,-0.008 v 2.06231 2.06231 l 3.0657,-0.15383 c 2.898518,-0.14544 3.076211,-0.23408 3.258441,-1.62539 z m 22.872974,2.48941 c 0,-4.8631 0.1481,-5.85268 0.87591,-5.85268 0.72299,0 0.87592,0.93303 0.87592,5.34376 v 5.34374 h 2.33577 c 1.28467,0 2.33576,0.22902 2.33576,0.50893 0,0.27991 -1.44526,0.50893 -3.21167,0.50893 h -3.21169 z m 8.21033,5.21652 c 0.0193,-0.34988 1.00958,-2.92634 2.20057,-5.72544 1.88754,-4.43617 2.35139,-5.1075 3.61451,-5.23118 1.35293,-0.13248 1.60817,0.24739 3.84712,5.72544 1.79691,4.39655 2.19185,5.86734 1.57547,5.86734 -0.45243,0 -1.09741,-0.68705 -1.43328,-1.52678 -0.58425,-1.46068 -0.75791,-1.52679 -4.01083,-1.52679 -3.30312,0 -3.41111,0.0435 -3.7849,1.52679 -0.36734,1.45763 -2.08197,2.21788 -2.00866,0.89062 z m 7.46421,-6.48884 c -0.65075,-1.67946 -1.36017,-3.05358 -1.57647,-3.05358 -0.41825,0 -2.41922,4.58162 -2.41922,5.53929 0,0.3325 1.0733,0.56786 2.58945,0.56786 h 2.58944 z m 31.62479,1.27232 c 0,-3.5625 0.2285,-5.85268 0.58395,-5.85268 0.35545,0 0.58395,2.29018 0.58395,5.85268 0,3.5625 -0.2285,5.85268 -0.58395,5.85268 -0.35545,0 -0.58395,-2.29018 -0.58395,-5.85268 z m 22.77376,-0.0354 c 0,-5.74211 0.0312,-5.88405 1.25971,-5.72544 0.95881,0.12377 1.7343,1.13515 3.24656,4.23405 1.09277,2.23929 2.17949,4.24155 2.41494,4.44947 0.23544,0.20792 1.4287,-1.68148 2.65168,-4.19867 1.68895,-3.47624 2.49028,-4.5767 3.33267,-4.5767 1.02516,0 1.10906,0.44277 1.10906,5.85269 0,4.86309 -0.1481,5.85268 -0.87592,5.85268 -0.71392,0 -0.87984,-0.8706 -0.89718,-4.7076 l -0.0213,-4.70758 -2.26036,4.56463 c -1.24319,2.51054 -2.51616,4.63895 -2.82883,4.72978 -0.31265,0.0908 -1.5852,-1.93084 -2.82786,-4.49259 l -2.25938,-4.65774 -0.1679,4.63555 c -0.13265,3.66161 -0.34735,4.63552 -1.02193,4.63552 -0.70016,0 -0.854,-1.06066 -0.854,-5.88808 z m 35.38862,5.4639 c -0.18741,-0.26429 -1.23769,-2.5099 -2.33395,-4.99023 -1.09624,-2.48034 -2.178,-4.91048 -2.40389,-5.40032 -0.28339,-0.61453 -0.13564,-0.89064 0.47662,-0.89064 0.80781,0 1.48314,1.25547 4.48653,8.34068 0.34275,0.80858 0.73529,1.37243 0.8723,1.25302 0.13702,-0.11942 1.14523,-2.26961 2.24046,-4.77818 1.19571,-2.73872 2.35616,-4.62399 2.90445,-4.71859 0.70431,-0.12151 0.3336,1.15867 -1.62112,5.59822 -2.34064,5.31607 -3.67183,6.92511 -4.6214,5.58604 z m 8.991,-5.42853 c 0,-4.8631 0.14811,-5.85268 0.87592,-5.85268 0.72782,0 0.87591,0.98958 0.87591,5.85268 0,4.8631 -0.14809,5.85268 -0.87591,5.85268 -0.72781,0 -0.87592,-0.98958 -0.87592,-5.85268 z m 4.67155,0 v -5.85268 h 4.08759 c 2.33577,0 4.0876,0.21811 4.0876,0.50893 0,0.28274 -1.55718,0.50892 -3.50365,0.50892 h -3.50366 v 2.03572 2.03572 h 3.50366 c 4.47479,0 4.59441,0.91748 0.14599,1.11969 l -3.35768,0.15263 -0.17956,2.16294 -0.17956,2.16295 h 3.53723 c 1.96886,0 3.53723,0.22566 3.53723,0.50893 0,0.29082 -1.75183,0.50893 -4.0876,0.50893 h -4.08759 z m -115.32864,-17.344 c -0.64233,-0.13146 -3.0073,-0.60229 -5.25548,-1.04628 -15.07517,-2.97719 -26.562689,-13.7503 -29.502549,-27.66777 -1.11385,-5.27304 -0.840339,-14.82059 0.561296,-19.59375 3.873431,-13.19057 14.958583,-22.748733 30.214803,-26.052655 5.47035,-1.184674 17.70148,-1.176512 23.25204,0.01556 11.17347,2.399593 21.22817,9.246761 25.90307,17.639825 l 2.40952,4.32589 -1.61989,0.59224 c -0.89094,0.32573 -2.53134,0.73843 -3.64533,0.91712 -1.9668,0.31549 -2.05682,0.25759 -3.10893,-1.99967 -1.37964,-2.95995 -5.46808,-7.55793 -9.01059,-10.133584 -3.08322,-2.24171 -9.43452,-4.94656 -13.84757,-5.89732 -3.97248,-0.855831 -13.24723,-0.734047 -17.51827,0.230037 -8.17905,1.846223 -15.68539,6.549167 -20.25249,12.688777 -1.23299,1.65751 -2.940095,4.86377 -3.793585,7.125 -1.355002,3.59 -1.557691,4.98254 -1.598445,10.98187 -0.03985,5.86069 0.154602,7.42968 1.322725,10.67467 3.735105,10.37583 10.532165,16.62129 21.402085,19.66527 12.51028,3.50335 26.27756,1.38554 34.90724,-5.36972 3.37876,-2.64489 7.11615,-7.40308 8.12894,-10.34922 0.67075,-1.95119 0.73727,-1.99028 2.87856,-1.69186 3.24554,0.45231 5.18022,1.20402 5.18022,2.01273 0,0.39438 -1.06367,2.56921 -2.36371,4.83295 -4.3597,7.59148 -12.66969,13.60133 -23.03779,16.66111 -3.99861,1.18005 -5.80708,1.40019 -12.55475,1.52825 -4.33578,0.0823 -8.40878,0.0421 -9.05112,-0.0894 z M 48.033843,130.9874 V 103.25079 H 36.938936 25.844029 V 96.634706 90.018642 H 57.37692 88.909812 v 6.616064 6.616084 H 77.814905 66.719998 v 27.73661 27.73661 H 57.37692 48.033843 Z M 177.08511,124.37132 V 90.018642 h 10.72099 10.72099 l 9.81077,20.738838 c 5.39592,11.40636 9.97218,20.90484 10.16945,21.10773 0.19728,0.20288 4.86591,-9.07234 10.37472,-20.61161 l 10.01604,-20.980497 10.84541,-0.138464 10.8454,-0.138455 v 34.363906 34.36392 h -8.75914 -8.75913 v -21.20537 c 0,-11.66294 -0.14647,-21.07771 -0.32547,-20.92171 -0.179,0.15601 -4.73518,9.64117 -10.12486,21.07813 l -9.79941,20.79449 -4.08722,0.14786 -4.08721,0.14787 -9.80692,-20.75948 c -5.3938,-11.41771 -10.03487,-20.97705 -10.3135,-21.24296 -0.28692,-0.27384 -0.50658,8.71889 -0.50658,20.73885 v 21.22232 h -8.46716 -8.46717 z m -53.85406,28.99557 c -12.53182,-2.17359 -21.56433,-10.78876 -23.777995,-22.67936 -2.614916,-14.04588 4.006475,-26.91032 16.610065,-32.271054 8.92222,-3.794906 22.20222,-3.771606 30.05326,0.0528 5.964,2.905144 9.9433,6.410074 13.05615,11.499744 l 1.64949,2.69701 -4.24522,1.13059 c -2.33486,0.62181 -4.27996,1.07985 -4.32243,1.01785 -0.0424,-0.062 -0.4327,-0.91429 -0.86716,-1.89398 -1.99806,-4.50547 -5.76458,-7.94671 -11.09047,-10.13268 -2.84765,-1.16879 -3.93977,-1.31821 -9.63505,-1.31821 -6.00918,0 -6.67658,0.10454 -10.35025,1.62127 -10.81759,4.46621 -15.92566,15.50532 -12.96164,28.01165 2.63067,11.09984 10.98374,17.43467 23.09935,17.51819 10.25021,0.0707 17.32853,-3.81832 20.99958,-11.53758 l 1.26231,-2.65434 3.49071,0.92113 c 1.91989,0.50662 3.61707,1.03126 3.7715,1.16585 0.15444,0.13461 -0.5377,1.73944 -1.53808,3.56629 -5.90017,10.77455 -19.68522,15.97658 -35.20412,13.2849 z"
   id="path182" /></svg>
