<?xml version="1.0" encoding="UTF-8" standalone="no"?>
<!-- Generator: Adobe Illustrator 16.0.0, SVG Export Plug-In . SVG Version: 6.00 Build 0)  -->

<svg
   version="1.1"
   id="Layer_1"
   x="0px"
   y="0px"
   width="280px"
   height="280px"
   viewBox="0 0 280 280"
   enable-background="new 0 0 280 280"
   xml:space="preserve"
   sodipodi:docname="trutv.svg"
   inkscape:version="1.2.2 (732a01da63, 2022-12-09)"
   xmlns:inkscape="http://www.inkscape.org/namespaces/inkscape"
   xmlns:sodipodi="http://sodipodi.sourceforge.net/DTD/sodipodi-0.dtd"
   xmlns="http://www.w3.org/2000/svg"
   xmlns:svg="http://www.w3.org/2000/svg"><defs
   id="defs216276">
	
	
	
</defs><sodipodi:namedview
   id="namedview216274"
   pagecolor="#ffffff"
   bordercolor="#666666"
   borderopacity="1.0"
   inkscape:pageshadow="2"
   inkscape:pageopacity="0.0"
   inkscape:pagecheckerboard="0"
   showgrid="false"
   inkscape:zoom="0.74285714"
   inkscape:cx="242.30769"
   inkscape:cy="195.19231"
   inkscape:window-width="1920"
   inkscape:window-height="991"
   inkscape:window-x="-9"
   inkscape:window-y="-9"
   inkscape:window-maximized="1"
   inkscape:current-layer="layer2"
   inkscape:showpageshadow="2"
   inkscape:deskcolor="#d1d1d1" />
<g
   inkscape:groupmode="layer"
   id="layer2"
   inkscape:label="BG"><rect
     y="0"
     fill-rule="evenodd"
     clip-rule="evenodd"
     fill="#164E86"
     width="280"
     height="280"
     id="rect4994-7"
     style="fill:#2b2b2b;fill-opacity:1;stroke:none;stroke-width:0.999999;stroke-opacity:1"
     x="0" /></g>
<g
   inkscape:groupmode="layer"
   id="layer1"
   inkscape:label="Logo"><path
     style="fill:#ffffff;stroke-width:0.500148"
     d="m 147.96401,176.51043 c -8.85457,-1.30355 -15.71051,-6.38473 -18.57943,-13.7699 -1.79772,-4.62766 -2.08563,-8.9615 -2.08563,-31.39468 v -21.64914 h 11.19431 11.19431 v 17.57273 c 0,10.63461 0.21117,18.56779 0.53485,20.09302 0.72485,3.41557 2.27339,5.60373 4.92298,6.95642 4.8439,2.47293 10.13509,0.84602 12.57046,-3.8651 l 1.37519,-2.66024 v -19.05786 -19.05785 l 11.25803,0.13513 11.25804,0.13514 0.20966,31.91917 c 0.11532,17.55555 0.0812,32.43628 -0.0757,33.06828 l -0.28539,1.14911 -10.31165,-0.13586 -10.31163,-0.13586 0.0772,-4.77646 c 0.0617,-3.81626 -0.0383,-4.57979 -0.49753,-3.79819 -1.46016,2.48538 -5.15512,5.90432 -7.69141,7.11686 -1.5206,0.72696 -4.45941,1.62728 -6.53071,2.00071 -4.21532,0.75997 -4.12518,0.75828 -8.22594,0.15457 z M 44.553238,175.73851 c -0.187522,-0.1895 -0.340954,-11.167 -0.340954,-24.39444 V 127.29418 H 38.490747 32.76921 v -8.79874 -8.79873 h 5.721537 5.721537 v -9.05014 -9.050134 h 10.945549 c 6.020052,0 11.067,-0.0566 11.215437,-0.12569 0.148436,-0.0691 0.310873,4.00342 0.360969,9.050134 l 0.09108,9.17583 h 5.858093 5.858093 v 8.79873 8.79874 h -5.942996 -5.94299 l -0.01602,24.25938 -0.01602,24.25938 -10.864647,0.13507 c -5.975558,0.0743 -11.018078,-0.02 -11.205605,-0.2095 z m 36.973419,-32.85799 v -33.18381 h 10.448024 10.448029 v 5.35468 5.35468 l 1.41103,-1.96088 c 4.22282,-5.86834 10.08668,-8.74848 17.81158,-8.74848 h 2.66848 v 11.56405 11.56406 h -3.70695 c -8.22229,0 -12.8464,2.04201 -15.37045,6.7876 -1.0245,1.92622 -1.07666,2.73828 -1.23521,19.23153 l -0.16555,17.22038 H 92.681152 81.526657 Z m 139.058223,8.19637 c -2.58454,-0.34685 -7.85821,-2.22697 -10.57202,-3.76903 -6.08235,-3.45614 -11.43268,-10.12281 -13.85807,-17.26753 -1.1389,-3.35501 -1.36021,-4.85782 -1.36691,-9.28235 -0.0243,-16.04736 10.57849,-28.186204 26.78842,-30.669334 8.43482,-1.2921 18.50389,2.2889 24.91504,8.86087 14.64071,15.007974 10.60638,39.678494 -8.03112,49.111534 -5.33498,2.70021 -11.93277,3.81335 -17.87534,3.01584 z m -4.46362,-27.3022 1.53842,-8.79874 3.05485,-0.14904 3.05484,-0.14904 0.43983,-2.1135 c 0.24191,-1.16241 0.35176,-2.28318 0.24411,-2.49058 -0.10764,-0.2074 -4.19924,-0.37708 -9.09244,-0.37708 -4.8932,0 -8.99336,0.16968 -9.11146,0.37708 -0.1181,0.2074 -0.36517,1.42655 -0.54905,2.70922 l -0.33431,2.33213 3.25607,-0.26413 c 1.79084,-0.14527 3.25608,-0.15089 3.25608,-0.0125 0,0.1384 -0.67166,4.00958 -1.49258,8.60262 -0.82092,4.59304 -1.49257,8.59463 -1.49257,8.89242 0,0.34119 1.05219,0.48568 2.84489,0.39066 l 2.84489,-0.15079 1.53843,-8.79874 z m 21.59009,3.89391 c 1.48403,-2.83298 4.22664,-7.95709 6.09468,-11.3869 1.86804,-3.42981 3.39644,-6.32534 3.39644,-6.4345 0,-0.10916 -1.38414,-0.13112 -3.07587,-0.0488 l -3.07587,0.14969 -4.00497,7.79317 -4.00497,7.79317 -0.59709,-7.54178 c -0.32839,-4.14797 -0.61225,-7.71146 -0.63079,-7.91886 -0.0186,-0.20743 -1.26509,-0.37711 -2.7701,-0.37711 -1.50502,0 -2.73785,0.16968 -2.73963,0.37708 -0.009,1.05307 2.08783,21.58335 2.25952,22.12255 0.13214,0.41502 1.26157,0.62757 3.32526,0.6258 l 3.12515,-0.003 2.69824,-5.15087 z"
     id="path198" /></g></svg>
