<?xml version="1.0" encoding="utf-8"?>
<!-- Generator: Adobe Illustrator 16.0.0, SVG Export Plug-In . SVG Version: 6.00 Build 0)  -->
<!DOCTYPE svg PUBLIC "-//W3C//DTD SVG 1.1//EN" "http://www.w3.org/Graphics/SVG/1.1/DTD/svg11.dtd">
<svg version="1.1" id="Layer_1" xmlns="http://www.w3.org/2000/svg" xmlns:xlink="http://www.w3.org/1999/xlink" x="0px" y="0px"
	 width="280px" height="280px" viewBox="0 0 280 280" enable-background="new 0 0 280 280" xml:space="preserve">
<rect y="-0.042" fill-rule="evenodd" clip-rule="evenodd" fill="#164E86" width="280" height="280"/>
<g>
	<path fill-rule="evenodd" clip-rule="evenodd" fill="#FFFFFF" d="M49.913,105.951c1.135-10.178,1.652-19.145,3.263-27.909
		c1.333-7.255,6.081-12.808,11.725-17.517c20.582-17.169,56.219-15.673,73.672,3.994c5.657,6.376,8.965,14.836,13.209,22.107
		c-0.063,0.136,0.537-0.878,0.869-1.973c8.328-27.486,29.063-38.048,55.484-35.516c8.143,0.78,16.559,2.517,24.025,5.728
		c16.346,7.03,24.816,25.896,20.223,42.207c-2.346,8.322-7.951,13.827-15.521,17.226c-13.787,6.188-27.742,12.002-41.621,17.984
		c-1.277,0.55-2.518,1.185-3.576,2.909c20.508,0,41.014,0,62.326,0c0,9.961,0.117,19.237-0.203,28.499
		c-0.027,0.832-2.885,2.23-4.438,2.243c-13.496,0.104-26.994-0.099-40.492-0.119c-50.164-0.075-100.327-0.117-150.491-0.171
		c-2.314-0.002-4.628,0-7.659,0c0-6.245-0.004-12.012,0.001-17.778c0.003-3.999,0.272-8.018-0.02-11.995
		c-0.761-10.34,3.84-17.848,12.485-22.682c8.685-4.856,17.793-8.955,26.724-13.37c4.766-2.355,9.621-4.542,14.303-7.051
		c5.062-2.713,6.807-6.579,5.378-11.02c-1.218-3.786-6.016-6.772-10.305-6.415c-5.076,0.423-8.465,3.83-9.285,8.808
		c-0.25,1.515-1.145,3.599-2.345,4.178C75.694,94.089,63.616,99.598,49.913,105.951z M87.707,134.403
		c2.11,0.573,2.559,0.801,3.009,0.804c19.662,0.088,39.325,0.105,58.987,0.277c3.154,0.027,3.988-1.274,3.973-4.165
		c-0.031-6.772,2.678-12.441,8.301-16.168c4.824-3.197,9.955-6.048,15.236-8.417c10.303-4.622,20.861-8.665,31.195-13.219
		c4.822-2.125,6.902-6.405,5.805-10.397c-1.313-4.771-5.957-7.764-11.158-7.189c-5.021,0.554-8.609,3.744-8.697,8.604
		c-0.057,3.13-1.473,4.277-4.018,5.369c-21.986,9.431-43.928,18.966-65.875,28.488C112.634,123.521,100.82,128.689,87.707,134.403z"
		/>
	<path fill-rule="evenodd" clip-rule="evenodd" fill="#FFFFFF" d="M214.522,173.15c-4.189,9.564-8.361,19.095-12.539,28.622
		c-0.934,2.128-1.742,4.331-2.893,6.335c-0.578,1.007-1.908,2.388-2.701,2.271c-1.148-0.168-2.58-1.331-3.092-2.438
		c-3.533-7.641-6.857-15.378-10.783-24.298c-3.078,6.978-5.521,13.016-8.404,18.834c-1.428,2.88-3.67,5.356-5.543,8.015
		c-1.709-2.645-3.756-5.132-5.063-7.961c-4.449-9.618-8.635-19.356-12.938-29.087c7.213-2.099,8.041-1.745,10.738,4.312
		c2.426,5.444,4.863,10.884,7.826,17.516c3.137-7.124,5.705-13.428,8.734-19.502c0.74-1.484,2.855-2.666,4.58-3.188
		c2.754-0.834,4.521,0.57,5.641,3.359c2.451,6.11,5.223,12.093,8.391,19.331c2.822-6.363,5.549-11.586,7.459-17.093
		C205.782,172.862,208.878,171.253,214.522,173.15z"/>
	<path fill-rule="evenodd" clip-rule="evenodd" fill="#FFFFFF" d="M59.876,184.603c0,9.244,0,17.186,0,25.392
		c-2.784,0-5.207,0-8.058,0c0-12.337,0-24.675,0-38.632c3.419,1.478,6.483,2.1,8.622,3.851c8.072,6.612,15.843,13.591,24.793,21.358
		c0-8.604,0-16.057,0-23.797c3.244,0,5.668,0,8.505,0c0,12.591,0,25.129,0,38.92c-2.096-1.035-4.032-1.568-5.419-2.746
		c-8.108-6.89-16.083-13.937-24.118-20.913C63.083,187.064,61.882,186.189,59.876,184.603z"/>
	<path fill-rule="evenodd" clip-rule="evenodd" fill="#FFFFFF" d="M111.816,209.921c0-12.423,0-24.518,0-37.029
		c8.538,0,16.932,0,25.375,0c1.622,5.122,1.307,5.619-3.969,5.68c-4.118,0.046-8.237,0.009-12.638,0.009c0,3.276,0,5.861,0,9.07
		c4.717,0,9.437,0,14.408,0c0,2.386,0,4.155,0,6.572c-4.644,0-9.366,0-14.396,0c0,3.365,0,6.093,0,9.409c6.527,0,12.924,0,19.504,0
		c0,2.37,0,4.156,0,6.289C130.836,209.921,121.602,209.921,111.816,209.921z"/>
	<path fill-rule="evenodd" clip-rule="evenodd" fill="#FFFFFF" d="M254.411,174.321c-0.748,2.292-1.299,3.979-1.783,5.459
		c-3.861-0.514-7.418-1.372-10.951-1.28c-1.557,0.041-3.064,2.01-4.596,3.104c1.166,1.389,2.074,3.259,3.559,4.058
		c2.443,1.314,5.314,1.806,7.912,2.875c6.258,2.58,9.16,6.58,8.52,11.451c-0.682,5.161-4.682,9.2-10.939,10.025
		c-3.904,0.516-8.02,0.434-11.912-0.184c-6.277-0.994-6.799-2.079-6.326-8.197c4.783,0.701,9.596,1.89,14.406,1.884
		c2.023-0.002,4.043-2.527,6.064-3.906c-1.602-1.698-2.92-3.913-4.869-4.974c-2.867-1.561-6.314-2.029-9.277-3.456
		c-3.656-1.759-5.92-4.62-5.666-9.101c0.252-4.449,2.803-7.001,6.557-8.536C241.438,170.954,247.702,171.59,254.411,174.321z"/>
</g>
</svg>
