<?xml version="1.0" encoding="utf-8"?>
<!-- Generator: Adobe Illustrator 16.0.0, SVG Export Plug-In . SVG Version: 6.00 Build 0)  -->
<!DOCTYPE svg PUBLIC "-//W3C//DTD SVG 1.1//EN" "http://www.w3.org/Graphics/SVG/1.1/DTD/svg11.dtd">
<svg version="1.1" id="Layer_1" xmlns="http://www.w3.org/2000/svg" xmlns:xlink="http://www.w3.org/1999/xlink" x="0px" y="0px"
	 width="280px" height="280px" viewBox="0 0 280 280" enable-background="new 0 0 280 280" xml:space="preserve">
<rect fill-rule="evenodd" clip-rule="evenodd" fill="#FFFFFF" width="280" height="280"/>
<g>
	<path fill-rule="evenodd" clip-rule="evenodd" fill="#F5814B" d="M16.652,196.971c4.234-22.388,8.751-44.562,12.529-66.938
		c2.014-11.937,4.266-23.743,7.06-35.397c0.618-2.575,0.548-5.675,4.006-5.615c3.069,0.053,3.715,1.972,4.316,5.092
		c4.827,25.024,10.451,49.788,14.582,75.044c1.158,7.085,3.484,13.845,4.867,20.885c0.509,2.59,2.11,6.605-1.767,7.727
		c-3.07,0.89-5.264-0.38-5.852-4.889c-0.821-6.282-3.101-12.086-3.066-18.727c0.036-6.745-2.383-10.014-8.452-9.799
		c-15.219,0.535-15.232,0.11-19.011,19.688c-0.38,1.972-1.099,4.026-0.941,5.944C25.643,198.764,21.941,198.869,16.652,196.971z
		 M40.576,104.313c-3.611,15.088-4.696,30.781-9,46.222c4.382,0,7.817-0.44,11.157,0.098c5.65,0.91,6.235-3.353,5.055-8.291
		C44.811,129.885,42.411,117.282,40.576,104.313z"/>
	<path fill-rule="evenodd" clip-rule="evenodd" fill="#F5834F" d="M126.939,137.966c5.887-8.028,6.014-8.151,11.088,0.438
		c2.188,3.702,3.114,0.848,3.71-0.943c1.119-3.369,2.19-7.162,5.555-5.726c3.366,1.437,5.75,5.332,5.815,9.939
		c0.239,16.929,0.118,33.86,0.1,50.792c-0.003,1.697,0.063,3.81-2.029,3.389c-1.819-0.366-1.702-2.386-1.708-4.093
		c-0.027-9.927-0.02-19.852-0.023-29.778c-0.002-1.751,0.097-3.514-0.026-5.251c-0.372-5.271,0.525-13.991-3.658-14.108
		c-5.522-0.153-5.239,8.806-5.513,14.44c-0.495,10.178-0.014,20.43-0.267,30.636c-0.068,2.712,1.72,7.732-1.797,7.771
		c-2.794,0.03-1.324-4.783-1.365-7.346c-0.182-11.089-0.012-22.184-0.111-33.277c-0.043-4.875,0.32-11.886-4.141-12.274
		c-4.737-0.413-5.896,6.698-6.12,11.792c-0.511,11.644-0.281,23.338-0.556,35.003c-0.052,2.21,1.405,6.239-1.654,6.299
		c-2.376,0.049-1.458-3.704-1.468-5.789c-0.082-16.931-0.088-33.863,0.01-50.793c0.012-2.011-1.14-5.176,1.503-5.808
		C126.977,132.636,124.888,137.466,126.939,137.966z"/>
	<path fill-rule="evenodd" clip-rule="evenodd" fill="#010101" d="M149.774,108.461c-11.376,0-22.754-0.213-34.125,0.117
		c-3.88,0.112-5.064-1.334-4.86-6.284c0.383-9.28-2.446-21.506,1.159-27.088c3.73-5.777,13.617-1.611,20.8-1.714
		c16.833-0.242,33.674,0.136,50.502-0.22c4.483-0.095,5.85,1.465,5.56,7.188c-0.46,8.978,2.34,20.809-1.148,26.241
		c-3.621,5.634-13.187,1.39-20.143,1.706C161.609,108.674,155.689,108.461,149.774,108.461z M149.701,103.213
		c7.966,0,15.931,0,23.896,0c14.093,0,13.965,0,13.848-18.297c-0.029-4.723-0.7-6.369-4.798-6.302
		c-19.109,0.312-38.224,0.075-57.336,0.051c-13.229-0.016-13.05-0.001-13.188,17.405c-0.044,5.504,0.848,7.508,5.494,7.297
		C128.3,102.88,139.005,103.213,149.701,103.213z"/>
	<path fill-rule="evenodd" clip-rule="evenodd" fill="#1C1C1C" d="M246.606,180.351c2.88-3.685,1.65-8.043,2.226-11.926
		c2.78-18.723,5.711-37.406,8.634-56.094c0.369-2.359,1.056-4.688,3.555-3.774c2.301,0.844,0.678,2.77,0.484,4.13
		c-3.718,26.149-7.415,52.299-12.488,78.1c-0.593,3.02-1.288,3.64-3.405,3.651c-2.502,0.014-2.032-2.065-2.332-4.058
		c-3.095-20.436-6.142-40.889-9.543-61.243c-0.959-5.752-1.217-11.489-1.642-17.265c-0.152-2.048-0.059-3.387,1.87-3.442
		c1.57-0.045,2.489,0.461,2.636,2.808c1.042,16.809,5.188,32.933,6.728,49.624C243.936,167.45,244.739,173.894,246.606,180.351z"/>
	<path fill-rule="evenodd" clip-rule="evenodd" fill="#F5814C" d="M167.752,164.73c-0.003-7.308,0.762-14.418,2.417-21.477
		c1.397-5.954,3.47-12.095,8.497-11.539c4.52,0.497,7.479,6.503,8.325,12.287c0.955,6.528,0.785,13.327,1.104,20.008
		c0.143,2.984-0.997,4.166-3.269,4.077c-2.722-0.104-5.47-0.292-8.165,0.07c-2.19,0.297-5.925-2.336-5.48,4.231
		c0.455,6.728,4.676,15.078,7.771,14.858c3.124-0.225,2.974-3.916,4.063-6.214c0.707-1.493,1.085-3.741,2.624-3.414
		c2.036,0.433,1.767,2.943,1.732,4.986c-0.12,7.136-2.98,13.254-7.842,14.74c-4.987,1.523-7.456-4.268-9.087-10.332
		C168.475,179.698,167.935,172.298,167.752,164.73z M177.771,157.912c2.106-1.897,7.009,2.738,6.421-4.079
		c-0.396-4.583-0.718-11.937-5.977-11.644c-4.39,0.243-6.556,6.105-6.863,11.464C170.952,160.604,175.632,156.104,177.771,157.912z"
		/>
	<path fill-rule="evenodd" clip-rule="evenodd" fill="#010101" d="M204.556,156.692c0-9.914-0.349-19.855,0.122-29.732
		c0.314-6.61-1.209-8.977-6.362-8.088c-2.677,0.461-5.718,1.454-5.695-5.073c0.023-6.234,2.668-5.364,5.588-5.346
		c6.361,0.04,12.729,0.2,19.086-0.067c3.11-0.131,4.407,0.761,4.32,5.199c-0.077,3.985-0.673,6.243-4.095,5.375
		c-7.438-1.885-8.723,2.591-8.483,11.248c0.534,19.221,0.225,38.482,0.092,57.726c-0.017,2.301,1.646,6.562-2.443,6.296
		c-3.367-0.22-2.04-3.85-2.067-6.045C204.48,177.688,204.556,167.19,204.556,156.692z"/>
	<path fill-rule="evenodd" clip-rule="evenodd" fill="#F5804B" d="M88.021,195.741c-2.539-7.791-1.529-15.822-1.767-23.734
		c-0.219-7.284,0.137-14.628-0.456-21.85c-0.284-3.458-1.384-8.393-5.098-7.913c-3.476,0.446-5.211,4.515-5.275,8.941
		c-0.148,10.214-0.053,20.434-0.058,30.65c-0.001,3.211,0.054,6.424-0.027,9.632c-0.047,1.89,0.458,4.369-2.006,4.515
		c-2.442,0.145-2.265-2.193-2.298-4.215c-0.047-2.918-0.023-5.838-0.023-8.758c0-14.887-0.019-29.775,0.014-44.662
		c0.009-3.772,0.117-8.026,4.165-3.43c1.509,1.713,1.896,0.011,2.55-0.712c4.872-5.375,7.608-2.302,9.624,3.88
		c0.349,1.07,1.046,2.056,1.142,3.145C90.1,159.402,89.188,177.559,88.021,195.741z"/>
	<path fill-rule="evenodd" clip-rule="evenodd" fill="#F47E47" d="M104.043,164.405c-0.001-8.711-0.06-17.423,0.042-26.133
		c0.023-2.003-0.909-5.169,2.125-5.111c2.454,0.048,1.932,2.674,1.936,4.521c0.042,18.001,0.037,36.006,0.003,54.009
		c-0.003,1.91,0.371,4.426-2.154,4.261c-2.466-0.161-1.912-2.702-1.924-4.543C104.012,182.407,104.045,173.405,104.043,164.405z"/>
	<path fill-rule="evenodd" clip-rule="evenodd" fill="#F47E47" d="M108.205,115.646c-0.322,2.007,0.721,5.177-2.251,4.917
		c-2.819-0.247-1.817-3.319-1.845-5.289c-0.027-1.987-0.83-5.141,2.146-4.89C109.086,110.625,107.813,113.728,108.205,115.646z"/>
	<path fill-rule="evenodd" clip-rule="evenodd" fill="#FFF7F3" d="M40.576,104.313c1.835,12.969,4.235,25.572,7.212,38.029
		c1.181,4.938,0.595,9.201-5.055,8.291c-3.34-0.538-6.775-0.098-11.157-0.098C35.88,135.094,36.964,119.401,40.576,104.313z"/>
	<path fill-rule="evenodd" clip-rule="evenodd" fill="#FFFAF8" d="M149.701,103.213c-10.696,0-21.401-0.333-32.084,0.154
		c-4.646,0.211-5.538-1.792-5.494-7.297c0.138-17.406-0.041-17.421,13.188-17.405c19.113,0.023,38.227,0.261,57.336-0.051
		c4.098-0.067,4.769,1.579,4.798,6.302c0.117,18.298,0.245,18.297-13.848,18.297C165.632,103.213,157.667,103.213,149.701,103.213z"
		/>
	<path fill-rule="evenodd" clip-rule="evenodd" fill="#FFF5F1" d="M177.771,157.912c-2.14-1.809-6.819,2.692-6.419-4.259
		c0.308-5.358,2.474-11.221,6.863-11.464c5.259-0.293,5.581,7.061,5.977,11.644C184.78,160.65,179.878,156.015,177.771,157.912z"/>
</g>
<text transform="matrix(0.7078 0 0 1 117.9854 98.4033)" fill="#F5804B" font-family="'WiiNTLGGothic-Regular'" font-size="15.3749">アニメテレビ</text>
</svg>
