<?xml version="1.0" encoding="utf-8"?>
<!-- Generator: Adobe Illustrator 16.0.0, SVG Export Plug-In . SVG Version: 6.00 Build 0)  -->
<!DOCTYPE svg PUBLIC "-//W3C//DTD SVG 1.1//EN" "http://www.w3.org/Graphics/SVG/1.1/DTD/svg11.dtd">
<svg version="1.1" id="Layer_1" xmlns="http://www.w3.org/2000/svg" xmlns:xlink="http://www.w3.org/1999/xlink" x="0px" y="0px"
	 width="280px" height="280px" viewBox="0 0 280 280" enable-background="new 0 0 280 280" xml:space="preserve">
<g>
	<rect fill-rule="evenodd" clip-rule="evenodd" fill="#242B30" width="280.152" height="280"/>
	<path fill-rule="evenodd" clip-rule="evenodd" fill="#242B30" d="M1,281c0-87.333,0-174.667,0-262
		c7.042-3.803,2.482,3.585,4.509,4.6c3.072-5.181,4.537-5.175,10.192,0.16c0.473-2.003,0.353-3.842,2.799-5.253
		c3.501-2.021,3.381-9.411,0.434-12.386c0.276-1.076,0.552-2.152,0.829-3.229c1.825-1.72,3.993-1.894,6.424-1.89
		c51.297,0.067,102.595,0.052,153.892,0.051c24.64,0,49.278-0.002,73.918-0.004c7.66,0,15.327,0.183,22.979-0.085
		c3.363-0.118,4.079,0.973,4.051,4.152c-0.153,17.324-0.075,34.65-0.075,51.975c0,72.107,0.001,144.215,0.002,216.322
		c0,7.842,0,7.842-7.963,7.338c-0.649-1.607-1.299-3.214-1.948-4.82c0.831-1.188,1.706-2.35,2.479-3.574
		c0.567-0.899,1.718-1.961,0.356-2.922c-1.133-0.8-2.621-0.673-3.519,0.47c-0.666,0.848-0.897,2.035-1.322,3.071
		c-0.87,1.055-2.374,1.995-0.413,3.435c1.487,1.093,1.353,2.774,1.387,4.369c-3.674,0.007-7.347,0.014-11.021,0.021
		c-0.172-2.602,1.927-3.284,3.651-4.181c2.656-1.383,4.704-4.084,3.743-6.389c-2.579-6.182-0.256-12.156-0.411-18.196
		c-0.057-2.198,0.809-5.201-2.422-5.749c-3.376-0.573-4.479,2.244-5.33,4.837c-0.499,1.521,0.065,3.86-1.856,4.289
		c-3.148,0.702-6.719,2.024-9.608,0.4c-2.883-1.619-1.839-4.998-1.249-7.767c0.311-1.458,0.364-3.246,1.25-4.26
		c3.825-4.374,2.385-8.844,0.896-13.519c-1.37-4.303-0.658-8.2,3.134-11.177c0.757-0.595,1.772-1.353,1.91-2.163
		c1.177-6.919,3.961-13.387,5.603-20.196c1.587-6.581,1.712-13.572,4.432-19.75c2.135-4.849,0.371-7.269-3.551-9.118
		c-4.354-2.054-6.659,1.052-8.07,4.22c-2.223,4.99-6.335,2.214-9.571,2.872c-2.635,0.535-4.358-0.479-4.98-3.427
		c-0.413-1.957-1.564-4.026-4.188-3.042c-3.031,1.138-6.522,1.813-7.373,5.874c-0.35,1.671-1.299,3.276-3.309,3.158
		c-1.861-0.108-3.004-1.543-3.391-3.239c-1.286-5.646-5.959-11.259-0.078-17.071c0.859-0.85,0.591-2.841,0.844-4.303
		c1.283-0.029,2.566-0.061,3.849-0.091c2.097,2.867,2.433,7.021,6.201,8.647c1.622,0.701,3.335,0.831,4.36-1.008
		c0.8-1.435,0.041-2.995-1.152-3.383c-5.249-1.706-4.287-5.908-4.341-9.806c-0.036-2.646,0.059-5.355-0.475-7.918
		c-0.598-2.869-0.455-4.903,2.102-6.972c1.831-1.482,4.826-3.993,2.55-6.577c-1.799-2.042-1.239-3.211-0.648-5.128
		c0.67-2.173,0.948-4.529-2.679-2.578c-2.016,1.084-3.945-0.682-4.028-1.705c-0.347-4.253-4.043-6.48-5.438-10.263
		c-0.688,3.328-3.645,5.319-4.069,8.585c-0.405,3.118-0.937,6.22-1.345,9.337c-0.483,3.687-2.455,4.332-5.589,2.903
		c-2.233-1.018-3.919-2.453-4.327-5.029c-0.174-1.104-0.164-2.93-1.665-2.482c-3.105,0.926-2.38-1.15-2.352-2.598
		c0.059-2.976-0.429-6.001,0.519-8.913c1.334-4.102-0.139-6.375-4.368-6.946c-0.112-0.63-0.224-1.26-0.336-1.89
		c0.855-4.688,0.183-8.907-3.727-12.132c0,0-0.309,0.021-0.308,0.023c0.097-0.328,0.193-0.658,0.291-0.987
		c1.32-1.404,2.445-3.241,1.742-4.96c-2.84-6.951-3.451-15.604-12.805-17.925c-2.433-0.698-3.256-3.068-4.798-4.68
		c-1.273-1.331-1.871-0.824-2.367,0.572c-0.775,0.22-1.743,0.219-2.3,0.696c-3.658,3.139-8.687,2.909-12.646-0.694
		c-0.285-4.381-2.66-8.3-2.6-12.843c0.024-1.833-1.86-3.72-4.272-2.432c-3.154,1.686-6.678,1.367-9.959,2.268
		c-0.665-1.141-1.582-1.906-2.961-1.98c-6.243-1.946-10.673,1.64-15.185,4.978c-3.811,0.721-6.517-4.096-10.682-2.064
		c-1.105,0.539-2.759,0.087-2.998,1.895c-0.195,1.475,0.942,1.916,2.021,2.424c1.152,0.543,3.066,1.22,1.898,2.734
		c-4.366,5.66-4.921,12.248-5.229,18.958c-2.535,0.621-3.48,3.569-6.126,4.101c-3.001,0.603-4.032,2.783-3.792,5.58
		c0.642,7.499-1.779,14.633-2.631,21.951c-0.279,2.395-1.321,5.577-4.933,5.231c-3.513-0.336-5.767-1.889-5.553-6.111
		c0.199-3.911-0.641-7.7,1.563-11.559c1.514-2.649,0.841-6.262,0.311-9.342c-0.608-3.536-4.436-4.028-6.112-2.673
		c-2.63,2.126-5.669,2.683-8.478,3.606c-2.988,0.982-4.465,2.527-5.175,5.292c-0.681,2.006-2.633,3.607-1.932,6.055
		c0.316,1.291,0.633,2.582,0.949,3.872c-1.759,9.218,0.86,15.28,8.903,20.021c4.357,2.568,7.037,5.784,6.111,11.232
		c-0.461,2.708,0.668,5.588,3.306,5.95c2.985,0.41,2.275-2.881,2.787-4.78c0.13-0.481,0.235-0.972,0.403-1.439
		c0.55-1.54,0.79-3.317,2.834-3.736c2.317-0.475,2.476,1.795,3.612,2.82c0.007,3.329,0.014,6.658,0.021,9.987
		c-1.289,1.959-1.865,3.789,0.911,5.009c0.02,3.33,0.04,6.659,0.059,9.988c-0.691,0.418-1.429,0.774-2.06,1.269
		c-0.626,0.49-1.062,1.437-2.042,0.983c-0.919-0.425-0.981-1.442-0.64-2.145c1.971-4.061-1.12-5.529-3.564-7.51
		c-2.505-2.029-6.331-2.729-7.502-0.711c-1.176,2.025-2.557,6.438,0.577,8.592c4.325,2.973,4.445,6.944,4.28,11.36
		c-0.11,2.952-0.086,5.814,1.371,8.691c1.29,2.547,1.122,5.486-1.254,7.794c-2.323,2.256-4.557,1.651-7.24,0.437
		c-4.922-2.228-7.491-0.692-8.914,4.769c-0.98,3.765-3.083,4.488-5.937,1.85c-1.225-1.132-2.123-2.578-4.075-2.353
		c-0.659-3.11,0.563-6.696-2.089-9.28c-1.374-1.34-2.707-3.072-5.09-2.554c-1.741,0.38-1.806,1.753-1.806,3.103
		c-0.001,2.092-0.553,4.479,2.933,4.46c1.342-0.007,1.716,1.134,1.56,2.563c-0.253,2.307,1.077,4.081,2.492,5.747
		c-0.329,1.971-0.659,3.94-0.988,5.91c-0.66,3.01-3.478,6.56,2.008,8.033c0.035,3.471-0.131,6.958,0.167,10.406
		c0.264,3.058,0.575,5.442-3.873,4.533c-1.914-0.392-2.401,1.434-2.173,3.056c0.307,2.188,1.757,1.512,2.964,0.94
		c1.407-0.667,2.762-0.597,3.464,0.752c1.734,3.328,3.417,6.706,4.774,10.199c0.739,1.902-0.973,3.13-2.413,2.397
		c-1.443-0.734-2.737-2.521-4.018-0.676c-1.421,2.048,1.193,2.997,2.119,4.391c0.105,1.716,0.211,3.431,0.317,5.153
		c-1.87,0.112-0.759-2.744-2.713-2.293c-2.097,3.926,2.682,4.565,3.398,7.142c0.124,1.408-1.569,2.834,0.322,4.901
		c0.671-1.927,1.175-3.372,1.679-4.818c1.126-2.234-1.984-3.834-0.907-6.061c3.68-0.381,4.918,1.384,4.969,4.941
		c0.043,2.972-1.732,5.327-2.013,8.096c-0.279,2.754-1.82,3.15-4.142,2.7c-0.913-0.178-2.141-1.956-2.767,0.056
		c-0.382,1.229-1.151,2.465,0.008,4.125c1.225,1.756,1.505,4.172,2.199,6.299c-5.944,1.891-1.823,6.276-2.357,9.508
		C38.338,280.835,19.669,280.918,1,281z M269.003,199.003c0.662-0.007,1.324-0.013,1.987-0.019c5.841-1.077,6.526-2.017,5.124-7.353
		c-1.704,0.844-2.903,2.828-5.105,2.372c-0.008-0.331-0.017-0.662-0.026-0.993c1.494-5.969-0.467-12.646-4.626-15.149
		c0.092,5.271,3.389,9.859,2.638,15.105c-1.94,2.012-0.131,4.021,0.004,6.032c-2.408,3.928,1.614,5.042,3.161,8.216
		C272.843,203.068,269.604,201.612,269.003,199.003z M275,34c0.089,1.571,0.326,3.044,2.454,2.76
		c0.976-0.13,1.462-0.896,1.216-1.756C278.033,32.781,276.317,34.021,275,34c-0.535-1.59,0.567-5.588-1.944-4.235
		c-4.008,2.159-5.956-0.069-8.442-1.997c-2.732,5.224,6.209,7.086,2.094,12.532c3.563-0.759,4.7-2.796,4.972-5.081
		C272.043,32.152,273.667,33.746,275,34z M35.839,264.038c1.591,1.662,0.644,4.362,2.661,7.125c0.275-4.296,1.9-7.566-1.477-10.142
		c-2.958-3.375-1.116-7.132-0.116-10.32c1.067-3.4,1.074-6.071-1.217-8.662c-0.724-0.819-1.506-0.109-2.097,0.474
		c-2.887,2.846-1.413,5.703-0.056,8.604c1.095,2.34,2.396,4.433,0.013,7.193C32.76,259.226,30.217,264.093,35.839,264.038z
		 M54.016,148.956c-1.502,5.16-2.997,10.323-4.518,15.479c-0.195,0.66-0.437,1.344,0.243,1.766c0.347,0.216,1.247,0.25,1.325,0.088
		c1.521-3.135,5.73-4.904,5.452-8.718c-0.262-3.594-0.243-3.569,3.69-3.187c7.267,0.708,2.256-6.131,4.105-9.141
		c1.489-2.424,0.403-4.728-2.673-4.935c-2.193-0.146-4.437,0.468-6.659,0.742C51.401,143.289,52.998,146.157,54.016,148.956z
		 M212.954,104.147c-0.026,0-0.052,0-0.077,0c0-2.143,0.246-4.323-0.069-6.418c-0.319-2.121-1.964-3.74-3.629-1.484
		c-2.979,4.035-4.697,8.747-3.841,13.916c0.289,1.747,1.134,3.748,3.453,3.52c2.304-0.226,4.061-1.453,4.15-4.088
		C213.004,107.779,212.954,105.962,212.954,104.147z M273.144,169.544c-2.423,3.374-3.368,6.643,0.295,9.855
		c0.95,0.833,0.107,3.536,2.451,2.8c1.949-0.612,2.941-2.169,3.175-4.48C279.531,173.112,276.386,171.432,273.144,169.544z
		 M53.534,114.117c1.336,1.417,3.71-0.764,4.39,1.648c0.407,1.443,1.168,2.485,2.832,1.854c1.451-0.551,1.776-2.075,1.763-3.303
		c-0.029-2.698-0.533-5.659-3.515-6.458c-3.093-0.829-3.5,2.123-4.35,4.192C54.359,112.767,53.916,113.421,53.534,114.117z
		 M267.365,259.475c-0.19,1.199-0.044,3.322,1.423,2.72c1.918-0.787,3.654-2.746,4.726-4.625c0.774-1.358-0.901-2.258-2.33-2.457
		C267.898,254.653,268.101,257.392,267.365,259.475z M168.455,9.646c0.545,2.788,1.249,5.233,3.829,4.966
		c2.239-0.232,3.088-2.42,3.067-5.714C172.992,11.877,170.811,10.769,168.455,9.646z M61.615,21.826
		c-0.55,1.15-0.945,2.012-1.369,2.858c-1.454,2.899-1.05,4.314,0.769,3.102C63.081,26.407,63.519,24.523,61.615,21.826z
		 M269.533,96.272c-0.15-1.229-1.051-2.139-2.107-2.402c-1.507-0.375-1.363,1.059-1.354,1.944c0.013,1.25-0.21,2.938,1.817,2.747
		C268.962,98.46,269.344,97.367,269.533,96.272z M273.016,224.872c-1.545,2.269-2.715,3.691-1.238,5.496
		c0.545,0.665,1.676,0.782,2.146,0.118C275.137,228.777,273.933,227.283,273.016,224.872z M247.19,163.497
		c-1.479,0.713-1.17,2.113-1.065,3.361c0.085,1.029,0.549,2.079,1.829,1.551c1.302-0.538,1.03-1.896,0.966-3.003
		C248.862,164.412,248.652,163.414,247.19,163.497z M106.678,15.538c-0.78,1.988-1.189,3.572,0.299,4.878
		c0.598,0.524,1.396,0.091,1.604-0.536C109.148,18.181,108.815,16.704,106.678,15.538z M268.808,245.973
		c0.072,0.016-1.005-0.236-0.705,1.401c0.23,1.255,1.093,2.144,2.14,2.469c1.053,0.327,1.98-0.734,2.021-1.6
		C272.328,246.853,271.428,245.938,268.808,245.973z M62.542,130.497c0.019-1.49-1.096-2.329-2.258-2.701
		c-0.97-0.31-1.269,0.774-1.145,1.592c0.19,1.248,0.34,2.742,1.964,2.875C61.945,132.332,62.294,131.349,62.542,130.497z
		 M275.263,46.729c1.11-3.018,0.085-4.387-2.756-5.411C272.617,43.751,273.354,45.271,275.263,46.729z M55.155,171.586
		c-0.148,0.023-0.422,0.041-0.424,0.072c-0.014,0.259,0.024,0.52,0.046,0.779c0.148-0.023,0.422-0.041,0.424-0.073
		C55.216,172.106,55.179,171.846,55.155,171.586z"/>
	<path fill-rule="evenodd" clip-rule="evenodd" fill="#333850" d="M1,1c1.089,0.126,2.178,0.253,3.265,0.378
		c-0.002,0-0.141,0.352-0.141,0.352L4.43,1.871c0.019,1.024,0.037,2.048,0.056,3.072C1.868,6.944,4.186,9.34,4.591,11.05
		c0.946,3.995,4.866,4.716,8.478,4.949c2.519,0.163,3.196-1.92,3.828-3.874c0.651-2.011,1.356-4.003,2.037-6.004
		c2.947,2.975,3.068,10.365-0.434,12.386c-2.446,1.411-2.326,3.25-2.799,5.253c-5.655-5.334-7.12-5.341-10.192-0.16
		C3.482,22.585,8.042,15.197,1,19C1,13,1,7,1,1z"/>
	<path fill-rule="evenodd" clip-rule="evenodd" fill="#272D37" d="M231.014,280.801c-2.007,0.001-4.014,0.002-6.021,0.003
		c-0.993-7.896-1.221-15.106,9.691-16.141c3.05-0.289,2.965-3.644,1.507-5.606c-2.658-3.576-1.69-7.053-1.142-10.903
		c0.775-5.44,5.57-9.187,5.763-14.655c0.192-5.474,2.328-10.339,4.119-15.329c1.695-4.722,1.626-9.504,0.154-14.177
		c-1.513-4.805-5.691-6.757-9.788-3.909c-4.931,3.428-8.896,2.005-13.275-0.525c-2.239-1.294-3.631-2.424-1.305-4.86
		c1.36-1.424,1.133-2.896-0.812-3.43c-6.217-1.703-6.312-7.354-6.588-11.8c-0.245-3.952,0.561-7.627-2.771-10.758
		c-1.124-1.057-0.435-4.045-3.257-3.414c-2.65,0.594-2.003,3-2.376,4.89c-1.212,6.132-1.123,12.613-4.802,18.104
		c-0.716,1.068-1.452,1.887-2.813,1.341c-1.202-0.482-0.874-1.515-0.848-2.53c0.187-7.407,0.296-14.816,0.43-22.225
		c0.79-6.349,1.581-12.696,2.372-19.044c2.534-1.44,2.036-3.144,0.431-4.944c-0.615-4.762,0.492-9.593-0.565-14.338
		c-0.926-8.53-1.196-17.136-2.953-25.569c4.229,0.571,5.702,2.844,4.368,6.946c-0.947,2.912-0.46,5.938-0.519,8.913
		c-0.028,1.448-0.754,3.524,2.352,2.598c1.501-0.448,1.491,1.378,1.665,2.482c0.408,2.576,2.094,4.011,4.327,5.029
		c3.134,1.429,5.105,0.784,5.589-2.903c0.408-3.117,0.939-6.219,1.345-9.337c0.425-3.267,3.382-5.258,4.069-8.585
		c1.396,3.783,5.092,6.009,5.438,10.263c0.083,1.023,2.013,2.789,4.028,1.705c3.627-1.951,3.349,0.405,2.679,2.578
		c-0.591,1.917-1.15,3.086,0.648,5.128c2.276,2.584-0.719,5.095-2.55,6.577c-2.557,2.069-2.699,4.103-2.102,6.972
		c0.533,2.563,0.438,5.272,0.475,7.918c0.054,3.897-0.908,8.1,4.341,9.806c1.193,0.388,1.952,1.948,1.152,3.383
		c-1.025,1.839-2.738,1.709-4.36,1.008c-3.769-1.627-4.104-5.78-6.2-8.646c1.292-2.968,0.167-4.147-2.887-3.9
		c-0.174-1.931-0.411-3.859-0.492-5.794c-0.037-0.875,0.823-2.06-0.751-2.255c-0.97-0.12-2.314,0.304-2.352,1.314
		c-0.111,2.996-2.139,6.431,1.58,8.749c0.351,0.658,0.702,1.316,1.053,1.974c-0.254,1.463,0.015,3.454-0.845,4.304
		c-5.881,5.813-1.208,11.425,0.078,17.071c0.387,1.696,1.529,3.131,3.391,3.239c2.01,0.118,2.959-1.487,3.309-3.158
		c0.851-4.061,4.342-4.736,7.373-5.874c2.624-0.984,3.775,1.085,4.188,3.042c0.622,2.947,2.346,3.962,4.98,3.427
		c3.236-0.658,7.349,2.118,9.571-2.872c1.411-3.168,3.717-6.273,8.07-4.22c3.922,1.85,5.686,4.27,3.551,9.118
		c-2.72,6.178-2.845,13.169-4.432,19.75c-1.642,6.81-4.426,13.277-5.603,20.196c-0.138,0.811-1.153,1.568-1.91,2.163
		c-3.792,2.977-4.504,6.874-3.134,11.177c1.489,4.675,2.93,9.145-0.896,13.519c-0.886,1.014-0.939,2.802-1.25,4.26
		c-0.59,2.769-1.634,6.147,1.249,7.767c2.89,1.624,6.46,0.302,9.608-0.4c1.922-0.429,1.357-2.769,1.856-4.289
		c0.852-2.593,1.954-5.41,5.33-4.837c3.23,0.548,2.365,3.551,2.422,5.749c0.155,6.04-2.168,12.015,0.411,18.196
		c0.961,2.305-1.087,5.006-3.743,6.389c-1.725,0.896-3.823,1.579-3.651,4.181c-6-0.005-12.001-0.009-18.001-0.014
		c-0.198-1.884,0.775-4.695-1.739-5.134c-2.816-0.492-6.038-0.342-8.699,0.606C229.05,276.794,230.938,279.203,231.014,280.801z
		 M250.973,180.979c0.354,1.225-0.648,3.419,1.704,3.207c1.563-0.141,2.299-1.773,2.167-3.389c-0.12-1.473-0.451-3.327-2.234-3.286
		C250.435,177.563,251.273,179.672,250.973,180.979z M251.273,199.384c-1.602,0.562-2.058,1.929-2.095,3.47
		c-0.027,1.115,0.559,1.93,1.77,1.902c1.826-0.04,2.012-1.415,2.003-2.791C252.944,200.829,252.986,199.573,251.273,199.384z"/>
	<path fill-rule="evenodd" clip-rule="evenodd" fill="#272D37" d="M73.003,280.794c-5.332-0.014-10.664-0.027-15.996-0.041
		c0.534-3.232-3.587-7.618,2.357-9.509c-0.693-2.127-0.974-4.543-2.199-6.299c-1.159-1.66-0.39-2.896-0.008-4.125
		c0.626-2.012,1.854-0.233,2.767-0.056c2.321,0.45,3.862,0.054,4.142-2.7c0.281-2.769,2.056-5.124,2.013-8.096
		c-0.051-3.558-1.289-5.322-4.971-4.941c-0.23-1.586,0.23-3.53-2.095-4.024c-0.926-1.394-3.54-2.343-2.119-4.391
		c1.281-1.846,2.575-0.059,4.018,0.676c1.44,0.732,3.152-0.495,2.413-2.397c-1.357-3.493-3.04-6.871-4.774-10.199
		c-0.702-1.349-2.057-1.419-3.464-0.752c-1.207,0.571-2.658,1.247-2.964-0.94c-0.228-1.622,0.26-3.447,2.173-3.056
		c4.447,0.909,4.137-1.476,3.873-4.533c-0.298-3.448-0.131-6.936-0.167-10.406c3.889,0.738,2.845,3.845,2.98,6.325
		c0.269,4.955,1.742,7.287,5.013,7.714c0.345-0.001,0.69-0.002,1.035-0.002c0.261,0.032,0.521,0.069,0.781,0.113
		c0.052,0.642,0.103,1.284,0.155,1.927c1.424,5.614,1.525,11.612,4.155,16.855c3.547,7.069,8.761,13.186,12.086,20.413
		c0.558,1.212,1.192,2.419,2.712,2.695c0.684,1.988,1.367,3.978,2.051,5.966c-1.305,1.791-1.478,3.261,1.119,3.943
		c0.327,0.681,0.653,1.36,0.979,2.04c-2.535,4.475-6.631,2.187-9.674,1.567C75.038,273.269,73.114,274.299,73.003,280.794z"/>
	<path fill-rule="evenodd" clip-rule="evenodd" fill="#272D37" d="M58.982,187.021c1.952-0.226,2.851,1.221,4.075,2.353
		c2.854,2.639,4.957,1.915,5.937-1.85c1.422-5.461,3.992-6.996,8.914-4.769c2.683,1.215,4.917,1.819,7.24-0.437
		c2.376-2.308,2.544-5.247,1.254-7.794c-1.457-2.877-1.481-5.739-1.371-8.691c0.165-4.416,0.045-8.388-4.28-11.36
		c-3.134-2.154-1.753-6.566-0.577-8.592c1.171-2.019,4.998-1.318,7.502,0.711c2.444,1.98,5.535,3.449,3.564,7.51
		c-0.341,0.702-0.279,1.72,0.64,2.145c0.981,0.453,1.416-0.493,2.042-0.983c0.631-0.494,1.369-0.851,2.061-1.268
		c0.003,1.669,0.006,3.339,0.009,5.009c-2.315-0.006-5.581-0.334-5.464,2.673c0.132,3.397-2.084,7.354,1.181,10.283
		c2.037,1.827,4.76,0.861,7.197,0.987c0.139,0.104,0.284,0.199,0.433,0.286c-0.048,0.503-0.095,1.006-0.142,1.508
		c-0.277,1.705,0.315,3.079,1.05,4.667c1.831,3.955,5.355,7.374,4.702,12.215c-0.425,3.153-0.27,6.253,0.05,9.377l0.001-0.002
		c-1.949-1.017-4.083,3.545-5.514,0.276c-1.6-3.652-5.559-5.616-6.125-10.04c-0.328-2.556-2.697-3.467-5.465-2.215
		c-2.812,1.272-4.595,3.131-4.89,6.3c-0.275,2.955-1.486,4.395-4.571,2.66c-3.058-1.72-3.375,0.335-3.416,2.597
		c-0.055,2.984-0.015,5.972-0.079,8.957c-0.035,1.624-0.629,3.023-2.448,3.226c-2.078,0.23-2.38-1.272-2.495-2.889
		c-0.173-2.438-0.606-4.715-3.738-4.922c-0.537-1.189,0.862-3.791-2.258-3.097C63.847,196.396,60.504,192.017,58.982,187.021z"/>
	<path fill-rule="evenodd" clip-rule="evenodd" fill="#272D37" d="M68.02,89.016c0.709-2.765,2.187-4.31,5.175-5.292
		c2.809-0.923,5.848-1.479,8.478-3.606c1.676-1.355,5.504-0.863,6.112,2.673c0.53,3.081,1.203,6.693-0.311,9.342
		c-2.204,3.859-1.364,7.647-1.563,11.559c-0.214,4.223,2.04,5.775,5.553,6.111c3.612,0.346,4.654-2.836,4.933-5.231
		c0.853-7.317,3.273-14.452,2.631-21.951c-0.239-2.797,0.791-4.977,3.792-5.58c2.646-0.532,3.592-3.48,6.127-4.101
		c0.152,0.142,0.306,0.282,0.46,0.421c-4.248,10.953-8.505,21.902-10.216,33.625c-0.411,3.985-0.821,7.97-1.231,11.955
		c-0.24,0.036-0.469,0.106-0.688,0.211c-2.884,2.794,0.216,6.972-2.279,9.856c-1.137-1.025-1.295-3.295-3.612-2.82
		c-2.044,0.418-2.284,2.196-2.834,3.736c-0.167,0.468-0.273,0.958-0.403,1.439c-0.512,1.899,0.199,5.19-2.787,4.78
		c-2.638-0.362-3.767-3.242-3.306-5.95c0.926-5.448-1.754-8.664-6.111-11.232c-8.043-4.741-10.662-10.802-8.904-20.02
		c0.645,0.043,1.29,0.085,1.935,0.128c0.013,1.155,0.048,2.311,0.033,3.465c-0.032,2.305,0.444,4.552,2.97,5.061
		c2.793,0.563,4.348-1.43,4.883-3.843c0.886-3.999,1.747-8.051,2.045-12.122c0.371-5.045-1.443-6.134-6.266-4.342
		C71.097,87.862,69.559,88.44,68.02,89.016z"/>
	<path fill-rule="evenodd" clip-rule="evenodd" fill="#333850" d="M173.857,59.002c0.498-1.396,1.096-1.903,2.369-0.572
		c1.542,1.612,2.365,3.981,4.797,4.678c-0.016,0.611-0.031,1.224-0.047,1.836c-3.433-0.076-2.375,2.119-2.004,3.965
		c-1.336,3.665,1.536,6.484,1.967,9.793c-2.141,0.225-4.457,0.92-6.333-0.407c-7.43-5.257-15.843-5.936-24.404-4.998
		c-3.673,0.402-4.926-0.99-6.307-3.919c-2.996-6.353-5.024-12.921-5.957-19.864c-0.207-1.542-0.631-3.203-1.963-0.463
		c-0.268-0.123-0.548-0.202-0.841-0.235c-1.833-2.498-3.536-2.7-5.061,0.284c-1.203,1.087-2.826,1.844-2.96,3.77
		c-1.273,0.15-2.291,0.595-2.403,2.083c-1.887-0.044-2.29,3.076-4.588,2.154c0.053-3.278,2.871-5.255,3.814-8.114
		c4.511-3.338,8.941-6.924,15.184-4.979c1.447,2.904-1.201,7.511,3.727,8.97c1.743,2.037,2.693,4.743,5.184,6.151
		c1.922,3.741,5.57,3.551,8.944,3.819c2.132,0.17,4.137,0.206,6.124,1.412C170.907,69.108,172.79,68.113,173.857,59.002z"/>
	<path fill-rule="evenodd" clip-rule="evenodd" fill="#2B3340" d="M58.982,187.021c1.521,4.995,4.865,9.374,5.019,14.833
		c-0.602,1.186-1.522,2.553-0.847,3.738c2.4,4.215,1.401,9.08,2.841,13.45c-3.271-0.427-4.744-2.759-5.013-7.714
		c-0.135-2.48,0.909-5.587-2.98-6.325c-5.486-1.474-2.667-5.023-2.008-8.032c0.386,1.324,0.308,2.983,2.563,3.305
		c0.419-3.328,2.288-6.681-1.575-9.216c-1.415-1.666-2.745-3.44-2.492-5.747c0.156-1.43-0.218-2.57-1.56-2.563
		c-3.486,0.02-2.935-2.368-2.933-4.46c0-1.35,0.065-2.723,1.806-3.103c2.383-0.519,3.716,1.214,5.09,2.554
		C59.545,180.325,58.323,183.911,58.982,187.021z"/>
	<path fill-rule="evenodd" clip-rule="evenodd" fill="#272D37" d="M148.03,59.136c-2.49-1.408-3.44-4.114-5.182-6.151
		c-0.3-2.324-1.212-4.582-0.767-6.989c3.281-0.901,6.805-0.582,9.959-2.268c2.412-1.289,4.297,0.599,4.272,2.432
		c-0.061,4.543,2.314,8.462,2.6,12.843C155.286,59.048,151.658,59.092,148.03,59.136z"/>
	<path fill-rule="evenodd" clip-rule="evenodd" fill="#2B3340" d="M68.02,89.016c1.54-0.576,3.078-1.154,4.618-1.726
		c4.823-1.792,6.636-0.703,6.266,4.342c-0.299,4.071-1.159,8.123-2.045,12.122c-0.535,2.414-2.09,4.406-4.883,3.843
		c-2.526-0.509-3.002-2.756-2.97-5.061c0.016-1.155-0.02-2.31-0.032-3.466c1.248-0.359,2.206-1.13,1.753-2.47
		c-0.812-2.405-2.969-1.358-4.637-1.53C65.387,92.624,67.339,91.022,68.02,89.016z"/>
	<path fill-rule="evenodd" clip-rule="evenodd" fill="#272D37" d="M54.981,141.052c2.222-0.274,4.466-0.889,6.659-0.742
		c3.077,0.207,4.162,2.511,2.673,4.935c-1.849,3.01,3.162,9.849-4.105,9.141c-3.933-0.383-3.952-0.407-3.69,3.187
		c0.278,3.813-3.931,5.583-5.452,8.718c-0.078,0.162-0.978,0.128-1.325-0.088c-0.679-0.422-0.438-1.105-0.243-1.766
		c1.521-5.156,3.015-10.319,4.517-15.479C58.248,146.8,53.871,143.591,54.981,141.052z"/>
	<path fill-rule="evenodd" clip-rule="evenodd" fill="#272D37" d="M123.937,48.994c-0.944,2.858-3.762,4.836-3.814,8.114
		l0.008-0.014c-4.142,0.004-3.919,3.141-4.229,5.895c-2.443,3.283-3.457,7.462-6.494,10.374c-0.154-0.139-0.308-0.279-0.46-0.421
		c0.307-6.71,0.862-13.298,5.228-18.958c1.168-1.514-0.746-2.191-1.898-2.734c-1.078-0.508-2.215-0.949-2.021-2.424
		c0.239-1.808,1.893-1.356,2.998-1.895C117.419,44.898,120.126,49.715,123.937,48.994z"/>
	<path fill-rule="evenodd" clip-rule="evenodd" fill="#272D37" d="M212.954,104.147c0,1.815,0.05,3.631-0.013,5.444
		c-0.09,2.636-1.847,3.862-4.15,4.088c-2.319,0.228-3.164-1.773-3.453-3.52c-0.856-5.169,0.862-9.881,3.841-13.916
		c1.665-2.256,3.31-0.637,3.629,1.484c0.315,2.096,0.069,4.276,0.069,6.418C212.902,104.147,212.928,104.147,212.954,104.147z"/>
	<path fill-rule="evenodd" clip-rule="evenodd" fill="#2B3340" d="M94.993,129.01c2.495-2.884-0.605-7.062,2.278-9.857
		c0.043,5.246-0.835,10.499,0.11,15.739c0.956,10.282,0.243,20.711,3.322,30.826c0.661,2.172,2.042,5.58-1.363,7.518
		c-0.15-0.088-0.294-0.184-0.433-0.287c0.016-1.981,0.03-3.963,0.045-5.944c-0.099-1.198-0.771-1.845-1.939-2.015
		c-0.34-1.995-0.681-3.989-1.021-5.984c-0.003-1.67-0.006-3.34-0.009-5.009c-0.02-3.33-0.04-6.659-0.059-9.989
		c-0.002-1.725,0.473-3.536-0.912-5.009C95.007,135.668,95,132.339,94.993,129.01z"/>
	<path fill-rule="evenodd" clip-rule="evenodd" fill="#C8DCEC" d="M196.166,100.98c1.757,8.434,2.027,17.04,2.953,25.561
		c0,3.424,0,6.855,0,10.288c-0.416,0.005-0.831,0.01-1.247,0.016c0-1.924,0.097-3.854-0.019-5.771
		c-0.33-5.486-1.401-10.855-2.762-16.169c-0.433-1.974,0.555-4.18-0.976-5.975c0.649-7.707-2.82-14.626-4.197-21.945
		c0.626-0.001,1.251-0.002,1.876-0.004l0.309-0.021c0.756,4.193,2.185,8.181,3.727,12.132
		C195.942,99.721,196.054,100.351,196.166,100.98z"/>
	<path fill-rule="evenodd" clip-rule="evenodd" fill="#2B3340" d="M148.03,59.136c3.628-0.044,7.256-0.088,10.883-0.133
		c3.96,3.603,8.988,3.833,12.646,0.694c0.557-0.477,1.524-0.476,2.3-0.696c-1.069,9.111-2.952,10.107-10.761,5.366
		c-1.987-1.206-3.992-1.242-6.124-1.412C153.601,62.687,149.952,62.877,148.03,59.136z"/>
	<path fill-rule="evenodd" clip-rule="evenodd" fill="#2B3340" d="M180.976,64.944c0.017-0.612,0.032-1.225,0.048-1.836
		c9.354,2.322,9.966,10.975,12.806,17.926c0.703,1.72-0.422,3.556-1.742,4.96c-2.27-3.522-2.254-8.276-5.946-11.033
		c0.228-1.761-1.894-2.179-2.106-3.687C183.514,68.924,182.565,66.779,180.976,64.944z"/>
	<path fill-rule="evenodd" clip-rule="evenodd" fill="#4774B9" d="M18.934,6.121c-0.681,2.001-1.386,3.994-2.037,6.004
		c-0.632,1.954-1.309,4.037-3.828,3.874c-3.612-0.233-7.532-0.954-8.478-4.949C4.186,9.34,1.868,6.944,4.485,4.942
		c0.259,0.779,0.652,1.542,0.756,2.341c0.554,4.259,3.557,6.078,7.164,5.548c3.398-0.499,4.688-3.637,4.715-7.075
		c0.012-1.477,0.215-2.953,0.332-4.429c1.255-0.192,1.896,0.521,2.312,1.566C19.486,3.968,19.21,5.044,18.934,6.121z"/>
	<path fill-rule="evenodd" clip-rule="evenodd" fill="#272D37" d="M273.144,169.544c3.242,1.888,6.388,3.568,5.921,8.175
		c-0.233,2.312-1.226,3.868-3.175,4.48c-2.344,0.736-1.501-1.967-2.451-2.8C269.775,176.187,270.721,172.918,273.144,169.544z"/>
	<path fill-rule="evenodd" clip-rule="evenodd" fill="#2B3340" d="M35.839,264.038c-5.622,0.055-3.079-4.813-2.289-5.729
		c2.383-2.761,1.082-4.854-0.013-7.193c-1.357-2.9-2.831-5.758,0.056-8.604c0.591-0.583,1.373-1.293,2.097-0.474
		c2.291,2.591,2.284,5.262,1.217,8.662c-1,3.188-2.842,6.945,0.116,10.32C36.628,262.027,36.233,263.032,35.839,264.038z"/>
	<path fill-rule="evenodd" clip-rule="evenodd" fill="#272D37" d="M275,34c-1.333-0.254-2.957-1.848-3.321,1.219
		c-0.271,2.285-1.408,4.322-4.972,5.081c4.115-5.445-4.826-7.308-2.094-12.532c2.486,1.928,4.435,4.156,8.442,1.997
		C275.567,28.413,274.465,32.41,275,34L275,34z"/>
	<path fill-rule="evenodd" clip-rule="evenodd" fill="#272D37" d="M53.534,114.117c0.382-0.696,0.826-1.351,1.12-2.066
		c0.851-2.069,1.257-5.021,4.35-4.192c2.981,0.798,3.486,3.759,3.515,6.458c0.013,1.228-0.312,2.752-1.763,3.303
		c-1.664,0.631-2.425-0.411-2.832-1.854C57.244,113.354,54.87,115.535,53.534,114.117z"/>
	<path fill-rule="evenodd" clip-rule="evenodd" fill="#272D37" d="M268.994,192.966c0.751-5.245-2.546-9.834-2.638-15.104
		c4.159,2.503,6.12,9.181,4.626,15.149C270.32,192.996,269.657,192.98,268.994,192.966z"/>
	<path fill-rule="evenodd" clip-rule="evenodd" fill="#272D37" d="M267.365,259.475c0.735-2.083,0.533-4.821,3.818-4.362
		c1.429,0.199,3.104,1.099,2.33,2.457c-1.071,1.879-2.808,3.838-4.726,4.625C267.321,262.797,267.175,260.674,267.365,259.475z"/>
	<path fill-rule="evenodd" clip-rule="evenodd" fill="#8BBFE4" d="M186.143,74.962c3.69,2.756,3.675,7.51,5.944,11.032
		c-0.098,0.329-0.194,0.659-0.291,0.987c-0.626,0-1.251,0.001-1.877,0.003c-2.243-2.232-2.579-5.373-3.837-8.074
		C186.103,77.595,186.122,76.278,186.143,74.962z"/>
	<path fill-rule="evenodd" clip-rule="evenodd" fill="#272D37" d="M271.009,194.004c2.202,0.456,3.401-1.528,5.105-2.372
		c1.402,5.336,0.717,6.275-5.124,7.353C270.996,197.324,271.002,195.664,271.009,194.004z"/>
	<path fill-rule="evenodd" clip-rule="evenodd" fill="#2B3340" d="M59.014,241.003c2.325,0.494,1.864,2.438,2.095,4.024
		c-1.076,2.227,2.034,3.826,0.908,6.06c-0.667-0.028-1.333-0.055-2-0.082c-0.717-2.576-5.495-3.216-3.398-7.142
		c1.954-0.451,0.843,2.405,2.713,2.293C59.225,244.434,59.12,242.719,59.014,241.003z"/>
	<path fill-rule="evenodd" clip-rule="evenodd" fill="#414A75" d="M168.455,9.646c2.355,1.123,4.537,2.231,6.896-0.748
		c0.021,3.293-0.828,5.481-3.067,5.714C169.704,14.88,169,12.435,168.455,9.646z"/>
	<path fill-rule="evenodd" clip-rule="evenodd" fill="#272D37" d="M56.982,191.061c3.863,2.535,1.994,5.888,1.575,9.216
		c-2.255-0.321-2.177-1.98-2.563-3.305C56.323,195.001,56.653,193.031,56.982,191.061z"/>
	<path fill-rule="evenodd" clip-rule="evenodd" fill="#272D37" d="M195.83,99.091c-1.542-3.952-2.971-7.939-3.727-12.132
		C196.013,90.184,196.686,94.402,195.83,99.091z"/>
	<path fill-rule="evenodd" clip-rule="evenodd" fill="#333850" d="M269.036,272.976c0.425-1.036,0.656-2.224,1.322-3.071
		c0.897-1.143,2.386-1.27,3.519-0.47c1.361,0.961,0.211,2.022-0.356,2.922c-0.773,1.225-1.648,2.386-2.48,3.574
		C271.073,274.471,270.764,273.243,269.036,272.976z"/>
	<path fill-rule="evenodd" clip-rule="evenodd" fill="#2B3340" d="M142.082,45.997c-0.445,2.407,0.467,4.665,0.767,6.989
		c-4.93-1.458-2.282-6.065-3.729-8.97C140.5,44.09,141.417,44.855,142.082,45.997z"/>
	<path fill-rule="evenodd" clip-rule="evenodd" fill="#272D37" d="M269.036,272.976c1.728,0.268,2.037,1.495,2.004,2.955
		c0.65,1.606,1.3,3.213,1.949,4.82c-0.993,0.009-1.986,0.019-2.979,0.028c-0.034-1.595,0.101-3.276-1.387-4.369
		C266.662,274.971,268.166,274.03,269.036,272.976z"/>
	<path fill-rule="evenodd" clip-rule="evenodd" fill="#3B4164" d="M35.839,264.038c0.395-1.006,0.789-2.011,1.184-3.017
		c3.377,2.575,1.752,5.846,1.477,10.142C36.482,268.4,37.43,265.7,35.839,264.038z"/>
	<path fill-rule="evenodd" clip-rule="evenodd" fill="#3B4164" d="M220.025,148.915c3.054-0.247,4.179,0.933,2.887,3.9
		c-1.283,0.028-2.566,0.06-3.85,0.089c-0.35-0.658-0.701-1.316-1.052-1.974C218.136,149.714,218.901,149.136,220.025,148.915z"/>
	<path fill-rule="evenodd" clip-rule="evenodd" fill="#333850" d="M54.981,141.052c-1.11,2.539,3.267,5.748-0.965,7.904
		C52.998,146.157,51.401,143.289,54.981,141.052z"/>
	<path fill-rule="evenodd" clip-rule="evenodd" fill="#333850" d="M66.088,95.071c1.668,0.172,3.825-0.875,4.637,1.53
		c0.453,1.34-0.506,2.111-1.753,2.47c-0.646-0.042-1.291-0.084-1.935-0.127C66.721,97.652,66.404,96.361,66.088,95.071z"/>
	<path fill-rule="evenodd" clip-rule="evenodd" fill="#2B3340" d="M61.615,21.826c1.904,2.697,1.465,4.582-0.601,5.959
		c-1.818,1.213-2.222-0.202-0.769-3.102C60.67,23.837,61.065,22.976,61.615,21.826z"/>
	<path fill-rule="evenodd" clip-rule="evenodd" fill="#2B3340" d="M269.533,96.272c-0.189,1.095-0.571,2.188-1.645,2.289
		c-2.027,0.191-1.805-1.496-1.817-2.747c-0.009-0.886-0.152-2.319,1.354-1.944C268.482,94.133,269.383,95.044,269.533,96.272z"/>
	<path fill-rule="evenodd" clip-rule="evenodd" fill="#2B3340" d="M273.016,224.872c0.917,2.411,2.121,3.905,0.908,5.614
		c-0.471,0.664-1.602,0.547-2.146-0.118C270.301,228.563,271.471,227.141,273.016,224.872z"/>
	<path fill-rule="evenodd" clip-rule="evenodd" fill="#2B3340" d="M247.19,163.497c1.462-0.083,1.672,0.915,1.729,1.909
		c0.064,1.106,0.336,2.465-0.966,3.003c-1.28,0.528-1.744-0.521-1.829-1.551C246.021,165.61,245.711,164.21,247.19,163.497z"/>
	<path fill-rule="evenodd" clip-rule="evenodd" fill="#2B3340" d="M106.678,15.538c2.137,1.166,2.47,2.643,1.904,4.342
		c-0.209,0.627-1.006,1.06-1.604,0.536C105.489,19.11,105.898,17.526,106.678,15.538z"/>
	<path fill-rule="evenodd" clip-rule="evenodd" fill="#2B3340" d="M268.808,245.973c2.62-0.035,3.521,0.88,3.456,2.271
		c-0.041,0.865-0.969,1.927-2.021,1.6c-1.047-0.325-1.909-1.214-2.14-2.469C267.803,245.736,268.88,245.988,268.808,245.973z"/>
	<path fill-rule="evenodd" clip-rule="evenodd" fill="#2B3340" d="M271.009,194.004c-0.007,1.66-0.013,3.32-0.019,4.98
		c-0.663,0.006-1.325,0.012-1.987,0.019l-0.005-0.004c-0.135-2.011-1.944-4.021-0.004-6.033c0.663,0.015,1.326,0.03,1.988,0.045
		C270.992,193.342,271.001,193.673,271.009,194.004z"/>
	<path fill-rule="evenodd" clip-rule="evenodd" fill="#2B3340" d="M269.003,199.003c0.601,2.609,3.84,4.065,3.156,8.212
		c-1.547-3.174-5.569-4.288-3.161-8.216L269.003,199.003z"/>
	<path fill-rule="evenodd" clip-rule="evenodd" fill="#2B3340" d="M62.542,130.497c-0.248,0.852-0.597,1.835-1.438,1.766
		c-1.625-0.133-1.774-1.627-1.964-2.875c-0.124-0.818,0.175-1.902,1.145-1.592C61.445,128.168,62.56,129.007,62.542,130.497z"/>
	<path fill-rule="evenodd" clip-rule="evenodd" fill="#272D37" d="M275.263,46.729c-1.909-1.458-2.646-2.978-2.756-5.411
		C275.348,42.342,276.373,43.711,275.263,46.729z"/>
	<path fill-rule="evenodd" clip-rule="evenodd" fill="#272D37" d="M275,34c1.317,0.021,3.033-1.219,3.67,1.004
		c0.246,0.86-0.24,1.626-1.216,1.756C275.326,37.044,275.089,35.571,275,34L275,34z"/>
	<path fill-rule="evenodd" clip-rule="evenodd" fill="#272D37" d="M95.014,138.998c1.385,1.473,0.91,3.285,0.912,5.009
		C93.149,142.786,93.725,140.957,95.014,138.998z"/>
	<path fill-rule="evenodd" clip-rule="evenodd" fill="#272D37" d="M60.017,251.005c0.667,0.027,1.333,0.054,2,0.082
		c-0.503,1.447-1.007,2.893-1.678,4.819C58.448,253.839,60.14,252.413,60.017,251.005z"/>
	<path fill-rule="evenodd" clip-rule="evenodd" fill="#2B3340" d="M55.156,171.586c0.022,0.26,0.06,0.521,0.045,0.778
		c-0.002,0.032-0.276,0.05-0.424,0.073c-0.022-0.26-0.06-0.521-0.046-0.779C54.733,171.627,55.007,171.609,55.156,171.586z"/>
	<path fill-rule="evenodd" clip-rule="evenodd" fill="#2B3340" d="M196.882,164.876c-0.134,7.408-0.243,14.817-0.43,22.225
		c-0.026,1.016-0.354,2.048,0.848,2.53c1.36,0.546,2.097-0.272,2.813-1.341c3.679-5.491,3.59-11.973,4.802-18.104
		c0.373-1.89-0.274-4.296,2.376-4.89c2.822-0.631,2.133,2.357,3.257,3.414c3.331,3.131,2.525,6.806,2.771,10.758
		c0.276,4.446,0.371,10.097,6.588,11.8c1.944,0.533,2.172,2.006,0.812,3.43c-2.326,2.437-0.935,3.566,1.305,4.86
		c4.379,2.53,8.345,3.953,13.275,0.525c4.097-2.848,8.275-0.896,9.788,3.909c1.472,4.673,1.541,9.455-0.154,14.177
		c-1.791,4.99-3.927,9.855-4.119,15.329c-0.192,5.469-4.987,9.215-5.763,14.655c-0.549,3.851-1.517,7.327,1.142,10.903
		c1.458,1.963,1.543,5.317-1.507,5.606c-10.912,1.034-10.685,8.244-9.691,16.141c-3.657-0.023-7.315-0.047-10.973-0.069
		c0.079-0.529,0.157-1.059,0.234-1.588c1.92-0.04,2.794-1.383,3.708-2.813c2.654-4.155,4.156-8.822,6.071-13.306
		c2.91-2.872,7.864-4.09,7.909-9.282c0.025-2.882,0.43-5.732,1.499-8.278c2.538-6.042,2.338-12.163,1.592-18.447
		c-0.653-5.506-3.694-7.482-8.626-5.445c-1.66,0.686-3.477,1.173-5.261,1.344c-2.952,0.283-5.422-0.043-4.351-4.279
		c0.791-3.129-1.032-5.924-2.554-8.368c-2.179-3.496-10.44-2.991-12.098,0.435c-1.678,3.467-3.64,3.825-6.223,0.853
		c-1.115-1.284-1.891-2.743-3.876-2.583c-0.004-1.32-0.008-2.641-0.012-3.961c2.302-2.57,2.906-11.367,0.836-13.527
		c-0.375-0.392-1.233-0.32-1.869-0.463c-0.776-3.669,2.658-6.626,1.746-10.318c0.033-2.715,2.021-5.143,1.172-7.986
		C194.906,170.104,195.895,167.49,196.882,164.876z"/>
	<path fill-rule="evenodd" clip-rule="evenodd" fill="#6979BB" d="M178.114,280.761c-16.404,0.01-32.809,0.02-49.212,0.029
		c0.19-1.357-0.248-2.562-0.914-3.708c0.033-0.699,0.067-1.399,0.101-2.1c1.114-0.261,3.219,0.542,2.987-1.258
		c-0.22-1.703-1.988-2.81-4.032-2.66c-0.107-1.457,0.128-3.003-1.082-4.174c0.019-1.292,0.038-2.584,0.057-3.875
		c2.396,0.099,5.165-0.715,6.081,2.77c0.314,1.195,0.535,2.467,2.583,2.13c2.408-0.396,1.138-1.996,1.251-2.979
		c0.618-5.372-1.412-11.103,1.731-16.087c1.31-2.077,0.259-6.237,2.856-6.141c2.442,0.091,2.654,4.041,3.571,6.447
		c0.785,2.062,2.767,3.421,4.514,3.253c2.117-0.202,1.277-2.683,1.356-4.215c0.107-2.075,0.652-3.928,1.979-5.514
		c0.777-0.93,2.204-1.977,2.924-0.909c2.373,3.52,7.366,4.916,7.353,10.547c-0.01,3.662-1.869,9.257,5.003,10.057
		c1.027,0.119,1.471,1.563,1.264,2.925c-0.27,1.775-0.292,3.592-0.349,5.394c-0.046,1.447,0.415,2.684,2.026,2.97
		c1.376,0.244,2.137-0.607,2.611-1.793c0.917-2.288,1.547-4.759,2.839-6.813c1.813-2.885,1.529-7.528,6.337-8.071l0.09-0.019
		C181.593,265.039,179.261,272.803,178.114,280.761z"/>
	<path fill-rule="evenodd" clip-rule="evenodd" fill="#46578E" d="M214.255,279.146c-0.078,0.529-0.156,1.059-0.235,1.588
		c-6.673,0.011-13.344,0.022-20.016,0.034c-0.5-4.518,1.11-9.284-1.753-13.539c-0.786-1.169-1.196-2.453-2.937-1.401
		c-4.632,2.802-4.87-0.679-5.364-3.773c-0.291-1.828,0.731-4.146-1.912-5.089l-0.09,0.019c0.052-1.998,0.102-3.997,0.152-5.996
		c1.174-2.573,1.878-5.778-0.749-7.165c-3.115-1.646-3.119,2.375-4.333,3.944c-2.989,3.867-5.85,4.217-9.429,0.485
		c-1.451-1.512-2.365-3.538-3.523-5.331c-0.035-0.619-0.069-1.239-0.104-1.859c0.059-1.456,0.275-2.948-0.911-4.13
		c-0.017-0.626-0.033-1.253-0.05-1.879c0.679-3.382-0.97-6.528-0.99-9.84c0.64-0.054,1.278-0.108,1.918-0.163
		c0.405,0.015,0.811,0.028,1.216,0.042c0.355,1.271,0.711,2.544,1.066,3.815c-0.038,1.994-0.137,3.99-0.092,5.982
		c0.031,1.361,0.385,2.814,1.63,3.475c1.701,0.9,2.301-0.733,2.987-1.795c0.969-1.499,2.436-1.693,3.95-1.558
		c3.563,0.32,5.459-1.774,7.064-4.515c0.962-1.642,1.183-3.832,3.256-4.781c1.529,1.167,0.856,2.787,0.998,4.184
		c0.644,6.344-0.725,12.592-1.105,18.882c-0.308,5.081,1.437,7.878,6.002,10.012c3.614,1.688,7.452,3.617,8.397,8.514
		c0.464,2.407,1.986,1.285,3.064-0.118c2.056-2.677,1.295-5.96,1.702-8.686c4.786,2.029,5.429-3.596,8.677-3.814
		c0.94,4.587,1.626,9.604,3.452,14.341c-0.018,0.663-0.035,1.326-0.052,1.989c-1.54,1.707-1.515,3.962-2.104,6.001
		C214.111,277.729,214.184,278.438,214.255,279.146z"/>
	<path fill-rule="evenodd" clip-rule="evenodd" fill="#414A75" d="M101.031,280.808c-1.005-0.008-2.01-0.016-3.015-0.024
		c-0.51-5.717-4.004-10.387-6.062-15.484c-1.372-3.398-1.245-8.507-5.948-10.25l-0.055-0.065c0.068-1.667,0.115-3.181,1.906-4.256
		c1.945-1.167,2.594-3.359,3.05-5.511c0.895-4.222,4.014-5.571,7.788-3.385c1.06,0.614,1.562,2.214,3.136,1.908
		c2.163-6.234,6.437-11.384,8.165-17.705c0.379,0.301,0.759,0.601,1.138,0.901c-0.064,1.276-0.428,2.812,1.812,2.088
		c-0.002,0.654-0.005,1.31-0.007,1.965c-4.338,2.869-0.742,6.265-0.518,9.38c0.179,2.491,2.747,2.932,4.515,3.272
		c2.172,0.417,2.464-2.054,2.705-3.418c0.604-3.43,2.392-7.892,4.465-8.424c5.492-1.41,4.979-4.861,4.929-8.671
		c0.584,0.603,1.168,1.207,1.752,1.812c0.355,0.734,0.71,1.469,1.064,2.203c0.137,1.309-0.11,2.704,0.869,3.82
		c0.005,0.967,0.009,1.935,0.014,2.901c-2.849,2.131-1.566,6.76-5.181,8.469c-3.549,1.678-5.438,4.553-6.076,8.438
		c-0.194,1.179-0.685,3.104-2.074,3.011c-1.491-0.1-2.393-1.722-2.365-3.345c0.076-4.373-2.251-5.857-6.275-5.443
		c-0.211-1.9-1.939-3.126-2.144-5.134c-0.102-1.004-1.186-0.47-1.756,0.151c-3.771,1.915-2.262,5.054-1.677,7.837
		c0.673,3.201-0.391,5.044-3.661,4.46c-4.686-0.838-4.879-0.547-4.687,4.363C97.164,264.932,103.039,272.185,101.031,280.808z"/>
	<path fill-rule="evenodd" clip-rule="evenodd" fill="#46578E" d="M101.031,280.808c2.008-8.623-3.868-15.876-4.192-24.136
		c-0.193-4.91,0.001-5.201,4.687-4.363c3.27,0.584,4.334-1.259,3.661-4.46c-0.584-2.783-2.094-5.922,1.677-7.837
		c1.584,4.419,0.618,9.192,1.487,14.186c2.581-3.073-0.642-6.864,2.413-9.203c4.024-0.414,6.351,1.07,6.275,5.443
		c-0.028,1.623,0.874,3.245,2.365,3.345c1.39,0.093,1.88-1.832,2.074-3.011c0.638-3.885,2.527-6.76,6.076-8.438
		c3.615-1.709,2.333-6.338,5.184-8.469c0.585,4.319,1.624,8.597,1.171,13.009c-7.066,0.706-9.21,3.675-8.765,12.137
		c-0.028,1.405-0.353,2.874,0.874,4.005c-0.019,1.291-0.038,2.583-0.057,3.877c-0.677,0.02-1.354,0.037-2.032,0.056
		c-0.306-0.65-0.612-1.302-0.918-1.952c-1.185-3.2-4.527-5.003-5.26-8.656c-0.326-1.624-6.872-2.42-7.161-1.177
		c-0.793,3.408-3.845,5.932-3.652,9.671l-0.091,0.124c-2.739,0.076-3.312,1.541-2.311,3.812c0.637,1.445,1.494,2.794,2.252,4.186
		c0.08,1.702,0.16,3.405,0.241,5.108c0.291,0.904,0.582,1.809,0.873,2.714C105.612,280.787,103.322,280.798,101.031,280.808z"/>
	<path fill-rule="evenodd" clip-rule="evenodd" fill="#3D65B0" d="M182.038,256.966c2.644,0.942,1.621,3.261,1.912,5.089
		c0.494,3.095,0.732,6.575,5.364,3.773c1.74-1.052,2.15,0.232,2.937,1.401c2.863,4.255,1.253,9.021,1.753,13.539
		c-5.297-0.002-10.594-0.005-15.891-0.008C179.261,272.803,181.593,265.039,182.038,256.966z"/>
	<path fill-rule="evenodd" clip-rule="evenodd" fill="#4774B9" d="M123.011,264.996c0.306,0.65,0.612,1.302,0.918,1.953
		c-0.432,4.093,0.075,7.809,4.058,10.133c0.667,1.146,1.104,2.351,0.914,3.708c-7-0.004-13.999-0.009-20.999-0.013
		c-0.292-0.905-0.583-1.81-0.874-2.715c1.174-0.021,2.303-0.174,3.173-1.086c2.81,3.296,2.956-0.052,3.44-1.527
		C115.25,270.555,116.693,265.626,123.011,264.996z"/>
	<path fill-rule="evenodd" clip-rule="evenodd" fill="#2B3340" d="M73.003,280.794c0.111-6.495,2.035-7.525,8.393-6.232
		c3.043,0.619,7.139,2.907,9.673-1.567c1.6,2.646,4.277,4.599,5.019,7.797c-2.707,0.006-5.415,0.011-8.122,0.017
		c-0.417-3.103-2.331-4.003-5.238-3.797c-2.587,0.183-2.75,1.853-2.71,3.786C77.68,280.796,75.341,280.795,73.003,280.794z"/>
	<path fill-rule="evenodd" clip-rule="evenodd" fill="#3B4164" d="M96.088,280.791c-0.742-3.198-3.419-5.15-5.019-7.797
		c-0.326-0.68-0.652-1.359-0.98-2.039c-0.083-1.396,0.108-2.871-1.118-3.944c-0.684-1.988-1.368-3.978-2.051-5.966
		c-0.304-1.999-0.609-3.998-0.914-5.996c4.703,1.743,4.576,6.852,5.948,10.25c2.058,5.098,5.552,9.768,6.062,15.484
		C97.374,280.786,96.731,280.789,96.088,280.791z"/>
	<path fill-rule="evenodd" clip-rule="evenodd" fill="#8BBFE4" d="M17.452,1.327c-0.116,1.477-0.32,2.952-0.332,4.429
		c-0.027,3.438-1.317,6.577-4.715,7.075c-3.607,0.529-6.61-1.289-7.164-5.548C5.138,6.484,4.745,5.722,4.485,4.942
		C4.467,3.918,4.448,2.895,4.43,1.875c0.256-0.131,0.389-0.343,0.399-0.631C7.667,1.401,7.18,3.972,7.914,5.602
		c0.752,1.671,1.253,3.571,3.617,3.251c2.03-0.274,3.071-1.704,3.433-3.649C15.268,3.568,14.583,1.311,17.452,1.327z"/>
	<path fill-rule="evenodd" clip-rule="evenodd" fill="#2B3340" d="M231.014,280.801c-0.075-1.598-1.964-4.007-0.464-4.542
		c2.661-0.948,5.883-1.099,8.699-0.606c2.515,0.438,1.541,3.25,1.739,5.134C237.663,280.791,234.339,280.796,231.014,280.801z"/>
	<path fill-rule="evenodd" clip-rule="evenodd" fill="#333850" d="M80.019,280.797c-0.04-1.934,0.123-3.604,2.71-3.786
		c2.907-0.206,4.822,0.694,5.238,3.797C85.317,280.804,82.668,280.801,80.019,280.797z"/>
	<path fill-rule="evenodd" clip-rule="evenodd" fill="#4774B9" d="M4.829,1.243c-0.01,0.289-0.143,0.5-0.399,0.631
		c0-0.004-0.306-0.145-0.306-0.145s0.138-0.352,0.141-0.352C4.431,1.238,4.619,1.192,4.829,1.243z"/>
	<path fill-rule="evenodd" clip-rule="evenodd" fill="#5398D2" d="M196.882,164.876c-0.987,2.614-1.976,5.229-2.963,7.846
		c-0.655-0.568-1.311-1.14-1.967-1.711c0.05-1.321,0.1-2.642,0.149-3.962c2.183-5.116,1.879-10.567,2.142-15.941
		c1.209-0.299,1.737-1.031,1.457-2.28c0.772-7.302-0.245-14.541-0.768-21.797c-0.02-0.366-0.04-0.732-0.06-1.099
		c-0.008-0.618-0.015-1.236-0.021-1.854c-0.273-0.417-0.547-0.835-0.82-1.253c0.559-2.613-1.238-5.542,1.061-7.921
		c1.36,5.315,2.432,10.684,2.762,16.17c0.115,1.917,0.019,3.847,0.019,5.771c0.416-0.005,0.831-0.01,1.247-0.016
		c0-3.432,0-6.864,0-10.288c1.058,4.753-0.05,9.584,0.565,14.347c-0.654,1.604-0.572,3.271-0.431,4.943
		C198.463,152.18,197.672,158.527,196.882,164.876z"/>
	<path fill-rule="evenodd" clip-rule="evenodd" fill="#333850" d="M220.025,148.915c-1.124,0.221-1.89,0.799-2.015,2.016
		c-3.719-2.319-1.691-5.754-1.58-8.75c0.037-1.011,1.382-1.435,2.352-1.314c1.574,0.195,0.714,1.38,0.751,2.255
		C219.614,145.056,219.852,146.984,220.025,148.915z"/>
	<path fill-rule="evenodd" clip-rule="evenodd" fill="#2B3340" d="M250.973,180.979c0.301-1.308-0.538-3.417,1.637-3.468
		c1.783-0.041,2.114,1.813,2.234,3.286c0.132,1.615-0.604,3.248-2.167,3.389C250.324,184.398,251.326,182.204,250.973,180.979z"/>
	<path fill-rule="evenodd" clip-rule="evenodd" fill="#2B3340" d="M251.273,199.384c1.713,0.189,1.671,1.445,1.678,2.581
		c0.009,1.376-0.177,2.751-2.003,2.791c-1.211,0.027-1.797-0.787-1.77-1.902C249.216,201.313,249.672,199.945,251.273,199.384z"/>
	<path fill-rule="evenodd" clip-rule="evenodd" fill="#242B30" d="M199.254,145.832c-0.142-1.673-0.224-3.34,0.431-4.943
		C201.29,142.688,201.788,144.392,199.254,145.832z"/>
	<path fill-rule="evenodd" clip-rule="evenodd" fill="#333850" d="M86.006,255.049c0.305,1.998,0.61,3.997,0.914,5.996
		c-1.521-0.276-2.155-1.483-2.713-2.695c-3.326-7.228-8.539-13.344-12.086-20.413c-2.63-5.243-2.731-11.241-4.155-16.856
		c1.464-1.497,0.929-3.461,1.223-5.23c5.724,2.308,8.316-0.883,9.958-5.695c1.909-5.591,6.353-9.373,9.826-13.85
		c0.891-1.147,2.149-1.532,2.81-0.194c1.408,2.853,4.181,5.241,3.408,8.933c-1.41-1.014-2.628-2.94-4.689-1.285
		c-0.94,0.755-1.355,1.864-0.896,3.137c0.706,1.956,2.31,2.166,4.054,2.124c0.498-0.012,0.997-0.022,1.495-0.033
		c2.969,1.101,3.141,4.021,4.112,6.395c1.241,3.033,2.346,6.24,4.998,0.851c0.417-0.849,1.132-0.841,2.071-0.768
		c4.121,0.323,6.655-2.028,6.214-6.067c-0.273-2.5,0.478-4.16,2.449-5.467c2.547,0.857,1.429,3.64,2.711,5.161
		c0.197,2.229,0.394,4.46,0.591,6.689c1.564,4.003,1.505,8.254,2.067,12.425c0.444,3.302-1.347,5.287-3.542,6.278
		c-2.598,1.172-2.394-2.462-3.884-3.493c0.002-0.655,0.005-1.311,0.008-1.966c-0.025-1.198-0.67-1.858-1.813-2.087
		c-0.379-0.301-0.759-0.601-1.138-0.901c-0.315-1.286-0.665-2.564-0.936-3.859c-0.228-1.086,0.059-2.768-1.464-2.725
		c-2.129,0.062-0.972,1.95-1.26,3.079c-0.483,1.896,0.223,5.453-1.105,5.464c-3.966,0.034-6.658,3.875-10.79,2.895
		c-5.474-1.301-7.688,1.084-6.758,6.869c0.354,2.203,0.772,4.464-0.452,6.704c-1.692-0.712-1.916-2.187-2.74-3.157
		c-0.885-1.043-2.008-2.062-3.374-1.638c-1.659,0.515-1.212,2.245-1.092,3.45c0.462,4.678,1.761,9.007,5.925,11.866L86.006,255.049z
		"/>
	<path fill-rule="evenodd" clip-rule="evenodd" fill="#3B4164" d="M69.188,215.85c-0.294,1.77,0.241,3.733-1.223,5.23
		c-0.052-0.642-0.103-1.284-0.153-1.928c-0.186-0.564-0.457-0.537-0.783-0.111c-0.345,0-0.689,0.001-1.035,0.002
		c-1.44-4.37-0.44-9.235-2.841-13.45c-0.676-1.186,0.245-2.553,0.847-3.738c3.121-0.696,1.722,1.905,2.256,3.095
		C67.233,208.583,68.211,212.216,69.188,215.85z"/>
	<path fill-rule="evenodd" clip-rule="evenodd" fill="#2B3340" d="M88.971,267.011c1.226,1.073,1.035,2.548,1.118,3.944
		C87.493,270.271,87.667,268.802,88.971,267.011z"/>
	<path fill-rule="evenodd" clip-rule="evenodd" fill="#333850" d="M67.03,219.041c0.326-0.426,0.597-0.453,0.783,0.111
		C67.551,219.11,67.291,219.073,67.03,219.041z"/>
	<path fill-rule="evenodd" clip-rule="evenodd" fill="#2B3340" d="M69.188,215.85c-0.978-3.634-1.956-7.267-2.931-10.9
		c3.133,0.207,3.566,2.484,3.74,4.922c0.115,1.616,0.417,3.119,2.495,2.889c1.819-0.202,2.413-1.602,2.448-3.226
		c0.064-2.985,0.024-5.973,0.079-8.957c0.042-2.262,0.358-4.316,3.416-2.597c3.085,1.734,4.296,0.295,4.571-2.66
		c0.294-3.169,2.078-5.027,4.89-6.3c2.768-1.252,5.137-0.341,5.465,2.215c0.567,4.424,4.526,6.388,6.125,10.04
		c1.431,3.269,3.564-1.293,5.514-0.276c0.172,0.832,0.408,1.64,1.451,1.672c0.185,0.006,0.579-0.43,0.539-0.552
		c-0.309-0.949-1.19-0.979-1.991-1.118c-0.319-3.124-0.475-6.224-0.05-9.377c0.653-4.841-2.871-8.26-4.702-12.215
		c-0.735-1.588-1.328-2.962-1.051-4.666c2.57,0.921,3.73,2.927,4.652,5.391c1.899,5.076,4.083,10.046,6.148,15.058
		c0.168,2.369-0.294,5.091,3.145,5.636c1.886,0.275,1.704,1.788,1.854,3.101c-1.971,1.308-2.721,2.968-2.448,5.468
		c0.441,4.039-2.093,6.391-6.214,6.067c-0.939-0.073-1.653-0.081-2.071,0.768c-2.652,5.39-3.757,2.183-4.998-0.851
		c-0.971-2.374-1.143-5.294-4.114-6.395c0.012-1.314,0.025-2.629,0.038-3.942c0.773-3.691-2-6.08-3.408-8.933
		c-0.66-1.338-1.919-0.953-2.81,0.194c-3.474,4.477-7.917,8.259-9.826,13.85C77.505,214.967,74.913,218.157,69.188,215.85z"/>
	<path fill-rule="evenodd" clip-rule="evenodd" fill="#224688" d="M109.998,195.192c-2.066-5.013-4.25-9.982-6.149-15.059
		c-0.921-2.464-2.082-4.47-4.652-5.391c0.048-0.503,0.095-1.006,0.143-1.509c3.405-1.937,2.024-5.345,1.363-7.517
		c-3.079-10.114-2.366-20.544-3.322-30.825c1.379,0.015,1.712-1.333,2.583-1.981c0.351,4.135,1.118,8.283,0.965,12.398
		c-0.307,8.25,2.682,15.979,3.282,24.061c0.068,0.925,0.831,1.383,1.654,1.676c0.08,1.275,0.159,2.552,0.239,3.828
		c-0.565,4.287,0.881,8.149,2.362,12.058c1.012,2.672,2.902,5.084,2.68,8.166C110.763,195.129,110.38,195.161,109.998,195.192z"/>
	<path fill-rule="evenodd" clip-rule="evenodd" fill="#242B30" d="M98.953,167.004c-0.015,1.981-0.03,3.963-0.045,5.944
		c-2.438-0.126-5.161,0.84-7.198-0.987c-3.266-2.93-1.049-6.886-1.181-10.283c-0.117-3.007,3.148-2.679,5.464-2.673
		c0.34,1.995,0.681,3.989,1.021,5.984C97.145,166.157,97.791,166.829,98.953,167.004z"/>
	<path fill-rule="evenodd" clip-rule="evenodd" fill="#8BBFE4" d="M97.96,118.942c0.411-3.985,0.821-7.97,1.231-11.956
		c4.535-0.462,4.606-4.875,6.254-7.593c5.417-8.933,11.744-17.342,12.933-28.494c0.532-4.987,2.769-10.504,7.667-13.793
		c0.68,8.213-2.713,16.012-2.365,24.285c0.125,2.962-2.436,6.05-3.817,9.06c-0.832,1.812-2.298,3.732-1.646,5.616
		c1.657,4.79-0.444,8.713-2.208,12.791c-1.995,0.531-4.621-0.764-5.835,2.02c-2.017,1.399-2.096,3.484-2.095,5.657
		c0.002,3.583-0.099,7.166-0.156,10.748c-0.339,0.556-0.678,1.114-1.016,1.671c-1.721,3.638-0.58,7.5-0.824,11.25
		c-0.183,2.819-1.208,1.492-2.268,0.683c-0.019-0.501-0.037-1.002-0.056-1.504c0.115-2.87,1.402-5.877-0.993-8.453
		c-0.032-0.616-0.064-1.232-0.097-1.848c1.133-0.633,1.256-1.349,0.178-2.163c0.023-0.613,0.047-1.227,0.071-1.84
		c1.637-5.081,2.465-10.216,1.25-15.557c-1.959,1.868-3.718,3.934-3.036,6.506c0.772,2.908-1.042,3.854-2.785,5.094
		C98.221,120.395,98.09,119.669,97.96,118.942z"/>
	<path fill-rule="evenodd" clip-rule="evenodd" fill="#C8DCEC" d="M126.046,57.106c-4.898,3.289-7.135,8.806-7.667,13.793
		c-1.189,11.152-7.516,19.562-12.933,28.494c-1.648,2.718-1.719,7.13-6.254,7.593c1.71-11.723,5.968-22.672,10.216-33.625
		c3.037-2.912,4.05-7.09,6.495-10.374c1.518-1.888,3.673-3.317,4.228-5.894l-0.008,0.014c2.299,0.921,2.701-2.198,4.591-2.155
		C125.473,55.477,126.935,55.565,126.046,57.106z"/>
	<path fill-rule="evenodd" clip-rule="evenodd" fill="#46578E" d="M97.96,118.942c0.13,0.727,0.261,1.453,0.391,2.176
		c0.29,2.547-1.986,5.591,1.449,7.536c0.054,1.419,0.109,2.837,0.163,4.256c-0.87,0.649-1.203,1.997-2.582,1.982
		c-0.945-5.241-0.066-10.493-0.109-15.739C97.491,119.049,97.72,118.979,97.96,118.942z"/>
	<path fill-rule="evenodd" clip-rule="evenodd" fill="#27326F" d="M135.976,49.052c1.332-2.74,1.756-1.079,1.963,0.463
		c0.933,6.943,2.961,13.511,5.957,19.864c1.381,2.929,2.634,4.321,6.307,3.919c8.562-0.938,16.975-0.259,24.404,4.998
		c1.876,1.327,4.192,0.632,6.334,0.411c2.057,10.399,6.043,20.219,9.044,30.333c0.316,1.301,0.633,2.601,0.95,3.902
		c-0.602,0-1.202-0.001-1.804-0.001c-0.278-0.64-0.132-1.566-1.151-1.705c-7.584-0.27-15.167-0.512-22.748,0.053
		c-0.422-2.24,1.162-2.266,2.648-2.398c2.364,0.022,4.729,0.045,7.094,0.068c1.992,0.013,3.99-0.071,5.975,0.06
		c3.905,0.258,4.516-1.88,3.785-5.025c-0.468-2.012-1.55-3.85-3.161-4.959c-3.783-2.605-8.746-2.927-12.299-6.083
		c-5.984-5.314-14.915-1.886-20.986-7.048c-0.574-0.488-1.141,0.299-1.321,1c-2.589,1.151-5.246,2.264-3.245,5.928
		c-3.116,1.662-5.485,3.914-6.907,7.301c-1.082,2.575-4.245,5.716-5.951,3.765c-1.974-2.257-3.286-0.531-4.733-1.039
		c0.026-0.564,0.053-1.128,0.079-1.693c2.239-1,2.159-2.486,0.888-4.222c0.055-0.585,0.11-1.169,0.165-1.754
		c1.16-0.407,1.902-0.977,0.875-2.239c0.409-1.236,0.817-2.473,1.226-3.709c3.246-2.032,6.758-12.155,5.653-16.294
		c0.046-0.605,0.093-1.211,0.14-1.817c3.427-2.5,2.128-6.188,1.465-9.025C135.59,57.697,135.096,53.461,135.976,49.052z"/>
	<path fill-rule="evenodd" clip-rule="evenodd" fill="#5398D2" d="M126.046,57.106c0.889-1.542-0.573-1.63-1.333-2.153
		c0.11-1.488,1.128-1.933,2.399-2.083c1.445,0.083,2.746,0.404,3.272,1.996c-0.092,2.237,1.478,4.401,0,6.735
		c-1.627,2.569-1.679,5.211,0.131,7.887c0.848,1.254,0.735,2.941,0.291,4.352c-1.436,4.552-2.534,9.308-4.684,13.515
		c-2.996,5.864-5.011,11.445-1.267,17.635c-0.336,1.285-0.673,2.57-1.01,3.855c-2.611,0.004-5.222,0.008-7.833,0.013
		c1.763-4.078,3.864-8.001,2.207-12.791c-0.652-1.884,0.814-3.804,1.646-5.616c1.381-3.009,3.942-6.097,3.817-9.06
		C123.333,73.119,126.726,65.32,126.046,57.106z"/>
	<path fill-rule="evenodd" clip-rule="evenodd" fill="#46578E" d="M189.984,109.039c-3.001-10.114-6.987-19.934-9.044-30.333
		c-0.432-3.313-3.304-6.132-1.968-9.796c1.478,0.104,2.89,0.301,3.08,2.204c0.613,2.002,0.745,4.171,2.046,5.937
		c-0.275,2.066,0.556,3.838,1.296,5.707c3.346,8.434,6.804,16.856,6.872,26.158C191.506,108.956,190.745,108.998,189.984,109.039z"
		/>
	<path fill-rule="evenodd" clip-rule="evenodd" fill="#224688" d="M130.385,54.866c-0.526-1.591-1.827-1.913-3.272-1.996
		c0.136-1.925,1.759-2.683,2.961-3.77c1.687-0.095,3.374-0.189,5.061-0.284c0.293,0.034,0.573,0.112,0.841,0.235
		c-0.88,4.41-0.386,8.645,0.645,13.051c0.663,2.837,1.962,6.525-1.466,9.024C135.204,65.226,133.911,59.718,130.385,54.866z"/>
	<path fill-rule="evenodd" clip-rule="evenodd" fill="#3B4164" d="M182.053,71.113c-0.19-1.903-1.603-2.1-3.08-2.204
		c-0.371-1.847-1.429-4.042,2.004-3.966c1.589,1.835,2.537,3.98,3.057,6.331C183.372,71.22,182.713,71.167,182.053,71.113z"/>
	<path fill-rule="evenodd" clip-rule="evenodd" fill="#27326F" d="M135.135,48.816c-1.687,0.094-3.374,0.188-5.061,0.284
		C131.599,46.116,133.302,46.318,135.135,48.816z"/>
	<path fill-rule="evenodd" clip-rule="evenodd" fill="#333850" d="M120.13,57.094c-0.555,2.577-2.71,4.006-4.228,5.894
		C116.211,60.235,115.988,57.098,120.13,57.094z"/>
	<path fill-rule="evenodd" clip-rule="evenodd" fill="#272D37" d="M98.953,167.004c-1.162-0.175-1.809-0.847-1.939-2.015
		C98.182,165.159,98.854,165.806,98.953,167.004z"/>
	<path fill-rule="evenodd" clip-rule="evenodd" fill="#2654A1" d="M189.984,109.039c0.761-0.042,1.521-0.083,2.279-0.124
		c0.615,0.005,1.234,0.01,1.853,0.014c1.53,1.795,0.543,4.001,0.976,5.975c-2.299,2.379-0.502,5.308-1.061,7.922
		c0.273,0.418,0.547,0.835,0.82,1.251c0.007,0.618,0.014,1.236,0.021,1.854c-0.084,0.12-0.258,0.257-0.237,0.353
		c0.055,0.258,0.192,0.498,0.297,0.746c0.522,7.256,1.54,14.495,0.77,21.797c-1.153,0.332-1.73,1.034-1.459,2.28
		c-0.263,5.374,0.041,10.825-2.142,15.941c-2.744-2.392,1.542-5.716-1.077-8.123c0.688-2.406,0.98-4.831,0.963-7.363
		c-0.053-7.494,0.104-14.989,0.18-22.484c1.071-1.375,1.124-2.752,0.007-4.13c0.014-0.643,0.027-1.286,0.042-1.929
		c1.061-1.428,0.771-3.024,0.573-4.609c-1.43-0.642-0.074-2.774-1.756-3.282c-0.033-0.729-0.066-1.458-0.099-2.188
		C190.617,111.64,190.301,110.34,189.984,109.039z"/>
	<path fill-rule="evenodd" clip-rule="evenodd" fill="#4774B9" d="M194.116,108.929c-0.618-0.004-1.237-0.009-1.853-0.014
		c-0.065-9.302-3.523-17.724-6.869-26.158c-0.74-1.869-1.571-3.641-1.297-5.708c0.661,0.62,1.322,1.241,1.984,1.862
		c1.258,2.701,1.594,5.841,3.837,8.074C191.296,94.303,194.766,101.222,194.116,108.929z"/>
	<path fill-rule="evenodd" clip-rule="evenodd" fill="#5398D2" d="M186.082,78.911c-0.662-0.621-1.323-1.242-1.984-1.862
		c-1.3-1.765-1.432-3.933-2.045-5.936c0.66,0.054,1.319,0.107,1.98,0.161c0.214,1.508,2.335,1.926,2.107,3.687
		C186.122,76.278,186.103,77.595,186.082,78.911z"/>
	<path fill-rule="evenodd" clip-rule="evenodd" fill="#333850" d="M192.046,208.975c1.985-0.16,2.761,1.299,3.876,2.583
		c2.583,2.973,4.545,2.614,6.223-0.853c1.657-3.426,9.919-3.931,12.098-0.435c1.521,2.444,3.345,5.239,2.554,8.368
		c-1.071,4.236,1.398,4.563,4.351,4.279c1.784-0.171,3.601-0.658,5.261-1.344c4.932-2.037,7.973-0.061,8.626,5.445
		c0.746,6.284,0.946,12.405-1.592,18.447c-1.069,2.546-1.474,5.396-1.499,8.278c-0.045,5.192-4.999,6.41-7.909,9.281
		c3.067-6.299,6.356-12.456,7.358-19.603c0.464-3.308,1.303-6.035-3.239-6.502c-1.777-0.182-2.51-1.515-3.104-2.89
		c-1.591-3.674-4.499-3.755-7.432-2.354c-3.503,1.673-6.491,2.353-9.126-1.341c-1.104-1.548-2.535-1.394-3.76,0.01
		c-0.867,0.994-1.671,2.046-2.476,3.093c-1.146,1.493-2.749,2.851-4.436,2.818c-2.27-0.042-1.521-2.489-2.002-3.947
		c-0.257-0.776-0.482-1.955-1.034-2.179c-4.448-1.798-3.71-5.724-3.998-9.241c0.021-1.289,0.038-2.579,0.057-3.868
		C193.138,214.623,190.348,211.463,192.046,208.975z"/>
	<path fill-rule="evenodd" clip-rule="evenodd" fill="#3B4164" d="M190.782,220.89c0.291,3.519-0.447,7.444,4.001,9.242
		c0.552,0.224,0.777,1.402,1.034,2.179c0.481,1.458-0.268,3.905,2.002,3.947c1.687,0.032,3.289-1.325,4.436-2.818
		c0.805-1.047,1.608-2.099,2.476-3.093c1.225-1.403,2.655-1.558,3.76-0.01c2.635,3.693,5.623,3.014,9.126,1.341
		c2.933-1.4,5.841-1.319,7.432,2.354c0.595,1.375,1.327,2.708,3.104,2.89c4.542,0.467,3.703,3.194,3.239,6.502
		c-1.002,7.146-4.291,13.304-7.358,19.603c-1.915,4.484-3.417,9.151-6.071,13.307c-0.914,1.431-1.788,2.773-3.708,2.813
		c-0.07-0.709-0.143-1.417-0.215-2.126c2.845-1.249,3.661-3.208,2.104-6.001c0.017-0.663,0.034-1.326,0.05-1.989
		c1.714-0.522,2.843-1.761,3.542-3.294c2.444-5.357,3.602-11.282,7.767-15.895c1.217-1.348,1.152-4.116-0.032-5.7
		c-1.692-2.263-3.087,0.561-4.674,0.896c-3.235,0.682-6.483,1.784-9.731,1.802c-3.862,0.021-6.649,0.616-6.929,5.415
		c-0.647-2.054-0.912-3.813-1.143-5.578c-0.146-1.115,0.266-2.496-1.025-3.119c-1.548-0.746-2.532,0.492-3.379,1.442
		c-2.043,2.293-3.718,1.966-5.816-0.098c-4.35-4.278-5.933-9.661-5.604-15.36C189.329,226.732,187.359,223.181,190.782,220.89z"/>
	<path fill-rule="evenodd" clip-rule="evenodd" fill="#3B4164" d="M192.046,208.975c-1.698,2.488,1.092,5.648-1.202,8.048
		c-2.419,0.871-6.006,1.041-7.035,2.75c-2.781,4.619-6.423,7.102-11.305,9.208c-2.701,1.166-4.176,1.488-6.293-0.072
		c-0.355-1.271-0.711-2.544-1.067-3.816c1.392-0.063,2.337-0.895,3.416-1.692c5.341-3.946,8.809-9.55,13.078-14.444
		c5.168-0.42,8.934-6.764,7.058-11.544c-1.064-2.714-2.294-0.433-3.45-0.397c0.941-4.969,5.761-8.541,5.08-14.095
		c1.601,0.13,1.374-1.739,2.422-2.214c0.912,3.692-2.522,6.649-1.746,10.318c1.538,4.575,0.801,9.318,1.033,13.99
		C192.038,206.334,192.042,207.654,192.046,208.975z"/>
	<path fill-rule="evenodd" clip-rule="evenodd" fill="#4774B9" d="M192.747,180.705c-1.048,0.475-0.821,2.344-2.425,2.214
		c-0.756-3.364-0.183-6.65,0.588-9.925c0.146-0.767,0.184-1.591,1.042-1.983c0.656,0.571,1.312,1.143,1.967,1.711
		C194.769,175.563,192.78,177.99,192.747,180.705z"/>
	<path fill-rule="evenodd" clip-rule="evenodd" fill="#333850" d="M192.034,205.014c-0.232-4.672,0.505-9.415-1.033-13.99
		c0.636,0.143,1.494,0.071,1.869,0.463C194.94,193.646,194.336,202.443,192.034,205.014z"/>
	<path fill-rule="evenodd" clip-rule="evenodd" fill="#4774B9" d="M133.909,246.874c0.453-4.412-0.586-8.689-1.171-13.009
		c-0.007-0.967-0.011-1.935-0.014-2.9c0.858-0.357,1.17-1.095,1.347-1.928c7.787-0.033,11.499,2.85,11.904,9.285
		c0.083,1.317,0.016,2.645,0.074,3.964c0.045,1.005,0.183,2.129,1.431,2.244c1.179,0.108,1.858-0.906,2-1.852
		c0.314-2.106,0.378-4.252,0.513-6.383c0.127-2.004,0.137-4.224,2.415-4.968c2.045-0.668,4.254-0.714,6.119,0.813
		c1.387,1.135,2.469,2.73,4.475,2.913c0.017,0.626,0.033,1.253,0.049,1.88c-1.408,1.755-1.531,3.226,0.912,4.129
		c0.035,0.62,0.069,1.24,0.104,1.86c-1.582,7.078,2.718,11.825,6.947,17.883c0-1.963,0-2.769,0-3.575c0-0.962,0-1.924,0-3.388
		c3.034,4.051,4.633,4.119,6.77,0.551c1.05-1.754,1.828-3.591,4.318-3.405c-0.051,1.999-0.101,3.998-0.152,5.996
		c-4.808,0.543-4.524,5.187-6.337,8.071c-1.292,2.055-1.922,4.525-2.839,6.813c-0.475,1.186-1.235,2.037-2.611,1.793
		c-1.611-0.286-2.072-1.522-2.026-2.97c0.057-1.802,0.079-3.618,0.349-5.394c0.207-1.361-0.236-2.806-1.264-2.925
		c-6.872-0.8-5.013-6.395-5.003-10.057c0.014-5.631-4.979-7.027-7.353-10.547c-0.72-1.067-2.146-0.021-2.924,0.909
		c-1.326,1.586-1.871,3.438-1.979,5.514c-0.079,1.532,0.761,4.013-1.356,4.215c-1.747,0.168-3.729-1.191-4.514-3.253
		c-0.917-2.406-1.129-6.356-3.571-6.447c-2.597-0.097-1.547,4.063-2.856,6.141c-3.143,4.984-1.113,10.715-1.731,16.087
		c-0.113,0.983,1.157,2.584-1.251,2.979c-2.048,0.337-2.269-0.935-2.583-2.13c-0.916-3.484-3.685-2.671-6.081-2.77
		c-1.226-1.131-0.901-2.6-0.875-4.004c2.509-1.717,3.655-5.55,7.858-4.736c0.977,0.188,0.979-1.506,0.993-2.46
		C134.017,250.169,133.943,248.521,133.909,246.874z"/>
	<path fill-rule="evenodd" clip-rule="evenodd" fill="#3D65B0" d="M127.988,277.082c-3.983-2.324-4.49-6.04-4.058-10.133
		c0.677-0.02,1.354-0.037,2.031-0.057c1.21,1.169,0.975,2.715,1.082,4.171c0.348,1.306,0.697,2.612,1.046,3.919
		C128.055,275.683,128.021,276.383,127.988,277.082z"/>
	<path fill-rule="evenodd" clip-rule="evenodd" fill="#4774B9" d="M128.088,274.982c-0.349-1.307-0.698-2.613-1.046-3.919
		c2.045-0.148,3.813,0.958,4.033,2.661C131.308,275.524,129.202,274.722,128.088,274.982z"/>
	<path fill-rule="evenodd" clip-rule="evenodd" fill="#3D65B0" d="M163.001,235.054c-2.006-0.183-3.088-1.778-4.475-2.913
		c-1.865-1.526-4.074-1.48-6.119-0.813c-2.278,0.744-2.288,2.964-2.415,4.968c-0.135,2.131-0.198,4.276-0.513,6.383
		c-0.142,0.945-0.821,1.96-2,1.852c-1.248-0.115-1.386-1.239-1.431-2.244c-0.059-1.319,0.009-2.646-0.074-3.964
		c-0.405-6.436-4.117-9.318-11.905-9.285c-0.048-0.664-0.095-1.328-0.143-1.991c0.257-1.567,1.547-3.296,0.127-4.685
		c-2.993-2.93-3.697-6.868-5.151-10.499c-1.046-2.61-2.148-5.131-5.827-5.014c-2.244,0.071-2.745-1.992-3.071-3.848
		c2.072,0.028,4.041,0.083,3.426-3.067c-0.216-1.106,0.611-2.152,1.492-2.948c1.169,0.791,2,2.419,3.812,1.66
		c1.119-0.469,1.295-1.512,1.039-2.505c-2.254-8.745-0.132-17.71-1.457-26.583c-0.766-5.135-2.27-7.214-7.29-6.556
		c1.681-3.98,5.057-1.227,7.582-1.835c2.217-0.533,5.24,0.646,5.384-3.233c0.017-0.977,0.033-1.953,0.049-2.93
		c0.713-0.026,1.426-0.054,2.14-0.08c1.055-1.661,0.693-3.527,0.706-5.315c0.071-10.087,0.052-20.175,0.173-30.261
		c0.02-1.615-0.857-3.844,1.858-4.425c0.389,2.686-0.819,5.579,1.049,8.072l0.02,0.033c-0.005,7.341-0.01,14.683-0.015,22.024
		c0.271,3.057-1.207,6.332,1.148,9.126c-0.03,0.895-0.06,1.789-0.09,2.684c-0.29,0.66-0.58,1.32-0.869,1.981
		c-2.537,0.204-5.067,0.205-2.471,3.895c3.654,5.191,3.107,16.094-1.487,20.354c-3.788,3.513-3.746,6.622-1.714,10.95
		c1.454,3.095,3.729,5.827,4.338,9.38c0.292,1.701,2.353,3.561,3.528,2.907c5.161-2.87,5.458,0.98,6.7,4.128
		c0.718,1.82,1.781,3.653,3.144,5.033c1.768,1.791,4.887,2.791,5.602-0.241c1.353-5.735,6.444-9.05,8.107-14.58
		c1.018-3.384,3.286-7.136,8.432-4.014c1.324,0.803,4.627,1.219,4.386-1.951c-0.281-3.712,1.352-6.99,1.57-10.603
		c0.184-3.019,0.658-6.805,3.575-9.166c0.278,5.33-1.171,10.412-2.233,15.551c-0.664,3.21-1.48,6.435,0.374,9.549
		c-0.177,1.026,0.095,2.194-0.938,2.947c-2.795-0.001-5.591,0.05-8.384-0.021c-1.988-0.05-3.483,0.527-4.413,2.428
		c-3.083,6.299-3.845,13.323-6.267,19.824C162.031,228.525,163.68,231.672,163.001,235.054z M146.926,225.178
		c-1.174,0.116-1.798,0.764-1.719,1.948c0.102,1.51,1.173,1.855,2.435,1.812c1.084-0.037,2.021-0.396,1.717-1.749
		C149.081,225.955,148.311,225.161,146.926,225.178z"/>
	<path fill-rule="evenodd" clip-rule="evenodd" fill="#414A75" d="M166.211,228.908c2.117,1.561,3.592,1.238,6.293,0.072
		c4.882-2.106,8.523-4.589,11.305-9.208c1.029-1.709,4.616-1.879,7.035-2.75c-0.021,1.289-0.038,2.579-0.059,3.868
		c-3.426,2.29-1.456,5.842-1.618,8.65c-0.328,5.699,1.255,11.082,5.604,15.36c2.099,2.063,3.773,2.391,5.816,0.098
		c0.847-0.95,1.831-2.188,3.379-1.442c1.291,0.623,0.879,2.004,1.025,3.119c0.23,1.765,0.495,3.524,1.143,5.578
		c0.279-4.799,3.066-5.395,6.929-5.415c3.248-0.018,6.496-1.12,9.731-1.802c1.587-0.335,2.981-3.158,4.674-0.896
		c1.185,1.584,1.249,4.353,0.032,5.7c-4.165,4.612-5.322,10.537-7.767,15.895c-0.699,1.533-1.828,2.771-3.542,3.294
		c-1.824-4.736-2.51-9.754-3.45-14.341c-3.248,0.219-3.891,5.844-8.677,3.814c-0.407,2.726,0.354,6.009-1.702,8.686
		c-1.078,1.403-2.601,2.525-3.064,0.118c-0.945-4.896-4.783-6.825-8.397-8.514c-4.565-2.134-6.31-4.931-6.002-10.012
		c0.381-6.29,1.749-12.538,1.105-18.882c-0.142-1.396,0.531-3.017-0.998-4.184c-2.073,0.949-2.294,3.14-3.256,4.781
		c-1.605,2.74-3.501,4.835-7.064,4.515c-1.515-0.136-2.981,0.059-3.95,1.558c-0.687,1.062-1.286,2.695-2.987,1.795
		c-1.245-0.66-1.599-2.113-1.63-3.475C166.074,232.898,166.173,230.902,166.211,228.908z"/>
	<path fill-rule="evenodd" clip-rule="evenodd" fill="#2654A1" d="M162.011,225.214c2.422-6.501,3.184-13.525,6.267-19.824
		c0.93-1.9,2.425-2.478,4.413-2.428c2.793,0.07,5.589,0.02,8.383,0.021c-2.167,3.443-3.926,7.111-7.202,9.827
		c-4.091,3.391-7.863,7.161-9.942,12.241C163.289,225.105,162.65,225.16,162.011,225.214z"/>
	<path fill-rule="evenodd" clip-rule="evenodd" fill="#3D65B0" d="M182.101,250.988c-2.49-0.186-3.269,1.651-4.318,3.405
		c-2.137,3.568-3.735,3.5-6.77-0.551c0,1.464,0,2.426,0,3.388c0,0.807,0,1.612,0,3.575c-4.229-6.058-8.529-10.805-6.947-17.883
		c1.159,1.792,2.073,3.818,3.524,5.33c3.579,3.731,6.439,3.382,9.429-0.485c1.214-1.569,1.218-5.59,4.333-3.944
		C183.979,245.21,183.274,248.415,182.101,250.988z"/>
	<path fill-rule="evenodd" clip-rule="evenodd" fill="#27326F" d="M163.929,225.051c2.079-5.08,5.852-8.851,9.942-12.241
		c3.276-2.716,5.035-6.384,7.202-9.827c1.033-0.753,0.762-1.921,0.938-2.947c0.324,0.001,0.647,0.022,0.969,0.063
		c0.154,3.044-0.525,5.961-1.347,8.856c-4.266,4.895-7.733,10.498-13.074,14.444c-1.079,0.798-2.024,1.629-3.416,1.692
		C164.739,225.079,164.334,225.065,163.929,225.051z"/>
	<path fill-rule="evenodd" clip-rule="evenodd" fill="#414A75" d="M216.143,271.02c1.558,2.793,0.741,4.752-2.104,6.001
		C214.628,274.981,214.603,272.727,216.143,271.02z"/>
	<path fill-rule="evenodd" clip-rule="evenodd" fill="#3D65B0" d="M163.962,241.063c-2.443-0.903-2.32-2.374-0.912-4.129
		C164.237,238.114,164.021,239.606,163.962,241.063z"/>
	<path fill-rule="evenodd" clip-rule="evenodd" fill="#3B4164" d="M85.952,254.983c-4.164-2.859-5.462-7.188-5.925-11.866
		c-0.12-1.205-0.567-2.936,1.092-3.45c1.366-0.424,2.488,0.595,3.374,1.638c0.825,0.971,1.048,2.445,2.74,3.157
		c1.224-2.24,0.806-4.501,0.452-6.704c-0.93-5.785,1.285-8.17,6.758-6.869c4.132,0.98,6.823-2.86,10.79-2.895
		c1.328-0.011,0.622-3.568,1.105-5.464c0.288-1.129-0.869-3.018,1.26-3.079c1.523-0.043,1.236,1.639,1.464,2.725
		c0.271,1.295,0.62,2.573,0.936,3.859c-1.729,6.321-6.002,11.471-8.166,17.705c-1.574,0.306-2.076-1.294-3.136-1.908
		c-3.774-2.187-6.893-0.837-7.788,3.385c-0.456,2.151-1.105,4.344-3.05,5.511C86.067,251.803,86.02,253.316,85.952,254.983z"/>
	<path fill-rule="evenodd" clip-rule="evenodd" fill="#3B4164" d="M112.94,230.989c1.49,1.031,1.286,4.665,3.884,3.493
		c2.196-0.991,3.987-2.977,3.542-6.278c-0.562-4.171-0.503-8.422-2.07-12.423c4.589,0.972,7.34,4.636,10.74,7.349
		c0.049,3.809,0.563,7.26-4.93,8.67c-2.073,0.532-3.86,4.994-4.465,8.424c-0.24,1.364-0.533,3.835-2.705,3.418
		c-1.768-0.341-4.336-0.781-4.515-3.272C112.198,237.254,108.602,233.858,112.94,230.989z"/>
	<path fill-rule="evenodd" clip-rule="evenodd" fill="#2654A1" d="M120.005,203.001c0.326,1.855,0.827,3.919,3.071,3.848
		c3.678-0.117,4.781,2.403,5.827,5.014c1.455,3.631,2.158,7.569,5.151,10.499c1.419,1.389,0.129,3.117-0.126,4.685
		c-0.691,0.032-1.383,0.064-2.075,0.098c-0.354-0.734-0.709-1.469-1.063-2.203c0.422-4.308-1.358-8.804-4.684-9.995
		c-3.233-1.157-4.727-3.102-6.64-5.223c-0.368-0.408-1.161-0.433-1.758-0.633c-1.283-1.521-0.164-4.304-2.711-5.161
		c-0.151-1.313,0.031-2.826-1.854-3.101c0.321-2.254-1.621-3.719-1.998-5.73c0.223-3.082-1.667-5.494-2.68-8.166
		c-1.48-3.908-2.927-7.771-2.363-12.057c2.278,1.364,0.982,4.586,3.128,6.018c-0.098,1.225,0.508,1.915,1.662,2.19
		c0.098,1.273,0.196,2.546,0.295,3.818c0.186,2.398,1.187,4.41,2.891,6.087c0.313,0.669,0.625,1.338,0.938,2.007
		c0.959,2.822,1.373,6.021,4.88,7.09C119.908,202.394,119.944,202.699,120.005,203.001z"/>
	<path fill-rule="evenodd" clip-rule="evenodd" fill="#27326F" d="M117.708,209.09c0.597,0.2,1.39,0.225,1.758,0.633
		c1.913,2.121,3.407,4.065,6.64,5.223c3.325,1.191,5.105,5.688,4.684,9.995c-0.586-0.604-1.17-1.209-1.754-1.812
		c-3.4-2.712-6.151-6.376-10.74-7.348C118.103,213.55,117.905,211.319,117.708,209.09z"/>
	<path fill-rule="evenodd" clip-rule="evenodd" fill="#6979BB" d="M110.764,244.994c-3.055,2.339,0.167,6.13-2.413,9.203
		c-0.869-4.993,0.098-9.767-1.487-14.186c0.571-0.621,1.654-1.155,1.756-0.151C108.825,241.868,110.553,243.094,110.764,244.994z"/>
	<path fill-rule="evenodd" clip-rule="evenodd" fill="#46578E" d="M131.853,227.144c0.692-0.033,1.384-0.065,2.075-0.098
		c0.046,0.663,0.093,1.327,0.142,1.991c-0.175,0.833-0.487,1.57-1.346,1.928C131.742,229.848,131.989,228.452,131.853,227.144z"/>
	<path fill-rule="evenodd" clip-rule="evenodd" fill="#3B4164" d="M111.135,226.937c1.142,0.229,1.788,0.889,1.813,2.087
		C110.708,229.748,111.071,228.213,111.135,226.937z"/>
	<path fill-rule="evenodd" clip-rule="evenodd" fill="#3D65B0" d="M123.011,264.996c-6.318,0.63-7.761,5.559-9.369,10.453
		c-0.484,1.476-0.63,4.823-3.443,1.527c-0.002-5.059-0.002-10.116-0.002-15.278c-1.824,0.354-0.999,3.387-3.259,3.136
		c-0.193-3.739,2.859-6.263,3.652-9.671c0.289-1.243,6.834-0.447,7.161,1.177C118.484,259.993,121.826,261.796,123.011,264.996z"/>
	<path fill-rule="evenodd" clip-rule="evenodd" fill="#3D65B0" d="M133.909,246.874c0.034,1.647,0.108,3.295,0.084,4.941
		c-0.014,0.954-0.016,2.648-0.993,2.46c-4.203-0.813-5.349,3.02-7.858,4.736C124.699,250.549,126.843,247.58,133.909,246.874z"/>
	<path fill-rule="evenodd" clip-rule="evenodd" fill="#6979BB" d="M106.938,264.834c2.261,0.251,1.435-2.782,3.259-3.136
		c0,5.162,0,10.22,0.002,15.278c-0.867,0.912-1.996,1.065-3.17,1.086c-0.08-1.702-0.16-3.405-0.239-5.106
		c3.904-2.639-0.312-5.334,0.057-7.998L106.938,264.834z"/>
	<path fill-rule="evenodd" clip-rule="evenodd" fill="#3D65B0" d="M106.848,264.958c-0.369,2.664,3.847,5.359-0.057,7.998
		c-0.76-1.393-1.617-2.741-2.254-4.187C103.536,266.499,104.108,265.034,106.848,264.958z"/>
	<path fill-rule="evenodd" clip-rule="evenodd" fill="#224688" d="M191.952,171.011c-0.858,0.393-0.896,1.217-1.042,1.983
		c-2.687-0.841-2.156-3.319-2.489-5.228c-0.275-1.582,2.205-3.046,0.412-4.86c0.161-1.078,0.2-2.122-0.813-2.867
		c-3.854-1.985-8.039-0.293-12-1.081c0.003-1.04,0.007-2.08,0.01-3.118c3.123,2.05,6.579,0.797,9.888,0.999
		c1.057,0.006,2.113,0.013,3.169,0.02c0.744,0.597,0.354,2.257,1.938,2.066c2.618,2.408-1.668,5.732,1.076,8.124
		C192.052,168.369,192.002,169.689,191.952,171.011z"/>
	<path fill-rule="evenodd" clip-rule="evenodd" fill="#4774B9" d="M194.243,151.107c-0.271-1.246,0.306-1.948,1.459-2.28
		C195.98,150.076,195.452,150.809,194.243,151.107z"/>
	<path fill-rule="evenodd" clip-rule="evenodd" fill="#46578E" d="M194.852,124.078c-0.273-0.417-0.547-0.833-0.82-1.251
		C194.305,123.243,194.578,123.66,194.852,124.078z"/>
	<path fill-rule="evenodd" clip-rule="evenodd" fill="#46578E" d="M194.933,127.03c-0.104-0.248-0.242-0.488-0.297-0.746
		c-0.021-0.096,0.153-0.233,0.237-0.353C194.893,126.298,194.913,126.664,194.933,127.03z"/>
	<path fill-rule="evenodd" clip-rule="evenodd" fill="#3B4164" d="M95.19,205.043c-0.013,1.313-0.026,2.628-0.038,3.942
		c-0.497,0.011-0.995,0.021-1.493,0.033c-1.745,0.042-3.349-0.168-4.054-2.124c-0.459-1.272-0.044-2.382,0.896-3.137
		C92.562,202.103,93.781,204.029,95.19,205.043z"/>
	<path fill-rule="evenodd" clip-rule="evenodd" fill="#333850" d="M111.145,195.098c0.377,2.012,2.319,3.477,1.998,5.73
		c-3.44-0.546-2.978-3.268-3.146-5.637C110.38,195.161,110.763,195.129,111.145,195.098z"/>
	<path fill-rule="evenodd" clip-rule="evenodd" fill="#272D37" d="M105,201.001c0.8,0.139,1.682,0.169,1.991,1.118
		c0.04,0.122-0.354,0.558-0.539,0.552c-1.042-0.032-1.278-0.84-1.451-1.672L105,201.001z"/>
	<path fill-rule="evenodd" clip-rule="evenodd" fill="#4774B9" d="M109.231,180.893c-2.146-1.432-0.851-4.653-3.128-6.018
		c-0.079-1.277-0.158-2.554-0.237-3.83c0.535-0.03,1.068-0.061,1.604-0.09c3.297,3.991,4.102,9.168,6.454,13.611
		c0.369,0.698,0.303,1.662,1.27,1.938c0.762,0.218,1.338-0.17,1.531-0.85c0.572-2.008,2.051-4.509,1.368-5.976
		c-1.639-3.521,0.716-4.376,2.671-5.781c-0.789,8.088,1.859,15.556,4.16,23.087c-0.881,0.796-1.708,1.842-1.492,2.948
		c0.615,3.15-1.354,3.096-3.426,3.067c-0.062-0.302-0.098-0.607-0.108-0.916c-0.342-3.248-2.079-5.536-4.881-7.09
		c-0.313-0.669-0.625-1.338-0.938-2.006c1.002-2.963-0.543-4.716-2.891-6.088c-0.099-1.272-0.197-2.545-0.294-3.818
		C110.913,181.917,110.319,181.217,109.231,180.893z"/>
	<path fill-rule="evenodd" clip-rule="evenodd" fill="#2654A1" d="M107.468,170.955c-0.534,0.029-1.068,0.06-1.603,0.09
		c-0.823-0.292-1.586-0.75-1.654-1.675c-0.6-8.082-3.589-15.811-3.282-24.061c0.153-4.115-0.614-8.264-0.965-12.398
		c-0.055-1.419-0.109-2.838-0.163-4.255c0.332-2.261-0.302-4.787,1.748-6.884c0.535,1.288,0.954,2.297,1.373,3.307
		c-0.024,0.613-0.048,1.227-0.071,1.841c-0.741,0.665-0.746,1.39-0.178,2.162c0.033,0.616,0.065,1.232,0.098,1.849
		c-0.404,2.904-2.19,5.97,0.992,8.452c0.019,0.501,0.037,1.003,0.056,1.505c-1.177,7.121-0.688,14.016,2.771,20.508
		c0.035,1.224,0.068,2.448,0.103,3.673c-1.273,1.688-1.041,3.095,0.791,4.199C107.477,169.829,107.472,170.392,107.468,170.955z"/>
	<path fill-rule="evenodd" clip-rule="evenodd" fill="#C8DCEC" d="M107.926,127.283c0.057-3.583,0.158-7.166,0.156-10.749
		c-0.001-2.173,0.078-4.258,2.095-5.657c4.588,0.001,9.177,0.002,13.767,0.003c0.414,0.39,0.828,0.78,1.241,1.169
		c-0.77,0.622-1.539,1.243-2.309,1.864c-3.151-1.041-6.342-2.463-9.027,0.946c-1.313,0.251-2.942,0.054-2.978,2.109
		c-2.528,1.044-1.792,3.31-1.807,5.173c-0.077,9.454,0.006,18.909-0.13,28.362c-0.02,1.408,1.137,3.251-0.88,4.318
		C108.011,145.643,107.968,136.463,107.926,127.283z"/>
	<path fill-rule="evenodd" clip-rule="evenodd" fill="#5398D2" d="M106.587,161.396c-3.458-6.494-3.947-13.389-2.77-20.51
		c1.06,0.809,2.084,2.136,2.268-0.684c0.244-3.75-0.897-7.612,0.824-11.25c0.093,8.687,0.187,17.373,0.279,26.06
		C105.511,157.001,107.854,159.368,106.587,161.396z"/>
	<path fill-rule="evenodd" clip-rule="evenodd" fill="#5398D2" d="M102.921,125.078c-0.419-1.009-0.838-2.019-1.373-3.307
		c-2.05,2.098-1.417,4.623-1.748,6.884c-3.437-1.947-1.161-4.99-1.45-7.538c1.743-1.237,3.557-2.183,2.785-5.091
		c-0.683-2.573,1.076-4.639,3.036-6.506C105.386,114.862,104.559,119.997,102.921,125.078z"/>
	<path fill-rule="evenodd" clip-rule="evenodd" fill="#414A75" d="M107.19,155.014c-0.094-8.688-0.188-17.374-0.281-26.061
		c0.338-0.558,0.677-1.115,1.016-1.671c0.043,9.181,0.086,18.361,0.127,27.543C107.777,154.946,107.49,155.009,107.19,155.014z"/>
	<path fill-rule="evenodd" clip-rule="evenodd" fill="#224688" d="M123.942,110.88c-4.588-0.001-9.177-0.002-13.766-0.003
		c1.214-2.783,3.84-1.489,5.834-2.02c2.612-0.004,5.223-0.008,7.833-0.013c0,0,0.315,0.326,0.314,0.325
		C124.086,109.739,124.014,110.31,123.942,110.88z"/>
	<path fill-rule="evenodd" clip-rule="evenodd" fill="#5398D2" d="M103.762,139.382c-3.182-2.482-1.396-5.548-0.992-8.452
		C105.165,133.504,103.877,136.512,103.762,139.382z"/>
	<path fill-rule="evenodd" clip-rule="evenodd" fill="#5398D2" d="M102.672,129.081c-0.568-0.772-0.563-1.497,0.178-2.162
		C103.929,127.732,103.805,128.448,102.672,129.081z"/>
	<path fill-rule="evenodd" clip-rule="evenodd" fill="#224688" d="M146.966,86.902c0.181-0.701,0.747-1.488,1.321-1
		c6.071,5.162,15.002,1.734,20.986,7.048c3.553,3.156,8.516,3.477,12.299,6.083c1.611,1.109,2.693,2.947,3.161,4.959
		c0.73,3.145,0.12,5.283-3.785,5.025c-1.984-0.131-3.982-0.047-5.975-0.06c-2.884-8.908-11.161-15.486-20.102-15.872
		c-1.108-0.048-2.383,0.105-3.321,0.629c-1.331,0.744-2.508,1.789-4.012,0.648c-1.642-1.245-1.063-2.867-0.648-4.508
		C147.125,88.922,146.954,87.889,146.966,86.902z"/>
	<path fill-rule="evenodd" clip-rule="evenodd" fill="#2654A1" d="M146.966,86.902c-0.012,0.987,0.159,2.02-0.075,2.951
		c-0.414,1.641-0.993,3.263,0.648,4.508c1.504,1.141,2.681,0.096,4.012-0.648c0.938-0.524,2.213-0.677,3.321-0.629
		c8.94,0.386,17.218,6.964,20.102,15.872c-2.364-0.023-4.729-0.045-7.093-0.068c-0.755-3.268-3.314-4.665-6.091-5.773
		c-3.699-1.478-8.332-1.01-10.711-5.3c-0.198-0.359-0.883,0.627-1.079,1.228c-2.246,0.173-4.396,0.047-5.963-1.904
		c-1.475-1.335,0.188-2.902-0.318-4.309C141.72,89.166,144.377,88.053,146.966,86.902z"/>
	<path fill-rule="evenodd" clip-rule="evenodd" fill="#3D65B0" d="M150,99.043c0.196-0.601,0.881-1.587,1.079-1.228
		c2.379,4.29,7.012,3.823,10.711,5.3c2.776,1.108,5.336,2.506,6.091,5.773c-1.487,0.133-3.071,0.159-2.651,2.4
		c-0.369,0.567-0.735,1.132-1.103,1.696c-2.262,1.281-2.206,3.446-2.185,5.628c0.072,7.471,0.12,14.943,0.177,22.414
		c0.013,1.656,0.024,3.313,0.036,4.969c-0.067,0.329-0.134,0.657-0.201,0.985c-1.142-1.634-0.761-3.512-0.793-5.301
		c-0.122-6.786-0.131-13.575-0.305-20.359c-0.046-1.813,0.55-4.332-2.723-4.152c-0.169-0.676-0.339-1.352-0.505-2.027
		c0.876-0.601,3.697,0.922,2.325-2.129c-0.06-0.66-0.118-1.32-0.176-1.98c-0.017-2.373-1.836-1.936-3.228-1.981
		c-3.484-0.114-6.972-0.13-10.458-0.185c-0.051-1.933-0.103-3.865-0.153-5.797C147.577,102.015,150.368,102.122,150,99.043z"/>
	<path fill-rule="evenodd" clip-rule="evenodd" fill="#3D65B0" d="M130.385,54.866c3.526,4.853,4.819,10.36,4.77,16.261
		c-0.045,0.607-0.092,1.212-0.139,1.818c-2.288,5.292-4.167,10.725-5.653,16.294c-0.408,1.236-0.817,2.473-1.226,3.71
		c-0.888,0.514-1.08,1.298-0.875,2.238c-0.055,0.585-0.11,1.169-0.166,1.755c-1.44,1.167-1.157,2.696-0.887,4.222
		c-0.026,0.564-0.053,1.129-0.08,1.694c-0.425,0.711-0.85,1.421-1.274,2.131c-3.744-6.19-1.729-11.771,1.267-17.635
		c2.149-4.207,3.248-8.962,4.684-13.515c0.444-1.41,0.558-3.098-0.291-4.352c-1.81-2.676-1.758-5.317-0.131-7.887
		C131.862,59.267,130.292,57.103,130.385,54.866z"/>
	<path fill-rule="evenodd" clip-rule="evenodd" fill="#224688" d="M190.935,112.941c0.032,0.729,0.065,1.458,0.099,2.188
		c-0.056,0.318-0.134,0.63-0.234,0.937c-1.478,2.995-0.744,6.198-0.675,9.275c0.209,9.222-0.902,18.479,0.649,27.666
		c0.112,1.392-0.331,2.505-1.607,3.199c-0.588-3.038-0.625-6.006-0.379-9.16c0.423-5.413,1.367-11.129-1.914-16.2
		c-0.342-1.85-1.451-3.359-1.88-5.3c-1.544-6.999-3.698-8.346-11.22-8.649c1.834-3.311,4.999-1.292,7.51-1.899
		c2.627-0.635,6.018,1.594,7.848-2.058C189.732,112.94,190.333,112.94,190.935,112.941z"/>
	<path fill-rule="evenodd" clip-rule="evenodd" fill="#224688" d="M124.855,104.989c0.424-0.71,0.849-1.42,1.274-2.131
		c1.448,0.506,2.76-1.22,4.734,1.037c1.706,1.951,4.869-1.19,5.951-3.765c1.422-3.387,3.791-5.639,6.907-7.301
		c0.504,1.407-1.158,2.973,0.316,4.308c-0.073,0.564-0.146,1.13-0.221,1.695c-1.963,1.507-3.999,2.928-5.867,4.545
		c-1.8,1.558-2.646,3.44-0.923,5.655c0.035,0.745,0.07,1.489,0.104,2.234c-0.741,1.916-0.594,4.132-1.967,5.835
		c-2.7-0.604-2.472-3.079-3.171-4.961c-0.844-5.649-5.086-2.338-7.833-2.97c0,0-0.314-0.326-0.315-0.326
		C124.182,107.56,124.519,106.274,124.855,104.989z"/>
	<path fill-rule="evenodd" clip-rule="evenodd" fill="#4774B9" d="M189.131,112.939c-1.83,3.652-5.221,1.422-7.848,2.058
		c-2.511,0.607-5.676-1.411-7.509,1.899c-2.094,0.494-2.435,2.467-3.353,3.961c-3.507,5.709-2.072,12.139-2.687,18.271
		c-1.796-3.89-0.002-8.529-2.561-12.26c-0.03-2.498-0.021-4.998-0.099-7.494c-0.133-4.304,1.644-6.518,6.222-6.337
		c4.156,0.165,8.328,0.004,12.49-0.099c1.566-0.039,3.473,0.519,4.191-1.704C188.999,111.374,188.853,112.3,189.131,112.939z"/>
	<path fill-rule="evenodd" clip-rule="evenodd" fill="#8BBFE4" d="M187.979,111.234c-0.719,2.223-2.625,1.665-4.191,1.704
		c-4.162,0.104-8.334,0.264-12.49,0.099c-4.578-0.181-6.354,2.033-6.222,6.337c0.077,2.497,0.068,4.996,0.099,7.495
		c-0.078,9.405-0.155,18.81-0.232,28.214c-0.277-0.045-0.556-0.087-0.834-0.125c-0.08-1.313-0.16-2.624-0.239-3.937
		c0.086-12.679,0.172-25.357,0.259-38.037c0.366-0.565,0.732-1.13,1.102-1.697C172.813,110.722,180.396,110.965,187.979,111.234z"/>
	<path fill-rule="evenodd" clip-rule="evenodd" fill="#224688" d="M129.362,89.239c1.486-5.569,3.366-11.002,5.653-16.294
		C136.121,77.084,132.608,87.207,129.362,89.239z"/>
	<path fill-rule="evenodd" clip-rule="evenodd" fill="#224688" d="M126.209,101.164c-0.271-1.526-0.554-3.055,0.887-4.222
		C128.368,98.678,128.448,100.165,126.209,101.164z"/>
	<path fill-rule="evenodd" clip-rule="evenodd" fill="#224688" d="M127.262,95.188c-0.206-0.94-0.014-1.725,0.875-2.238
		C129.164,94.211,128.422,94.781,127.262,95.188z"/>
	<path fill-rule="evenodd" clip-rule="evenodd" fill="#8BBFE4" d="M189.166,156.206c1.276-0.694,1.72-1.808,1.607-3.2
		c0.473-12.313,0.498-24.626,0.025-36.94c0.101-0.307,0.179-0.619,0.234-0.937c1.682,0.507,0.326,2.64,1.757,3.283
		c-1.218,1.408-0.671,3.036-0.574,4.608c-0.015,0.643-0.028,1.286-0.042,1.93c-0.003,1.377-0.005,2.753-0.007,4.129
		c-0.075,7.495-0.232,14.99-0.18,22.484c0.018,2.532-0.275,4.957-0.963,7.363c-1.583,0.189-1.193-1.471-1.938-2.066
		C189.181,156.65,189.207,156.432,189.166,156.206z"/>
	<path fill-rule="evenodd" clip-rule="evenodd" fill="#46578E" d="M192.167,129.078c0.002-1.376,0.004-2.752,0.007-4.129
		C193.291,126.326,193.238,127.703,192.167,129.078z"/>
	<path fill-rule="evenodd" clip-rule="evenodd" fill="#46578E" d="M192.216,123.019c-0.097-1.572-0.644-3.2,0.574-4.608
		C192.986,119.995,193.276,121.591,192.216,123.019z"/>
	<path fill-rule="evenodd" clip-rule="evenodd" fill="#2654A1" d="M188.833,162.906c1.793,1.814-0.688,3.278-0.412,4.86
		c0.333,1.908-0.197,4.387,2.489,5.228c-0.771,3.274-1.344,6.561-0.588,9.925c0.684,5.554-4.136,9.126-5.078,14.095
		c-0.458,1.247-1.02,2.416-2.264,3.085c-0.321-0.041-0.645-0.063-0.969-0.063c-1.854-3.114-1.038-6.339-0.374-9.549
		c1.063-5.139,2.512-10.221,2.235-15.551c0.052-3.318,2.668-6.097,1.738-9.757C185.247,163.744,187.238,162.987,188.833,162.906z"/>
	<path fill-rule="evenodd" clip-rule="evenodd" fill="#333850" d="M182.98,200.099c1.244-0.669,1.806-1.838,2.264-3.085
		c1.157-0.035,2.387-2.316,3.451,0.397c1.876,4.78-1.89,11.124-7.058,11.544C182.455,206.06,183.135,203.143,182.98,200.099z"/>
	<path fill-rule="evenodd" clip-rule="evenodd" fill="#4774B9" d="M188.833,162.906c-1.595,0.081-3.586,0.838-3.222,2.272
		c0.93,3.66-1.687,6.438-1.738,9.757c-2.919,2.361-3.394,6.147-3.577,9.166c-0.219,3.612-1.852,6.891-1.57,10.603
		c0.241,3.17-3.062,2.754-4.386,1.951c-5.146-3.122-7.414,0.63-8.432,4.014c-1.663,5.53-6.755,8.845-8.107,14.58
		c-0.715,3.032-3.834,2.032-5.602,0.241c-1.362-1.38-2.426-3.213-3.144-5.033c-1.242-3.147-1.539-6.998-6.7-4.128
		c-1.176,0.653-3.237-1.206-3.528-2.907c-0.609-3.553-2.884-6.285-4.338-9.38c-2.032-4.328-2.074-7.438,1.714-10.95
		c4.594-4.261,5.142-15.163,1.487-20.354c-2.597-3.689-0.066-3.69,2.47-3.894c-0.001,0.001-0.095,0.299-0.095,0.299
		c0.607,0.668,1.214,1.336,1.821,2.003c0.475,3.222,2.811,5.901,2.254,9.494c-1.444,9.318,1.135,17.267,8.182,23.855
		c3.094,2.893,8.017,3.854,9.828,0.704c3.287-5.719,6.01-11.758,9.157-17.562c2.913-5.373,0.154-13.385,7.723-16.567
		c2.972-0.556,6.167,0.83,8.99-1.031C189.033,160.784,188.994,161.828,188.833,162.906z"/>
	<path fill-rule="evenodd" clip-rule="evenodd" fill="#27326F" d="M157.626,115.142c0.169,0.676,0.339,1.352,0.508,2.026
		c-0.066,2.566-0.133,5.134-0.199,7.701c-1.695,6.75-1.612,13.505-0.051,20.264c0.012,1.997,0.051,3.994,0.025,5.991
		c-0.016,1.274,0.317,2.779-1.794,2.802c-1.536,0.017-3.178,0.156-3.858-1.532c-0.614-1.521-0.788-3.213-1.267-4.796
		c-1.782-5.899-2.508-12.147-5.804-18.958c-0.335,6.666-1.076,11.841,0.621,17.186c1.884,5.933,0.38,7.993-4.688,8.352
		c-2.354-2.794-0.877-6.069-1.148-9.126c1.684-7.341,1.648-14.682,0.015-22.024l-0.02-0.033c0.126-2.639,0.253-5.278,0.38-7.917
		c1.464-0.021,2.928-0.042,4.394-0.062c0.342,0.698,0.682,1.396,1.021,2.093c0.096,2.839,0.809,5.519,2.083,8.054
		c0.469,3.78,0.924,7.563,3.14,10.837c0.794,0.046,1.12-0.354,1.067-1.117c-0.018-1.895-0.035-3.791-0.053-5.686
		c-0.007-0.806-0.013-1.612-0.019-2.418c-0.027-0.507-0.056-1.015-0.083-1.521c-0.254-2.695-0.509-5.39-0.764-8.085
		c1.131-0.294,1.856-1.016,2.228-2.111C154.782,115.088,156.204,115.115,157.626,115.142z"/>
	<path fill-rule="evenodd" clip-rule="evenodd" fill="#2654A1" d="M131.992,112.141c0.7,1.882,0.471,4.358,3.172,4.961
		c0.796,1.882,1.009,3.833,0.694,5.846c-0.828,0.22-1.726,0.572-1.732,1.506c-0.064,10.184-0.066,20.367-0.085,30.55
		c-0.017,0.977-0.033,1.953-0.049,2.93c-4.297,0.953-8.622,0.422-12.941,0.24c-0.033-0.371-0.065-0.741-0.098-1.112
		c0.237-1.643,1.402-2.028,2.799-1.978c2.025,0.074,2.345-1.207,2.342-2.795c0.554-0.993,1.108-1.987,1.662-2.981
		c0.255,1.016,1.051,2.357,1.814,1.138c1.816-2.904,2.698-6.171,0.427-9.41c-1.234-3.001-2.753-5.728-0.958-9.314
		c3.867-7.725-0.708-14.72-9.27-14.719c-2.828,0-5.655-0.07-8.483-0.109l-0.415,0.076c0.035-2.055,1.665-1.858,2.979-2.109
		c3.019-0.231,6.199,1.098,9.026-0.946c0.77-0.621,1.54-1.243,2.309-1.865C127.454,112.079,129.723,112.11,131.992,112.141z"/>
	<path fill-rule="evenodd" clip-rule="evenodd" fill="#8BBFE4" d="M121.051,158.174c4.319,0.182,8.644,0.713,12.941-0.24
		c-0.145,3.88-3.167,2.7-5.384,3.233c-2.525,0.608-5.901-2.146-7.583,1.835l-0.211-0.119c-5.248,0.249-7.398,2.55-7.271,7.905
		c0.022,0.936,0.754,2.161-0.495,2.542c-1.453,0.442-1.807-1.057-2.383-2.009c-0.884-1.461-0.347-3.805-2.704-4.349
		c-0.072-0.869-0.159-1.729-1.271-1.904c-0.033-1.226-0.067-2.45-0.102-3.674c1.266-2.026-1.078-4.394,0.6-6.382
		c0.301-0.004,0.588-0.066,0.864-0.188c2.018-1.069,0.861-2.912,0.881-4.32c0.136-9.453,0.053-18.908,0.13-28.362
		c0.015-1.864-0.721-4.129,1.807-5.173c0,0,0.416-0.076,0.416-0.075c-0.076,2.025-0.152,4.05-0.228,6.075
		c1.764,7.28,0.639,14.68,0.918,22.021l0.011-0.011c-1.589,2.651-1.601,5.295,0.04,7.931c4.694-0.089,9.422,0.579,14.067-0.622
		c0.003,1.588-0.317,2.869-2.342,2.795c-1.397-0.051-2.562,0.335-2.798,1.978c-3.823-0.248-7.63-0.29-11.356,1.004
		C113.418,158.78,117.209,160.091,121.051,158.174z"/>
	<path fill-rule="evenodd" clip-rule="evenodd" fill="#5398D2" d="M157.935,124.869c0.066-2.567,0.133-5.134,0.199-7.701
		c3.272-0.179,2.677,2.34,2.723,4.153c0.174,6.784,0.183,13.573,0.305,20.359c0.032,1.789-0.349,3.667,0.793,5.302
		c-0.026,0.328-0.054,0.657-0.08,0.985c-1.61,1.467-0.62,3.343-0.792,5.035c0.336,3.217-1.149,4.266-4.289,4.111
		c-5.245-0.259-10.508-0.186-15.763-0.252c0.03-0.895,0.06-1.789,0.09-2.684c5.067-0.358,6.571-2.419,4.688-8.352
		c-1.697-5.345-0.956-10.52-0.621-17.186c3.296,6.811,4.021,13.058,5.804,18.958c0.479,1.583,0.652,3.275,1.267,4.796
		c0.681,1.688,2.322,1.549,3.858,1.532c2.111-0.022,1.778-1.527,1.794-2.802c0.025-1.997-0.014-3.994-0.024-5.991
		C157.902,138.379,157.918,131.624,157.935,124.869z"/>
	<path fill-rule="evenodd" clip-rule="evenodd" fill="#2654A1" d="M124.923,196.985c-2.301-7.531-4.949-14.999-4.159-23.086
		c0.018-3.672,0.034-7.345,0.05-11.017l0.211,0.119c5.021-0.658,6.524,1.421,7.291,6.556c1.325,8.873-0.797,17.838,1.457,26.583
		c0.256,0.993,0.08,2.036-1.039,2.505C126.922,199.404,126.092,197.776,124.923,196.985z"/>
	<path fill-rule="evenodd" clip-rule="evenodd" fill="#8BBFE4" d="M135.858,122.948c0.314-2.014,0.102-3.964-0.694-5.846
		c1.373-1.703,1.226-3.918,1.966-5.834c7.548-0.078,15.097-0.156,22.646-0.235c0.06,0.66,0.118,1.32,0.179,1.98
		c-5.485-0.031-10.971-0.116-16.455-0.062c-1.693,0.017-3.813-0.708-4.648,1.749l0.065,0.223c-2.715,0.581-1.839,2.81-1.858,4.425
		c-0.121,10.086-0.102,20.174-0.173,30.261c-0.013,1.788,0.349,3.654-0.705,5.316C136.074,144.267,135.966,133.607,135.858,122.948z
		"/>
	<path fill-rule="evenodd" clip-rule="evenodd" fill="#2654A1" d="M141.03,156.861c5.255,0.066,10.518-0.007,15.763,0.252
		c3.14,0.154,4.625-0.895,4.289-4.111c1.009,0.652,2.018,1.304,3.025,1.956c0.279,0.039,0.558,0.081,0.836,0.126
		c3.451,3.388,6.809,2.18,10.142-0.208c0.324,0.095,0.648,0.188,0.974,0.283c-0.01,0.227-0.019,0.453-0.028,0.68
		c-0.003,1.039-0.007,2.079-0.011,3.119c-3.646,0.067-7.293,0.135-10.939,0.202c-1.07-0.9-1.86-3.805-3.507-0.424
		c-0.441,0.907-1.393,1.271-2.446,1.15c-6.297-1.71-12.71-0.432-19.062-0.744c0,0,0.094-0.298,0.095-0.299
		C140.451,158.182,140.741,157.521,141.03,156.861z"/>
	<path fill-rule="evenodd" clip-rule="evenodd" fill="#27326F" d="M135.858,122.948c0.107,10.659,0.215,21.319,0.323,31.977
		c-0.714,0.025-1.427,0.053-2.14,0.079c0.02-10.184,0.021-20.367,0.085-30.55C134.132,123.52,135.03,123.168,135.858,122.948z"/>
	<path fill-rule="evenodd" clip-rule="evenodd" fill="#2654A1" d="M139.987,123.028c1.633,7.342,1.669,14.683-0.015,22.024
		C139.977,137.71,139.982,130.369,139.987,123.028z"/>
	<path fill-rule="evenodd" clip-rule="evenodd" fill="#2654A1" d="M146.932,225.178c1.379-0.017,2.149,0.777,2.427,2.011
		c0.304,1.354-0.633,1.712-1.717,1.749c-1.262,0.044-2.333-0.302-2.435-1.812C145.128,225.941,145.752,225.294,146.932,225.178z"/>
	<path fill-rule="evenodd" clip-rule="evenodd" fill="#2654A1" d="M140.347,115.078c-0.126,2.639-0.253,5.278-0.38,7.917
		c-1.869-2.494-0.661-5.387-1.049-8.072l-0.065-0.223C139.351,114.826,139.849,114.952,140.347,115.078z"/>
	<path fill-rule="evenodd" clip-rule="evenodd" fill="#3D65B0" d="M115.017,194.995c2.802,1.554,4.539,3.842,4.881,7.09
		C116.389,201.017,115.976,197.817,115.017,194.995z"/>
	<path fill-rule="evenodd" clip-rule="evenodd" fill="#3D65B0" d="M111.188,186.901c2.347,1.372,3.893,3.125,2.891,6.088
		C112.374,191.312,111.374,189.3,111.188,186.901z"/>
	<path fill-rule="evenodd" clip-rule="evenodd" fill="#3D65B0" d="M109.231,180.893c1.088,0.324,1.682,1.024,1.663,2.19
		C109.739,182.808,109.133,182.117,109.231,180.893z"/>
	<path fill-rule="evenodd" clip-rule="evenodd" fill="#2654A1" d="M189.166,156.206c0.041,0.226,0.015,0.444-0.079,0.653
		c-1.056-0.008-2.112-0.015-3.168-0.02c-0.207-2.996,1.031-6.146-0.957-8.952c0.815-2.947,1.688-5.899,1.34-9.004
		c-0.305-2.726-0.992-5.455,0.571-8.038c3.281,5.071,2.337,10.787,1.914,16.2C188.541,150.2,188.578,153.168,189.166,156.206z"/>
	<path fill-rule="evenodd" clip-rule="evenodd" fill="#3D65B0" d="M184.962,147.888c1.988,2.806,0.75,5.956,0.957,8.952
		c-3.31-0.203-6.766,1.05-9.889-1c0.01-0.228,0.019-0.454,0.028-0.681C179.71,153.572,182.745,151.231,184.962,147.888z"/>
	<path fill-rule="evenodd" clip-rule="evenodd" fill="#8BBFE4" d="M165.08,159.16c3.646-0.067,7.293-0.135,10.939-0.202
		c3.962,0.788,8.146-0.904,12.001,1.081c-2.823,1.861-6.019,0.476-8.99,1.03c-3.139-0.016-6.278,0.033-9.413-0.073
		C167.929,160.938,165.808,161.69,165.08,159.16z"/>
	<path fill-rule="evenodd" clip-rule="evenodd" fill="#5398D2" d="M120.814,162.883c-0.016,3.672-0.033,7.345-0.05,11.017
		c-1.956,1.404-4.312,2.26-2.672,5.78c0.683,1.467-0.796,3.968-1.368,5.976c-0.193,0.68-0.77,1.067-1.531,0.85
		c-0.966-0.276-0.9-1.24-1.27-1.938c-2.352-4.443-3.157-9.62-6.454-13.611c0.003-0.563,0.008-1.126,0.015-1.689
		c0.161-0.765,0.319-1.528,0.478-2.293c2.357,0.544,1.82,2.888,2.704,4.349c0.576,0.952,0.93,2.451,2.383,2.009
		c1.249-0.381,0.518-1.606,0.495-2.542C113.416,165.433,115.566,163.132,120.814,162.883z"/>
	<path fill-rule="evenodd" clip-rule="evenodd" fill="#4774B9" d="M107.961,166.973c-0.159,0.765-0.317,1.528-0.478,2.293
		c-1.833-1.104-2.066-2.51-0.792-4.198C107.802,165.243,107.889,166.104,107.961,166.973z"/>
	<path fill-rule="evenodd" clip-rule="evenodd" fill="#27326F" d="M131.992,112.141c-2.269-0.031-4.539-0.062-6.808-0.091
		c-0.414-0.389-0.827-0.779-1.241-1.169c0.071-0.571,0.143-1.141,0.215-1.711C126.906,109.803,131.148,106.492,131.992,112.141z"/>
	<path fill-rule="evenodd" clip-rule="evenodd" fill="#8BBFE4" d="M122.875,113.914c-2.827,2.044-6.007,0.715-9.026,0.946
		C116.533,111.451,119.724,112.873,122.875,113.914z"/>
	<path fill-rule="evenodd" clip-rule="evenodd" fill="#4774B9" d="M143.816,98.833c0.074-0.565,0.147-1.131,0.221-1.695
		c1.566,1.953,3.717,2.078,5.963,1.905c0.368,3.079-2.423,2.972-4.061,4.027C144.9,101.824,144.016,100.5,143.816,98.833z"/>
	<path fill-rule="evenodd" clip-rule="evenodd" fill="#2654A1" d="M143.816,98.833c0.199,1.667,1.084,2.991,2.123,4.237
		c0.051,1.933,0.103,3.865,0.152,5.797c-3.022,0.056-6.044,0.11-9.065,0.166c-1.723-2.215-0.876-4.098,0.923-5.655
		C139.817,101.761,141.854,100.34,143.816,98.833z"/>
	<path fill-rule="evenodd" clip-rule="evenodd" fill="#27326F" d="M161.874,147.967c0.026-0.328,0.054-0.657,0.08-0.985
		c0.067-0.329,0.134-0.657,0.201-0.985c1-1.663,1.003-3.32-0.036-4.97c-0.057-7.471-0.104-14.942-0.177-22.414
		c-0.021-2.182-0.077-4.347,2.185-5.628c-0.086,12.68-0.172,25.359-0.258,38.037C163.204,150.003,162.539,148.984,161.874,147.967z"
		/>
	<path fill-rule="evenodd" clip-rule="evenodd" fill="#27326F" d="M137.026,109.033c3.021-0.055,6.043-0.11,9.065-0.166
		c3.487,0.055,6.975,0.07,10.459,0.185c1.392,0.045,3.211-0.392,3.228,1.981c-7.551,0.078-15.1,0.156-22.648,0.234
		C137.096,110.522,137.062,109.778,137.026,109.033z"/>
	<path fill-rule="evenodd" clip-rule="evenodd" fill="#5398D2" d="M140.347,115.078c-0.498-0.126-0.996-0.251-1.495-0.377
		c0.835-2.457,2.955-1.731,4.648-1.749c5.484-0.054,10.97,0.03,16.455,0.062c1.371,3.051-1.45,1.528-2.326,2.129
		c-1.425-0.027-2.847-0.054-4.272-0.081c-2.875-0.015-5.746-0.031-8.618-0.046C143.274,115.036,141.811,115.057,140.347,115.078z"/>
	<path fill-rule="evenodd" clip-rule="evenodd" fill="#224688" d="M162.119,141.026c1.039,1.649,1.036,3.307,0.036,4.97
		C162.144,144.339,162.132,142.683,162.119,141.026z"/>
	<path fill-rule="evenodd" clip-rule="evenodd" fill="#27326F" d="M184.962,147.888c-2.217,3.344-5.252,5.685-8.903,7.271
		c-0.325-0.095-0.649-0.188-0.974-0.282c-3.246-4.878-8.119-8.996-7.35-15.749c0.614-6.131-0.82-12.562,2.687-18.271
		c0.918-1.494,1.259-3.467,3.353-3.961c7.521,0.303,9.675,1.651,11.219,8.649c0.429,1.941,1.538,3.45,1.88,5.3
		c-1.563,2.583-0.876,5.311-0.571,8.037C186.649,141.988,185.777,144.94,184.962,147.888z M173.141,140.733
		c0.303,2.009,0.583,4.094,3.251,4.206c2.604,0.11,3.27-2.043,3.893-3.863c1.265-3.695,0.753-7.562,0.611-11.363
		c-0.09-2.407-0.615-4.868-3.55-5.185c-3.155-0.341-2.666,2.611-3.434,4.385c-1.066,0.027-1.944,0.234-1.913,1.611
		C172.077,133.962,171.57,137.463,173.141,140.733z"/>
	<path fill-rule="evenodd" clip-rule="evenodd" fill="#46578E" d="M190.799,116.065c0.473,12.314,0.447,24.628-0.025,36.94
		c-1.552-9.187-0.44-18.443-0.649-27.665C190.055,122.264,189.321,119.06,190.799,116.065z"/>
	<path fill-rule="evenodd" clip-rule="evenodd" fill="#5398D2" d="M167.735,139.128c-0.77,6.752,4.104,10.871,7.35,15.749
		c-3.333,2.387-6.69,3.595-10.142,0.207c0.076-9.404,0.153-18.809,0.231-28.214C167.733,130.599,165.939,135.238,167.735,139.128z"
		/>
	<path fill-rule="evenodd" clip-rule="evenodd" fill="#224688" d="M161.874,147.967c0.665,1.018,1.33,2.036,1.995,3.055
		c0.079,1.313,0.159,2.625,0.239,3.938c-1.009-0.653-2.018-1.305-3.026-1.957C161.254,151.31,160.264,149.434,161.874,147.967z"/>
	<path fill-rule="evenodd" clip-rule="evenodd" fill="#5398D2" d="M165.08,159.16c0.728,2.53,2.849,1.778,4.537,1.836
		c3.135,0.106,6.274,0.058,9.413,0.073c-7.568,3.184-4.81,11.195-7.723,16.568c-3.147,5.804-5.87,11.843-9.157,17.562
		c-1.812,3.15-6.734,2.188-9.828-0.704c-7.047-6.589-9.626-14.537-8.182-23.855c0.557-3.593-1.779-6.272-2.254-9.495
		c1.791-0.025,3.6,0.104,5.368-0.106c3.95-0.469,8.124,1.332,11.872-1.151c1.054,0.12,2.005-0.243,2.446-1.15
		C163.22,155.355,164.01,158.26,165.08,159.16z"/>
	<path fill-rule="evenodd" clip-rule="evenodd" fill="#8BBFE4" d="M159.127,159.887c-3.748,2.483-7.922,0.683-11.872,1.151
		c-1.769,0.21-3.577,0.081-5.368,0.106c-0.607-0.666-1.214-1.334-1.821-2.002C146.417,159.455,152.83,158.177,159.127,159.887z"/>
	<path fill-rule="evenodd" clip-rule="evenodd" fill="#4774B9" d="M151.133,117.172c0.255,2.695,0.51,5.39,0.764,8.083
		c-1.372,0.904-2.627-3.436-4.053-0.093c-1.274-2.535-1.987-5.214-2.083-8.055C147.552,117.128,149.343,117.15,151.133,117.172z"/>
	<path fill-rule="evenodd" clip-rule="evenodd" fill="#5398D2" d="M147.844,125.162c1.426-3.343,2.681,0.997,4.053,0.093
		c0.027,0.509,0.056,1.017,0.082,1.526c-1.801,0.821-1.744,1.625,0.02,2.416c0.018,1.895,0.035,3.791,0.053,5.688
		c-0.355,0.373-0.712,0.744-1.067,1.115C148.768,132.726,148.313,128.942,147.844,125.162z"/>
	<path fill-rule="evenodd" clip-rule="evenodd" fill="#8BBFE4" d="M157.935,124.869c-0.017,6.755-0.032,13.51-0.05,20.264
		C156.322,138.374,156.239,131.619,157.935,124.869z"/>
	<path fill-rule="evenodd" clip-rule="evenodd" fill="#3D65B0" d="M151.133,117.172c-1.79-0.022-3.581-0.044-5.372-0.065
		c-0.339-0.696-0.679-1.394-1.021-2.092c2.87,0.015,5.741,0.031,8.616,0.046C152.989,116.157,152.264,116.878,151.133,117.172z"/>
	<path fill-rule="evenodd" clip-rule="evenodd" fill="#4774B9" d="M151.998,129.197c-1.764-0.791-1.82-1.594-0.02-2.416
		C151.985,127.585,151.991,128.391,151.998,129.197z"/>
	<path fill-rule="evenodd" clip-rule="evenodd" fill="#4774B9" d="M150.983,135.999c0.355-0.371,0.712-0.742,1.067-1.115
		C152.104,135.646,151.777,136.045,150.983,135.999z"/>
	<path fill-rule="evenodd" clip-rule="evenodd" fill="#27326F" d="M126.095,152.289c-4.645,1.201-9.373,0.533-14.066,0.622
		c-0.013-2.643-0.027-5.287-0.041-7.931l-0.011,0.011c1.853-6.866,1.032-13.799,0.443-20.715c-0.041-0.471-0.889-0.873-1.361-1.307
		c0.076-2.025,0.151-4.05,0.228-6.075c2.828,0.038,5.656,0.108,8.483,0.108c8.562-0.001,13.136,6.994,9.27,14.719
		c-1.795,3.586-0.276,6.313,0.958,9.314c0.124,2.993,0.122,5.952-2.241,8.272C127.203,150.302,126.648,151.296,126.095,152.289z
		 M124.923,126.867c-2.747-4.709-5.135-5.26-7.696-1.774c-0.025,1.988-0.051,3.976-0.076,5.963c-0.058,3.313,2.32,1.533,3.729,1.784
		C124.082,132.104,125.211,129.965,124.923,126.867z M123.803,137.188c-0.825-0.111-1.657-0.344-2.475-0.305
		c-1.389,0.066-3.686-2.357-3.965,0.423c-0.242,2.409-2.308,5.783,1.524,7.577C124.804,144.587,126.604,141.771,123.803,137.188z"/>
	<path fill-rule="evenodd" clip-rule="evenodd" fill="#224688" d="M121.051,158.174c-3.842,1.917-7.633,0.606-11.454-0.108
		c3.726-1.294,7.533-1.252,11.356-1.004C120.986,157.433,121.019,157.803,121.051,158.174z"/>
	<path fill-rule="evenodd" clip-rule="evenodd" fill="#8BBFE4" d="M127.756,149.308c2.363-2.32,2.365-5.279,2.241-8.272
		c2.271,3.239,1.39,6.506-0.427,9.41C128.808,151.665,128.012,150.323,127.756,149.308z"/>
	<path fill-rule="evenodd" clip-rule="evenodd" fill="#5398D2" d="M111.059,122.97c0.473,0.434,1.321,0.836,1.361,1.307
		c0.589,6.916,1.41,13.849-0.443,20.715C111.698,137.65,112.823,130.25,111.059,122.97z"/>
	<path fill-rule="evenodd" clip-rule="evenodd" fill="#5398D2" d="M111.988,144.98c0.014,2.644,0.028,5.288,0.041,7.931
		C110.387,150.275,110.399,147.632,111.988,144.98z"/>
	<path fill-rule="evenodd" clip-rule="evenodd" fill="#4774B9" d="M173.912,128.913c0.768-1.774,0.278-4.726,3.434-4.385
		c2.935,0.317,3.46,2.778,3.55,5.185c0.142,3.802,0.653,7.668-0.611,11.363c-0.623,1.82-1.288,3.974-3.893,3.863
		c-2.668-0.112-2.948-2.197-3.251-4.205C174.533,136.869,173.732,132.859,173.912,128.913z"/>
	<path fill-rule="evenodd" clip-rule="evenodd" fill="#8BBFE4" d="M173.912,128.913c-0.18,3.946,0.621,7.956-0.771,11.821
		c-1.57-3.271-1.063-6.772-1.142-10.21C171.968,129.147,172.846,128.94,173.912,128.913z"/>
	<path fill-rule="evenodd" clip-rule="evenodd" fill="#3D65B0" d="M123.803,137.188c2.801,4.583,1.001,7.399-4.915,7.695
		C117.865,140.617,121.406,139.269,123.803,137.188z"/>
	<path fill-rule="evenodd" clip-rule="evenodd" fill="#8BBFE4" d="M123.803,137.188c-2.396,2.081-5.938,3.429-4.915,7.695
		c-3.833-1.794-1.767-5.168-1.524-7.577c0.279-2.78,2.576-0.357,3.965-0.423C122.146,136.844,122.978,137.077,123.803,137.188z"/>
	<path fill-rule="evenodd" clip-rule="evenodd" fill="#4774B9" d="M120.879,132.84c-1.407-0.25-3.786,1.529-3.728-1.785
		c2.707-0.033,1.013-4.249,3.903-4.107c0.404,0.075,0.808,0.149,1.212,0.224C121.804,129.061,121.341,130.951,120.879,132.84z"/>
	<path fill-rule="evenodd" clip-rule="evenodd" fill="#6979BB" d="M122.267,127.171c-0.404-0.075-0.808-0.149-1.213-0.223
		c-0.458-2.303-2.229-1.9-3.826-1.855c2.561-3.486,4.949-2.935,7.696,1.774C124.038,126.969,123.152,127.07,122.267,127.171z"/>
	<path fill-rule="evenodd" clip-rule="evenodd" fill="#8BBFE4" d="M117.228,125.093c1.597-0.045,3.367-0.448,3.826,1.855
		c-2.889-0.142-1.195,4.074-3.902,4.107C117.177,129.069,117.202,127.081,117.228,125.093z"/>
	<path fill-rule="evenodd" clip-rule="evenodd" fill="#2654A1" d="M122.267,127.171c0.885-0.101,1.771-0.202,2.657-0.304
		c0.288,3.098-0.842,5.237-4.044,5.973C121.341,130.951,121.804,129.061,122.267,127.171z"/>
</g>
</svg>
