<?xml version="1.0" encoding="utf-8"?>
<!-- Generator: Adobe Illustrator 16.0.0, SVG Export Plug-In . SVG Version: 6.00 Build 0)  -->
<!DOCTYPE svg PUBLIC "-//W3C//DTD SVG 1.1//EN" "http://www.w3.org/Graphics/SVG/1.1/DTD/svg11.dtd">
<svg version="1.1" id="Layer_1" xmlns="http://www.w3.org/2000/svg" xmlns:xlink="http://www.w3.org/1999/xlink" x="0px" y="0px"
	 width="280px" height="280px" viewBox="0 0 280 280" enable-background="new 0 0 280 280" xml:space="preserve">
<g>
	<path fill-rule="evenodd" clip-rule="evenodd" fill="#0F9C49" d="M139.599,49.749c45.573,0,91.145,0.003,136.718-0.022
		c0.883,0,1.039,0.17,1.039,0.934c-0.025,56.435-0.025,112.87-0.001,169.304c0,0.744-0.12,0.944-1.026,0.944
		c-91.11-0.025-182.22-0.023-273.331,0c-0.925,0-1.092-0.187-1.092-0.981c0.025-56.436,0.024-112.87,0.005-169.305
		c0-0.689,0.125-0.895,0.969-0.894C48.453,49.751,94.026,49.749,139.599,49.749z M139.636,70.573c-0.444,0.244-0.87,0.472-1.29,0.71
		c-37.314,21.151-74.628,42.301-111.942,63.453c-1.028,0.583-1.027,0.582,0.026,1.178C63.714,157.049,101,178.18,138.267,199.337
		c0.994,0.564,1.658,0.624,2.709,0.027c34.67-19.697,69.366-39.356,104.059-59.022c2.656-1.506,5.299-3.035,7.982-4.504
		c0.822-0.45,0.739-0.711-0.034-1.042c-0.097-0.041-0.184-0.101-0.274-0.152c-20.684-11.724-41.366-23.447-62.05-35.172
		c-16.727-9.481-33.453-18.965-50.181-28.446C140.209,70.873,139.933,70.731,139.636,70.573z"/>
	<path fill-rule="evenodd" clip-rule="evenodd" fill="#FDE000" d="M139.636,70.573c0.297,0.159,0.573,0.3,0.841,0.453
		c16.728,9.481,33.454,18.965,50.181,28.446c20.684,11.725,41.366,23.448,62.05,35.172c0.091,0.051,0.178,0.111,0.274,0.152
		c0.773,0.33,0.856,0.591,0.034,1.042c-2.684,1.469-5.326,2.999-7.982,4.504c-34.692,19.666-69.389,39.325-104.059,59.022
		c-1.051,0.597-1.715,0.537-2.709-0.027C101,178.18,63.714,157.049,26.431,135.913c-1.053-0.596-1.054-0.595-0.026-1.178
		c37.314-21.151,74.627-42.302,111.942-63.453C138.767,71.044,139.192,70.816,139.636,70.573z M95.63,117.963
		c-1.191,2.096-1.976,4.321-2.637,6.584c-1.745,6.126-2.046,12.292-0.729,18.517c2.158,10.2,7.698,18.692,16.73,25.224
		c11.511,8.324,24.777,11.562,39.368,9.012c18.701-3.269,31.037-13.276,37.26-29.248c0.832-2.209,1.387-4.475,1.721-6.784
		c0.574-3.706,0.616-7.405,0.1-11.125c-1.262-9.077-5.27-17.084-12.324-23.706c-12.24-11.488-27.33-15.839-44.846-13.052
		c-9.649,1.535-17.921,5.64-24.843,11.822C101.275,108.916,97.954,113.141,95.63,117.963z"/>
	<path fill-rule="evenodd" clip-rule="evenodd" fill="#263271" d="M185.622,148.052c-6.223,15.972-18.559,25.979-37.26,29.248
		c-14.591,2.55-27.857-0.688-39.368-9.012c-9.033-6.531-14.573-15.023-16.73-25.224c-1.317-6.225-1.016-12.39,0.729-18.517
		c3.357-0.454,6.72-0.859,10.108-1.111c9.872-0.734,19.664-0.254,29.397,1.353c12.504,2.066,24.228,5.983,35.205,11.672
		C174.119,139.787,180.063,143.687,185.622,148.052z M141.468,153.971c-1.276-0.027-1.276-0.027-1.916-1.19
		c-0.098,0.989-0.714,1.318-1.743,1.254c1.124,0.389,0.989,1.111,0.698,1.899c0.492-0.194,0.704-0.559,1.123-0.579
		c0.447-0.022,0.625,0.468,1.072,0.499C140.49,154.738,140.49,154.738,141.468,153.971z M175.255,149.771
		c-1.335,0.436-1.542-0.41-1.964-1.39c-0.061,1.207-0.598,1.593-1.696,1.448c1.104,0.409,0.995,1.115,0.759,1.956
		c0.722-0.981,1.416-0.592,2.17-0.094C174.082,150.873,174.221,150.261,175.255,149.771z M104.506,143.939
		c-0.072,1.019-0.721,1.263-1.759,1.177c0.953,0.429,1.146,1.026,0.682,1.867c0.744-0.639,1.454-0.66,2.24-0.045
		c-0.578-0.875-0.044-1.373,0.649-1.869C105.209,145.315,104.778,144.795,104.506,143.939z M120.313,156.322
		c-0.233,0.868-0.716,1.364-1.826,1.213c1.088,0.385,0.994,1.07,0.734,1.849c0.753-0.742,1.448-0.59,2.209,0.021
		c-0.553-0.859-0.217-1.436,0.625-1.922C120.927,157.714,120.502,157.207,120.313,156.322z M100.316,125.936
		c-0.241,0.868-0.677,1.376-1.796,1.2c1.022,0.428,1,1.089,0.672,1.867c0.747-0.622,1.442-0.711,2.206,0.013
		c-0.487-0.86-0.243-1.46,0.688-1.901C100.969,127.286,100.446,126.888,100.316,125.936z M145.261,144.647
		c-0.312,0.607-0.609,1.154-1.568,0.906c0.793,0.405,0.943,0.917,0.562,1.71c0.631-0.833,1.246-0.515,1.897-0.121
		c-0.44-0.712-0.133-1.167,0.541-1.583C145.852,145.673,145.365,145.441,145.261,144.647z M115.602,150.995
		c-0.663-0.724-0.149-1.122,0.415-1.553c-0.989,0.215-1.163-0.435-1.539-1.12c-0.021,0.95-0.565,1.178-1.433,1.197
		c1.136,0.256,0.769,0.898,0.632,1.581C114.274,150.265,114.865,150.619,115.602,150.995z M122.2,138.145
		c-0.522-0.717-0.031-1.099,0.511-1.519c-0.959,0.191-1.206-0.384-1.558-1.167c-0.002,1.01-0.55,1.23-1.385,1.217
		c0.923,0.337,0.856,0.887,0.542,1.542C120.951,137.763,121.525,137.6,122.2,138.145z M98.629,147.921
		c-0.148,0.847-0.613,1.181-1.48,1.156c0.935,0.321,0.769,0.914,0.505,1.71c0.721-0.723,1.289-0.724,1.944-0.196
		c-0.425-0.7-0.137-1.161,0.573-1.627C99.103,149.282,98.913,148.656,98.629,147.921z M138.706,143.39
		c0.632-0.717,1.206-0.547,1.898-0.063c-0.677-0.82,0.04-1.181,0.719-1.74c-1.024,0.232-1.524-0.014-1.784-0.927
		c0.143,1.215-0.719,0.981-1.583,1.021C138.774,142.124,139.171,142.574,138.706,143.39z M152.565,163.672
		c0.833,0.377,0.829,0.949,0.637,1.625c0.576-0.707,1.164-0.428,1.858-0.062c-0.767-0.813,0.033-1.131,0.638-1.66
		c-0.953,0.159-1.494-0.028-1.634-0.852C153.91,163.519,153.398,163.751,152.565,163.672z M176.259,155.212
		c-0.442-0.731-0.1-1.155,0.62-1.512c-0.898,0.134-1.316-0.242-1.531-0.965c-0.118,0.809-0.653,1.022-1.521,1.019
		c1.1,0.206,0.726,0.882,0.694,1.59C175.131,154.666,175.649,154.754,176.259,155.212z M170.963,157.13
		c0.841,0.367,0.791,0.928,0.558,1.583c0.627-0.641,1.223-0.476,1.926-0.021c-0.67-0.744-0.116-1.143,0.455-1.644
		c-1.065,0.389-1.197-0.299-1.478-0.952C172.156,156.75,171.948,157.325,170.963,157.13z M162.859,164.237
		c0.657-0.775,1.233-0.362,2.082,0.132c-0.723-0.9-0.38-1.334,0.316-1.703c-0.859,0.083-1.35-0.175-1.454-0.972
		c-0.25,0.668-0.626,1.095-1.516,0.995C163.018,163.028,163.251,163.476,162.859,164.237z M151.63,132.879
		c0.594,0.275,0.556,0.676,0.415,1.16c0.479-0.418,0.928-0.281,1.523,0.053c-0.32-0.61-0.156-0.945,0.351-1.287
		c-0.817,0.238-0.896-0.324-1.253-0.839C152.593,132.631,152.276,132.894,151.63,132.879z M151.431,158.922
		c-0.789,0.183-0.995-0.212-1.122-0.835c-0.265,0.563-0.507,0.973-1.324,0.882c0.939,0.207,0.614,0.732,0.542,1.322
		c0.521-0.493,0.975-0.463,1.482-0.101C150.723,159.652,150.822,159.277,151.431,158.922z M111.843,153.643
		c0.546,0.443,0.921,0.798,0.551,1.403c0.511-0.444,0.96-0.444,1.477-0.035c-0.295-0.586-0.008-0.942,0.502-1.373
		c-0.925,0.453-0.936-0.307-1.368-0.664C113.02,153.658,112.613,153.793,111.843,153.643z M163.589,157.739
		c-0.12,0.655-0.576,0.799-1.218,0.795c0.618,0.29,0.684,0.704,0.479,1.334c0.503-0.803,0.994-0.201,1.699-0.034
		c-0.737-0.679-0.059-0.957,0.19-1.404C164.077,158.574,163.698,158.402,163.589,157.739z M169.983,159.311
		c-0.948,0.125-1.286-0.13-1.382-0.797c-0.246,0.587-0.547,0.923-1.208,0.954c0.808,0.175,0.542,0.66,0.486,1.225
		c0.475-0.778,0.938-0.292,1.519-0.118C168.819,160.001,169.2,159.713,169.983,159.311z M180.058,149.6
		c-0.047,0.68-0.493,0.844-1.158,0.895c0.842,0.163,0.467,0.682,0.546,1.169c0.445-0.475,0.899-0.303,1.528,0.024
		c-0.457-0.655-0.184-0.962,0.304-1.31C180.478,150.598,180.308,150.161,180.058,149.6z M162.551,167.076
		c0.672,0.291,0.622,0.711,0.391,1.236c0.482-0.416,0.923-0.411,1.484-0.046c-0.293-0.559-0.033-0.896,0.448-1.214
		c-0.731,0.148-0.95-0.307-1.274-0.905C163.553,166.862,163.255,167.134,162.551,167.076z M157.489,161.249
		c0.496-0.578,0.969-0.251,1.476-0.041c-0.396-0.57-0.123-0.897,0.607-1.219c-0.788-0.005-1.313-0.053-1.327-0.747
		c-0.257,0.495-0.544,0.864-1.243,0.763C157.539,160.304,157.764,160.649,157.489,161.249z M134.107,146.97
		c0.453-0.47,0.901-0.45,1.478-0.022c-0.581-0.634-0.034-0.913,0.433-1.333c-0.743,0.144-1.069-0.146-1.273-0.672
		c-0.074,0.624-0.532,0.727-1.096,0.713C134.206,146.206,134.206,146.206,134.107,146.97z M109.256,143.388
		c0.826,0.622,0.254-0.519,0.68-0.454c-0.231-0.206-0.463-0.412-0.695-0.618c-0.106,0.313-0.461,0.399-0.691,0.6
		C109.14,142.689,108.414,143.852,109.256,143.388z M136.607,148.728c-0.068,0.695,0.242,0.856,0.835,0.796
		c0.542-0.055,0.067-0.622,0.509-0.685c-0.27-0.184-0.54-0.365-0.81-0.549C137.17,148.688,136.621,148.601,136.607,148.728z
		 M140.146,168.679c-0.113-0.155-0.313-0.34-0.565-0.294c-0.14,0.025-0.52,0.074-0.402,0.393c0.072,0.192-0.015,0.41,0.455,0.413
		C140.117,169.193,139.997,168.947,140.146,168.679z"/>
	<path fill-rule="evenodd" clip-rule="evenodd" fill="#263271" d="M95.63,117.963c2.324-4.823,5.646-9.047,9.799-12.757
		c6.922-6.182,15.194-10.287,24.843-11.822c17.516-2.788,32.606,1.563,44.846,13.052c7.055,6.621,11.063,14.629,12.324,23.706
		c0.517,3.72,0.475,7.42-0.1,11.125c-10.072-7.422-21.16-13.313-33.409-17.456c-0.173-0.058-0.527-0.008-0.505-0.338
		c0.729-0.545,1.468-0.919,2.341,0.015c-0.69-0.962-0.152-1.521,0.691-2.092c-1.285,0.461-1.571-0.302-1.974-1.328
		c-0.016,1.304-0.77,1.478-1.782,1.466c1.377,0.405,0.9,1.227,0.755,1.962c-0.378,0.154-0.666-0.082-0.981-0.183
		c-13.204-4.265-26.831-6.374-40.884-6.339C106.246,116.988,100.933,117.398,95.63,117.963z"/>
	<path fill-rule="evenodd" clip-rule="evenodd" fill="#F5F8F7" d="M153.43,123.474c-0.023,0.33,0.331,0.28,0.504,0.338
		c12.249,4.143,23.337,10.034,33.409,17.456c-0.334,2.31-0.889,4.575-1.721,6.784c-5.56-4.365-11.503-8.265-17.919-11.59
		c-10.978-5.689-22.701-9.606-35.205-11.672c-9.733-1.607-19.525-2.086-29.397-1.353c-3.389,0.252-6.751,0.657-10.108,1.111
		c0.661-2.263,1.446-4.488,2.637-6.584c5.303-0.565,10.616-0.976,15.965-0.99c14.053-0.035,27.68,2.074,40.884,6.339
		c0.315,0.101,0.604,0.337,0.981,0.183L153.43,123.474z M123.101,120.369c0.062,0.001,0.123,0.004,0.185,0.006
		c-0.068,0.566-0.139,1.133-0.2,1.699c-0.025,0.223-0.056,0.452,0.318,0.488c0.382,0.037,0.497-0.127,0.519-0.436
		c0.074-0.982,0.176-1.963,0.244-2.945c0.018-0.248,0.227-0.606-0.303-0.667c-0.443-0.051-0.829-0.044-1.009,0.448
		c-0.235,0.644-0.543,1.268-0.925,2.14c-0.235-0.986-0.446-1.681-0.553-2.389c-0.075-0.497-0.457-0.387-0.782-0.432
		c-0.368-0.049-0.511,0.109-0.535,0.425c-0.08,1.045-0.178,2.09-0.265,3.134c-0.019,0.221-0.062,0.457,0.317,0.486
		c0.346,0.027,0.414-0.154,0.441-0.402c0.063-0.574,0.14-1.148,0.211-1.722c0.278,0.598,0.442,1.205,0.567,1.818
		c0.052,0.254,0.162,0.4,0.452,0.452c0.339,0.06,0.438-0.149,0.533-0.355C122.583,121.537,122.839,120.952,123.101,120.369z
		 M114.011,119.997c-0.026,0.476-0.028,0.955-0.085,1.427c-0.057,0.465,0.059,0.716,0.667,0.707c0.965-0.016,1.931,0.026,2.897,0.04
		c0.287,0.004,0.585,0.029,0.596-0.358c0.011-0.366-0.247-0.411-0.557-0.415c-0.715-0.011-1.432-0.029-2.146-0.029
		c-0.409,0.001-0.693-0.054-0.652-0.52c0.035-0.401,0.206-0.57,0.669-0.532c0.534,0.043,1.072,0.054,1.608,0.071
		c0.331,0.011,0.417-0.174,0.425-0.43c0.009-0.278-0.208-0.294-0.427-0.3c-0.536-0.016-1.073-0.028-1.61-0.033
		c-0.326-0.002-0.555-0.073-0.545-0.424c0.011-0.359,0.248-0.395,0.572-0.38c0.679,0.032,1.36,0.035,2.039,0.07
		c0.363,0.019,0.518-0.099,0.528-0.426c0.01-0.333-0.226-0.343-0.489-0.35c-0.393-0.011-0.787-0.021-1.18-0.036
		C114.067,117.988,114.067,117.987,114.011,119.997z M167.78,131.529c0.15,0.071,0.31,0.143,0.465,0.221
		c0.528,0.265,1.057,0.532,1.581,0.801c0.281,0.144,0.542,0.325,0.779-0.074c0.239-0.403-0.114-0.482-0.378-0.616
		c-0.775-0.392-1.568-0.76-2.327-1.176c-0.403-0.221-0.615-0.172-0.839,0.198c-0.539,0.895-1.103,1.778-1.686,2.651
		c-0.209,0.312-0.208,0.497,0.177,0.682c0.912,0.437,1.813,0.892,2.706,1.358c0.31,0.162,0.492,0.159,0.688-0.144
		c0.232-0.363-0.07-0.431-0.311-0.553c-0.589-0.298-1.177-0.603-1.771-0.893c-0.352-0.172-0.699-0.268-0.382-0.764
		c0.293-0.459,0.554-0.364,0.927-0.158c0.395,0.218,0.81,0.406,1.204,0.623c0.242,0.133,0.452,0.195,0.642-0.056
		c0.239-0.315-0.007-0.455-0.267-0.587c-0.466-0.236-0.933-0.469-1.397-0.704c-0.188-0.094-0.395-0.174-0.24-0.426
		C167.452,131.748,167.51,131.555,167.78,131.529z M148.54,124.206c-0.039-0.184-0.051-0.412-0.141-0.614
		c-0.189-0.419-2.744-1.442-3.216-1.283c-0.138,0.047-0.269,0.209-0.321,0.343c-0.384,0.987-0.753,1.979-1.115,2.972
		c-0.088,0.243-0.157,0.471,0.257,0.596c0.432,0.13,0.534-0.087,0.567-0.349c0.138-1.085,0.85-0.89,1.649-0.632
		c0.81,0.26,0.522,0.821,0.452,1.278c-0.05,0.327,0.025,0.479,0.357,0.555c0.407,0.094,0.394-0.221,0.422-0.402
		c0.112-0.737,0.16-1.482,0.946-1.974C148.508,124.628,148.489,124.4,148.54,124.206z M165.19,130.221
		c-0.079-0.411-0.184-0.804-0.578-1.009c-0.737-0.38-1.507-0.711-2.263-1.063c-0.409-0.191-0.477,0.111-0.604,0.328
		c-0.525,0.897-1.054,1.792-1.575,2.691c-0.123,0.212-0.324,0.419,0.064,0.623c0.432,0.227,0.607,0.007,0.704-0.287
		c0.286-0.868,0.776-0.799,1.562-0.428c0.776,0.368,0.626,0.798,0.41,1.332c-0.089,0.221-0.287,0.493,0.146,0.625
		c0.157,0.048,0.395,0.15,0.443-0.066c0.218-0.969,0.921-1.675,1.579-2.409C165.159,130.468,165.159,130.32,165.19,130.221z
		 M102.069,119.221c0.042,0.813,0.082,1.702,0.135,2.59c0.016,0.266-0.08,0.614,0.437,0.609c0.5-0.005,0.417-0.315,0.43-0.604
		c0.02-0.422-0.29-1.013,0.65-0.998c0.67,0.01,1.396-0.175,1.53,0.735c0.04,0.261-0.035,0.754,0.528,0.656
		c0.624-0.108,0.328-0.599,0.244-0.86c-0.164-0.507-0.286-0.902,0.018-1.461c0.469-0.862-0.332-1.693-1.48-1.676
		c-0.571,0.008-1.145,0.118-1.713,0.093C102.113,118.273,101.857,118.524,102.069,119.221z M108.012,120.066
		c0.029,2.169,0.029,2.169,2.029,2.053c1.493-0.086,2.194-0.815,2.125-2.209c-0.071-1.427-0.876-1.96-2.881-1.906
		c-1.298,0.034-1.298,0.034-1.275,1.777C108.011,119.876,108.01,119.971,108.012,120.066z M170.887,135.532
		c-0.216,1.215,0.729,2.26,2.121,2.452c0.579,0.08,1.073-0.056,1.382-0.52c0.29-0.437,0.179-0.866-0.164-1.233
		c-0.34-0.367-0.734-0.692-1.089-1.048c-0.179-0.181-0.434-0.37-0.155-0.649c0.268-0.265,0.522-0.094,0.768,0.023
		c0.392,0.187,0.69,0.43,0.709,0.874c0.014,0.353,0.366,0.528,0.659,0.486c0.427-0.062,0.291-0.448,0.253-0.7
		c-0.113-0.771-1.783-1.745-2.644-1.568c-0.795,0.163-1.189,0.924-0.75,1.551c0.241,0.344,0.615,0.613,0.908,0.931
		c0.272,0.296,0.871,0.614,0.392,1.004c-0.397,0.323-0.854-0.098-1.205-0.35c-0.156-0.111-0.332-0.31-0.33-0.467
		C171.748,135.816,171.365,135.695,170.887,135.532z M177.982,136.611c-0.954,0.004-1.486,0.771-1.014,1.524
		c0.221,0.354,0.59,0.635,0.85,0.974c0.216,0.282,0.83,0.573,0.382,0.926c-0.467,0.366-0.911-0.073-1.28-0.37
		c-0.191-0.155-0.275-0.354-0.283-0.594c-0.014-0.422-0.41-0.694-0.745-0.6c-0.323,0.091-0.274,0.523-0.161,0.849
		c0.271,0.77,1.551,1.648,2.435,1.649c0.972,0,1.544-0.831,1.056-1.584c-0.228-0.353-0.579-0.64-0.853-0.97
		c-0.235-0.281-0.79-0.599-0.312-0.933c0.44-0.307,0.836,0.119,1.159,0.419c0.191,0.176,0.167,0.399,0.199,0.619
		c0.044,0.291,0.343,0.449,0.612,0.443c0.41-0.012,0.317-0.365,0.314-0.592C180.328,137.6,178.978,136.607,177.982,136.611z
		 M159.378,128.341c0.071-1.055-0.483-1.755-1.533-1.933c-0.953-0.162-2.021,0.456-2.404,1.39c-0.39,0.951,0.015,1.922,0.889,2.411
		c0.564,0.315,1.504-0.155,1.79,0.695c0.005,0.015,0.164,0.025,0.194-0.007c0.449-0.493,0.841-1.082,0.86-1.673
		c0.015-0.471-0.766-0.453-1.2-0.574c-0.404-0.111-0.677,0.162-0.312,0.479c0.483,0.421,0.046,0.415-0.224,0.46
		c-0.568,0.097-1.03-0.113-1.187-0.593c-0.231-0.709-0.006-1.326,0.766-1.7c0.561-0.273,1.078-0.148,1.386,0.325
		C158.643,127.988,158.814,128.351,159.378,128.341z M141.137,123.904c0.857,0.057,1.426-0.265,1.614-0.979
		c0.194-0.73-0.225-1.249-0.968-1.489c-0.695-0.226-1.447-0.312-2.158-0.504c-0.397-0.108-0.522,0.055-0.604,0.326
		c-0.313,1.035-0.615,2.072-0.934,3.106c-0.075,0.243-0.098,0.388,0.249,0.492c0.405,0.123,0.568-0.069,0.585-0.323
		c0.07-1.099,0.731-1.068,1.613-0.724C140.725,123.882,140.953,123.876,141.137,123.904z M152.035,124.425
		c-1.214-0.011-2.26,0.962-2.275,2.114c-0.013,1.036,0.865,1.893,1.954,1.903c1.178,0.013,2.258-0.999,2.276-2.132
		C154.007,125.269,153.142,124.434,152.035,124.425z M180.679,142.181c0.012,1.024,0.823,1.746,1.948,1.734
		c1.239-0.013,2.38-1.061,2.362-2.169c-0.014-0.976-0.902-1.75-1.991-1.736C181.714,140.025,180.665,141.007,180.679,142.181z
		 M131.908,122.005c0.284,0.035,0.568,0.131,0.633-0.277c0.064-0.402-0.276-0.381-0.53-0.431c-0.346-0.068-0.702-0.099-1.053-0.151
		c-0.287-0.043-0.452-0.166-0.373-0.456c0.076-0.28,0.28-0.204,0.493-0.167c0.524,0.09,1.051,0.171,1.577,0.25
		c0.257,0.039,0.504,0.059,0.53-0.279c0.021-0.265-0.068-0.408-0.388-0.453c-0.81-0.112-1.614-0.251-2.422-0.372
		c-0.223-0.033-0.427-0.013-0.476,0.247c-0.201,1.085-0.812,2.226-0.447,3.23c0.18,0.497,1.619,0.328,2.474,0.516
		c0.069,0.015,0.142,0.013,0.213,0.018c0.251,0.021,0.512,0.062,0.584-0.25c0.088-0.38-0.242-0.408-0.51-0.458
		c-0.522-0.097-1.048-0.196-1.579-0.244c-0.372-0.035-0.506-0.144-0.407-0.476c0.088-0.298,0.169-0.548,0.631-0.426
		C131.199,121.915,131.558,121.947,131.908,122.005z M100.288,120.827c-0.001-1.147-0.991-2.115-2.134-2.087
		c-1.079,0.026-1.99,0.948-1.984,2.008c0.007,1.14,1.007,2.104,2.161,2.08C99.439,122.806,100.29,121.937,100.288,120.827z"/>
	<path fill-rule="evenodd" clip-rule="evenodd" fill="#E1E4ED" d="M141.468,153.971c-0.978,0.768-0.978,0.768-0.767,1.883
		c-0.446-0.031-0.625-0.521-1.072-0.499c-0.418,0.021-0.631,0.385-1.123,0.579c0.291-0.788,0.425-1.511-0.698-1.899
		c1.029,0.064,1.646-0.265,1.743-1.254C140.191,153.943,140.191,153.943,141.468,153.971z"/>
	<path fill-rule="evenodd" clip-rule="evenodd" fill="#EBEDF3" d="M175.255,149.771c-1.034,0.49-1.173,1.103-0.731,1.921
		c-0.754-0.498-1.448-0.888-2.17,0.094c0.236-0.841,0.345-1.547-0.759-1.956c1.099,0.145,1.636-0.241,1.696-1.448
		C173.713,149.36,173.92,150.206,175.255,149.771z"/>
	<path fill-rule="evenodd" clip-rule="evenodd" fill="#EBEDF3" d="M104.506,143.939c0.272,0.855,0.703,1.376,1.813,1.13
		c-0.693,0.496-1.227,0.994-0.649,1.869c-0.786-0.615-1.496-0.594-2.24,0.045c0.464-0.841,0.271-1.438-0.682-1.867
		C103.785,145.202,104.434,144.958,104.506,143.939z"/>
	<path fill-rule="evenodd" clip-rule="evenodd" fill="#EBEDF3" d="M120.313,156.322c0.189,0.885,0.614,1.392,1.743,1.16
		c-0.842,0.486-1.178,1.063-0.625,1.922c-0.761-0.61-1.456-0.763-2.209-0.021c0.259-0.778,0.354-1.464-0.734-1.849
		C119.596,157.687,120.08,157.19,120.313,156.322z"/>
	<path fill-rule="evenodd" clip-rule="evenodd" fill="#EBEDF3" d="M100.316,125.936c0.129,0.952,0.653,1.35,1.77,1.178
		c-0.931,0.441-1.175,1.041-0.688,1.901c-0.764-0.724-1.459-0.634-2.206-0.013c0.328-0.778,0.35-1.439-0.672-1.867
		C99.639,127.312,100.075,126.803,100.316,125.936z"/>
	<path fill-rule="evenodd" clip-rule="evenodd" fill="#DDE0EB" d="M145.261,144.647c0.104,0.794,0.591,1.025,1.432,0.912
		c-0.674,0.416-0.981,0.871-0.541,1.583c-0.651-0.394-1.267-0.712-1.897,0.121c0.382-0.793,0.231-1.305-0.562-1.71
		C144.651,145.802,144.949,145.255,145.261,144.647z"/>
	<path fill-rule="evenodd" clip-rule="evenodd" fill="#E7E9F1" d="M115.602,150.995c-0.737-0.376-1.328-0.73-1.925,0.105
		c0.137-0.683,0.504-1.325-0.632-1.581c0.868-0.02,1.413-0.247,1.433-1.197c0.376,0.686,0.55,1.335,1.539,1.12
		C115.453,149.873,114.939,150.271,115.602,150.995z"/>
	<path fill-rule="evenodd" clip-rule="evenodd" fill="#E7E9F1" d="M122.2,138.145c-0.674-0.544-1.249-0.382-1.89,0.073
		c0.314-0.655,0.381-1.204-0.542-1.542c0.835,0.013,1.383-0.208,1.385-1.217c0.353,0.783,0.599,1.358,1.558,1.167
		C122.168,137.046,121.678,137.428,122.2,138.145z"/>
	<path fill-rule="evenodd" clip-rule="evenodd" fill="#DDE0EB" d="M98.629,147.921c0.284,0.735,0.474,1.361,1.541,1.043
		c-0.709,0.466-0.998,0.927-0.573,1.627c-0.655-0.527-1.223-0.526-1.944,0.196c0.264-0.796,0.43-1.389-0.505-1.71
		C98.016,149.102,98.481,148.768,98.629,147.921z"/>
	<path fill-rule="evenodd" clip-rule="evenodd" fill="#D6DBE8" d="M138.706,143.39c0.465-0.815,0.068-1.266-0.75-1.708
		c0.864-0.04,1.726,0.193,1.583-1.021c0.26,0.913,0.759,1.159,1.784,0.927c-0.679,0.56-1.396,0.92-0.719,1.74
		C139.912,142.843,139.338,142.673,138.706,143.39z"/>
	<path fill-rule="evenodd" clip-rule="evenodd" fill="#DDE0EB" d="M152.565,163.672c0.833,0.079,1.345-0.153,1.499-0.948
		c0.14,0.823,0.681,1.011,1.634,0.852c-0.604,0.529-1.404,0.847-0.638,1.66c-0.694-0.366-1.282-0.646-1.858,0.062
		C153.395,164.621,153.398,164.049,152.565,163.672z"/>
	<path fill-rule="evenodd" clip-rule="evenodd" fill="#E7E9F1" d="M176.259,155.212c-0.609-0.458-1.128-0.546-1.738,0.132
		c0.031-0.708,0.405-1.384-0.694-1.59c0.868,0.004,1.403-0.21,1.521-1.019c0.215,0.723,0.633,1.099,1.531,0.965
		C176.159,154.057,175.816,154.48,176.259,155.212z"/>
	<path fill-rule="evenodd" clip-rule="evenodd" fill="#E7E9F1" d="M170.963,157.13c0.985,0.195,1.193-0.38,1.461-1.033
		c0.28,0.653,0.412,1.341,1.478,0.952c-0.571,0.501-1.125,0.899-0.455,1.644c-0.703-0.455-1.299-0.62-1.926,0.021
		C171.754,158.058,171.804,157.497,170.963,157.13z"/>
	<path fill-rule="evenodd" clip-rule="evenodd" fill="#E7E9F1" d="M162.859,164.237c0.392-0.762,0.158-1.209-0.571-1.548
		c0.89,0.1,1.266-0.327,1.516-0.995c0.104,0.797,0.595,1.055,1.454,0.972c-0.696,0.369-1.039,0.803-0.316,1.703
		C164.093,163.875,163.517,163.462,162.859,164.237z"/>
	<path fill-rule="evenodd" clip-rule="evenodd" fill="#E1E4ED" d="M151.63,132.879c0.646,0.015,0.963-0.248,1.036-0.913
		c0.357,0.516,0.436,1.077,1.253,0.839c-0.507,0.342-0.671,0.677-0.351,1.287c-0.596-0.334-1.044-0.471-1.523-0.053
		C152.186,133.555,152.224,133.154,151.63,132.879z"/>
	<path fill-rule="evenodd" clip-rule="evenodd" fill="#D6DBE8" d="M151.431,158.922c-0.608,0.355-0.708,0.73-0.422,1.269
		c-0.508-0.362-0.962-0.393-1.482,0.101c0.072-0.59,0.397-1.115-0.542-1.322c0.817,0.091,1.06-0.319,1.324-0.882
		C150.436,158.71,150.642,159.104,151.431,158.922z"/>
	<path fill-rule="evenodd" clip-rule="evenodd" fill="#DDE0EB" d="M111.843,153.643c0.771,0.15,1.177,0.016,1.162-0.669
		c0.432,0.357,0.443,1.117,1.368,0.664c-0.51,0.431-0.797,0.787-0.502,1.373c-0.517-0.409-0.965-0.409-1.477,0.035
		C112.764,154.44,112.389,154.086,111.843,153.643z"/>
	<path fill-rule="evenodd" clip-rule="evenodd" fill="#D6DBE8" d="M163.589,157.739c0.109,0.663,0.488,0.835,1.151,0.69
		c-0.249,0.447-0.928,0.726-0.19,1.404c-0.705-0.167-1.196-0.769-1.699,0.034c0.204-0.63,0.139-1.044-0.479-1.334
		C163.013,158.538,163.469,158.395,163.589,157.739z"/>
	<path fill-rule="evenodd" clip-rule="evenodd" fill="#E7E9F1" d="M169.983,159.311c-0.783,0.402-1.164,0.69-0.585,1.264
		c-0.581-0.174-1.044-0.66-1.519,0.118c0.056-0.564,0.321-1.05-0.486-1.225c0.661-0.031,0.962-0.367,1.208-0.954
		C168.697,159.181,169.035,159.436,169.983,159.311z"/>
	<path fill-rule="evenodd" clip-rule="evenodd" fill="#E1E4ED" d="M180.058,149.6c0.25,0.562,0.42,0.998,1.22,0.778
		c-0.487,0.348-0.761,0.654-0.304,1.31c-0.629-0.327-1.083-0.499-1.528-0.024c-0.079-0.487,0.296-1.006-0.546-1.169
		C179.564,150.443,180.011,150.279,180.058,149.6z"/>
	<path fill-rule="evenodd" clip-rule="evenodd" fill="#DDE0EB" d="M162.551,167.076c0.704,0.058,1.002-0.214,1.049-0.929
		c0.324,0.599,0.543,1.054,1.274,0.905c-0.481,0.318-0.741,0.655-0.448,1.214c-0.562-0.365-1.002-0.37-1.484,0.046
		C163.173,167.787,163.223,167.367,162.551,167.076z"/>
	<path fill-rule="evenodd" clip-rule="evenodd" fill="#E1E4ED" d="M157.489,161.249c0.274-0.6,0.05-0.945-0.487-1.244
		c0.699,0.102,0.986-0.268,1.243-0.763c0.014,0.694,0.539,0.742,1.327,0.747c-0.73,0.321-1.004,0.648-0.607,1.219
		C158.458,160.998,157.985,160.671,157.489,161.249z"/>
	<path fill-rule="evenodd" clip-rule="evenodd" fill="#E7E9F1" d="M134.107,146.97c0.098-0.764,0.098-0.764-0.459-1.314
		c0.564,0.014,1.022-0.089,1.096-0.713c0.204,0.526,0.531,0.815,1.273,0.672c-0.467,0.42-1.014,0.699-0.433,1.333
		C135.009,146.52,134.561,146.5,134.107,146.97z"/>
	<path fill-rule="evenodd" clip-rule="evenodd" fill="#E1E4ED" d="M109.256,143.388c-0.843,0.464-0.117-0.698-0.706-0.473
		c0.23-0.2,0.585-0.286,0.691-0.6c0.232,0.206,0.463,0.412,0.695,0.618C109.51,142.869,110.082,144.01,109.256,143.388z"/>
	<path fill-rule="evenodd" clip-rule="evenodd" fill="#D6DBE8" d="M136.607,148.728c0.013-0.127,0.563-0.04,0.535-0.438
		c0.27,0.184,0.54,0.365,0.81,0.549c-0.442,0.063,0.033,0.63-0.509,0.685C136.85,149.584,136.539,149.423,136.607,148.728z"/>
	<path fill-rule="evenodd" clip-rule="evenodd" fill="#AFB9D4" d="M140.146,168.679c-0.15,0.269-0.029,0.515-0.512,0.512
		c-0.47-0.003-0.383-0.221-0.455-0.413c-0.118-0.318,0.263-0.367,0.402-0.393C139.833,168.339,140.033,168.523,140.146,168.679z"/>
	<path fill-rule="evenodd" clip-rule="evenodd" fill="#DDE0EB" d="M153.46,123.496c0.146-0.735,0.622-1.557-0.755-1.962
		c1.013,0.012,1.767-0.162,1.782-1.466c0.402,1.026,0.688,1.79,1.974,1.328c-0.844,0.572-1.382,1.13-0.691,2.092
		c-0.873-0.934-1.611-0.56-2.341-0.015C153.43,123.474,153.46,123.496,153.46,123.496z"/>
	<path fill-rule="evenodd" clip-rule="evenodd" fill="#24A14F" d="M123.101,120.369c-0.261,0.583-0.518,1.168-0.784,1.75
		c-0.095,0.206-0.194,0.416-0.533,0.355c-0.29-0.051-0.4-0.197-0.452-0.452c-0.125-0.614-0.289-1.22-0.567-1.818
		c-0.071,0.574-0.148,1.148-0.211,1.722c-0.027,0.249-0.096,0.429-0.441,0.402c-0.379-0.029-0.335-0.265-0.317-0.486
		c0.086-1.044,0.185-2.089,0.265-3.134c0.024-0.316,0.167-0.475,0.535-0.425c0.326,0.044,0.708-0.065,0.782,0.432
		c0.107,0.708,0.318,1.403,0.553,2.389c0.382-0.873,0.69-1.496,0.925-2.14c0.18-0.492,0.565-0.5,1.009-0.448
		c0.53,0.06,0.321,0.419,0.303,0.667c-0.068,0.982-0.17,1.963-0.244,2.945c-0.022,0.308-0.137,0.472-0.519,0.436
		c-0.374-0.036-0.343-0.266-0.318-0.488c0.061-0.566,0.132-1.133,0.2-1.699C123.224,120.373,123.162,120.37,123.101,120.369z"/>
	<path fill-rule="evenodd" clip-rule="evenodd" fill="#2AA351" d="M114.011,119.997c0.056-2.01,0.056-2.009,2.311-1.919
		c0.394,0.016,0.787,0.025,1.18,0.036c0.264,0.007,0.499,0.018,0.489,0.35c-0.01,0.327-0.166,0.445-0.528,0.426
		c-0.679-0.035-1.359-0.038-2.039-0.07c-0.324-0.015-0.561,0.021-0.572,0.38c-0.01,0.351,0.219,0.422,0.545,0.424
		c0.537,0.005,1.074,0.017,1.61,0.033c0.218,0.006,0.436,0.022,0.427,0.3c-0.008,0.255-0.095,0.441-0.425,0.43
		c-0.536-0.017-1.074-0.027-1.608-0.071c-0.464-0.038-0.634,0.131-0.669,0.532c-0.041,0.466,0.243,0.521,0.652,0.52
		c0.715,0,1.431,0.018,2.146,0.029c0.311,0.004,0.568,0.049,0.557,0.415c-0.011,0.388-0.31,0.362-0.596,0.358
		c-0.966-0.014-1.933-0.055-2.897-0.04c-0.608,0.01-0.725-0.241-0.667-0.707C113.983,120.951,113.984,120.473,114.011,119.997z"/>
	<path fill-rule="evenodd" clip-rule="evenodd" fill="#26A250" d="M167.78,131.529c-0.271,0.026-0.328,0.219-0.429,0.383
		c-0.154,0.252,0.053,0.332,0.24,0.426c0.465,0.234,0.932,0.467,1.397,0.704c0.26,0.132,0.506,0.272,0.267,0.587
		c-0.189,0.251-0.399,0.189-0.642,0.056c-0.395-0.217-0.81-0.405-1.204-0.623c-0.373-0.206-0.634-0.301-0.927,0.158
		c-0.317,0.497,0.03,0.592,0.382,0.764c0.594,0.29,1.182,0.594,1.771,0.893c0.24,0.122,0.543,0.19,0.311,0.553
		c-0.195,0.303-0.378,0.305-0.688,0.144c-0.893-0.466-1.794-0.921-2.706-1.358c-0.385-0.185-0.386-0.37-0.177-0.682
		c0.583-0.873,1.146-1.757,1.686-2.651c0.224-0.37,0.436-0.419,0.839-0.198c0.759,0.416,1.552,0.784,2.327,1.176
		c0.264,0.133,0.617,0.213,0.378,0.616c-0.237,0.399-0.498,0.218-0.779,0.074c-0.524-0.27-1.053-0.536-1.581-0.801
		C168.09,131.671,167.931,131.6,167.78,131.529z"/>
	<path fill-rule="evenodd" clip-rule="evenodd" fill="#26A250" d="M148.54,124.206c-0.051,0.195-0.032,0.423-0.142,0.491
		c-0.786,0.491-0.834,1.236-0.946,1.974c-0.028,0.181-0.015,0.496-0.422,0.402c-0.332-0.076-0.407-0.228-0.357-0.555
		c0.07-0.458,0.357-1.018-0.452-1.278c-0.8-0.258-1.512-0.453-1.649,0.632c-0.033,0.261-0.136,0.479-0.567,0.349
		c-0.414-0.125-0.345-0.353-0.257-0.596c0.362-0.993,0.731-1.985,1.115-2.972c0.053-0.134,0.184-0.296,0.321-0.343
		c0.472-0.16,3.026,0.863,3.216,1.283C148.489,123.793,148.501,124.022,148.54,124.206z M145.945,123.279
		c-0.647-0.072-0.701,0.466-0.645,0.608c0.264,0.658,1.063,0.536,1.646,0.715c0.34,0.104,0.698-0.122,0.626-0.456
		C147.394,123.311,146.413,123.602,145.945,123.279z"/>
	<path fill-rule="evenodd" clip-rule="evenodd" fill="#26A250" d="M165.19,130.221c-0.031,0.099-0.031,0.247-0.111,0.337
		c-0.658,0.734-1.361,1.44-1.579,2.409c-0.049,0.217-0.286,0.114-0.443,0.066c-0.434-0.132-0.235-0.404-0.146-0.625
		c0.216-0.534,0.366-0.964-0.41-1.332c-0.785-0.372-1.275-0.44-1.562,0.428c-0.097,0.293-0.272,0.513-0.704,0.287
		c-0.389-0.204-0.188-0.411-0.064-0.623c0.521-0.899,1.05-1.794,1.575-2.691c0.128-0.216,0.195-0.519,0.604-0.328
		c0.756,0.352,1.525,0.683,2.263,1.063C165.007,129.417,165.111,129.811,165.19,130.221z M162.42,129.104
		c-0.331,0.065-0.525,0.509-0.453,0.665c0.286,0.624,1.063,0.696,1.681,0.901c0.252,0.083,0.516-0.153,0.544-0.453
		C164.22,129.916,163.011,129.111,162.42,129.104z"/>
	<path fill-rule="evenodd" clip-rule="evenodd" fill="#24A14F" d="M102.069,119.221c-0.212-0.697,0.044-0.947,0.779-0.916
		c0.568,0.024,1.142-0.085,1.713-0.093c1.148-0.017,1.949,0.814,1.48,1.676c-0.304,0.56-0.182,0.954-0.018,1.461
		c0.084,0.261,0.379,0.751-0.244,0.86c-0.563,0.098-0.488-0.395-0.528-0.656c-0.134-0.91-0.859-0.725-1.53-0.735
		c-0.94-0.015-0.631,0.576-0.65,0.998c-0.013,0.289,0.07,0.598-0.43,0.604c-0.516,0.005-0.42-0.343-0.437-0.609
		C102.15,120.922,102.11,120.033,102.069,119.221z M104.02,120.046c0.37-0.111,1.16,0.211,1.166-0.603
		c0.003-0.472-0.509-0.536-0.874-0.42c-0.48,0.152-1.308-0.362-1.425,0.484C102.784,120.251,103.442,120.046,104.02,120.046z"/>
	<path fill-rule="evenodd" clip-rule="evenodd" fill="#2AA351" d="M108.011,120.066c-0.001-0.095,0-0.19-0.001-0.285
		c-0.022-1.744-0.022-1.744,1.275-1.777c2.004-0.054,2.81,0.479,2.881,1.906c0.07,1.394-0.632,2.124-2.125,2.209
		C108.041,122.235,108.041,122.235,108.011,120.066z M109.588,118.773c-1.13-0.161-0.743,0.702-0.673,1.192
		c0.073,0.508-0.62,1.47,0.83,1.393c1.111-0.059,1.692-0.496,1.654-1.352C111.363,119.182,110.794,118.759,109.588,118.773z"/>
	<path fill-rule="evenodd" clip-rule="evenodd" fill="#26A250" d="M170.887,135.532c0.479,0.164,0.861,0.285,0.854,0.786
		c-0.002,0.157,0.174,0.355,0.33,0.467c0.351,0.252,0.808,0.673,1.205,0.35c0.479-0.391-0.119-0.708-0.392-1.004
		c-0.293-0.318-0.667-0.586-0.908-0.931c-0.439-0.627-0.045-1.389,0.75-1.551c0.86-0.176,2.53,0.798,2.644,1.568
		c0.038,0.251,0.174,0.638-0.253,0.7c-0.293,0.042-0.646-0.133-0.659-0.486c-0.019-0.443-0.317-0.687-0.709-0.874
		c-0.245-0.117-0.5-0.289-0.768-0.023c-0.278,0.279-0.023,0.468,0.155,0.649c0.354,0.356,0.749,0.681,1.089,1.048
		c0.343,0.367,0.454,0.796,0.164,1.233c-0.309,0.464-0.803,0.6-1.382,0.52C171.615,137.792,170.671,136.747,170.887,135.532z"/>
	<path fill-rule="evenodd" clip-rule="evenodd" fill="#26A250" d="M177.982,136.611c0.995-0.004,2.346,0.989,2.359,1.761
		c0.003,0.227,0.096,0.58-0.314,0.592c-0.27,0.006-0.568-0.152-0.612-0.443c-0.032-0.22-0.008-0.443-0.199-0.619
		c-0.323-0.3-0.719-0.726-1.159-0.419c-0.479,0.334,0.076,0.652,0.312,0.933c0.273,0.33,0.625,0.618,0.853,0.97
		c0.488,0.754-0.084,1.584-1.056,1.584c-0.884-0.001-2.164-0.88-2.435-1.649c-0.113-0.326-0.162-0.758,0.161-0.849
		c0.335-0.095,0.731,0.178,0.745,0.6c0.008,0.24,0.092,0.438,0.283,0.594c0.369,0.297,0.813,0.736,1.28,0.37
		c0.448-0.353-0.166-0.644-0.382-0.926c-0.26-0.339-0.629-0.621-0.85-0.974C176.496,137.382,177.028,136.615,177.982,136.611z"/>
	<path fill-rule="evenodd" clip-rule="evenodd" fill="#26A250" d="M159.378,128.341c-0.563,0.01-0.735-0.354-0.975-0.72
		c-0.308-0.473-0.825-0.598-1.386-0.325c-0.771,0.375-0.997,0.991-0.766,1.7c0.156,0.48,0.618,0.69,1.187,0.593
		c0.27-0.045,0.707-0.039,0.224-0.46c-0.365-0.317-0.093-0.591,0.312-0.479c0.435,0.121,1.215,0.103,1.2,0.574
		c-0.02,0.591-0.411,1.18-0.86,1.673c-0.03,0.032-0.189,0.022-0.194,0.007c-0.286-0.851-1.226-0.38-1.79-0.695
		c-0.874-0.488-1.278-1.459-0.889-2.411c0.383-0.934,1.451-1.551,2.404-1.39C158.895,126.586,159.449,127.286,159.378,128.341z"/>
	<path fill-rule="evenodd" clip-rule="evenodd" fill="#26A250" d="M141.137,123.904c-0.184-0.027-0.412-0.022-0.602-0.096
		c-0.882-0.344-1.543-0.375-1.613,0.724c-0.018,0.254-0.18,0.446-0.585,0.323c-0.347-0.104-0.324-0.25-0.249-0.492
		c0.319-1.034,0.621-2.071,0.934-3.106c0.081-0.271,0.207-0.434,0.604-0.326c0.711,0.193,1.463,0.279,2.158,0.504
		c0.743,0.241,1.162,0.759,0.968,1.489C142.563,123.639,141.994,123.96,141.137,123.904z M140.949,123.097
		c0.469,0.038,0.912,0.007,0.848-0.421c-0.136-0.874-1.1-0.614-1.695-0.832c-0.596-0.217-0.552,0.359-0.533,0.565
		C139.646,123.253,140.603,122.762,140.949,123.097z"/>
	<path fill-rule="evenodd" clip-rule="evenodd" fill="#2AA351" d="M152.035,124.425c1.106,0.009,1.972,0.844,1.955,1.886
		c-0.019,1.133-1.099,2.145-2.276,2.132c-1.089-0.011-1.967-0.868-1.954-1.903C149.775,125.387,150.821,124.414,152.035,124.425z
		 M150.634,126.658c0.099,0.506,0.359,0.976,1.107,1.007c0.719,0.031,1.45-0.736,1.36-1.447c-0.074-0.583-0.373-1.038-1.147-1.021
		C151.264,125.212,150.61,125.909,150.634,126.658z"/>
	<path fill-rule="evenodd" clip-rule="evenodd" fill="#26A250" d="M180.679,142.181c-0.014-1.174,1.035-2.156,2.319-2.171
		c1.089-0.013,1.978,0.76,1.991,1.736c0.018,1.108-1.123,2.156-2.362,2.169C181.502,143.927,180.69,143.205,180.679,142.181z
		 M181.55,142.264c0.022,0.512,0.358,0.89,1.11,0.878c0.744-0.009,1.508-0.73,1.45-1.397c-0.049-0.571-0.393-0.942-1.087-0.957
		C182.235,140.771,181.55,141.403,181.55,142.264z"/>
	<path fill-rule="evenodd" clip-rule="evenodd" fill="#2AA351" d="M131.908,122.005c-0.351-0.058-0.709-0.09-1.049-0.179
		c-0.462-0.122-0.543,0.128-0.631,0.426c-0.1,0.332,0.035,0.441,0.407,0.476c0.53,0.048,1.056,0.147,1.579,0.244
		c0.268,0.05,0.598,0.078,0.51,0.458c-0.072,0.312-0.333,0.271-0.584,0.25c-0.071-0.005-0.144-0.003-0.213-0.018
		c-0.855-0.188-2.294-0.019-2.474-0.516c-0.364-1.004,0.247-2.145,0.447-3.23c0.048-0.26,0.253-0.28,0.476-0.247
		c0.808,0.12,1.612,0.26,2.422,0.372c0.32,0.044,0.409,0.188,0.388,0.453c-0.026,0.338-0.273,0.317-0.53,0.279
		c-0.526-0.079-1.053-0.16-1.577-0.25c-0.213-0.037-0.417-0.113-0.493,0.167c-0.079,0.291,0.086,0.413,0.373,0.456
		c0.351,0.052,0.707,0.083,1.053,0.151c0.254,0.05,0.595,0.028,0.53,0.431C132.476,122.136,132.192,122.04,131.908,122.005z"/>
	<path fill-rule="evenodd" clip-rule="evenodd" fill="#24A14F" d="M100.288,120.827c0.002,1.109-0.849,1.979-1.958,2.001
		c-1.153,0.023-2.154-0.94-2.161-2.08c-0.006-1.06,0.905-1.982,1.984-2.008C99.297,118.712,100.287,119.68,100.288,120.827z
		 M99.425,120.915c-0.001-0.756-0.346-1.333-1.183-1.375c-0.813-0.04-1.202,0.517-1.195,1.196c0.006,0.707,0.392,1.276,1.25,1.292
		C99.066,122.042,99.392,121.535,99.425,120.915z"/>
	<path fill-rule="evenodd" clip-rule="evenodd" fill="#F3F9F4" d="M145.945,123.279c0.468,0.322,1.448,0.032,1.627,0.867
		c0.072,0.334-0.286,0.561-0.626,0.456c-0.582-0.179-1.382-0.057-1.646-0.715C145.244,123.746,145.298,123.207,145.945,123.279z"/>
	<path fill-rule="evenodd" clip-rule="evenodd" fill="#F0F8F2" d="M162.42,129.104c0.591,0.008,1.8,0.812,1.771,1.113
		c-0.028,0.3-0.292,0.537-0.544,0.453c-0.618-0.206-1.395-0.278-1.681-0.901C161.895,129.613,162.089,129.169,162.42,129.104z"/>
	<path fill-rule="evenodd" clip-rule="evenodd" fill="#F0F8F2" d="M104.02,120.046c-0.578,0-1.236,0.205-1.132-0.538
		c0.117-0.846,0.944-0.333,1.425-0.484c0.364-0.116,0.876-0.052,0.874,0.42C105.18,120.258,104.39,119.936,104.02,120.046z"/>
	<path fill-rule="evenodd" clip-rule="evenodd" fill="#F0F8F2" d="M109.588,118.773c1.206-0.015,1.775,0.408,1.811,1.233
		c0.038,0.856-0.543,1.293-1.654,1.352c-1.449,0.077-0.757-0.885-0.83-1.393C108.846,119.475,108.458,118.612,109.588,118.773z"/>
	<path fill-rule="evenodd" clip-rule="evenodd" fill="#F0F8F2" d="M140.949,123.097c-0.347-0.334-1.303,0.156-1.381-0.688
		c-0.019-0.206-0.063-0.782,0.533-0.565c0.596,0.218,1.56-0.042,1.695,0.832C141.861,123.104,141.418,123.134,140.949,123.097z"/>
	<path fill-rule="evenodd" clip-rule="evenodd" fill="#F3F9F4" d="M150.634,126.658c-0.023-0.75,0.63-1.446,1.32-1.461
		c0.774-0.017,1.073,0.439,1.147,1.021c0.09,0.711-0.642,1.478-1.36,1.447C150.993,127.634,150.732,127.164,150.634,126.658z"/>
	<path fill-rule="evenodd" clip-rule="evenodd" fill="#F3F9F4" d="M181.55,142.264c0-0.86,0.686-1.493,1.474-1.477
		c0.694,0.015,1.038,0.386,1.087,0.957c0.058,0.667-0.706,1.389-1.45,1.397C181.908,143.153,181.572,142.775,181.55,142.264z"/>
	<path fill-rule="evenodd" clip-rule="evenodd" fill="#F3F9F4" d="M99.425,120.915c-0.034,0.62-0.359,1.127-1.128,1.113
		c-0.857-0.016-1.244-0.585-1.25-1.292c-0.006-0.679,0.383-1.235,1.195-1.196C99.08,119.582,99.424,120.159,99.425,120.915z"/>
</g>
</svg>
