<?xml version="1.0" encoding="utf-8"?>
<!-- Generator: Adobe Illustrator 16.0.0, SVG Export Plug-In . SVG Version: 6.00 Build 0)  -->
<!DOCTYPE svg PUBLIC "-//W3C//DTD SVG 1.1//EN" "http://www.w3.org/Graphics/SVG/1.1/DTD/svg11.dtd">
<svg version="1.1" id="Layer_1" xmlns="http://www.w3.org/2000/svg" xmlns:xlink="http://www.w3.org/1999/xlink" x="0px" y="0px"
	 width="280px" height="280px" viewBox="0 0 280 280" enable-background="new 0 0 280 280" xml:space="preserve">
<rect fill-rule="evenodd" clip-rule="evenodd" fill="#FFFFFF" width="280" height="280"/>
<g>
	<path fill-rule="evenodd" clip-rule="evenodd" fill="#EE2F2C" d="M24.727,79.799c-2.785-0.41-4.938,0.148-7.093,1.009
		c-1.96,0.784-3.892,0.569-4.386-2.042c-0.476-2.515,0.938-3.51,3.184-3.838c2.954-0.432,5.87-1.251,8.775-2.021
		c8.379-2.22,15.775,0.201,19.133,6.334c3.734,6.821,3.139,17.556-2.417,23.508c-3.729,3.996-3.171,6.195,0.375,9.219
		c3.87,3.3,5.853,12.067,13.033,5.179c1.093-1.048,1.773,0.207,2.189,0.886c0.686,1.125,0.374,2.379-0.188,3.607
		c-2.317,5.075-8.791,5.679-12.937,0.874c-4.275-4.955-7.884-10.426-13.078-14.62c-3.704-2.993-0.243-4.646,2.906-5.419
		c6.066-1.489,7.818-6.835,7.929-12.743c0.096-5.221-2.044-9.402-6.96-11.072c-3.671-1.247-5.836-0.815-6.503,4.474
		c-1.443,11.45-1.85,22.889-1.566,34.403c0.059,2.391,0.812,5.964-2.221,6.044c-2.619,0.069-2.033-3.487-2.13-5.628
		C22.2,105.21,23.014,92.522,24.727,79.799z"/>
	<path fill-rule="evenodd" clip-rule="evenodd" fill="#EE2F2C" d="M20.238,158.472c0.024-15.149,5.03-24.614,14.308-27.499
		c6.42-2,11.807,0.182,16.215,5.479c1.084,1.302,1.967,2.893,0.692,4.799c-1.689,2.528-2.704,0.226-3.896-0.616
		c-11.136-7.85-20.391-3.521-22.529,10.91c-0.662,4.466-0.459,9.22,0.083,13.734c0.669,5.575,3.171,10.496,8.432,11.958
		c5.476,1.522,11.039,1.48,15.427-3.736c1.078-1.282,1.924-4.595,4.076-2.388c2.092,2.147,0.544,4.67-1.067,6.711
		c-7.977,10.102-23.906,7.687-29.088-4.432C20.773,168.443,19.983,163.214,20.238,158.472z"/>
	<path fill-rule="evenodd" clip-rule="evenodd" fill="#EE2F2C" d="M61.977,101.573c0.568-7.078,1.547-12.885,5.28-17.427
		c3.104-3.777,6.838-6.179,11.644-3.359c5.188,3.045,6.579,8.087,6.104,14.128c-0.227,2.873-2.241,3.728-4.233,4.3
		c-2.873,0.826-5.836,1.262-8.741,1.966c-1.835,0.445-4.558-1.391-5.368,1.483c-0.783,2.78,0.488,5.582,2.362,7.606
		c2.065,2.229,4.563,2.152,6.979,0.555c0.78-0.514,1.407-1.308,2.113-1.961c1.017-0.942,2.053-2.475,3.385-0.672
		c1.021,1.382,0.499,2.782-0.417,4.146c-4.324,6.452-14.408,5.305-17.284-2.217C62.657,107.128,62.412,103.718,61.977,101.573z
		 M71.73,96.683c3.352-1.117,8.524,0.868,9.072-4.975c0.286-3.054-1.131-7.509-5.369-7.342c-5.402,0.215-7.062,5.081-7.91,9.809
		C66.708,98.723,70.447,95.321,71.73,96.683z"/>
	<path fill-rule="evenodd" clip-rule="evenodd" fill="#EE2F2C" d="M84.028,157.26c-1.278-10.999-2.038-11.641-10.421-9.244
		c-1.083,0.308-1.62,0.328-2.167-0.703c-0.901-1.699-0.019-3.022,0.89-4.101c3.585-4.251,11.511-2.361,13.986,3.784
		c3.99,9.905,2.334,19.974-0.426,29.875c-0.385,1.385-1.086,2.814-2.962,1.82c-4.638-2.461-12.048,1.155-13.859-7.386
		c-1.01-4.765-1.367-9.765,2.298-13.619C75.05,153.813,79.207,154.144,84.028,157.26z M78.132,159.448
		c-4.115,0.102-5.673,3.006-5.637,6.981c0.035,3.948,1.488,6.917,5.748,6.859c4.246-0.059,5.644-3.138,5.681-7.008
		C83.96,162.307,82.418,159.338,78.132,159.448z"/>
	<path fill-rule="evenodd" clip-rule="evenodd" fill="#EE2F2C" d="M240.961,137.718c0.068,5.963,1.719,7.108,6.538,4.191
		c4.826-2.922,8.579,0.738,10.168,5.76c2.525,7.983,1.523,16.098-0.779,24.02c-0.404,1.391-0.917,3.261-2.634,2.685
		c-1.557-0.522-1.502-2.222-1.166-3.871c1.216-5.957,2.831-11.928,1.551-18.104c-0.661-3.184-1.341-6.758-5.412-6.674
		c-3.978,0.081-5.681,3.042-6.357,6.785c-1.103,6.103,0.389,12.207,0.284,18.317c-0.033,1.918,0.6,4.823-1.73,5.123
		c-2.56,0.332-2.22-2.726-2.341-4.513c-0.58-8.391-1.152-16.796-1.324-25.205C237.699,143.461,237.385,140.04,240.961,137.718z"/>
	<path fill-rule="evenodd" clip-rule="evenodd" fill="#EE2F2C" d="M181.83,97.403c0.276,3.395-0.47,7.022-2.339,10.41
		c-2.951,5.351-7.432,7.782-12.816,7.02c-4.992-0.708-7.827-4.521-9.154-10.007c-1.563-6.459-1.379-12.651,1.612-18.421
		c2.97-5.729,7.853-7.797,13.549-6.385C178.634,81.494,181.839,87.824,181.83,97.403z M177.634,96.988
		c0.059-8.18-2.588-12.457-7.882-12.728c-5.713-0.292-8.759,3.965-8.859,12.486c-0.024,2.024-0.139,4.125,0.285,6.058
		c0.773,3.531,2.075,6.899,5.929,7.441c4.039,0.568,7.094-1.094,9.155-5.145C177.585,102.5,177.475,99.751,177.634,96.988z"/>
	<path fill-rule="evenodd" clip-rule="evenodd" fill="#EE2F2C" d="M186.003,155.283c0.108,5.027-0.953,9.642-4.165,13.379
		c-6.932,8.057-16.992,5.421-20.003-5.145c-1.833-6.427-1.472-12.663,1.426-18.534c2.891-5.864,7.731-7.992,13.468-6.653
		C182.581,139.694,186.013,146.401,186.003,155.283z M165.057,153.769c-0.074,11.656,3.681,16.542,9.975,14.661
		c5.252-1.569,7.908-8.377,6.567-17.218c-0.809-5.334-3.283-9.092-8.68-8.537C165.86,143.397,165.304,149.391,165.057,153.769z"/>
	<path fill-rule="evenodd" clip-rule="evenodd" fill="#EE2F2C" d="M223.53,155.656c0.353,2.989-0.37,6.291-1.757,9.218
		c-2.677,5.651-7.035,8.96-12.922,8.349c-5.468-0.568-8.324-4.615-9.698-10.373c-1.49-6.238-1.144-12.2,1.61-17.815
		c2.878-5.87,7.702-8.028,13.446-6.723C220.076,139.646,223.534,146.343,223.53,155.656z M202.587,153.851
		c-0.059,11.613,3.729,16.489,10.026,14.563c5.227-1.602,7.876-8.462,6.513-17.256c-0.829-5.339-3.334-9.071-8.726-8.481
		C203.355,143.447,202.833,149.457,202.587,153.851z"/>
	<path fill-rule="evenodd" clip-rule="evenodd" fill="#EE2F2C" d="M101.157,97.27c0.614-4.032,1.479-7.477-3.508-5.459
		c-1.132,0.457-2.404-0.235-2.288-1.874c0.061-0.845,0.695-2.187,1.286-2.35c3.843-1.061,7.298-2.518,9.083-6.91
		c0.396-0.976,2.233-1.03,2.184-0.314c-0.423,6.063,4.203,5.6,7.239,7.25c1.167,0.635,1.57,2.027,0.925,3.238
		c-0.695,1.304-1.784,0.697-2.963,0.418c-2.216-0.522-5.227-2.718-6.533,0.952c-1.73,4.862-1.489,10.051,0.392,14.911
		c1.181,3.05,3.334,4.113,6.158,2.321c1.238-0.785,2.274-0.503,2.833,0.822c0.773,1.83-0.418,2.847-1.689,3.554
		c-4.849,2.698-8.379,0.775-10.808-4.119C101.419,105.578,101.391,100.958,101.157,97.27z"/>
	<path fill-rule="evenodd" clip-rule="evenodd" fill="#EE2F2C" d="M134.552,156.001c0.239-3.637,2.13-8.006-3.683-5.843
		c-1.183,0.439-2.242-0.345-2.192-2.035c0.044-1.492,0.841-2.289,2.102-2.56c3.458-0.745,6.385-2.153,7.976-6.074
		c0.63-1.554,3.129-1.852,2.873-0.013c-0.705,5.047,2.686,4.751,5.098,5.734c1.587,0.644,3.407,1.121,2.836,3.414
		c-0.706,2.827-2.487,1.097-3.853,0.6c-4.353-1.585-6.222,0.277-6.697,5.178c-0.823,8.492,0.622,10.793,8.875,13.017
		c0.57,0.155,1.223,0.77,1.476,1.36c0.617,1.437-0.308,2.262-1.24,3.107c-3.263,2.959-8.553,1.467-11.081-3.27
		C134.854,164.521,134.888,159.884,134.552,156.001z"/>
	<path fill-rule="evenodd" clip-rule="evenodd" fill="#EE2F2C" d="M134.187,88.115c2.783-1.51,4.937-5.818,8.938-3.143
		c2.247,1.504,3.246,3.556,1.823,6.409c-6.561-3.636-8.868-2.164-9.073,6.1c-0.126,5.098,0.087,10.204-1.623,15.068
		c-0.418,1.19-1.104,2.372-2.477,2.022c-1.396-0.356-1.692-1.779-1.391-3.036c2.019-8.419,1.684-16.581-1.729-24.542
		c-0.583-1.361-0.66-3.577,0.959-3.84C132.61,82.667,132.287,86.658,134.187,88.115z"/>
	<path fill-rule="evenodd" clip-rule="evenodd" fill="#EE2F2C" d="M118.576,149.543c-6.976-3.479-8.959-2.049-9.136,6.867
		c-0.09,4.586,0.102,9.17-1.323,13.597c-0.476,1.478-0.982,3.19-2.596,2.946c-1.737-0.262-1.869-2.091-1.491-3.635
		c2.002-8.176,1.554-16.082-1.749-23.788c-0.593-1.385-0.699-3.152,0.768-4.03c1.355-0.812,2.241,0.548,2.597,1.665
		c1.294,4.063,2.746,2.847,5.252,0.976C115.617,140.618,118.51,142.839,118.576,149.543z"/>
	<path fill-rule="evenodd" clip-rule="evenodd" fill="#EE2F2C" d="M176.789,77.84c-3.135-3.191-5.057-5.148-6.922-7.047
		c-2.78,1.31-3.619,5.393-7.988,5.807c2.163-5.013,4.021-10.384,8.468-10.108C173.683,66.7,176.092,71.421,176.789,77.84z"/>
	<path fill-rule="evenodd" clip-rule="evenodd" fill="#FEF4F3" d="M71.73,96.683c-1.283-1.362-5.022,2.04-4.206-2.509
		c0.848-4.728,2.508-9.594,7.91-9.809c4.238-0.167,5.654,4.288,5.369,7.342C80.254,97.551,75.082,95.566,71.73,96.683z"/>
	<path fill-rule="evenodd" clip-rule="evenodd" fill="#FEF4F3" d="M78.132,159.448c4.287-0.11,5.829,2.858,5.791,6.833
		c-0.037,3.87-1.435,6.949-5.681,7.008c-4.26,0.058-5.713-2.911-5.748-6.859C72.459,162.454,74.017,159.55,78.132,159.448z"/>
	<path fill-rule="evenodd" clip-rule="evenodd" fill="#FEF4F3" d="M177.644,96.99c-0.169,2.761-0.059,5.51-1.382,8.11
		c-2.062,4.051-5.116,5.713-9.155,5.145c-3.854-0.542-5.155-3.91-5.929-7.441c-0.424-1.933-0.31-4.034-0.285-6.058
		c0.101-8.521,3.146-12.779,8.859-12.486C175.046,84.531,177.692,88.808,177.644,96.99z"/>
	<path fill-rule="evenodd" clip-rule="evenodd" fill="#FEF4F3" d="M165.057,153.769c0.247-4.378,0.804-10.371,7.862-11.094
		c5.396-0.555,7.871,3.203,8.68,8.537c1.341,8.841-1.315,15.648-6.567,17.218C168.737,170.311,164.982,165.425,165.057,153.769z"/>
	<path fill-rule="evenodd" clip-rule="evenodd" fill="#FEF4F3" d="M202.587,153.851c0.246-4.394,0.769-10.403,7.813-11.175
		c5.392-0.59,7.896,3.143,8.726,8.481c1.363,8.794-1.286,15.654-6.513,17.256C206.315,170.34,202.528,165.464,202.587,153.851z"/>
</g>
</svg>
