<?xml version="1.0" encoding="utf-8"?>
<!-- Generator: Adobe Illustrator 16.0.0, SVG Export Plug-In . SVG Version: 6.00 Build 0)  -->
<!DOCTYPE svg PUBLIC "-//W3C//DTD SVG 1.1//EN" "http://www.w3.org/Graphics/SVG/1.1/DTD/svg11.dtd">
<svg version="1.1" id="Layer_1" xmlns="http://www.w3.org/2000/svg" xmlns:xlink="http://www.w3.org/1999/xlink" x="0px" y="0px"
	 width="280px" height="280px" viewBox="0 0 280 280" enable-background="new 0 0 280 280" xml:space="preserve">
<rect y="0.302" fill-rule="evenodd" clip-rule="evenodd" fill="#5890C4" width="280" height="280"/>
<g>
	<g>
		<path fill-rule="evenodd" clip-rule="evenodd" fill="#B1282A" d="M148.519,211.93c27.233,2.138,60.726-27.698,62.014-60.396
			c1.614-40.903-28.06-67.811-58.783-70.024c-36.465-2.626-67.073,27.336-66.629,67.304C85.479,181.153,114.177,214,148.519,211.93z
			 M131.397,182.82c-3.304,0.057-6.446-0.271-4.206-5.033c6.898-14.66,13.875-29.28,20.959-43.842
			c1.835-3.777,3.904-3.22,5.592,0.356c6.461,13.701,12.971,27.375,19.37,41.106c0.968,2.075,3.751,4.747,0.726,6.598
			c-2.667,1.633-6.033,1.449-8.621-1.54c-7.109-8.213-21.729-8.27-28.684-0.171C135.121,181.938,133.409,182.642,131.397,182.82z
			 M105.645,162.693c-0.512,3.882,1.385,6.46,2.079,9.353c0.735,3.059,0.593,5.551-2.885,6.621c-3.36,1.032-4.39-1.236-5.066-3.842
			c-2.583-9.946-5.112-19.908-7.592-29.885c-0.224-0.896-0.294-2.249,0.185-2.838c1.004-1.235,2.205-0.281,3.162,0.443
			c4.909,3.725,10.117,7.112,14.585,11.353c3.869,3.671,5.834,2.447,7.515-1.696c2.208-5.441,4.236-10.964,6.388-16.432
			c1.597-4.06,3.827-2.981,4.806,0.031c2.102,6.465,3.974,13.08,5.135,19.787c0.587,3.389-0.877,8.053-4.075,8.817
			c-3.027,0.723-2.125-4.339-3.757-6.343c-0.279-0.344-0.793-0.479-1.276-0.753c-3.01,3.334-2.533,9.711-6.864,11.18
			C113.228,170.106,111.089,162.607,105.645,162.693z M198.218,138.658c2.014,0.192,3.966,0.362,4.865,1.965
			c1.16,2.076-0.84,3.119-2.034,4.258c-1.621,1.547-3.157,3.288-5.012,4.455c-7.032,4.431-9.259,9.691-3.789,17.24
			c1.506,2.075,1.769,5.1,2.801,7.599c1.725,4.176-0.505,4.325-3.42,3.847c-6.087-0.998-6.837-7.019-8.729-11.299
			c-1.761-3.983-2.545-5.154-5.735-1.702c-1.345,1.457-2.705,4.169-5.292,1.467c-2.228-2.323-2.063-4.478,0.395-6.382
			c5.133-3.986,4.74-8.757,2.019-13.978c-1.481-2.844-2.894-5.733-4.223-8.657c-0.606-1.333-1.488-2.894-0.268-4.251
			c1.19-1.321,2.705-0.48,4.113-0.165c5.016,1.128,5.806,5.929,7.271,9.762c1.862,4.871,3.57,5.929,7.473,1.891
			C191.344,141.926,194.183,138.82,198.218,138.658z M110.268,106.649c3.188-8.475,9.811-12.289,16.753-15.775
			c20.168-10.126,38.348-3.553,55.923,7.366c1.423,0.884,4.467,2.351,3.012,4.973c-1.648,2.975-3.783-0.318-5.74-0.431
			c-0.411-0.023-0.765-0.606-1.189-0.846c-22.747-12.792-44.958-14.318-66.27,3.434C112.051,105.958,111.104,106.23,110.268,106.649
			z M178.96,192.943c-20.329,20.18-54.113,15.129-65.939-4.454C134.203,202.817,156.263,202.674,178.96,192.943z M137.134,104.112
			c1.907,0.096,4.115,0.006,6.247,0.385c1.731,0.307,2.728,2.54,1.13,3.121c-7.438,2.706-3.982,9.117-4.821,14.033
			c-0.362,2.124,0.529,5.516-2.238,5.626c-3.45,0.139-2.559-3.481-2.875-5.851c-0.421-3.148,1.315-6.892-1.354-9.338
			c-2-1.833-5.162-3.202-3.741-6.265C130.817,102.943,134.337,104.703,137.134,104.112z M158.024,114.898
			c1.572-3.191,2.726-5.691,4.017-8.113c0.928-1.737,2.487-2.701,4.268-1.75c2.287,1.223,0.839,3.03,0.162,4.536
			c-1.957,4.362-3.893,8.74-6.045,12.996c-0.72,1.419-1.073,3.793-3.21,3.533c-1.556-0.189-1.86-2.09-2.461-3.462
			c-2.37-5.42-4.798-10.813-7.364-16.579C154.196,104.685,154.289,111.467,158.024,114.898z"/>
		<path fill-rule="evenodd" clip-rule="evenodd" fill="#FFFFFF" d="M131.402,182.828c2.007-0.187,3.719-0.89,5.131-2.534
			c6.955-8.099,21.574-8.042,28.684,0.171c2.588,2.989,5.954,3.173,8.621,1.54c3.025-1.851,0.242-4.522-0.726-6.598
			c-6.399-13.731-12.909-27.405-19.37-41.106c-1.688-3.576-3.757-4.133-5.592-0.356c-7.084,14.562-14.061,29.182-20.959,43.842
			C124.951,182.55,128.093,182.877,131.402,182.828z M149.873,165.522c-1.061-1.612-5.543,2.083-4.651-2.739
			c0.667-3.614,1.284-9.503,5.115-9.64c3.353-0.119,4.218,5.736,5.004,9.142C156.304,166.451,152.37,164.866,149.873,165.522z"/>
		<path fill-rule="evenodd" clip-rule="evenodd" fill="#FFFFFF" d="M105.645,162.693c5.444-0.086,7.583,7.413,12.34,5.796
			c4.331-1.469,3.854-7.846,6.864-11.18c0.483,0.274,0.997,0.409,1.276,0.753c1.632,2.004,0.729,7.065,3.757,6.343
			c3.198-0.765,4.662-5.429,4.075-8.817c-1.161-6.707-3.033-13.321-5.135-19.787c-0.979-3.013-3.208-4.091-4.806-0.031
			c-2.152,5.468-4.18,10.991-6.388,16.432c-1.681,4.144-3.646,5.367-7.515,1.696c-4.469-4.24-9.676-7.628-14.585-11.353
			c-0.958-0.725-2.158-1.678-3.162-0.443c-0.479,0.589-0.409,1.941-0.185,2.838c2.479,9.977,5.009,19.938,7.592,29.885
			c0.676,2.605,1.707,4.874,5.066,3.842c3.478-1.07,3.62-3.563,2.885-6.621C107.03,169.153,105.133,166.575,105.645,162.693z"/>
		<path fill-rule="evenodd" clip-rule="evenodd" fill="#FFFFFF" d="M198.218,138.658c-4.035,0.162-6.874,3.268-9.566,6.051
			c-3.902,4.038-5.61,2.98-7.473-1.891c-1.465-3.833-2.255-8.634-7.271-9.762c-1.408-0.316-2.923-1.157-4.113,0.165
			c-1.221,1.357-0.339,2.918,0.268,4.251c1.329,2.924,2.741,5.813,4.223,8.657c2.722,5.221,3.114,9.991-2.019,13.978
			c-2.457,1.904-2.622,4.059-0.395,6.382c2.587,2.702,3.947-0.01,5.292-1.467c3.19-3.452,3.975-2.281,5.735,1.702
			c1.893,4.28,2.643,10.301,8.729,11.299c2.915,0.479,5.145,0.329,3.42-3.847c-1.032-2.499-1.295-5.523-2.801-7.599
			c-5.47-7.549-3.243-12.81,3.789-17.24c1.854-1.167,3.391-2.908,5.012-4.455c1.194-1.14,3.194-2.183,2.034-4.258
			C202.184,139.02,200.231,138.85,198.218,138.658z"/>
		<path fill-rule="evenodd" clip-rule="evenodd" fill="#FFFFFF" d="M110.268,106.649c0.835-0.419,1.783-0.69,2.489-1.279
			c21.312-17.752,43.522-16.226,66.27-3.434c0.425,0.239,0.778,0.822,1.189,0.846c1.957,0.113,4.092,3.405,5.74,0.431
			c1.455-2.623-1.589-4.089-3.012-4.973c-17.575-10.919-35.755-17.492-55.923-7.366C120.079,94.36,113.456,98.174,110.268,106.649z"
			/>
		<path fill-rule="evenodd" clip-rule="evenodd" fill="#FFFFFF" d="M178.96,192.943c-22.697,9.73-44.757,9.874-65.939-4.454
			C124.847,208.072,158.631,213.123,178.96,192.943z"/>
		<path fill-rule="evenodd" clip-rule="evenodd" fill="#FFFFFF" d="M137.134,104.112c-2.797,0.591-6.317-1.169-7.651,1.711
			c-1.421,3.063,1.741,4.431,3.741,6.265c2.669,2.446,0.933,6.189,1.354,9.338c0.315,2.37-0.575,5.99,2.875,5.851
			c2.767-0.11,1.876-3.502,2.238-5.626c0.838-4.916-2.617-11.328,4.821-14.033c1.598-0.581,0.602-2.813-1.13-3.121
			C141.249,104.119,139.041,104.208,137.134,104.112z"/>
		<path fill-rule="evenodd" clip-rule="evenodd" fill="#FFFFFF" d="M158.024,114.898c-3.735-3.432-3.828-10.214-10.634-8.839
			c2.566,5.766,4.994,11.159,7.364,16.579c0.601,1.372,0.905,3.273,2.461,3.462c2.137,0.261,2.49-2.114,3.21-3.533
			c2.152-4.255,4.088-8.634,6.045-12.996c0.677-1.506,2.125-3.313-0.162-4.536c-1.78-0.951-3.34,0.013-4.268,1.75
			C160.75,109.207,159.597,111.708,158.024,114.898z"/>
		<path fill-rule="evenodd" clip-rule="evenodd" fill="#B1282A" d="M149.873,165.522c2.497-0.656,6.431,0.929,5.468-3.237
			c-0.786-3.405-1.651-9.261-5.004-9.142c-3.831,0.137-4.448,6.025-5.115,9.64C144.33,167.605,148.813,163.91,149.873,165.522z"/>
	</g>
</g>
</svg>
