<?xml version="1.0" encoding="utf-8"?>
<!-- Generator: Adobe Illustrator 16.0.0, SVG Export Plug-In . SVG Version: 6.00 Build 0)  -->
<!DOCTYPE svg PUBLIC "-//W3C//DTD SVG 1.1//EN" "http://www.w3.org/Graphics/SVG/1.1/DTD/svg11.dtd">
<svg version="1.1" id="Layer_1" xmlns="http://www.w3.org/2000/svg" xmlns:xlink="http://www.w3.org/1999/xlink" x="0px" y="0px"
	 width="280px" height="280px" viewBox="0 0 280 280" enable-background="new 0 0 280 280" xml:space="preserve">
<rect fill="#A454A1" width="280" height="280"/>
<g>
	<path fill="#FFFFFF" d="M68.922,130.673h3.46c2.303-12.889,7.613-24.633,15.918-35.234l-2.768-2.764
		c-2.769-2.763-2.077-6.218,2.076-10.363c4.152-4.145,7.613-4.836,10.381-2.073l2.769,2.764
		c10.608-7.826,22.601-13.126,35.989-15.89V63.66c0-4.599,2.995-6.909,8.997-6.909c5.99,0,8.997,2.31,8.997,6.909v3.455
		c13.377,2.763,25.143,8.063,35.297,15.89l2.769-2.764c2.768-2.763,6.229-2.072,10.381,2.073s4.845,7.6,2.076,10.363l-2.769,2.764
		c7.841,9.672,13.15,21.654,15.919,35.925h3.46c4.606,0,6.921,3.001,6.921,8.98c0,5.991-2.314,8.981-6.921,8.981h-3.46
		c-1.85,13.364-7.159,25.108-15.919,35.234l2.769,2.763c2.769,2.764,2.076,6.218-2.076,10.363s-7.613,4.836-10.381,2.072
		l-2.769-2.763c-10.619,8.29-22.612,13.579-35.989,15.89v3.454c0,4.599-3.006,6.908-8.997,6.908c-6.002,0-8.997-2.31-8.997-6.908
		v-3.454c-12.923-1.846-24.688-7.146-35.297-15.89l-2.769,2.763c-2.769,2.764-6.229,2.073-10.381-2.072
		c-4.153-4.146-4.845-7.6-2.076-10.363l2.076-2.072c-8.305-11.507-13.388-23.716-15.226-36.615h-3.46
		c-4.618,0-6.921-2.99-6.921-8.981C62.001,133.674,64.305,130.673,68.922,130.673z M93.146,94.749
		c-9.689,11.518-15.918,24.645-18.687,39.379h-3.46c-3.698,0-5.537,1.846-5.537,5.527c0,3.691,1.838,5.526,5.537,5.526h3.46
		c2.303,14.746,8.067,28.099,17.302,40.07l-3.46,3.454c-1.849,1.846-1.384,4.146,1.384,6.909c2.769,2.763,5.072,3.228,6.921,1.382
		l4.153-4.146c11.527,9.672,24.45,15.426,38.757,17.271v4.146c0,3.681,1.839,5.526,5.537,5.526c3.688,0,5.537-1.846,5.537-5.526
		v-4.146c14.761-2.311,27.91-8.053,39.449-17.271l4.152,4.146c1.838,1.846,4.152,1.381,6.921-1.382
		c2.769-2.764,3.223-5.063,1.384-6.909l-4.845-4.836c9.689-9.208,15.681-21.87,17.995-37.997h4.152c3.688,0,5.537-1.835,5.537-5.527
		c0-3.681-1.85-5.526-5.537-5.526h-4.152c-2.314-14.735-8.543-27.861-18.687-39.379l4.152-4.145
		c1.839-1.835,1.611-3.908-0.692-6.218c-2.313-2.299-4.391-2.526-6.229-0.691l-4.152,4.145
		c-11.073-9.672-23.996-15.89-38.758-18.653v-4.145c0-3.681-1.849-5.527-5.536-5.527c-3.698,0-5.537,1.846-5.537,5.527v4.145
		c-14.772,2.31-28.149,8.291-40.142,17.962l-3.46-3.454c-1.849-1.835-3.925-1.608-6.229,0.691c-2.314,2.31-2.542,4.382-0.692,6.218
		L93.146,94.749z M85.533,134.818c2.768,0,4.152,1.62,4.152,4.836c0,3.228-1.384,4.836-4.152,4.836h-6.229
		c-2.769,0-4.152-1.608-4.152-4.836c0-3.216,1.384-4.836,4.152-4.836H85.533z M79.996,137.581c-1.384,0-2.076,0.691-2.076,2.073
		s0.692,2.072,2.076,2.072h4.845c1.384,0,2.076-0.69,2.076-2.072s-0.692-2.073-2.076-2.073H79.996z M113.908,145.181
		c-0.465-3.681-0.465-7.361,0-11.053H89.685c1.384-11.054,5.764-20.726,13.15-29.016l16.61,16.581c2.768-2.764,5.299-5.29,7.613-7.6
		l-16.61-16.581c8.759-7.362,18.687-11.745,29.76-13.126v24.18c3.688-0.454,7.375-0.454,11.073,0v-24.18
		c11.528,1.381,21.455,5.991,29.761,13.817l-15.919,15.89c2.304,1.846,4.38,3.918,6.229,6.218l15.918-15.89
		c7.84,8.755,12.458,18.891,13.842,30.398h-24.224c0.454,3.691,0.454,7.372,0,11.054h24.224
		c-1.384,11.054-6.002,20.726-13.842,29.016l-15.918-15.89c-1.85,2.311-4.152,4.609-6.921,6.909l15.918,15.89
		c-8.306,7.837-18.232,12.436-29.76,13.817v-24.181c-3.698,0.464-7.387,0.464-11.074,0v24.181
		c-10.619-0.918-20.07-5.29-28.375-13.127l15.918-15.89c-3.233-2.764-6.002-5.526-8.305-8.29l-15.918,15.89
		c-7.851-9.672-12.23-19.344-13.15-29.017H113.908z M107.68,95.439c1.838,1.846,1.611,3.918-0.692,6.218
		c-2.314,2.31-4.39,2.537-6.229,0.691l-4.845-4.836c-2.314-2.299-2.314-4.599,0-6.909c2.303-2.299,4.606-2.299,6.921,0
		L107.68,95.439z M100.759,177.651c1.838-1.835,3.915-1.608,6.229,0.691c2.304,2.31,2.531,4.382,0.692,6.218l-4.845,4.836
		c-2.314,2.31-4.618,2.31-6.921,0c-2.314-2.3-2.314-4.599,0-6.909L100.759,177.651z M114.601,130.673
		c0.919-1.835,1.838-3.908,2.768-6.218l-13.842-13.817c-4.618,5.527-7.613,12.209-8.997,20.035H114.601z M94.53,148.636
		c0,6.455,2.996,13.363,8.997,20.726l13.842-13.817c-0.93-2.299-1.849-4.599-2.768-6.908H94.53z M97.298,184.561
		c-0.93,0.928-0.93,1.846,0,2.763c1.384,1.382,2.53,1.619,3.46,0.691l4.844-4.836c0.919-0.918,0.919-1.835,0-2.764
		c-1.384-1.382-2.541-1.608-3.46-0.691L97.298,184.561z M100.759,91.985c-0.93-0.917-1.85-0.917-2.769,0
		c-1.384,1.382-1.622,2.537-0.692,3.455l4.844,4.836c0.919,0.928,1.838,0.928,2.769,0c1.384-1.382,1.611-2.526,0.692-3.454
		L100.759,91.985z M129.827,112.02c2.303-0.917,4.607-1.835,6.921-2.763V88.531c-8.306,1.846-15.227,5.074-20.763,9.672
		L129.827,112.02z M136.056,170.743c-1.85-0.918-3.926-1.835-6.229-2.764l-13.842,13.817c5.537,5.073,12.22,8.29,20.071,9.672
		V170.743z M117.369,139.654c0,7.837,2.769,14.508,8.305,20.035c5.537,5.526,11.993,8.29,19.379,8.29
		c7.84,0,14.534-2.764,20.07-8.29c5.537-5.527,8.306-11.972,8.306-19.345c0-7.826-2.769-14.507-8.306-20.034
		c-5.536-5.527-12.003-8.291-19.378-8.291c-7.852,0-14.535,2.764-20.071,8.291S117.369,132.292,117.369,139.654z M164.432,142.418
		h-17.303v17.271c0,1.382-0.692,2.072-2.076,2.072s-2.076-0.69-2.076-2.072v-17.271h-17.303c-1.384,0-2.076-0.691-2.076-2.073
		s0.692-2.072,2.076-2.072h17.303v-17.271c0-1.382,0.692-2.073,2.076-2.073s2.076,0.691,2.076,2.073v17.271h17.303
		c1.384,0,2.076,0.69,2.076,2.072S165.815,142.418,164.432,142.418z M133.287,132.746c-1.384,0-2.542-0.454-3.46-1.382
		c-0.465-0.454-0.692-1.382-0.692-2.764c0-1.381,0.227-2.299,0.692-2.763c0.919-0.917,2.077-1.382,3.46-1.382
		c1.385,0,2.53,0.464,3.461,1.382c0.454,0.464,0.691,1.382,0.691,2.763c0,1.382-0.237,2.31-0.691,2.764
		C135.817,132.292,134.672,132.746,133.287,132.746z M133.287,156.234c-1.384,0-2.542-0.453-3.46-1.381
		c-0.465-0.454-0.692-1.382-0.692-2.764s0.227-2.3,0.692-2.764c0.919-0.918,2.077-1.382,3.46-1.382c1.385,0,2.53,0.464,3.461,1.382
		c0.454,0.464,0.691,1.382,0.691,2.764s-0.237,2.31-0.691,2.764C135.817,155.781,134.672,156.234,133.287,156.234z M140.208,199.759
		c0-2.763,1.611-4.145,4.845-4.145c3.223,0,4.845,1.382,4.845,4.145v6.218c0,2.764-1.622,4.146-4.845,4.146
		c-3.233,0-4.845-1.382-4.845-4.146V199.759z M150.59,80.24c0,2.764-1.622,4.146-4.845,4.146c-3.233,0-4.845-1.382-4.845-4.146
		v-6.218c0-2.763,1.611-4.145,4.845-4.145c3.223,0,4.845,1.382,4.845,4.145V80.24z M142.977,205.286
		c0,1.382,0.692,2.072,2.076,2.072s2.076-0.69,2.076-2.072v-4.836c0-1.382-0.692-2.073-2.076-2.073s-2.076,0.691-2.076,2.073
		V205.286z M147.821,74.713c0-1.382-0.692-2.072-2.076-2.072c-1.385,0-2.076,0.69-2.076,2.072v4.836
		c0,1.382,0.691,2.073,2.076,2.073c1.384,0,2.076-0.691,2.076-2.073V74.713z M156.818,132.746c-1.384,0-2.541-0.454-3.461-1.382
		c-0.465-0.454-0.691-1.382-0.691-2.764c0-1.381,0.227-2.299,0.691-2.763c0.92-0.917,2.077-1.382,3.461-1.382
		s2.53,0.464,3.461,1.382c0.454,0.464,0.691,1.382,0.691,2.763c0,1.382-0.237,2.31-0.691,2.764
		C159.349,132.292,158.202,132.746,156.818,132.746z M156.818,156.234c-1.384,0-2.541-0.453-3.461-1.381
		c-0.465-0.454-0.691-1.382-0.691-2.764s0.227-2.3,0.691-2.764c0.92-0.918,2.077-1.382,3.461-1.382s2.53,0.464,3.461,1.382
		c0.454,0.464,0.691,1.382,0.691,2.764s-0.237,2.31-0.691,2.764C159.349,155.781,158.202,156.234,156.818,156.234z M162.355,167.979
		c-2.769,0.929-5.537,1.846-8.306,2.764v20.726c7.84-0.918,14.988-4.372,21.455-10.363L162.355,167.979z M175.505,98.894
		c-5.537-5.98-12.458-9.435-20.763-10.363v20.726c2.769,0.928,5.299,1.846,7.613,2.763L175.505,98.894z M173.429,123.074
		c1.384,2.764,2.304,5.527,2.769,8.291h20.07c-0.93-8.291-4.152-15.426-9.689-21.417L173.429,123.074z M176.889,149.326
		c-0.93,2.764-2.076,5.3-3.46,7.6l13.149,13.126c5.537-6.444,8.76-13.353,9.689-20.726H176.889z M190.039,102.348
		c-1.85,1.846-3.926,1.619-6.229-0.691c-2.313-2.299-2.541-4.372-0.691-6.218l4.845-4.836c2.303-2.299,4.606-2.299,6.921,0
		c2.303,2.31,2.303,4.609,0,6.909L190.039,102.348z M183.118,184.561c-1.85-1.836-1.622-3.908,0.691-6.218
		c2.304-2.3,4.38-2.526,6.229-0.691l4.845,4.836c2.303,2.311,2.303,4.609,0,6.909c-2.314,2.31-4.618,2.31-6.921,0L183.118,184.561z
		 M193.499,95.439c0.92-0.917,0.92-1.835,0-2.764c-1.384-1.381-2.541-1.608-3.46-0.691l-4.845,4.836c-0.93,0.928-0.93,1.846,0,2.763
		c1.384,1.382,2.53,1.619,3.46,0.691L193.499,95.439z M190.039,188.015c0.919,0.928,1.838,0.928,2.769,0
		c1.384-1.382,1.611-2.526,0.691-3.454l-4.845-4.837c-0.93-0.917-1.849-0.917-2.768,0c-1.385,1.382-1.622,2.537-0.692,3.455
		L190.039,188.015z M205.265,145.181c-2.769,0-4.152-1.608-4.152-4.836c0-3.217,1.384-4.835,4.152-4.835h6.229
		c2.768,0,4.152,1.619,4.152,4.835c0,3.228-1.385,4.836-4.152,4.836H205.265z M210.802,142.418c1.384,0,2.076-0.691,2.076-2.073
		s-0.692-2.072-2.076-2.072h-4.845c-1.384,0-2.076,0.69-2.076,2.072s0.692,2.073,2.076,2.073H210.802z"/>
</g>
</svg>
