<?xml version="1.0" encoding="utf-8"?>
<!-- Generator: Adobe Illustrator 16.0.0, SVG Export Plug-In . SVG Version: 6.00 Build 0)  -->
<!DOCTYPE svg PUBLIC "-//W3C//DTD SVG 1.1//EN" "http://www.w3.org/Graphics/SVG/1.1/DTD/svg11.dtd">
<svg version="1.1" id="Layer_1" xmlns="http://www.w3.org/2000/svg" xmlns:xlink="http://www.w3.org/1999/xlink" x="0px" y="0px"
	 width="280px" height="280px" viewBox="0 0 280 280" enable-background="new 0 0 280 280" xml:space="preserve">
<rect fill="#54AADE" width="280" height="280"/>
<g>
	<path fill-rule="evenodd" clip-rule="evenodd" fill="#FFFFFF" d="M25.182,104.147c14.668-0.006,29.337-0.013,44.005-0.019
		c1.257,0,2.515,0.027,3.772-0.011c0.546-0.016,0.728,0.269,0.727,1.032c-0.014,7.167-0.023,14.334,0.006,21.502
		c0.005,1.258-0.544,1.057-1.069,1.057c-8.921,0.002-17.842,0-26.763,0.001c-1.3,0-1.301,0.001-1.303,1.856
		c-0.004,4.807-0.009,9.613-0.011,14.419c0,1.623,0.003,1.625,1.203,1.625c7.574,0.002,15.147,0.02,22.721-0.025
		c0.852-0.006,1.121,0.299,1.112,1.535c-0.043,6.238-0.036,12.479-0.004,18.719c0.006,1.059-0.221,1.346-0.961,1.342
		c-7.664-0.033-15.327-0.002-22.991-0.047c-0.862-0.004-1.122,0.322-1.11,1.549c0.047,4.975,0.046,9.951,0,14.926
		c-0.011,1.199,0.277,1.48,1.08,1.477c8.951-0.033,17.902-0.021,26.853-0.02c1.226,0,1.228,0.002,1.228,1.711
		c0.001,6.789-0.021,13.576,0.02,20.365c0.008,1.219-0.233,1.547-1.098,1.545c-15.806-0.035-31.612-0.027-47.418-0.027
		C25.182,173.821,25.182,138.985,25.182,104.147z"/>
	<path fill-rule="evenodd" clip-rule="evenodd" fill="#FFFFFF" d="M185.627,101.111c0.083,0.619,0.449,0.448,0.717,0.478
		c4.809,0.525,9.531,1.749,14.203,3.408c0.56,0.199,0.756,0.548,0.775,1.376c0.172,7.332,0.069,14.666,0.128,22
		c0.008,1.047-0.263,1.18-0.916,0.967c-4.195-1.363-8.433-2.439-12.729-2.838c-2.917-0.27-5.868-0.484-8.734,0.711
		c-1.889,0.788-3.546,2.087-4.47,4.693c-0.922,2.601-0.495,5.041,1.095,6.885c1.17,1.357,2.609,1.842,3.979,2.545
		c4.829,2.483,9.75,4.653,14.487,7.446c7.402,4.361,11.082,12.58,11.622,23.77c0.313,6.471-0.256,12.709-2.27,18.572
		c-2.693,7.842-7.212,12.85-12.872,15.996c-2.178,1.211-4.432,2.02-6.738,2.557c-0.244,0.057-0.574-0.066-0.613,0.5
		c-0.119,0-0.239,0-0.359,0c-0.239-0.4-0.479-0.309-0.719,0c-5.21,0-10.421,0-15.631,0c-0.239-0.326-0.479-0.387-0.719,0
		c-0.18,0-0.359,0-0.539,0c-0.483-0.965-1.258-0.539-1.873-0.66c-2.071-0.406-4.13-0.918-6.197-1.361
		c-0.483-0.104-0.746-0.34-0.739-1.115c0.067-7.842-0.043-15.686,0.117-23.527c0.022-1.066,0.227-1.281,0.961-0.994
		c5.868,2.291,11.856,3.184,17.934,2.83c3.075-0.18,6.079-0.846,8.666-3.5c1.8-1.846,2.421-4.199,1.781-6.807
		c-0.388-1.576-1.247-2.529-2.214-3.348c-1.373-1.164-2.912-1.754-4.398-2.518c-3.849-1.979-7.719-3.873-11.561-5.877
		c-6.924-3.611-11.018-10.721-12.302-20.818c-1.308-10.269,0.205-19.814,4.791-28.136c3.819-6.932,8.998-10.792,15.046-12.525
		c0.494-0.142,1.163,0.215,1.487-0.709c0.18,0,0.359,0,0.539,0c0.239,0.393,0.479,0.324,0.719,0c1.856,0,3.713,0,5.569,0
		c0.359,0.327,0.719,0.412,1.078,0C185.028,101.111,185.327,101.111,185.627,101.111z"/>
	<path fill-rule="evenodd" clip-rule="evenodd" fill="#FFFFFF" d="M234.856,210.177c-0.006-2.656-0.019-5.313-0.019-7.969
		c-0.001-24.969-0.006-49.936,0.018-74.904c0.001-1.13-0.176-1.475-1.013-1.455c-3.233,0.075-6.469,0.008-9.702,0.051
		c-0.632,0.008-0.804-0.254-0.801-1.137c0.024-7,0.026-14.001-0.003-21.002c-0.004-0.887,0.221-1.047,0.773-1.045
		c10.001,0.04,20.001,0.068,30.002,0.062c0.649,0,0.708,0.378,0.707,1.12c-0.012,7.465-0.004,14.93-0.004,22.396
		c0.001,27.666,0.001,55.333,0,83c0,0.295-0.01,0.59-0.016,0.885C248.152,210.177,241.504,210.177,234.856,210.177z"/>
	<path fill-rule="evenodd" clip-rule="evenodd" fill="#FFFFFF" d="M184.729,101.111c-0.359,0.412-0.719,0.327-1.078,0
		C184.01,101.111,184.369,101.111,184.729,101.111z"/>
	<path fill-rule="evenodd" clip-rule="evenodd" fill="#FFFFFF" d="M178.081,101.111c-0.239,0.324-0.479,0.393-0.719,0
		C177.602,101.111,177.842,101.111,178.081,101.111z"/>
	<path fill-rule="evenodd" clip-rule="evenodd" fill="#FFFFFF" d="M165.863,210.177c0.239-0.387,0.479-0.326,0.719,0
		C166.343,210.177,166.103,210.177,165.863,210.177z"/>
	<path fill-rule="evenodd" clip-rule="evenodd" fill="#FFFFFF" d="M182.213,210.177c0.24-0.309,0.479-0.4,0.719,0
		C182.692,210.177,182.453,210.177,182.213,210.177z"/>
	<path fill-rule="evenodd" clip-rule="evenodd" fill="#FFFFFF" d="M135.543,156.501c0.54,0.436,1.087,0.855,1.616,1.311
		c4.381,3.768,6.725,9.365,7.52,16.416c0.58,5.148,0.354,10.156-1.043,15.01c-2.355,8.188-6.744,13.32-12.495,16.359
		c-3.935,2.08-8.039,2.998-12.215,3.037c-9.878,0.092-19.757,0.027-29.635,0.066c-0.792,0.002-1.073-0.246-1.072-1.455
		c0.024-33.896,0.022-67.795,0.004-101.693c0-1.068,0.161-1.453,0.984-1.449c9.968,0.046,19.938-0.101,29.904,0.099
		c5.628,0.113,11.057,1.786,15.854,6.26c5.146,4.797,8.104,11.567,8.814,20.191c0.574,6.96-0.28,13.518-3.212,19.344
		c-1.136,2.258-2.579,4.086-4.232,5.588C136.068,155.827,135.729,155.96,135.543,156.501z M107.505,175.761
		c0,2.908,0.013,5.818-0.008,8.727c-0.006,0.762,0.14,1.105,0.727,1.229c2.711,0.568,5.427,0.646,8.133,0.096
		c2.505-0.512,4.912-1.469,6.956-3.746c2.711-3.02,2.951-8.314,0.519-11.762c-1.034-1.467-2.279-2.445-3.649-3.125
		c-3.931-1.951-7.96-2.051-12.038-1.26c-0.556,0.107-0.646,0.574-0.643,1.242C107.513,170.028,107.506,172.894,107.505,175.761z
		 M107.505,137.301c0,2.78,0.032,5.561-0.016,8.34c-0.019,1.102,0.279,1.426,1.018,1.547c2.263,0.371,4.521,0.6,6.792,0.217
		c2.691-0.453,5.317-1.219,7.577-3.5c1.329-1.342,2.326-3.035,2.56-5.412c0.358-3.633-0.71-6.392-2.854-8.208
		c-4.559-3.86-9.545-3.836-14.604-2.854c-0.58,0.113-0.465,0.762-0.467,1.276C107.5,131.572,107.505,134.437,107.505,137.301z"/>
</g>
</svg>
