<?xml version="1.0" encoding="utf-8"?>
<!-- Generator: Adobe Illustrator 16.0.0, SVG Export Plug-In . SVG Version: 6.00 Build 0)  -->
<!DOCTYPE svg PUBLIC "-//W3C//DTD SVG 1.1//EN" "http://www.w3.org/Graphics/SVG/1.1/DTD/svg11.dtd">
<svg version="1.1" id="Layer_1" xmlns="http://www.w3.org/2000/svg" xmlns:xlink="http://www.w3.org/1999/xlink" x="0px" y="0px"
	 width="280px" height="280px" viewBox="0 0 280 280" enable-background="new 0 0 280 280" xml:space="preserve">
<rect fill="#F7B719" width="280" height="280"/>
<g>
	<path fill-rule="evenodd" clip-rule="evenodd" fill="#FAFCFE" d="M127.842,139.164c3.234,2.003,5.079,4.734,5.674,8.235
		c1.148,6.746-4.196,12.874-11.81,13.02c-8.575,0.163-17.157,0.014-25.735,0.056c-1.288,0.007-1.639-0.379-1.636-1.493
		c0.036-12.42,0.038-24.84-0.003-37.261c-0.003-1.179,0.479-1.46,1.697-1.453c7.535,0.047,15.071,0.047,22.606,0.045
		c1.436,0,2.828,0.239,4.181,0.599c4.252,1.134,7.501,3.293,8.638,7.34C132.717,132.753,131.648,135.912,127.842,139.164z
		 M110.992,142.785c0-0.01,0-0.019,0-0.028c-2.084,0-4.17,0.033-6.253-0.015c-1.067-0.024-1.434,0.345-1.418,1.286
		c0.045,2.799,0.035,5.598,0.005,8.396c-0.01,0.866,0.215,1.403,1.341,1.384c4.538-0.082,9.089,0.253,13.612-0.2
		c2.41-0.241,4.418-1.178,5.187-3.489c1.25-3.759-1.365-7.018-5.999-7.311C115.318,142.673,113.151,142.785,110.992,142.785z
		 M110.785,136.163c0-0.008,0-0.016,0-0.023c1.938,0,3.881,0.079,5.813-0.018c3.409-0.168,5.246-1.676,5.396-4.272
		c0.149-2.557-1.563-4.312-4.884-4.763c-4.147-0.563-8.335-0.122-12.501-0.257c-1.205-0.04-1.289,0.602-1.282,1.416
		c0.021,2.135,0.06,4.272-0.016,6.405c-0.039,1.121,0.386,1.568,1.659,1.528C106.907,136.118,108.847,136.163,110.785,136.163z"/>
	<path fill-rule="evenodd" clip-rule="evenodd" fill="#F7FAFD" d="M64.083,140.948c0,5.886-0.071,11.694,0.045,17.499
		c0.034,1.666-0.453,2.253-2.344,2.106c-1.927-0.148-3.881-0.084-5.819-0.016c-1.189,0.042-1.511-0.359-1.508-1.389
		c0.033-12.494,0.031-24.988,0.001-37.482c-0.002-1.005,0.275-1.538,1.489-1.386c0.073,0.009,0.149-0.003,0.224,0
		c2.526,0.085,5.789-0.918,7.379,0.357c1.621,1.299,0.459,4.273,0.509,6.511c0.084,3.713,0.023,7.429,0.023,11.143
		c0.186,0.068,0.372,0.136,0.558,0.204c2.226-2.523,4.459-5.042,6.674-7.573c2.76-3.154,5.501-6.322,8.261-9.478
		c0.494-0.565,0.899-1.188,1.918-1.177c3.721,0.04,7.443,0.016,11.631,0.016c-3.431,3.795-6.589,7.294-9.756,10.788
		c-2.162,2.385-4.272,4.813-6.534,7.121c-1.044,1.066-1.022,1.766-0.031,2.88c5.299,5.954,10.495,11.981,15.726,17.984
		c0.316,0.362,0.62,0.734,1.221,1.445c-4.558,0-8.756,0.009-12.954-0.008c-0.917-0.003-1.15-0.78-1.562-1.297
		c-4.506-5.652-8.985-11.321-13.491-16.974C65.354,141.736,65.162,140.997,64.083,140.948z"/>
	<path fill-rule="evenodd" clip-rule="evenodd" fill="#FAFCFE" d="M149.783,160.519c-4.18,0-8.359-0.036-12.537,0.021
		c-1.29,0.018-1.811-0.239-1.84-1.528c-0.114-5.047-0.17-5.046,5.502-5.046c5.374,0,10.747,0.049,16.119-0.013
		c5.044-0.058,7.99-3.724,6.263-7.707c-1.014-2.338-3.185-3.24-5.778-3.486c-4.233-0.4-8.516,0.232-12.733-0.367
		c-4.763-0.678-8.812-2.461-10.23-6.951c-1.398-4.427-0.791-8.646,3.124-12.018c2.348-2.022,5.3-3.033,8.522-3.071
		c7.908-0.094,15.819-0.037,23.729-0.086c1.174-0.007,1.494,0.346,1.543,1.378c0.245,5.112,0.28,5.106-5.384,5.125
		c-4.999,0.016-9.998,0.032-14.997,0.075c-0.812,0.007-1.64,0.083-2.43,0.246c-2.726,0.564-4.401,2.459-4.219,4.689
		c0.191,2.322,2.267,4.113,5.109,4.182c3.579,0.087,7.164-0.011,10.745,0.033c6.971,0.085,12.528,3.798,13.95,9.265
		c2.146,8.253-4.033,15.245-13.488,15.259C157.096,160.523,153.439,160.52,149.783,160.519z"/>
	<path fill-rule="evenodd" clip-rule="evenodd" fill="#F7B719" d="M110.992,142.785c2.159,0,4.327-0.112,6.475,0.023
		c4.634,0.293,7.248,3.552,5.999,7.311c-0.769,2.312-2.777,3.248-5.187,3.489c-4.523,0.453-9.074,0.118-13.612,0.2
		c-1.125,0.02-1.351-0.518-1.341-1.384c0.03-2.799,0.04-5.598-0.005-8.396c-0.016-0.941,0.351-1.311,1.418-1.286
		c2.083,0.048,4.169,0.015,6.253,0.015C110.992,142.767,110.992,142.775,110.992,142.785z"/>
	<path fill-rule="evenodd" clip-rule="evenodd" fill="#F7B719" d="M110.785,136.163c-1.938,0-3.878-0.045-5.814,0.016
		c-1.273,0.04-1.698-0.408-1.659-1.528c0.075-2.133,0.036-4.27,0.016-6.405c-0.007-0.814,0.077-1.456,1.282-1.416
		c4.166,0.135,8.354-0.306,12.501,0.257c3.322,0.451,5.033,2.207,4.884,4.763c-0.151,2.597-1.988,4.104-5.396,4.272
		c-1.932,0.096-3.875,0.018-5.813,0.018C110.785,136.147,110.785,136.155,110.785,136.163z"/>
</g>
<g>
	<path fill-rule="evenodd" clip-rule="evenodd" fill="#FEFDF9" d="M208.977,149.842c4.905-4.099,7.604-8.434,7.345-14.094
		c-0.297-6.475-5.479-12.042-12.662-13.272c-6.874-1.177-14.847,2.665-17.396,8.382c-0.886,1.984-0.084,4.028,1.973,5.029
		c2.05,0.998,4.346,0.373,5.766-1.695c1.309-1.907,2.798-3.491,5.441-3.889c2.761-0.417,5.188,0.106,6.821,2.196
		c1.832,2.347,2.027,4.976,0.567,7.562c-1.541,2.728-4.197,4.418-7.027,5.961c-6.765,3.689-14.18,4.183-21.801,3.836
		c-1.156-0.054-1.39-0.82-1.66-1.502c-5.376-13.531,2.691-27.32,17.098-31.208c14.193-3.831,29.582,4.134,32.873,17.519
		c1.174,4.774,0.774,9.477-1.307,14.026c-0.252,0.551-0.369,1.177-1.354,1.169C218.948,149.819,214.243,149.842,208.977,149.842z"/>
	<path fill-rule="evenodd" clip-rule="evenodd" fill="#FEFCF7" d="M217.238,157.891c-7.649,7.275-26.107,7.217-32.806,0
		C195.327,157.891,206.125,157.891,217.238,157.891z"/>
</g>
</svg>
