<?xml version="1.0" encoding="utf-8"?>
<!-- Generator: Adobe Illustrator 16.0.0, SVG Export Plug-In . SVG Version: 6.00 Build 0)  -->
<!DOCTYPE svg PUBLIC "-//W3C//DTD SVG 1.1//EN" "http://www.w3.org/Graphics/SVG/1.1/DTD/svg11.dtd">
<svg version="1.1" id="Layer_1" xmlns="http://www.w3.org/2000/svg" xmlns:xlink="http://www.w3.org/1999/xlink" x="0px" y="0px"
	 width="280px" height="280px" viewBox="0 0 280 280" enable-background="new 0 0 280 280" xml:space="preserve">
<rect fill="#2C358D" width="280" height="280"/>
<g>
	<path fill-rule="evenodd" clip-rule="evenodd" fill="#FAFCFE" d="M141.934,127.235c3.234,2.003,5.079,4.734,5.674,8.235
		c1.148,6.746-4.195,12.874-11.809,13.02c-8.575,0.163-17.157,0.014-25.735,0.056c-1.288,0.007-1.639-0.379-1.636-1.493
		c0.036-12.42,0.038-24.84-0.003-37.261c-0.003-1.179,0.479-1.46,1.697-1.453c7.535,0.047,15.071,0.047,22.606,0.045
		c1.436,0,2.828,0.239,4.181,0.599c4.252,1.134,7.501,3.293,8.637,7.34C146.809,120.825,145.74,123.983,141.934,127.235z
		 M125.083,130.856c0-0.01,0-0.019,0-0.028c-2.084,0-4.17,0.033-6.253-0.015c-1.067-0.024-1.434,0.345-1.418,1.286
		c0.045,2.799,0.035,5.598,0.005,8.396c-0.01,0.866,0.215,1.403,1.341,1.384c4.538-0.082,9.089,0.253,13.612-0.2
		c2.41-0.241,4.418-1.178,5.187-3.489c1.25-3.759-1.365-7.018-5.999-7.311C129.41,130.744,127.243,130.856,125.083,130.856z
		 M124.877,124.234c0-0.008,0-0.016,0-0.023c1.938,0,3.881,0.079,5.813-0.018c3.409-0.168,5.246-1.676,5.396-4.272
		c0.149-2.557-1.563-4.312-4.884-4.763c-4.147-0.563-8.335-0.122-12.501-0.257c-1.205-0.04-1.289,0.602-1.282,1.416
		c0.021,2.135,0.06,4.272-0.016,6.405c-0.039,1.121,0.386,1.568,1.659,1.528C120.999,124.189,122.939,124.234,124.877,124.234z"/>
	<path fill-rule="evenodd" clip-rule="evenodd" fill="#F7FAFD" d="M78.174,129.02c0,5.886-0.071,11.694,0.045,17.499
		c0.034,1.666-0.453,2.253-2.344,2.106c-1.927-0.148-3.881-0.084-5.819-0.016c-1.189,0.042-1.511-0.359-1.508-1.389
		c0.033-12.494,0.031-24.988,0.001-37.482c-0.002-1.005,0.275-1.538,1.489-1.386c0.073,0.009,0.149-0.003,0.224,0
		c2.526,0.085,5.789-0.918,7.379,0.357c1.621,1.299,0.459,4.273,0.509,6.511c0.084,3.713,0.023,7.429,0.023,11.143
		c0.186,0.068,0.372,0.136,0.558,0.204c2.226-2.523,4.459-5.042,6.674-7.573c2.76-3.154,5.501-6.322,8.261-9.478
		c0.494-0.565,0.899-1.188,1.918-1.177c3.721,0.04,7.443,0.016,11.631,0.016c-3.431,3.795-6.589,7.294-9.756,10.788
		c-2.162,2.385-4.272,4.813-6.534,7.121c-1.044,1.066-1.022,1.766-0.031,2.88c5.299,5.954,10.495,11.981,15.726,17.984
		c0.316,0.362,0.62,0.734,1.221,1.445c-4.558,0-8.756,0.009-12.954-0.008c-0.917-0.003-1.15-0.78-1.562-1.297
		c-4.506-5.652-8.985-11.321-13.491-16.974C79.446,129.808,79.254,129.068,78.174,129.02z"/>
	<path fill-rule="evenodd" clip-rule="evenodd" fill="#FAFCFE" d="M163.875,148.59c-4.18,0-8.359-0.036-12.537,0.021
		c-1.29,0.018-1.811-0.239-1.84-1.528c-0.114-5.047-0.17-5.046,5.502-5.046c5.374,0,10.747,0.049,16.119-0.013
		c5.044-0.058,7.99-3.724,6.263-7.707c-1.014-2.338-3.185-3.24-5.778-3.486c-4.233-0.4-8.516,0.232-12.733-0.367
		c-4.763-0.678-8.812-2.461-10.229-6.951c-1.398-4.427-0.791-8.646,3.123-12.018c2.348-2.022,5.3-3.033,8.522-3.071
		c7.908-0.094,15.819-0.037,23.729-0.086c1.174-0.007,1.494,0.346,1.543,1.378c0.245,5.112,0.28,5.106-5.384,5.125
		c-4.999,0.016-9.998,0.032-14.997,0.075c-0.812,0.007-1.64,0.083-2.43,0.246c-2.726,0.564-4.401,2.459-4.219,4.689
		c0.191,2.322,2.267,4.113,5.109,4.182c3.579,0.087,7.164-0.011,10.745,0.033c6.971,0.085,12.528,3.798,13.95,9.265
		c2.146,8.253-4.033,15.245-13.488,15.259C171.188,148.595,167.531,148.591,163.875,148.59z"/>
	<path fill-rule="evenodd" clip-rule="evenodd" fill="#2C358D" d="M125.083,130.856c2.159,0,4.327-0.112,6.475,0.023
		c4.634,0.293,7.248,3.552,5.999,7.311c-0.769,2.312-2.777,3.248-5.187,3.489c-4.523,0.453-9.074,0.118-13.612,0.2
		c-1.125,0.02-1.351-0.518-1.341-1.384c0.03-2.799,0.04-5.598-0.005-8.396c-0.016-0.941,0.351-1.311,1.418-1.286
		c2.083,0.048,4.169,0.015,6.253,0.015C125.083,130.838,125.083,130.847,125.083,130.856z"/>
	<path fill-rule="evenodd" clip-rule="evenodd" fill="#2C358D" d="M124.877,124.234c-1.938,0-3.878-0.045-5.814,0.016
		c-1.273,0.04-1.698-0.408-1.659-1.528c0.075-2.133,0.036-4.27,0.016-6.405c-0.007-0.814,0.077-1.456,1.282-1.416
		c4.166,0.135,8.354-0.306,12.501,0.257c3.322,0.451,5.033,2.207,4.884,4.763c-0.151,2.597-1.988,4.104-5.396,4.272
		c-1.932,0.096-3.875,0.018-5.813,0.018C124.877,124.219,124.877,124.227,124.877,124.234z"/>
</g>
<g>
	<path fill-rule="evenodd" clip-rule="evenodd" fill="#2C358D" d="M105.39,169.721c-0.539-2.677-0.448-5.357-0.056-8.039
		c2.466,0.014,4.957,0.252,7.393-0.014c3.633-0.396,7.549,1.398,10.892-1.323c0.389-2.957-0.707-4.081-3.857-3.942
		c-5.819,0.258-11.663,0.219-17.486,0.012c-2.84-0.1-3.665,0.785-3.615,3.613c0.185,10.492,0.123,20.987,0.154,31.481
		c0.804,0.992,1.91,1.2,3.098,1.2c6.089-0.001,12.177-0.001,18.266,0.001c1.353,0.001,2.649-0.123,3.421-1.47
		c0.35-2.831-0.452-4.417-3.749-4.008c-2.124,0.265-4.309,0.1-6.464,0.042c-9.658-0.256-8.053,1.915-8.383-8.374
		c-0.086-2.706,0.827-3.397,3.332-3.273c3.476,0.172,6.968,0.108,10.45,0.013c1.466-0.041,3.577,0.795,3.681-1.952
		c0.11-2.918-2.128-1.798-3.528-2.003c-4.464-0.654-9.114,1.223-13.472-0.972c0.109-0.105,0.328-0.251,0.307-0.309
		C105.686,170.162,105.525,169.945,105.39,169.721z M205.677,160.529c0.341-2.555,0.299-4.391-3.355-4.141
		c-5.623,0.383-11.293,0.021-16.931,0.274c-5.321,0.239-8.236,3.047-8.639,7.751c-0.467,5.457,1.935,8.928,7.022,10.457
		c3.602,1.082,7.259,0.589,10.889,0.607c3.714,0.02,6.678,0.855,7.033,5.178c0.324,3.948-2.21,6.397-6.948,6.58
		c-4.313,0.165-8.653,0.277-12.95-0.031c-3.179-0.229-4.185,1.046-4.003,3.903c2.328,2.907,5.6,1.656,8.348,1.489
		c4.804-0.29,9.867,1.772,14.413-1.295c6.192-2.649,8.247-6.35,7.138-12.85c-0.813-4.765-4.931-7.629-11.145-7.713
		c-2.816-0.037-5.635-0.047-8.45,0c-2.462,0.039-4.179-1.107-4.943-3.345c-0.796-2.327-0.591-4.528,1.959-5.835
		c1.824,0.054,3.669,0.309,5.469,0.121C195.605,161.159,200.816,163.071,205.677,160.529z M87.067,156.872
		c-2.276,1.987-1.005,4.647-1.319,7.004c-0.662,4.977,1.367,10.195-1.34,14.991c-2.224-5.312-4.959-10.477-6.527-15.975
		c-1.578-5.532-4.541-7.165-9.973-6.547c-2.712,0.309-3.668,0.809-3.605,3.674c0.187,8.49,0.402,17.005-0.06,25.473
		c-0.275,5.052,1.161,7.092,6.21,6.134c1.729-1.347,1.255-3.279,1.271-5.038c0.048-5.11,0.068-10.222-0.007-15.332
		c-0.028-1.918,0.278-2.955,2.372-1.671c1.84,4.198,3.745,8.369,5.507,12.601c3.913,9.396,3.884,9.408,13.802,9.421
		c1.457-0.999,1.336-2.532,1.337-4.009c0.006-9.057,0.002-18.113,0.002-27.17c0-1.329-0.015-2.652-1.063-3.676
		C91.464,156.359,89.259,156.245,87.067,156.872z M173.584,156.977c-5.275-1.757-7.27,0.189-7.841,5.037
		c-0.659,5.584-1.97,11.091-2.944,16.642c-0.201,1.147-0.016,2.462-1.815,2.258c-1.479-0.167-1.078-1.346-1.237-2.257
		c-0.996-5.712-2.215-11.395-2.961-17.139c-0.486-3.748-1.84-5.104-5.898-5.236c-4.455-0.145-5.635,1.557-6.205,5.467
		c-1.021,7-2.526,13.93-3.83,20.889c-0.43,0.021-0.86,0.044-1.291,0.065c-1.279-6.721-2.652-13.426-3.809-20.168
		c-1.133-6.604-1.274-6.79-7.762-5.418c1.961,10.063,4.232,20.082,5.754,30.213c0.768,5.105,3.921,4.102,7.143,4.328
		c3.339,0.236,4.738-0.812,4.974-4.338c0.264-3.943,1.047-7.91,2.106-11.727c1.106-3.984,0.761-8.38,3.273-12.763
		c1.693,8.727,3.526,16.641,4.671,24.652c0.672,4.705,3.633,3.87,6.712,4.206c3.607,0.394,4.485-1.522,5.031-4.382
		C169.58,177.234,171.583,167.178,173.584,156.977z"/>
	<path fill-rule="evenodd" clip-rule="evenodd" fill="#F0F0F8" d="M173.584,156.977c-2.001,10.201-4.004,20.258-5.929,30.33
		c-0.546,2.859-1.424,4.775-5.031,4.382c-3.079-0.336-6.04,0.499-6.712-4.206c-1.145-8.012-2.978-15.926-4.671-24.652
		c-2.513,4.383-2.167,8.778-3.273,12.763c-1.06,3.816-1.843,7.783-2.106,11.727c-0.235,3.526-1.635,4.574-4.974,4.338
		c-3.222-0.227-6.375,0.777-7.143-4.328c-1.522-10.131-3.793-20.149-5.754-30.213c6.487-1.372,6.628-1.187,7.762,5.418
		c1.156,6.742,2.529,13.447,3.809,20.168c0.431-0.021,0.861-0.044,1.291-0.065c1.304-6.959,2.81-13.889,3.83-20.889
		c0.57-3.91,1.75-5.611,6.205-5.467c4.059,0.132,5.412,1.488,5.898,5.236c0.746,5.744,1.965,11.427,2.961,17.139
		c0.159,0.911-0.241,2.09,1.237,2.257c1.8,0.204,1.614-1.11,1.815-2.258c0.975-5.551,2.285-11.058,2.944-16.642
		C166.314,157.166,168.309,155.22,173.584,156.977z"/>
	<path fill-rule="evenodd" clip-rule="evenodd" fill="#F0F0F8" d="M93.399,191.606c-9.918-0.013-9.889-0.024-13.802-9.421
		c-1.762-4.231-3.667-8.402-5.507-12.6c-0.613-2.453-1.456-4.796-3.637-7.902c0,10.786,0,20.364,0,29.942
		c-5.049,0.958-6.485-1.082-6.21-6.134c0.462-8.468,0.247-16.982,0.06-25.473c-0.063-2.865,0.894-3.365,3.605-3.674
		c5.433-0.618,8.396,1.015,9.973,6.547c1.568,5.498,4.303,10.663,6.526,15.975c0.397,1.679,0.733,3.386,2.66,5.337
		c0-9.618,0-18.476,0-27.332c2.192-0.627,4.397-0.513,6.607-0.12C93.583,168.369,93.491,179.988,93.399,191.606z"/>
	<path fill-rule="evenodd" clip-rule="evenodd" fill="#F0F0F8" d="M177.795,191.108c-0.182-2.857,0.824-4.132,4.003-3.903
		c4.297,0.309,8.637,0.196,12.95,0.031c4.738-0.183,7.272-2.632,6.948-6.58c-0.355-4.322-3.319-5.158-7.033-5.178
		c-3.63-0.019-7.287,0.475-10.889-0.607c-5.088-1.529-7.489-5-7.022-10.457c0.402-4.704,3.317-7.512,8.639-7.751
		c5.638-0.253,11.308,0.108,16.931-0.274c3.654-0.25,3.696,1.586,3.355,4.141c-1.817,0.037-3.645-0.034-5.451,0.13
		c-5.029,0.458-10.18-1.112-15.111,0.901c-2.55,1.307-2.755,3.508-1.959,5.835c0.765,2.237,2.481,3.384,4.943,3.345
		c2.815-0.047,5.634-0.037,8.45,0c6.214,0.084,10.331,2.948,11.145,7.713c1.109,6.5-0.945,10.2-7.136,12.849
		C192.967,191.663,185.375,192.066,177.795,191.108z"/>
	<path fill-rule="evenodd" clip-rule="evenodd" fill="#F0F0F8" d="M105.468,170.713c4.358,2.194,9.008,0.317,13.472,0.972
		c1.4,0.205,3.638-0.915,3.528,2.003c-0.104,2.747-2.215,1.911-3.681,1.952c-3.482,0.096-6.974,0.159-10.45-0.013
		c-2.505-0.124-3.418,0.567-3.332,3.273c0.33,10.289-1.275,8.118,8.383,8.374c2.155,0.058,4.34,0.223,6.464-0.042
		c3.297-0.409,4.099,1.177,3.75,4.007c-8.254,0.758-16.523,0.272-24.786,0.27c-0.031-10.494,0.03-20.989-0.154-31.481
		c-0.05-2.828,0.775-3.713,3.615-3.613c5.823,0.207,11.667,0.246,17.486-0.012c3.15-0.139,4.246,0.985,3.857,3.941
		c-2.463,0.104-4.947,0.035-7.383,0.349c-3.626,0.467-7.455-1.321-10.902,0.989c-0.392,2.682-0.483,5.362,0.056,8.038
		c-0.045,0.114-0.142,0.237-0.125,0.341C105.302,170.283,105.397,170.496,105.468,170.713z"/>
	<path fill-rule="evenodd" clip-rule="evenodd" fill="#2C3086" d="M70.453,191.626c0-9.578,0-19.156,0-29.942
		c2.181,3.106,3.023,5.449,3.637,7.902c-2.094-1.285-2.4-0.248-2.372,1.67c0.075,5.11,0.055,10.222,0.007,15.332
		C71.708,188.347,72.183,190.279,70.453,191.626z"/>
	<path fill-rule="evenodd" clip-rule="evenodd" fill="#2C3086" d="M93.399,191.606c0.092-11.618,0.184-23.237,0.276-34.854
		c1.048,1.023,1.063,2.347,1.063,3.676c0,9.057,0.004,18.113-0.002,27.17C94.735,189.074,94.856,190.607,93.399,191.606z"/>
	<path fill-rule="evenodd" clip-rule="evenodd" fill="#2C3086" d="M162.73,149.576c10.009-0.025,20.018-0.051,30.025-0.076
		c-1.104,1.299-2.622,1.215-4.106,1.215c-7.258,0.005-14.516,0.006-21.773,0C165.394,150.715,163.875,150.816,162.73,149.576z"/>
	<path fill-rule="evenodd" clip-rule="evenodd" fill="#2C3086" d="M87.067,156.872c0,8.856,0,17.714,0,27.332
		c-1.927-1.951-2.262-3.658-2.66-5.337c2.708-4.796,0.679-10.015,1.341-14.991C86.062,161.52,84.792,158.859,87.067,156.872z"/>
	<path fill-rule="evenodd" clip-rule="evenodd" fill="#2C3086" d="M98.816,191.509c8.263,0.003,16.532,0.488,24.786-0.27
		c-0.773,1.348-2.069,1.472-3.422,1.471c-6.089-0.002-12.177-0.002-18.266-0.001C100.726,192.709,99.62,192.501,98.816,191.509z"/>
	<path fill-rule="evenodd" clip-rule="evenodd" fill="#2C3086" d="M177.795,191.108c7.58,0.958,15.172,0.555,22.763,0.193
		c-4.548,3.068-9.611,1.006-14.415,1.296C183.395,192.765,180.123,194.016,177.795,191.108z"/>
	<path fill-rule="evenodd" clip-rule="evenodd" fill="#2C3086" d="M185.114,161.561c4.932-2.014,10.082-0.443,15.111-0.901
		c1.807-0.164,3.634-0.093,5.451-0.13c-4.86,2.542-10.071,0.63-15.094,1.152C188.783,161.869,186.938,161.614,185.114,161.561z"/>
	<path fill-rule="evenodd" clip-rule="evenodd" fill="#2C3086" d="M105.334,161.682c3.447-2.311,7.276-0.522,10.902-0.989
		c2.436-0.313,4.92-0.245,7.383-0.349c-3.343,2.723-7.259,0.928-10.892,1.324C110.291,161.934,107.8,161.695,105.334,161.682z"/>
	<path fill-rule="evenodd" clip-rule="evenodd" fill="#2C3086" d="M105.468,170.713c-0.071-0.217-0.166-0.43-0.202-0.652
		c-0.017-0.104,0.08-0.227,0.125-0.341c0.135,0.226,0.295,0.442,0.384,0.685C105.796,170.462,105.577,170.607,105.468,170.713z"/>
</g>
</svg>
