<?xml version="1.0" encoding="utf-8"?>
<!-- Generator: Adobe Illustrator 16.0.0, SVG Export Plug-In . SVG Version: 6.00 Build 0)  -->
<!DOCTYPE svg PUBLIC "-//W3C//DTD SVG 1.1//EN" "http://www.w3.org/Graphics/SVG/1.1/DTD/svg11.dtd">
<svg version="1.1" id="Layer_1" xmlns="http://www.w3.org/2000/svg" xmlns:xlink="http://www.w3.org/1999/xlink" x="0px" y="0px"
	 width="280px" height="280px" viewBox="0 0 280 280" enable-background="new 0 0 280 280" xml:space="preserve">
<rect fill="#41515E" width="280" height="280"/>
<g>
	<path fill-rule="evenodd" clip-rule="evenodd" fill="#FFFFFF" d="M72.346,213.134c-6.554,0-13.108,0-19.661,0
		c-0.014-1.165-0.04-2.331-0.04-3.495c-0.003-25.809-0.001-51.618-0.003-77.428c0-2.41-0.011-2.426-1.446-2.429
		c-2.875-0.007-5.75-0.01-8.626,0.002c-1.312,0.005-1.324,0.029-1.324,2.259c0,27.03,0.001,54.061,0.002,81.091
		c-6.311,0-12.623-0.039-18.934,0.044c-0.866,0.012-0.948-0.398-0.947-1.663c0.024-30.656,0.02-61.312,0.02-91.967
		c0.417-0.319,0.352-1.002,0.424-1.575c0.718-5.692,2.367-10.422,5.167-14.008c2.456-3.144,5.302-4.583,8.303-5.392
		c0.349-0.094,0.757,0.032,0.951-0.672c17.521,0,35.042,0,52.564,0c0.415,1.09,1.144,0.748,1.72,0.931
		c8.369,2.661,12.91,11.609,12.922,25.797c0.024,29.502,0.005,59.004,0.004,88.506c-6.554,0-13.108,0-19.662,0
		c-0.006-1.054-0.018-2.107-0.018-3.162c-0.002-25.902-0.001-51.806-0.003-77.708c0-2.471-0.005-2.479-1.502-2.483
		c-2.773-0.006-5.547-0.005-8.321,0c-1.588,0.002-1.59,0.009-1.59,2.649C72.347,159.331,72.346,186.231,72.346,213.134z"/>
	<path fill-rule="evenodd" clip-rule="evenodd" fill="#FFFFFF" d="M114.077,97.9c17.521,0,35.042,0,52.564,0
		c0.187,0.732,0.6,0.584,0.947,0.659c1.79,0.385,3.573,0.848,5.306,1.696c6.573,3.218,11.071,9.646,11.913,21.567
		c0.695,9.841-1.225,17.796-6.304,23.353c-2.026,2.218-4.245,3.732-6.602,4.69c-1.836,0.746-3.701,1.191-5.586,1.628
		c0.278,0.202,0.558,0.3,0.839,0.323c2.476,0.203,4.919,0.799,7.322,1.778c8.691,3.538,13.95,12.41,14.573,26.305
		c0.499,11.143-2.587,21.333-8.512,26.803c-3.691,3.408-7.699,4.946-11.841,5.77c-0.38,0.075-0.827-0.104-1.054,0.662
		c-17.855,0-35.711,0-53.567,0C114.077,174.723,114.077,136.311,114.077,97.9z M134.178,155.685c0,7.937,0.021,15.874-0.017,23.811
		c-0.008,1.603,0.233,2.271,1.285,2.266c8.993-0.057,17.987-0.046,26.982-0.014c0.894,0.004,1.22-0.457,1.216-2.014
		c-0.029-16.041-0.03-32.081,0.001-48.122c0.003-1.612-0.311-2.079-1.264-2.074c-8.96,0.049-17.921,0.027-26.882,0.031
		c-1.28,0-1.319,0.07-1.32,2.305C134.177,139.811,134.178,147.748,134.178,155.685z"/>
	<path fill-rule="evenodd" clip-rule="evenodd" fill="#FFFFFF" d="M209.375,97.9c17.454,0,34.908,0,52.363,0
		c0.013,9.652,0.023,19.303,0.033,28.955c0,2.663-0.003,2.668-1.574,2.668c-14.502,0.001-29.005,0-43.508,0.002
		c-1.55,0-1.557,0.007-1.557,2.549c-0.002,15.698-0.002,31.397-0.001,47.094c0.001,2.647,0.007,2.653,1.595,2.653
		c15.138,0.002,30.275,0.002,45.413,0.005c0,9.991-0.015,19.983,0.02,29.974c0.005,1.142-0.134,1.366-0.821,1.364
		c-17.256-0.041-34.509-0.031-51.763-0.031c-0.197-0.699-0.606-0.574-0.956-0.663c-3.326-0.85-6.42-2.625-9.005-6.354
		c-3.224-4.652-4.767-10.725-4.862-17.637c-0.149-10.813-0.064-21.636-0.064-32.454c0.001-11.096-0.094-22.196,0.069-33.286
		c0.104-7.077,1.674-13.339,5.015-18.043c2.491-3.509,5.481-5.2,8.656-6.117C208.774,98.481,209.188,98.622,209.375,97.9z"/>
</g>
</svg>
