<?xml version="1.0" encoding="utf-8"?>
<!-- Generator: Adobe Illustrator 16.0.0, SVG Export Plug-In . SVG Version: 6.00 Build 0)  -->
<!DOCTYPE svg PUBLIC "-//W3C//DTD SVG 1.1//EN" "http://www.w3.org/Graphics/SVG/1.1/DTD/svg11.dtd">
<svg version="1.1" id="Layer_1" xmlns="http://www.w3.org/2000/svg" xmlns:xlink="http://www.w3.org/1999/xlink" x="0px" y="0px"
	 width="280px" height="280px" viewBox="0 0 280 280" enable-background="new 0 0 280 280" xml:space="preserve">
<rect fill="#015293" width="280" height="280"/>
<g>
	<path fill-rule="evenodd" clip-rule="evenodd" fill="#FFFFFF" d="M150.777,191.752c-15.76,0-31.521,0-47.281,0
		c-0.014-0.598-0.042-1.195-0.042-1.792c-0.002-25.886,0.01-51.77-0.037-77.655c-0.002-1.255,0.405-1.566,1.927-1.562
		c14.365,0.048,28.73,0.035,43.095,0.022c2.617-0.002,5.196,0.241,7.759,0.63c10.704,1.624,17.113,6.963,18.416,15.327
		c1.248,8.012-4.383,15.397-13.765,18.064c-0.361,0.103-0.708,0.239-1.227,0.417c0.54,0.188,0.902,0.324,1.273,0.442
		c13.387,4.279,20.86,15.662,17.77,27.123c-2.957,10.962-13.011,17.259-26.285,18.463
		C151.839,191.283,150.972,190.904,150.777,191.752z M127.216,162.038c0,3.205,0.021,6.41-0.016,9.615
		c-0.009,0.798,0.188,1.201,1.327,1.188c4.399-0.056,8.805,0.05,13.2-0.077c6.668-0.191,12.218-4.399,12.524-9.332
		c0.416-6.705-3.552-10.957-11.113-11.858c-4.954-0.591-9.943-0.146-14.913-0.283c-1.089-0.03-1.009,0.558-1.009,1.133
		C127.216,155.628,127.216,158.833,127.216,162.038z M127.216,129.211c0,2.829,0.029,5.658-0.018,8.487
		c-0.014,0.83,0.251,1.169,1.356,1.154c3.764-0.051,7.532,0.042,11.294-0.044c5.732-0.132,10.145-2.824,11.294-6.76
		c1.736-5.949-2.312-10.922-9.731-11.896c-4.374-0.575-8.787-0.143-13.18-0.273c-1.084-0.032-1.016,0.549-1.016,1.129
		C127.217,123.742,127.216,126.477,127.216,129.211z"/>
	<path fill-rule="evenodd" clip-rule="evenodd" fill="#FFFFFF" d="M91.676,110.252c-0.014,2.656-0.099,5.314-0.008,7.968
		c0.04,1.177-0.399,1.527-1.847,1.518c-7.877-0.051-15.756-0.041-23.633-0.016c-4.339,0.014-7.322,1.546-8.695,4.368
		c-1.311,2.695-0.512,5.193,2.417,7.378c7.473,5.573,14.968,11.128,22.438,16.704c5.03,3.756,9.7,7.779,11.93,13.172
		c6.037,14.598-5.079,27.744-22.25,29.865c-0.458,0.056-1.166-0.162-1.21,0.543c-0.58,0-1.159,0-1.738,0
		c-0.04-0.449-0.435-0.208-0.692-0.235c-13.096-0.016-26.192-0.032-39.289-0.048c0-6.132,0-12.263,0-18.395
		c7.063-0.021,14.125-0.049,21.187-0.064c2.663-0.006,5.333,0.067,7.977-0.235c3.364-0.385,6.385-1.319,7.54-4.228
		c1.101-2.771,0.133-5.205-2.454-7.191c-9.097-6.985-18.192-13.972-27.318-20.931c-3.036-2.315-5.158-5.05-6.247-8.319
		c-0.093-0.278,0.073-0.807-0.686-0.629c0-0.188,0-0.377,0-0.566c0.196,0.098,0.288,0.013,0.305-0.135
		c0.023-0.195-0.062-0.354-0.305-0.431c0-1.698,0-3.396,0-5.094c0.301-0.034,0.321-0.22,0.309-0.405
		c-0.01-0.15-0.103-0.239-0.309-0.161c0-0.188,0-0.377,0-0.566c0.788,0.215,0.59-0.346,0.678-0.612
		c0.602-1.828,1.465-3.562,2.792-5.121c3.858-4.535,9.319-6.844,15.918-7.59c0.849-0.096,1.881,0.25,2.515-0.542
		C64.559,110.252,78.117,110.252,91.676,110.252z"/>
	<path fill-rule="evenodd" clip-rule="evenodd" fill="#FFFFFF" d="M184.86,191.442c-0.01-5.748,0.013-11.496-0.057-17.243
		c-0.013-1.072,0.534-1.211,1.642-1.207c7.524,0.029,15.05,0.02,22.574,0.012c2.199-0.003,4.395-0.061,6.55-0.481
		c2.878-0.562,5.204-1.726,5.993-4.179c0.838-2.606,0.066-4.958-2.378-6.843c-5.378-4.147-10.783-8.271-16.174-12.407
		c-3.79-2.909-7.579-5.819-11.359-8.736c-6.248-4.82-8.286-10.711-5.98-17.377c2.282-6.598,8.166-10.272,16.163-11.85
		c1.282-0.253,2.633-0.273,3.943-0.445c0.351-0.046,0.97,0.175,0.973-0.434c13.442,0,26.886,0,40.328,0
		c0.034,2.528,0.081,5.057,0.101,7.586c0.015,1.872-0.001,1.875-2.382,1.875c-7.756,0.002-15.512-0.027-23.267,0.017
		c-4.15,0.024-7.155,1.669-8.451,4.455c-1.253,2.693-0.4,5.08,2.743,7.434c7.452,5.582,14.932,11.139,22.387,16.718
		c5.91,4.423,11.046,9.264,12.775,15.917c0.052,0.198,0.073,0.639,0.613,0.332c0,0.283,0,0.566,0,0.849
		c-0.611,0.283-0.356,0.566,0,0.85c0,2.075,0,4.15,0,6.226c-0.307,0.025-0.32,0.212-0.309,0.395c0.01,0.148,0.102,0.239,0.309,0.171
		c0,0.189,0,0.378,0,0.566c-0.75-0.139-0.579,0.379-0.669,0.659c-2.949,9.22-11.606,15.487-23.354,16.927
		c-0.362,0.044-1.145-0.233-1.009,0.525c-0.579,0-1.159,0-1.738,0c-0.211-0.479-0.675-0.209-1.039-0.234
		c-0.752-0.016-1.504-0.046-2.256-0.046C209.309,191.46,197.084,191.451,184.86,191.442z"/>
	<path fill-rule="evenodd" clip-rule="evenodd" fill="#FFFFFF" d="M251.598,166.283c-0.356-0.283-0.611-0.566,0-0.85
		C251.598,165.717,251.598,166,251.598,166.283z"/>
	<path fill-rule="evenodd" clip-rule="evenodd" fill="#FFFFFF" d="M223.785,191.752c0.001-0.078,0.003-0.156,0.004-0.234
		c0.364,0.025,0.828-0.244,1.039,0.234C224.48,191.752,224.133,191.752,223.785,191.752z"/>
	<path fill-rule="evenodd" clip-rule="evenodd" fill="#FFFFFF" d="M29.098,124.684c0.206-0.078,0.299,0.011,0.309,0.161
		c0.012,0.185-0.008,0.371-0.309,0.405C29.098,125.062,29.098,124.873,29.098,124.684z"/>
	<path fill-rule="evenodd" clip-rule="evenodd" fill="#FFFFFF" d="M29.098,130.344c0.243,0.077,0.329,0.236,0.305,0.431
		c-0.017,0.147-0.109,0.232-0.305,0.135C29.098,130.721,29.098,130.532,29.098,130.344z"/>
	<path fill-rule="evenodd" clip-rule="evenodd" fill="#FFFFFF" d="M251.598,173.074c-0.207,0.068-0.299-0.022-0.309-0.171
		c-0.012-0.183,0.002-0.369,0.309-0.395C251.598,172.697,251.598,172.886,251.598,173.074z"/>
	<path fill-rule="evenodd" clip-rule="evenodd" fill="#FFFFFF" d="M68.383,191.752c0.001-0.079,0.002-0.157,0.003-0.235
		c0.257,0.027,0.652-0.214,0.692,0.235C68.846,191.752,68.615,191.752,68.383,191.752z"/>
</g>
</svg>
