<?xml version="1.0" encoding="UTF-8" standalone="no"?>
<!-- Generator: Adobe Illustrator 16.0.0, SVG Export Plug-In . SVG Version: 6.00 Build 0)  -->

<svg
   version="1.1"
   id="Layer_1"
   x="0px"
   y="0px"
   width="280px"
   height="280px"
   viewBox="0 0 280 280"
   enable-background="new 0 0 280 280"
   xml:space="preserve"
   sodipodi:docname="legacy.svg"
   inkscape:version="1.4 (e7c3feb100, 2024-10-09)"
   xmlns:inkscape="http://www.inkscape.org/namespaces/inkscape"
   xmlns:sodipodi="http://sodipodi.sourceforge.net/DTD/sodipodi-0.dtd"
   xmlns:xlink="http://www.w3.org/1999/xlink"
   xmlns="http://www.w3.org/2000/svg"
   xmlns:svg="http://www.w3.org/2000/svg"><defs
   id="defs216276"><linearGradient
   inkscape:collect="always"
   xlink:href="#linearGradient186860"
   id="linearGradient186862"
   x1="157.28662"
   y1="243.99675"
   x2="159.68578"
   y2="282.7041"
   gradientUnits="userSpaceOnUse"
   gradientTransform="matrix(1,0,0,1.727176,4.4911316e-6,-203.06978)" /><linearGradient
   inkscape:collect="always"
   id="linearGradient186860"><stop
     style="stop-color:#2b2b2b;stop-opacity:1"
     offset="0"
     id="stop186856" /><stop
     style="stop-color:#4b4448;stop-opacity:1"
     offset="1"
     id="stop186858" /></linearGradient>
	
	
	
</defs><sodipodi:namedview
   id="namedview216274"
   pagecolor="#ffffff"
   bordercolor="#666666"
   borderopacity="1.0"
   inkscape:pageshadow="2"
   inkscape:pageopacity="0.0"
   inkscape:pagecheckerboard="0"
   showgrid="false"
   inkscape:zoom="0.46814353"
   inkscape:cx="351.38796"
   inkscape:cy="-51.266329"
   inkscape:window-width="1600"
   inkscape:window-height="815"
   inkscape:window-x="0"
   inkscape:window-y="0"
   inkscape:window-maximized="1"
   inkscape:current-layer="layer2"
   inkscape:showpageshadow="2"
   inkscape:deskcolor="#d1d1d1" />
<g
   inkscape:groupmode="layer"
   id="layer2"
   inkscape:label="BG"><rect
     y="-173.7274"
     fill-rule="evenodd"
     clip-rule="evenodd"
     fill="#164E86"
     width="280"
     height="173.7274"
     id="rect4994-7"
     style="fill:#2b2b2b;fill-opacity:1;stroke:none;stroke-width:0.787689;stroke-opacity:1"
     x="0"
     transform="scale(1,-1)" /><rect
     y="171.7274"
     fill-rule="evenodd"
     clip-rule="evenodd"
     fill="#164E86"
     width="280"
     height="108.81209"
     id="rect4994-7-5"
     style="fill:url(#linearGradient186862);fill-opacity:1;stroke:none;stroke-width:0.62339;stroke-opacity:1"
     x="0" /><path
     style="fill:#ffffff"
     d="m 209.31384,149.60815 c -5.77726,-0.46945 -10.36713,-1.61333 -13.11117,-3.26753 -3.3538,-2.02178 -6.19228,-4.96005 -7.32208,-7.57948 -1.01252,-2.34753 -0.93407,-4.4998 0.25159,-6.9018 1.9513,-3.95313 6.05764,-6.62729 12.76521,-8.31305 3.84085,-0.9653 7.28265,-1.39615 11.20811,-1.40306 3.33262,-0.006 5.47155,0.20265 9.625,0.93831 1.44011,0.25507 5.01209,1.00445 5.57147,1.16886 0.41512,0.12201 0.90353,0.64164 0.90353,0.96128 0,0.38847 -1.75862,2.88278 -2.11148,2.99477 -0.37443,0.11884 -0.98192,-0.0371 -2.25833,-0.5797 -5.01659,-2.13255 -10.32492,-2.63952 -15.33338,-1.46441 -2.41307,0.56617 -4.95972,1.61181 -6.3612,2.61189 -2.53396,1.80819 -4.30828,5.13565 -4.11161,7.71064 0.0937,1.22621 0.33766,2.11517 0.91299,3.32627 0.41146,0.86615 0.62983,1.14672 1.72527,2.21666 2.30919,2.25547 5.00694,3.55775 8.87108,4.28236 1.74686,0.32757 6.75839,0.29351 8.797,-0.0598 3.47219,-0.60174 7.24662,-1.80187 9.57564,-3.04471 0.76234,-0.40681 1.28908,-0.45358 1.89108,-0.16791 0.75744,0.35943 0.73852,0.83148 -0.0655,1.63402 -1.31689,1.31448 -3.92647,2.62165 -6.95657,3.48461 -3.96715,1.12983 -10.43763,1.77915 -14.46666,1.45176 z m -87.79167,-0.23771 c -4.25625,-0.36139 -10.00367,-1.73503 -12.89167,-3.08111 -2.48179,-1.15676 -5.35609,-3.92089 -6.43308,-6.18653 -0.69593,-1.46403 -0.89071,-2.44455 -0.90385,-4.55 -0.0108,-1.73837 0.009,-1.9242 0.29379,-2.70388 0.75677,-2.07435 2.82179,-4.32628 5.70148,-6.21752 2.5083,-1.64733 5.68011,-2.88523 9.68333,-3.77924 1.80607,-0.40333 3.12068,-0.60421 5.89167,-0.90027 5.02683,-0.53707 10.71889,0.005 17.38333,1.65545 2.05768,0.50959 2.45221,0.65593 2.62158,0.97241 0.13402,0.25041 0.0902,0.39371 -0.43559,1.42572 -0.61913,1.21513 -0.90612,1.48697 -1.46265,1.38544 -0.17966,-0.0328 -0.9374,-0.30116 -1.68388,-0.5964 -4.30934,-1.70439 -9.56911,-2.59587 -13.4258,-2.27553 -2.66454,0.22131 -5.69877,1.08891 -8.18866,2.34144 -1.4083,0.70843 -2.1648,1.25202 -3.05354,2.19413 -2.03134,2.15333 -3.01499,4.44398 -3.0114,7.01275 0.003,2.36448 0.7818,4.45077 2.42119,6.48849 1.25672,1.56207 4.5048,3.40106 7.28343,4.12373 2.16565,0.56323 5.81238,0.63674 7.3354,0.14785 1.46818,-0.47128 2.97658,-1.69008 3.55162,-2.86975 0.4232,-0.86815 0.5233,-1.61697 0.5233,-3.91449 0,-2.37011 -0.0425,-2.6845 -0.41701,-3.08867 l -0.27185,-0.29332 h -2.84962 c -3.23266,0 -3.1829,0.014 -3.08339,-0.86882 0.0812,-0.72068 0.43684,-1.34629 0.90927,-1.59966 0.37722,-0.2023 0.83704,-0.21483 7.86911,-0.21442 7.23958,4.2e-4 7.48011,0.007 7.84766,0.23162 l 0.37916,0.23118 -0.003,5.86422 c -0.002,5.43708 -0.0182,5.89855 -0.21673,6.3357 -0.37691,0.82976 -0.73004,1.02299 -2.61983,1.43356 -2.2659,0.49228 -4.85705,0.90636 -7.13588,1.14036 -2.16236,0.22204 -9.6445,0.32231 -11.60833,0.15556 z m 25.49386,-0.73494 c -0.21181,-0.15488 -0.21163,-0.16813 0.007,-0.51578 0.12335,-0.19625 0.86194,-1.11171 1.64132,-2.03435 5.48037,-6.48781 11.20003,-14.73882 14.70691,-21.21574 0.74018,-1.36705 1.12355,-1.95482 1.37604,-2.10965 0.32073,-0.19669 0.66416,-0.21467 4.10705,-0.21507 l 3.75706,-4.4e-4 0.18811,0.2625 c 0.10345,0.14438 0.79167,1.35796 1.52937,2.69687 3.8174,6.92846 8.73707,14.51847 12.95275,19.98332 1.50852,1.95553 1.70132,2.26917 1.65311,2.68931 l -0.0375,0.32633 h -5.74323 -5.74324 l -0.28621,-0.29166 c -0.15741,-0.16042 -1.18423,-2.15488 -2.28182,-4.43214 -1.26346,-2.62142 -2.13035,-4.27949 -2.36288,-4.51939 -0.72057,-0.74345 -0.75277,-0.74692 -6.56846,-0.70831 l -5.24749,0.0348 -0.7,0.35 c -0.64332,0.32166 -0.76932,0.45392 -1.556,1.63334 -0.90334,1.3543 -2.96584,4.77345 -3.93483,6.52305 -0.38691,0.6986 -0.72512,1.14836 -1.03084,1.37084 l -0.45501,0.33111 h -2.87686 c -2.24412,0 -2.92468,-0.035 -3.09427,-0.15897 z m 21.56342,-12.42343 c 0.90754,-0.0692 1.06055,-0.11366 1.26622,-0.36764 0.48823,-0.60294 0.0353,-1.83094 -1.54643,-4.19239 -0.96772,-1.44479 -1.33234,-1.75757 -2.04893,-1.75757 -0.38916,0 -0.51945,0.0809 -1.05158,0.65264 -0.68193,0.73274 -2.40214,3.08603 -2.73944,3.74762 -0.25758,0.50524 -0.28823,1.29578 -0.0622,1.60487 0.0889,0.12156 0.38289,0.25276 0.67083,0.29936 0.65988,0.10681 4.17374,0.11517 5.51155,0.0131 z m -151.30824,12.1291 c -0.64579,-0.3938 -0.6691,-0.58126 -0.51206,-4.11735 0.0779,-1.75323 0.17452,-7.13691 0.2148,-11.96374 0.0729,-8.74362 0.0741,-8.77697 0.32102,-9.02372 0.24509,-0.24497 0.30543,-0.24773 5.54166,-0.25396 2.91163,-0.004 5.41258,0.0315 5.55765,0.0778 0.57537,0.18349 0.61122,0.45603 0.61122,4.646 0,2.13951 -0.0589,5.77774 -0.13101,8.08496 -0.0721,2.30723 -0.13768,5.08746 -0.14583,6.17829 -0.0137,1.83369 0.004,2.01938 0.2408,2.46105 0.31983,0.59769 0.93051,1.14134 1.51354,1.34743 0.82846,0.29284 16.08634,0.13128 22.78917,-0.24131 1.58005,-0.0878 2.17767,-0.0239 2.35251,0.25153 0.2593,0.40853 -0.0661,2.03448 -0.49944,2.49577 l -0.26041,0.2772 -18.61716,-4.4e-4 c -18.00826,-4.2e-4 -18.62892,-0.008 -18.97646,-0.21954 z m 44.79643,0.0529 c -0.99454,-0.4329 -1.29592,-1.25052 -1.10666,-3.00221 0.58758,-5.43815 0.72971,-13.29982 0.34817,-19.25764 -0.11586,-1.80916 -0.10929,-1.98354 0.0898,-2.38414 0.11817,-0.23771 0.36303,-0.54059 0.54413,-0.67307 0.32789,-0.23984 0.39895,-0.24117 16.74167,-0.31297 9.02681,-0.0397 16.68219,-0.11128 17.01195,-0.15915 0.3826,-0.0555 0.75202,-0.0367 1.02083,0.052 0.34844,0.115 0.42127,0.19464 0.42127,0.46072 0,0.38924 -0.41812,1.71338 -0.6602,2.09079 -0.39547,0.61657 -0.12776,0.60276 -11.6868,0.60276 -6.57358,0 -10.95631,0.0446 -11.32902,0.11528 -0.85239,0.16165 -1.39837,0.44786 -1.65399,0.86705 -0.19831,0.32522 -0.21912,0.62518 -0.21912,3.15934 0,3.24155 0.0354,3.37397 1.02307,3.82691 0.52303,0.23986 0.74733,0.25482 4.41037,0.29421 4.32472,0.0465 15.17205,-0.16126 17.13843,-0.32826 0.70459,-0.0598 1.40067,-0.0788 1.54685,-0.0421 0.42904,0.10768 0.44886,0.5419 0.0756,1.65471 -0.30609,0.91242 -0.37937,1.02807 -0.80348,1.26816 l -0.46666,0.26419 -10.68126,0.002 -10.68126,0.002 -0.58455,0.29129 c -0.40211,0.20038 -0.66414,0.43291 -0.83957,0.74505 -0.24435,0.43476 -0.25502,0.58254 -0.25485,3.52954 2.1e-4,3.46114 0.0491,3.70696 0.81649,4.10342 0.38705,0.19997 0.94033,0.20829 10.61666,0.15971 6.38067,-0.032 10.96311,-0.10512 12.22129,-0.19492 2.77228,-0.19786 2.92652,-0.0847 2.30425,1.69091 -0.16444,0.46919 -0.41436,0.92835 -0.58738,1.07917 l -0.30117,0.2625 -17.05599,-0.005 c -14.0785,-0.004 -17.11934,-0.0321 -17.41886,-0.16252 z m 184.78124,0.089 c -0.0816,-0.0328 -0.228,-0.21381 -0.32542,-0.40221 -0.15166,-0.29329 -0.15971,-0.58119 -0.056,-2.00196 0.17836,-2.44253 0.24637,-6.3505 0.12295,-7.06561 -0.0591,-0.34257 -0.21608,-0.84717 -0.3488,-1.12132 -0.1488,-0.3074 -2.70296,-3.15436 -6.66326,-7.42714 -3.53209,-3.81078 -6.48107,-7.05056 -6.55329,-7.19953 -0.10403,-0.21456 -0.0963,-0.29355 0.037,-0.38005 0.0998,-0.0647 2.21162,-0.0969 5.18503,-0.0791 l 5.01667,0.03 0.58333,0.28729 c 0.43015,0.21184 1.62891,1.3179 4.56488,4.21184 2.71097,2.67217 4.14678,4.00455 4.49934,4.17522 0.62598,0.30303 1.21614,0.31973 1.61573,0.0457 0.16314,-0.11187 2.14523,-2.11965 4.40464,-4.46174 2.69722,-2.7959 4.25811,-4.32739 4.54505,-4.45944 0.38585,-0.17756 0.89852,-0.20146 4.37819,-0.20416 3.34171,-0.003 3.95106,0.0227 4.00624,0.16653 0.0358,0.0933 -0.005,0.26838 -0.0912,0.38913 -0.0859,0.12074 -3.06999,2.95823 -6.63124,6.30552 -3.56125,3.34729 -6.72468,6.38559 -7.02985,6.75177 -0.95148,1.1417 -1.05921,1.57941 -1.04203,4.23399 0.008,1.25125 0.0981,3.08875 0.20011,4.08333 0.10195,0.99458 0.2154,2.25994 0.2521,2.81191 0.0997,1.49977 0.5379,1.38996 -5.50212,1.37888 -2.76094,-0.005 -5.08661,-0.0361 -5.16817,-0.0689 z"
     id="path1" /></g>
<g
   inkscape:groupmode="layer"
   id="layer1"
   inkscape:label="Logo" /></svg>
