<?xml version="1.0" encoding="utf-8"?>
<!-- Generator: Adobe Illustrator 16.0.0, SVG Export Plug-In . SVG Version: 6.00 Build 0)  -->
<!DOCTYPE svg PUBLIC "-//W3C//DTD SVG 1.1//EN" "http://www.w3.org/Graphics/SVG/1.1/DTD/svg11.dtd">
<svg version="1.1" id="Layer_1" xmlns="http://www.w3.org/2000/svg" xmlns:xlink="http://www.w3.org/1999/xlink" x="0px" y="0px"
	 width="280px" height="280px" viewBox="0 0 280 280" enable-background="new 0 0 280 280" xml:space="preserve">
<rect fill-rule="evenodd" clip-rule="evenodd" width="280.53" height="280"/>
<g>
	<path fill-rule="evenodd" clip-rule="evenodd" fill="#FFFFFF" stroke="#000000" stroke-miterlimit="10" d="M193.906,114.396
		c0.046,8.938-3.357,13.19-11.438,11.436c-4.528-0.982-5.536,1.992-5.472,6.471c0.178,12.366-0.255,24.748,0.184,37.1
		c0.282,7.947-3.598,8.218-9.054,8.41c-5.852,0.204-8.101-1.843-7.893-8.504c0.365-11.688-0.196-23.411,0.242-35.09
		c0.247-6.592-1.668-9.354-7.63-8.444c-5.646,0.861-9.133-0.634-9.142-8.271c-0.011-8.119,3.764-9.335,9.731-8.664
		c13.319,1.498,26.661-1.365,40.219,1.685c4.93,1.108,13.035-3.976,17.598,0.078c5.248,4.666,4.536,14.05,6.628,21.307
		c1.89,6.553,3.325,13.268,6.574,19.845c2.617-11.187,5.191-22.387,7.863-33.558c1.976-8.259,10.545-12.575,17.509-9.131
		c2.436,1.205,1.912,2.93,1.336,4.853c-5.906,19.616-11.831,39.224-17.742,58.839c-2.227,7.381-7.87,4.125-12.241,4.892
		c-4.755,0.835-7.131-1.671-8.538-6.521c-4.512-15.552-9.162-31.054-13.951-46.502C197.656,121.292,197.624,117.289,193.906,114.396
		z"/>
	<path fill-rule="evenodd" clip-rule="evenodd" fill="#FFFFFF" stroke="#000000" stroke-miterlimit="10" d="M92.351,142.471
		c0.002-8.669,0.218-17.346-0.076-26.003c-0.186-5.486,1.352-7.938,6.602-7.679c7.198,0.354,14.42,0.082,21.631,0.105
		c7.792,0.023,14.312,3.129,17.919,11.016c3.918,8.57,4.416,18.335-1.103,25.549c-4.792,6.264-4.02,10.655-0.714,16.281
		c0.491,0.835,1.111,1.706,1.254,2.64c0.672,4.351,7.13,8.336,1.955,12.833c-4.438,3.856-15.335-0.546-17.89-6.176
		c-2.018-4.446-3.798-9.034-5.964-13.385c-1.058-2.126-3.032-3.354-5.361-2.483c-2.275,0.851-1.673,3.186-1.724,5.082
		c-0.064,2.331-0.209,4.688,0.024,6.994c0.735,7.266-0.861,10.804-8.665,10.721c-7.648-0.081-8.207-3.985-7.968-10.493
		C92.579,159.152,92.347,150.805,92.351,142.471z M114.208,125.539c-2.273-0.154-5.564-0.203-5.607,5.938
		c-0.037,5.252,1.587,7.196,6.249,6.858c3.99-0.286,8.326,0.11,8.732-5.917C123.994,126.32,119.948,125.656,114.208,125.539z"/>
	<path fill-rule="evenodd" clip-rule="evenodd" fill="#FFFFFF" stroke="#000000" stroke-miterlimit="10" d="M81.013,177.319
		c-6.151,1.062-9.674-0.275-11.107-6.645c-1.748-7.768-7.846-3.998-12.131-4.563c-3.422-0.45-6.949-1.016-8.602,4.537
		c-1.795,6.025-11.326,9.457-16.17,6.759c-2.858-1.589-1.509-3.752-0.839-5.873c6.032-19.165,12.188-38.286,18.01-57.53
		c1.542-5.098,4.686-5.438,8.438-5.103c3.922,0.349,8.706-1.833,10.689,4.462c6.134,19.464,12.612,38.803,18.357,58.405
		C90.337,180.912,82.83,176.119,81.013,177.319z M58.875,133.435c-1.159,4.554-2.041,8.018-2.921,11.481
		c-0.448,1.769-2.076,3.82,0.072,5.219c2.108,1.368,4.741,1.315,6.845,0.09c2.631-1.529,0.941-4.195,0.335-6.128
		C62.165,140.766,60.617,137.631,58.875,133.435z"/>
</g>
</svg>
