<?xml version="1.0" encoding="utf-8"?>
<!-- Generator: Adobe Illustrator 16.0.0, SVG Export Plug-In . SVG Version: 6.00 Build 0)  -->
<!DOCTYPE svg PUBLIC "-//W3C//DTD SVG 1.1//EN" "http://www.w3.org/Graphics/SVG/1.1/DTD/svg11.dtd">
<svg version="1.1" id="Layer_1" xmlns="http://www.w3.org/2000/svg" xmlns:xlink="http://www.w3.org/1999/xlink" x="0px" y="0px"
	 width="280px" height="280px" viewBox="0 0 280 280" enable-background="new 0 0 280 280" xml:space="preserve">
<rect fill-rule="evenodd" clip-rule="evenodd" width="280.53" height="280"/>
<g>
	<path fill-rule="evenodd" clip-rule="evenodd" fill="#CE222E" d="M225.614,162.963c0.177-0.581-0.031-0.814-0.213-0.961
		c-1.889-1.535-3.161-4.624-4.356-7.999c-4.389-12.397-8.813-24.729-13.197-37.132c-0.533-1.507-1.118-1.993-1.975-1.99
		c-12.131,0.041-24.261,0.002-36.393-0.017c-0.44,0-0.879,0-1.636,0c1.367-3.483,2.569-6.453,3.722-9.512
		c0.877-2.328,1.964-4.292,2.593-7.057c13.212,0,26.426,0,39.638,0c-0.014,0.813,0.269,1.274,0.463,1.832
		c1.427,4.107,2.859,8.205,4.289,12.308c3.033,8.704,6.086,17.377,9.084,26.14c0.587,1.714,0.836,1.733,1.453,0.004
		c3.019-8.47,6.136-16.771,9.165-25.227c1.79-4.999,3.76-9.693,5.337-15.056c3.939,0,7.879,0,11.817,0
		c0.054,0.739-0.207,1.125-0.38,1.602c-2.243,6.179-4.488,12.356-6.737,18.527c-3.645,10.006-7.304,19.989-10.937,30.013
		c-2.119,5.849-4.01,12.237-7.552,14.526c-1.148,0-2.297,0-3.447,0c-0.074-0.12-0.148-0.24-0.224-0.359
		c-0.007,0.119-0.015,0.239-0.021,0.359C225.943,162.963,225.778,162.963,225.614,162.963z"/>
	<path fill-rule="evenodd" clip-rule="evenodd" fill="#FBFAFA" d="M166.772,162.963c0.609-3.752,2.036-6.25,3.03-9.412
		c0.214-0.682,0.696-0.273,1.052-0.275c3.448-0.023,6.895-0.022,10.341-0.006c0.538,0.002,1.062-0.065,1.564-0.527
		c0.471-0.432,0.941-0.975,0.884-2.242c-0.056-1.226-0.554-1.805-1.037-1.99c-0.642-0.246-1.306-0.257-1.959-0.294
		c-2.953-0.17-5.908,0.314-8.857-0.302c-1.123-0.236-2.148-1.064-3.082-2.412c-2.755-3.976-2.736-11.918,0.021-15.909
		c1.086-1.574,2.308-2.5,3.57-2.532c5.113-0.13,10.226-0.054,15.579-0.054c-1.068,3.046-2.027,5.768-2.98,8.498
		c-0.309,0.884-0.743,0.588-1.136,0.59c-3.241,0.02-6.482,0.009-9.726,0.014c-0.327,0.001-0.66-0.031-0.981,0.078
		c-0.377,0.127-0.725,0.44-0.7,1.511c0.021,0.937,0.34,1.156,0.677,1.241c0.365,0.091,0.734,0.118,1.103,0.126
		c2.871,0.061,5.75-0.135,8.612,0.24c2.422,0.317,4.464,2.666,5.384,7.928c1.111,6.355-0.742,12.559-4.197,14.631
		c-0.232,0.141-0.944-0.66-0.665,1.101C177.77,162.963,172.271,162.963,166.772,162.963z"/>
	<path fill-rule="evenodd" clip-rule="evenodd" fill="#FBFAFA" d="M64.845,162.963c0.007-5.205,0.097-10.419-0.012-15.611
		c-0.057-2.735,0.365-3.203,1.505-3.159c4.06,0.154,8.12,0.071,12.18,0.05c0.773-0.004,1.554,0.054,2.296-0.642
		c0.742-0.696,1.269-1.773,1.207-3.621c-0.061-1.818-0.631-2.908-1.399-3.321c-0.793-0.428-1.61-0.576-2.438-0.569
		c-4.334,0.035-8.669,0.016-13.245,0.016c1.094-3.087,2.066-5.796,3.017-8.54c0.205-0.59,0.451-0.681,0.747-0.664
		c4.096,0.229,8.201-0.541,12.288,0.518c1.181,0.306,2.302,1.147,3.342,2.453c3.73,4.681,3.866,15.118,0.259,20.277
		c-0.406,0.583-0.839,1.078-1.337,1.712c1.674,3.065,3.289,6.069,4.933,8.99c0.342,0.607,0.57,1.325,0.786,2.11
		c-2.462,0-4.924,0-7.386,0c0.204-0.297,0.099-0.598-0.021-0.816c-1.471-2.692-2.95-5.363-4.418-8.063
		c-0.276-0.51-0.588-0.562-0.916-0.562c-1.839-0.003-3.679,0.017-5.518-0.014c-0.465-0.007-0.778,0.098-0.755,1.407
		c0.048,2.68,0.042,5.362,0.058,8.047C68.292,162.963,66.568,162.963,64.845,162.963z"/>
	<path fill-rule="evenodd" clip-rule="evenodd" fill="#FBFAFA" d="M149.046,162.963c0.195-1.401-0.344-0.944-0.596-1.056
		c-2.15-0.956-4.025-3.037-5.448-6.719c-3.753-9.704-1.556-23.92,4.346-27.102c4.007-2.16,8.159-2.091,12.178,0.023
		c3.368,1.772,6.364,7.564,6.054,17.686c-0.228,7.506-3.13,14.343-7.018,16.073c-0.336,0.149-0.892-0.408-0.898,1.095
		C154.791,162.963,151.919,162.963,149.046,162.963z M153.106,153.235c1.375,0,2.404,0.129,3.425-0.026
		c2.276-0.349,3.964-3.6,4.083-7.7c0.125-4.229-1.154-8.111-3.186-8.866c-2.678-0.994-5.398-0.999-8.074,0.019
		c-1.897,0.723-3.122,4.252-3.122,8.167c0.001,3.858,1.143,6.745,3.067,7.954C150.675,153.646,152.072,153.035,153.106,153.235z"/>
	<path fill-rule="evenodd" clip-rule="evenodd" fill="#FBFAFA" d="M97.098,162.963c0.249-0.957,0.459-1.973,0.75-2.861
		c3.098-9.436,6.208-18.851,9.316-28.272c2.182-6.615,4.889-6.657,7.026-0.045c3.09,9.555,6.15,19.154,9.233,28.718
		c0.246,0.763,0.442,1.538,0.51,2.46c-6.32,0-12.639,0-18.958,0c0.754-2.444,1.558-4.822,2.245-7.354
		c0.524-1.932,1.181-2.541,2.193-2.421c1.721,0.203,3.45,0.056,5.382,0.056c-1.341-4.065-2.545-7.559-3.664-11.178
		c-0.47-1.523-0.657-1.212-1.077,0.075c-2.089,6.404-4.227,12.732-6.335,19.105c-0.156,0.475-0.528,0.914-0.222,1.716
		C101.365,162.963,99.231,162.963,97.098,162.963z"/>
	<path fill-rule="evenodd" clip-rule="evenodd" fill="#FBFAFA" d="M20.283,126.856c1.393,0.016,2.787,0.1,4.179,0.017
		c0.641-0.039,0.858,0.394,0.841,1.813c-0.04,3.281-0.012,6.565-0.012,10.4c2.208-3.431,4.278-6.408,6.216-9.75
		c1.106-1.908,2.229-2.622,3.6-2.476c1.711,0.182,3.43,0.044,5.543,0.044c-4.007,6.269-7.732,12.094-11.547,18.065
		c3.542,5.326,7.033,10.576,10.523,15.829c0.368,0.556,0.848,0.909,0.846,2.164c-2.545,0-5.088,0-7.632,0
		c0.33-1.226-0.282-1.246-0.487-1.573c-1.415-2.255-2.866-4.407-4.306-6.59c-0.85-1.289-1.702-2.576-2.84-4.298
		c0,4.631,0,8.544,0,12.461c-1.395,0-2.792-0.08-4.184,0.036c-0.62,0.052-0.759-0.306-0.756-1.653
		C20.295,149.85,20.283,138.353,20.283,126.856z"/>
	<path fill-rule="evenodd" clip-rule="evenodd" fill="#FBFAFA" d="M124.427,162.963c-0.014-11.479-0.02-22.957-0.052-34.436
		c-0.004-1.31,0.194-1.693,0.775-1.649c1.146,0.086,2.295,0.119,3.44-0.009c0.705-0.079,0.798,0.597,0.786,1.889
		c-0.032,3.273-0.01,6.549-0.01,10.336c2.307-3.587,4.459-6.771,6.52-10.218c0.906-1.515,1.809-2.098,2.92-2.011
		c1.842,0.144,3.685,0.04,5.918,0.04c-3.99,6.244-7.711,12.065-11.539,18.054c2.107,3.188,4.145,6.277,6.186,9.353
		c1.481,2.229,2.965,4.445,4.454,6.65c0.351,0.518,0.714,0.979,0.789,2.002c-2.544,0-5.087,0-7.632,0
		c0.235-1.012-0.226-1.094-0.429-1.409c-2.123-3.284-4.255-6.541-6.397-9.764c-0.203-0.306-0.392-1.017-0.806-0.458
		c0,3.815,0,7.722,0,11.631C127.708,162.963,126.067,162.963,124.427,162.963z"/>
	<path fill-rule="evenodd" clip-rule="evenodd" fill="#FBFAFA" d="M49.581,162.963c0.138-1.648-0.482-0.93-0.747-1.027
		c-1.547-0.576-3.032-1.494-4.321-3.518c-1.732-2.721-2.478-6.635-2.529-11.127c-0.072-6.189-0.01-12.387-0.044-18.579
		c-0.007-1.374,0.146-1.911,0.815-1.839c1.104,0.117,2.218,0.156,3.32-0.01c0.824-0.124,0.936,0.667,0.927,2.188
		c-0.031,5.564-0.033,11.131-0.005,16.696c0.024,4.644,0.745,6.384,2.867,7.089c1.916,0.635,3.835,0.724,5.748-0.055
		c1.848-0.752,2.574-2.673,2.582-6.853c0.012-5.655,0.031-11.311-0.014-16.965c-0.013-1.625,0.158-2.216,0.943-2.097
		c1.301,0.197,3.001-0.913,3.807,0.504c0.852,1.496,0.227,5.368,0.263,8.197c0.048,3.677,0.049,7.363-0.004,11.04
		c-0.117,8.075-1.865,12.764-5.437,14.698c-0.593,0.32-1.208,0.435-1.809,0.694c-0.222,0.096-0.543,0.227-0.207,0.964
		C53.684,162.963,51.632,162.963,49.581,162.963z"/>
	<path fill-rule="evenodd" clip-rule="evenodd" fill="#FBFAFA" d="M90.942,162.963c0.016-11.013,0.068-22.023,0.021-33.033
		c-0.011-2.434,0.255-3.328,1.4-3.071c1.17,0.263,2.751-0.822,3.434,0.483c0.789,1.508,0.241,5.042,0.254,7.69
		c0.045,9.309,0.044,18.62,0.06,27.93C94.389,162.963,92.666,162.963,90.942,162.963z"/>
	<path fill-rule="evenodd" clip-rule="evenodd" fill="#050505" d="M70.016,162.963c-0.016-2.685-0.009-5.367-0.058-8.047
		c-0.023-1.31,0.29-1.414,0.755-1.407c1.839,0.03,3.679,0.011,5.518,0.014c0.328,0,0.64,0.052,0.916,0.562
		c1.468,2.699,2.947,5.37,4.418,8.063c0.121,0.219,0.226,0.52,0.021,0.816C77.729,162.963,73.873,162.963,70.016,162.963z"/>
	<path fill-rule="evenodd" clip-rule="evenodd" fill="#050505" d="M103.499,162.963c-0.306-0.802,0.066-1.241,0.222-1.716
		c2.108-6.373,4.246-12.701,6.335-19.105c0.42-1.288,0.606-1.598,1.077-0.075c1.119,3.619,2.322,7.112,3.664,11.178
		c-1.932,0-3.661,0.147-5.382-0.056c-1.013-0.12-1.669,0.489-2.193,2.421c-0.687,2.531-1.491,4.909-2.245,7.354
		C104.483,162.963,103.991,162.963,103.499,162.963z"/>
	<path fill-rule="evenodd" clip-rule="evenodd" fill="#050505" d="M25.207,162.963c0-3.917,0-7.83,0-12.461
		c1.138,1.722,1.99,3.009,2.84,4.298c1.44,2.183,2.891,4.335,4.306,6.59c0.206,0.327,0.817,0.348,0.487,1.573
		C30.295,162.963,27.751,162.963,25.207,162.963z"/>
	<path fill-rule="evenodd" clip-rule="evenodd" fill="#050505" d="M129.35,162.963c0-3.909,0-7.815,0-11.631
		c0.414-0.559,0.603,0.152,0.806,0.458c2.142,3.223,4.274,6.479,6.397,9.764c0.203,0.315,0.664,0.397,0.429,1.409
		C134.438,162.963,131.894,162.963,129.35,162.963z"/>
	<path fill-rule="evenodd" clip-rule="evenodd" fill="#050505" d="M226.107,162.963c0.007-0.12,0.015-0.24,0.021-0.359
		c0.075,0.119,0.149,0.239,0.224,0.359C226.271,162.963,226.188,162.963,226.107,162.963z"/>
	<path fill-rule="evenodd" clip-rule="evenodd" fill="#CE222E" d="M202.021,139.912c0,6.543-0.031,13.088,0.02,19.631
		c0.015,1.92-0.268,2.424-1.116,2.378c-2.251-0.125-4.505-0.112-6.757-0.025c-0.764,0.031-1.064-0.337-1.061-2.189
		c0.028-13.268,0.022-26.534-0.021-39.801c-0.006-1.863,0.309-2.224,1.068-2.197c2.293,0.083,4.587,0.092,6.88-0.02
		c0.826-0.041,1.042,0.591,1.032,2.323c-0.04,6.632-0.017,13.267-0.017,19.901C202.041,139.912,202.032,139.912,202.021,139.912z"/>
	<path fill-rule="evenodd" clip-rule="evenodd" fill="#050505" d="M153.106,153.235c-1.034-0.2-2.432,0.41-3.807-0.453
		c-1.925-1.209-3.066-4.096-3.067-7.954c0-3.914,1.225-7.444,3.122-8.167c2.676-1.018,5.396-1.013,8.074-0.019
		c2.031,0.755,3.311,4.638,3.186,8.866c-0.119,4.101-1.807,7.352-4.083,7.7C155.511,153.364,154.481,153.235,153.106,153.235z"/>
</g>
</svg>
