<?xml version="1.0" encoding="utf-8"?>
<!-- Generator: Adobe Illustrator 16.0.0, SVG Export Plug-In . SVG Version: 6.00 Build 0)  -->
<!DOCTYPE svg PUBLIC "-//W3C//DTD SVG 1.1//EN" "http://www.w3.org/Graphics/SVG/1.1/DTD/svg11.dtd">
<svg version="1.1" id="Layer_1" xmlns="http://www.w3.org/2000/svg" xmlns:xlink="http://www.w3.org/1999/xlink" x="0px" y="0px"
	 width="280px" height="280px" viewBox="0 0 280 280" enable-background="new 0 0 280 280" xml:space="preserve">
<rect fill-rule="evenodd" clip-rule="evenodd" fill="#2D479E" width="280.53" height="280"/>
<g>
	<path fill-rule="evenodd" clip-rule="evenodd" fill="#F1F4F7" d="M77.087,76.326c3.155-3.571,6.791-6.63,11.117-8.956
		c0.384-0.044,0.796-0.02,1.148-0.143c6.488-2.259,12.639-1.478,18.279,2.076c1.779,1.122,2.732,0.713,3.595-0.635
		c3.648-5.697,8.987-9.645,15.153-12.764l-0.029,0.027c5.27-1.736,10.581-2.153,15.993-0.535c3.812,1.141,6.928,3.321,10.02,5.556
		c0,0,0.131,0.121,0.13,0.121c2.518,2.672,5.184,5.24,7.481,8.065c1.006,1.237,1.465,1.019,2.573,0.331
		c7.04-4.372,14.297-4.69,21.718-0.809c0.539,0.282,1.021,0.776,1.748,0.47c0.271,0.187,0.544,0.373,0.816,0.56
		c0.5,1.924,2.587,2.487,3.837,3.777c5.345,5.514,8.761,12.027,11.73,18.787c0.393,0.894,0.899,1.5,1.861,1.88
		c2.886,1.139,5.13,3.052,6.945,5.357c6.071,7.711,8.635,16.548,9.536,25.901c-0.377,0.09-0.751,0.246-1.131,0.261
		c-3.779,0.148-3.756,0.138-4.449-3.327c-0.729-3.645-1.379-7.313-3.045-10.733c-0.745-2.842-2.227-5.378-3.835-7.855
		c-0.396-0.608-0.831-1.489-1.811-1.097c-1.119,0.448-0.287,1.353-0.143,1.931c1.5,6.003,2.356,12.086,2.895,18.219
		c0.293,3.336,0.418,2.765-3.11,2.883c-1.24,0.042-1.979-0.19-1.929-1.536c0.02-0.503,0.25-1.25-0.633-1.496
		c-0.063-0.421-0.125-0.842-0.188-1.263c0.482-5.487-1.01-10.747-2.325-15.996c-1.716-6.845-3.917-13.561-7.768-19.702l-0.006-0.01
		c-0.705-1.628-1.635-3.131-2.883-4.458c-0.515-1.063-1.21-2-2.205-2.73c-0.771-1.121-1.664-2.134-2.912-2.836l-0.066,0.125
		l0.048-0.132c-2.688-2.612-5.782-4.491-9.818-4.676c-2.39-0.52-4.605-0.023-6.736,0.978c-0.813,0.168-1.53,0.5-2.114,1.06
		l0.172,0.137l-0.165-0.146c-1.073,0.94-3.978,0.822-2.271,3.368c0.527,1.029,1.055,2.058,1.581,3.087
		c4.32,9.684,7.282,19.715,8.87,30.084c0.819,5.346,1.791,10.687,1.525,16.124l-0.219-0.017l-0.173,0.124
		c-0.397-0.03-0.795-0.081-1.192-0.087c-3.461-0.059-3.362-0.063-3.614-3.232c-0.866-10.9-2.816-21.618-6.641-31.99
		c-0.498-1.352-0.53-2.942-1.915-3.94c-0.037-0.268-0.073-0.536-0.109-0.804c0.098-0.327-0.071-0.51-0.388-0.611l0.046,0.037
		c-1.295-3.526-2.663-7.021-4.976-10.118c-2.432-4.479-5.695-8.31-10.178-11.19c-2.38-2.619-5.317-4.151-9.115-4.008
		c-0.212-0.014-0.424-0.027-0.637-0.041c-1.466-1.22-3.079-0.577-4.662-0.316c-0.545-0.082-1.06-0.045-1.487,0.328
		c-0.322,0.071-0.644,0.142-0.966,0.212c-0.226,0.079-0.453,0.158-0.68,0.237c-6.814,2.498-11.151,7.469-15.042,12.893
		c-0.531,0.74-0.422,1.315,0.178,1.986c4.811,5.381,7.917,11.57,10.499,18.103c3.951,9.993,5.829,20.318,6.729,30.854
		c0.079,0.925-0.024,1.778-1.295,1.551c-1.371-0.245-3.695,1.099-3.936-1.172c-0.492-4.628-0.98-9.247-2.07-13.788
		c-0.686-2.855-0.81-5.865-2.536-8.457c-0.011-0.157-0.022-0.313-0.033-0.47c0.079-2.845-1.457-5.208-2.663-7.67
		c-0.059-0.267-0.117-0.534-0.176-0.801c0.149-0.34-0.035-0.5-0.367-0.58l0.029,0.027c-0.075-0.584-0.005-1.227-0.248-1.743
		c-2.722-5.785-5.816-11.401-11.029-15.625c-2.705-2.192-5.601-4.397-9.578-4.37c-0.638-0.271-1.285-0.346-1.949-0.083
		c-1.018-0.106-2.001-0.019-2.917,0.45c-2.726,0.642-5.112,1.885-7.181,3.623c-4.745,3.986-8.149,8.834-10.59,14.289
		c-1.844,3.66-1.825,3.626,1.823,5.43c2.098,1.037,3.833,2.47,5.406,4.165c4.213,4.537,6.438,9.942,7.997,15.584
		c1.013,3.67,2.395,7.335,2.008,11.241l-0.222-0.024l-0.182,0.12c-0.877-0.034-1.758-0.123-2.632-0.09
		c-1.294,0.049-2.008-0.201-2.174-1.651c-0.28-2.437-0.833-4.856-1.414-7.252c-1.346-5.55-3.557-10.745-7.552-15.178
		c-3.997-4.435-9.683-4.623-13.837-0.347c-3.409,3.508-5.594,7.593-6.799,12.153c-1.369,3.154-1.926,6.49-2.515,9.815
		c-0.464,2.622-2.986,3.436-5.522,1.746c0.848-5.962,2.072-11.842,4.667-17.399c2.705-5.792,6.014-11.127,12.715-13.759
		c0.686-0.27,0.861-0.838,1.103-1.376c1.458-3.248,2.908-6.5,4.361-9.75l-0.021,0.019c1.098-0.644,1.434-1.742,1.914-2.754
		l-0.031,0.032c0.639-0.466,1.021-1.055,1.018-1.828c0,0-0.087,0.068-0.086,0.068c0.177-0.177,0.353-0.354,0.529-0.531
		c0,0-0.023,0.054-0.022,0.054c0.378-0.065,0.603-0.28,0.702-0.617c0,0,0.106-0.137,0.106-0.136
		C76.727,76.766,76.907,76.546,77.087,76.326z"/>
	<path fill-rule="evenodd" clip-rule="evenodd" fill="#F1F4F7" d="M188.019,160.486c0.056-0.119,0.03-0.222-0.076-0.307
		c-0.488-0.921-0.95-1.856-1.471-2.762c-1.924-3.349-2.358-6.944-1.565-10.57c2.106-9.628,11.152-15.049,21.808-13.206
		c7.224,1.249,11.932,5.086,13.805,11.723c1.257,4.455,0.395,8.753-1.338,12.959c0,0,0.012,0.003,0.011,0.003
		c-0.421,0.179-0.493,0.539-0.553,0.907l0.033-0.046c-0.514,0.342-0.832,0.805-0.989,1.367l0.025-0.03
		c-1.856,1.585-3.486,3.568-5.856,4.405C202.957,168.071,194.863,167.019,188.019,160.486z M209.189,145.481
		c0.28-0.793-0.332-1.265-0.803-1.733c-2.291-2.279-8.358-2.661-10.858,0.021c-3.057,3.279-3.171,9.068-0.063,12.299
		c2.29,2.378,6.958,2.806,9.906,0.906c2.912-1.875,4.229-6.148,2.719-8.823C210.198,147.143,209.805,146.279,209.189,145.481z"/>
	<path fill-rule="evenodd" clip-rule="evenodd" fill="#F1F4F7" d="M148.876,138.159l-0.059,0.1l0.099,0.069
		c3.266,6.548,2.586,9.899-3.196,14.928c-0.924,0.804-0.58,1.369-0.145,2.105c1.731,2.923,3.413,5.874,5.197,8.77
		c0.826,1.339,0.839,1.987-1.125,1.923c-2.962-0.098-5.928-0.066-8.892-0.09c-1.675-3.014-3.417-5.998-5.001-9.053
		c-0.932-1.798-2.568-1.215-3.963-1.144c-1.341,0.067-1.387,1.194-1.387,2.186c0,2.077-0.06,4.156,0.015,6.23
		c0.045,1.28-0.323,1.931-1.868,1.867c-2.16-0.089-4.328-0.073-6.489-0.007c-1.219,0.038-1.73-0.322-1.727-1.5
		c0.029-9.719,0.041-19.438-0.01-29.156c-0.007-1.406,0.719-1.543,1.923-1.512c6.639,0.171,13.296-0.367,19.92,0.433
		c1.124,0.411,2.247,0.823,3.37,1.234c0.082,0.136,0.204,0.186,0.368,0.149c0.652,0.468,1.306,0.937,1.958,1.405
		c0,0-0.049-0.052-0.048-0.052c0.18,0.183,0.359,0.364,0.538,0.545c0,0-0.09-0.105-0.089-0.104
		C148.469,137.71,148.672,137.934,148.876,138.159z M134.21,148.552c1.274-0.073,2.548,0.082,3.827-0.236
		c1.853-0.461,2.694-1.598,2.631-3.259c-0.066-1.754-1.279-2.665-3.083-2.874c-0.87-0.101-1.763-0.042-2.645-0.037
		c-4.7,0.026-4.652,0.027-4.564,4.42c0.029,1.438,0.394,2.255,2.148,1.994C133.073,148.478,133.647,148.547,134.21,148.552z"/>
	<path fill-rule="evenodd" clip-rule="evenodd" fill="#F1F4F7" d="M114.681,140.564c2.36,4.201,3.298,8.615,2.219,13.298
		c-1.099,4.767-3.999,8.36-8.464,10.9c-0.455,0.136-0.917,0.252-1.362,0.411c-5.568,1.986-11.166,2.104-16.556-0.321
		c-5.895-2.654-9.19-7.004-9.467-13.271c-0.126-2.851,0.651-5.552,0.86-8.334c0.709-1.495,2.43-2.484,2.499-4.297
		c0.42-0.036,0.867-0.034,0.956-0.557l0.011-0.006c0.315-0.303,0.63-0.605,0.944-0.908c0,0-0.049-0.002-0.049-0.001
		c0.211-0.148,0.422-0.297,0.632-0.445c0.127-0.099,0.255-0.196,0.383-0.295c0.813-0.488,1.625-0.976,2.438-1.465l-0.035,0.02
		c1.933-0.611,3.867-1.222,5.799-1.833c4.836-0.369,9.526,0.017,13.85,2.297C111.413,137.08,113.142,138.732,114.681,140.564z
		 M105.594,154.448c1.053-0.848,1.12-2.027,1.25-3.187c0.012-0.45,0.025-0.901,0.037-1.352c0.111-2.721-0.664-5.075-3.233-6.685
		l-0.02-0.018c-2.605-1.776-5.939-2.085-8.389-0.563c-3.194,1.984-4.198,4.968-3.8,8.355c0.375,3.195,1.699,5.864,5.429,6.834
		c2.414,0.532,4.737,0.586,6.724-1.105c0.885-0.604,1.937-1.085,2.016-2.296L105.594,154.448z"/>
	<path fill-rule="evenodd" clip-rule="evenodd" fill="#F1F4F7" d="M49.12,134.282c0.049-0.058,0.097-0.166,0.148-0.168
		c7.169-0.236,14.387-0.915,21.472,0.45c5.398,1.039,8.122,4.656,8.956,9.575c0.082,3.059-0.639,5.91-2.529,8.463
		c-1.945,1.81-4.238,3.081-6.883,3.807c-0.625,0.09-1.251,0.181-1.876,0.271c-0.616-0.052-1.232-0.105-1.758,0.299
		c-1.979-0.433-3.991-0.098-5.982-0.217c-1.159-0.069-1.557,0.375-1.526,1.427c0.071,2.449,0.055,4.9,0.074,7.351
		c-3.361,0.791-6.726,0.793-10.093,0.033C49.121,155.142,49.12,144.712,49.12,134.282z M65.078,148.18
		c3.963-0.509,4.702-0.886,4.342-3.153c0.015-1.989-1.363-2.739-3.201-2.854c-1.903-0.118-3.821-0.044-5.731-0.025
		c-0.518,0.005-1.275-0.145-1.302,0.6c-0.061,1.693-0.024,3.391,0.008,5.085c0.007,0.412,0.333,0.693,0.784,0.663
		C61.677,148.38,63.426,148.93,65.078,148.18z"/>
	<path fill-rule="evenodd" clip-rule="evenodd" fill="#2C4695" d="M140.755,165.963c2.964,0.023,5.93-0.008,8.892,0.09
		c1.964,0.064,1.951-0.584,1.125-1.923c-1.784-2.896-3.466-5.847-5.197-8.77c-0.436-0.736-0.779-1.302,0.145-2.105
		c5.782-5.028,6.462-8.38,3.196-14.928c1.55,0.113,1.607,1.767,2.782,2.315c0.927-0.417,0.548-1.138,0.382-1.714
		c-0.38-1.323-0.276-2.658-0.245-3.989c0.037-1.591,1.29-2.362,2.694-2.257c6.478,0.486,12.959,0.234,19.438,0.282
		c2.623,0.02,5.284,0.089,7.632-1.354c0.822-0.505,1.297,0.101,1.794,0.614c1.836,1.896,1.89,4.152,1.556,6.483
		c-0.095,0.661-0.449,1.483,0.327,1.819c1.009,0.436,1.038-0.665,1.404-1.127c1.358-1.711,3.236-3.026,4.222-5.036
		c0.75-1.53,2.71-0.916,3.856-1.027c3.033-0.292,5.696-1.209,8.322-2.458c1.34-0.638,2.596-0.938,3.32,0.785
		c0.307,0.73,1.073,0.783,1.799,0.907c4.711,0.8,8.136,3.664,11.706,6.291c0.623,0.458,0.789,1.083,0.806,1.78
		c0.068,3.022,2.288,5.667,1.443,8.821c1.321,0.001,0.668-1.285,2.164-1.395c-1.556,3.552-1.863,7.224-4.446,10.143
		c-0.112,0.127-0.456,0.079-0.692,0.113c1.732-4.206,2.595-8.504,1.338-12.959c-1.873-6.636-6.581-10.474-13.805-11.723
		c-10.655-1.843-19.701,3.578-21.808,13.206c-0.793,3.626-0.358,7.222,1.565,10.57c0.521,0.905,0.982,1.841,1.471,2.762
		c-2.114-1.269-3.802-2.861-4.269-5.251c-0.544-2.787-0.421-5.582,0.132-8.359c0.218-1.089,0.504-3.112,0.019-3.079
		c-1.625,0.113-3.355-0.835-4.878,0.18c-0.598,0.398-1.048,0.95-1.845,0.321c-1.889-1.489-2.144-0.259-2.154,1.169
		c-0.027,4.013,0.006,8.026-0.017,12.039c-0.018,2.955,0.271,5.927-1.042,8.777c-0.523,1.137-1.085,1.615-2.494,1.46
		c-1.743-0.191-3.524-0.099-5.289-0.111c-3.318-0.024-5.84-2.526-4.918-5.41c1.342-4.195,0.438-8.408,0.707-12.604
		c0.037-0.582-0.217-1.179-0.196-1.765c0.04-1.077,0.859-2.599-0.348-3.08c-1.655-0.661-3.44-1.79-5.485-0.88
		c-0.427,0.19-0.898,0.359-1.364,0.402c-2.544,0.232-2.76,0.693-1.427,2.914c0.495,0.824,1.662,2.032-0.904,1.458
		c-1.209-0.27-1.61,0.846-1.574,1.773c0.057,1.471-0.791,2.339-2.001,3.036c-1.744,1.005-2.085,2.42-0.681,3.724
		c2.433,2.258,3.299,5.296,4.818,8.001c0.612,1.091-1.739,2.996-3.389,2.726c-2.361-0.387-4.662-1.056-7.112-0.387
		C141.263,167.498,140.753,166.883,140.755,165.963z M168.304,133.88c-2.81,0-5.619,0-8.429,0c-7.128,0-7.128,0-6.859,6.534
		c0.003,0.074,0.017,0.149,0.009,0.222c-0.132,1.189,0.514,1.541,1.713,1.509c2.005-0.055,4.022,0.104,6.018-0.039
		c1.873-0.134,2.452,0.396,2.418,2.192c-0.122,6.537-0.008,13.077-0.078,19.616c-0.018,1.621,0.488,2.299,2.336,2.149
		c1.752-0.143,3.544-0.16,5.291,0.008c2.106,0.202,2.534-0.631,2.509-2.399c-0.096-6.538-0.004-13.077-0.074-19.616
		c-0.016-1.418,0.376-2.019,2.008-1.941c2.242,0.106,4.495-0.019,6.741,0.036c1.217,0.029,1.737-0.323,1.672-1.524
		c-0.095-1.705-0.095-3.42,0-5.125c0.069-1.271-0.438-1.665-1.789-1.646C177.294,133.917,172.799,133.879,168.304,133.88z"/>
	<path fill-rule="evenodd" clip-rule="evenodd" fill="#2C4695" d="M97.844,70.977c3.977-0.028,6.873,2.177,9.578,4.37
		c5.213,4.225,8.308,9.841,11.029,15.625c0.243,0.516,0.173,1.159,0.248,1.743c-0.358-0.14-0.937-0.197-1.039-0.432
		c-1.263-2.911-3.902-5.176-4.595-8.343c-0.337-1.541-1.506-2.362-2.968-3.153c-2.118,4.278-3.74,8.639-5.083,13.098
		c-0.859,2.852-1.833,5.675-2.644,8.538c-0.408,1.439-0.671,2.969,1.628,3.802c-2.388,1.035-2.312,2.917-2.904,4.682
		c-1.343,4-0.771,8.141-1.634,12.143c-0.12,0.555,0.078,1.024,0.317,1.496c0.46,0.902,0.451,1.634-0.858,1.745
		c-1.375,0.117-0.609,1.312-1.138,1.898c-1.776-0.898-3.81-1.235-5.338-2.515c0.387-3.905-0.995-7.571-2.008-11.241
		c-1.559-5.642-3.783-11.047-7.997-15.584c-1.574-1.695-3.309-3.128-5.406-4.165c-3.648-1.803-3.667-1.77-1.823-5.43
		c0.754,0.214,1.14,0.815,0.833,1.374c-1.119,2.039,0.506,2.581,1.932,3.243c0.644,0.299,1.226,0.646,1.811,1.047
		c2.883,1.974,5.044,4.485,6.781,7.354c2.363,3.902,4.572,7.851,5.601,12.285c0.487,2.099,0.226,4.342,1.261,6.459
		c0.246-0.248,0.422-0.34,0.435-0.449c0.605-5.195,1.524-10.344,2.628-15.464c0.19-0.884,0.073-2.001,1.292-2.463
		c0.493,1.186,0.059,2.342-0.156,3.498c-1.099,5.923-1.906,11.877-2.238,17.881c-0.042,0.77-0.324,1.675,1.159,1.67
		c1.29-0.004,1.355-0.676,1.394-1.571c0.084-1.925,0.136-3.86,0.389-5.769c1.703-12.841,4.376-25.466,10.176-37.347
		c0.662-1.355-0.114-2.141-1.042-2.53c-1.224-0.513-1.47,0.892-1.7,1.484c-2.28,5.882-4.694,11.726-6.469,17.766
		c-1.437,0.008-1.28-0.776-0.942-1.638c0.623-1.591,1.522-3.137,1.833-4.778c0.883-4.664,4.062-8.562,4.947-13.203
		c0.09-0.474,0.501-0.461,0.905-0.533c1.772-0.315,1.171-1.051,0.292-1.729c-1.772-1.368-3.537-2.742-5.954-3.09
		C99.24,72.588,98.251,72.1,97.844,70.977z"/>
	<path fill-rule="evenodd" clip-rule="evenodd" fill="#2C4695" d="M60.709,185.231c-0.735,1.162-1.379,1.939-2.78,0.434
		c-0.646-0.694-1.993-1.127-3.049-0.408c-0.735,0.501-0.785,3.907-0.204,4.376c0.845,0.683,1.723,0.125,2.496-0.094
		c4.04-1.147,4.029-1.179,7.33,0.942c-0.009-1.574,0.722-2.858,1.813-3.798c1.614-1.388,1.114-2.35-0.27-3.46
		c-1.564-1.257-0.738-1.868,0.813-2.197c0.766,3.164,0.863,3.209,4.188,2.416c0.773-0.185,1.591-0.392,2.367-0.333
		c0.872,0.065,1.701,0.475,1.831,1.435c0.151,1.109-0.783,1.083-1.566,1.188c-1.19,0.161-2.402,0.243-3.565,0.506
		c-3.231,0.729-4.797,3.262-3.86,6.118c0.762,2.32,4.082,3.935,6.695,3.154c2.474-0.738,4.816-1.827,7.298,0.215
		c0.866,0.711,2.238,0.057,2.835-0.878c0.507-0.793,0.221-2.159-0.512-2.364c-1.754-0.49-1.3-1.623-1.339-2.642
		c-0.049-1.261,0.001-2.524-0.003-3.787c-0.016-4.14-0.946-5.329-5.171-6.637c4.211-0.938,6.802,1.194,6.395,5.264
		c-0.157,1.562,0.143,3.048,0.873,4.808c1.272-2.465,1.286-4.851,1.472-7.179c0.283-3.538,2.578-4.893,6.107-3.472
		c0.727,0.292,1.417,0.663,2.124,0.998c-0.74,0.215-1.115,1.585-2.38,0.198c-0.58-0.636-2.683-0.451-3.91-0.095
		c-0.97,0.281-0.4,1.587-0.414,2.421c-0.059,3.563,0.107,7.134-0.077,10.69c-0.099,1.921,0.629,2.285,2.536,2.304
		c2.07,0.021,2.597-0.65,2.471-2.45c-0.155-2.217-0.065-4.453,0.024-6.678c0.07-1.738,1.187-2.832,3.032-2.781
		c1.863,0.05,2.699,1.138,2.659,2.963c-0.064,2.962,0.086,5.929,0.146,8.894c-1.462,0.032-1.676-0.87-1.679-1.927
		c-0.007-2.075-0.005-4.15-0.023-6.226c-0.005-0.516,0.019-1.152-0.652-1.294c-0.806-0.171-1.048,0.47-1.316,1.027
		c-1.045,2.179-1.14,4.467-0.769,6.76c0.17,1.059-0.144,1.697-1.09,2.201c-2.289,1.22-5.044,0.826-6.92-1.114
		c-1.442,2.331-3.707,2.499-5.994,1.562c-2.108-0.865-3.844,0.04-5.671,0.519c-2.653,0.693-4.639-0.264-6.444-1.889
		c-1.341-1.206-2.276-2.239-3.971,0.066c-2.18,2.966-10.084,2.198-11.681-0.821c4.639,2.149,9.347,1.743,11.842-1.048
		c0.468-0.523,1.405-1.207,0.231-1.767c-0.998-0.477-1.805-2.226-3.164-1.076c-1.707,1.443-3.353,2.033-5.328,0.75
		c-1.574-1.023-2.082-3.55-1.271-5.504c0.953-2.299,3.173-2.865,5.271-1.341C59.152,184.668,59.654,185.451,60.709,185.231z
		 M84.638,190.646c-0.124-0.078-0.264-0.229-0.351-0.206c-0.112,0.029-0.257,0.199-0.254,0.307c0.007,0.249,0.184,0.409,0.458,0.272
		C84.584,190.973,84.591,190.774,84.638,190.646z M84.906,192.158c-0.071,0.005-0.142,0.009-0.212,0.013
		c0.04,0.1,0.08,0.198,0.12,0.299c0.056-0.04,0.146-0.072,0.16-0.122C84.988,192.293,84.932,192.223,84.906,192.158z"/>
	<path fill-rule="evenodd" clip-rule="evenodd" fill="#2C4695" d="M193.268,85.683c3.851,6.14,6.052,12.856,7.768,19.701
		c1.315,5.249,2.808,10.508,2.325,15.996c-1.361-1.67-0.847-3.75-1.424-5.594c-0.969-3.089-1.069-6.357-2.563-9.366
		c-0.701-1.413-0.698-3.161-0.539-4.792c0.106-1.098-0.096-2.599-1.181-2.532c-1.02,0.063-2.419,0.152-3.422,1.296
		c-1.658,1.891-3.405,3.679-4.749,5.812c-2.726,4.328-4.48,8.956-5.32,13.874c-0.315,1.848-1.003,3.583-1.469,5.382
		c-0.376,1.452-1.3,2.018-2.834,1.356c-1.153-0.499-2.578-0.263-3.574-1.159c0.266-5.437-0.706-10.777-1.525-16.124
		c-1.588-10.37-4.55-20.401-8.87-30.084c1.849-0.346,2.047,1.032,2.435,2.09c0.693,1.891,1.258,3.823,1.909,5.727
		c1.355,3.957,3.891,7.634,4.025,11.864c0.19,5.965,3.734,11.438,2.724,17.577c-0.246,1.492,0.391,3.109,0.622,4.668
		c0.215,0.018,0.429,0.035,0.644,0.053c0.442-3.105,1.048-6.172,2.001-9.16c0.635-1.985,0.787-4.26,3.451-5.063
		c-0.131,0.422-0.229,0.855-0.396,1.265c-2.033,5.027-3.417,10.201-4.071,15.535c-0.083,0.682-0.418,1.531,0.901,1.655
		c1.1,0.104,1.623-0.246,1.767-1.28c0.244-1.764,0.445-3.55,0.91-5.269c2.211-8.177,4.382-16.397,12.754-21.44
		c0.952-0.574,0.195-1.199,0.033-1.766c-0.235-0.828-0.852-0.668-1.519-0.4c-1.091,0.439-1.842,1.475-3.147,1.524
		c-0.09-1.112,0.869-1.488,1.637-2c2.776-1.851,2.953-2.457,1.908-5.321C193.997,88.394,193.076,87.176,193.268,85.683z"/>
	<path fill-rule="evenodd" clip-rule="evenodd" fill="#F1F4F7" d="M120.905,189.709c-0.086,0.994-0.463,1.992,0.77,2.747
		c0.921,0.564,1.071,1.729,0.458,2.365c-0.55,0.57-1.422,1.507-2.665,0.792c-2.51-1.444-5.116-0.614-7.672-0.163
		c-3.135,0.554-5.615-0.69-6.31-3.292c-0.773-2.892,0.665-5.133,3.884-5.91c1.08-0.261,2.214-0.348,3.33-0.466
		c0.975-0.104,2.237-0.151,2.037-1.323c-0.187-1.093-1.404-1.478-2.577-1.272c-1.227,0.216-2.424,0.575-3.629,0.889
		c-2.168,0.563-1.626-1.558-2.519-2.279c-0.955-0.772,0.417-1.021,0.918-1.162c3.688-1.039,7.379-2.269,11.134-0.09
		c1.021,0.594,1.627,1.359,1.976,2.372c0.442,1.045,0.312,2.148,0.419,3.23C120.578,187.335,119.946,188.613,120.905,189.709z
		 M112.56,192.31c1.455-0.142,2.654-0.756,2.705-2.23c0.025-0.719-0.571-1.604-1.719-1.377c-1.327,0.262-3.128,0.025-3.283,1.888
		C110.149,191.957,111.311,192.229,112.56,192.31z"/>
	<path fill-rule="evenodd" clip-rule="evenodd" fill="#F1F4F7" d="M76.056,179.418c4.226,1.308,5.155,2.497,5.171,6.637
		c0.005,1.263-0.045,2.526,0.003,3.787c0.039,1.019-0.416,2.151,1.339,2.642c0.733,0.205,1.019,1.571,0.512,2.364
		c-0.597,0.935-1.969,1.589-2.835,0.878c-2.482-2.042-4.824-0.953-7.298-0.215c-2.614,0.78-5.934-0.834-6.695-3.154
		c-0.938-2.856,0.629-5.39,3.86-6.118c1.164-0.263,2.375-0.345,3.565-0.506c0.783-0.105,1.717-0.079,1.566-1.188
		c-0.13-0.96-0.959-1.369-1.831-1.435c-0.776-0.059-1.594,0.148-2.367,0.333c-3.325,0.793-3.422,0.748-4.188-2.416
		c0,0,0.034-0.051,0.034-0.051c1.499-0.499,2.998-0.998,4.497-1.498C72.944,179.458,74.5,179.438,76.056,179.418z M73.105,192.284
		c1.743,0.045,3.041-1.085,3.072-2.753c0.009-0.477,0.405-1.229-0.822-1.134c-1.729,0.134-4.574,1.583-4.388,2.483
		C71.171,191.867,71.999,192.328,73.105,192.284z"/>
	<path fill-rule="evenodd" clip-rule="evenodd" fill="#F1F4F7" d="M97.112,195.303c-0.06-2.965-0.21-5.932-0.146-8.894
		c0.04-1.825-0.796-2.913-2.659-2.963c-1.845-0.051-2.962,1.043-3.032,2.781c-0.089,2.225-0.179,4.461-0.024,6.678
		c0.126,1.8-0.401,2.471-2.471,2.45c-1.907-0.019-2.635-0.383-2.536-2.304c0.184-3.557,0.019-7.127,0.077-10.69
		c0.014-0.834-0.556-2.14,0.414-2.421c1.228-0.356,3.331-0.541,3.91,0.095c1.265,1.387,1.64,0.017,2.38-0.198
		c0.772-0.12,1.54-0.277,2.317-0.354c3.262-0.321,6.056,1.31,6.279,4.129c0.292,3.683,0.111,7.397,0.094,11.099
		c-0.001,0.232-0.334,0.465-0.512,0.696c-1.122-0.003-2.243-0.007-3.364-0.011C97.597,195.365,97.354,195.333,97.112,195.303z"/>
	<path fill-rule="evenodd" clip-rule="evenodd" fill="#2C4695" d="M130.061,60.002c0.322-0.071,0.644-0.142,0.966-0.212
		c0.496-0.109,0.992-0.218,1.487-0.328c1.583-0.261,3.196-0.903,4.662,0.316c0.213,0.014,0.425,0.027,0.637,0.041
		c3.797-0.144,6.735,1.389,9.115,4.008c-1.976-0.257-3.203-1.802-5.09-2.381c-6.979-2.143-13.603-0.487-18.953,4.103
		c-2.425,2.081-3.942,4.703-6.278,6.761c-1.306,1.15-0.97,2.678,0.655,3.495c1.015,0.51,1.666,0.986,1.569,2.189
		c-0.04,0.498,0.453,1.094,0.835,1.551c3.866,4.629,5.023,10.308,7.156,15.614c1.182,2.939,1.237,6.204,3.424,8.901
		c0.688,0.849,0.596,2.556,0.751,3.839c0.324,2.678,0.461,5.417,1.345,7.953c1.027,2.948,0.951,5.994,1.583,8.962
		c0.229,1.076-0.222,1.678-1.595,1.977c-1.646,0.358-3.48,0.179-4.935,1.245c-0.492,0.36-0.864,0.155-1.072-0.385
		c-0.8-2.077-1.78-4.103-1.943-6.35c-0.161-2.214-0.468-4.427-0.486-6.642c-0.015-1.956-1.495-3.391-1.848-5.229
		c-0.138-0.716-0.614-1.556-0.229-2.11c1.211-1.741-0.682-3.434,0.091-5.111c1.726,2.591,1.85,5.601,2.536,8.457
		c1.09,4.541,1.579,9.16,2.07,13.788c0.241,2.271,2.565,0.927,3.936,1.172c1.271,0.227,1.374-0.626,1.295-1.551
		c-0.9-10.536-2.778-20.86-6.729-30.854c-2.583-6.533-5.688-12.722-10.499-18.103c-0.6-0.671-0.709-1.246-0.178-1.986
		c3.891-5.423,8.228-10.395,15.042-12.893C129.607,60.161,129.834,60.082,130.061,60.002z"/>
	<path fill-rule="evenodd" clip-rule="evenodd" fill="#2C4695" d="M157.105,75.018c2.313,3.097,3.681,6.592,4.976,10.118
		c-1.579-0.322-3.829,0.002-2.699-2.732c0.245-0.594-0.281-1.412-1.169-2.049c0.016,1.411-1.494,2.031-1.776,2.842
		c-1.201,3.444-3.84,6.156-5.037,9.658c-1.224,3.578-1.218,7.505-3.64,10.816c-0.871,1.19-0.961,3.155-0.995,4.664
		c-0.092,4.026-1.816,7.737-2.128,11.696c-0.109,1.386-0.643,2.746-0.556,4.176c0.051,0.845-0.072,1.74-0.956,2.141
		c-0.886,0.402-1.814,1.441-2.792,0.845c-1.071-0.654-1.524-1.883-1.476-3.139c0.198-5.13,0.211-10.352,1.793-15.257
		c1.258-3.903,1.814-7.989,3.585-11.761c0.623-1.328,0.768-2.789,0.979-4.247c0.188-1.286,1.489-2.453,1.953-3.922
		c1.425-4.516,4.551-8.195,7.427-11.971C155.206,76.095,156.769,76.232,157.105,75.018z M140.038,123.121
		c0.026,1.44-0.501,2.473,1.144,2.54c1.417,0.057,1.493-0.764,1.591-1.709c0.717-6.985,1.744-13.903,3.648-20.733
		c1.396-5.003,3.016-9.891,5.313-14.584c1.34-2.734,2.795-5.429,4.713-7.859c0.931-1.178,0.639-2.299-0.355-2.903
		c-0.997-0.605-1.31,0.731-1.731,1.288c-1.056,1.393-2.035,2.85-2.89,4.357C144.336,96.111,141.418,109.738,140.038,123.121z"/>
	<path fill-rule="evenodd" clip-rule="evenodd" fill="#2C4695" d="M57.631,113.404c1.205-4.561,3.39-8.646,6.799-12.153
		c4.154-4.275,9.84-4.088,13.837,0.347c3.995,4.433,6.206,9.628,7.552,15.178c0.581,2.396,1.133,4.815,1.414,7.252
		c0.166,1.451,0.879,1.701,2.174,1.651c0.874-0.033,1.755,0.056,2.632,0.09c-0.839,1.583-2.392,1.058-3.574,0.782
		c-1.283-0.299-2.545-1.023-2.636-2.553c-0.318-5.385-2.235-10.43-4.228-15.39c-0.983-2.448-3.06-4.427-5.342-6.244
		c-2.098-1.67-3.887-3.271-6.855-2.854l-0.106-0.086l0.094,0.098c1.792,2.574,0.094,5.088-0.318,7.56
		c-0.381,2.29-0.99,4.531-1.218,6.874c-0.375,3.865-1.105,7.708-1.851,11.531c-0.2,1.024-0.751,2.194-2.468,1.769
		c-1.404-0.348-2.484-0.777-2.586-2.418c-0.2-3.2,1.165-6.258,0.857-9.463c-0.062-0.649,0.601-0.999,1.285-1.133
		c0.627,3.262-0.998,6.365-0.791,9.607c0.059,0.915-0.237,1.788,1.279,1.829c1.469,0.04,1.431-0.846,1.496-1.76
		c0.361-5.11,1.109-10.174,2.227-15.188c0.575-2.58,1.232-5.144,1.879-7.824c-2.763,1.078-2.982,1.422-3.656,3.535
		c-0.94,2.95-0.874,6.115-2.292,8.954c-1.237-1.591-1.528-3.212-0.191-4.893c0.787-0.989,0.679-2.057,0.251-3.467
		c-2.166,2.025-3.62,4.349-3.251,6.84c0.238,1.607-0.1,2.412-1.208,3.335C58.021,114.849,58.062,113.987,57.631,113.404z"/>
	<path fill-rule="evenodd" clip-rule="evenodd" fill="#F1F4F7" d="M60.709,185.231c-1.056,0.22-1.557-0.563-2.227-1.05
		c-2.098-1.524-4.318-0.958-5.271,1.341c-0.81,1.954-0.303,4.48,1.271,5.504c1.975,1.283,3.622,0.693,5.328-0.75
		c1.359-1.149,2.167,0.6,3.164,1.076c1.174,0.56,0.236,1.243-0.231,1.767c-2.495,2.791-7.204,3.197-11.842,1.048l-0.06-0.025
		c-0.535-0.484-1.07-0.969-1.604-1.453c0,0-0.041,0.07-0.041,0.069c-0.149-0.257-0.298-0.515-0.447-0.771
		c-0.926-2.03-1.172-4.153-1.02-6.332c0.993-3.247,3.17-5.39,6.761-6.216c3.115-0.161,6.057,0.159,8.22,2.583
		c0.484,0.542,1.257,1.049,0.432,1.861c-0.789,0.192-1.435,0.604-2.005,1.129C60.996,185.085,60.853,185.158,60.709,185.231z"/>
	<path fill-rule="evenodd" clip-rule="evenodd" fill="#F1F4F7" d="M125.357,174.903c1.727-0.527,3.455-0.521,5.185-0.015
		c-0.008,6.713-0.017,13.425-0.026,20.137c-1.574,0.525-3.206,0.104-4.804,0.254c-0.08-0.878-0.22-1.756-0.229-2.635
		C125.426,186.73,125.396,180.816,125.357,174.903z"/>
	<path fill-rule="evenodd" clip-rule="evenodd" fill="#2C4695" d="M220.739,125.393c-0.901-9.353-3.465-18.19-9.536-25.901
		c-1.815-2.305-4.06-4.218-6.945-5.357c-0.962-0.38-1.469-0.986-1.861-1.88c-2.97-6.759-6.386-13.273-11.73-18.787
		c-1.25-1.29-3.337-1.853-3.837-3.777c2.212,0.885,4.038,2.106,5.831,3.725c4.112,3.709,5.232,9.101,9.116,12.852
		c0.404,0.39,0.601,0.88,0.603,1.419c0.013,3.338,2.172,5.503,5.121,6.669c3.094,1.223,4.72,3.63,6.173,5.936
		c2.445,3.877,4.838,7.973,6.044,12.267c0.99,3.526,2.042,7.226,1.966,11C221.668,124.302,221.748,125.088,220.739,125.393z"/>
	<path fill-rule="evenodd" clip-rule="evenodd" fill="#F1F4F7" d="M63.235,113.396c1.417-2.839,1.352-6.004,2.292-8.954
		c0.673-2.112,0.893-2.457,3.656-3.535c-0.647,2.68-1.304,5.244-1.879,7.824c-1.118,5.014-1.866,10.077-2.227,15.188
		c-0.065,0.914-0.027,1.8-1.496,1.76c-1.516-0.041-1.221-0.914-1.279-1.829c-0.207-3.242,1.417-6.346,0.791-9.607
		C63.14,113.96,63.188,113.679,63.235,113.396z"/>
	<path fill-rule="evenodd" clip-rule="evenodd" fill="#2C4695" d="M77.166,152.602c1.89-2.553,2.611-5.404,2.529-8.463
		c0.9,0.046,1.519-0.506,2.215-0.892c-0.209,2.782-0.986,5.483-0.86,8.334c0.277,6.268,3.572,10.617,9.467,13.271
		c5.39,2.426,10.988,2.308,16.556,0.321c0.445-0.159,0.908-0.275,1.362-0.411c-1.408,2.698-4.413,2.631-6.839,2.863
		c-4.203,0.404-8.375-0.583-12.485-1.48c-1.397-0.306-2.234-1.458-3.186-2.239c-3.52-2.887-5.964-6.428-5.762-11.044
		c0.056-1.264-0.327-1.592-1.439-0.736C78.256,152.486,77.739,152.593,77.166,152.602z"/>
	<path fill-rule="evenodd" clip-rule="evenodd" fill="#2C4695" d="M72.44,82.68c-1.453,3.251-2.903,6.502-4.361,9.75
		c-0.242,0.539-0.417,1.107-1.103,1.376c-6.702,2.632-10.01,7.968-12.715,13.759c-2.595,5.557-3.818,11.437-4.667,17.399
		c-0.765-2.517-0.971-4.959,0.066-7.537c0.968-2.409,1.545-4.988,2.121-7.489c1.026-4.468,4.47-7.578,6.506-11.437
		c1.14-2.16,2.988-3.726,4.995-4.504c4.833-1.873,4.71-6.482,7.03-9.7C70.905,83.478,71.052,82.481,72.44,82.68z"/>
	<path fill-rule="evenodd" clip-rule="evenodd" fill="#2C4695" d="M162.532,86.514c1.385,0.999,1.417,2.588,1.915,3.94
		c3.824,10.372,5.774,21.09,6.641,31.99c0.252,3.169,0.153,3.173,3.614,3.232c0.397,0.006,0.795,0.058,1.192,0.087
		c-0.623,2.42-2.478,0.881-3.723,0.875c-1.544-0.008-2.443-1.052-2.499-2.498c-0.234-5.958-1.004-11.889-2.079-17.73
		c-1.117-6.072-2.466-12.18-5.225-17.88C162.005,87.778,161.841,87.144,162.532,86.514z"/>
	<path fill-rule="evenodd" clip-rule="evenodd" fill="#2C4695" d="M203.549,122.643c0.883,0.246,0.652,0.992,0.633,1.496
		c-0.051,1.346,0.688,1.578,1.929,1.536c3.528-0.118,3.403,0.453,3.11-2.883c-0.538-6.133-1.395-12.216-2.895-18.219
		c-0.145-0.578-0.977-1.483,0.143-1.931c0.979-0.392,1.415,0.489,1.811,1.097c1.608,2.477,3.09,5.013,3.835,7.855
		c-0.831,1.11-0.938-0.074-1.239-0.371c-1.076-1.058-0.888-2.779-2.413-4.148c-0.071,2.319,0.467,4.192,0.833,5.962
		c0.634,3.063,0.612,6.164,1.168,9.212c0.092,0.507,0.139,1.031,0.124,1.544c-0.043,1.494,0.024,3.063-2.196,3.358
		c-2.691,0.359-5.075-0.594-5.645-2.329C202.46,123.952,202.885,123.245,203.549,122.643z"/>
	<path fill-rule="evenodd" clip-rule="evenodd" fill="#2C4695" d="M126.379,55.906c-6.166,3.119-11.505,7.067-15.153,12.764
		c-0.863,1.348-1.815,1.756-3.595,0.635c-5.641-3.554-11.792-4.335-18.279-2.076c-0.352,0.123-0.765,0.098-1.148,0.143
		c0.592-1.125,4.376-2.952,5.968-2.79c1.82,0.185,3.578,0.195,5.434-0.006c1.462-0.158,3.129,0.837,4.616,1.493
		c1.361,0.6,2.531,1.595,3.916,2.125c2.278,0.873,1.401-1.763,2.709-2.289c1.684-0.677,2.94-2.054,3.728-3.641
		c0.694-1.398,2.339-1.455,3.458-2.258c1.795-1.29,3.413-2.821,5.594-3.667C124.563,55.975,125.404,55.753,126.379,55.906z"/>
	<path fill-rule="evenodd" clip-rule="evenodd" fill="#2C4695" d="M186.013,69.132c-0.728,0.306-1.209-0.188-1.748-0.47
		c-7.421-3.881-14.678-3.563-21.718,0.809c-1.108,0.688-1.567,0.906-2.573-0.331c-2.298-2.825-4.964-5.393-7.481-8.065
		c3.843-0.314,5.038,2.493,6.422,4.872c0.729,1.254,1.528,2.743,2.95,2.421c1.03-0.233,3.479-0.241,2.888-2.591
		c-0.146-0.581,0.551-0.305,0.893-0.334c3.527-0.31,7.082-1.003,10.572-0.792c2.505,0.151,5.164,1.076,7.272,2.528
		C184.331,67.757,186.125,67.486,186.013,69.132z"/>
	<path fill-rule="evenodd" clip-rule="evenodd" fill="#2C4695" d="M188.019,160.486c6.845,6.532,14.938,7.585,23.833,4.443
		c2.37-0.837,4-2.82,5.856-4.405c0.263,1.714-0.587,2.508-2.123,3.624c-3.722,2.702-7.991,3.671-12.314,3.623
		c-5.268-0.059-10.606-0.857-14.337-5.094C188.348,162.014,187.889,161.374,188.019,160.486z"/>
	<path fill-rule="evenodd" clip-rule="evenodd" fill="#2C4695" d="M152.362,60.954c-3.092-2.235-6.208-4.415-10.02-5.556
		c-5.412-1.618-10.723-1.201-15.993,0.535c0.857-1.968,3.211-2.862,4.722-2.847c3.102,0.031,6.237-0.382,9.472,0.506
		c2.311,0.635,4.43,1.847,6.913,2.107C149.551,55.919,152.22,59.046,152.362,60.954z"/>
	<path fill-rule="evenodd" clip-rule="evenodd" fill="#2C4695" d="M49.12,134.282c0,10.43,0.001,20.859,0.001,31.289
		c-0.554-0.63-0.479-1.383-0.479-2.119c-0.001-9.017-0.001-18.033,0.001-27.05C48.644,135.667,48.563,134.912,49.12,134.282z"/>
	<path fill-rule="evenodd" clip-rule="evenodd" fill="#2C4695" d="M119.212,94.069c1.206,2.462,2.742,4.825,2.663,7.67
		c-1.079-0.132-1.321-0.928-1.608-1.707c-0.306-0.832-0.485-1.744-1.212-2.371C117.579,96.387,117.955,95.221,119.212,94.069z"/>
	<path fill-rule="evenodd" clip-rule="evenodd" fill="#2C4695" d="M59.214,165.538c-0.02-2.45-0.003-4.901-0.074-7.351
		c-0.031-1.052,0.368-1.496,1.526-1.427c1.991,0.119,4.002-0.216,5.982,0.217c0.622,0.078,1.224,0.064,1.757-0.299
		c0.625-0.09,1.251-0.181,1.876-0.271c-0.374,1.114-1.372,1.098-2.349,1.103c-1.685,0.008-3.369-0.006-5.053,0.008
		c-2.998,0.024-3.348,0.455-2.892,3.144c0.197,1.163,0.182,2.359,0.23,3.541C60.245,164.857,59.957,165.356,59.214,165.538z"/>
	<path fill-rule="evenodd" clip-rule="evenodd" fill="#2C4695" d="M125.357,174.903c0.039,5.913,0.069,11.827,0.127,17.741
		c0.008,0.879,0.149,1.757,0.229,2.635c-0.759-0.121-1.053-0.556-1.046-1.248c0.057-5.9,0.104-11.802,0.155-17.702
		C124.826,175.798,124.952,175.306,125.357,174.903z"/>
	<path fill-rule="evenodd" clip-rule="evenodd" fill="#2C4695" d="M130.517,195.025c0.009-6.712,0.018-13.424,0.026-20.137
		c0.557,0.527,0.558,1.198,0.558,1.867c0.003,5.472,0.007,10.943,0.01,16.415C131.111,193.844,131.084,194.509,130.517,195.025z"/>
	<path fill-rule="evenodd" clip-rule="evenodd" fill="#2C4695" d="M54.491,179.438c-3.59,0.826-5.768,2.969-6.761,6.216
		C47.192,181.956,50.137,179.249,54.491,179.438z"/>
	<path fill-rule="evenodd" clip-rule="evenodd" fill="#2C4695" d="M114.681,140.564c-1.54-1.832-3.269-3.485-5.343-4.808
		C111.716,135.438,114.473,137.919,114.681,140.564z"/>
	<path fill-rule="evenodd" clip-rule="evenodd" fill="#2C4695" d="M71.388,179.478c-1.499,0.5-2.998,0.999-4.497,1.498
		C67.467,178.44,68.452,178.112,71.388,179.478z"/>
	<path fill-rule="evenodd" clip-rule="evenodd" fill="#2C4695" d="M120.905,189.709c-0.959-1.096-0.328-2.374-0.446-3.563
		c-0.107-1.082,0.023-2.186-0.419-3.23c0.248-0.128,0.745-0.464,0.747-0.214C120.812,185.038,122.275,187.362,120.905,189.709z"/>
	<path fill-rule="evenodd" clip-rule="evenodd" fill="#2C4695" d="M95.488,133.46c-1.933,0.611-3.866,1.222-5.799,1.833
		C90.311,133.823,93.271,132.888,95.488,133.46z"/>
	<path fill-rule="evenodd" clip-rule="evenodd" fill="#2C4695" d="M121.782,166.548c2.345,0,4.689,0,7.034,0
		c0,0.074-0.001,0.148-0.002,0.222c-2.345,0-4.689,0-7.034,0C121.781,166.696,121.782,166.622,121.782,166.548z"/>
	<path fill-rule="evenodd" clip-rule="evenodd" fill="#2C4695" d="M61.138,185.012c0.57-0.524,1.216-0.937,2.005-1.129
		c0.396,0.938-0.189,1.555-0.947,1.916C61.526,186.118,61.31,185.495,61.138,185.012z"/>
	<path fill-rule="evenodd" clip-rule="evenodd" fill="#2C4695" d="M74.333,79.944c-0.479,1.012-0.816,2.11-1.914,2.754
		C72.223,81.284,72.82,80.342,74.333,79.944z"/>
	<path fill-rule="evenodd" clip-rule="evenodd" fill="#2C4695" d="M145.538,135.542c-1.123-0.411-2.246-0.823-3.37-1.234
		C143.703,133.755,144.87,134.065,145.538,135.542z"/>
	<path fill-rule="evenodd" clip-rule="evenodd" fill="#2C4695" d="M97.839,195.396c1.121,0.004,2.243,0.008,3.364,0.011
		C100.079,196.175,98.954,197.102,97.839,195.396z"/>
	<path fill-rule="evenodd" clip-rule="evenodd" fill="#2C4695" d="M89.724,135.273c-0.813,0.489-1.625,0.977-2.438,1.465
		C87.363,135.201,88.5,135.175,89.724,135.273z"/>
	<path fill-rule="evenodd" clip-rule="evenodd" fill="#2C4695" d="M49.238,192.688c0.534,0.484,1.069,0.969,1.604,1.453
		C49.325,194.586,49.214,193.701,49.238,192.688z"/>
	<path fill-rule="evenodd" clip-rule="evenodd" fill="#2C4695" d="M147.864,137.096c-0.652-0.468-1.306-0.937-1.958-1.405
		C147.001,135.63,147.828,135.891,147.864,137.096z"/>
	<path fill-rule="evenodd" clip-rule="evenodd" fill="#2C4695" d="M75.319,78.148c0.004,0.773-0.378,1.362-1.018,1.828
		C74.288,79.199,74.552,78.554,75.319,78.148z"/>
	<path fill-rule="evenodd" clip-rule="evenodd" fill="#2C4695" d="M217.683,160.555c0.157-0.563,0.476-1.025,0.989-1.367
		C218.753,159.898,218.449,160.369,217.683,160.555z"/>
	<path fill-rule="evenodd" clip-rule="evenodd" fill="#2C4695" d="M86.319,137.479c-0.314,0.303-0.629,0.605-0.944,0.908
		C85.371,137.8,85.726,137.534,86.319,137.479z"/>
	<path fill-rule="evenodd" clip-rule="evenodd" fill="#2C4695" d="M77.087,76.326c-0.18,0.22-0.36,0.44-0.54,0.66
		C76.188,76.389,76.332,76.143,77.087,76.326z"/>
	<path fill-rule="evenodd" clip-rule="evenodd" fill="#2C4695" d="M76.441,77.123c-0.1,0.336-0.324,0.552-0.702,0.617
		C75.782,77.348,75.971,77.098,76.441,77.123z"/>
	<path fill-rule="evenodd" clip-rule="evenodd" fill="#2C4695" d="M218.639,159.233c0.06-0.368,0.132-0.729,0.553-0.907
		C219.193,158.726,219.029,159.039,218.639,159.233z"/>
	<path fill-rule="evenodd" clip-rule="evenodd" fill="#2C4695" d="M85.364,138.393c-0.089,0.523-0.536,0.521-0.956,0.557
		C84.607,138.588,84.934,138.414,85.364,138.393z"/>
	<path fill-rule="evenodd" clip-rule="evenodd" fill="#2C4695" d="M86.903,137.033c-0.21,0.148-0.421,0.297-0.632,0.445
		C86.481,137.329,86.692,137.181,86.903,137.033z"/>
	<path fill-rule="evenodd" clip-rule="evenodd" fill="#2C4695" d="M148.354,137.589c-0.179-0.182-0.358-0.363-0.538-0.545
		C147.995,137.225,148.175,137.407,148.354,137.589z"/>
	<path fill-rule="evenodd" clip-rule="evenodd" fill="#2C4695" d="M162.035,85.099c0.316,0.102,0.485,0.284,0.388,0.611
		C162.294,85.506,162.164,85.302,162.035,85.099z"/>
	<path fill-rule="evenodd" clip-rule="evenodd" fill="#2C4695" d="M118.669,92.688c0.332,0.08,0.516,0.24,0.367,0.58
		C118.914,93.075,118.792,92.881,118.669,92.688z"/>
	<path fill-rule="evenodd" clip-rule="evenodd" fill="#2C4695" d="M75.761,77.686c-0.176,0.177-0.352,0.354-0.529,0.531
		C75.408,78.04,75.584,77.863,75.761,77.686z"/>
	<path fill-rule="evenodd" clip-rule="evenodd" fill="#2C4695" d="M148.876,138.159c-0.204-0.225-0.407-0.448-0.61-0.674
		C148.469,137.708,148.672,137.934,148.876,138.159z"/>
	<path fill-rule="evenodd" clip-rule="evenodd" fill="#2C4695" d="M48.75,191.986c0.149,0.257,0.298,0.515,0.447,0.771
		C49.048,192.501,48.899,192.244,48.75,191.986z"/>
	<path fill-rule="evenodd" clip-rule="evenodd" fill="#2D479E" d="M97.844,70.977c0.407,1.123,1.396,1.611,2.53,1.774
		c2.417,0.348,4.181,1.722,5.954,3.09c0.878,0.677,1.479,1.414-0.292,1.729c-0.404,0.072-0.814,0.06-0.905,0.533
		c-0.885,4.642-4.064,8.539-4.947,13.203c-0.311,1.641-1.209,3.187-1.833,4.778c-0.337,0.862-0.494,1.646,0.942,1.639
		c0.038,1.782-0.662,3.37-1.512,4.918c-1.219,0.462-1.101,1.579-1.292,2.463c-1.104,5.12-2.023,10.27-2.628,15.464
		c-0.013,0.109-0.188,0.201-0.435,0.449c-1.036-2.117-0.774-4.36-1.261-6.459c-1.029-4.435-3.238-8.383-5.601-12.285
		c-1.737-2.869-3.898-5.38-6.781-7.354c-0.585-0.401-1.167-0.748-1.811-1.047c-1.426-0.662-3.051-1.204-1.932-3.243
		c0.307-0.559-0.079-1.16-0.833-1.374c2.441-5.455,5.845-10.303,10.59-14.289c2.069-1.738,4.455-2.98,7.181-3.623
		c1.109,0.612,2.179,1.002,2.917-0.45C96.56,70.631,97.207,70.706,97.844,70.977z"/>
	<path fill-rule="evenodd" clip-rule="evenodd" fill="#2D479E" d="M183.701,107.206c-2.664,0.803-2.816,3.078-3.451,5.063
		c-0.953,2.988-1.559,6.055-2.001,9.16c-0.215-0.018-0.429-0.036-0.644-0.053c-0.231-1.56-0.868-3.176-0.622-4.668
		c1.011-6.138-2.533-11.611-2.724-17.577c-0.135-4.23-2.67-7.908-4.025-11.864c-0.651-1.904-1.216-3.836-1.909-5.727
		c-0.388-1.059-0.586-2.436-2.435-2.09c-0.526-1.029-1.054-2.058-1.581-3.087c0.411-1.323,1.946-1.995,2.271-3.368l0.165,0.146
		l-0.172-0.137c0.962,0.087,2.137,0.539,2.114-1.06c2.131-1.001,4.347-1.498,6.736-0.978c2.117,1.475,4.84,1.874,6.956,3.406
		c0.796,0.576,1.521,1.621,2.862,1.27l-0.048,0.132c0,0,0.066-0.125,0.066-0.125c0.265,1.567,1.084,2.645,2.912,2.835
		c0.995,0.73,1.69,1.667,2.205,2.73c-0.07,2.057,1.014,3.475,2.883,4.458l0.006,0.01c-0.191,1.494,0.729,2.711,1.211,4.028
		c1.045,2.865,0.868,3.47-1.908,5.321c-0.768,0.512-1.727,0.887-1.637,2c-0.108,0.446-0.426,0.683-0.896,0.765
		c-0.654-0.031-1.321-0.036-1.771,0.49c-2.258,2.639-4.228,5.409-4.568,8.892L183.701,107.206z"/>
	<path fill-rule="evenodd" clip-rule="evenodd" fill="#2C4695" d="M185.243,75.642c-1.342,0.351-2.066-0.694-2.862-1.27
		c-2.116-1.532-4.839-1.931-6.956-3.406C179.461,71.151,182.555,73.03,185.243,75.642z"/>
	<path fill-rule="evenodd" clip-rule="evenodd" fill="#2C4695" d="M193.262,85.672c-1.869-0.982-2.953-2.4-2.883-4.458
		C191.627,82.542,192.557,84.044,193.262,85.672z"/>
	<path fill-rule="evenodd" clip-rule="evenodd" fill="#2C4695" d="M166.581,72.995c-0.325,1.373-1.86,2.045-2.271,3.368
		C162.604,73.816,165.508,73.935,166.581,72.995z"/>
	<path fill-rule="evenodd" clip-rule="evenodd" fill="#2C4695" d="M188.174,78.485c-1.828-0.191-2.647-1.269-2.912-2.835
		C186.51,76.351,187.402,77.364,188.174,78.485z"/>
	<path fill-rule="evenodd" clip-rule="evenodd" fill="#2C4695" d="M95.896,70.895c-0.738,1.452-1.807,1.062-2.917,0.45
		C93.894,70.875,94.877,70.789,95.896,70.895z"/>
	<path fill-rule="evenodd" clip-rule="evenodd" fill="#2C4695" d="M168.688,71.943c0.022,1.598-1.152,1.146-2.114,1.06
		C167.158,72.443,167.876,72.111,168.688,71.943z"/>
	<path fill-rule="evenodd" clip-rule="evenodd" fill="#2D479E" d="M137.813,59.82c-0.212-0.014-0.424-0.027-0.637-0.041
		C137.389,59.792,137.601,59.806,137.813,59.82z"/>
	<path fill-rule="evenodd" clip-rule="evenodd" fill="#2D479E" d="M132.514,59.462c-0.496,0.109-0.992,0.218-1.487,0.328
		C131.455,59.417,131.969,59.38,132.514,59.462z"/>
	<path fill-rule="evenodd" clip-rule="evenodd" fill="#2D479E" d="M130.061,60.002c-0.227,0.079-0.454,0.158-0.68,0.237
		C129.608,60.16,129.835,60.082,130.061,60.002z"/>
	<path fill-rule="evenodd" clip-rule="evenodd" fill="#2D479E" d="M209.189,145.481c0.615,0.798,1.009,1.661,0.901,2.669
		c-0.215,0.309-0.661,0.656-0.608,0.919c0.596,2.94-1.089,4.781-3.255,6.624c-1.9,1.617-4.478,2.009-6.316,0.313
		c-2.004-1.847-4.581-3.594-2.609-6.798c0.091-0.149-0.052-0.424-0.09-0.64c-0.437-2.438,0.718-3.945,3.09-4.986
		C203.917,141.998,206.478,143.866,209.189,145.481z"/>
	<path fill-rule="evenodd" clip-rule="evenodd" fill="#2C4695" d="M209.189,145.481c-2.712-1.615-5.272-3.483-8.888-1.898
		c-2.372,1.041-3.526,2.549-3.09,4.986c0.038,0.216,0.181,0.49,0.09,0.64c-1.972,3.204,0.605,4.951,2.609,6.798
		c1.839,1.695,4.416,1.304,6.316-0.313c2.166-1.843,3.851-3.684,3.255-6.624c-0.053-0.263,0.394-0.61,0.608-0.919
		c1.51,2.675,0.193,6.948-2.719,8.823c-2.948,1.899-7.616,1.472-9.906-0.906c-3.108-3.23-2.994-9.02,0.063-12.299
		c2.5-2.682,8.567-2.3,10.858-0.021C208.857,144.217,209.47,144.688,209.189,145.481z"/>
	<path fill-rule="evenodd" clip-rule="evenodd" fill="#2C4695" d="M134.209,148.549c-0.563-0.002-1.136-0.071-1.685,0.011
		c-1.755,0.261-2.119-0.557-2.148-1.994c-0.088-4.393-0.136-4.394,4.564-4.42c0.882-0.005,1.775-0.063,2.645,0.037
		c1.803,0.209,3.016,1.12,3.083,2.874c0.063,1.661-0.779,2.798-2.631,3.259C136.758,148.634,135.484,148.479,134.209,148.549z"/>
	<path fill-rule="evenodd" clip-rule="evenodd" fill="#2D479E" d="M103.591,156.729c-1.987,1.691-4.31,1.638-6.724,1.105
		c-0.386-1.238-1.655-1.767-2.504-2.627c-2.192-2.223-2.769-6.264-1.179-8.879c2.107-3.463,3.484-3.995,8.049-3.21
		c0.778,0.133,1.596,0.064,2.395,0.09l0.02,0.018c1.078,2.228,2.156,4.456,3.233,6.685c-0.012,0.45-0.025,0.901-0.037,1.352
		c-1.338,0.753-1.248,1.985-1.25,3.187l0.014-0.016C104.115,154.58,103.625,155.482,103.591,156.729z"/>
	<path fill-rule="evenodd" clip-rule="evenodd" fill="#2C4695" d="M103.628,143.208c-0.799-0.025-1.617,0.043-2.395-0.09
		c-4.565-0.785-5.942-0.253-8.049,3.21c-1.59,2.615-1.013,6.656,1.179,8.879c0.849,0.86,2.118,1.389,2.504,2.627
		c-3.729-0.97-5.053-3.639-5.429-6.834c-0.398-3.388,0.606-6.371,3.8-8.355C97.689,141.123,101.023,141.432,103.628,143.208z"/>
	<path fill-rule="evenodd" clip-rule="evenodd" fill="#2C4695" d="M106.881,149.91c-1.078-2.229-2.156-4.457-3.233-6.685
		C106.218,144.835,106.992,147.189,106.881,149.91z"/>
	<path fill-rule="evenodd" clip-rule="evenodd" fill="#2C4695" d="M103.591,156.729c0.033-1.246,0.523-2.148,2.016-2.296
		C105.528,155.644,104.477,156.124,103.591,156.729z"/>
	<path fill-rule="evenodd" clip-rule="evenodd" fill="#2C4695" d="M105.594,154.448c0.002-1.201-0.087-2.434,1.25-3.187
		C106.713,152.421,106.647,153.601,105.594,154.448z"/>
	<path fill-rule="evenodd" clip-rule="evenodd" fill="#2D479E" d="M69.42,145.026c0.359,2.268-0.379,2.645-4.342,3.153
		c-1.249-0.177-2.503-0.329-3.747-0.533c-2.179-0.358-1.419-1.98-1.536-3.192c-0.122-1.261,0.68-1.6,1.921-1.673
		C64.619,142.609,67.396,142.672,69.42,145.026z"/>
	<path fill-rule="evenodd" clip-rule="evenodd" fill="#2C4695" d="M69.42,145.026c-2.024-2.354-4.802-2.417-7.704-2.245
		c-1.241,0.073-2.043,0.412-1.921,1.673c0.117,1.212-0.643,2.834,1.536,3.192c1.244,0.204,2.498,0.356,3.747,0.533
		c-1.652,0.75-3.401,0.2-5.101,0.315c-0.45,0.03-0.776-0.251-0.784-0.663c-0.032-1.694-0.068-3.392-0.008-5.085
		c0.027-0.744,0.784-0.595,1.302-0.6c1.911-0.019,3.829-0.093,5.731,0.025C68.058,142.287,69.436,143.037,69.42,145.026z"/>
	<path fill-rule="evenodd" clip-rule="evenodd" fill="#2D479E" d="M68.406,156.679c-0.533,0.363-1.136,0.377-1.757,0.299
		C67.174,156.573,67.791,156.627,68.406,156.679z"/>
	<path fill-rule="evenodd" clip-rule="evenodd" fill="#F1F4F7" d="M168.304,133.88c4.495,0,8.99,0.038,13.484-0.023
		c1.351-0.019,1.858,0.375,1.789,1.646c-0.095,1.705-0.095,3.42,0,5.125c0.065,1.201-0.455,1.553-1.672,1.524
		c-2.246-0.055-4.499,0.07-6.741-0.036c-1.632-0.077-2.023,0.523-2.008,1.941c0.07,6.539-0.021,13.078,0.074,19.616
		c0.025,1.769-0.402,2.602-2.509,2.399c-1.747-0.168-3.539-0.15-5.291-0.008c-1.848,0.149-2.354-0.528-2.336-2.149
		c0.07-6.539-0.044-13.079,0.078-19.616c0.034-1.796-0.545-2.326-2.418-2.192c-1.995,0.143-4.013-0.016-6.018,0.039
		c-1.199,0.032-1.845-0.319-1.713-1.509c0.008-0.073-0.006-0.148-0.009-0.222c-0.269-6.534-0.269-6.534,6.859-6.534
		C162.685,133.88,165.494,133.88,168.304,133.88z"/>
	<path fill-rule="evenodd" clip-rule="evenodd" fill="#F1F4F7" d="M97.781,102.641c0.851-1.548,1.55-3.136,1.512-4.918
		c1.775-6.041,4.189-11.884,6.469-17.766c0.23-0.592,0.477-1.997,1.7-1.484c0.928,0.389,1.704,1.174,1.042,2.53
		c-5.8,11.88-8.474,24.506-10.176,37.347c-0.253,1.909-0.305,3.844-0.389,5.769c-0.039,0.896-0.104,1.567-1.394,1.571
		c-1.483,0.005-1.201-0.9-1.159-1.67c0.332-6.004,1.139-11.958,2.238-17.881C97.84,104.983,98.274,103.826,97.781,102.641z"/>
	<path fill-rule="evenodd" clip-rule="evenodd" fill="#2D479E" d="M84.638,190.646c-0.046,0.128-0.053,0.326-0.148,0.373
		c-0.274,0.137-0.451-0.023-0.458-0.272c-0.002-0.107,0.142-0.277,0.254-0.307C84.374,190.417,84.514,190.568,84.638,190.646z"/>
	<path fill-rule="evenodd" clip-rule="evenodd" fill="#2D479E" d="M84.906,192.158c0.025,0.064,0.082,0.135,0.067,0.189
		c-0.013,0.05-0.104,0.082-0.16,0.122c-0.04-0.101-0.08-0.199-0.12-0.299C84.765,192.167,84.835,192.163,84.906,192.158z"/>
	<path fill-rule="evenodd" clip-rule="evenodd" fill="#F1F4F7" d="M190.038,97.796c0.47-0.083,0.787-0.319,0.896-0.765
		c1.306-0.05,2.057-1.085,3.147-1.524c0.667-0.269,1.283-0.428,1.519,0.4c0.162,0.567,0.919,1.191-0.033,1.766
		c-8.372,5.043-10.543,13.264-12.754,21.44c-0.465,1.719-0.666,3.505-0.91,5.269c-0.144,1.034-0.667,1.383-1.767,1.28
		c-1.319-0.124-0.984-0.973-0.901-1.655c0.654-5.334,2.038-10.508,4.071-15.535c0.166-0.41,0.265-0.843,0.396-1.265l-0.002-0.027
		C185.677,103.973,187.363,100.599,190.038,97.796z"/>
	<path fill-rule="evenodd" clip-rule="evenodd" fill="#2C4695" d="M112.56,192.31c-1.249-0.081-2.411-0.353-2.297-1.72
		c0.155-1.862,1.957-1.626,3.283-1.888c1.147-0.227,1.744,0.658,1.719,1.377C115.214,191.554,114.015,192.168,112.56,192.31z"/>
	<path fill-rule="evenodd" clip-rule="evenodd" fill="#2C4695" d="M73.105,192.283c-1.107,0.045-1.934-0.416-2.138-1.402
		c-0.186-0.9,2.659-2.35,4.388-2.483c1.227-0.095,0.831,0.657,0.822,1.134C76.146,191.199,74.849,192.329,73.105,192.283z"/>
	<path fill-rule="evenodd" clip-rule="evenodd" fill="#F1F4F7" d="M140.038,123.121c1.38-13.382,4.298-27.009,11.433-39.604
		c0.854-1.507,1.834-2.965,2.89-4.357c0.422-0.557,0.734-1.893,1.731-1.288c0.994,0.604,1.286,1.725,0.355,2.903
		c-1.918,2.43-3.373,5.125-4.713,7.859c-2.298,4.693-3.918,9.581-5.313,14.584c-1.904,6.83-2.932,13.748-3.648,20.733
		c-0.098,0.945-0.174,1.766-1.591,1.709C139.537,125.594,140.064,124.561,140.038,123.121z"/>
	<polygon fill-rule="evenodd" clip-rule="evenodd" fill="#2D479E" points="69.39,99.522 69.296,99.424 69.403,99.51 	"/>
	<path fill-rule="evenodd" clip-rule="evenodd" fill="#2C4695" d="M190.038,97.796c-2.675,2.803-4.361,6.177-6.339,9.382
		c0.341-3.483,2.311-6.253,4.568-8.892C188.717,97.76,189.384,97.765,190.038,97.796z"/>
</g>
</svg>
