<?xml version="1.0" encoding="utf-8"?>
<!-- Generator: Adobe Illustrator 16.0.0, SVG Export Plug-In . SVG Version: 6.00 Build 0)  -->
<!DOCTYPE svg PUBLIC "-//W3C//DTD SVG 1.1//EN" "http://www.w3.org/Graphics/SVG/1.1/DTD/svg11.dtd">
<svg version="1.1" id="Layer_1" xmlns="http://www.w3.org/2000/svg" xmlns:xlink="http://www.w3.org/1999/xlink" x="0px" y="0px"
	 width="280px" height="280px" viewBox="0 0 280 280" enable-background="new 0 0 280 280" xml:space="preserve">
<rect fill-rule="evenodd" clip-rule="evenodd" fill="#436FB6" width="280.53" height="280"/>
<g>
	<path fill-rule="evenodd" clip-rule="evenodd" fill="#F1F4FB" d="M110.655,138.72c17.207,0.001,34.413-0.001,51.621,0.005
		c1.023,0,2.078-0.113,3.066,0.128c2.119,0.516,3.5,2.144,3.592,4.75c0.092,2.588-1.061,4.451-3.223,5.057
		c-1.199,0.336-2.479,0.373-3.721,0.374c-34.301,0.019-68.6,0.016-102.898,0.014c-0.798,0-1.602,0.055-2.392-0.045
		c-2.684-0.338-4.657-1.741-4.539-5.334c0.118-3.544,2.079-4.918,4.823-4.933c6.153-0.033,12.307-0.016,18.46-0.016
		C87.181,138.719,98.918,138.72,110.655,138.72z"/>
	<path fill-rule="evenodd" clip-rule="evenodd" fill="#F1F4FB" d="M110.368,163.935c-17.205,0-34.409,0-51.613-0.001
		c-0.912-0.001-1.84,0.107-2.731-0.061c-2.27-0.425-3.776-1.893-3.879-4.8c-0.102-2.89,1.201-4.615,3.501-5.168
		c1.101-0.266,2.264-0.221,3.399-0.222c34.295-0.01,68.591-0.01,102.887-0.006c4.879,0,7.164,1.744,7.047,5.336
		c-0.111,3.412-2.252,4.921-6.996,4.921C144.777,163.936,127.573,163.935,110.368,163.935z"/>
	<path fill-rule="evenodd" clip-rule="evenodd" fill="#FDFEFF" d="M110.725,133.833c-17.193,0-34.387,0.002-51.58-0.004
		c-1.137-0.001-2.305,0.116-3.406-0.14c-2.281-0.53-3.642-2.22-3.575-5.103c0.061-2.667,1.316-4.297,3.506-4.725
		c1.113-0.218,2.268-0.181,3.405-0.181c34.272-0.008,68.545-0.008,102.818-0.005c4.98,0.001,7.174,1.636,7.066,5.233
		c-0.1,3.4-2.25,4.922-6.996,4.923C144.884,133.835,127.804,133.833,110.725,133.833z"/>
	<path fill-rule="evenodd" clip-rule="evenodd" fill="#FDFEFF" d="M209.305,129.287c-3.447,2.063-6.352,3.815-9.268,5.54
		c-3.176,1.877-3.475,1.669-3.547-2.361c-0.188-10.566-0.246-10.711,7.785-15.28c4.328-2.461,8.178-6.381,13.5-6.08
		c2.707,0.154,3.457,1.186,3.439,4.336c-0.105,18.864-0.125,37.731,0.014,56.596c0.025,3.505-0.971,4.31-3.709,4.271
		c-8.213-0.114-8.215,0.011-8.215-9.779c0-10.723,0-21.444,0-32.166C209.305,132.903,209.305,131.442,209.305,129.287z"/>
	<path fill-rule="evenodd" clip-rule="evenodd" fill="#F1F4FB" d="M110.347,108.56c13.205,0,26.41-0.001,39.616,0.003
		c0.91,0,1.848-0.122,2.724,0.095c2.082,0.516,3.52,1.931,3.648,4.643c0.137,2.86-1.046,4.697-3.37,5.272
		c-1.208,0.298-2.484,0.277-3.729,0.277c-25.842,0.015-51.683,0.013-77.524,0.01c-4.974-0.001-7.135-1.593-7.121-5.212
		c0.015-3.648,2.037-5.085,7.165-5.086C84.619,108.559,97.483,108.56,110.347,108.56z"/>
	<path fill-rule="evenodd" clip-rule="evenodd" fill="#FDFEFF" d="M110.367,168.817c13.101,0,26.201-0.002,39.303,0.004
		c1.023,0,2.071-0.107,3.068,0.105c2.322,0.499,3.626,2.22,3.57,5.088c-0.052,2.671-1.298,4.302-3.497,4.717
		c-1.116,0.21-2.271,0.173-3.408,0.173c-25.974,0.009-51.948,0.009-77.922,0.004c-4.833-0.001-6.854-1.489-6.873-5.006
		c-0.02-3.565,2.003-5.083,6.798-5.084C84.393,168.815,97.379,168.817,110.367,168.817z"/>
</g>
</svg>
