<?xml version="1.0" encoding="utf-8"?>
<!-- Generator: Adobe Illustrator 16.0.0, SVG Export Plug-In . SVG Version: 6.00 Build 0)  -->
<!DOCTYPE svg PUBLIC "-//W3C//DTD SVG 1.1//EN" "http://www.w3.org/Graphics/SVG/1.1/DTD/svg11.dtd">
<svg version="1.1" id="Layer_1" xmlns="http://www.w3.org/2000/svg" xmlns:xlink="http://www.w3.org/1999/xlink" x="0px" y="0px"
	 width="280px" height="280px" viewBox="0 0 280 280" enable-background="new 0 0 280 280" xml:space="preserve">
<rect fill-rule="evenodd" clip-rule="evenodd" fill="#F3EA28" width="280.53" height="280"/>
<g>
	<path fill-rule="evenodd" clip-rule="evenodd" fill="#5F5F5E" d="M235.188,168.103c-0.003,3.106-0.003,6.212-0.006,9.317
		c-0.201,0.288-0.404,0.575-0.606,0.863c-12.156,0.452-24.313,0.395-36.47,0.028c-0.231-0.303-0.466-0.605-0.699-0.91
		c-0.78-5.119,0.777-9.079,3.879-12.755c6.021-7.141,11.77-14.602,17.606-21.958c1.543-1.946,2.918-4.067,3.776-6.557
		c1.533-4.453,0.166-8.867-3.238-10.611c-3.784-1.939-8.506-0.34-9.541,4.13c-1.011,4.363-3.211,4.091-6.036,4.178
		c-7.008,0.216-8.13-0.066-4.511-9.033c5.219-12.933,21.603-16.312,30.6-6.597c4.97,5.367,6.182,14.952,2.798,22.36
		c-1.817,3.978-4.412,7.257-7.011,10.526c-3.955,4.977-7.911,9.951-12.325,15.503c7.608,1.12,14.682-0.316,21.647,0.837
		c-0.04,0.082-0.128,0.19-0.108,0.243C235.001,167.825,235.104,167.959,235.188,168.103z"/>
	<path fill-rule="evenodd" clip-rule="evenodd" fill="#5F5F5E" d="M168.75,156.504c2.633,0.646,3.397,2.814,3.072,5.589
		c-0.324,2.768-2.027,3.927-4.242,4.208c-0.588,0.074-1.188,0.031-1.782,0.031c-36.618,0.002-73.237-0.007-109.855,0.019
		c-2.539,0.002-4.946-0.376-5.718-3.668c-0.665-2.839,0.021-5.267,2.809-6.153c0.21-0.036,0.419-0.071,0.629-0.105
		c0.942-0.096,1.883-0.273,2.825-0.273c36.268-0.015,72.535-0.015,108.801,0c0.944,0,1.886,0.173,2.827,0.266
		C168.326,156.445,168.537,156.475,168.75,156.504z"/>
	<path fill-rule="evenodd" clip-rule="evenodd" fill="#5F5F5E" d="M53.03,150.437c-2.531-0.841-3.358-2.999-2.897-5.767
		c0.484-2.911,2.384-3.994,4.74-4.067c2.021-0.063,4.043-0.022,6.064-0.022c34.483,0,68.967,0,103.452,0.001
		c1.068,0,2.148-0.083,3.208,0.052c2.201,0.281,3.902,1.469,4.225,4.242c0.321,2.783-0.437,4.944-3.074,5.582
		c-0.211,0.032-0.421,0.063-0.632,0.096c-1.059,0.104-2.117,0.302-3.177,0.303c-36.035,0.017-72.068,0.017-108.103-0.001
		c-1.059,0-2.117-0.208-3.175-0.319C53.451,150.503,53.241,150.47,53.03,150.437z"/>
	<path fill-rule="evenodd" clip-rule="evenodd" fill="#5F5F5E" d="M168.737,125.542c2.594,0.693,3.438,2.825,3.079,5.622
		c-0.381,2.958-2.203,4.111-4.583,4.258c-0.83,0.051-1.664,0.026-2.496,0.026c-35.917,0.001-71.834,0.001-107.751,0
		c-0.832-0.001-1.669,0.048-2.496-0.038c-2.377-0.248-4.162-1.501-4.404-4.486c-0.246-3.035,0.801-5.151,3.66-5.458
		c1.245,1.202,2.732,0.759,4.124,0.76c35.571,0.022,71.144,0.021,106.714,0.001C165.981,126.226,167.459,126.633,168.737,125.542z"
		/>
	<path fill-rule="evenodd" clip-rule="evenodd" fill="#5F5F5E" d="M155.247,119.541c-1.299,0.107-2.598,0.307-3.896,0.308
		c-27.044,0.018-54.089,0.015-81.134,0.01c-1.072,0-2.148,0.023-3.213-0.1c-2.339-0.27-3.733-1.883-3.928-4.568
		c-0.215-2.96,1.256-4.706,3.599-5.388c0.904-0.263,1.893-0.165,2.843-0.165c27.64-0.007,55.28-0.002,82.92-0.014
		c2.181,0,4.346-0.05,5.727,2.448c1.498,2.71,0.68,5.322-2.29,7.355C155.666,119.463,155.457,119.502,155.247,119.541z"/>
	<path fill-rule="evenodd" clip-rule="evenodd" fill="#5F5F5E" d="M66.615,181.424c-2.761-0.537-3.887-2.697-3.477-5.663
		c0.422-3.043,2.355-4.292,4.936-4.286c7.246,0.02,14.492,0.004,21.739,0.004c20.55-0.001,41.101,0,61.651,0
		c0.832,0,1.663-0.005,2.495,0.007c2.563,0.033,4.46,1.271,4.8,4.418c0.327,3.041-0.816,5.103-3.596,5.54
		c-0.208,0.015-0.418,0.031-0.627,0.047c-6.054,0.068-12.108,0.19-18.163,0.198c-21.625,0.023-43.25,0.013-64.874,0
		c-1.421-0.001-2.841-0.135-4.261-0.205C67.03,181.464,66.823,181.443,66.615,181.424z"/>
	<path fill-rule="evenodd" clip-rule="evenodd" fill="#545463" d="M168.737,125.542c-1.278,1.091-2.756,0.684-4.153,0.685
		c-35.571,0.02-71.144,0.021-106.714-0.001c-1.392-0.001-2.879,0.442-4.124-0.76c1.306-0.064,2.611-0.184,3.917-0.185
		c35.604-0.01,71.207-0.011,106.81,0.003C165.895,125.285,167.316,125.451,168.737,125.542z"/>
	<path fill-rule="evenodd" clip-rule="evenodd" fill="#545463" d="M155.247,119.541c0.21-0.039,0.419-0.077,0.628-0.115l-0.3,0.158
		L155.247,119.541z"/>
	<path fill-rule="evenodd" clip-rule="evenodd" fill="#545463" d="M53.03,150.437c0.21,0.033,0.42,0.066,0.63,0.101
		c-0.001,0-0.327,0.049-0.327,0.049L53.03,150.437z"/>
	<path fill-rule="evenodd" clip-rule="evenodd" fill="#545463" d="M168.115,150.555c0.211-0.032,0.421-0.063,0.632-0.096
		l-0.305,0.147L168.115,150.555z"/>
	<path fill-rule="evenodd" clip-rule="evenodd" fill="#545463" d="M53.662,156.424c-0.21,0.034-0.419,0.069-0.629,0.105
		C53.226,156.358,53.436,156.323,53.662,156.424z"/>
	<path fill-rule="evenodd" clip-rule="evenodd" fill="#545463" d="M168.75,156.504c-0.213-0.029-0.424-0.059-0.635-0.088
		C168.341,156.311,168.552,156.34,168.75,156.504z"/>
	<path fill-rule="evenodd" clip-rule="evenodd" fill="#545463" d="M235.188,168.103c-0.084-0.144-0.187-0.277-0.245-0.434
		c-0.02-0.053,0.068-0.161,0.108-0.243C235.267,167.604,235.312,167.83,235.188,168.103z"/>
	<path fill-rule="evenodd" clip-rule="evenodd" fill="#545463" d="M197.406,177.401c0.233,0.305,0.468,0.607,0.699,0.91
		C197.536,178.364,197.369,177.99,197.406,177.401z"/>
	<path fill-rule="evenodd" clip-rule="evenodd" fill="#545463" d="M234.575,178.283c0.202-0.288,0.405-0.575,0.606-0.863
		C235.232,177.952,235.107,178.314,234.575,178.283z"/>
	<path fill-rule="evenodd" clip-rule="evenodd" fill="#545463" d="M66.615,181.424c0.208,0.02,0.415,0.04,0.623,0.06
		c-0.001,0-0.318,0.064-0.318,0.064L66.615,181.424z"/>
	<path fill-rule="evenodd" clip-rule="evenodd" fill="#545463" d="M154.536,181.49c0.209-0.016,0.419-0.032,0.627-0.047
		l-0.309,0.116L154.536,181.49z"/>
</g>
</svg>
