<?xml version="1.0" encoding="utf-8"?>
<!-- Generator: Adobe Illustrator 16.0.0, SVG Export Plug-In . SVG Version: 6.00 Build 0)  -->
<!DOCTYPE svg PUBLIC "-//W3C//DTD SVG 1.1//EN" "http://www.w3.org/Graphics/SVG/1.1/DTD/svg11.dtd">
<svg version="1.1" id="Layer_1" xmlns="http://www.w3.org/2000/svg" xmlns:xlink="http://www.w3.org/1999/xlink" x="0px" y="0px"
	 width="280px" height="280px" viewBox="0 0 280 280" enable-background="new 0 0 280 280" xml:space="preserve">
<rect fill-rule="evenodd" clip-rule="evenodd" fill="#3B54A5" width="280.53" height="280"/>
<g>
	<path fill-rule="evenodd" clip-rule="evenodd" fill="#FDFDFE" d="M230.789,144.599c6.3,4.769,8.059,11.442,6.404,19.662
		c-1.483,7.372-6.805,12.866-13.579,14.095c-11.395,2.067-20.255-3.576-23.234-14.798c-1.44-5.435-1.193-5.872,3.325-5.879
		c0.819-0.001,1.649,0.095,2.46-0.018c2.656-0.366,4.264,0.231,5.423,3.942c2.068,6.63,10.697,7.668,14.072,2.107
		c1.592-2.623,1.74-5.642,0.76-8.539c-1.125-3.329-3.47-4.752-6.356-5.211c-1.549-0.245-3.884,1.026-4.487-1.073
		c-0.696-2.423-0.462-5.35-0.251-8.012c0.206-2.581,2.136-1.617,3.396-1.723c4.653-0.396,7.316-3.044,7.428-7.633
		c0.098-4.021-1.293-6.854-4.584-8.034c-3.562-1.277-7.787-0.011-8.761,3.845c-1.3,5.157-4.085,4.758-7.253,4.704
		c-5.509-0.094-5.712-0.395-3.688-6.663c4.491-13.899,20.22-18.714,29.781-9.302C237.701,122.03,239.599,136.822,230.789,144.599z"
		/>
	<path fill-rule="evenodd" clip-rule="evenodd" fill="#EFF1F9" d="M109.946,139.832c17.71,0,35.421-0.001,53.132,0.003
		c1.055,0,2.14-0.14,3.157,0.108c2.349,0.569,3.814,2.481,3.791,5.339c-0.022,2.625-1.262,4.587-3.59,5.021
		c-1.15,0.216-2.326,0.318-3.491,0.318c-35.421,0.018-70.841,0.014-106.262,0.014c-0.47,0-0.939,0.02-1.407-0.01
		c-3.766-0.231-5.452-1.949-5.429-5.52c0.022-3.512,1.794-5.254,5.561-5.263c12.784-0.03,25.568-0.012,38.353-0.012
		C99.156,139.832,104.551,139.832,109.946,139.832z"/>
	<path fill-rule="evenodd" clip-rule="evenodd" fill="#EFF1F9" d="M109.642,166.265c-17.826,0-35.651,0.004-53.476-0.007
		c-1.392-0.001-2.795,0.203-4.115-0.705c-1.75-1.204-2.395-2.975-2.198-5.338c0.188-2.257,1.187-3.736,2.955-4.224
		c1.24-0.341,2.551-0.409,3.831-0.41c35.533-0.021,71.067-0.017,106.601-0.016c0.702,0,1.408-0.023,2.109,0.035
		c2.871,0.243,4.803,2.025,4.64,5.603c-0.149,3.256-2.012,4.983-4.76,5.055c-0.819,0.021-1.642,0.007-2.463,0.007
		C145.058,166.266,127.35,166.265,109.642,166.265z"/>
	<path fill-rule="evenodd" clip-rule="evenodd" fill="#FDFDFE" d="M110.004,124.157c17.578,0,35.156-0.001,52.733,0.005
		c1.172,0.001,2.347-0.005,3.512,0.124c2.376,0.261,3.603,2.175,3.746,4.799c0.146,2.691-1.178,4.532-3.288,5.384
		c-0.541,0.217-1.158,0.201-1.74,0.201c-36.68,0.01-73.359,0.012-110.038,0.001c-0.697,0-1.448,0.016-2.08-0.278
		c-2.07-0.962-3.217-2.731-2.982-5.582c0.217-2.648,1.452-4.129,3.545-4.496c1.152-0.202,2.337-0.152,3.507-0.153
		C74.614,124.156,92.309,124.158,110.004,124.157z"/>
	<path fill-rule="evenodd" clip-rule="evenodd" fill="#EFF1F9" d="M109.954,108.208c13.709,0,27.419,0.017,41.128-0.019
		c2.065-0.006,4.002,0.186,5.297,2.463c1.562,2.746,0.613,6.645-2.027,7.712c-1.296,0.523-2.759,0.588-4.147,0.589
		c-26.834,0.032-53.667,0.024-80.501,0.023c-0.586,0-1.172,0.022-1.756-0.013c-2.85-0.171-5.122-1.326-5.312-5.309
		c-0.161-3.368,1.924-5.424,5.487-5.432C82.065,108.188,96.01,108.208,109.954,108.208z"/>
	<path fill-rule="evenodd" clip-rule="evenodd" fill="#FDFDFE" d="M109.784,181.872c-13.955,0-27.91,0.026-41.864-0.019
		c-3.624-0.012-5.833-2.565-5.233-6.012c0.577-3.319,2.51-4.45,5.196-4.447c28.026,0.037,56.054,0.01,84.081,0.041
		c3.383,0.004,5.209,2.015,5.044,5.416c-0.184,3.777-2.18,5.025-5.007,5.023C137.927,181.867,123.856,181.872,109.784,181.872z"/>
</g>
</svg>
