<?xml version="1.0" encoding="utf-8"?>
<!-- Generator: Adobe Illustrator 16.0.0, SVG Export Plug-In . SVG Version: 6.00 Build 0)  -->
<!DOCTYPE svg PUBLIC "-//W3C//DTD SVG 1.1//EN" "http://www.w3.org/Graphics/SVG/1.1/DTD/svg11.dtd">
<svg version="1.1" id="Layer_1" xmlns="http://www.w3.org/2000/svg" xmlns:xlink="http://www.w3.org/1999/xlink" x="0px" y="0px"
	 width="288px" height="288px" viewBox="0 0 288 288" enable-background="new 0 0 288 288" xml:space="preserve">
<rect fill-rule="evenodd" clip-rule="evenodd" fill="#F2EA29" width="288" height="288"/>
<g>
	<path fill-rule="evenodd" clip-rule="evenodd" fill="#5F5F5E" d="M117.617,166.061c-18.656,0-37.311,0.005-55.967-0.004
		c-3.34-0.002-5.492-3.225-4.587-6.866c0.5-2.009,1.59-3.338,3.294-3.726c0.792-0.181,1.615-0.212,2.423-0.212
		c36.498-0.01,72.997-0.009,109.494-0.008c0.509,0,1.021-0.034,1.524,0.022c2.633,0.291,4.408,2.629,4.321,5.657
		c-0.084,2.973-2.028,5.129-4.688,5.131c-12.047,0.011-24.095,0.005-36.142,0.005C130.732,166.061,124.175,166.061,117.617,166.061z
		"/>
	<path fill-rule="evenodd" clip-rule="evenodd" fill="#5F5F5E" d="M117.58,123.071c18.441,0,36.883-0.002,55.324,0.001
		c2.599,0,4.202,1.133,4.926,3.443c0.901,2.879-0.37,6.164-2.767,7.099c-0.829,0.324-1.691,0.378-2.561,0.378
		c-36.68-0.006-73.36-0.003-110.04-0.008c-3.077,0-4.835-1.376-5.432-4.191c-0.669-3.159,1.074-6.318,3.702-6.667
		c0.604-0.08,1.218-0.053,1.827-0.053C80.9,123.07,99.24,123.07,117.58,123.071z"/>
	<path fill-rule="evenodd" clip-rule="evenodd" fill="#5F5F5E" d="M117.441,139.238c18.342,0,36.684,0,55.025,0.002
		c0.609,0,1.224-0.023,1.826,0.065c2.034,0.3,3.645,2.372,3.822,4.86c0.178,2.504-1.099,4.874-3.059,5.629
		c-0.779,0.301-1.587,0.368-2.407,0.368c-36.785-0.009-73.57-0.007-110.354-0.01c-3.001,0-4.75-1.458-5.304-4.382
		c-0.583-3.075,1.184-6.142,3.75-6.473c0.604-0.078,1.218-0.058,1.827-0.058C80.86,139.238,99.151,139.238,117.441,139.238z"/>
	<path fill-rule="evenodd" clip-rule="evenodd" fill="#5F5F5E" d="M117.624,106.962c14.174,0,28.349-0.001,42.523,0.001
		c3.021,0,4.941,2.092,4.944,5.37c0.002,3.265-1.939,5.477-4.919,5.478c-28.501,0.012-57.003,0.012-85.504-0.002
		c-2.585-0.001-4.505-1.947-4.774-4.691c-0.268-2.722,0.993-5.115,3.092-5.957c0.653-0.262,1.306-0.194,1.961-0.194
		C89.173,106.961,103.398,106.962,117.624,106.962z"/>
	<path fill-rule="evenodd" clip-rule="evenodd" fill="#5F5F5E" d="M117.482,182.226c-13.92,0-27.841,0.001-41.761-0.003
		c-0.66,0-1.325,0.014-1.979-0.075c-1.992-0.272-3.643-2.276-3.847-4.612c-0.234-2.684,0.953-5.042,2.978-5.863
		c0.727-0.294,1.48-0.373,2.252-0.372c28.247,0.011,56.494,0.008,84.74,0.011c3.282,0.001,5.297,2.205,5.224,5.677
		c-0.057,2.687-1.686,4.881-3.869,5.162c-0.654,0.084-1.318,0.073-1.979,0.073C145.322,182.227,131.402,182.226,117.482,182.226z"/>
</g>
<g>
	<path fill-rule="evenodd" clip-rule="evenodd" fill="#5F5F5E" d="M214.268,174.217c-0.229-2.907,1.441-5.265,2.854-7.678
		c5.012-8.57,10.214-17.058,15.026-25.716c2.276-4.097,3.809-8.496,2.004-13.22c-0.844-2.212-2.019-4.154-4.915-4.23
		c-2.952-0.079-4.168,1.916-5.072,4.067c-0.621,1.482-0.19,3.646-2.247,4.224c-2.074,0.583-4.618,1.144-6.523,0.569
		c-2.444-0.737-1.236-3.189-0.909-4.824c0.789-3.953,1.948-7.835,4.42-11.295c5.815-8.142,16.629-7.903,21.513,0.756
		c4.771,8.456,4.699,17.39,0.72,26.016c-2.868,6.218-6.732,12.068-10.154,18.082c-2.439,2.166-5.654,4.032-3.806,7.854l0.526,0.112
		c2.64,3.583,6.696,1.668,10.077,1.846c3.799,0.202,4.894,1.651,4.86,4.773c-0.034,3.022-1.43,4.287-4.781,4.225
		c-4.894-0.09-9.831-0.364-14.675,0.082C218.019,180.336,215.226,178.638,214.268,174.217z"/>
	<path fill-rule="evenodd" clip-rule="evenodd" fill="#5F5F5E" d="M214.244,174.117c0.926,3.215,3.625,4.45,8.617,4.104
		c4.682-0.324,9.452-0.125,14.182-0.06c3.238,0.045,4.587-0.874,4.62-3.072c0.032-2.271-1.025-3.324-4.696-3.472
		c-3.268-0.13-7.188,1.264-9.738-1.342c2.376-0.042,4.752-0.113,7.129-0.117c8.964-0.015,11.033,1.834,8.986,7.786
		c-0.393,1.139-1.153,1.572-2.778,1.57c-7.934-0.01-15.899,0.305-23.784-0.105C211.284,179.124,214.628,176.013,214.244,174.117z"/>
	<path fill-rule="evenodd" clip-rule="evenodd" fill="#5F5F5E" d="M227.177,168.821c-1.849-3.821,1.366-5.688,3.806-7.854
		C229.715,163.585,228.447,166.202,227.177,168.821z"/>
</g>
</svg>
