<?xml version="1.0" encoding="utf-8"?>
<!-- Generator: Adobe Illustrator 16.0.0, SVG Export Plug-In . SVG Version: 6.00 Build 0)  -->
<!DOCTYPE svg PUBLIC "-//W3C//DTD SVG 1.1//EN" "http://www.w3.org/Graphics/SVG/1.1/DTD/svg11.dtd">
<svg version="1.1" id="Layer_1" xmlns="http://www.w3.org/2000/svg" xmlns:xlink="http://www.w3.org/1999/xlink" x="0px" y="0px"
	 width="288px" height="288px" viewBox="0 0 288 288" enable-background="new 0 0 288 288" xml:space="preserve">
<rect fill-rule="evenodd" clip-rule="evenodd" fill="#3C55A5" width="288" height="288"/>
<g>
	<path fill-rule="evenodd" clip-rule="evenodd" fill="#F9FAFD" d="M117.617,166.061c-18.656,0-37.311,0.005-55.967-0.004
		c-3.34-0.002-5.492-3.225-4.587-6.866c0.5-2.009,1.59-3.338,3.294-3.726c0.792-0.181,1.615-0.212,2.423-0.212
		c36.498-0.01,72.997-0.009,109.494-0.008c0.509,0,1.021-0.034,1.524,0.022c2.633,0.291,4.408,2.629,4.321,5.657
		c-0.084,2.973-2.028,5.129-4.688,5.131c-12.047,0.011-24.095,0.005-36.142,0.005C130.732,166.061,124.175,166.061,117.617,166.061z
		"/>
	<path fill-rule="evenodd" clip-rule="evenodd" fill="#FBFDFE" d="M117.58,123.071c18.441,0,36.883-0.002,55.324,0.001
		c2.599,0,4.202,1.133,4.926,3.443c0.901,2.879-0.37,6.164-2.767,7.099c-0.829,0.324-1.691,0.378-2.561,0.378
		c-36.68-0.006-73.36-0.003-110.04-0.008c-3.077,0-4.835-1.376-5.432-4.191c-0.669-3.159,1.074-6.318,3.702-6.667
		c0.604-0.08,1.218-0.053,1.827-0.053C80.9,123.07,99.24,123.07,117.58,123.071z"/>
	<path fill-rule="evenodd" clip-rule="evenodd" fill="#FBFDFE" d="M117.441,139.238c18.342,0,36.684,0,55.025,0.002
		c0.609,0,1.224-0.023,1.826,0.065c2.034,0.3,3.645,2.372,3.822,4.86c0.178,2.504-1.099,4.874-3.059,5.629
		c-0.779,0.301-1.587,0.368-2.407,0.368c-36.785-0.009-73.57-0.007-110.354-0.01c-3.001,0-4.75-1.458-5.304-4.382
		c-0.583-3.075,1.184-6.142,3.75-6.473c0.604-0.078,1.218-0.058,1.827-0.058C80.86,139.238,99.151,139.238,117.441,139.238z"/>
	<path fill-rule="evenodd" clip-rule="evenodd" fill="#FBFDFE" d="M117.624,106.962c14.174,0,28.349-0.001,42.523,0.001
		c3.021,0,4.941,2.092,4.944,5.37c0.002,3.265-1.939,5.477-4.919,5.478c-28.501,0.012-57.003,0.012-85.504-0.002
		c-2.585-0.001-4.505-1.947-4.774-4.691c-0.268-2.722,0.993-5.115,3.092-5.957c0.653-0.262,1.306-0.194,1.961-0.194
		C89.173,106.961,103.398,106.962,117.624,106.962z"/>
	<path fill-rule="evenodd" clip-rule="evenodd" fill="#FBFDFE" d="M117.482,182.226c-13.92,0-27.841,0.001-41.761-0.003
		c-0.66,0-1.325,0.014-1.979-0.075c-1.992-0.272-3.643-2.276-3.847-4.612c-0.234-2.684,0.953-5.042,2.978-5.863
		c0.727-0.294,1.48-0.373,2.252-0.372c28.247,0.011,56.494,0.008,84.74,0.011c3.282,0.001,5.297,2.205,5.224,5.677
		c-0.057,2.687-1.686,4.881-3.869,5.162c-0.654,0.084-1.318,0.073-1.979,0.073C145.322,182.227,131.402,182.226,117.482,182.226z"/>
</g>
<path fill-rule="evenodd" clip-rule="evenodd" fill="#E6E9F6" d="M222.856,180.031c-8.398,0.225-15.414-2.955-19.531-11.602
	c-1.345-2.823-4.916-6.99-1.012-9.704c3.205-2.227,7.808-3.125,10.928,1.678c0.972,1.497,1.737,3.234,2.916,4.469
	c2.922,3.043,6.312,4.231,10.163,2.286c2.862-1.448,4.576-3.997,4.764-7.514c0.261-4.855-2.152-7.542-5.971-9.313
	c-2.665-1.233-6.968,0.302-7.219-5.544c-0.264-6.184,3.621-6.015,7.161-7.223c5.682-1.941,6.758-7.101,3.871-12.049
	c-2.92-5.005-8.173-5.594-11.67-1.122c-4.067,5.205-9.579,11.55-13.413,4.901c-4.137-7.171,3.159-13.457,8.932-16.99
	c8.244-5.048,16.895-4.639,24.077,2.535c7.085,7.073,8.084,16.058,2.636,25.015c-2.119,3.475-1.077,5.168,0.404,8.351
	C247.991,165.593,240.119,180.01,222.856,180.031z"/>
</svg>
