<?xml version="1.0" encoding="UTF-8" standalone="no"?>
<!-- Generator: Adobe Illustrator 16.0.0, SVG Export Plug-In . SVG Version: 6.00 Build 0)  -->

<svg
   version="1.1"
   id="Layer_1"
   x="0px"
   y="0px"
   width="280px"
   height="280px"
   viewBox="0 0 280 280"
   enable-background="new 0 0 280 280"
   xml:space="preserve"
   sodipodi:docname="bsntv.svg"
   inkscape:version="1.2.2 (732a01da63, 2022-12-09)"
   xmlns:inkscape="http://www.inkscape.org/namespaces/inkscape"
   xmlns:sodipodi="http://sodipodi.sourceforge.net/DTD/sodipodi-0.dtd"
   xmlns="http://www.w3.org/2000/svg"
   xmlns:svg="http://www.w3.org/2000/svg"><defs
   id="defs275" /><sodipodi:namedview
   id="namedview273"
   pagecolor="#ffffff"
   bordercolor="#000000"
   borderopacity="0.25"
   inkscape:showpageshadow="2"
   inkscape:pageopacity="0.0"
   inkscape:pagecheckerboard="0"
   inkscape:deskcolor="#d1d1d1"
   showgrid="false"
   inkscape:zoom="0.72678573"
   inkscape:cx="350.17198"
   inkscape:cy="207.07616"
   inkscape:window-width="1920"
   inkscape:window-height="991"
   inkscape:window-x="-9"
   inkscape:window-y="-9"
   inkscape:window-maximized="1"
   inkscape:current-layer="Layer_1" />
<rect
   y="-0.042"
   fill-rule="evenodd"
   clip-rule="evenodd"
   fill="#9C9EA0"
   width="280"
   height="280"
   id="rect210"
   style="fill:#818183;fill-opacity:1" />




<path
   style="fill:#ffffff;stroke-width:0.177067"
   d="m 135.04307,170.02838 c -2.96794,-0.45884 -6.44308,-1.97486 -8.698,-3.79447 -3.01579,-2.43359 -5.43849,-6.06752 -6.69085,-10.03589 -1.1609,-3.67857 -1.5403,-8.24243 -1.54059,-18.53208 -3.4e-4,-9.56063 0.30623,-13.91223 1.22716,-17.42315 2.13443,-8.13722 8.36726,-13.94185 16.04252,-14.94039 3.94519,-0.51326 8.24358,0.008 11.32003,1.37382 2.21213,0.98182 3.74215,2.09994 5.7073,4.17083 2.64731,2.78977 4.12584,5.34696 5.11603,8.84841 1.1029,3.90003 1.31085,6.75073 1.31085,17.97048 0,9.36709 -0.1211,12.03859 -0.69271,15.28181 -1.61522,9.16445 -7.73356,15.70208 -15.9212,17.01225 -1.81512,0.29045 -5.51609,0.3257 -7.18054,0.0684 z m 6.35598,-10.29495 c 3.69862,-1.02273 6.4271,-4.10537 7.202,-8.13685 0.40365,-2.09997 0.63854,-7.0024 0.58145,-12.13517 l -0.051,-4.59 -9.62369,8.57898 c -5.29303,4.71844 -9.88767,8.81152 -10.2103,9.09574 l -0.5866,0.51674 0.57181,1.24116 c 1.11891,2.4287 3.73524,4.68831 6.29107,5.43331 1.19076,0.3471 4.56413,0.34483 5.82531,-0.004 z m 1.20203,-32.32616 c 6.20769,-5.54483 5.89477,-5.09755 4.8624,-6.95022 -1.31025,-2.35134 -3.75167,-4.25641 -6.25667,-4.88218 -1.75221,-0.43772 -4.91113,-0.27573 -6.45568,0.33104 -3.09685,1.21657 -5.46261,4.00669 -6.2297,7.34716 -0.44831,1.95222 -0.61366,4.96164 -0.61366,11.16845 v 6.08793 l 4.59703,-4.09507 c 2.52837,-2.25229 7.07169,-6.30548 10.09628,-9.00711 z m -53.961408,41.33901 c -7.171765,-0.96712 -12.785053,-6.48607 -14.35454,-14.11329 -0.291215,-1.4152 -0.515847,-4.63218 -0.397866,-5.69786 l 0.106417,-0.96125 h 4.960035 4.960038 l 0.0032,1.41393 c 0.01213,5.74247 3.249244,9.70402 7.936695,9.71284 4.688638,0.009 7.725955,-3.05939 7.725955,-7.80454 0,-2.87385 -1.397285,-5.14021 -4.452052,-7.22109 -0.638152,-0.4347 -3.4416,-1.98851 -6.229889,-3.45291 -2.788295,-1.46441 -5.765623,-3.15059 -6.616286,-3.74709 -3.614003,-2.53418 -6.16939,-6.10577 -7.156859,-10.00295 -0.744406,-2.9379 -0.42469,-7.1178 0.786477,-10.28218 1.693371,-4.42421 5.896111,-8.15453 10.66667,-9.46763 3.458368,-0.95192 7.740893,-0.91951 11.010346,0.0833 5.391157,1.65362 9.827577,6.44574 11.170567,12.06619 0.47432,1.98505 0.81049,5.11634 0.73103,6.80915 l -0.0557,1.18587 -4.76889,0.0485 -4.768878,0.0485 v -1.61568 c 0,-3.66759 -1.413253,-6.94379 -3.673928,-8.51691 -1.360215,-0.94653 -2.585563,-1.24327 -4.743962,-1.14886 -1.595475,0.0698 -1.973144,0.15207 -2.969164,0.64689 -2.277936,1.13165 -3.571878,3.15567 -3.702172,5.79101 -0.09773,1.97669 0.242742,3.20333 1.303109,4.6948 1.267918,1.7834 2.742498,2.82499 7.857232,5.55004 5.429794,2.89291 7.322053,4.04366 9.049043,5.50304 3.03321,2.56318 5.22993,6.04368 6.1834,9.79699 0.48799,1.92094 0.53573,5.76269 0.0949,7.63752 -1.49579,6.3618 -5.62044,10.89226 -11.374765,12.49388 -2.565145,0.71397 -6.384467,0.94023 -9.279991,0.54978 z m -55.9377,-31.08156 v -30.58654 l 8.807396,0.0816 c 7.305001,0.0677 9.056573,0.13359 10.268134,0.38648 4.228188,0.88255 7.355282,2.48304 9.686094,4.95749 1.189724,1.26303 1.779427,2.14444 2.609447,3.90022 1.228347,2.59838 1.86712,6.73711 1.465387,9.49453 -0.64184,4.40548 -3.253978,8.62938 -6.328393,10.2332 l -1.18735,0.61939 1.684278,0.88026 c 5.26508,2.75169 8.387533,9.00545 7.738939,15.49979 -0.271054,2.71404 -0.572114,3.87692 -1.571199,6.06891 -2.053523,4.50543 -6.000075,7.32135 -12.034984,8.58711 -1.232947,0.25859 -2.994976,0.31867 -11.299243,0.38525 l -9.838506,0.0789 z m 19.517479,19.97522 c 2.371408,-0.64389 3.934973,-1.93454 4.858315,-4.01037 0.402055,-0.90388 0.446793,-1.22061 0.450985,-3.19273 0.004,-1.89864 -0.04729,-2.30906 -0.386606,-3.09145 -0.879101,-2.02704 -2.273711,-3.31377 -4.386446,-4.04714 -1.353923,-0.46997 -1.587127,-0.4919 -6.090782,-0.57282 l -4.682957,-0.0842 v 7.68341 7.68343 h 4.440653 c 3.891574,0 4.60834,-0.0455 5.796838,-0.36822 z m -1.64491,-25.44162 c 2.192737,-0.74129 3.76043,-2.10456 4.575391,-3.97876 0.452912,-1.04159 0.493654,-1.30828 0.493931,-3.2333 3.44e-4,-1.96932 -0.03236,-2.17084 -0.531994,-3.28394 -0.70774,-1.57673 -1.709699,-2.62987 -3.220373,-3.38486 -1.625657,-0.81246 -2.826806,-0.99071 -6.687318,-0.99236 l -3.222218,-0.001 v 7.68233 7.68233 l 3.823699,-0.0853 c 2.999481,-0.0669 4.027437,-0.15415 4.768882,-0.4048 z m 120.296139,29.82355 v -5.10836 h 1.26139 c 0.69378,0 1.85872,-0.16218 2.58877,-0.3604 3.28123,-0.89091 5.42952,-3.01681 6.58116,-6.51256 0.4604,-1.3975 0.47183,-1.5347 0.53318,-6.39966 l 0.0627,-4.97152 h -7.14619 -7.1462 v -5.47324 -5.47325 h 19.07553 19.07552 v 5.47325 5.47324 h -7.11464 -7.11464 l -0.0824,5.33642 c -0.0878,5.68562 -0.19568,6.60801 -1.10452,9.44133 -1.7213,5.36622 -5.67381,9.91966 -10.43834,12.02537 -2.30589,1.01909 -5.23062,1.64744 -7.69949,1.65413 l -1.33185,0.003 z m 44.20831,-24.31032 0.0435,-29.41868 5.11258,-0.0483 5.11259,-0.0483 v 24.26742 24.26744 h 1.12429 c 4.42488,0 9.30363,-2.96243 11.85298,-7.19723 1.9404,-3.22323 3.17266,-7.66895 3.17577,-11.45742 l 0.002,-1.23148 h 4.81184 4.81184 l -1.4e-4,0.95782 c 0,1.613 -0.33815,4.87443 -0.70412,6.79594 -0.48512,2.5472 -1.20068,4.74386 -2.37719,7.29765 -4.03156,8.75117 -11.60258,13.93188 -21.98414,15.04333 -0.97881,0.10484 -3.85972,0.19055 -6.40199,0.19055 h -4.6223 L 215.08,137.71156 Z M 167.6055,113.58368 v -5.38202 h 19.07553 19.07552 v 5.38202 5.38201 H 186.68103 167.6055 Z"
   id="path917" /></svg>
