<?xml version="1.0" encoding="UTF-8" standalone="no"?>
<!-- Generator: Adobe Illustrator 16.0.0, SVG Export Plug-In . SVG Version: 6.00 Build 0)  -->

<svg
   version="1.1"
   id="Layer_1"
   x="0px"
   y="0px"
   width="280px"
   height="280px"
   viewBox="0 0 280 280"
   enable-background="new 0 0 280 280"
   xml:space="preserve"
   sodipodi:docname="fujitv.svg"
   inkscape:version="1.2.2 (732a01da63, 2022-12-09)"
   xmlns:inkscape="http://www.inkscape.org/namespaces/inkscape"
   xmlns:sodipodi="http://sodipodi.sourceforge.net/DTD/sodipodi-0.dtd"
   xmlns="http://www.w3.org/2000/svg"
   xmlns:svg="http://www.w3.org/2000/svg"><defs
   id="defs35" /><sodipodi:namedview
   id="namedview33"
   pagecolor="#ffffff"
   bordercolor="#000000"
   borderopacity="0.25"
   inkscape:showpageshadow="2"
   inkscape:pageopacity="0.0"
   inkscape:pagecheckerboard="0"
   inkscape:deskcolor="#d1d1d1"
   showgrid="false"
   inkscape:zoom="2.9071429"
   inkscape:cx="115.06143"
   inkscape:cy="140.17199"
   inkscape:window-width="1920"
   inkscape:window-height="1007"
   inkscape:window-x="-7"
   inkscape:window-y="-7"
   inkscape:window-maximized="1"
   inkscape:current-layer="Layer_1" />
<rect
   y="-0.042"
   fill-rule="evenodd"
   clip-rule="evenodd"
   fill="#E92328"
   width="280"
   height="280"
   id="rect2"
   style="fill:#e60012;fill-opacity:1" />
<g
   id="g30">
	<path
   fill-rule="evenodd"
   clip-rule="evenodd"
   fill="#F1EDEE"
   d="M146.291,58.655c0.021,1.409,1.582,2.638-0.279,4.253   c-7.698,6.673-3.951,15.866-4.214,24.124c-0.055,1.693,1.916,2.036,3.36,1.903c10.411-0.953,20.254,1.107,29.294,6.708   c3.948,2.447,6.41,1.656,8.665-2.458c3.913-7.138,8.126-14.062,13.893-19.765c1.145-1.132,2.19-2.057,3.634-2.712   c2.413-1.097,5.39-3.87,7.119-0.667c1.82,3.368-2.676,3.146-4.181,4.617c-7.549,7.382-12.159,16.904-17.293,26.07   c-1.109,1.985-0.464,3.331,0.875,4.872c11.005,12.663,13.93,27.628,9.993,44.028c-2.135,8.891-6.953,16.128-14.226,21.537   c-11.14,8.284-23.163,13.587-36.834,11.425c-11.004-1.742-21.051-6.565-30.373-13.395c-12.396-9.081-16.591-22.166-16.822-37.136   c-0.16-10.368,4.825-18.858,11.075-26.349c2.007-2.406,2.664-3.401,0.782-6.863c-4.096-7.531-9.353-14.041-14.097-20.983   c-3.855-5.641-3.546-7.446,2.892-9.62c2.995-1.013,6.146-2.862,9.218-0.117c-1.081,3.681-6.798,2.221-6.251,6.07   c0.417,2.932,3.078,5.542,4.865,8.2c3.104,4.615,6.307,9.156,9.466,13.729c1.138,1.646,2.304,2.096,4.251,1.058   c4.188-2.232,8.067-5.156,12.736-6.395c1.181-0.314,2.13-1.312,1.514-3.734c-1.623-6.371-1.589-12.979-0.6-19.586   c0.609-4.063,4.611-5.308,5.737-8.813C142.423,58.655,144.356,58.655,146.291,58.655z M122.072,103.704   c0.965,0.687,1.74,0.995,2.172,1.589c1.664,2.293,6.01,4.182,1.729,7.74c-2.906,2.417-5.655,2.664-7.851-1.697   c-1.971-3.917-3.86-0.834-5.12,0.971c-11.626,16.661-9.355,37.322,4.241,50.384c1.093,1.05,1.986,3.076,3.704,2.424   c1.918-0.727,0.886-2.893,0.877-4.343c-0.015-2.274,0.892-3.649,2.793-3.96c2.3-0.376,3.062,1.521,3.045,3.483   c-0.015,1.907,1.515,2.866,1.889,4.304c1.308,5.012,6.895,3.783,8.831,7.002c2.611,4.336,6.229,4.456,10.196,5.042   c3.946,0.583,7.608-0.764,11.271-1.443c11.765-2.186,21.538-8.124,28.299-19.112c8.539-13.878,5.108-33.72-6.324-45.317   c-1.829,3.121-3.205,6.217-3.339,10.112c-0.057,1.658-0.883,4.501-3.726,4.708c-2.247,0.163-4.271-0.106-5.597-2.257   c-1.313-2.133-1.075-4.015,0.603-6.034c2.373-2.857,3.28-6.642,4.874-9.995c1.131-2.379,0.781-4.064-1.181-5.176   c-8.735-4.957-17.967-7.242-28.57-5.96c1.218,1.396,1.853,2.134,2.498,2.859c1.284,1.444,3.34,2.728,1.96,5.111   c-0.995,1.719-2.418,2.957-4.717,2.939c-2.501-0.02-4.769-1.305-4.928-3.35c-0.602-7.725-4.77-5.818-8.854-4.176   C127.927,100.726,125.126,102.244,122.072,103.704z"
   id="path4" />
	<path
   fill-rule="evenodd"
   clip-rule="evenodd"
   fill="#E5DDE0"
   d="M210.23,201.2c2.062,2.637-0.49,5.2,0.342,7.011   c1.221,2.657,4.114,3.267,6.941,3.147c2.313-0.097,4.642-0.173,6.941,0.037c1.479,0.134,4.16-1.126,3.992,1.815   c-0.146,2.583-2.719,1.589-4.281,1.642c-3.854,0.131-7.718,0.065-11.574,0.036c-5.775-0.044-7.989-2.181-8.179-8.257   c-0.155-4.94-0.03-9.893-0.031-14.839c0-1.423-0.262-3.154,1.857-2.85c1.321,0.189,2.785-0.863,3.906,1.322   c3.871,7.545,5.989,8.371,14.335,6.474c1.293-0.294,2.75-0.919,3.718,0.326c0.495,0.636,0.516,1.987,0.306,2.899   c-0.463,2.017-2.121,1.198-3.326,1.212C220.558,201.232,215.937,201.2,210.23,201.2z"
   id="path6" />
	<path
   fill-rule="evenodd"
   clip-rule="evenodd"
   fill="#F1EDEE"
   d="M171.844,201.3c0.004-2.894,0.085-5.79-0.021-8.679   c-0.093-2.49,1.339-2.466,3.004-2.504c1.793-0.041,3.011,0.281,2.823,2.647c-0.321,4.105,1.275,8.011,0.888,12.223   c-0.482,5.25,1.376,6.389,6.089,4.351c2.723-1.18,5.323-2.833,5.762-6.175c0.571-4.329,3.406-5.229,6.109-3.915   c3.188,1.551,0.575,4.31-0.284,6.327c-2.917,6.852-14.827,11.885-21.156,8.948c-1.961-0.911-3.517-2.332-3.268-5.17   C172.023,206.69,171.84,203.985,171.844,201.3z"
   id="path8" />
	<path
   fill-rule="evenodd"
   clip-rule="evenodd"
   fill="#F1EDEE"
   d="M86.44,189.16c2.12,0,4.251,0.162,6.355-0.028   c8.837-0.796,9.229,4.005,7.916,11.262c-1.362,7.524-9.904,14.217-17.222,14.62c-1.817,0.099-4.004,0.042-4.272-2.093   c-0.353-2.816,2.128-1.387,3.363-1.651c6.01-1.294,11.265-4.671,12.367-14.073c0.375-3.201-1.45-3.259-3.478-3.275   c-4.623-0.035-9.247-0.028-13.869-0.094c-1.427-0.021-3.174,0.546-3.278-2.127c-0.113-2.953,1.705-2.657,3.451-2.655   c2.888,0.005,5.778,0.001,8.666,0.001C86.44,189.085,86.44,189.122,86.44,189.16z"
   id="path10" />
	<path
   fill-rule="evenodd"
   clip-rule="evenodd"
   fill="#E5DDE0"
   d="M140.139,213.809c3.758-3.497,10.721-3.297,9.756-11.518   c-1.901,0-4.286,0.024-6.672-0.008c-1.384-0.02-2.822-0.048-2.681-2.223c0.11-1.708,1.27-1.808,2.458-1.836   c6.951-0.17,13.901-0.32,20.852-0.509c1.327-0.035,2.208,0.265,2.183,1.972c-0.022,1.442-0.489,2.69-1.901,2.418   c-4.362-0.843-5.637,1.419-7.343,5.525C154.381,213.439,147.034,215.577,140.139,213.809z"
   id="path12" />
	<path
   fill-rule="evenodd"
   clip-rule="evenodd"
   fill="#E5DDE0"
   d="M107.114,212.896c3.194-0.952,6.456-1.704,9.564-2.909   c3.247-1.256,6.608-2.273,8.397-6.208c1.371-3.015,4.75-3.706,6.762-1.752c1.767,1.717,0.071,4.259-1.801,6.089   C123.37,214.631,115.744,216.243,107.114,212.896z"
   id="path14" />
	<path
   fill-rule="evenodd"
   clip-rule="evenodd"
   fill="#E5DDE0"
   d="M153.847,193.94c-3.253,0-6.506-0.048-9.759,0.02   c-1.712,0.034-3.322-0.533-3.431-2.364c-0.138-2.326,1.929-1.134,3.023-1.502c6.364-2.132,12.904-0.723,19.357-1.08   c1.623-0.09,2.966,0.092,3.021,2.521c0.063,2.681-1.533,2.277-3.021,2.28c-3.063,0.008-6.128,0.003-9.191,0.003   C153.847,193.859,153.847,193.899,153.847,193.94z"
   id="path16" />
	<path
   fill-rule="evenodd"
   clip-rule="evenodd"
   fill="#E5DDE0"
   d="M112.595,197.368c1.556,1.573,5.137-1.829,5.177,2.248   c0.037,3.782-3.388,3.301-5.661,2.882c-1.758-0.324-5.151,2.247-5.13-2.244C107.003,195.351,110.791,198.844,112.595,197.368z"
   id="path18" />
	<path
   fill-rule="evenodd"
   clip-rule="evenodd"
   fill="#F1EDEE"
   d="M113.028,193.901c-1.487,0-2.637,0.016-3.785-0.004   c-1.142-0.021-2.317,0.065-2.404-1.738c-0.084-1.745,0.891-2.015,2.163-2.01c1.15,0.006,2.359-0.249,3.438,0.047   c1.962,0.539,5.552-1.708,5.633,1.795C118.165,195.964,114.389,192.643,113.028,193.901z"
   id="path20" />
	<path
   fill-rule="evenodd"
   clip-rule="evenodd"
   fill="#E5DDE0"
   d="M129.267,191.477c-1.338-0.56-3.967,1.099-3.686-2.003   c0.239-2.635,2.685-1.662,4.156-1.666c1.324-0.003,3.909-1.295,3.604,1.921C133.07,192.576,130.661,190.932,129.267,191.477z"
   id="path22" />
	<path
   fill-rule="evenodd"
   clip-rule="evenodd"
   fill="#E5DDE0"
   d="M230.88,188.871c0.317,2.203-0.619,2.781-1.932,2.523   c-1.272-0.252-3.264,1.18-3.658-1.444c-0.225-1.499,0.522-2.352,1.968-2.16C228.599,187.967,230.454,186.907,230.88,188.871z"
   id="path24" />
	<path
   fill-rule="evenodd"
   clip-rule="evenodd"
   fill="#E92328"
   d="M122.072,103.704c3.054-1.459,5.855-2.978,8.777-4.153   c4.083-1.642,8.252-3.548,8.854,4.176c0.159,2.045,2.427,3.33,4.928,3.35c2.299,0.018,3.722-1.22,4.717-2.939   c1.38-2.383-0.676-3.667-1.96-5.111c-0.646-0.726-1.28-1.463-2.498-2.859c10.604-1.282,19.835,1.003,28.57,5.96   c1.962,1.112,2.312,2.797,1.181,5.176c-1.594,3.353-2.501,7.138-4.874,9.995c-1.678,2.019-1.916,3.901-0.603,6.034   c1.326,2.151,3.35,2.42,5.597,2.257c2.843-0.207,3.669-3.05,3.726-4.708c0.134-3.895,1.51-6.991,3.339-10.112   c11.433,11.597,14.863,31.439,6.324,45.317c-6.761,10.988-16.534,16.927-28.299,19.112c-3.663,0.68-7.325,2.026-11.271,1.443   c-3.968-0.586-7.585-0.706-10.196-5.042c-1.937-3.219-7.523-1.99-8.831-7.002c-0.374-1.438-1.904-2.396-1.889-4.304   c0.017-1.963-0.745-3.859-3.045-3.483c-1.901,0.311-2.808,1.686-2.793,3.96c0.009,1.45,1.042,3.616-0.877,4.343   c-1.717,0.652-2.611-1.374-3.704-2.424c-13.596-13.062-15.868-33.723-4.241-50.384c1.26-1.806,3.148-4.888,5.12-0.971   c2.196,4.361,4.945,4.114,7.851,1.697c4.28-3.558-0.065-5.447-1.729-7.74C123.812,104.699,123.037,104.39,122.072,103.704z    M128.955,135.752c0.148,12.601,8.273,22.471,15.746,21.926c11.621-0.849,21.135-10.539,21.001-19.58   c-0.128-8.614-10.646-20.453-18.795-19.721C137.711,119.203,127.603,127.453,128.955,135.752z"
   id="path26"
   style="fill:#e60012;fill-opacity:1" />
	<path
   fill-rule="evenodd"
   clip-rule="evenodd"
   fill="#F1EDEE"
   d="M128.955,135.752c-1.352-8.299,8.756-16.549,17.952-17.375   c8.149-0.731,18.667,11.107,18.795,19.721c0.134,9.041-9.38,18.731-21.001,19.58C137.228,158.223,129.103,148.353,128.955,135.752z   "
   id="path28" />
</g>
</svg>
