<?xml version="1.0" encoding="UTF-8" standalone="no"?>
<!-- Generator: Adobe Illustrator 16.0.0, SVG Export Plug-In . SVG Version: 6.00 Build 0)  -->

<svg
   version="1.1"
   id="Layer_1"
   x="0px"
   y="0px"
   width="280px"
   height="280px"
   viewBox="0 0 280 280"
   enable-background="new 0 0 280 280"
   xml:space="preserve"
   sodipodi:docname="tvasahi.svg"
   inkscape:version="1.2.2 (732a01da63, 2022-12-09)"
   xmlns:inkscape="http://www.inkscape.org/namespaces/inkscape"
   xmlns:sodipodi="http://sodipodi.sourceforge.net/DTD/sodipodi-0.dtd"
   xmlns="http://www.w3.org/2000/svg"
   xmlns:svg="http://www.w3.org/2000/svg"><defs
   id="defs425" /><sodipodi:namedview
   id="namedview423"
   pagecolor="#ffffff"
   bordercolor="#000000"
   borderopacity="0.25"
   inkscape:showpageshadow="2"
   inkscape:pageopacity="0.0"
   inkscape:pagecheckerboard="0"
   inkscape:deskcolor="#d1d1d1"
   showgrid="false"
   inkscape:zoom="2.9071429"
   inkscape:cx="83.587222"
   inkscape:cy="149.97543"
   inkscape:window-width="1655"
   inkscape:window-height="1030"
   inkscape:window-x="128"
   inkscape:window-y="0"
   inkscape:window-maximized="0"
   inkscape:current-layer="g420" />
<g
   id="g420">
	<rect
   x="-0.039"
   fill-rule="evenodd"
   clip-rule="evenodd"
   fill="#ED177F"
   width="280.039"
   height="280"
   id="rect394"
   style="fill:#ef5ca0;fill-opacity:1" />
	<path
   fill-rule="evenodd"
   clip-rule="evenodd"
   fill="#ED177F"
   d="M91.674,146.954c1.243-0.188,2.556-0.393,3.872-0.583   c15.14-2.177,30.281-4.347,45.42-6.528c23.866-3.439,47.725-6.934,71.604-10.274c3.664-0.513,5.432-1.748,5.627-5.804   c0.229-4.757,1.296-9.506,2.351-14.18c0.604-2.683,0.03-4.256-2.354-5.715c-5.665-3.469-11.237-7.103-16.697-10.882   c-2.38-1.647-4.667-2.003-7.478-1.561c-10.508,1.656-21.048,3.104-31.577,4.626c-29.462,4.256-58.918,8.558-88.398,12.688   c-2.705,0.378-3.686,1.432-4.006,3.926c-0.717,5.578-1.595,11.136-2.458,16.695c-0.175,1.127-0.843,2.304,0.433,3.153   c7.187,4.778,14.383,9.543,21.615,14.251C90.113,147.082,90.924,146.897,91.674,146.954z M216.634,171.711   c0-3.427-0.14-6.072,0.032-8.7c0.262-3.989-2.597-3.023-4.729-3.038c-2.158-0.016-4.783-0.891-4.714,3.073   c0.187,10.757,0.253,21.522,0.059,32.279c-0.077,4.253,2.657,3.211,4.972,3.342c2.469,0.14,4.615,0.224,4.396-3.422   c-0.27-4.453-0.07-8.936-0.056-13.406c0.011-3.118,0.938-5.987,4.563-5.783c3.227,0.183,4.738,2.626,4.685,5.94   c-0.071,4.467,0.196,8.947-0.079,13.397c-0.236,3.823,2.186,3.318,4.49,3.266c2.201-0.051,4.781,0.758,4.596-3.167   c-0.25-5.285-0.02-10.594-0.069-15.891c-0.079-8.47-5.319-12.262-13.52-9.783C219.862,170.239,218.544,170.92,216.634,171.711z    M133.421,187.978c0.085-0.002,0.17-0.002,0.255-0.004c0-1.984-0.01-3.972,0.002-5.958c0.023-3.637,0.433-7.478-2.485-10.275   c-4.117-3.944-17.44-3.615-21.685,0.338c-1.513,1.41-2.926,3.263-2.279,5.181c0.634,1.88,2.924,0.768,4.474,0.939   c2.024,0.224,3.951,0.142,5.054-2.127c0.772-1.59,2.451-1.515,3.951-1.53c2.289-0.022,3.921,0.908,4.109,3.355   c0.199,2.58-2.021,2.282-3.492,2.473c-3.147,0.408-6.205,1.024-9.189,2.137c-4.38,1.631-7.004,4.426-6.519,9.32   c0.416,4.203,4.088,7.298,9.019,7.818c2.566,0.272,4.98-0.377,7.293-1.32c1.674-0.684,2.555-1.545,4.896-0.065   c4.204,2.657,7.285,0.114,6.922-4.825C133.615,191.616,133.529,189.795,133.421,187.978z M200.088,186.001   c-0.008,0-0.017,0-0.025,0c0-2.156,0.021-4.31-0.005-6.462c-0.041-3.186,0.044-6.733-3.333-8.252   c-6.314-2.838-12.862-3.003-19.278-0.083c-1.535,0.699-2.728,1.969-3.318,3.58c-0.826,2.253-0.652,3.94,2.481,3.697   c2.529-0.198,5.156,0.661,6.919-2.453c1.216-2.147,3.816-1.605,5.91-0.905c1.472,0.491,1.921,1.951,1.745,3.266   c-0.398,2.976-3.021,1.8-4.76,2.261c-2.726,0.723-5.525,1.23-8.167,2.177c-4.171,1.497-6.72,4.471-6.168,9.068   c0.576,4.793,3.969,7.021,8.45,7.795c2.699,0.467,5.285-0.123,7.796-1.155c1.596-0.654,2.765-2.41,5.036-0.165   c1.164,1.153,4.726,0.871,6.651,0.012c1.83-0.816-0.176-3.189,0.002-4.932C200.275,190.988,200.088,188.484,200.088,186.001z    M167.059,173.11c-6.968-3.796-13.927-5.862-21.41-2.229c-3.785,1.837-5.629,5.124-5.223,9.331   c0.376,3.892,3.238,5.552,6.667,6.413c2.73,0.688,5.499,1.223,8.242,1.861c1.442,0.337,3.393,0.604,3.207,2.435   c-0.186,1.841-2.068,2.369-3.793,2.571c-3.51,0.41-6.515-0.836-9.289-2.83c-3.282-2.36-4.086,1.563-6.048,2.477   c-1.309,0.608-0.344,1.527,0.399,2.265c5.23,5.193,18.443,5.874,24.281,1.211c2.699-2.158,3.694-4.986,3.274-8.353   c-0.403-3.233-2.564-4.886-5.438-5.773c-2.053-0.636-4.165-1.077-6.243-1.637c-2.41-0.647-6.819-0.369-6.064-3.377   c0.842-3.351,5.387-2.42,7.738-1.063C162.144,179.174,164.509,176.841,167.059,173.11z M86.848,170.438   c-9.532-1.242-9.524-1.24-11.819,7.352c-0.944,3.533-1.93,7.058-3.277,11.976c-1.831-6.665-3.376-11.718-4.557-16.854   c-0.511-2.228-1.499-3.16-3.688-2.997c-2.102,0.155-4.256-0.507-6.711,0.469c3.145,8.722,6.314,17.364,9.358,26.052   c0.801,2.286,2.485,2.522,4.335,2.183c2.215-0.406,5.235,1.536,6.51-1.81C80.328,188.072,83.548,179.296,86.848,170.438z    M36.041,185.23c0,1.322,0.111,2.653-0.018,3.964c-0.88,8.928,4.394,11.541,12.442,10.691c2.338-0.249,2.732-1.397,2.498-3.246   c-0.201-1.579,0.913-3.948-2.25-3.882c-3.318,0.067-3.618-2.17-3.578-4.696c0.045-2.808,0.116-5.62-0.018-8.421   c-0.118-2.482,0.221-4.296,3.379-3.927c1.627,0.19,2.463-0.549,2.373-2.286c-0.07-1.34,0.117-2.961-1.858-2.735   c-4.203,0.479-4.175-2.187-3.837-4.961c0.487-3.996-2.157-3.563-4.708-3.617c-2.734-0.059-4.985-0.049-4.501,3.821   c0.255,2.038,1.041,4.882-2.883,4.845c-1.347-0.014-1.104,1.405-1.11,2.332c-0.007,1.101-0.27,2.605,1.465,2.545   c2.877-0.101,2.617,1.794,2.607,3.629C36.033,181.268,36.042,183.25,36.041,185.23z M241.969,184.19   c0,3.809,0.201,7.63-0.056,11.423c-0.269,3.943,2.394,3.101,4.579,3.15c2.29,0.053,4.636,0.572,4.509-3.252   c-0.248-7.441-0.238-14.903-0.005-22.347c0.121-3.886-2.342-3.174-4.584-3.207c-2.328-0.033-4.783-0.5-4.502,3.311   C242.178,176.892,241.968,180.548,241.969,184.19z M246.55,166.665c2.292,0.104,4.623,0.581,4.521-3.464   c-0.095-3.721-2.225-3.229-4.518-3.248c-2.505-0.02-4.784-0.426-4.73,3.555C241.875,167.332,244.131,166.667,246.55,166.665z"
   id="path396" />
	<path
   fill-rule="evenodd"
   clip-rule="evenodd"
   fill="#FFFCFD"
   d="M91.674,146.954c-0.75-0.057-1.562,0.128-2.046-0.188   c-7.232-4.708-14.428-9.473-21.615-14.251c-1.276-0.849-0.607-2.026-0.433-3.153c0.863-5.559,1.741-11.117,2.458-16.695   c0.321-2.494,1.301-3.547,4.006-3.926c29.48-4.13,58.936-8.431,88.398-12.688c10.529-1.521,21.069-2.97,31.577-4.626   c2.811-0.443,5.098-0.086,7.478,1.561c5.46,3.779,11.032,7.413,16.697,10.882c2.385,1.459,2.959,3.032,2.354,5.715   c-1.055,4.674-2.121,9.423-2.351,14.18c-0.195,4.056-1.963,5.291-5.627,5.804c-23.88,3.34-47.738,6.835-71.604,10.274   c-15.14,2.181-30.28,4.351-45.42,6.528C94.23,146.562,92.917,146.766,91.674,146.954z"
   id="path398" />
	<path
   fill-rule="evenodd"
   clip-rule="evenodd"
   fill="#FDF6F9"
   d="M216.634,171.711c1.91-0.791,3.229-1.472,4.625-1.893   c8.2-2.479,13.44,1.313,13.52,9.783c0.05,5.297-0.181,10.605,0.069,15.891c0.186,3.925-2.395,3.116-4.596,3.167   c-2.305,0.053-4.727,0.558-4.49-3.266c0.275-4.45,0.008-8.931,0.079-13.397c0.054-3.314-1.458-5.758-4.685-5.94   c-3.625-0.204-4.552,2.665-4.563,5.783c-0.015,4.471-0.214,8.953,0.056,13.406c0.22,3.646-1.927,3.562-4.396,3.422   c-2.314-0.131-5.049,0.911-4.972-3.342c0.194-10.757,0.128-21.522-0.059-32.279c-0.069-3.964,2.556-3.089,4.714-3.073   c2.132,0.015,4.99-0.951,4.729,3.038C216.494,165.639,216.634,168.284,216.634,171.711z"
   id="path400" />
	<path
   fill-rule="evenodd"
   clip-rule="evenodd"
   fill="#FDF6F9"
   d="M133.421,187.978c0.108,1.817,0.194,3.639,0.327,5.456   c0.363,4.939-2.718,7.482-6.922,4.825c-2.342-1.479-3.222-0.618-4.896,0.065c-2.313,0.943-4.728,1.593-7.293,1.32   c-4.93-0.521-8.603-3.615-9.019-7.818c-0.485-4.895,2.139-7.689,6.519-9.32c2.984-1.112,6.042-1.729,9.189-2.137   c1.471-0.19,3.69,0.107,3.492-2.473c-0.188-2.447-1.821-3.378-4.109-3.355c-1.5,0.016-3.178-0.06-3.951,1.53   c-1.103,2.269-3.03,2.351-5.054,2.127c-1.55-0.172-3.84,0.94-4.474-0.939c-0.646-1.918,0.766-3.771,2.279-5.181   c4.245-3.953,17.568-4.282,21.685-0.338c2.918,2.798,2.508,6.639,2.485,10.275c-0.012,1.986-0.002,3.974-0.002,5.958   C133.591,187.976,133.506,187.976,133.421,187.978z M121.881,185.544c-2.103,1.032-6.686,0.32-7.443,4.587   c-0.458,2.58,2.432,3.35,4.62,3.128c3.588-0.361,5.557-2.587,5.73-6.237C124.854,185.641,124.458,184.724,121.881,185.544z"
   id="path402" />
	<path
   fill-rule="evenodd"
   clip-rule="evenodd"
   fill="#FDF6F9"
   d="M200.088,186.001c0,2.483,0.188,4.987-0.063,7.448   c-0.178,1.742,1.828,4.115-0.002,4.932c-1.926,0.859-5.487,1.142-6.651-0.012c-2.271-2.245-3.44-0.489-5.036,0.165   c-2.511,1.032-5.097,1.622-7.796,1.155c-4.481-0.773-7.874-3.002-8.45-7.795c-0.552-4.598,1.997-7.571,6.168-9.068   c2.642-0.946,5.441-1.454,8.167-2.177c1.738-0.461,4.361,0.715,4.76-2.261c0.176-1.314-0.273-2.774-1.745-3.266   c-2.094-0.7-4.694-1.242-5.91,0.905c-1.763,3.114-4.39,2.255-6.919,2.453c-3.134,0.243-3.308-1.444-2.481-3.697   c0.591-1.611,1.783-2.881,3.318-3.58c6.416-2.92,12.964-2.755,19.278,0.083c3.377,1.519,3.292,5.066,3.333,8.252   c0.026,2.152,0.005,4.306,0.005,6.462C200.071,186.001,200.08,186.001,200.088,186.001z M187.873,185.886   c-1.619,0.887-6.356-0.261-6.747,4.508c-0.201,2.467,2.489,3.071,4.405,2.877c3.529-0.355,5.723-2.35,5.63-6.217   C191.127,185.646,190.806,184.757,187.873,185.886z"
   id="path404" />
	<path
   fill-rule="evenodd"
   clip-rule="evenodd"
   fill="#FDF6F9"
   d="M167.059,173.11c-2.55,3.73-4.915,6.063-9.699,3.301   c-2.352-1.356-6.896-2.287-7.738,1.063c-0.755,3.008,3.654,2.729,6.064,3.377c2.078,0.56,4.19,1.001,6.243,1.637   c2.874,0.888,5.035,2.54,5.438,5.773c0.42,3.366-0.575,6.194-3.274,8.353c-5.838,4.663-19.051,3.982-24.281-1.211   c-0.743-0.737-1.708-1.656-0.399-2.265c1.962-0.914,2.766-4.837,6.048-2.477c2.774,1.994,5.779,3.24,9.289,2.83   c1.725-0.202,3.607-0.73,3.793-2.571c0.186-1.831-1.765-2.098-3.207-2.435c-2.743-0.639-5.512-1.174-8.242-1.861   c-3.429-0.861-6.291-2.521-6.667-6.413c-0.406-4.207,1.438-7.494,5.223-9.331C153.132,167.248,160.091,169.314,167.059,173.11z"
   id="path406" />
	<path
   fill-rule="evenodd"
   clip-rule="evenodd"
   fill="#FDF6F9"
   d="M86.848,170.438c-3.3,8.857-6.521,17.634-9.849,26.37   c-1.275,3.346-4.295,1.403-6.51,1.81c-1.85,0.34-3.534,0.104-4.335-2.183c-3.044-8.688-6.213-17.33-9.358-26.052   c2.456-0.976,4.61-0.313,6.711-0.469c2.189-0.163,3.177,0.77,3.688,2.997c1.181,5.136,2.726,10.188,4.557,16.854   c1.348-4.918,2.333-8.442,3.277-11.976C77.324,169.198,77.316,169.196,86.848,170.438z"
   id="path408" />
	<path
   fill-rule="evenodd"
   clip-rule="evenodd"
   fill="#FDF6F9"
   d="M36.042,185.23c0-1.98-0.008-3.963,0.002-5.944   c0.01-1.835,0.27-3.729-2.607-3.629c-1.734,0.061-1.472-1.444-1.465-2.545c0.006-0.927-0.237-2.346,1.11-2.332   c3.924,0.037,3.138-2.807,2.883-4.845c-0.483-3.87,1.768-3.88,4.501-3.821c2.551,0.055,5.195-0.379,4.708,3.617   c-0.338,2.774-0.366,5.439,3.837,4.961c1.975-0.226,1.788,1.396,1.858,2.735c0.09,1.737-0.746,2.477-2.373,2.286   c-3.158-0.369-3.497,1.444-3.379,3.927c0.133,2.801,0.063,5.613,0.018,8.421c-0.04,2.526,0.26,4.764,3.578,4.696   c3.163-0.066,2.05,2.303,2.25,3.882c0.235,1.849-0.159,2.997-2.498,3.246c-8.048,0.85-13.322-1.764-12.442-10.691   C36.152,187.884,36.041,186.553,36.042,185.23z"
   id="path410" />
	<path
   fill-rule="evenodd"
   clip-rule="evenodd"
   fill="#FFFCFD"
   d="M241.968,184.19c0-3.643,0.21-7.299-0.058-10.922   c-0.281-3.811,2.174-3.344,4.502-3.311c2.242,0.033,4.705-0.679,4.584,3.207c-0.233,7.443-0.243,14.905,0.005,22.347   c0.127,3.824-2.219,3.305-4.509,3.252c-2.186-0.05-4.848,0.793-4.579-3.15C242.17,191.82,241.969,187.999,241.968,184.19z"
   id="path412" />
	<path
   fill-rule="evenodd"
   clip-rule="evenodd"
   fill="#FDF6F9"
   d="M246.55,166.665c-2.419,0.002-4.675,0.667-4.727-3.157   c-0.054-3.98,2.226-3.574,4.73-3.555c2.293,0.02,4.423-0.473,4.518,3.248C251.173,167.246,248.842,166.77,246.55,166.665z"
   id="path414" />
	<path
   fill-rule="evenodd"
   clip-rule="evenodd"
   fill="#ED177F"
   d="M121.881,185.544c2.577-0.82,2.973,0.097,2.908,1.478   c-0.174,3.65-2.142,5.876-5.73,6.237c-2.188,0.222-5.078-0.548-4.62-3.128C115.196,185.864,119.779,186.576,121.881,185.544z"
   id="path416"
   style="fill:#000000;fill-opacity:0" />
	<path
   fill-rule="evenodd"
   clip-rule="evenodd"
   fill="#ED177F"
   d="M187.873,185.886c2.933-1.129,3.254-0.239,3.288,1.168   c0.093,3.867-2.101,5.861-5.63,6.217c-1.916,0.194-4.606-0.41-4.405-2.877C181.517,185.625,186.254,186.772,187.873,185.886z"
   id="path418"
   style="fill:#000000;fill-opacity:0" />
</g>
</svg>
