<?xml version="1.0" encoding="utf-8"?>
<!-- Generator: Adobe Illustrator 16.0.0, SVG Export Plug-In . SVG Version: 6.00 Build 0)  -->
<!DOCTYPE svg PUBLIC "-//W3C//DTD SVG 1.1//EN" "http://www.w3.org/Graphics/SVG/1.1/DTD/svg11.dtd">
<svg version="1.1" id="Layer_1" xmlns="http://www.w3.org/2000/svg" xmlns:xlink="http://www.w3.org/1999/xlink" x="0px" y="0px"
	 width="280px" height="280px" viewBox="0 0 280 280" enable-background="new 0 0 280 280" xml:space="preserve">
<rect y="-0.042" fill="#219042" width="280" height="280"/>
<g>
	<path fill-rule="evenodd" clip-rule="evenodd" fill="#FFFFFF" d="M10.724,80.236c0.23,0.006,0.461,0.018,0.691,0.018
		c16.072,0,32.143,0,48.214,0c0.139,0,0.278,0.016,0.415-0.002c0.378-0.05,0.513,0.142,0.507,0.615
		c-0.018,1.557-0.006,3.114-0.006,4.671c0,5.108,0,10.216,0,15.324c0,0.793-0.001,0.794-0.66,0.794c-9.52,0-19.04,0-28.56,0
		c-0.688,0-0.687,0-0.689,0.822c-0.017,4.803-0.035,9.605-0.051,14.409c-0.003,0.804,0.001,0.806,0.667,0.806
		c8.121,0,16.241,0,24.362,0c0.712,0,0.713,0,0.713,0.859c0,5.943,0,11.887,0,17.831c0,0.816-0.001,0.817-0.646,0.817
		c-8.136,0-16.271,0-24.408,0c-0.693,0-0.694,0-0.694,0.87c0,4.785,0,9.57,0,14.355c0,0.814,0.001,0.816,0.659,0.816
		c9.535,0.001,19.07,0.001,28.606,0.001c0.701,0,0.701,0,0.701,0.87c0,6.569,0,13.14,0,19.71c0,0.768-0.001,0.77-0.593,0.77
		c-16.271,0.001-32.542,0.001-48.814,0c-0.139,0-0.276-0.009-0.415-0.014C10.724,143.132,10.724,111.684,10.724,80.236z"/>
	<path fill-rule="evenodd" clip-rule="evenodd" fill="#FFFFFF" d="M173.975,77.615c0.056,0.26,0.236,0.202,0.378,0.211
		c3.704,0.259,7.372,0.871,11.013,1.729c1.979,0.466,3.937,1.036,5.886,1.668c0.354,0.115,0.456,0.311,0.458,0.744
		c0.022,6.874,0.058,13.747,0.088,20.621c0.003,0.718-0.015,0.736-0.562,0.585c-3.421-0.943-6.861-1.757-10.344-2.273
		c-3.103-0.459-6.217-0.728-9.34-0.364c-2.122,0.247-4.156,0.874-5.863,2.582c-1.114,1.114-1.784,2.546-1.932,4.319
		c-0.143,1.723,0.548,2.984,1.537,4.056c0.572,0.619,1.226,1.076,1.944,1.393c5.212,2.296,10.431,4.573,15.633,6.902
		c3.47,1.553,6.521,3.91,8.931,7.419c2.473,3.603,3.776,7.834,4.295,12.457c0.504,4.479,0.375,8.942-0.489,13.344
		c-1.552,7.904-5.278,13.807-10.95,17.868c-3.71,2.656-7.736,4.153-11.973,4.842c-0.142,0.022-0.324-0.035-0.372,0.229
		c-5.536,0-11.074,0-16.61,0c-0.025-0.208-0.162-0.201-0.28-0.215c-3.08-0.338-6.124-0.984-9.172-1.604
		c-0.473-0.096-0.623-0.297-0.619-0.899c0.029-4.405-0.004-8.812,0.046-13.216c0.034-2.925,0.029-5.85,0.041-8.771
		c0.002-0.465,0.077-0.585,0.468-0.445c3.956,1.415,7.993,2.245,12.102,2.612c3.12,0.279,6.234,0.294,9.345-0.139
		c2.411-0.337,4.662-1.213,6.608-3.064c0.815-0.776,1.549-1.688,1.756-2.98c0.436-2.706-0.37-4.369-2.094-5.734
		c-1.324-1.049-2.818-1.596-4.275-2.249c-4.263-1.911-8.551-3.74-12.789-5.73c-6.393-3.002-10.415-8.765-11.964-16.896
		c-1.866-9.792-0.383-18.918,4.563-26.994c3.229-5.274,7.597-8.611,12.699-10.516c1.652-0.617,3.339-1.028,5.053-1.266
		c0.132-0.019,0.292,0.016,0.326-0.224C169.667,77.615,171.82,77.615,173.975,77.615z"/>
	<path fill-rule="evenodd" clip-rule="evenodd" fill="#FFFFFF" d="M123.946,127.499c0.962,0.592,1.825,1.169,2.637,1.853
		c3.629,3.058,5.779,7.329,6.676,12.583c0.747,4.367,0.83,8.732-0.242,13.06c-1.556,6.282-4.672,11.037-9.221,14.388
		c-3.269,2.409-6.843,3.743-10.573,4.511c-3.104,0.64-6.234,0.779-9.373,0.778c-9.228-0.005-18.455-0.002-27.683-0.002
		c-0.685,0-0.686-0.001-0.686-0.837c0-30.912,0-61.826,0-92.739c0-0.838,0.001-0.839,0.683-0.839
		c9.781,0.002,19.563-0.031,29.343,0.021c4.481,0.024,8.893,0.72,13.123,2.689c4.848,2.257,8.786,5.903,11.388,11.529
		c1.74,3.761,2.663,7.817,2.722,12.162c0.056,4.157-0.467,8.171-1.943,11.945c-1.425,3.642-3.567,6.474-6.385,8.533
		C124.282,127.227,124.157,127.333,123.946,127.499z M95.349,144.929c0,2.732,0.007,5.466-0.007,8.199
		c-0.002,0.438,0.093,0.644,0.466,0.712c3.231,0.598,6.457,0.657,9.674-0.119c2.102-0.508,4.105-1.328,5.833-2.956
		c2.753-2.593,3.28-6.804,1.257-10.035c-0.98-1.564-2.304-2.565-3.764-3.274c-4.261-2.067-8.662-2.116-13.116-1.313
		c-0.363,0.065-0.344,0.331-0.344,0.644C95.35,139.5,95.349,142.215,95.349,144.929z M95.349,110.155
		c0,2.734,0.005,5.468-0.005,8.203c-0.002,0.41,0.077,0.593,0.441,0.662c3.201,0.604,6.401,0.663,9.589-0.075
		c2.227-0.515,4.346-1.393,6.147-3.181c2.748-2.727,3.039-7.326,0.663-10.384c-1.516-1.952-3.451-2.945-5.513-3.6
		c-3.599-1.144-7.238-1.13-10.892-0.452c-0.348,0.065-0.44,0.267-0.438,0.682C95.355,104.725,95.349,107.44,95.349,110.155z"/>
</g>
<g>
	<path fill-rule="evenodd" clip-rule="evenodd" fill="#FFFFFF" d="M267.721,107.847c-0.31-0.034-0.193,0.267-0.192,0.43
		c0.004,4.725-0.99,9.154-2.534,13.41c-1.475,4.062-3.479,7.682-5.925,10.915c-4.903,6.475-9.815,12.938-14.722,19.412
		c-0.642,0.849-1.266,1.716-1.899,2.571c-0.301,0.006-0.601,0.015-0.9,0.017c-8.371,0.044-16.743,0.089-25.111,0.132
		c0.551-0.923,1.208-1.73,1.825-2.577c7.449-10.231,14.906-20.454,22.356-30.682c0.97-1.331,1.921-2.683,2.771-4.141
		c1.544-2.65,2.555-5.538,2.774-8.87c0.136-2.034,0.075-3.999-0.509-5.903c-0.924-3.015-2.656-4.931-5.165-5.647
		c-1.623-0.465-3.276-0.412-4.892,0.065c-1.765,0.522-3.082,1.859-4.063,3.748c-0.979,1.887-1.448,4.003-1.765,6.184
		c-0.315,2.179-0.413,4.383-0.38,6.596c0.006,0.439-0.133,0.519-0.438,0.52c-6.645,0.027-13.288,0.059-19.932,0.104
		c-0.357,0.002-0.458-0.142-0.447-0.574c0.046-1.736-0.005-3.479,0.115-5.205c0.461-6.592,1.603-12.946,4.44-18.643
		c3.026-6.071,7.394-9.975,12.742-12.251c3.117-1.326,6.324-2.099,9.614-2.33c0.08-0.005,0.168-0.019,0.239-0.061
		c0.073-0.044,0.068-0.126-0.004-0.185c2.375-0.012,4.752-0.024,7.13-0.036c-0.095,0.263,0.064,0.237,0.182,0.241
		c0.896,0.036,1.765,0.297,2.642,0.488c3.037,0.664,5.877,2.001,8.568,3.875c3.011,2.097,5.591,4.845,7.735,8.207
		c2.292,3.593,3.924,7.631,4.812,12.107c0.426,2.141,0.744,4.305,0.733,6.526c-0.002,0.143-0.153,0.493,0.192,0.428
		C267.717,107.09,267.719,107.469,267.721,107.847z"/>
	<path fill-rule="evenodd" clip-rule="evenodd" fill="#FFFFFF" d="M242.73,154.634c7.563-0.041,15.128-0.08,22.691-0.133
		c0.371-0.003,0.434,0.17,0.435,0.583c0.023,6.318,0.052,12.636,0.099,18.957c0.004,0.521-0.135,0.607-0.507,0.607
		c-2.678-0.005-5.356,0.018-8.032,0.031c-10.107,0.051-20.215,0.102-30.323,0.151c-0.2,0.001-0.399-0.021-0.6-0.032
		c5.193-6.587,10.389-13.175,15.577-19.771C242.264,154.781,242.496,154.725,242.73,154.634z"/>
	<path fill-rule="evenodd" clip-rule="evenodd" fill="#FFFFFF" d="M242.73,154.634c-0.234,0.091-0.467,0.147-0.66,0.395
		c-5.188,6.596-10.384,13.184-15.577,19.771c-0.183,0.013-0.366,0.037-0.551,0.038c-5.065,0.027-10.132,0.043-15.198,0.092
		c-0.501,0.004-0.648-0.146-0.646-0.795c0.008-3.605-0.021-7.213-0.047-10.822c-0.003-0.381,0.074-0.662,0.295-0.942
		c1.936-2.432,3.858-4.878,5.787-7.316c0.093-0.118,0.202-0.214,0.304-0.32c8.368-0.043,16.74-0.088,25.111-0.132
		c0.3-0.002,0.6-0.011,0.9-0.017C242.542,154.603,242.637,154.62,242.73,154.634z"/>
</g>
</svg>
