<?xml version="1.0" encoding="utf-8"?>
<!-- Generator: Adobe Illustrator 16.0.0, SVG Export Plug-In . SVG Version: 6.00 Build 0)  -->
<!DOCTYPE svg PUBLIC "-//W3C//DTD SVG 1.1//EN" "http://www.w3.org/Graphics/SVG/1.1/DTD/svg11.dtd">
<svg version="1.1" id="Layer_1" xmlns="http://www.w3.org/2000/svg" xmlns:xlink="http://www.w3.org/1999/xlink" x="0px" y="0px"
	 width="280px" height="280px" viewBox="0 0 280 280" enable-background="new 0 0 280 280" xml:space="preserve">
<rect y="-0.042" fill="#0275DA" width="280" height="280"/>
<g>
	<path fill-rule="evenodd" clip-rule="evenodd" fill="#FFFFFF" d="M10.725,79.396c3.408-0.075,6.825,0.07,10.221-0.304
		c2.302-0.252,2.763,1.257,2.691,4.612c-0.139,6.499-0.041,13.011-0.041,19.518c0,6.281,0,12.562,0,19.351
		c1.465-0.689,1.933-2.547,2.591-3.912c5.802-12.04,11.608-24.075,17.31-36.241c1.113-2.375,2.254-3.414,4.102-3.317
		c4.073,0.212,8.152,0.066,12.899,0.066c-6.768,13.94-13.012,27.247-19.592,40.099c-2.202,4.3-2.233,6.995-0.124,11.427
		c6.592,13.855,12.845,28.138,19.63,43.139c-5.117,0-9.64-0.048-14.161,0.025c-1.661,0.026-2.096-2.187-2.813-3.796
		C37.64,157.067,31.884,144.021,26.106,131c-0.601-1.354-1.263-2.638-2.511-5.228c0,12.43,0,23.395,0,34.358
		c0,13.721,0,13.731-8.293,13.709c-1.526-0.004-3.052-0.142-4.578-0.217C10.725,142.214,10.725,110.804,10.725,79.396z"/>
	<path fill-rule="evenodd" clip-rule="evenodd" fill="#FFFFFF" d="M105.68,124.662c7.374,8.233,9.751,18.176,7.46,30.322
		c-2.168,11.501-8.381,18.785-16.26,18.842c-10.579,0.077-21.159-0.057-31.738,0.089c-2.069,0.029-2.842-0.704-2.83-4.395
		c0.095-28.682,0.096-57.365,0-86.047c-0.013-3.723,0.796-4.403,2.845-4.369c9.285,0.157,18.572,0.088,27.859,0.083
		c2.368-0.002,4.688,0.552,6.957,1.599c11.816,5.456,15.475,26.237,7.25,41.122C106.756,122.75,106.284,123.583,105.68,124.662z
		 M85.331,131.158c0-0.021,0-0.041,0-0.061c-2.696,0-5.394,0.091-8.088-0.037c-1.49-0.071-2.084,0.756-2.062,3.266
		c0.068,7.436,0.024,14.874,0.023,22.312c0,1.566-0.032,3.258,1.345,3.17c6.073-0.384,12.211,1.284,18.211-1.11
		c5.245-2.094,7.574-7.329,7.087-15.122c-0.417-6.659-4.017-11.876-8.781-12.37C90.498,130.939,87.91,131.158,85.331,131.158z
		 M84.083,117.076c3.166,0,5.644,0.188,8.107-0.042c4.509-0.418,7.505-5.324,7.465-11.908c-0.043-7.082-3.03-11.763-7.776-11.927
		c-3.882-0.134-7.767-0.03-11.651-0.031c-5.026,0-5.119,0.004-4.993,8.155c0.079,5.096-1.387,11.612,0.674,14.893
		C77.803,119.229,81.747,116.704,84.083,117.076z"/>
	<path fill-rule="evenodd" clip-rule="evenodd" fill="#FFFFFF" d="M135.529,173.851c-5.175,0-10.352-0.117-15.525,0.061
		c-1.875,0.064-2.659-0.517-2.681-3.995c-0.062-10.067-0.173-10.064,5.944-10.064c7.41-0.002,14.82,0.041,22.23-0.017
		c5.671-0.044,9.503-5.429,9.86-13.696c0.341-7.864-2.993-13.674-8.876-14.362c-5.15-0.601-10.351,0-15.511-0.462
		c-11.122-0.998-17.681-14.838-15.688-32.679c1.199-10.737,7.249-18.824,15.195-19.18c10.459-0.468,20.932-0.176,31.4-0.33
		c1.659-0.024,2.166,0.802,2.244,3.557c0.292,10.389,0.363,10.384-6.144,10.384c-7.409,0-14.82-0.044-22.229,0.016
		c-5.52,0.043-8.369,3.806-8.473,10.995c-0.113,7.853,2.778,12.142,8.457,12.484c5.283,0.318,10.575-0.47,15.857,0.503
		c10.556,1.945,16.325,12.805,15.972,30.219c-0.317,15.603-7.029,26.044-17.214,26.502c-4.937,0.223-9.879,0.039-14.819,0.039
		C135.529,173.833,135.529,173.841,135.529,173.851z"/>
	<path fill-rule="evenodd" clip-rule="evenodd" fill="#FFFFFF" d="M202.8,100.856c0,23.53-0.03,47.062,0.036,70.594
		c0.009,3.137-0.45,4.407-2.537,4.336c-5.885-0.205-11.774,0.046-17.659-0.122c-3.614-0.104-5.553-3.018-5.572-8.838
		c-0.09-26.811-0.094-53.623-0.009-80.434c0.02-6.127,1.968-8.936,5.815-9.054c4.471-0.138,8.943-0.032,14.368-0.032
		c-3.153,5.127-5.736,9.639-8.536,13.76c-1.641,2.412-1.643,3.967,0.011,6.314c2.122,3.016,4.119,6.306,5.984,9.747
		c1.267,2.337,2.153,2.303,3.318-0.029c1.245-2.491,2.618-4.813,3.936-7.21C202.236,100.211,202.518,100.534,202.8,100.856z"/>
	<path fill-rule="evenodd" clip-rule="evenodd" fill="#FFFFFF" d="M216.252,126.35c0-14.544,0.115-29.092-0.07-43.628
		c-0.057-4.432,0.776-5.568,3.369-5.343c3.988,0.347,7.998-0.023,11.996,0.129c4.241,0.162,5.936,3.006,5.942,9.968
		c0.03,26.025,0.028,52.051,0.001,78.075c-0.007,7.144-1.734,9.953-6.247,10.116c-4.115,0.148-8.24-0.186-12.35,0.118
		c-2.31,0.17-2.703-1.331-2.684-4.657C216.305,156.202,216.252,141.276,216.252,126.35z"/>
</g>
</svg>
