<?xml version="1.0" encoding="utf-8"?>
<!-- Generator: Adobe Illustrator 16.0.0, SVG Export Plug-In . SVG Version: 6.00 Build 0)  -->
<!DOCTYPE svg PUBLIC "-//W3C//DTD SVG 1.1//EN" "http://www.w3.org/Graphics/SVG/1.1/DTD/svg11.dtd">
<svg version="1.1" id="Layer_1" xmlns="http://www.w3.org/2000/svg" xmlns:xlink="http://www.w3.org/1999/xlink" x="0px" y="0px"
	 width="280px" height="280px" viewBox="0 0 280 280" enable-background="new 0 0 280 280" xml:space="preserve">
<rect y="-0.042" fill="#FBB903" width="280" height="280"/>
<g>
	<path fill-rule="evenodd" clip-rule="evenodd" fill="#FFFFFF" d="M10.725,80.613c3.259,0.025,6.53,0.335,9.772-0.014
		c2.652-0.285,3.209,1.347,3.163,5.25c-0.145,12.221-0.054,24.449-0.054,38.348c6.757-13.799,12.963-26.185,18.932-38.854
		c1.624-3.444,3.235-5.061,5.977-4.754c3.592,0.403,7.215,0.1,10.901,0.1c0.04,2.623-1.198,3.846-1.962,5.4
		c-5.875,11.954-11.75,23.914-17.767,35.687c-1.418,2.775-1.358,4.571-0.042,7.367c6.651,14.133,13.16,28.436,20.256,43.844
		c-5.246,0-9.843,0.105-14.437-0.063c-1.355-0.051-1.805-2.365-2.488-3.871c-5.583-12.303-11.132-24.645-16.696-36.97
		c-0.675-1.495-1.372-2.964-2.673-5.771c0,14.553-0.149,27.529,0.076,40.489c0.086,4.947-0.583,6.958-3.912,6.373
		c-2.982-0.524-6.028-0.146-9.045-0.165C10.725,142.209,10.725,111.411,10.725,80.613z"/>
	<path fill-rule="evenodd" clip-rule="evenodd" fill="#FFFFFF" d="M224.737,152.301c6.229-9.528,10.116-19.28,11.053-31.835
		c1.27-17.011-6.386-34.818-17.388-39.573c-10.813-4.674-23.034,4.311-27.208,20.001c-1.409,5.297-0.297,10.603,2.794,13.328
		c3.091,2.725,6.726,1.348,8.744-4.015c2.553-6.791,6.055-10.592,11.014-9.439c7.781,1.808,11.355,14.713,7.354,26.084
		c-2.82,8.011-7.358,13.031-12.256,17.418c-9.485,8.497-19.824,8.579-30.25,8.068c-1.679-0.082-1.848-2.036-2.302-3.729
		c-9.532-35.532,6.053-78.964,30.196-84.161c21.252-4.575,39.354,15.074,44.354,48.366c1.849,12.301,1.026,24.404-1.89,36.146
		c-0.437,1.762-0.785,3.433-2.435,3.399C239.56,152.22,232.6,152.301,224.737,152.301z"/>
	<path fill-rule="evenodd" clip-rule="evenodd" fill="#FFFFFF" d="M104.979,125.191c10.52,13.019,10.533,33.764,0,44.02
		c-2.616,2.547-5.502,3.848-8.592,3.85c-10.5,0.001-21.001-0.118-31.5,0.089c-2.438,0.048-2.99-1.231-2.979-4.905
		c0.088-27.503,0.098-55.008-0.006-82.511c-0.016-3.983,0.613-5.284,3.185-5.123c10.119,0.63,20.271-0.947,30.371,0.88
		c6.325,1.144,11.813,5.013,14.106,15.32c2.314,10.402,0.57,19.634-4.329,27.38C105.086,124.423,105.059,124.852,104.979,125.191z
		 M84.757,131.442c-2.656,0-5.311,0.065-7.965-0.026c-1.412-0.048-2.262,0.399-2.233,3.114c0.077,7.305,0.048,14.614,0.015,21.922
		c-0.008,1.896,0.398,2.921,1.654,2.843c5.893-0.367,11.855,1.188,17.671-0.976c5.023-1.87,7.567-7.422,7.119-14.402
		c-0.442-6.882-4.14-12.068-9.022-12.432C89.588,131.304,87.17,131.453,84.757,131.442z M83.794,117.732
		c2.607,0,4.654,0.033,6.7-0.007c5.018-0.096,7.924-3.997,8.05-10.763c0.14-7.5-2.781-12.21-7.91-12.448
		c-3.729-0.173-7.462-0.042-11.194-0.043c-4.858-0.001-4.95,0.004-4.827,7.466c0.084,5.107-1.406,11.661,0.669,14.919
		C77.193,119.854,81.252,117.362,83.794,117.732z"/>
	<path fill-rule="evenodd" clip-rule="evenodd" fill="#FFFFFF" d="M134.142,173.061c-4.952,0.002-9.909-0.194-14.854,0.086
		c-2.406,0.137-3.29-1.121-2.975-4.865c0.127-1.513,0.124-3.096,0.001-4.61c-0.297-3.677,0.76-4.477,2.898-4.433
		c8.332,0.176,16.667,0.097,25,0.065c5.556-0.021,9.239-5.161,9.495-13.147c0.26-8.102-2.564-13.331-8.378-14.092
		c-4.92-0.643-9.897-0.105-14.846-0.289c-11.317-0.421-18.269-14.08-16.212-31.717c1.14-9.778,5.856-16.567,12.801-18.385
		c7.324-1.916,14.705-0.652,22.059-0.959c3.38-0.141,6.775,0.258,10.142-0.114c2.631-0.291,3.452,1.269,3.115,5.186
		c-0.131,1.511-0.121,3.094-0.002,4.611c0.265,3.397-0.702,4.174-2.688,4.14c-8.453-0.147-16.908-0.093-25.363-0.051
		c-5.359,0.027-8.241,3.901-8.313,11.027c-0.073,7.131,3.155,11.652,8.329,11.952c6.015,0.35,12.089-1.191,18.044,0.922
		c9.778,3.469,14.382,14.303,13.43,31.138c-0.768,13.564-7.569,23.159-16.828,23.501
		C144.048,173.209,139.093,173.059,134.142,173.061z"/>
	<path fill-rule="evenodd" clip-rule="evenodd" fill="#FFFFFF" d="M237.663,173.406c-14.411,21.031-38.614,18.196-49.664,0
		C204.458,173.406,220.771,173.406,237.663,173.406z"/>
</g>
</svg>
