<?xml version="1.0" encoding="utf-8"?>
<!-- Generator: Adobe Illustrator 16.0.0, SVG Export Plug-In . SVG Version: 6.00 Build 0)  -->
<!DOCTYPE svg PUBLIC "-//W3C//DTD SVG 1.1//EN" "http://www.w3.org/Graphics/SVG/1.1/DTD/svg11.dtd">
<svg version="1.1" id="Layer_1" xmlns="http://www.w3.org/2000/svg" xmlns:xlink="http://www.w3.org/1999/xlink" x="0px" y="0px"
	 width="280px" height="280px" viewBox="0 0 280 280" enable-background="new 0 0 280 280" xml:space="preserve">
<rect y="-0.042" fill="#1E2E5D" width="280" height="280"/>
<g>
	<path fill-rule="evenodd" clip-rule="evenodd" fill="#FFFFFF" d="M10.733,80.203c-0.005-0.167-0.011-0.334-0.017-0.501
		c4.042,0,8.086,0,12.128,0c-0.009,0.606-0.025,1.212-0.025,1.818c-0.001,13.757-0.002,27.514,0.003,41.271
		c0,0.439-0.089,0.911,0.162,1.428c0.508-0.87,1.01-1.693,1.484-2.548c1.051-1.895,2.086-3.81,3.131-5.712
		c2.089-3.802,4.217-7.551,6.266-11.406c1.023-1.923,2.136-3.752,3.173-5.667c2.121-3.917,4.386-7.651,6.434-11.664
		c0.354-0.693,0.681-1.544,1.335-1.759c-0.066,0.426-0.244,0.751-0.423,1.075c-1.103,1.996-2.206,3.992-3.31,5.986
		c-3.312,5.982-6.625,11.962-9.937,17.946c-2.628,4.752-5.252,9.51-7.883,14.26c-0.304,0.549-0.448,0.99-0.071,1.687
		c2.703,5.007,5.381,10.043,8.057,15.083c5.479,10.32,10.962,20.636,16.413,30.991c0.52,0.988,1.069,1.318,1.867,1.311
		c4.343-0.038,8.686-0.011,13.029-0.008c0.005,0.156,0.01,0.311,0.014,0.466c-4.901,0-9.803,0-14.706,0
		c-0.048-1.409-0.848-2.095-1.332-3.058c-1.643-3.269-3.353-6.461-5.055-9.66c-1.151-2.166-2.343-4.28-3.496-6.442
		c-1.373-2.574-2.717-5.184-4.084-7.764c-1.086-2.05-2.19-4.076-3.282-6.118c-1.029-1.921-2.052-3.849-3.079-5.773
		c-1.184-2.222-2.346-4.472-3.569-6.646c-0.319-0.568-0.486-1.354-1.101-1.822c-0.174,15.84,0.151,31.566-0.168,47.283
		c-3.992,0-7.984,0-11.977,0c0.009-0.161,0.019-0.322,0.028-0.482c3.46,0.003,6.918,0.008,10.377,0.008
		c1.38,0,1.384-0.005,1.384-2.123c0.001-16.705,0.001-33.412,0.001-50.117c0-13.028,0-26.055-0.004-39.083
		c-0.001-2.045-0.143-2.254-1.468-2.256C17.601,80.201,14.167,80.203,10.733,80.203z"/>
	<path fill-rule="evenodd" clip-rule="evenodd" fill="#FFFFFF" d="M116.233,174.26c-0.018-4.25-0.025-8.499-0.057-12.75
		c-0.008-1.128,0.436-1.181,0.997-1.179c6.214,0.013,12.429,0.027,18.643,0.002c2.55-0.011,5.116,0.319,7.647-0.146
		c3.975-0.729,6.765-4.146,7.583-10.831c0.838-6.831-1.64-12.502-5.66-14.787c-1.535-0.872-3.069-1.365-4.717-1.313
		c-2.829,0.09-5.659,0.002-8.488,0.031c-2.971,0.031-5.827-0.782-8.52-2.692c-1.435-1.018-2.819-2.204-3.825-4.16
		c0.233,0.06,0.422,0.246,0.599,0.47c3.4,4.318,7.393,5.932,11.743,5.923c2.778-0.007,5.558,0.04,8.335-0.015
		c1.507-0.03,2.964,0.251,4.393,0.988c4.471,2.306,7.23,7.887,6.481,15.254c-0.354,3.469-1.268,6.524-3.153,8.75
		c-1.795,2.117-3.865,2.894-6.093,2.917c-8.108,0.085-16.216-0.181-24.323,0.147c-1.204,0.048-1.284,0.14-1.287,1.982
		c-0.005,2.952-0.005,5.903-0.001,8.855c0.002,2.057,0.032,2.095,1.421,2.095c8.386,0.003,16.773-0.041,25.159,0.026
		c2.689,0.021,5.262-0.704,7.778-2.05c6.951-3.718,11.3-12.839,11.431-24.005c0.026-2.224,0.005-4.446,0.005-6.67
		c0.255,0.224,0.302,0.596,0.302,0.991c-0.001,2.569,0.168,5.17-0.041,7.7c-0.707,8.533-3.211,15.465-8.207,19.984
		c-1.9,1.718-3.933,2.906-6.095,3.627c-0.34,0.111-0.931-0.147-0.974,0.854C136.953,174.26,126.593,174.26,116.233,174.26z"/>
	<path fill-rule="evenodd" clip-rule="evenodd" fill="#FFFFFF" d="M100.463,173.143c-0.164,0.631-0.866,0.255-0.907,1.117
		c-12.026,0-24.055,0-36.082,0c-0.014-0.918-0.041-1.835-0.041-2.753c-0.002-29.584,0-59.169,0-88.753
		c0-1.71,0.001-1.715,1.109-1.715c10.101,0,20.202,0.016,30.303-0.015c1.357-0.004,2.639,0.579,3.956,0.885
		c0.286,0.066,0.604,0.159,0.794,0.584c-1.555-0.238-3.048-1.003-4.64-0.997c-9.952,0.044-19.904,0.021-29.857,0.025
		c-1.267,0-1.343,0.119-1.343,2.012c0,6.708,0.003,13.416,0.003,20.125c0,22.732-0.002,45.465-0.002,68.197
		c0,1.761,0.091,1.953,1.062,1.954c5.937,0.011,11.874,0.141,17.809-0.028C88.572,173.611,94.538,174.562,100.463,173.143z"/>
	<path fill-rule="evenodd" clip-rule="evenodd" fill="#FFFFFF" d="M100.463,173.143c-5.925,1.419-11.891,0.469-17.834,0.639
		c-5.935,0.169-11.873,0.039-17.809,0.028c-0.97-0.001-1.062-0.193-1.062-1.954c0-22.731,0.002-45.465,0.002-68.197
		c0-6.709-0.004-13.417-0.003-20.125c0-1.894,0.076-2.012,1.343-2.012c9.953-0.004,19.906,0.019,29.857-0.025
		c1.592-0.006,3.085,0.759,4.64,0.997c0.339,0.153,0.68,0.307,1.02,0.459c1.102,0.998,2.318,1.683,3.359,2.848
		c0.26,0.289,0.551,0.551,0.896,0.572l-0.01-0.013c0.154,0.735,0.546,1.193,0.897,1.676c1.157,1.596,2.029,3.496,2.75,5.589
		c0.303,0.879,0.446,1.88,0.889,2.647c0.013,0.069,0.02,0.141,0.023,0.212c0.043,0.415,0.061,0.84,0.133,1.243
		c0.588,3.314,0.731,6.705,0.779,10.113c-0.001,0.129-0.001,0.259-0.002,0.389c-0.164,0.305-0.249,0.66-0.275,1.046
		c-0.149,2.198-0.711,4.177-1.359,6.127c-0.568,1.708-1.422,3.128-2.004,4.815l0.007-0.015c-0.849,1.197-1.702,2.389-2.546,3.595
		c-0.43,0.614-0.23,1.044,0.188,1.441c1.114,1.059,2.182,2.213,3.14,3.585c0.208,0.295,0.441,0.509,0.728,0.567l-0.007-0.012
		c0.049,0.434,0.192,0.757,0.47,0.923l-0.008-0.012c0.171,0.717,0.505,1.222,0.916,1.628l-0.007-0.018
		c0.141,0.934,0.594,1.599,0.938,2.338c0.763,1.644,1.068,3.627,1.794,5.289l-0.021-0.016l0.05,0.055
		c0.042,0.441,0.083,0.882,0.124,1.322c0.13,1.24,0.158,2.517,0.561,3.659c0.001,0.18,0.002,0.36,0.002,0.54
		c-0.031,0.453-0.083,0.904-0.088,1.357c-0.022,2.013,0.018,4.021-0.172,6.03c-0.152,1.631-0.566,3.147-0.743,4.759
		c-0.019,0.17-0.039,0.339-0.058,0.507c-0.497,0.461-0.574,1.322-0.802,2.021c-0.614,1.888-1.539,3.472-2.193,5.316
		c0,0,0.006-0.012,0.007-0.012c-0.226,0.127-0.382,0.357-0.459,0.707l0.004-0.018c-0.054,0.082-0.108,0.163-0.162,0.243l0.012-0.008
		c-0.321,0.162-0.557,0.515-0.786,0.864c-0.912,1.38-1.924,2.561-3.064,3.472c-0.885,0.709-1.782,1.384-2.673,2.073
		C101.449,172.93,100.904,172.814,100.463,173.143z M98.636,157.229c0.525-0.13,0.828-0.597,0.918-1.389l-0.007,0.013
		c0.375-0.156,0.563-0.619,0.754-1.072c0.675-1.6,1.067-3.373,1.37-5.201c1.051-6.359-1.181-13.098-5.183-15.485
		c-0.756-0.45-1.525-1.051-2.399-0.811c-0.11-0.026-0.219-0.051-0.329-0.078c-0.252-0.304-0.548-0.366-0.857-0.366
		c-5.732-0.004-11.464-0.003-17.197-0.025c-0.71-0.003-1.002,0.464-1,1.521c0.007,8.355,0.009,16.71-0.001,25.064
		c-0.001,1.07,0.294,1.517,1,1.515c5.834-0.021,11.667,0.011,17.501-0.051c1.051-0.012,2.104-0.366,3.016-1.299
		c0.166-0.083,0.331-0.168,0.496-0.253c0.815-0.333,1.529-0.882,1.928-2.094L98.636,157.229z M98.32,99.279L98.32,99.279
		c-0.143-0.772-0.478-1.347-0.872-1.837c-1.638-2.035-3.525-3.203-5.634-3.229c-5.203-0.067-10.406-0.022-15.61-0.006
		c-1.188,0.004-1.375,0.293-1.377,2.065c-0.006,7.092-0.007,14.183-0.004,21.274c0.001,1.829,0.09,1.958,1.302,1.958
		c5.658,0.003,11.315,0.001,16.974,0c0.429,0,0.849-0.061,1.274-0.206c4.403-1.5,6.667-9.788,5.491-15.524
		C99.533,102.149,99.293,100.413,98.32,99.279z"/>
	<path fill-rule="evenodd" clip-rule="evenodd" fill="#FFFFFF" d="M193.047,156.35c0.308,0.296,0.644,0.162,0.959,0.163
		c7.834,0.009,15.666,0.006,23.498,0.007c1.233,0.001,1.237,0.005,1.237,1.909c0.001,4.64-0.018,9.279,0.012,13.919
		c0.006,1.067-0.186,1.473-0.937,1.471c-14.604-0.028-29.207-0.027-43.812-0.001c-0.729,0.001-0.964-0.345-0.953-1.445
		c0.035-3.642,0.032-7.285,0-10.927c-0.009-1.006,0.201-1.715,0.683-2.401c7.433-10.618,14.854-21.255,22.271-31.895
		c1.766-2.531,3.481-5.139,4.798-8.268c1.268-3.015,1.967-6.294,1.854-9.906c-0.141-4.466-1.562-7.607-4.302-9.288
		c-5.736-3.517-13.346-0.6-17.256,6.652c-0.49,0.908-0.82,1.017-1.468,0.367c-2.824-2.832-5.685-5.579-8.53-8.362
		c-0.833-0.814-0.83-0.825-0.223-2.064c2.974-6.066,6.883-10.241,11.539-12.735c7.17-3.84,14.46-4.226,21.734-0.78
		c4.805,2.274,8.695,6.536,10.969,13.572c2.07,6.404,2.025,13.105,0.897,19.876c-0.963,5.779-3.118,10.51-5.726,14.83
		c-2.938,4.869-6.231,9.188-9.368,13.75c-2.444,3.555-4.924,7.055-7.381,10.589C193.353,155.654,193.074,155.85,193.047,156.35z"/>
	<path fill-rule="evenodd" clip-rule="evenodd" fill="#FFFFFF" d="M234.924,154.517c-5.026,0-10.054,0.002-15.081-0.001
		c-1.161,0-1.164-0.008-1.166-1.807c-0.003-3.719,0.011-7.438-0.008-11.155c-0.005-0.883,0.134-1.616,0.488-2.337
		c9.173-18.692,18.337-37.394,27.488-56.109c0.37-0.758,0.775-1.066,1.393-1.062c4.244,0.031,8.488,0.014,12.732,0.024
		c0.267,0,0.627-0.194,0.776,0.217c0.178,0.493-0.188,0.817-0.351,1.16c-8.357,17.464-16.72,34.918-25.082,52.375
		c-0.103,0.217-0.209,0.432-0.307,0.655c-0.192,0.438-0.154,0.718,0.231,0.743c0.15,0.01,0.303,0.014,0.454,0.014
		c4.699,0.001,9.397,0.004,14.095,0c1.044-0.001,1.049-0.013,1.051-1.609c0.004-4.676,0.021-9.354-0.012-14.03
		c-0.009-1.134,0.214-1.562,0.986-1.553c3.789,0.042,7.579,0.036,11.366,0.003c0.7-0.006,0.927,0.406,0.922,1.431
		c-0.02,4.715-0.011,9.43-0.005,14.146c0.002,1.565,0.036,1.609,1.066,1.611c2.577,0.004,5.153,0.034,7.73-0.018
		c0.736-0.015,1.034,0.291,1.025,1.482c-0.034,4.791-0.03,9.584-0.004,14.375c0.006,1.097-0.246,1.471-0.968,1.458
		c-2.576-0.047-5.152-0.019-7.729-0.012c-1.097,0.003-1.122,0.041-1.122,1.778c-0.003,5.288,0,10.578-0.003,15.869
		c-0.002,1.603-0.023,1.63-1.047,1.63c-3.891,0.003-7.781-0.023-11.67,0.023c-0.736,0.009-0.969-0.366-0.965-1.452
		c0.023-5.405,0.013-10.81,0.007-16.215c-0.001-1.563-0.045-1.632-1.063-1.634C245.079,154.516,240.001,154.519,234.924,154.517z"/>
	<path fill-rule="evenodd" clip-rule="evenodd" fill="#FFFFFF" d="M162.326,141.104c0,2.224,0.021,4.446-0.005,6.67
		c-0.131,11.166-4.479,20.287-11.431,24.005c-2.517,1.346-5.089,2.071-7.778,2.05c-8.386-0.067-16.773-0.023-25.159-0.026
		c-1.39,0-1.419-0.038-1.421-2.095c-0.004-2.952-0.004-5.903,0.001-8.855c0.003-1.843,0.083-1.935,1.287-1.982
		c8.106-0.328,16.215-0.063,24.323-0.147c2.228-0.023,4.298-0.8,6.093-2.917c1.886-2.226,2.8-5.281,3.153-8.75
		c0.749-7.367-2.011-12.948-6.481-15.254c-1.429-0.736-2.886-1.018-4.393-0.988c-2.778,0.055-5.558,0.008-8.335,0.015
		c-4.351,0.009-8.343-1.604-11.743-5.923c-0.177-0.224-0.366-0.41-0.599-0.47l0.021-0.002c-0.073-0.521-0.333-0.844-0.553-1.21
		c-2.544-4.224-3.941-9.302-4.362-14.882c-0.411-5.44,0.398-10.653,2.027-15.566c0.56-1.688,1.443-3.046,1.978-4.745l-0.004,0.005
		c0.512-0.238,0.807-0.894,1.171-1.41c2.753-3.904,6.137-6.129,9.772-6.267c9.151-0.348,18.313-0.121,27.473-0.119
		c1.071,0,1.175,0.156,1.181,1.77c0.012,3.407,0.016,6.814,0.021,10.222c-0.068,0.165-0.138,0.329-0.208,0.493
		c-1.008,0.038-2.019,0.109-3.026,0.11c-7.122,0.011-14.246-0.018-21.368,0.021c-2.669,0.015-4.883,1.671-6.417,4.979
		c-3.474,7.492-0.849,16.967,5.069,18.434c1.201,0.298,2.421,0.07,3.632,0.133c3.802,0.197,7.612-0.122,11.403,0.825
		c7.534,1.882,12.905,9.579,14.396,20.883c0.05,0.374,0.065,0.767,0.29,1.025L162.326,141.104z"/>
	<path fill-rule="evenodd" clip-rule="evenodd" fill="#FFFFFF" d="M62.55,173.794c-4.343-0.003-8.686-0.03-13.029,0.008
		c-0.798,0.008-1.347-0.322-1.867-1.311c-5.45-10.355-10.933-20.671-16.413-30.991c-2.676-5.04-5.354-10.077-8.057-15.083
		c-0.376-0.696-0.232-1.138,0.071-1.687c2.63-4.75,5.254-9.508,7.883-14.26c3.311-5.984,6.625-11.964,9.937-17.946
		c1.104-1.994,2.208-3.99,3.31-5.986c0.179-0.324,0.357-0.649,0.423-1.075c0.038-0.087,0.076-0.174,0.114-0.262
		c0.913-1.035,1.611-2.348,2.166-3.847c0.015-0.079,0.031-0.157,0.047-0.236c0.434-0.322,0.876-0.534,1.375-0.531
		c3.411,0.018,6.82,0.01,10.23,0.008c0.36,0,0.71,0.028,0.962,0.5l-0.007-0.01c-0.259,0.103-0.432,0.379-0.597,0.676
		c-1.104,1.996-2.211,3.987-3.312,5.986c-3.157,5.734-6.307,11.477-9.467,17.205c-3.486,6.318-6.975,12.629-10.476,18.927
		c-0.408,0.735-0.375,1.313,0.024,2.01c1.125,1.968,2.227,3.968,3.335,5.957c4.457,7.981,8.914,15.961,13.367,23.948
		c2.299,4.125,4.578,8.277,6.89,12.386c0.931,1.651,1.778,3.419,2.851,4.881C62.47,173.248,62.568,173.478,62.55,173.794z"/>
	<path fill-rule="evenodd" clip-rule="evenodd" fill="#FFFFFF" d="M62.313,173.062c-1.073-1.462-1.92-3.229-2.851-4.881
		c-2.312-4.108-4.591-8.261-6.89-12.386c-4.453-7.986-8.91-15.966-13.367-23.948c-1.109-1.989-2.21-3.989-3.335-5.957
		c-0.399-0.697-0.433-1.275-0.024-2.01c3.501-6.298,6.99-12.609,10.476-18.927c3.16-5.729,6.31-11.471,9.467-17.205
		c1.101-2,2.208-3.991,3.312-5.986c0.165-0.297,0.338-0.573,0.597-0.676c-0.023,0.484-0.192,0.905-0.388,1.223
		c-0.812,1.313-1.479,2.805-2.254,4.152c-1.985,3.447-3.892,6.994-5.841,10.485c-1.316,2.359-2.602,4.757-3.922,7.11
		c-1.826,3.25-3.608,6.557-5.418,9.828c-1.325,2.396-2.669,4.767-3.993,7.164c-0.581,1.052-1.119,2.156-1.705,3.202
		c-0.295,0.525-0.238,0.917,0.036,1.399c1.838,3.237,3.675,6.475,5.491,9.741c2.168,3.903,4.304,7.848,6.473,11.748
		c1.51,2.712,3.068,5.361,4.579,8.071c1.751,3.144,3.464,6.336,5.211,9.485c1.052,1.899,2.16,3.728,3.197,5.644
		C61.612,171.164,62.26,171.835,62.313,173.062z"/>
	<path fill-rule="evenodd" clip-rule="evenodd" fill="#FFFFFF" d="M162.332,141.133c-0.225-0.259-0.24-0.651-0.29-1.025
		c-1.49-11.304-6.861-19.001-14.396-20.883c-3.791-0.947-7.601-0.628-11.403-0.825c-1.211-0.063-2.432,0.165-3.632-0.133
		c-5.917-1.467-8.542-10.942-5.069-18.434c1.533-3.308,3.747-4.964,6.417-4.979c7.122-0.038,14.246-0.01,21.368-0.021
		c1.008-0.001,2.019-0.072,3.026-0.11c-0.104,0.796-0.525,0.439-0.796,0.44c-6.744,0.023-13.488,0.017-20.233,0.025
		c-1.237,0.001-2.48-0.057-3.71,0.09c-4.369,0.521-6.925,5.09-7.366,11.082c-0.299,4.081,1.752,8.988,4.315,10.593
		c1.04,0.651,2.109,1.021,3.236,1.031c2.853,0.026,5.707,0.028,8.561,0.105c3.466,0.092,6.879,0.67,10.092,2.837
		c3.814,2.573,6.673,6.663,8.443,12.428C161.653,135.819,162.348,138.33,162.332,141.133z"/>
	<path fill-rule="evenodd" clip-rule="evenodd" fill="#FFFFFF" d="M158.562,94.229c-0.006-3.407-0.01-6.814-0.021-10.222
		c-0.006-1.614-0.109-1.77-1.181-1.77c-9.159-0.001-18.321-0.229-27.473,0.119c-3.635,0.138-7.019,2.363-9.772,6.267
		c-0.364,0.517-0.66,1.172-1.171,1.41c0.743-1.909,1.937-3.08,3.116-4.223c2.225-2.154,4.687-3.289,7.305-3.795
		c1.336-0.26,2.667-0.276,4.002-0.277c8.135-0.004,16.271,0.001,24.407,0.006c1.074,0,1.078,0.007,1.078,1.676
		c0.003,3.221,0.008,6.442-0.005,9.663C158.845,93.487,159.007,94.05,158.562,94.229z"/>
	<path fill-rule="evenodd" clip-rule="evenodd" fill="#FFFFFF" d="M118.947,90.028c-0.535,1.699-1.417,3.057-1.978,4.745
		c-1.629,4.914-2.438,10.126-2.027,15.566c0.421,5.581,1.818,10.658,4.362,14.882c0.22,0.366,0.48,0.69,0.553,1.21
		c-1.306-1.295-2.097-3.26-2.843-5.231c-2.145-5.67-2.918-11.769-2.155-18.22c0.54-4.564,1.632-8.811,3.622-12.427
		C118.609,90.323,118.713,90.042,118.947,90.028z"/>
	<path fill-rule="evenodd" clip-rule="evenodd" fill="#FFFFFF" d="M59.704,81.095c-0.252-0.472-0.602-0.501-0.962-0.5
		c-3.41,0.002-6.819,0.01-10.23-0.008c-0.499-0.003-0.942,0.209-1.375,0.531c-0.082-0.907,0.323-1.003,0.753-1.007
		c1.309-0.012,2.618-0.006,3.926-0.006c2.466,0,4.933-0.001,7.399,0C59.663,80.104,60.094,80.134,59.704,81.095z"/>
	<path fill-rule="evenodd" clip-rule="evenodd" fill="#FFFFFF" d="M108.208,129.392c-0.287-0.058-0.521-0.272-0.728-0.567
		c-0.958-1.373-2.026-2.526-3.14-3.585c-0.417-0.397-0.617-0.828-0.188-1.441c0.844-1.206,1.697-2.398,2.546-3.595
		c-0.421,1.442-1.264,2.322-1.982,3.356c-0.643,0.926-0.655,0.891,0.108,1.664C106.037,126.452,107.239,127.706,108.208,129.392z"/>
	<path fill-rule="evenodd" clip-rule="evenodd" fill="#FFFFFF" d="M106.691,120.217c0.582-1.687,1.437-3.107,2.004-4.815
		c0.648-1.951,1.21-3.929,1.359-6.127c0.026-0.387,0.111-0.741,0.275-1.046c0.148,1.859-0.355,3.504-0.759,5.172
		c-0.54,2.232-1.367,4.224-2.331,6.086C107.093,119.772,106.97,120.143,106.691,120.217z"/>
	<path fill-rule="evenodd" clip-rule="evenodd" fill="#FFFFFF" d="M112.018,157.234c0.176-1.611,0.59-3.128,0.743-4.759
		c0.19-2.01,0.15-4.018,0.172-6.03c0.005-0.453,0.057-0.904,0.088-1.357C113.433,149.278,113.312,153.369,112.018,157.234z"/>
	<path fill-rule="evenodd" clip-rule="evenodd" fill="#FFFFFF" d="M109.397,96.271c-0.443-0.767-0.586-1.769-0.889-2.647
		c-0.72-2.093-1.592-3.993-2.75-5.589c-0.351-0.482-0.743-0.94-0.897-1.676c2.167,2.38,3.554,5.631,4.521,9.348
		C109.426,95.872,109.395,96.082,109.397,96.271z"/>
	<path fill-rule="evenodd" clip-rule="evenodd" fill="#FFFFFF" d="M101.843,172.401c0.892-0.689,1.789-1.364,2.673-2.073
		c1.14-0.911,2.152-2.092,3.064-3.472c0.229-0.35,0.465-0.702,0.786-0.864c-0.521,1.51-1.471,2.354-2.317,3.331
		c-1.061,1.224-2.236,2.175-3.467,2.961C102.337,172.44,102.095,172.446,101.843,172.401z"/>
	<path fill-rule="evenodd" clip-rule="evenodd" fill="#FFFFFF" d="M110.332,107.84c-0.047-3.409-0.191-6.799-0.779-10.113
		c-0.072-0.403-0.09-0.828-0.133-1.243c0.683,1.421,0.73,3.15,0.887,4.772c0.178,1.834,0.125,3.722,0.154,5.587
		C110.466,107.174,110.378,107.508,110.332,107.84z"/>
	<path fill-rule="evenodd" clip-rule="evenodd" fill="#FFFFFF" d="M112.303,139.528c-0.726-1.661-1.031-3.645-1.794-5.289
		c-0.343-0.739-0.796-1.404-0.938-2.338c0.807,0.753,1.084,2.108,1.553,3.229C111.686,136.476,112.114,137.936,112.303,139.528z"/>
	<path fill-rule="evenodd" clip-rule="evenodd" fill="#FFFFFF" d="M108.965,165.079c0.654-1.845,1.579-3.429,2.193-5.316
		c0.228-0.699,0.305-1.561,0.802-2.021c-0.524,2.405-1.397,4.515-2.402,6.51C109.393,164.577,109.251,164.95,108.965,165.079z"/>
	<path fill-rule="evenodd" clip-rule="evenodd" fill="#FFFFFF" d="M104.873,86.372c-0.345-0.021-0.637-0.283-0.896-0.572
		c-1.042-1.165-2.258-1.85-3.359-2.848C102.239,83.509,103.602,84.808,104.873,86.372z"/>
	<path fill-rule="evenodd" clip-rule="evenodd" fill="#FFFFFF" d="M47.088,81.354c-0.555,1.499-1.252,2.812-2.166,3.847
		C45.393,83.594,46.033,82.206,47.088,81.354z"/>
	<path fill-rule="evenodd" clip-rule="evenodd" fill="#FFFFFF" d="M113.018,144.548c-0.403-1.143-0.431-2.419-0.561-3.659
		C112.942,142.004,113.113,143.229,113.018,144.548z"/>
	<path fill-rule="evenodd" clip-rule="evenodd" fill="#FFFFFF" d="M109.579,131.919c-0.41-0.407-0.745-0.912-0.916-1.628
		C109.15,130.598,109.423,131.182,109.579,131.919z"/>
	<path fill-rule="evenodd" clip-rule="evenodd" fill="#FFFFFF" d="M108.671,130.303c-0.278-0.166-0.421-0.489-0.47-0.923
		C108.45,129.579,108.656,129.829,108.671,130.303z"/>
	<path fill-rule="evenodd" clip-rule="evenodd" fill="#FFFFFF" d="M108.512,165.774c0.077-0.35,0.233-0.58,0.459-0.707
		C108.927,165.465,108.784,165.715,108.512,165.774z"/>
	<path fill-rule="evenodd" clip-rule="evenodd" fill="#FFFFFF" d="M112.333,139.567l-0.05-0.055L112.333,139.567z"/>
	<path fill-rule="evenodd" clip-rule="evenodd" fill="#FFFFFF" d="M108.355,166c0.054-0.08,0.107-0.161,0.162-0.243
		C108.521,165.93,108.468,166.01,108.355,166z"/>
	<path fill-rule="evenodd" clip-rule="evenodd" fill="#FFFFFF" d="M10.733,80.203c3.434,0,6.868-0.002,10.302,0.002
		c1.325,0.002,1.467,0.211,1.468,2.256c0.004,13.028,0.004,26.056,0.004,39.083c0,16.706,0,33.412-0.001,50.117
		c0,2.118-0.003,2.123-1.384,2.123c-3.459,0-6.917-0.005-10.377-0.008c-0.007-9.926-0.021-19.849-0.021-29.773
		C10.723,122.737,10.729,101.47,10.733,80.203z"/>
	<path fill-rule="evenodd" clip-rule="evenodd" fill="#FFFFFF" d="M98.32,99.279c0.973,1.134,1.213,2.87,1.545,4.494
		c1.176,5.736-1.088,14.025-5.491,15.524c-0.425,0.145-0.845,0.206-1.274,0.206c-5.659,0.001-11.316,0.003-16.974,0
		c-1.212,0-1.301-0.129-1.302-1.958c-0.003-7.091-0.002-14.183,0.004-21.274c0.001-1.772,0.188-2.062,1.377-2.065
		c5.204-0.016,10.407-0.061,15.61,0.006c2.108,0.026,3.996,1.194,5.634,3.229C97.842,97.932,98.177,98.507,98.32,99.279
		c-0.303-0.098-0.418-0.525-0.604-0.821c-1.581-2.51-3.543-3.779-5.794-3.809c-5.278-0.067-10.558,0.001-15.836-0.041
		c-0.756-0.006-1.026,0.352-1.023,1.493c0.02,7.206,0.021,14.412,0,21.618c-0.003,1.071,0.264,1.376,0.938,1.373
		c5.658-0.032,11.315-0.026,16.973-0.027c0.837,0,1.623-0.196,2.422-0.685c3.112-1.904,4.669-7.917,4.561-11.799
		c-0.047-1.699-0.373-3.388-0.851-4.975C98.866,100.812,98.453,100.154,98.32,99.279z"/>
	<path fill-rule="evenodd" clip-rule="evenodd" fill="#FFFFFF" d="M93.759,133.206c-2.271,0.017-4.541,0.05-6.811,0.045
		c-3.633-0.007-7.268-0.043-10.902-0.057c-0.958-0.004-1.016,0.094-1.016,1.582c-0.002,8.043-0.002,16.085,0,24.127
		c0,1.57,0.039,1.633,1.058,1.633c5.225,0.005,10.449-0.009,15.672,0.007c1.521,0.005,2.997-0.394,4.459-0.978
		c-0.913,0.934-1.965,1.288-3.016,1.3c-5.833,0.062-11.667,0.029-17.501,0.051c-0.706,0.002-1.001-0.444-1-1.515
		c0.01-8.354,0.008-16.709,0.001-25.064c-0.001-1.058,0.291-1.524,1-1.521c5.733,0.022,11.465,0.021,17.197,0.025
		C93.211,132.84,93.507,132.902,93.759,133.206z"/>
	<path fill-rule="evenodd" clip-rule="evenodd" fill="#FFFFFF" d="M99.546,155.853c0.666-1.577,1.262-3.191,1.642-5
		c1.311-6.251-0.367-13.705-4.677-16.332c-0.798-0.486-1.676-0.559-2.423-1.237c0.874-0.24,1.643,0.361,2.399,0.811
		c4.002,2.387,6.234,9.125,5.183,15.485c-0.302,1.828-0.695,3.602-1.37,5.201C100.109,155.233,99.921,155.696,99.546,155.853z"/>
	<path fill-rule="evenodd" clip-rule="evenodd" fill="#FFFFFF" d="M96.716,159.313c0.559-0.877,1.286-1.394,1.928-2.094
		C98.245,158.431,97.531,158.979,96.716,159.313z"/>
	<path fill-rule="evenodd" clip-rule="evenodd" fill="#FFFFFF" d="M98.636,157.229c0.306-0.462,0.613-0.927,0.918-1.389
		C99.464,156.632,99.161,157.099,98.636,157.229z"/>
</g>
</svg>
