<?xml version="1.0" encoding="utf-8"?>
<!-- Generator: Adobe Illustrator 16.0.0, SVG Export Plug-In . SVG Version: 6.00 Build 0)  -->
<!DOCTYPE svg PUBLIC "-//W3C//DTD SVG 1.1//EN" "http://www.w3.org/Graphics/SVG/1.1/DTD/svg11.dtd">
<svg version="1.1" id="Layer_1" xmlns="http://www.w3.org/2000/svg" xmlns:xlink="http://www.w3.org/1999/xlink" x="0px" y="0px"
	 width="280px" height="280px" viewBox="0 0 280 280" enable-background="new 0 0 280 280" xml:space="preserve">
<rect fill="#464646" width="280" height="280"/>
<g>
	<path fill-rule="evenodd" clip-rule="evenodd" fill="#FFFFFF" d="M59.847,174.587c-6.407,0-12.815,0-19.222,0
		c-0.026-1.492-0.074-2.982-0.074-4.474c-0.005-20.633-0.031-41.266,0.033-61.898c0.008-2.539-0.33-3.716-2.292-3.51
		c-2.248,0.237-4.523,0.194-6.776,0.009c-1.66-0.135-2.297,0.451-2.287,3.09c0.088,22.259,0.073,44.521,0.089,66.782
		c-6.03,0-12.062-0.076-18.091,0.055c-1.417,0.031-1.737-0.464-1.733-2.5c0.056-25.805,0.037-51.609,0.037-77.414
		c0.58-0.221,0.533-0.988,0.66-1.595c1.681-7.957,5.562-12.405,10.99-14.49c0.638-0.245,1.579,0.429,1.918-1.028
		c17.902,0,35.805,0,53.708,0c0.104,0.637,0.433,0.73,0.828,0.813c8.502,1.77,13.284,9.399,13.313,21.69
		c0.059,24.822,0.002,49.646-0.007,74.469c-6.407,0-12.814,0-19.222,0c-0.601-1.377-0.321-2.909-0.322-4.364
		c-0.02-20.596-0.043-41.191,0.022-61.787c0.008-2.685-0.337-3.985-2.444-3.738c-2.241,0.265-4.514,0.202-6.763,0.015
		c-1.749-0.146-2.247,0.759-2.227,3.24c0.085,10.296,0.058,20.595,0.03,30.893C59.983,150.759,59.905,162.672,59.847,174.587z"/>
	<path fill-rule="evenodd" clip-rule="evenodd" fill="#FFFFFF" d="M101.683,77.615c17.525,0,35.051,0,52.577,0
		c0.341,1.254,1.11,0.668,1.7,0.795c3.853,0.823,7.533,2.339,10.612,5.942c4.529,5.303,5.865,12.47,5.024,20.406
		c-0.982,9.279-5.577,13.961-11.313,16.763c-1.546,0.756-3.179,1.143-5.542,1.966c2.972,1.032,5.173,1.598,7.318,2.375
		c7.876,2.851,13.021,10.056,13.681,20.146c0.826,12.693-2.659,21.443-10.506,26.288c-1.372,0.848-2.794,1.53-4.191,2.291
		c-19.787,0-39.574,0-59.361,0c-0.045-19.612-0.116-39.224-0.125-58.836C101.552,103.039,101.638,90.327,101.683,77.615z
		 M150.713,127.04c0-6.377-0.059-12.756,0.03-19.13c0.032-2.346-0.295-3.35-2.15-3.317c-8.378,0.146-16.757,0.098-25.135,0.03
		c-1.359-0.011-2.019,0.301-2.006,2.616c0.072,13.162,0.074,26.324-0.002,39.486c-0.014,2.281,0.58,2.635,1.963,2.622
		c8.472-0.075,16.945-0.082,25.417,0.005c1.486,0.017,1.938-0.646,1.912-2.773C150.659,140.067,150.712,133.553,150.713,127.04z"/>
	<path fill-rule="evenodd" clip-rule="evenodd" fill="#FFFFFF" d="M194.965,77.615c17.715,0,35.428,0,53.143,0
		c-0.031,8.699-0.062,17.397-0.094,26.096c-0.154,0.241-0.309,0.482-0.464,0.723c-14.487,0.054-28.974,0.151-43.461,0.108
		c-1.776-0.006-2.402,0.537-2.38,3.302c0.107,12.747,0.102,25.498,0.003,38.244c-0.02,2.677,0.505,3.365,2.339,3.351
		c14.677-0.121,29.356-0.088,44.034-0.103c0.003,0.269,0.006,0.538,0.009,0.807c-0.045,0.09-0.136,0.194-0.124,0.267
		c0.029,0.191,0.102,0.368,0.158,0.551c0.233,7.875,0.281,15.75-0.021,23.626c-19.034,0-38.066,0-57.1,0
		c-6.093-4.046-9.526-10.79-9.577-20.558c-0.089-18.041-0.124-36.084,0.02-54.122c0.09-11.03,4.233-18.231,11.583-21.223
		C193.675,78.424,194.631,79.08,194.965,77.615z"/>
	<path fill-rule="evenodd" clip-rule="evenodd" fill="#FFFFFF" d="M248.014,103.711c0.072,0.542-0.068,0.803-0.464,0.723
		C247.705,104.193,247.859,103.953,248.014,103.711z"/>
	<path fill-rule="evenodd" clip-rule="evenodd" fill="#FFFFFF" d="M248.094,150.144c0.012,0.272,0.022,0.544,0.034,0.817
		c-0.057-0.183-0.129-0.359-0.158-0.551C247.958,150.338,248.049,150.233,248.094,150.144z"/>
</g>
</svg>
