<?xml version="1.0" encoding="utf-8"?>
<!-- Generator: Adobe Illustrator 16.0.0, SVG Export Plug-In . SVG Version: 6.00 Build 0)  -->
<!DOCTYPE svg PUBLIC "-//W3C//DTD SVG 1.1//EN" "http://www.w3.org/Graphics/SVG/1.1/DTD/svg11.dtd">
<svg version="1.1" id="Layer_1" xmlns="http://www.w3.org/2000/svg" xmlns:xlink="http://www.w3.org/1999/xlink" x="0px" y="0px"
	 width="280px" height="280px" viewBox="0 0 280 280" enable-background="new 0 0 280 280" xml:space="preserve">
<rect y="-0.042" fill="#005193" width="280" height="280"/>
<polygon fill="#ED1D75" points="152.131,172.579 153.898,176.395 155.667,180.211 152.131,180.211 148.594,180.211 150.361,176.395 
	"/>
<g>
	<path fill-rule="evenodd" clip-rule="evenodd" fill="#FFFFFF" d="M261.835,155.615c-0.283,0.031-0.213,0.256-0.241,0.412
		c-2.073,11.885-9.602,19.266-21.554,22.947c-3.032,0.934-6.19,1.238-9.383,1.236c-13.705-0.006-27.41-0.002-41.114-0.002
		c-0.894,0-0.895-0.002-0.896-0.852c-0.001-7.27-0.001-14.539,0-21.811c0.001-0.836,0.002-0.838,0.906-0.838
		c9.56-0.006,19.119-0.006,28.678-0.027c1.676-0.004,3.325-0.252,4.938-0.699c4.971-1.383,7.284-5.602,5.587-10.209
		c-0.573-1.559-1.59-2.811-2.888-3.92c-2.503-2.137-4.947-4.334-7.407-6.516c-7.659-6.789-15.366-13.531-22.954-20.391
		c-5.023-4.542-7.229-10.202-6.801-16.744c0.676-10.352,8.568-17.844,19.145-19.827c1.957-0.367,3.933-0.509,5.927-0.508
		c14.127,0.005,28.255,0.003,42.383,0.003c0.928,0,0.93,0,0.93,0.875c0.001,3.277,0.001,6.555,0,9.832
		c0,0.881-0.002,0.881-0.911,0.881c-9.264,0-18.526-0.004-27.79,0.002c-4.516,0.003-8.271,2.875-9.117,7.031
		c-0.584,2.865,0.382,5.302,2.633,7.271c3.048,2.667,6.136,5.294,9.203,7.942c5.947,5.135,11.923,10.24,17.826,15.42
		c3.726,3.269,6.997,6.903,9.397,11.169c1.677,2.977,2.79,6.124,3.255,9.469c0.022,0.17-0.075,0.424,0.249,0.461
		C261.835,150.688,261.835,153.152,261.835,155.615z"/>
	<path fill-rule="evenodd" clip-rule="evenodd" fill="#FFFFFF" d="M18.166,96.972c0.25-0.017,0.211-0.215,0.235-0.356
		c1.696-9.747,7.943-15.511,17.898-18.011c2.259-0.567,4.577-0.738,6.914-0.737c14.193,0.006,28.386,0.003,42.578,0.003
		c0.862,0,0.864,0.002,0.864,0.816c0.001,3.317,0.001,6.635,0,9.953c0,0.817-0.002,0.819-0.85,0.819
		c-9.243,0-18.487-0.002-27.729,0.001c-4.919,0.002-8.744,3.087-9.361,7.659c-0.361,2.672,0.698,4.917,2.786,6.724
		c4.776,4.131,9.584,8.23,14.353,12.369c4.706,4.085,9.557,8.024,14.091,12.282c3.443,3.234,6.418,6.804,8.539,10.958
		c2.286,4.477,3.074,9.204,2.817,14.133c-0.474,9.117-4.872,16.184-12.736,21.375c-5.474,3.613-11.653,5.248-18.332,5.248
		c-13.791,0-27.582,0-41.373-0.002c-0.232,0-0.463-0.025-0.695-0.037c0-7.828,0-15.656,0-23.482c0.168,0.006,0.337,0.02,0.506,0.02
		c9.176,0.002,18.353,0,27.529,0.002c1.439,0,2.875-0.043,4.298-0.264c2.092-0.322,4.078-0.898,5.723-2.227
		c2.424-1.959,3.22-5.443,2.002-8.598c-0.663-1.719-1.937-2.969-3.331-4.195c-9.854-8.681-19.664-17.406-29.498-26.105
		c-3.833-3.39-6.147-7.52-6.982-12.393c-0.03-0.173,0.064-0.422-0.247-0.473C18.166,100.627,18.166,98.799,18.166,96.972z"/>
	<path fill-rule="evenodd" clip-rule="evenodd" fill="#FFFFFF" d="M161.03,121.613c0.973,0.368,1.891,0.666,2.765,1.052
		c10.821,4.774,17.259,12.704,18.688,23.851c1.323,10.322-2.266,19.168-10.45,26.213c-3.036,2.613-6.767,4.256-10.656,5.512
		c-3.871,1.252-7.854,1.852-11.956,1.848c-16.243-0.02-32.488-0.008-48.732-0.008c-0.253,0-0.507-0.01-0.761-0.004
		c-0.291,0.008-0.433-0.104-0.417-0.387c0.01-0.178,0-0.357,0-0.535c0-33.412-0.001-66.825,0.001-100.238
		c0-1.009-0.139-0.917,0.99-0.917c16.35,0.001,32.7-0.027,49.048,0.028c4.77,0.016,9.407,0.871,13.887,2.467
		c8.788,3.131,13.995,10.954,14.24,19.145c0.129,4.315-0.645,8.384-2.982,12.128c-3,4.807-7.365,8.006-13.04,9.627
		c-0.143,0.041-0.284,0.078-0.425,0.121C161.19,121.527,161.154,121.551,161.03,121.613z M125.697,142.947
		c0,4.289,0.009,8.576-0.012,12.865c-0.002,0.564,0.108,0.791,0.792,0.785c4.376-0.031,8.753-0.02,13.128-0.014
		c1.572,0.002,3.125-0.143,4.646-0.506c4.451-1.064,7.925-3.311,9.871-7.342c1.235-2.561,1.368-5.26,0.973-7.998
		c-0.643-4.431-3.007-7.73-7.363-9.67c-2.645-1.176-5.46-1.655-8.366-1.67c-4.292-0.021-8.583,0.009-12.875-0.021
		c-0.653-0.004-0.812,0.17-0.808,0.763C125.708,134.41,125.697,138.678,125.697,142.947z M125.697,101.575
		c0,3.734-0.001,7.469,0,11.204c0,0.797,0.003,0.8,0.822,0.8c3.638,0.001,7.276-0.002,10.915,0.001
		c1.76,0.001,3.508-0.108,5.223-0.515c3.895-0.924,6.964-2.842,8.583-6.431c0.945-2.1,1.114-4.307,0.805-6.552
		c-0.563-4.083-2.707-7.124-6.72-8.909c-2.014-0.896-4.153-1.374-6.367-1.465c-4.164-0.172-8.332-0.029-12.498-0.084
		c-0.624-0.008-0.779,0.185-0.776,0.747C125.708,94.105,125.697,97.84,125.697,101.575z"/>
</g>
</svg>
