<?xml version="1.0" encoding="UTF-8" standalone="no"?>
<!-- Generator: Adobe Illustrator 16.0.0, SVG Export Plug-In . SVG Version: 6.00 Build 0)  -->

<svg
   version="1.1"
   id="Layer_1"
   x="0px"
   y="0px"
   width="280px"
   height="280px"
   viewBox="0 0 280 280"
   enable-background="new 0 0 280 280"
   xml:space="preserve"
   sodipodi:docname="redetv.svg"
   inkscape:version="1.4 (e7c3feb100, 2024-10-09)"
   xmlns:inkscape="http://www.inkscape.org/namespaces/inkscape"
   xmlns:sodipodi="http://sodipodi.sourceforge.net/DTD/sodipodi-0.dtd"
   xmlns="http://www.w3.org/2000/svg"
   xmlns:svg="http://www.w3.org/2000/svg"><defs
   id="defs5011" /><sodipodi:namedview
   id="namedview5009"
   pagecolor="#ffffff"
   bordercolor="#000000"
   borderopacity="0.25"
   inkscape:showpageshadow="2"
   inkscape:pageopacity="0.0"
   inkscape:pagecheckerboard="0"
   inkscape:deskcolor="#d1d1d1"
   showgrid="false"
   inkscape:zoom="0.73839285"
   inkscape:cx="4.7400242"
   inkscape:cy="70.423217"
   inkscape:window-width="1600"
   inkscape:window-height="815"
   inkscape:window-x="0"
   inkscape:window-y="0"
   inkscape:window-maximized="1"
   inkscape:current-layer="Layer_1"
   inkscape:pageshadow="2"
   showguides="false" />
<rect
   y="0.023242312"
   fill-rule="evenodd"
   clip-rule="evenodd"
   fill="#164E86"
   width="280"
   height="280"
   id="rect4994-7"
   style="fill:#29b7eb;fill-opacity:1;stroke:none;stroke-width:0.999999;stroke-opacity:1"
   x="0" />

<path
   style="fill:#ffffff;stroke-width:0.186932"
   d="m 191.92032,205.36059 c -8.57559,-1.13868 -16.06005,-6.49308 -20.0013,-14.309 -2.95969,-5.86937 -3.40826,-13.46238 -1.17008,-19.80676 2.97208,-8.42472 10.18474,-14.49074 19.22204,-16.1662 1.68478,-0.31235 5.85654,-0.4329 7.28038,-0.21039 6.56392,1.02581 11.11201,3.21923 15.29583,7.37679 3.66783,3.64483 6.15675,8.26492 7.26317,13.48239 0.49923,2.3542 0.45641,7.66563 -0.0814,10.09433 -1.09029,4.92383 -3.27233,8.87914 -6.86695,12.44755 -3.02067,2.99863 -6.49117,5.05464 -10.55767,6.25459 -3.14535,0.92815 -7.22167,1.2566 -10.38405,0.8367 z m 15.89269,-55.13285 c -0.68785,-0.30573 -1.31112,-0.96401 -1.57692,-1.66555 -0.13588,-0.35861 -0.23843,-8.43615 -0.32039,-25.23581 -0.12669,-25.969034 -0.0736,-28.535798 0.68625,-33.191357 1.22222,-7.487971 4.53222,-13.414849 9.60253,-17.194143 2.19647,-1.637187 3.50417,-2.41388 6.32398,-3.756032 2.69137,-1.281013 5.0399,-2.060259 8.0053,-2.656153 3.00968,-0.604794 8.15721,-0.606141 10.96221,-0.0027 10.51765,2.26204 18.18438,9.877953 20.88158,20.74315 1.51527,6.104033 1.29806,10.098433 -0.84024,15.451425 -1.94125,4.85971 -5.67864,9.53345 -12.13195,15.17154 -4.27248,3.73274 -38.26571,32.00066 -38.83767,32.29643 -0.70391,0.364 -1.98312,0.38228 -2.75468,0.0394 z M 28.081875,149.18699 c -0.257944,-0.25796 -0.340643,-0.52679 -0.273106,-0.88793 0.05327,-0.28488 0.848112,-5.58273 1.766283,-11.77302 0.918189,-6.19028 1.788824,-11.54083 1.934762,-11.89012 0.317504,-0.75989 1.081029,-1.51638 2.028493,-2.00982 0.639926,-0.33329 1.122264,-0.3612 6.2399,-0.3612 7.21826,0 9.759227,0.35721 12.16562,1.71025 2.925763,1.64506 3.842348,4.85595 2.58807,9.06623 -0.556325,1.86751 -2.242734,3.91909 -4.14527,5.04294 -0.427604,0.25258 -0.825675,0.58492 -0.884617,0.73852 -0.05896,0.15361 0.731034,2.37626 1.755535,4.93923 1.024479,2.56296 1.814698,4.78505 1.756017,4.93797 -0.225736,0.58824 -1.385446,0.75513 -5.276804,0.75934 -3.643004,0.004 -3.814497,-0.0123 -4.120991,-0.38997 -0.175903,-0.21676 -0.979001,-2.23562 -1.784657,-4.48638 -0.805657,-2.25075 -1.548169,-4.19742 -1.650048,-4.32594 -0.101857,-0.12851 -0.533879,-0.23366 -0.960027,-0.23366 h -0.774792 l -0.514609,3.407 c -0.584442,3.86941 -0.903571,4.73903 -1.955794,5.32942 -0.798516,0.44804 -3.39438,0.79711 -5.927702,0.79711 -1.341441,0 -1.655354,-0.0591 -1.966263,-0.36997 z M 43.36567,133.93822 c 1.05151,-0.43924 1.70353,-1.17368 2.025633,-2.28169 0.380107,-1.30752 0.208448,-2.3093 -0.520681,-3.03842 l -0.558326,-0.55832 h -2.493898 c -1.371649,0 -2.648004,-0.0582 -2.836334,-0.12937 -0.212637,-0.0803 -0.112159,0.10224 0.265106,0.48171 0.696637,0.70071 0.730791,1.01612 0.388427,3.58759 -0.284417,2.13618 -0.215835,2.22882 1.649989,2.22882 0.82927,0 1.663994,-0.1165 2.080084,-0.29032 z m 67.63609,15.33111 c -0.17523,-0.17523 -0.25325,-0.4857 -0.19965,-0.79446 0.20373,-1.17354 1.76159,-11.54298 2.89788,-19.28879 0.37251,-2.53933 0.71778,-4.26698 0.93968,-4.70195 0.44065,-0.86373 1.47633,-1.72811 2.40337,-2.00586 0.48796,-0.1462 3.36693,-0.21337 9.14435,-0.21337 h 8.43218 l 0.27321,0.52833 c 0.24037,0.46481 0.23848,0.77384 -0.0157,2.57031 -0.1589,1.12309 -0.4078,2.23125 -0.55312,2.46258 l -0.2642,0.4206 h -6.35137 c -3.49326,0 -6.35138,0.0395 -6.35138,0.0878 0,0.0483 -0.13107,0.97 -0.29125,2.04825 -0.43682,2.94028 -0.8073,2.72417 4.67002,2.72417 4.05877,0 4.59592,0.0355 4.95249,0.32713 l 0.39994,0.32712 -0.31229,2.05626 c -0.17461,1.14973 -0.43699,2.20047 -0.59514,2.38338 -0.25623,0.29634 -0.75322,0.32713 -5.28077,0.32713 h -4.99793 l -0.0985,0.4206 c -0.33616,1.4357 -0.56101,3.93178 -0.38005,4.21894 0.17686,0.28064 0.86387,0.3248 6.44001,0.41395 3.43312,0.0549 6.25406,0.11797 6.26877,0.1402 0.1942,0.29352 0.17022,0.89113 -0.1096,2.73176 -0.26437,1.73897 -0.41964,2.27568 -0.76455,2.64283 l -0.43282,0.46071 h -9.76798 c -8.54258,0 -9.80408,-0.0361 -10.05562,-0.28763 z M 56.21481,149.0665 c -0.194146,-0.19415 -0.267538,-0.48044 -0.203664,-0.79446 0.0549,-0.27002 0.816369,-5.36986 1.692129,-11.33299 0.875757,-5.96313 1.687769,-11.25393 1.804451,-11.75734 0.254619,-1.09843 1.232034,-2.26338 2.311468,-2.75499 0.688381,-0.31351 1.430348,-0.34079 9.346597,-0.34361 8.526674,-0.003 9.708046,0.0711 10.178965,0.63848 0.295241,0.35574 -0.287368,4.54333 -0.697183,5.01107 -0.2623,0.29939 -0.82003,0.32713 -6.578916,0.32713 h -6.292314 l -0.302548,2.00952 c -0.459334,3.05088 -0.796706,2.8507 4.804538,2.8507 3.898187,0 4.604937,0.0428 4.855931,0.29375 0.359508,0.35953 0.359675,0.27161 -0.0045,2.58139 -0.167695,1.06376 -0.42581,2.0348 -0.589767,2.21876 -0.263912,0.29612 -0.765097,0.32713 -5.286304,0.32713 h -4.99473 l -0.303854,1.95092 c -0.373004,2.39492 -0.373157,2.43943 -0.01009,2.80249 0.254953,0.25496 1.093475,0.29375 6.349103,0.29375 5.821265,0 6.062929,0.0141 6.2513,0.36611 0.228169,0.42633 -0.36876,4.75487 -0.70161,5.08773 -0.433063,0.43306 -2.190504,0.51201 -11.571664,0.51985 -8.758018,0.007 -9.784817,-0.0228 -10.057364,-0.29539 z m 25.908053,0.0491 c -0.193813,-0.23352 -0.06571,-1.45519 0.702448,-6.69841 0.516721,-3.52704 1.285513,-8.81019 1.708409,-11.74035 0.902675,-6.2543 1.149781,-6.98193 2.69586,-7.93838 l 0.916599,-0.56702 5.06236,-0.0575 c 5.745219,-0.0653 7.766251,0.1564 10.198041,1.11862 2.97227,1.1761 4.55514,3.0948 5.05595,6.12868 0.35629,2.15842 -0.23246,7.35832 -1.23296,10.88955 -1.38053,4.87254 -4.3285,7.50679 -9.70638,8.6734 -2.159999,0.46857 -15.037495,0.62864 -15.400327,0.19144 z m 14.763393,-6.16222 c 1.016911,-0.53673 1.941028,-1.71443 2.303766,-2.93591 0.550645,-1.85418 1.107728,-5.7016 1.122418,-7.7517 0.013,-1.80896 -0.0347,-2.1358 -0.396636,-2.71764 -0.226241,-0.36376 -0.742417,-0.84744 -1.147052,-1.07486 -0.681367,-0.38295 -0.968379,-0.41254 -3.88807,-0.40082 -2.364334,0.01 -3.049701,0.0623 -2.741599,0.21111 0.225908,0.10916 0.53642,0.46328 0.69002,0.78695 0.258791,0.54535 0.211701,1.03353 -0.64224,6.65864 -1.034835,6.81676 -1.064484,7.1859 -0.598763,7.45716 0.179925,0.10479 1.260238,0.19309 2.400713,0.19622 1.816324,0.005 2.175792,-0.0483 2.897443,-0.42915 z m 46.481984,6.02782 c -0.18586,-0.10825 -0.32543,-0.40854 -0.3232,-0.69531 0.002,-0.27763 0.62531,-4.66869 1.38477,-9.75791 1.23366,-8.26695 1.35232,-9.29795 1.11334,-9.67373 -0.2602,-0.40915 -0.35382,-0.42059 -3.44101,-0.42059 -2.9441,0 -3.20108,-0.0275 -3.55453,-0.381 -0.39993,-0.39992 -0.39907,-0.51867 0.0193,-2.66599 0.31073,-1.59481 1.11579,-2.64436 2.45867,-3.20531 1.004,-0.4194 20.53838,-0.4404 20.88525,-0.0224 0.17307,0.20852 0.13998,0.83185 -0.14937,2.81387 -0.20442,1.40031 -0.46913,2.66344 -0.58824,2.80695 -0.47408,0.57122 -1.48704,0.70113 -4.61324,0.59161 -2.30462,-0.0807 -3.09006,-0.0515 -3.15363,0.1176 -0.0466,0.12381 -0.74606,4.67764 -1.55443,10.1196 -1.35213,9.10262 -1.50336,9.9217 -1.88969,10.23452 -0.36676,0.29699 -0.79007,0.33932 -3.3434,0.33436 -1.63599,-0.003 -3.06753,-0.0896 -3.2506,-0.19622 z m 27.18173,-0.0471 c -0.3434,-0.12737 -0.70952,-0.38372 -0.81359,-0.56968 -0.20114,-0.3594 -4.25797,-24.34856 -4.26141,-25.19887 -0.002,-0.34142 0.17114,-0.62464 0.54089,-0.88792 0.49429,-0.35197 0.80984,-0.3866 3.52273,-0.3866 2.60129,0 3.01716,0.0415 3.27383,0.32714 0.20787,0.23127 0.66769,2.77605 1.56926,8.68489 0.70137,4.59677 1.33277,8.29802 1.40311,8.22501 0.0703,-0.073 1.74677,-3.70784 3.7254,-8.07737 1.97862,-4.36954 3.71797,-8.08681 3.86521,-8.26061 0.55248,-0.65211 1.84679,-0.89906 4.7122,-0.89906 2.72319,0 3.18194,0.0984 3.18194,0.68247 0,0.1907 -7.2456,15.90166 -10.9787,23.80561 -1.34522,2.84817 -1.05796,2.70313 -5.44372,2.74854 -2.54598,0.0264 -3.86431,-0.033 -4.29715,-0.19355 z"
   id="path21580" /></svg>
