<?xml version="1.0" encoding="UTF-8" standalone="no"?>
<!-- Generator: Adobe Illustrator 16.0.0, SVG Export Plug-In . SVG Version: 6.00 Build 0)  -->

<svg
   version="1.1"
   id="Layer_1"
   x="0px"
   y="0px"
   width="280px"
   height="280px"
   viewBox="0 0 280 280"
   enable-background="new 0 0 280 280"
   xml:space="preserve"
   sodipodi:docname="rtp3.svg"
   inkscape:version="1.4 (e7c3feb100, 2024-10-09)"
   xmlns:inkscape="http://www.inkscape.org/namespaces/inkscape"
   xmlns:sodipodi="http://sodipodi.sourceforge.net/DTD/sodipodi-0.dtd"
   xmlns="http://www.w3.org/2000/svg"
   xmlns:svg="http://www.w3.org/2000/svg"><defs
   id="defs216276">
	
	
	
</defs><sodipodi:namedview
   id="namedview216274"
   pagecolor="#ffffff"
   bordercolor="#666666"
   borderopacity="1.0"
   inkscape:pageshadow="2"
   inkscape:pageopacity="0.0"
   inkscape:pagecheckerboard="0"
   showgrid="false"
   inkscape:zoom="2.1011173"
   inkscape:cx="97.805106"
   inkscape:cy="148.01649"
   inkscape:window-width="1600"
   inkscape:window-height="815"
   inkscape:window-x="0"
   inkscape:window-y="0"
   inkscape:window-maximized="1"
   inkscape:current-layer="layer2"
   inkscape:showpageshadow="2"
   inkscape:deskcolor="#d1d1d1" />
<g
   inkscape:groupmode="layer"
   id="layer2"
   inkscape:label="BG"><rect
     y="0"
     fill-rule="evenodd"
     clip-rule="evenodd"
     fill="#164E86"
     width="280"
     height="280"
     id="rect4994-7"
     style="fill:#29b7eb;fill-opacity:1;stroke:none;stroke-width:0.999999;stroke-opacity:1"
     x="0" /><path
     style="fill:#ffffff;stroke-width:0.126735"
     d="m 22.884311,166.49396 c -0.760217,-0.35401 -1.603291,-1.26527 -1.810526,-1.95696 -0.524572,-1.75086 0.367132,-3.63137 2.017676,-4.25506 0.516405,-0.19514 3.156591,-0.20831 35.34695,-0.17634 l 34.788862,0.0345 0.506941,0.27405 c 1.480504,0.80035 2.175594,2.49743 1.68862,4.1228 -0.207235,0.69169 -1.050309,1.60295 -1.810526,1.95695 l -0.638506,0.29733 H 58.248308 23.522817 Z m 229.839439,-9.53949 c -2.2807,-0.43457 -3.87041,-1.24005 -5.32914,-2.7002 -1.44978,-1.45117 -2.29247,-3.11442 -2.58078,-5.09379 -0.14239,-0.9776 -0.089,-0.99682 2.77068,-0.99682 1.80522,0 2.48006,0.0415 2.57371,0.15842 0.0698,0.0871 0.21902,0.47957 0.33153,0.8721 0.40577,1.41563 1.53437,2.53825 2.93105,2.9155 0.86628,0.234 2.56117,0.0792 3.30317,-0.30176 1.3632,-0.69985 2.01961,-1.85903 1.93362,-3.41469 -0.0839,-1.51823 -0.74513,-2.4916 -2.12014,-3.1211 -0.58395,-0.26734 -0.95062,-0.33341 -2.1021,-0.37876 -0.76711,-0.0302 -1.46605,-0.11217 -1.55318,-0.18213 -0.219,-0.17585 -0.22472,-3.90796 -0.006,-4.12636 0.0929,-0.0929 0.54592,-0.15208 1.16398,-0.15208 1.8383,0 3.10744,-0.56252 3.80133,-1.68488 0.29745,-0.4811 0.3825,-0.78656 0.43147,-1.54962 0.0564,-0.87867 0.03,-1.01332 -0.34951,-1.78424 -0.66109,-1.34287 -1.76781,-1.90069 -3.56627,-1.79751 -1.6176,0.0928 -2.81534,0.97704 -3.34272,2.46777 -0.47222,1.33477 -0.0937,1.19001 -3.00974,1.15104 l -2.56791,-0.0343 -0.0419,-0.36755 c -0.052,-0.45594 0.15044,-1.28164 0.57799,-2.35726 0.8267,-2.0797 2.40527,-3.79192 4.36963,-4.73953 1.44996,-0.69947 2.69322,-0.96356 4.5361,-0.96356 2.97656,0 5.28981,0.88942 6.86241,2.63852 2.03779,2.26652 2.48579,6.03492 1.04368,8.77925 -0.42175,0.8026 -1.3281,1.8039 -2.05912,2.27484 l -0.29971,0.19307 0.72087,0.47863 c 2.52317,1.67529 3.50725,4.57067 2.66205,7.83236 -0.70031,2.70259 -2.87082,4.84589 -5.76386,5.69159 -0.76321,0.2231 -1.34448,0.28469 -2.97621,0.31534 -1.11527,0.0209 -2.17035,0.0109 -2.34461,-0.0223 z M 116.48321,142.90414 v -13.75079 l 13.1488,0.001 c 8.3592,6.4e-4 13.44886,0.0483 13.97257,0.13093 4.00716,0.63222 7.26379,3.4253 8.49075,7.28214 0.42634,1.34018 0.49428,3.69788 0.14827,5.14505 -0.57922,2.42249 -1.9534,4.51125 -3.86901,5.88093 -0.38996,0.27881 -0.71024,0.55737 -0.71174,0.619 -0.002,0.0616 1.06014,1.94366 2.35922,4.18227 1.29908,2.23861 2.38602,4.11297 2.41545,4.16525 0.0294,0.0523 -1.61802,0.0942 -3.66099,0.0933 l -3.71449,-0.002 -2.01414,-3.42007 -2.01416,-3.42007 h -8.8534 -8.85342 v 3.42185 3.42186 h -3.42185 -3.42186 z m 26.75992,0.29809 c 3.31202,-1.55279 3.23971,-5.98852 -0.1233,-7.56504 l -0.71923,-0.33717 -9.53684,-0.0362 -9.53684,-0.0362 v 4.1899 4.1899 l 9.60021,-0.0348 9.6002,-0.0348 z m 28.08554,2.77525 -0.0324,-10.67746 -6.81202,-0.0328 -6.81203,-0.0328 v -3.04055 -3.04055 h 17.04591 17.04592 v 3.04165 3.04165 h -6.78034 -6.78036 v 10.70914 10.70914 h -3.42113 -3.42114 z m 26.39193,-3.07724 v -13.75469 l 13.27553,0.036 13.27553,0.036 1.11622,0.34963 c 1.96564,0.61568 3.28955,1.42029 4.67028,2.83836 5.55586,5.70614 2.71444,15.1479 -5.12419,17.02716 -0.99059,0.23749 -1.52701,0.24998 -10.76945,0.25082 l -9.72694,8.9e-4 v 3.48522 3.48523 h -3.35849 -3.35849 z m 25.88154,0.36139 c 0.89616,-0.41401 1.78391,-1.3122 2.1889,-2.21467 0.31085,-0.69264 0.34217,-0.88632 0.29177,-1.80399 -0.0827,-1.50636 -0.73489,-2.61097 -1.96826,-3.33378 -1.12091,-0.65689 -1.30728,-0.66842 -10.83718,-0.67056 l -8.83979,-0.002 v 4.18544 4.18545 l 9.28336,-0.0349 c 9.23433,-0.0347 9.28652,-0.0363 9.8812,-0.31105 z M 12.58539,156.20017 c -2.7694344,-1.38007 -2.378354,-5.43453 0.604119,-6.26309 0.631831,-0.17553 89.503461,-0.1706 90.135701,0.005 0.78299,0.21748 1.63402,0.88708 2.03062,1.59773 0.95826,1.71709 0.31822,3.78192 -1.4446,4.66037 l -0.65826,0.32802 H 58.248308 13.243651 Z m 0.585751,-9.98715 c -0.326178,-0.0881 -0.795037,-0.3142 -1.041908,-0.5025 -1.757861,-1.34078 -1.937934,-3.57857 -0.410848,-5.10566 1.172237,-1.17223 -3.7929664,-1.05921 46.529923,-1.05921 49.771332,0 45.311952,-0.0885 46.407862,0.92162 0.68668,0.63296 1.01272,1.23697 1.12513,2.08432 0.18311,1.38036 -0.63007,2.83261 -1.95027,3.48295 l -0.59166,0.29146 -44.737591,0.0236 c -35.708127,0.0188 -44.857283,-0.009 -45.330638,-0.13656 z m -0.277937,-10.40166 c -0.718353,-0.2566 -1.331378,-0.80557 -1.773566,-1.58826 -0.333692,-0.59064 -0.389864,-0.8191 -0.388743,-1.58104 0.0011,-0.7459 0.06231,-1.00265 0.376686,-1.57998 0.384787,-0.70664 1.112195,-1.33348 1.872872,-1.61393 0.579558,-0.21368 89.835717,-0.23462 90.461787,-0.0212 2.79592,0.95297 3.20335,4.56985 0.68984,6.12385 l -0.61935,0.38292 -45.064375,0.0265 c -38.095344,0.0224 -45.140267,-6.3e-4 -45.555151,-0.14882 z m 9.991107,-10.37966 c -2.044735,-0.95216 -2.619314,-3.56973 -1.149994,-5.23896 0.281612,-0.31993 0.798448,-0.71471 1.149994,-0.87841 l 0.638506,-0.29733 34.725491,0.002 c 34.649414,0.001 34.726744,0.002 35.295803,0.2594 1.248315,0.56441 2.02529,1.75179 2.02529,3.09507 0,1.34327 -0.776975,2.53065 -2.02529,3.09506 -0.569059,0.25729 -0.646389,0.25786 -35.295803,0.2594 l -34.725491,0.002 -0.638506,-0.29733 z"
     id="path2104" /></g>
<g
   inkscape:groupmode="layer"
   id="layer1"
   inkscape:label="Logo" /></svg>
