<?xml version="1.0" encoding="UTF-8" standalone="no"?>
<!-- Generator: Adobe Illustrator 16.0.0, SVG Export Plug-In . SVG Version: 6.00 Build 0)  -->

<svg
   version="1.1"
   id="Layer_1"
   x="0px"
   y="0px"
   width="280px"
   height="280px"
   viewBox="0 0 280 280"
   enable-background="new 0 0 280 280"
   xml:space="preserve"
   sodipodi:docname="sbt.svg"
   inkscape:version="1.4 (e7c3feb100, 2024-10-09)"
   xmlns:inkscape="http://www.inkscape.org/namespaces/inkscape"
   xmlns:sodipodi="http://sodipodi.sourceforge.net/DTD/sodipodi-0.dtd"
   xmlns="http://www.w3.org/2000/svg"
   xmlns:svg="http://www.w3.org/2000/svg"><defs
   id="defs5011" /><sodipodi:namedview
   id="namedview5009"
   pagecolor="#ffffff"
   bordercolor="#000000"
   borderopacity="0.25"
   inkscape:showpageshadow="2"
   inkscape:pageopacity="0.0"
   inkscape:pagecheckerboard="0"
   inkscape:deskcolor="#d1d1d1"
   showgrid="false"
   inkscape:zoom="0.5221226"
   inkscape:cx="-79.483248"
   inkscape:cy="279.62781"
   inkscape:window-width="1600"
   inkscape:window-height="815"
   inkscape:window-x="0"
   inkscape:window-y="0"
   inkscape:window-maximized="1"
   inkscape:current-layer="Layer_1"
   inkscape:pageshadow="2"
   showguides="false" />
<rect
   y="0.023242312"
   fill-rule="evenodd"
   clip-rule="evenodd"
   fill="#164E86"
   width="280"
   height="280"
   id="rect4994-7"
   style="fill:#ef5ca0;fill-opacity:1;stroke:none;stroke-width:0.999999;stroke-opacity:1"
   x="0" />

<path
   style="fill:#ffffff;stroke-width:0.216023"
   d="m 136.03667,250.98009 c -31.2162,-2.53274 -58.725427,-18.09247 -77.947097,-44.0883 -6.99039,-9.45397 -13.33861,-22.06097 -16.90444,-33.57075 -5.99315,-19.34464 -6.99262,-39.45066 -2.95361,-59.41707 8.13116,-40.195528 36.90724,-73.023405 74.323617,-84.7887 14.52777,-4.56815 29.60824,-5.893013 44.5412,-3.913075 32.12589,4.259525 60.68052,23.493657 77.96743,52.518147 4.5789,7.687909 8.28453,15.996278 10.86475,24.359808 1.53578,4.97806 1.81653,5.99559 2.53727,9.19595 5.28038,23.44663 3.45971,47.76023 -5.24344,70.02215 -1.42899,3.65523 -4.79765,10.75547 -6.68569,14.09163 -10.61063,18.74903 -25.82887,33.78344 -44.01591,43.48426 -5.25237,2.80156 -9.15766,4.53252 -14.36345,6.36637 -8.25883,2.90933 -14.67181,4.37977 -23.69342,5.43268 -3.49146,0.40748 -14.85498,0.59674 -18.42721,0.3069 z M 78.754373,183.16643 c 13.54967,-1.31704 22.699387,-9.60432 24.441037,-22.13726 0.35123,-2.52742 0.1444,-7.56755 -0.40491,-9.86703 -1.50532,-6.30154 -5.290137,-11.30722 -10.712417,-14.16793 -2.53307,-1.3364 -5.11766,-2.29245 -10.88072,-4.0248 -6.69501,-2.0125 -8.13612,-2.54366 -9.51708,-3.50776 -1.31263,-0.91639 -1.77168,-1.84912 -1.76891,-3.59416 0.008,-5.03958 5.46657,-7.74086 13.4119,-6.63713 3.55615,0.49401 7.13978,1.46535 11.75234,3.18548 2.35394,0.87783 3.11779,0.96425 3.64283,0.41213 0.32278,-0.33943 0.36448,-1.21315 0.41834,-8.76632 0.0521,-7.29951 0.0179,-8.43345 -0.26311,-8.7291 -0.46924,-0.49373 -2.3542,-1.19082 -5.56818,-2.0592 -9.47435,-2.55985 -18.4225,-2.57461 -25.27961,-0.0417 -6.78436,2.50605 -12.22256,7.65268 -14.54149,13.76185 -1.5198,4.00386 -2.10367,8.17828 -1.71219,12.24133 1.04917,10.88882 7.26459,16.94141 21.92785,21.35334 7.68948,2.31364 10.40541,3.62795 11.173,5.40691 0.44898,1.04054 0.53728,3.0956 0.18962,4.41278 -0.54694,2.07216 -2.75222,3.83578 -5.64718,4.51622 -1.23165,0.28948 -2.27014,0.3412 -5.05432,0.2517 -5.24292,-0.16854 -8.95898,-1.06925 -16.28651,-3.94756 -4.13046,-1.62248 -4.71914,-1.66783 -5.33677,-0.41113 -0.46927,0.95483 -0.45597,16.72577 0.0147,17.43282 0.23555,0.35386 1.35982,0.84008 4.15929,1.79883 8.32772,2.85204 14.90982,3.79153 21.84249,3.11767 z M 155.74844,182.734 c 9.24737,-1.54669 17.93694,-6.87077 23.86035,-14.61919 7.41254,-9.69634 10.20348,-22.00824 7.68166,-33.88682 -1.83525,-8.6446 -6.48682,-16.76378 -12.79674,-22.3363 -3.56611,-3.14937 -8.71105,-6.25113 -12.55365,-7.5683 -9.11301,-3.12377 -18.4623,-2.41514 -26.87097,2.03666 -1.26317,0.66877 -2.86528,1.6241 -3.56025,2.12297 l -1.26358,0.90703 -0.1053,-24.144062 c -0.0994,-22.798395 -0.12626,-24.166114 -0.48136,-24.53972 -0.34876,-0.366929 -1.00195,-0.395658 -8.99549,-0.395658 -7.99371,0 -8.64672,0.02872 -8.99549,0.395678 -0.35754,0.376192 -0.37912,2.231411 -0.43806,37.670145 -0.0625,37.570527 0.0589,46.671207 0.68331,51.244627 0.87487,6.40753 2.39359,10.99324 5.07797,15.33275 3.75055,6.06306 9.15462,11.02853 15.46569,14.21047 4.74301,2.39136 8.79806,3.52945 14.63646,4.10785 1.63896,0.16237 6.14063,-0.11751 8.65545,-0.53813 z m -9.59037,-18.84976 c -2.69337,-0.36674 -5.62444,-1.52753 -7.84169,-3.10553 -4.56069,-3.24581 -7.64348,-8.30341 -8.71527,-14.29822 -0.47768,-2.67174 -0.32545,-7.25923 0.31843,-9.59594 2.76916,-10.04971 11.49953,-16.21269 21.35356,-15.074 4.82364,0.55741 8.69712,2.40879 12.00667,5.73875 2.61418,2.63031 4.37879,5.80823 5.42141,9.76352 0.42879,1.62667 0.4967,2.38208 0.49797,5.53973 0.002,4.11141 -0.3449,5.98351 -1.66356,8.98655 -3.67739,8.37468 -12.36877,13.27183 -21.37752,12.04514 z m 88.03567,18.6636 c 0.38038,-0.49477 0.40218,-0.98889 0.40218,-9.116 0,-8.05537 -0.0246,-8.6248 -0.39277,-9.10324 -0.35952,-0.46717 -0.62236,-0.52376 -3.1063,-0.66884 -7.07726,-0.41337 -9.97213,-2.44566 -11.3871,-7.9941 -0.31753,-1.24508 -0.36572,-3.24757 -0.43233,-17.96506 l -0.075,-16.56379 h 7.27553 c 6.99474,0 7.29179,-0.0171 7.69673,-0.44317 0.40686,-0.4281 0.4212,-0.73863 0.4212,-9.12627 0,-8.61016 -0.004,-8.6874 -0.45791,-9.19595 l -0.4579,-0.51286 h -7.22888 -7.22887 V 90.144225 c 0,-11.515552 -0.007,-11.724245 -0.43648,-12.298194 l -0.43648,-0.583856 h -8.60389 -8.6039 l -0.43648,0.583856 c -0.42907,0.573949 -0.43647,0.782642 -0.43647,12.298194 v 11.714335 h -5.79141 c -5.51062,0 -5.81183,0.0215 -6.2126,0.44318 -0.40698,0.42822 -0.4212,0.73863 -0.4212,9.19595 0,8.45732 0.0142,8.76773 0.4212,9.19595 0.40077,0.42169 0.70198,0.44317 6.2126,0.44317 h 5.79141 l 0.002,15.01267 c 0.001,8.25696 0.0972,16.40867 0.21384,18.1149 0.63365,9.2727 2.87656,15.18645 7.65395,20.18071 2.25717,2.35963 3.94509,3.65621 6.57067,5.04727 4.67718,2.47803 10.38525,3.70523 16.79967,3.61184 2.12606,-0.031 2.31056,-0.0692 2.6851,-0.55636 z"
   id="path962" /></svg>
