<?xml version="1.0" encoding="UTF-8" standalone="no"?>
<!-- Generator: Adobe Illustrator 16.0.0, SVG Export Plug-In . SVG Version: 6.00 Build 0)  -->

<svg
   version="1.1"
   id="Layer_1"
   x="0px"
   y="0px"
   width="280px"
   height="280px"
   viewBox="0 0 280 280"
   enable-background="new 0 0 280 280"
   xml:space="preserve"
   sodipodi:docname="tbs.svg"
   inkscape:version="1.4 (e7c3feb100, 2024-10-09)"
   xmlns:inkscape="http://www.inkscape.org/namespaces/inkscape"
   xmlns:sodipodi="http://sodipodi.sourceforge.net/DTD/sodipodi-0.dtd"
   xmlns="http://www.w3.org/2000/svg"
   xmlns:svg="http://www.w3.org/2000/svg"><defs
   id="defs5011" /><sodipodi:namedview
   id="namedview5009"
   pagecolor="#ffffff"
   bordercolor="#000000"
   borderopacity="0.25"
   inkscape:showpageshadow="2"
   inkscape:pageopacity="0.0"
   inkscape:pagecheckerboard="0"
   inkscape:deskcolor="#d1d1d1"
   showgrid="false"
   inkscape:zoom="0.73839285"
   inkscape:cx="41.305925"
   inkscape:cy="357.53326"
   inkscape:window-width="1600"
   inkscape:window-height="815"
   inkscape:window-x="0"
   inkscape:window-y="0"
   inkscape:window-maximized="1"
   inkscape:current-layer="Layer_1"
   inkscape:pageshadow="2"
   showguides="false" />
<rect
   y="0"
   fill-rule="evenodd"
   clip-rule="evenodd"
   fill="#164E86"
   width="280"
   height="280"
   id="rect4994-7"
   style="fill:#7749f5;fill-opacity:1;stroke:none;stroke-width:0.999999;stroke-opacity:1"
   x="0" />

<path
   style="fill:#ffffff;stroke-width:0.0971674"
   d="M 31.54711,190.89978 13.349451,172.21924 V 123.0201 73.820967 H 119.49115 225.63286 l 16.61523,17.05617 16.61524,17.056173 v 50.82351 50.82351 H 154.30405 49.744774 Z m 103.9359,1.20287 c 15.80659,-1.8465 28.80384,-13.44902 32.75015,-29.23575 0.93575,-3.74334 1.28766,-7.31187 1.13588,-11.51838 -0.31567,-8.74883 -3.70084,-17.38241 -9.43788,-24.07046 -6.42915,-7.49488 -15.0525,-12.06645 -24.8158,-13.15582 -1.94494,-0.217 -5.74191,-0.21684 -7.68827,0 -5.32404,0.59407 -10.41396,2.23444 -14.74189,4.75099 -0.40696,0.23664 -0.763,0.43025 -0.79121,0.43025 -0.0282,3e-5 -0.0513,-5.84777 -0.0513,-12.99507 V 93.313314 H 99.375211 86.907709 v 48.288596 48.28859 h 10.980989 10.980992 v -2.46119 c 0,-1.35366 0.0216,-2.4612 0.048,-2.4612 0.0264,0 0.44718,0.28183 0.93507,0.62629 1.7629,1.24465 4.2725,2.65936 6.35358,3.58164 3.73575,1.65557 7.90281,2.6985 12.27569,3.07237 1.45966,0.12479 5.38307,0.0429 7.00099,-0.14606 z m -5.82433,-25.4433 c -4.28681,-0.55801 -8.16009,-3.30255 -10.12502,-7.17444 -1.06659,-2.10172 -1.49557,-3.91094 -1.49733,-6.3151 -0.001,-1.75335 0.13097,-2.69731 0.58438,-4.17068 1.46492,-4.76031 5.56194,-8.41582 10.38879,-9.26926 1.20245,-0.21261 3.22951,-0.21056 4.46424,0.005 4.06712,0.70841 7.58464,3.34713 9.53725,7.15454 1.59879,3.11748 1.90716,7.08842 0.81384,10.47982 -1.52834,4.74075 -5.34491,8.18672 -10.12313,9.14015 -0.949,0.18936 -3.12275,0.27026 -4.04302,0.15047 z M 70.891969,144.30952 h 9.494279 v -13.33967 -13.33966 h -9.494484 -9.49448 V 105.4719 93.313608 H 48.402311 35.407338 v 34.973412 34.9734 l 12.970994,13.31532 12.970999,13.31533 0.02418,-22.79078 0.02418,-22.79077 z m 140.707101,45.47899 c 10.44118,-0.72644 18.63753,-4.39414 23.41073,-10.47582 2.57946,-3.28656 4.12382,-7.14317 4.62633,-11.55297 0.16303,-1.4307 0.18637,-4.47382 0.0443,-5.77884 -0.77575,-7.12654 -4.76948,-12.34449 -12.20318,-15.94387 -4.57948,-2.21738 -9.67653,-3.7385 -18.34008,-5.47325 -5.36111,-1.0735 -7.80414,-1.87517 -8.9959,-2.95202 -0.66127,-0.59752 -0.85949,-1.05289 -0.85949,-1.97458 0,-1.49373 0.75099,-2.30772 2.68907,-2.9147 0.51026,-0.1598 1.69789,-0.17558 16.84594,-0.2239 l 16.29698,-0.052 -6.75142,-6.98979 c -3.71329,-3.84438 -7.9828,-8.26591 -9.48781,-9.82563 l -2.73639,-2.83585 -8.7752,0.0425 c -8.71882,0.0422 -9.2759,0.0619 -11.74822,0.41605 -5.96913,0.85493 -11.13948,2.90282 -15.10437,5.98256 -1.07003,0.83115 -2.9316,2.65599 -3.80311,3.72807 -2.1078,2.59288 -3.75832,6.08073 -4.48713,9.48209 -0.34949,1.63105 -0.45535,2.64071 -0.50578,4.82393 -0.0414,1.79062 -0.0186,2.53635 0.109,3.56474 0.5704,4.59826 2.34201,8.10947 5.66411,11.22589 4.37888,4.10776 11.2805,6.99677 22.63476,9.47487 6.13486,1.33896 7.54301,1.70093 9.18448,2.36094 2.29684,0.92354 3.0677,1.90237 2.8421,3.60888 -0.17436,1.31896 -1.26169,2.12667 -3.44319,2.55774 -0.8595,0.16984 -1.96156,0.18186 -19.4642,0.2123 l -18.55311,0.0323 9.53797,9.79134 9.53797,9.79133 h 10.18234 c 6.03565,0 10.78104,-0.0417 11.65249,-0.10229 z"
   id="path988" /></svg>
