<?xml version="1.0" encoding="UTF-8" standalone="no"?>
<!-- Generator: Adobe Illustrator 16.0.0, SVG Export Plug-In . SVG Version: 6.00 Build 0)  -->

<svg
   version="1.1"
   id="Layer_1"
   x="0px"
   y="0px"
   width="280px"
   height="280px"
   viewBox="0 0 280 280"
   enable-background="new 0 0 280 280"
   xml:space="preserve"
   sodipodi:docname="tnt.svg"
   inkscape:version="1.4 (e7c3feb100, 2024-10-09)"
   xmlns:inkscape="http://www.inkscape.org/namespaces/inkscape"
   xmlns:sodipodi="http://sodipodi.sourceforge.net/DTD/sodipodi-0.dtd"
   xmlns="http://www.w3.org/2000/svg"
   xmlns:svg="http://www.w3.org/2000/svg"><defs
   id="defs216276">
	
	
	
</defs><sodipodi:namedview
   id="namedview216274"
   pagecolor="#ffffff"
   bordercolor="#666666"
   borderopacity="1.0"
   inkscape:pageshadow="2"
   inkscape:pageopacity="0.0"
   inkscape:pagecheckerboard="0"
   showgrid="false"
   inkscape:zoom="0.74285714"
   inkscape:cx="240.28846"
   inkscape:cy="193.84615"
   inkscape:window-width="1600"
   inkscape:window-height="815"
   inkscape:window-x="0"
   inkscape:window-y="0"
   inkscape:window-maximized="1"
   inkscape:current-layer="layer2"
   inkscape:showpageshadow="2"
   inkscape:deskcolor="#d1d1d1" />
<g
   inkscape:groupmode="layer"
   id="layer2"
   inkscape:label="BG"><rect
     y="0"
     fill-rule="evenodd"
     clip-rule="evenodd"
     fill="#164E86"
     width="280"
     height="280"
     id="rect4994-7"
     style="fill:#2b2b2b;fill-opacity:1;stroke:none;stroke-width:0.999999;stroke-opacity:1"
     x="0" /></g>
<g
   inkscape:groupmode="layer"
   id="layer1"
   inkscape:label="Logo"><path
     fill-rule="evenodd"
     clip-rule="evenodd"
     fill="#ffffff"
     d="m 58.518264,115.39558 c 0,22.838 0,44.985 0,67.937 7.073,0 13.377,0 20.827,0 0,-22.183 0,-44.557 0,-67.678 7.985,0 14.86,0 22.730996,0 0,22.646 0,45.052 0,67.963 7.064,0 13.158,0 20.089,0 0,-15.779 0,-31.426 0,-47.073 0.631,-0.285 1.262,-0.574 1.894,-0.859 6.401,11.042 13.656,21.562 18.983,33.262 6.488,14.252 15.691,18.177 29.434,13.778 0,-21.808 0,-44.238 0,-67.242 7.672,0 14.313,0 22.059,0 0,22.737 0,45.134 0,68.082 7.406,0 13.721,0 20.986,0 0,-22.854 0,-45.263 0,-66.762 1.178,-1.098 1.395,-1.474 1.641,-1.504 21.367,-2.653 21.818,-2.171 21.348,22.727 -1.014,53.395 -38.314,101.024 -84.002,110.194 -59.028996,11.844 -119.336996,-40.667 -118.114996,-118.718 0.23,-14.678 0.172,-14.706 12.769,-14.608 2.87,0.022 5.739,0.299 9.356,0.501 z"
     id="path379101" /><path
     fill-rule="evenodd"
     clip-rule="evenodd"
     fill="#ffffff"
     d="m 152.40526,97.395577 c 0,14.349003 0,26.886003 0,39.424003 -0.615,0.267 -1.234,0.534 -1.854,0.803 -5.613,-10.114 -11.439,-20.082 -16.772,-30.39 -3.54,-6.842 -7.938,-9.795003 -15.104,-9.659003 -25.367996,0.481 -50.746996,0.187 -76.156996,0.187 2.741,-37.429003 45.728,-77.937003 86.491996,-81.985003 46.409,-4.61 93.411,31.912 103.969,81.620003 -26.562,0 -52.935,0 -80.574,0 z"
     id="path379103" /></g></svg>
