<?xml version="1.0" encoding="UTF-8" standalone="no"?>
<!-- Generator: Adobe Illustrator 16.0.0, SVG Export Plug-In . SVG Version: 6.00 Build 0)  -->

<svg
   version="1.1"
   id="Layer_1"
   x="0px"
   y="0px"
   width="280px"
   height="280px"
   viewBox="0 0 280 280"
   enable-background="new 0 0 280 280"
   xml:space="preserve"
   sodipodi:docname="adultswim.svg"
   inkscape:version="1.1.2 (0a00cf5339, 2022-02-04)"
   xmlns:inkscape="http://www.inkscape.org/namespaces/inkscape"
   xmlns:sodipodi="http://sodipodi.sourceforge.net/DTD/sodipodi-0.dtd"
   xmlns="http://www.w3.org/2000/svg"
   xmlns:svg="http://www.w3.org/2000/svg"><defs
   id="defs216276">
	
	
	
</defs><sodipodi:namedview
   id="namedview216274"
   pagecolor="#ffffff"
   bordercolor="#666666"
   borderopacity="1.0"
   inkscape:pageshadow="2"
   inkscape:pageopacity="0.0"
   inkscape:pagecheckerboard="0"
   showgrid="false"
   inkscape:zoom="2.1011173"
   inkscape:cx="94.235576"
   inkscape:cy="139.44962"
   inkscape:window-width="1600"
   inkscape:window-height="828"
   inkscape:window-x="0"
   inkscape:window-y="0"
   inkscape:window-maximized="1"
   inkscape:current-layer="layer1"
   inkscape:showpageshadow="2"
   inkscape:deskcolor="#d1d1d1" />
<g
   inkscape:groupmode="layer"
   id="layer2"
   inkscape:label="BG" />
<g
   inkscape:groupmode="layer"
   id="layer1"
   inkscape:label="Logo"><path
     style="fill:#000000;stroke-width:0.337376;fill-opacity:1"
     d="m 12.563054,156.37254 c -0.07569,-0.28014 -0.104568,-15.03742 -0.06417,-32.79397 l 0.0733,-32.284648 h 6.101921 6.101924 l 0.08123,3.910254 0.08123,3.910255 h -2.529818 c -1.788451,0 -2.623825,0.160062 -2.850598,0.546172 -0.232539,0.395957 -0.300647,7.262707 -0.247611,24.965467 l 0.07319,24.41927 2.777669,0.11498 2.777658,0.11498 -0.08144,3.69502 -0.08144,3.69503 -6.0377,0.10833 c -4.675917,0.084 -6.068726,-0.006 -6.175255,-0.40105 z m 240.727656,0.22593 c -0.10411,-0.14709 -0.1892,-1.85477 -0.1892,-3.79494 v -3.52757 l 2.62524,-0.1153 2.62523,-0.1153 V 124.18015 99.31497 l -2.63537,-0.115464 -2.6354,-0.115465 0.0811,-3.895011 0.0811,-3.895027 h 6.38572 6.38575 l 0.0727,32.785977 0.0726,32.78594 h -6.34009 c -3.48704,0 -6.42522,-0.12033 -6.52928,-0.26737 z M 30.310322,144.15008 c -2.804338,-1.36331 -4.540969,-5.71839 -4.540969,-11.38771 0,-2.31354 0.737435,-6.41624 1.206193,-6.71065 0.11707,-0.0735 0.212861,-0.37419 0.212861,-0.66814 0,-0.69517 1.818064,-2.66086 3.263812,-3.52883 0.624381,-0.37485 2.667816,-1.23391 4.54097,-1.90899 4.371719,-1.57555 4.824916,-2.16301 4.714283,-6.11091 -0.08144,-2.90664 -3.250825,-4.28082 -4.717019,-2.04523 -0.376835,0.57459 -0.785813,1.76026 -0.908837,2.63481 l -0.223666,1.59009 -3.547628,0.002 -3.547639,0.002 -0.09122,-1.50688 c -0.05017,-0.82879 0.03573,-1.88 0.190773,-2.33602 0.155083,-0.45603 0.364294,-1.35981 0.464925,-2.00844 0.281035,-1.81144 1.664407,-3.98651 3.296541,-5.1831 1.912019,-1.40178 5.01821,-2.01708 8.577478,-1.69915 4.207116,0.3758 6.417609,2.067 7.587815,5.80524 0.506115,1.61684 0.551809,2.81438 0.573853,15.04069 0.02227,12.32467 0.169469,16.29484 0.689809,18.5979 l 0.20387,0.90238 h -3.836776 -3.836774 l -0.311582,-1.26297 c -0.171358,-0.69464 -0.311572,-1.62254 -0.311572,-2.06199 0,-0.63188 -0.281969,-0.38438 -1.348101,1.18335 -2.142885,3.15109 -5.246447,4.14578 -8.301447,2.66061 z m 7.939784,-8.2259 c 0.990585,-0.87419 1.395002,-2.78604 1.480909,-7.00095 0.04572,-2.24402 0.0044,-4.19186 -0.09275,-4.32854 -0.09675,-0.13671 -0.885892,0.21045 -1.753724,0.77136 -0.867823,0.56095 -1.703946,1.01987 -1.858027,1.01987 -0.154094,0 -0.673139,0.55532 -1.153429,1.23402 -0.808813,1.14292 -0.873262,1.4412 -0.873262,4.04137 0,2.5905 0.06634,2.90117 0.859644,4.02212 0.748231,1.05731 0.991845,1.1797 1.879702,0.94433 0.561038,-0.14871 1.240943,-0.46533 1.510901,-0.70358 z m 17.941017,8.16371 c -2.47272,-1.4184 -4.104627,-4.37127 -4.906881,-8.87883 -0.637661,-3.58278 -0.916567,-11.01053 -0.613608,-16.34188 0.504572,-8.87946 1.469159,-12.15323 4.318747,-14.65773 0.842542,-0.7405 1.420337,-0.88397 3.560072,-0.88397 2.883981,0 3.877367,0.59164 5.499685,3.27549 l 0.886054,1.46582 v -8.296885 -8.296899 l 4.116181,0.110924 4.116191,0.110924 0.01168,25.867806 0.01168,25.86783 -3.843984,0.11157 -3.843974,0.11157 v -2.01656 c 0,-1.99201 -0.4071,-2.68459 -0.772804,-1.31474 -0.338828,1.26915 -1.90154,3.19195 -3.135338,3.85779 -1.555565,0.83949 -3.847339,0.80032 -5.403557,-0.0923 z m 6.88197,-8.13854 c 1.111437,-0.7156 1.528006,-1.97719 1.84961,-5.6016 0.60061,-6.76865 0.197615,-15.13946 -0.826708,-17.17225 -1.19439,-2.37028 -3.52036,-1.858 -4.529612,0.99763 -0.603608,1.70788 -0.627975,2.16627 -0.537366,10.10904 0.08449,7.40083 0.155926,8.45938 0.647098,9.58113 0.556445,1.27081 1.705042,2.51849 2.336666,2.53825 0.187777,0.005 0.664919,-0.19762 1.060312,-0.4522 z m 18.323109,8.18726 c -1.503681,-0.74689 -2.818466,-2.48235 -3.573276,-4.7165 -0.50681,-1.50012 -0.541983,-2.69729 -0.541983,-18.44838 v -16.84416 l 4.186213,-0.11092 4.186201,-0.11093 v 14.86786 14.86784 l 0.696627,0.9844 c 1.330389,1.87999 3.737271,0.91298 4.429835,-1.77975 0.271002,-1.05367 0.400878,-5.17991 0.477902,-15.1829 l 0.105767,-13.73601 h 3.926025 c 2.879074,0 3.962306,0.13363 4.062056,0.50132 0.0748,0.27572 0.13071,9.20913 0.12439,19.85206 l -0.0114,19.35072 h -4.067286 -4.067336 v -2.00527 c 0,-1.97005 -0.376498,-2.68388 -0.687462,-1.30342 -0.241312,1.07124 -2.021695,2.99498 -3.512063,3.79482 -1.620133,0.86951 -4.006015,0.87755 -5.733838,0.0193 z m 64.850658,-0.0723 c -4.03842,-1.6198 -5.72183,-4.45644 -5.88002,-9.90803 l -0.0801,-2.75714 3.59676,-0.11206 3.59674,-0.11206 0.31318,2.11726 c 0.36055,2.43768 0.47185,2.72219 1.42555,3.64445 1.92974,1.86614 4.52944,-0.17777 4.54248,-3.57133 0.01,-2.60211 -0.97949,-3.82809 -4.39278,-5.44258 -7.22629,-3.41812 -9.22469,-6.56459 -8.86598,-13.95959 0.0825,-1.70178 0.32315,-3.52815 0.5347,-4.05861 0.76719,-1.92383 2.00234,-3.97235 2.39514,-3.97235 0.221,0 0.40184,-0.14579 0.40184,-0.32387 0,-0.59571 2.10668,-1.64185 4.25717,-2.11406 2.58077,-0.56667 6.41808,-0.22832 8.35591,0.73679 2.84259,1.41571 4.69936,5.25934 4.69936,9.72793 v 1.59845 h -3.68953 -3.68954 l -0.006,-1.50395 c -0.003,-0.85671 -0.2411,-1.93542 -0.55193,-2.50656 -0.47978,-0.88165 -0.75699,-1.00085 -2.29775,-0.98776 -1.48393,0.013 -1.8339,0.15746 -2.28617,0.94679 -0.82034,1.43157 -0.69065,3.3674 0.32135,4.79749 0.47047,0.6648 1.14098,1.32168 1.49,1.45972 0.34907,0.13801 0.89006,0.40397 1.20225,0.59092 0.31219,0.18696 1.27007,0.64376 2.12859,1.0151 3.90304,1.6882 6.02991,3.84158 7.12839,7.21716 0.69952,2.14973 0.71204,8.10738 0.0219,10.46764 -1.07528,3.67781 -3.12201,5.96635 -6.35725,7.10841 -2.39553,0.84562 -6.06911,0.80222 -8.31409,-0.0983 z m -24.6915,-0.30201 c -1.34339,-0.41875 -2.36953,-1.5386 -2.94588,-3.21494 -0.57579,-1.67474 -0.60175,-2.31873 -0.60175,-14.9313 0,-14.82845 0.19563,-13.66792 -2.30398,-13.66792 h -1.40611 l 0.0812,-3.91025 0.0812,-3.91024 1.77381,-0.11936 1.77381,-0.11936 v -5.807103 -5.807139 l 4.04431,0.111248 4.0443,0.111249 0.0788,5.714994 0.0786,5.714981 h 1.83698 1.83696 v 4.01047 4.01053 h -1.84476 -1.84477 l 0.005,10.72812 c 0.003,5.90047 0.0769,11.11219 0.16596,11.5816 0.19793,1.04227 1.22794,1.75337 2.53971,1.75337 h 0.97999 v 3.7632 c 0,3.56357 -0.0339,3.77606 -0.63856,4.00506 -0.71572,0.27101 -6.85292,0.25738 -7.73384,-0.0172 z m -18.02801,-0.43187 c -0.003,-0.16545 -0.003,-11.85108 -8.4e-4,-25.96809 l 0.005,-25.667296 4.11618,-0.110924 4.11618,-0.110924 v 26.079044 26.07909 h -4.11524 c -2.26339,0 -4.11797,-0.13541 -4.12131,-0.30079 z m 64.88704,-0.40107 c -0.15828,-0.74116 -0.8817,-5.4831 -1.30028,-8.52233 -0.33177,-2.40911 -1.07927,-7.56944 -1.59757,-11.02891 -0.69079,-4.61071 -1.17009,-7.84752 -1.6331,-11.02893 -0.24079,-1.65435 -0.56629,-3.82001 -0.72334,-4.81262 -0.60814,-3.843 -0.84406,-3.60946 3.64628,-3.60946 2.34025,0 4.02849,0.16439 4.13259,0.40237 0.0968,0.2213 0.2978,2.07116 0.44674,4.11078 0.14887,2.03963 0.39067,4.70101 0.53722,5.91419 0.28428,2.35315 0.7316,7.27731 1.16589,12.83366 0.1466,1.87491 0.34649,3.95036 0.44438,4.61207 l 0.17795,1.20316 0.26558,-1.00263 c 0.14612,-0.55145 0.45933,-2.98782 0.69613,-5.41419 0.67369,-6.90316 1.91168,-18.55622 2.24855,-21.16537 l 0.19543,-1.51386 4.42309,0.11011 4.42303,0.11012 0.1941,1.60418 c 0.10671,0.88234 0.4011,3.7699 0.65411,6.41683 0.25304,2.64696 0.58435,5.89546 0.73627,7.21893 0.15196,1.32347 0.41931,3.94034 0.59416,5.81525 0.56745,6.08392 0.6726,6.84265 0.96065,6.93118 0.15616,0.048 0.37209,-1.17609 0.48003,-2.72013 0.10801,-1.54405 0.32741,-3.89021 0.48778,-5.21368 0.16038,-1.32345 0.48359,-4.39152 0.71833,-6.81787 0.23474,-2.42637 0.64466,-6.44678 0.91089,-8.93426 l 0.48409,-4.52269 3.85186,0.11109 3.85181,0.11109 -0.089,1.60418 c -0.049,0.88233 -0.25988,2.59683 -0.46862,3.80999 -0.37854,2.2002 -0.80816,4.95544 -1.71962,11.02892 -0.26485,1.76464 -0.64938,4.29125 -0.85454,5.61473 -0.20517,1.32347 -0.58465,3.85009 -0.84334,5.61471 -0.25868,1.76464 -0.57707,3.74984 -0.7076,4.41157 -0.13055,0.66174 -0.31654,1.83481 -0.41344,2.60683 -0.0968,0.77203 -0.31551,2.1707 -0.48587,3.10815 l -0.30975,1.70449 h -4.64058 -4.64059 l -0.15179,-1.1029 c -0.0835,-0.6066 -0.27752,-1.8725 -0.43111,-2.81311 -0.15358,-0.94064 -0.27845,-2.29417 -0.2774,-3.0079 0,-0.71371 -0.18573,-2.83168 -0.41499,-4.7066 -0.56282,-4.60268 -1.22822,-10.94468 -1.43103,-13.63921 -0.35668,-4.73918 -0.83229,-3.51146 -1.55497,4.01399 -0.15892,1.65433 -0.48659,4.72237 -0.72825,6.81786 -0.24167,2.0955 -0.61721,5.43425 -0.83451,7.41947 -0.21736,1.9852 -0.48381,4.37646 -0.59212,5.31391 l -0.19697,1.70449 h -4.7683 c -4.29493,0 -4.78315,-0.0697 -4.91812,-0.70186 z m 34.45265,-19.16127 v -19.86306 l 4.04431,0.11124 4.0443,0.11125 0.0736,19.75179 0.0736,19.75178 h -4.11793 -4.11795 z m 12.1341,0.11141 0.0722,-19.7519 3.97217,-0.11125 3.97216,-0.11125 0.005,2.31705 0.005,2.31707 0.98731,-1.66363 c 1.62093,-2.73127 2.93577,-3.4891 6.09684,-3.51406 2.0969,-0.0165 2.91077,0.14238 3.66153,0.71487 1.08159,0.82487 2.5823,2.98479 2.5823,3.71668 0,1.10961 0.76605,0.69473 1.6137,-0.87392 1.57358,-2.91221 2.62225,-3.54464 5.90728,-3.56253 2.95535,-0.0162 4.29099,0.56476 5.18588,2.25525 0.19858,0.37516 0.53326,0.92548 0.74374,1.2229 0.2105,0.29744 0.59079,1.55228 0.84514,2.78855 0.39275,1.90925 0.46237,4.63911 0.46237,18.12782 v 15.88007 h -4.11523 -4.11527 v -13.81017 c 0,-14.27447 -0.0699,-15.26035 -1.20361,-16.97053 -1.06238,-1.60262 -3.00725,-0.83582 -3.98481,1.5711 -0.43565,1.07264 -0.48779,2.69896 -0.48779,15.21602 v 14.01504 l -4.1862,-0.11109 -4.1862,-0.11092 -0.0746,-14.62175 -0.0746,-14.62174 -0.75904,-1.11954 c -0.86399,-1.27438 -1.77003,-1.4168 -2.9179,-0.45864 -1.64325,1.3717 -1.70825,2.02588 -1.70825,17.19953 v 13.82266 l -4.18622,1.1e-4 -4.18618,1.2e-4 z m -12.1341,-28.564012 v -4.623105 h 4.12458 4.12453 l -0.0803,4.511824 -0.0803,4.511824 -4.0443,0.111248 -4.04431,0.111249 z m 68.16409,-1.715481 c -0.0383,-1.316933 -0.16251,-1.710876 -0.54623,-1.732655 -0.42471,-0.02416 -0.41444,-0.07817 0.0709,-0.372861 0.78869,-0.47892 1.56096,-0.47892 1.56096,0 0,0.220567 -0.18422,0.401046 -0.4094,0.401046 -0.27538,0 -0.44496,0.557897 -0.51803,1.70447 l -0.10865,1.704469 z m 1.63432,-0.235341 c -0.072,-1.066867 -0.0323,-2.025955 0.0882,-2.131284 0.28806,-0.251575 0.77676,1.604362 0.49116,1.865309 -0.12065,0.110276 -0.271,0.651696 -0.33402,1.203154 -0.074,0.64769 -0.16087,0.315923 -0.24546,-0.937179 z m 0.98656,1.187472 c -0.23716,-0.873268 -0.0712,-1.107798 0.4573,-0.646247 0.32457,0.283457 0.3403,0.468314 0.0722,0.84737 -0.26825,0.37904 -0.38374,0.335173 -0.52936,-0.201123 z m 0.78667,-1.925329 c 0.0498,-0.477946 0.25015,-0.94326 0.44527,-1.034075 0.52457,-0.244115 0.4363,1.375929 -0.0905,1.661592 -0.3332,0.180673 -0.42247,0.0227 -0.35476,-0.627517 z"
     id="path357" /></g></svg>
