<?xml version="1.0" encoding="UTF-8" standalone="no"?>
<!-- Generator: Adobe Illustrator 16.0.0, SVG Export Plug-In . SVG Version: 6.00 Build 0)  -->

<svg
   version="1.1"
   id="Layer_1"
   x="0px"
   y="0px"
   width="280px"
   height="280px"
   viewBox="0 0 280 280"
   enable-background="new 0 0 280 280"
   xml:space="preserve"
   sodipodi:docname="bobross.svg"
   inkscape:version="1.1.2 (0a00cf5339, 2022-02-04)"
   xmlns:inkscape="http://www.inkscape.org/namespaces/inkscape"
   xmlns:sodipodi="http://sodipodi.sourceforge.net/DTD/sodipodi-0.dtd"
   xmlns="http://www.w3.org/2000/svg"
   xmlns:svg="http://www.w3.org/2000/svg"><defs
   id="defs216276">
	
	
	
</defs><sodipodi:namedview
   id="namedview216274"
   pagecolor="#ffffff"
   bordercolor="#666666"
   borderopacity="1.0"
   inkscape:pageshadow="2"
   inkscape:pageopacity="0.0"
   inkscape:pagecheckerboard="0"
   showgrid="false"
   inkscape:zoom="1.4857143"
   inkscape:cx="-62.596153"
   inkscape:cy="85.480768"
   inkscape:window-width="1600"
   inkscape:window-height="828"
   inkscape:window-x="0"
   inkscape:window-y="0"
   inkscape:window-maximized="1"
   inkscape:current-layer="layer2"
   inkscape:showpageshadow="2"
   inkscape:deskcolor="#d1d1d1" />
<g
   inkscape:groupmode="layer"
   id="layer2"
   inkscape:label="BG" />
<g
   inkscape:groupmode="layer"
   id="layer1"
   inkscape:label="Logo" /><path
   style="fill:#e27017;fill-opacity:1"
   d="m 114.99359,167.48718 c -1.98347,-1.98346 1.16292,-11.67022 4.1648,-12.82215 2.83185,-1.08669 3.23009,1.13035 0.69449,3.8663 -4.40983,4.75829 -2.6908,8.38666 2.62543,5.5415 3.48844,-1.86696 3.24042,-0.12811 -0.28861,2.02339 -3.42714,2.08939 -6.00031,2.58677 -7.19611,1.39096 z m 10.88605,-1.24803 c -0.62053,-1.00404 4.99907,-17.00879 6.50814,-18.5353 0.59269,-0.59955 1.33667,-0.55247 2.01676,0.12762 0.77015,0.77015 0.14903,2.7531 -2.17697,6.95 -3.15254,5.68827 -3.17297,5.79855 -0.65164,3.51761 3.03261,-2.74347 4.34331,-2.27786 5.25351,1.86624 0.51352,2.33805 1.19609,2.98853 3.13595,2.98853 2.7111,0 2.39134,1.37849 -0.70402,3.03508 -1.67162,0.89462 -2.26015,0.52722 -4.07048,-2.54107 l -2.11633,-3.5869 -2.40987,3.54644 c -2.43331,3.58094 -3.75064,4.30546 -4.78505,2.63175 z m 17.15383,0.28792 c -0.98936,-0.98936 1.797,-5.56011 5.64222,-9.2555 4.11743,-3.95701 6.90599,-3.69171 6.62088,0.62991 -0.33331,5.05239 -0.10169,5.51077 2.53035,5.00762 3.28432,-0.62784 3.20889,0.96464 -0.11747,2.48023 -2.28822,1.04258 -2.83807,0.92018 -4.37113,-0.97307 l -1.75365,-2.16567 -2.30319,2.45163 c -2.21114,2.35364 -4.92622,3.14664 -6.24801,1.82485 z m 7.43358,-6.67891 c 1.1429,-2.17907 1.13599,-2.18108 -0.99462,-0.28932 -1.18003,1.04774 -2.14551,2.3118 -2.14551,2.80901 0,1.40774 1.86524,-0.089 3.14013,-2.51969 z m 12.22816,4.82305 c -0.75846,-1.97651 1.86068,-10.09983 3.13171,-9.71306 0.55,0.16737 0.90935,1.51737 0.79855,3 l -0.20145,2.6957 2.03486,-2.75 c 2.78003,-3.75707 4.64167,-3.47356 5.449,0.82984 0.74675,3.98052 2.66393,5.29174 4.95594,3.38953 0.83129,-0.6899 1.83806,-0.92474 2.23727,-0.52185 0.3992,0.40288 1.21612,-0.99549 1.81537,-3.1075 0.66334,-2.33791 1.79118,-3.97653 2.88325,-4.18901 1.5044,-0.29269 1.68441,0.11054 1.11604,2.5 l -0.67768,2.84899 2.37892,-2.91131 c 2.82375,-3.4557 4.24005,-2.90692 5.16051,1.99956 0.66204,3.52901 0.75898,3.59502 4.30293,2.93017 3.27781,-0.61492 3.49541,-0.52328 2.2683,0.9553 -3.60368,4.34217 -7.28039,4.09188 -8.91847,-0.60712 l -1.03641,-2.97306 -2.97387,3.30323 c -2.58282,2.86887 -3.23348,3.14475 -4.94819,2.09801 -1.58883,-0.9699 -2.21012,-0.92109 -3.18204,0.25 -2.05429,2.47528 -5.86226,1.78923 -7.18675,-1.29478 -0.64957,-1.5125 -1.29643,-2.91901 -1.43746,-3.12557 -0.14103,-0.20656 -1.43992,1.03094 -2.88642,2.75 -2.90382,3.451 -4.22611,3.87832 -5.08391,1.64293 z m 40.2387,-0.0992 c -1.3169,-3.43179 -0.50767,-6.58271 2.42749,-9.45191 3.24299,-3.17013 4.46034,-3.59271 5.50065,-1.90946 1.18705,1.92068 -0.44596,5.5815 -3.01115,6.75028 -1.38819,0.6325 -2.52398,1.62548 -2.52398,2.20662 0,0.72312 0.6583,0.70432 2.08565,-0.0596 3.0493,-1.63193 3.80643,-0.0999 1.05357,2.13192 -2.87134,2.32783 -4.72373,2.43905 -5.53223,0.33213 z m 13.4632,-0.83364 c -0.9036,-1.08876 -0.8399,-3.18854 0.27601,-9.09845 1.54672,-8.19152 3.09432,-11.10768 4.26953,-8.04513 0.37471,0.97649 -0.0605,4.12879 -0.96722,7.00511 -2.6301,8.34364 -2.09719,9.93476 2.50288,7.47288 3.04827,-1.63139 3.66786,-0.0505 0.83367,2.12718 -2.97012,2.28206 -5.31617,2.46473 -6.91487,0.53841 z M 48.68855,154.65385 c -0.377517,-0.98379 -1.937956,-1.5 -4.534356,-1.5 -5.219151,0 -7.82727,-1.49819 -7.82727,-4.49623 0,-3.26841 2.70914,-5.5577 9.804152,-8.28473 l 5.934452,-2.28097 1.597319,-8.21903 c 2.44598,-12.58584 3.06793,-18.71904 1.898243,-18.71904 -0.562923,0 -4.050844,0.93505 -7.750936,2.07789 -4.532342,1.3999 -7.057215,1.74813 -7.738118,1.06722 -2.08058,-2.08058 0.253372,-3.71216 8.574101,-5.99385 7.821426,-2.14477 8.61927,-2.59469 9.187298,-5.1809 1.17425,-5.346334 5.493489,-6.480604 5.493489,-1.44264 0,2.38984 0.06381,2.40481 7.75,1.81817 6.799143,-0.51894 8.052316,-0.34548 10.214039,1.41383 2.204665,1.79425 2.33628,2.28574 1.250335,4.66913 -0.667537,1.46508 -2.56101,3.43044 -4.207717,4.36747 -1.646706,0.93702 -2.996857,1.98546 -3.000334,2.32985 -0.0035,0.34439 2.558587,0.83887 5.693477,1.09884 5.077751,0.42109 6.053282,0.88159 8.938732,4.21957 l 3.238934,3.74689 8.21626,-0.55714 c 7.13858,-0.48406 8.58294,-0.90844 11.01183,-3.23546 2.55685,-2.44962 7.05756,-10.3777 8.31604,-14.64887 0.65056,-2.20793 3.43707,-2.28188 4.26923,-0.1133 0.34543,0.90018 -0.33133,4.58754 -1.50392,8.19413 -1.17259,3.60659 -2.00203,6.68738 -1.84321,6.8462 0.15882,0.15882 1.83396,-0.15782 3.72253,-0.70365 6.39463,-1.84815 11.09663,1.85404 9.074,7.14454 -1.45812,3.81392 -4.53678,5.92221 -10.76075,7.36901 -6.53934,1.52012 -10.05519,0.59909 -8.83176,-2.31362 1.53428,-3.65277 2.21286,-9.26009 1.07552,-8.88727 -0.61778,0.20251 -1.26374,1.55143 -1.43547,2.99761 -0.3995,3.36441 -10.03418,12.30407 -14.26125,13.23249 -5.13763,1.12841 -10.083598,-4.95906 -6.74318,-8.29947 0.65083,-0.65084 0.9687,-1.39796 0.70639,-1.66028 -0.26232,-0.26232 -2.983979,1.86768 -6.048131,4.73333 -6.006936,5.6178 -18.620027,12.43481 -28.094902,15.18447 -3.420896,0.99277 -6.171633,2.4513 -6.785183,3.59773 -1.228435,2.29535 -3.791802,2.53391 -4.599884,0.42808 z m 0.792146,-7.71457 c 0.448581,-0.70699 0.822493,-2.10665 0.830915,-3.11035 0.01414,-1.68571 -0.3033,-1.64757 -4.161228,0.5 -5.731091,3.19028 -6.34295,5.33318 -1.288581,4.51297 2.09181,-0.33945 4.170313,-1.19563 4.618894,-1.90262 z m 13.931072,-1.87688 c 8.193635,-2.67127 17.083641,-7.37984 20.078181,-10.63435 l 2.336975,-2.53985 -4,0.74163 c -5.075594,0.94105 -5.576204,1.06412 -8,1.96671 -1.1,0.40963 -3.131029,1.16309 -4.513398,1.67436 -1.382369,0.51127 -3.805494,1.16388 -5.384721,1.45025 -4.173053,0.75672 -8.601881,3.26752 -8.601881,4.87659 0,0.7659 -0.273145,2.10434 -0.606989,2.97432 -0.815756,2.12583 0.920158,2.02404 8.691833,-0.50966 z m 38.856892,-10.00924 c 4.19892,-1.25803 8.84362,-4.44729 7.88008,-5.41082 -0.35656,-0.35656 -1.77778,0.0918 -3.15827,0.99631 -1.38049,0.90453 -4.00704,1.68094 -5.83677,1.72536 -3.05991,0.0743 -4.77302,1.15661 -4.81147,3.03984 -0.0212,1.03652 1.62059,0.93937 5.92643,-0.35069 z M 73.758754,131.3313 c 8.212506,-2.07263 15.089799,-4.24234 15.282873,-4.82156 0.193074,-0.57922 -0.485813,-2.0866 -1.508638,-3.34974 -1.722908,-2.1277 -2.51595,-2.2769 -10.782873,-2.02862 -4.907756,0.14739 -10.794018,0.31457 -13.080582,0.3715 l -4.157391,0.10352 -1.092609,5.44051 c -1.28758,6.41133 -1.359887,8.11658 -0.34261,8.07988 0.4125,-0.0149 7.469323,-1.72285 15.68183,-3.79549 z m 51.370186,-0.57507 c 1.48649,-0.76869 3.55039,-2.33431 4.58646,-3.47915 1.71412,-1.89408 1.7348,-2.13869 0.22968,-2.71626 -0.90974,-0.3491 -2.96347,-0.0924 -4.56383,0.57052 -3.31798,1.37436 -7.05896,5.02251 -5.1503,5.02251 0.6677,0 0.93589,0.45 0.59597,1 -0.87971,1.4234 1.14188,1.23655 4.30202,-0.39762 z M 68.149564,115.14826 c 5.433679,-2.46587 10.17736,-5.81064 10.17736,-7.17605 0,-0.67373 -1.688899,-0.80935 -4.75,-0.38143 -10.271935,1.43595 -11.17085,1.73454 -11.795251,3.91797 -0.337394,1.1798 -0.833061,2.9326 -1.101484,3.8951 -0.652954,2.34134 1.942606,2.25252 7.469375,-0.25559 z m 103.047356,34.64951 c -3.58561,-3.37915 -10.38312,-9.37108 -15.10558,-13.31538 l -8.58628,-7.17146 -0.62319,6.17146 c -1.61489,15.99216 -1.52744,15.67146 -4.27379,15.67146 -2.32665,0 -2.47694,-0.26258 -1.8601,-3.25 0.636,-3.08025 4.57543,-32.36909 4.57781,-34.03518 6.2e-4,-0.43185 -0.92764,-0.28813 -2.06279,0.31939 -1.53477,0.82138 -2.43527,0.79639 -3.51233,-0.0975 -1.8096,-1.50184 -0.55195,-3.22676 3.60941,-4.95045 2.11319,-0.87531 2.96684,-1.91332 2.96684,-3.60758 0,-2.52106 2.6731,-3.30558 4.62213,-1.35654 0.69618,0.69617 3.0775,0.24849 7.46736,-1.40384 11.94291,-4.495304 19.37743,-4.351394 21.93345,0.42456 2.46596,4.6077 -2.8401,10.38071 -16.52294,17.97698 -3.3,1.83205 -7.00504,4.30824 -8.23343,5.50265 l -2.23343,2.17164 7.23343,6.95249 c 3.97839,3.82386 10.04593,9.09399 13.48343,11.71138 3.4375,2.61739 6.25,5.35945 6.25,6.09346 0,3.19069 -3.05696,1.91583 -9.13,-3.80754 z m -3.56054,-35.06123 c 8.52684,-5.65979 11.9198,-10.79001 8.10446,-12.25409 -3.17806,-1.21954 -23.88671,6.39131 -25.79596,9.48054 -0.29026,0.46964 -0.83517,3.85461 -1.21092,7.52215 l -0.68318,6.66825 6.93936,-3.81442 c 3.81665,-2.09793 9.50746,-5.51902 12.64624,-7.60243 z m 1.94054,19.92673 c -4.36894,-3.15113 -2.10594,-9.01178 4.85001,-12.56044 3.19038,-1.62761 4.63763,-1.83932 7.38608,-1.08043 2.95201,0.81509 4.02282,0.56039 7.85108,-1.86743 2.43808,-1.54618 4.6241,-3.38492 4.85782,-4.08609 0.24496,-0.73489 1.13339,-1.003 2.09759,-0.633 1.26318,0.48473 1.5239,1.38557 1.06503,3.67991 -0.39703,1.98515 -0.20619,3.03806 0.55063,3.03806 2.54516,0 11.34921,-5.26848 11.82139,-7.07411 0.93895,-3.59053 4.49921,-1.85648 4.80853,2.34202 0.24676,3.34955 1.93207,3.49356 10.73495,0.91729 8.18971,-2.39682 8.88398,-2.45668 10.44047,-0.90019 2.13914,2.13913 1.46643,2.73282 -3.67625,3.24444 -2.30047,0.22886 -6.7739,1.36092 -9.94096,2.51568 l -5.7583,2.09958 0.081,4.17765 c 0.0744,3.84102 -0.1414,4.20321 -2.67862,4.49499 -1.99531,0.22945 -3.58777,-0.51085 -5.75,-2.67308 -3.79966,-3.79966 -3.79681,-5.9672 0.01,-7.29411 1.65,-0.5752 3,-1.67679 3,-2.44799 0,-1.99084 -0.7162,-1.79278 -6.16844,1.70592 -4.6254,2.96811 -4.832,3.29462 -4.58755,7.25 l 0.25554,4.14191 -3.79511,-0.11806 c -3.97132,-0.12355 -8.70489,-3.46407 -8.70489,-6.14312 0,-0.7769 1.35,-1.92212 3,-2.54492 2.56843,-0.96947 4.29753,-3.6939 2.34439,-3.6939 -1.3789,0 -7.34439,5.16163 -7.34439,6.35472 0,0.68912 -1.52057,2.72674 -3.37905,4.52805 -4.09447,3.96851 -9.92302,5.1135 -13.37095,2.62665 z m 10.40286,-4.57514 c 3.77632,-1.42242 3.58194,-2.81914 -0.22954,-1.64936 -2.6715,0.8199 -4.05956,0.79884 -5.47167,-0.083 -1.56471,-0.97718 -2.06421,-0.86008 -2.8867,0.67675 -0.54702,1.02212 -0.69461,2.15838 -0.32797,2.52502 0.68787,0.68787 5.13406,-0.0449 8.91588,-1.46937 z m 33.34714,-2.87526 c 0,-1.35037 -1.82294,-2.28649 -3.01631,-1.54894 -0.55897,0.34546 -0.75742,1.04702 -0.44098,1.55902 0.75067,1.21461 3.45729,1.20672 3.45729,-0.0101 z m 25,-11.62117 c 0,-0.79082 0.825,-1.43785 1.83333,-1.43785 1.00834,0 1.83334,0.58489 1.83334,1.29975 0,0.71486 -0.825,1.3619 -1.83334,1.43785 -1.00833,0.076 -1.83333,-0.50893 -1.83333,-1.29975 z M 44.215649,94.808966 c -0.726211,-1.59386 -0.753435,-3.48557 -0.085,-5.90644 0.69732,-2.52548 0.650727,-3.89927 -0.160164,-4.72244 -0.860352,-0.87338 -0.675825,-1.50619 0.745097,-2.55519 1.038762,-0.76687 2.388762,-2.38854 3,-3.60371 1.808502,-3.59539 3.947183,-3.67289 3.165679,-0.11473 -0.618909,2.81787 -0.502588,2.96015 2.025027,2.47697 1.989232,-0.38027 2.563491,-0.15333 2.224027,0.8789 -0.251695,0.76533 -1.660597,1.53393 -3.130893,1.70798 -3.028588,0.35852 -4.177887,2.03012 -5.221851,7.59493 -0.695115,3.70528 -0.622532,3.8521 1.66124,3.36019 1.313463,-0.28291 3.175614,-0.8454 4.138114,-1.24997 2.867162,-1.20517 1.983845,0.90904 -1.154292,2.76278 -3.944663,2.33017 -5.937867,2.15614 -7.206984,-0.62927 z m 29.769305,1.59488 c -0.253002,-0.4125 -0.606317,-2.15593 -0.785144,-3.87429 -0.258827,-2.48706 0.311303,-3.65981 2.795342,-5.75 3.416776,-2.87502 6.331772,-3.43093 6.331772,-1.2075 0,2.7374 -1.294817,4.74338 -3.636385,5.63364 -1.299988,0.49426 -2.363615,1.37562 -2.363615,1.95858 0,0.73901 0.587197,0.74568 1.939312,0.022 2.831124,-1.51517 3.552627,0.50955 0.854912,2.3991 -2.420631,1.69547 -4.404387,2.01158 -5.136194,0.81842 z m -18.65803,-2.14639 c 0,-1.04301 1.348457,-5.20551 2.996571,-9.25 1.648114,-4.04448 2.998114,-7.46611 3,-7.60361 0.0019,-0.1375 0.678429,-0.25 1.503429,-0.25 2.129565,0 1.876396,1.48304 -1.164571,6.82193 -1.465515,2.57294 -2.050515,4.11557 -1.3,3.42807 2.486945,-2.27814 4.85407,-1.45511 5.752219,2 0.510613,1.96429 1.483012,3.25505 2.458013,3.26275 2.680254,0.0212 3.058504,1.2541 0.761845,2.48323 -3.029991,1.62161 -4.700998,0.67603 -5.537747,-3.13366 l -0.718832,-3.27283 -2.972458,3.70526 c -3.295635,4.1081 -4.778469,4.66942 -4.778469,1.80886 z"
   id="path230" /></svg>
