<?xml version="1.0" encoding="UTF-8" standalone="no"?>
<!-- Generator: Adobe Illustrator 16.0.0, SVG Export Plug-In . SVG Version: 6.00 Build 0)  -->

<svg
   version="1.1"
   id="Layer_1"
   x="0px"
   y="0px"
   width="280px"
   height="280px"
   viewBox="0 0 280 280"
   enable-background="new 0 0 280 280"
   xml:space="preserve"
   sodipodi:docname="dajto.svg"
   inkscape:version="1.1.2 (0a00cf5339, 2022-02-04)"
   xmlns:inkscape="http://www.inkscape.org/namespaces/inkscape"
   xmlns:sodipodi="http://sodipodi.sourceforge.net/DTD/sodipodi-0.dtd"
   xmlns="http://www.w3.org/2000/svg"
   xmlns:svg="http://www.w3.org/2000/svg"><defs
   id="defs216276">
	
	
	
</defs><sodipodi:namedview
   id="namedview216274"
   pagecolor="#ffffff"
   bordercolor="#666666"
   borderopacity="1.0"
   inkscape:pageshadow="2"
   inkscape:pageopacity="0.0"
   inkscape:pagecheckerboard="0"
   showgrid="false"
   inkscape:zoom="0.74285714"
   inkscape:cx="257.11539"
   inkscape:cy="210"
   inkscape:window-width="1600"
   inkscape:window-height="828"
   inkscape:window-x="0"
   inkscape:window-y="0"
   inkscape:window-maximized="1"
   inkscape:current-layer="layer1"
   inkscape:showpageshadow="2"
   inkscape:deskcolor="#d1d1d1" />
<g
   inkscape:groupmode="layer"
   id="layer2"
   inkscape:label="BG" />
<g
   inkscape:groupmode="layer"
   id="layer1"
   inkscape:label="Logo"><path
     style="fill:#00e92b;stroke-width:1.26572;fill-opacity:1"
     d="m 178.90044,176.03537 c 0,-3.88156 0.39177,-4.43003 3.16431,-4.43003 h 3.16431 V 151.98662 132.3679 h 5.0629 5.06289 v 24.04875 24.04875 h -8.2272 -8.22721 z m -145.558216,0.5265 c -6.602116,-2.99312 -10.49938,-6.37853 -14.158393,-12.29894 l -2.608901,-4.22131 6.778159,-10.03968 c 3.727988,-5.52183 7.165993,-10.03969 7.640009,-10.03969 0.474016,0 3.507688,4.5871 6.741493,10.19356 3.233806,5.60646 6.738651,10.52321 7.788547,10.92609 1.132986,0.43477 3.547056,-0.84743 5.939076,-3.15445 4.817023,-4.64587 10.331175,-6.9395 14.006713,-5.82615 4.112808,1.2458 10.907903,6.75149 10.907903,8.83808 0,2.99631 -9.865234,12.84546 -15.691459,15.66588 -7.227723,3.49888 -19.572939,3.47929 -27.343147,-0.0434 z m 70.220916,-14.22306 c -5.061555,-5.06155 -6.626428,-11.65832 -4.471647,-18.85035 2.863867,-9.55873 12.481687,-14.58765 20.371437,-10.65172 l 3.74567,1.86859 v -8.76305 -8.76306 h 5.69576 5.69576 v 24.04875 24.04875 h -5.0629 c -2.78459,0 -5.06289,-0.60188 -5.06289,-1.33749 0,-0.74969 -1.23634,-0.47155 -2.81309,0.63286 -1.54718,1.08369 -5.30638,1.97035 -8.35377,1.97035 -4.58775,0 -6.26368,-0.72298 -9.74433,-4.20363 z m 17.76166,-7.20421 c 2.67982,-2.96117 3.02669,-9.10585 0.67405,-11.94061 -0.89741,-1.08131 -3.48569,-1.96602 -5.75173,-1.96602 -4.90361,0 -7.38338,2.5678 -7.38338,7.64545 0,7.55937 7.75834,11.45762 12.46106,6.26118 z m 27.04826,9.50535 c -9.91899,-5.39039 -9.6618,-25.7552 0.39325,-31.1365 3.9372,-2.10713 13.04446,-1.97057 15.71671,0.23565 1.67907,1.38627 2.29268,1.43413 2.70435,0.21096 0.29289,-0.87019 2.47857,-1.58216 4.85707,-1.58216 h 4.32456 v 16.45441 16.45441 h -4.32456 c -2.3785,0 -4.55009,-0.67662 -4.82575,-1.50359 -0.35545,-1.06636 -1.3882,-0.88233 -3.55142,0.63286 -3.68715,2.58258 -10.77299,2.69098 -15.29421,0.23396 z m 15.55547,-9.05233 c 2.71705,-2.4589 3.05537,-9.06569 0.63381,-12.37736 -2.36392,-3.23285 -8.39986,-2.94701 -11.21631,0.53116 -6.33782,7.82688 3.21167,18.51671 10.5825,11.8462 z m 70.90402,8.39092 c -10.33383,-6.30035 -10.14789,-22.92205 0.33325,-29.78955 7.42034,-4.862 20.7032,-1.79262 25.20227,5.82367 2.4483,4.14466 2.68052,13.22538 0.45089,17.63173 -4.2114,8.32282 -17.43704,11.54655 -25.98641,6.33415 z m 15.50952,-9.10925 c 2.07306,-2.9597 2.57287,-8.25087 1.00168,-10.60396 -4.92135,-7.3704 -15.53403,-1.77564 -13.57251,7.15512 1.4098,6.41878 9.02688,8.50855 12.57083,3.44884 z m -44.86143,-1.61695 c 0,-7.17243 -0.51073,-12.02437 -1.26572,-12.02437 -0.69615,0 -1.26572,-1.99352 -1.26572,-4.43003 0,-2.43652 0.56957,-4.43004 1.26572,-4.43004 0.69615,0 1.26572,-1.70872 1.26572,-3.79717 0,-3.58621 0.28127,-3.79717 5.0629,-3.79717 4.78162,0 5.06289,0.21096 5.06289,3.79717 0,3.2065 0.49223,3.79717 3.16431,3.79717 2.77254,0 3.16431,0.54848 3.16431,4.43004 0,3.88155 -0.39177,4.43003 -3.16431,4.43003 -3.02367,0 -3.16431,0.33753 -3.16431,7.59434 0,7.25681 0.14064,7.59434 3.16431,7.59434 2.77254,0 3.16431,0.54848 3.16431,4.43004 v 4.43003 h -8.2272 -8.22721 z M 74.634059,147.89709 c -6.557263,-4.68343 -17.100974,-4.96039 -23.200927,-0.60944 l -4.059258,2.89536 -6.686176,-11.439 c -8.627845,-14.76089 -9.694772,-14.83177 -18.838848,-1.25142 -6.203838,9.21366 -6.899603,9.86161 -7.27785,6.77777 -0.940242,-7.66575 6.620062,-20.27123 15.419758,-25.70974 13.772398,-8.51182 33.425451,-4.52637 43.242764,8.7692 3.730635,5.05239 7.300815,16.1568 6.709552,20.86887 l -0.401935,3.2032 z M 186.0581,126.25605 c -2.72264,-3.00847 -2.65225,-5.64853 0.21992,-8.2478 3.00847,-2.72263 5.64853,-2.65224 8.2478,0.21992 2.72263,3.00848 2.65224,5.64854 -0.21992,8.2478 -3.00848,2.72264 -5.64854,2.65225 -8.2478,-0.21992 z"
     id="path101" /></g></svg>
