<?xml version="1.0" encoding="UTF-8" standalone="no"?>
<!-- Generator: Adobe Illustrator 16.0.0, SVG Export Plug-In . SVG Version: 6.00 Build 0)  -->

<svg
   version="1.1"
   id="Layer_1"
   x="0px"
   y="0px"
   width="280px"
   height="280px"
   viewBox="0 0 280 280"
   enable-background="new 0 0 280 280"
   xml:space="preserve"
   sodipodi:docname="doma.svg"
   inkscape:version="1.1.2 (0a00cf5339, 2022-02-04)"
   xmlns:inkscape="http://www.inkscape.org/namespaces/inkscape"
   xmlns:sodipodi="http://sodipodi.sourceforge.net/DTD/sodipodi-0.dtd"
   xmlns="http://www.w3.org/2000/svg"
   xmlns:svg="http://www.w3.org/2000/svg"><defs
   id="defs216276">
	
	
	
</defs><sodipodi:namedview
   id="namedview216274"
   pagecolor="#ffffff"
   bordercolor="#666666"
   borderopacity="1.0"
   inkscape:pageshadow="2"
   inkscape:pageopacity="0.0"
   inkscape:pagecheckerboard="0"
   showgrid="false"
   inkscape:zoom="0.74285714"
   inkscape:cx="242.30769"
   inkscape:cy="193.84615"
   inkscape:window-width="1600"
   inkscape:window-height="828"
   inkscape:window-x="0"
   inkscape:window-y="0"
   inkscape:window-maximized="1"
   inkscape:current-layer="layer1"
   inkscape:showpageshadow="2"
   inkscape:deskcolor="#d1d1d1" />
<g
   inkscape:groupmode="layer"
   id="layer2"
   inkscape:label="BG" />
<g
   inkscape:groupmode="layer"
   id="layer1"
   inkscape:label="Logo"><path
     style="fill:#fbbb4c;stroke-width:1.12934;fill-opacity:0.93333334"
     d="m 34.54298,171.4354 c -5.751218,-2.60336 -10.401025,-6.68125 -13.70484,-12.01916 l -2.253236,-3.64052 6.567365,-9.62913 c 3.61205,-5.29603 6.821466,-9.62067 7.132034,-9.61034 0.310568,0.0102 3.110469,4.45103 6.222004,9.86821 3.357219,5.84493 6.507444,10.01313 7.748254,10.25209 1.245577,0.23988 3.752485,-1.20778 6.200722,-3.58071 6.693762,-6.4879 11.608691,-6.52867 19.178523,-0.15907 3.573307,3.00674 3.60948,3.13043 1.766478,6.04012 -6.249037,9.86586 -15.091378,14.81402 -26.434579,14.79274 -4.944417,-0.009 -8.999667,-0.76473 -12.422725,-2.31423 z m 65.375214,-10.59128 c -4.19459,-2.34462 -5.881663,-7.27295 -5.289958,-15.45317 0.452752,-6.25925 0.908971,-7.31513 4.636692,-10.73134 2.419832,-2.2176 5.323142,-3.78901 7.000502,-3.78901 2.76783,0 2.80498,0.0931 1.08509,2.71797 -2.14804,3.27832 -2.56555,17.19441 -0.62468,20.82098 0.83869,1.5671 2.38588,2.43584 4.33819,2.43584 3.02214,0 3.02543,0.009 0.80336,2.23122 -3.01192,3.01191 -8.31861,3.79687 -11.949196,1.76751 z m 16.665676,-0.82919 c -0.38372,-1.43268 -0.70461,-7.96641 -0.71309,-14.5194 -0.0102,-7.74196 -0.49002,-12.38912 -1.37062,-13.26972 -1.05406,-1.05406 -1.05406,-1.35521 0,-1.35521 2.20519,0 1.72549,-8.65097 -0.52765,-9.51558 -2.67727,-1.02736 -0.78857,-2.36995 6.11787,-4.34892 l 5.92903,-1.69889 v 20.06614 c 0,16.39287 0.30783,20.3216 1.68158,21.46172 2.30158,1.91014 1.3355,3.00468 -3.44331,3.90119 -2.22495,0.41741 -4.70479,1.01196 -5.51076,1.32124 -0.85157,0.32678 -1.75761,-0.52878 -2.16305,-2.04257 z m 24.68161,0.81016 c -2.48454,-0.92787 -4.5865,-1.69468 -4.67101,-1.70403 -0.0845,-0.009 -0.97386,-1.74546 -1.97634,-3.85802 -5.03947,-10.61991 0.87608,-24.39244 10.47699,-24.39244 2.09197,0 2.13549,0.21526 0.62771,3.10568 -2.30538,4.4194 -2.22006,21.52981 0.12404,24.8765 4.70728,6.72057 8.82102,-0.93376 8.23044,-15.31416 -0.33922,-8.26008 -0.72224,-9.74934 -2.97703,-11.57515 l -2.58772,-2.0954 4.28183,0.63697 c 5.87331,0.87372 9.26026,3.22979 11.1522,7.75783 3.22216,7.71172 0.57752,18.43042 -5.29688,21.46818 -4.92009,2.54428 -12.26343,3.00641 -17.38423,1.09404 z m 90.06476,-0.0322 c -3.78803,-2.70852 -3.55026,-9.7657 0.43464,-12.90022 3.52428,-2.7722 10.58566,-3.37932 8.37895,-0.72041 -0.73957,0.89113 -1.18294,3.30509 -0.98528,5.36436 0.2934,3.05655 0.82604,3.72766 2.90041,3.65445 3.07617,-0.10853 3.21518,0.8235 0.49056,3.28925 -3.11868,2.82237 -8.26559,3.42452 -11.21928,1.31257 z m 16.9161,-0.18398 c -2.11709,-1.76623 -2.50406,-3.31067 -2.64078,-10.53952 -0.0881,-4.65852 -0.62239,-9.35939 -1.18729,-10.44638 -1.16756,-2.24659 -7.62567,-2.71267 -11.18593,-0.80728 -2.83584,1.5177 -2.78224,-0.10446 0.12561,-3.80121 3.03471,-3.858 9.28978,-5.58187 14.83541,-4.08858 6.29009,1.69373 7.69999,4.50953 7.69999,15.37801 0,8.03722 0.30665,9.49883 2.28333,10.88336 1.89094,1.32446 2.018,1.81951 0.73937,2.88068 -2.98368,2.47623 -8.04253,2.73271 -10.66971,0.54092 z m -77.79309,-1.31141 c 2.5976,-2.87032 2.74354,-22.20296 0.17504,-23.18858 -3.19201,-1.22489 -1.68866,-2.50153 5.08202,-4.31564 l 6.77603,-1.81555 v 13.62726 c 0,11.09547 0.34725,14.01095 1.86905,15.69251 1.79553,1.98405 1.52218,2.06528 -6.95107,2.06528 -8.47325,0 -8.7466,-0.0812 -6.95107,-2.06527 z m 20.4883,-0.17702 c 1.73702,-1.91938 1.94158,-3.64787 1.42037,-12.00206 -0.64841,-10.39311 -1.62195,-12.13527 -6.32893,-11.32546 l -2.66472,0.45844 2.84438,-2.84438 c 2.1299,-2.1299 4.02702,-2.84439 7.55241,-2.84439 7.43784,0 8.42019,1.75758 8.87242,15.87413 0.21324,6.65647 0.91072,12.73791 1.54995,13.51433 0.91098,1.10649 -0.61452,1.41168 -7.05643,1.41168 -8.12714,0 -8.19609,-0.025 -6.18945,-2.24229 z m 19.55239,0.88709 c 1.83852,-1.83853 1.83852,-21.42586 0,-23.26437 -0.74536,-0.74537 -2.34873,-1.35521 -3.56305,-1.35521 -2.09548,0 -2.10928,-0.10887 -0.27122,-2.13995 4.04131,-4.4656 12.84,-3.4903 15.19786,1.68462 0.70675,1.55116 1.285,7.52265 1.285,13.26999 0,6.62176 0.49644,10.94615 1.35521,11.80492 1.05405,1.05405 -0.50192,1.35521 -7.0019,1.35521 -6.49998,0 -8.05594,-0.30116 -7.0019,-1.35521 z M 71.866574,144.22248 c -6.5531,-4.15593 -13.234124,-4.2831 -19.896414,-0.37874 l -4.793364,2.8091 -6.053888,-10.43213 c -4.084879,-7.03912 -6.796911,-10.5394 -8.33838,-10.76194 -1.755162,-0.25337 -3.844083,1.94663 -9.015394,9.49485 -5.559996,8.11555 -6.797466,9.37192 -7.113535,7.22218 -1.185624,-8.06399 6.336446,-20.22962 15.7184,-25.42176 5.274249,-2.91886 7.294167,-3.38786 14.591706,-3.38801 7.367145,-1.6e-4 9.278828,0.45335 14.681402,3.48285 9.667921,5.42131 16.502757,17.2059 15.592115,26.88385 l -0.34604,3.67758 z"
     id="path267" /><path
     style="fill:#000000"
     id="path121"
     d="" /><path
     style="fill:#000000"
     id="path101"
     d="" /></g></svg>
