<?xml version="1.0" encoding="UTF-8" standalone="no"?>
<!-- Generator: Adobe Illustrator 16.0.0, SVG Export Plug-In . SVG Version: 6.00 Build 0)  -->

<svg
   version="1.1"
   id="Layer_1"
   x="0px"
   y="0px"
   width="280px"
   height="280px"
   viewBox="0 0 280 280"
   enable-background="new 0 0 280 280"
   xml:space="preserve"
   sodipodi:docname="joj.svg"
   inkscape:version="1.1.2 (0a00cf5339, 2022-02-04)"
   xmlns:inkscape="http://www.inkscape.org/namespaces/inkscape"
   xmlns:sodipodi="http://sodipodi.sourceforge.net/DTD/sodipodi-0.dtd"
   xmlns="http://www.w3.org/2000/svg"
   xmlns:svg="http://www.w3.org/2000/svg"><defs
   id="defs216276">
	
	
	
</defs><sodipodi:namedview
   id="namedview216274"
   pagecolor="#ffffff"
   bordercolor="#666666"
   borderopacity="1.0"
   inkscape:pageshadow="2"
   inkscape:pageopacity="0.0"
   inkscape:pagecheckerboard="0"
   showgrid="false"
   inkscape:zoom="0.74285714"
   inkscape:cx="242.30769"
   inkscape:cy="193.84615"
   inkscape:window-width="1600"
   inkscape:window-height="828"
   inkscape:window-x="0"
   inkscape:window-y="0"
   inkscape:window-maximized="1"
   inkscape:current-layer="layer1"
   inkscape:showpageshadow="2"
   inkscape:deskcolor="#d1d1d1" />
<g
   inkscape:groupmode="layer"
   id="layer2"
   inkscape:label="BG" />
<g
   inkscape:groupmode="layer"
   id="layer1"
   inkscape:label="Logo"><path
     style="fill:#e1334e;stroke-width:0.285391;fill-opacity:1"
     d="M 134.0945,248.68775 C 108.65267,247.63468 84.044817,237.82656 64.612849,220.99396 61.100051,217.95106 54.429162,211.16587 51.731015,207.8914 37.209319,190.26791 28.487627,169.87462 25.916504,147.53126 c -0.836705,-7.27108 -0.768666,-19.2984 0.14934,-26.39865 5.467195,-42.28568 34.321917,-77.22577 74.842906,-90.62703 8.72717,-2.88629 21.97413,-5.30474 28.7622,-5.25103 1.26361,0.01 0.99135,0.12237 -2.37854,0.9817 -17.88361,4.56035 -32.660172,12.97422 -45.571783,25.94889 -15.16554,15.2396 -24.141411,33.44743 -27.446855,55.6768 -0.404647,2.72128 -0.50999,5.27113 -0.512878,12.4145 -0.0033,8.04347 0.06622,9.42542 0.660006,13.12797 2.952139,18.40815 10.957689,34.3151 23.821147,47.33239 13.236954,13.39526 29.498083,21.70395 48.225963,24.64126 5.56647,0.87305 18.80564,0.94615 23.89377,0.13191 24.38387,-3.90207 44.78596,-18.67086 55.8474,-40.42718 7.04296,-13.85252 9.75039,-31.04073 6.93438,-44.02322 -3.705,-17.08096 -17.13924,-31.04414 -34.11067,-35.45369 -16.30943,-4.23755 -33.45425,0.41223 -45.33793,12.29592 -6.92769,6.92769 -11.37437,15.45122 -13.20092,25.30395 -0.70422,3.79867 -0.69902,12.05657 0.01,15.32069 1.13055,5.20731 3.06833,9.8222 5.93811,14.14185 1.86779,2.81143 6.49705,7.52653 9.36505,9.53872 5.53252,3.8816 12.54104,6.39577 19.07355,6.84227 l 2.75885,0.18857 -1.71235,0.52411 c -4.76055,1.45709 -6.84588,1.72069 -13.69875,1.73164 -5.26066,0.008 -7.07399,-0.093 -9.13251,-0.51094 -6.45705,-1.31081 -13.81956,-4.45923 -18.97848,-8.11576 -3.47611,-2.46378 -9.01908,-8.00676 -11.48287,-11.48287 -2.28758,-3.2275 -5.265772,-9.10344 -6.473181,-12.77151 -4.494496,-13.65418 -2.610934,-31.70077 4.937141,-47.30325 3.73805,-7.72684 7.56627,-13.18246 13.58969,-19.36679 6.52226,-6.6965 12.30573,-10.9212 20.40544,-14.90575 10.58381,-5.20657 20.70767,-7.5677 32.53455,-7.58784 8.18646,-0.0139 14.35336,0.75913 21.99318,2.757 28.72207,7.51104 52.03734,30.22256 60.19775,58.63893 2.38654,8.31051 3.33436,15.27142 3.32433,24.41463 -0.0191,17.46136 -3.64384,33.32011 -11.1642,48.84559 -6.23271,12.86716 -13.13596,22.43443 -23.44404,32.4913 -12.40806,12.10567 -26.9137,20.94201 -43.34417,26.40378 -9.92906,3.30059 -20.02205,5.21315 -29.39525,5.57021 -2.11902,0.0807 -4.55911,0.18402 -5.42242,0.22955 -0.86331,0.0455 -3.68868,-0.005 -6.2786,-0.11213 z"
     id="path191" /></g></svg>
