<?xml version="1.0" encoding="UTF-8" standalone="no"?>
<!-- Generator: Adobe Illustrator 16.0.0, SVG Export Plug-In . SVG Version: 6.00 Build 0)  -->

<svg
   version="1.1"
   id="Layer_1"
   x="0px"
   y="0px"
   width="280px"
   height="280px"
   viewBox="0 0 280 280"
   enable-background="new 0 0 280 280"
   xml:space="preserve"
   sodipodi:docname="marzika.svg"
   inkscape:version="1.1.2 (0a00cf5339, 2022-02-04)"
   xmlns:inkscape="http://www.inkscape.org/namespaces/inkscape"
   xmlns:sodipodi="http://sodipodi.sourceforge.net/DTD/sodipodi-0.dtd"
   xmlns="http://www.w3.org/2000/svg"
   xmlns:svg="http://www.w3.org/2000/svg"><defs
   id="defs216276">
	
	
	
</defs><sodipodi:namedview
   id="namedview216274"
   pagecolor="#ffffff"
   bordercolor="#666666"
   borderopacity="1.0"
   inkscape:pageshadow="2"
   inkscape:pageopacity="0.0"
   inkscape:pagecheckerboard="0"
   showgrid="false"
   inkscape:zoom="0.74285714"
   inkscape:cx="242.30769"
   inkscape:cy="293.46154"
   inkscape:window-width="1600"
   inkscape:window-height="828"
   inkscape:window-x="0"
   inkscape:window-y="0"
   inkscape:window-maximized="1"
   inkscape:current-layer="layer1"
   inkscape:showpageshadow="2"
   inkscape:deskcolor="#d1d1d1" />
<g
   inkscape:groupmode="layer"
   id="layer2"
   inkscape:label="BG" />
<g
   inkscape:groupmode="layer"
   id="layer1"
   inkscape:label="Logo"><path
     style="fill:#0638b1;fill-opacity:1;stroke-width:0.130887"
     d="M 36.895048,162.91046 C 28.775715,161.6687 21.909574,156.64261 18.239888,149.2547 l -0.70543,-1.42021 5.551973,-8.19086 c 3.05357,-4.50497 5.561713,-8.20414 5.573615,-8.22038 0.01181,-0.0163 2.11789,3.6411 4.67996,8.12742 4.927812,8.62882 5.127594,8.92527 6.214376,9.22137 1.298639,0.35383 2.130254,-0.0482 3.518201,-1.70075 2.596218,-3.09121 4.79375,-4.72533 7.188812,-5.34575 1.020675,-0.26439 3.124138,-0.26018 4.15025,0.008 2.507151,0.65601 5.497925,2.78093 7.917245,5.62515 0.596232,0.70092 0.747481,0.96362 0.683094,1.18647 -0.184216,0.63784 -1.616166,3.08438 -2.556071,4.36721 -3.731792,5.09331 -8.890783,8.42348 -15.113152,9.75561 -1.349553,0.28892 -1.993468,0.34591 -4.379723,0.3876 -2.022542,0.0353 -3.149533,-0.005 -4.06799,-0.14542 z m 94.822912,-9.79712 c -2.77941,-0.39706 -5.39213,-1.75866 -7.18649,-3.74519 -3.09227,-3.42344 -4.26784,-8.62233 -3.02762,-13.3895 1.50529,-5.78605 6.06805,-9.4777 11.71413,-9.4777 2.9906,0 5.13736,0.81132 7.44936,2.81529 l 0.74819,0.64851 v -1.5271 -1.52709 h 3.31805 3.31806 v 12.90253 12.90253 h -3.31806 -3.31805 v -1.52628 -1.52627 l -0.68093,0.61945 c -1.97512,1.7968 -4.26573,2.74435 -6.96022,2.87921 -0.69964,0.035 -1.62502,0.0132 -2.05642,-0.0484 z m 4.68341,-6.26086 c 2.40045,-0.63263 4.25495,-2.71038 4.81749,-5.39744 0.37257,-1.77966 0.15315,-3.50307 -0.65847,-5.17189 -1.99218,-4.09619 -7.387,-4.98024 -10.5963,-1.7364 -3.17354,3.20771 -2.62506,9.07333 1.07297,11.47451 1.50976,0.98031 3.58088,1.30124 5.36431,0.83122 z m 110.56977,6.25233 c -1.17605,-0.14847 -3.08941,-0.78632 -4.14164,-1.38069 -3.24136,-1.83092 -5.47609,-5.07137 -6.23045,-9.03435 -0.29537,-1.55177 -0.27272,-4.43298 0.047,-5.97065 1.18349,-5.69262 5.4108,-9.69155 10.76468,-10.18315 3.40829,-0.31295 6.46351,0.72286 8.80304,2.98447 l 0.48795,0.4717 v -1.54079 -1.54079 h 3.31805 3.31806 v 12.90253 12.90253 h -3.31806 -3.31805 v -1.54149 -1.54148 l -0.55301,0.53152 c -2.40172,2.30841 -5.73233,3.3756 -9.17755,2.94064 z m 4.79491,-6.26055 c 1.16241,-0.34547 2.16148,-0.96193 2.95539,-1.82357 0.92335,-1.00215 1.3908,-1.86443 1.72286,-3.17814 0.68636,-2.71537 -0.006,-5.47147 -1.83675,-7.31484 -3.80138,-3.82693 -10.11755,-1.78214 -11.24257,3.63965 -0.81301,3.91818 1.45022,7.90694 4.95939,8.74052 0.84002,0.19953 2.67005,0.16571 3.44168,-0.0636 z M 78.047171,139.81309 v -12.90253 h 3.318053 3.318074 v 1.51407 c 0,0.83274 0.02692,1.51407 0.05984,1.51407 0.0329,0 0.340324,-0.30364 0.683131,-0.67475 2.771051,-2.99987 7.022717,-3.6717 10.696837,-1.69026 0.924849,0.49876 2.035709,1.47943 2.676752,2.36304 l 0.473899,0.65321 0.630233,-0.76625 c 1.20292,-1.46256 3.05713,-2.6148 5.01293,-3.11516 1.19475,-0.30565 3.42561,-0.30348 4.74937,0.005 3.7352,0.86937 6.3001,3.50883 7.37291,7.58725 0.19434,0.73879 0.22652,1.88652 0.26995,9.627 l 0.0493,8.7882 h -3.32561 -3.3256 l -0.002,-7.6691 c -0.002,-8.18529 -0.0309,-8.6162 -0.6602,-9.86432 -0.39643,-0.78625 -1.38108,-1.79541 -2.13288,-2.18599 -0.8837,-0.45908 -2.61045,-0.56715 -3.55735,-0.22262 -1.42366,0.51799 -2.49389,1.69492 -3.04908,3.35307 -0.28058,0.83797 -0.28742,1.0194 -0.32866,8.72237 l -0.0421,7.86659 h -3.238918 -3.238925 l -0.04361,-7.86659 c -0.04209,-7.59016 -0.05323,-7.89535 -0.317654,-8.68476 -0.798317,-2.38323 -2.324136,-3.5924 -4.533145,-3.5924 -1.827719,0 -3.315555,0.93937 -4.160699,2.62692 -0.682512,1.36279 -0.714089,1.80248 -0.716545,9.97938 l -0.0021,7.53744 h -3.318068 -3.318053 z m 74.688779,0 v -12.90253 h 3.31806 3.31805 v 1.63385 1.63386 l 1.07646,-1.07699 c 1.20041,-1.20101 2.54405,-2.0055 3.99822,-2.39388 1.01562,-0.27125 2.80011,-0.30554 3.74094,-0.0719 l 0.68313,0.16965 v 3.14667 c 0,1.73067 -0.0199,3.14667 -0.0442,3.14667 -0.0243,0 -0.50213,-0.11849 -1.06177,-0.26331 -1.2129,-0.31388 -3.18093,-0.34971 -4.1956,-0.0764 -1.97175,0.53112 -3.31529,1.76411 -3.92819,3.60502 -0.2598,0.7803 -0.26895,1.07225 -0.26895,8.5798 v 7.772 h -3.31805 -3.31806 z m 20.2987,-5.59549 v -18.49802 h 3.3173 3.3173 l 0.0333,10.86054 0.0333,10.86054 4.5542,-5.25554 4.55419,-5.25554 4.1313,-0.009 c 2.27222,-0.005 4.1313,0.0214 4.1313,0.0592 0,0.0515 -6.43398,7.27554 -9.33983,10.48664 l -0.31841,0.35187 5.74018,7.45072 5.74019,7.45072 -4.19233,-0.0347 -4.19234,-0.0347 -3.76022,-4.87137 c -2.06813,-2.67924 -3.79738,-4.8809 -3.84279,-4.89256 -0.0454,-0.0117 -0.79985,0.77731 -1.67653,1.75326 l -1.59397,1.77445 v 3.15103 3.15102 h -3.31806 -3.31805 v -18.49802 z m 28.10588,5.59549 v -12.90253 h 3.25299 3.253 v 12.90253 12.90253 h -3.253 -3.25299 z m 11.1903,10.14196 v -2.76057 l 6.42611,-7.14673 6.42612,-7.14673 -6.42612,-0.0342 -6.42611,-0.0342 v -2.96109 -2.96108 h 10.66983 10.66982 l -0.005,2.79773 -0.005,2.79775 -6.41999,7.10956 -6.41999,7.10956 6.42531,0.0342 6.4253,0.0342 v 2.96109 2.96109 H 223.00128 212.33145 V 149.9551 Z M 63.734008,141.11189 c -1.509462,-1.42699 -3.172356,-2.60799 -4.879513,-3.46544 -2.513075,-1.26225 -4.199921,-1.68153 -6.76621,-1.68184 -3.788357,-3.9e-4 -7.13014,1.41101 -10.461281,4.41848 L 40.799981,141.12975 36.12,132.93397 c -2.573978,-4.50768 -4.841101,-8.40314 -5.038054,-8.65658 -0.61894,-0.79653 -1.231278,-1.06949 -2.296858,-1.02391 -0.737437,0.0315 -1.024679,0.10856 -1.431311,0.38381 -0.391397,0.2649 -1.784529,2.22724 -6.03885,8.50607 -6.184363,9.12737 -5.681638,8.58705 -5.709882,6.13669 -0.06797,-5.898 2.026766,-11.82811 5.780193,-16.3635 6.263239,-7.56804 16.295679,-10.73016 25.739481,-8.11282 6.728326,1.86475 12.597261,6.80936 15.6351,13.17266 2.048098,4.29009 2.870283,8.96898 2.39789,13.64562 -0.07575,0.74989 -0.178218,1.40215 -0.227716,1.44946 -0.04949,0.0473 -0.587693,-0.38451 -1.195985,-0.95958 z M 201.29903,123.44117 c 0.0917,-0.17026 1.25005,-1.97652 2.57401,-4.01392 l 2.40722,-3.70434 3.62167,-0.002 c 2.32961,-0.001 3.60619,0.0448 3.57829,0.12848 -0.0239,0.0716 -1.35326,1.8786 -2.95423,4.01558 l -2.91086,3.88545 h -3.24145 -3.24147 z"
     id="path101" /></g></svg>
