<?xml version="1.0" encoding="UTF-8" standalone="no"?>
<!-- Generator: Adobe Illustrator 16.0.0, SVG Export Plug-In . SVG Version: 6.00 Build 0)  -->

<svg
   version="1.1"
   id="Layer_1"
   x="0px"
   y="0px"
   width="280px"
   height="280px"
   viewBox="0 0 280 280"
   enable-background="new 0 0 280 280"
   xml:space="preserve"
   sodipodi:docname="nhk.svg"
   inkscape:version="1.1.2 (0a00cf5339, 2022-02-04)"
   xmlns:inkscape="http://www.inkscape.org/namespaces/inkscape"
   xmlns:sodipodi="http://sodipodi.sourceforge.net/DTD/sodipodi-0.dtd"
   xmlns="http://www.w3.org/2000/svg"
   xmlns:svg="http://www.w3.org/2000/svg"><defs
   id="defs216276">
	
	
	
</defs><sodipodi:namedview
   id="namedview216274"
   pagecolor="#ffffff"
   bordercolor="#666666"
   borderopacity="1.0"
   inkscape:pageshadow="2"
   inkscape:pageopacity="0.0"
   inkscape:pagecheckerboard="0"
   showgrid="false"
   inkscape:zoom="1.4857143"
   inkscape:cx="366.15384"
   inkscape:cy="195.86538"
   inkscape:window-width="1600"
   inkscape:window-height="828"
   inkscape:window-x="0"
   inkscape:window-y="0"
   inkscape:window-maximized="1"
   inkscape:current-layer="layer2"
   inkscape:showpageshadow="2"
   inkscape:deskcolor="#d1d1d1" />
<g
   inkscape:groupmode="layer"
   id="layer2"
   inkscape:label="BG" />
<g
   inkscape:groupmode="layer"
   id="layer1"
   inkscape:label="Logo" /><path
   style="fill:#e60012;stroke-width:0.341617;fill-opacity:1"
   d="M 19.068714,201.64538 V 176.3657 H 135.73103 252.39334 v 25.27968 25.27968 H 135.73103 19.068714 Z m 95.311226,4.44102 v -15.03115 h 5.80751 5.80749 v -3.58698 -3.58698 H 109.93893 93.882911 v 3.58698 3.58698 h 5.807495 5.807494 v 15.03115 15.03117 h 4.44103 4.44101 z m 50.72647,14.43334 c 0.13211,-0.32881 1.28824,-3.59552 2.56917,-7.25937 2.1593,-6.17624 3.09525,-8.83766 8.33393,-23.69815 1.05119,-2.98189 1.91126,-5.47997 1.91126,-5.55127 0,-0.0712 -2.05888,-0.12966 -4.57529,-0.12966 -4.04019,0 -4.60275,0.0699 -4.81015,0.59782 -0.12917,0.32881 -1.99177,5.80233 -4.13909,12.16336 -2.14732,6.36104 -4.01854,11.76978 -4.15825,12.01943 -0.15088,0.26961 -1.97899,-4.66923 -4.50228,-12.16335 l -4.24823,-12.61726 h -4.54746 c -2.51226,0 -4.54745,0.13947 -4.54745,0.31163 0,0.17141 1.21503,3.82244 2.70006,8.11342 1.48504,4.29097 4.25651,12.33674 6.15881,17.87947 1.90231,5.54274 3.52641,10.26988 3.60913,10.50474 0.11095,0.31493 1.44386,0.42702 5.07802,0.42702 4.37373,0 4.95462,-0.0671 5.16782,-0.59783 z M 95.53188,162.67492 c -2.675239,-0.39257 -4.072131,-1.04187 -5.951187,-2.7662 -1.761382,-1.61636 -2.873088,-3.76406 -3.594558,-6.94435 -0.726474,-3.20235 -0.633001,-18.06694 0.132698,-21.10161 1.493885,-5.92066 4.439307,-8.72293 9.978284,-9.49333 4.873793,-0.6779 9.534133,0.5425 12.029823,3.15019 1.3464,1.40683 2.7049,4.31525 3.26236,6.98441 0.59804,2.86344 0.56417,17.75551 -0.0465,20.46034 -1.37205,6.07685 -4.23945,8.91913 -9.81034,9.7244 -2.668658,0.38574 -3.287213,0.38432 -6.000551,-0.0138 z m 5.72315,-6.08397 c 2.36474,-1.44201 3.0003,-4.97871 2.79198,-15.53644 -0.16615,-8.42008 -0.52167,-10.29244 -2.27291,-11.97024 -1.30149,-1.24692 -3.519713,-1.5515 -5.265599,-0.72302 -2.525279,1.19833 -3.303661,4.58057 -3.303661,14.35515 0,11.54617 1.100299,14.4686 5.460715,14.50378 0.92214,0.007 1.958305,-0.24434 2.589475,-0.62923 z m -61.825793,4.82899 c -0.104952,-0.51669 -1.656105,-9.01015 -3.447016,-18.87435 -1.790912,-9.86421 -3.33434,-18.2808 -3.429825,-18.70355 -0.171863,-0.76084 -0.135736,-0.76864 3.563528,-0.76864 h 3.737162 l 0.193918,0.93944 c 0.106652,0.5167 1.043591,6.70425 2.082085,13.75011 2.208524,14.98415 2.233094,15.10772 2.581202,12.98145 0.138424,-0.84549 1.115414,-6.99461 2.171086,-13.66469 1.055671,-6.67007 2.005931,-12.55017 2.111675,-13.06687 l 0.192273,-0.93944 h 3.694103 c 2.646857,0 3.736974,0.12106 3.845358,0.42703 0.0832,0.23486 1.137296,6.69128 2.342461,14.3476 1.205165,7.65632 2.270172,13.92073 2.366677,13.9209 0.09652,1.8e-4 1.073353,-6.03349 2.170763,-13.40816 1.097411,-7.37465 2.075324,-13.83123 2.173149,-14.34793 l 0.17786,-0.93944 h 3.752118 c 3.717935,0 3.750444,0.007 3.567886,0.76864 -0.101332,0.42275 -1.655811,8.91621 -3.454391,18.87436 -1.798589,9.95814 -3.349416,18.45161 -3.446289,18.87435 -0.171368,0.74786 -0.294235,0.76864 -4.545448,0.76864 h -4.369321 l -2.187633,-14.1727 c -1.203199,-7.795 -2.288949,-14.0594 -2.412769,-13.92091 -0.123828,0.13849 -1.09287,5.93973 -2.153436,12.89164 -1.060564,6.95192 -2.022733,13.21632 -2.13815,13.9209 l -0.209857,1.28107 H 43.989219 39.62004 Z M 129.06949,142.7164 v -19.643 h 8.64924 c 10.12832,0 11.34244,0.2209 13.70305,2.49332 1.8072,1.73968 2.58578,4.02566 2.58578,7.59211 0,5.16027 -1.94185,8.30119 -5.80529,9.39005 -0.7959,0.22432 -0.75503,0.26945 0.58008,0.64042 1.69289,0.47039 3.32803,1.7575 4.07995,3.21155 0.37835,0.73165 0.65855,2.95053 0.94298,7.46764 0.36236,5.75455 0.48449,6.53465 1.16776,7.4588 l 0.76306,1.0321 h -4.23862 c -3.38392,0 -4.32589,-0.10521 -4.67148,-0.52157 -0.28722,-0.34606 -0.52536,-2.55584 -0.70774,-6.56737 -0.40055,-8.80975 -0.96016,-9.65031 -6.42486,-9.65031 h -2.76671 v 8.36963 8.36962 h -3.9286 -3.9286 z m 14.34112,-3.1605 c 1.92236,-0.96582 2.73975,-2.51993 2.73975,-5.20912 0,-1.82013 -0.16041,-2.52858 -0.7814,-3.45107 -1.06956,-1.58886 -2.24069,-2.06584 -5.58449,-2.27445 l -2.85778,-0.17828 v 5.85563 5.85566 l 2.64754,-6.8e-4 c 1.83865,-3.5e-4 3.01074,-0.18303 3.83638,-0.59784 z m 30.06912,3.1605 v -19.643 h 3.92861 3.9286 v 16.39763 16.39764 h 7.00315 7.00315 v 3.24536 3.24536 h -10.93175 -10.93176 z m 39.96923,0.0137 v -19.69935 l 8.62584,0.10674 c 8.15888,0.10099 8.71832,0.14927 10.33393,0.89285 3.30654,1.52183 5.21672,4.19625 6.23959,8.73608 0.78211,3.47114 0.773,15.44227 -0.0144,18.94416 -1.15891,5.15417 -2.83976,7.64108 -6.32406,9.35672 l -2.27722,1.12127 -8.29185,0.12045 -8.29185,0.12045 V 142.7301 Z m 14.9213,12.93747 c 2.32342,-1.7198 3.18955,-5.32641 3.17765,-13.23211 -0.0164,-10.88431 -1.43185,-13.47399 -7.55869,-13.82866 l -2.68305,-0.15533 v 14.08418 14.08421 l 3.05008,-0.1194 c 2.43329,-0.0952 3.24501,-0.26368 4.01401,-0.83289 z M 34.441494,100.32443 c -2.664349,-1.152257 -4.709686,-4.046958 -5.017241,-7.100735 -0.194737,-1.933485 -0.471277,-1.061878 8.991501,-28.339443 5.223548,-15.057508 5.526774,-15.648331 8.817393,-17.180621 1.845416,-0.859326 4.028793,-1.03384 5.96982,-0.477162 2.848363,0.8169 3.465042,1.595975 11.557859,14.601528 4.722542,7.589355 7.81925,12.249482 7.961141,11.980424 0.127708,-0.242193 1.900369,-5.277505 3.939245,-11.189594 2.296399,-6.658842 4.100976,-11.333903 4.742277,-12.285673 2.706456,-4.016713 9.085867,-4.614231 12.619895,-1.182026 1.723253,1.673601 2.331528,3.034655 2.500982,5.596081 0.143083,2.162817 -0.03407,2.744588 -6.519029,21.407291 -3.666359,10.551227 -6.982597,19.804416 -7.369412,20.562648 -1.80009,3.528472 -7.036306,5.218952 -10.829742,3.496332 C 69.695852,99.255171 68.692544,97.976711 63.607021,89.765708 61.046869,85.632134 57.783633,80.36696 56.355381,78.065314 54.927129,75.763669 53.662845,73.8805 53.54586,73.8805 c -0.116996,0 -1.87309,4.803992 -3.902443,10.675544 -2.029368,5.871549 -3.960601,11.213584 -4.291638,11.871198 -0.792752,1.574796 -2.57465,3.253241 -4.152373,3.911288 -1.608033,0.67069 -5.191784,0.66322 -6.757912,-0.0141 z m 73.872136,0.0513 c -1.98317,-0.893654 -3.44687,-2.25845 -4.33631,-4.043321 -1.65479,-3.320725 -1.63741,-3.395228 5.77627,-24.775123 3.65587,-10.542912 6.9596,-19.781618 7.34162,-20.530456 1.22651,-2.404146 4.19943,-4.135517 7.09527,-4.13214 2.72855,0.003 4.15237,0.592457 6.05381,2.505502 3.10177,3.120725 3.31913,5.621329 1.04571,12.029967 -0.8455,2.383422 -1.53727,4.391926 -1.53727,4.463344 0,0.07142 4.35545,0.129852 9.67877,0.129852 h 9.67879 l 0.35996,-1.110256 c 1.20114,-3.70456 4.53662,-12.928654 4.99704,-13.819008 0.74468,-1.440054 3.15899,-3.447111 4.6422,-3.859141 4.15218,-1.153465 8.03895,0.380246 10.16729,4.012004 0.74848,1.27718 0.92013,1.991116 0.91796,3.818045 -0.002,1.959541 -0.43025,3.471224 -3.34386,11.812401 -1.83767,5.260905 -4.70308,13.516378 -6.36761,18.345488 -3.85955,11.197321 -4.20359,11.975418 -5.99068,13.548473 -4.23398,3.726899 -11.18786,2.235059 -13.31494,-2.856489 -1.07615,-2.575988 -0.97823,-3.87377 0.67372,-8.928336 0.86132,-2.635444 1.56605,-4.971429 1.56605,-5.191064 0,-0.295158 -2.48513,-0.39934 -9.52598,-0.39934 h -9.52598 l -1.97381,5.722097 c -3.69442,10.710166 -3.7905,10.897038 -6.4476,12.539799 -1.37874,0.852402 -2.0893,1.047762 -4.09296,1.125332 -1.58287,0.0613 -2.81094,-0.0803 -3.53746,-0.40763 z m 72.8283,-0.32072 c -0.95277,-0.44365 -2.2263,-1.402944 -2.83009,-2.131768 -1.35009,-1.629704 -2.2497,-4.516811 -1.96404,-6.303213 0.11482,-0.717694 2.19288,-7.039576 4.61802,-14.048618 2.42515,-7.009043 5.46078,-15.799596 6.74586,-19.534557 1.9158,-5.568085 2.56592,-7.052379 3.61061,-8.243328 4.38361,-4.997359 12.56382,-3.268403 14.4501,3.054161 0.71957,2.411919 0.65332,2.927952 -1.0318,8.03486 -0.83397,2.527409 -1.48133,4.630258 -1.43858,4.673001 0.0428,0.04274 5.99432,-3.697622 13.22575,-8.311919 7.23142,-4.614296 13.76295,-8.673801 14.5145,-9.021115 5.37718,-2.484962 12.01776,2.227064 11.36019,8.060973 -0.22742,2.017654 -1.47123,4.465239 -2.76932,5.44952 -0.59141,0.448438 -5.45653,3.605433 -10.81138,7.015547 -5.35485,3.41011 -9.73609,6.330587 -9.73609,6.489934 0,0.159346 2.63503,3.057108 5.85562,6.439467 4.98577,5.236209 5.94355,6.414507 6.44761,7.932091 1.2861,3.872051 -0.48306,8.278263 -4.06822,10.132226 -1.60764,0.831348 -5.05122,0.984208 -6.83399,0.303358 -1.77763,-0.678888 -1.99993,-0.891416 -13.00624,-12.435197 -4.69187,-4.920976 -8.61192,-8.946939 -8.71124,-8.946571 -0.0994,3.37e-4 -1.46938,3.72826 -3.04459,8.284214 -3.35207,9.695184 -3.67289,10.393359 -5.49125,11.9498 -2.48432,2.126484 -6.03828,2.578824 -9.09143,1.157134 z"
   id="path1223" /></svg>
