<?xml version="1.0" encoding="UTF-8" standalone="no"?>
<!-- Generator: Adobe Illustrator 16.0.0, SVG Export Plug-In . SVG Version: 6.00 Build 0)  -->

<svg
   version="1.1"
   id="Layer_1"
   x="0px"
   y="0px"
   width="280px"
   height="280px"
   viewBox="0 0 280 280"
   enable-background="new 0 0 280 280"
   xml:space="preserve"
   sodipodi:docname="paramount.svg"
   inkscape:version="1.1.2 (0a00cf5339, 2022-02-04)"
   xmlns:inkscape="http://www.inkscape.org/namespaces/inkscape"
   xmlns:sodipodi="http://sodipodi.sourceforge.net/DTD/sodipodi-0.dtd"
   xmlns="http://www.w3.org/2000/svg"
   xmlns:svg="http://www.w3.org/2000/svg"><defs
   id="defs5011" /><sodipodi:namedview
   id="namedview5009"
   pagecolor="#ffffff"
   bordercolor="#000000"
   borderopacity="0.25"
   inkscape:showpageshadow="2"
   inkscape:pageopacity="0.0"
   inkscape:pagecheckerboard="0"
   inkscape:deskcolor="#d1d1d1"
   showgrid="false"
   inkscape:zoom="1.0442452"
   inkscape:cx="-148.43257"
   inkscape:cy="115.87317"
   inkscape:window-width="1600"
   inkscape:window-height="828"
   inkscape:window-x="0"
   inkscape:window-y="0"
   inkscape:window-maximized="1"
   inkscape:current-layer="Layer_1"
   inkscape:pageshadow="2"
   showguides="false" />


<path
   style="fill:#1d4397;stroke-width:0.547058;fill-opacity:1"
   d="m 232.9039,235.47149 c 0.1839,-0.1839 -0.3696,-0.92672 -1.23,-1.65069 -4.1476,-3.48998 -1.68779,-10.3686 3.92783,-10.9838 6.40867,-0.70208 9.69588,7.16073 4.8127,11.51167 -1.36355,1.21493 -2.15161,1.45719 -4.74017,1.45719 -1.70761,0 -2.95427,-0.15047 -2.77036,-0.33437 z m 6.89009,-1.90639 c 2.76081,-2.57209 2.75557,-6.08285 -0.0125,-8.41208 -3.06163,-2.57618 -7.47523,-1.44897 -8.68552,2.21826 -0.76045,2.30418 0.0747,5.29607 1.81955,6.51818 1.75204,1.22718 5.39767,1.05527 6.87852,-0.32436 z m -5.948,-4.32393 v -3.8294 h 1.67714 c 3.31497,0 5.15275,2.44778 2.83609,3.77746 -0.90513,0.51951 -0.90652,0.64036 -0.0254,2.21542 1.20781,2.15915 0.25556,2.18229 -1.01893,0.0248 -0.5332,-0.90265 -1.3661,-1.64118 -1.85089,-1.64118 -0.66817,0 -0.82314,0.39705 -0.64054,1.64118 0.14459,0.98514 -0.003,1.64117 -0.36827,1.64117 -0.38949,0 -0.60915,-1.38095 -0.60915,-3.8294 z m 4.28269,-1.81614 c 0.15611,-0.82357 -0.11818,-0.96533 -1.58776,-0.82059 -1.21549,0.11972 -1.82129,0.4872 -1.91838,1.16372 -0.20373,1.41964 3.2358,1.08303 3.50614,-0.34313 z m -208.223944,-9.40616 -1.25637,-2.58834 -2.84656,0.37409 -2.84657,0.37408 2.09687,-2.15448 2.09686,-2.15449 -1.13951,-2.23364 c -0.62674,-1.2285 -1.13952,-2.37154 -1.13952,-2.54008 0,-0.16854 0.9749,0.19091 2.16644,0.79879 2.8913,1.47503 3.20336,1.42569 5.5643,-0.87971 l 2.03276,-1.98494 -0.49224,2.12171 c -0.8833,3.80731 -0.71719,4.26291 2.08019,5.70533 l 2.59852,1.33989 -2.8972,0.16623 c -3.11518,0.17873 -3.28448,0.3522 -4.30095,4.40647 l -0.46066,1.83742 z m 217.266684,-1.36898 -0.47517,-2.99987 -2.86926,-0.16535 c -1.57808,-0.0909 -2.86925,-0.34961 -2.86925,-0.57481 0,-0.2252 1.12305,-0.95508 2.49566,-1.62194 1.84181,-0.89482 2.42581,-1.46086 2.22907,-2.16048 -0.14662,-0.5214 -0.43676,-1.80961 -0.64476,-2.8627 l -0.37818,-1.9147 1.54353,1.36765 c 0.84894,0.7522 1.87678,1.6722 2.2841,2.04444 0.59458,0.54339 1.27706,0.40493 3.46247,-0.70251 l 2.72193,-1.3793 -1.34952,2.66314 -1.34951,2.66314 2.01465,2.03312 2.01466,2.03312 -2.82868,-0.36584 -2.82867,-0.36583 -1.34896,2.65429 -1.34895,2.6543 z M 46.692027,215.13618 c -7.741671,-12.24284 -12.990921,-27.07257 -15.049141,-42.51549 -1.15438,-8.66144 -0.76891,-23.70636 0.8273,-32.28965 C 36.901506,116.50263 49.646918,93.943998 67.376431,78.549053 93.443059,55.914797 127.65121,46.931884 161.9023,53.72697 c 15.96568,3.167437 34.85337,12.268908 47.3261,22.805164 19.7205,16.658779 32.89178,39.469726 37.47756,64.906266 1.21863,6.75957 1.67591,22.6247 0.85934,29.81465 -0.85387,7.51844 -2.94621,16.84696 -5.32322,23.7331 -1.92717,5.583 -7.75144,18.4034 -8.3477,18.37502 -0.17706,-0.008 -1.92206,-1.83636 -3.87779,-4.06206 -1.95573,-2.22571 -3.80205,-4.06094 -4.10293,-4.07828 -0.30089,-0.0173 -1.75809,0.68136 -3.23823,1.55269 l -2.69117,1.58424 -2.92494,-1.65074 c -2.70785,-1.52821 -3.01821,-1.58963 -4.18145,-0.82744 -0.69108,0.45281 -2.21681,0.90935 -3.3905,1.01453 l -2.13399,0.19122 -5.32724,-7.10603 c -2.92999,-3.90833 -5.47988,-7.71417 -5.66642,-8.45743 -0.18655,-0.74327 -1.88361,-3.57686 -3.77125,-6.29689 -1.88764,-2.72001 -3.59265,-5.77348 -3.78891,-6.78548 -0.19625,-1.01199 -1.77291,-4.12654 -3.50368,-6.92121 -1.73076,-2.79466 -4.04634,-6.54328 -5.14573,-8.33025 -1.99215,-3.23808 -2.0235,-3.26011 -9.29998,-6.53545 l -7.3011,-3.28642 -0.66215,-2.62931 c -0.36418,-1.44613 -1.90947,-4.44154 -3.43396,-6.65649 -1.5245,-2.21494 -3.41713,-5.808 -4.20585,-7.98456 -0.78871,-2.17657 -2.14288,-4.71474 -3.00926,-5.64039 -1.08068,-1.15462 -1.9665,-3.12134 -2.82147,-6.26433 -1.15685,-4.25276 -1.36667,-4.61254 -2.92545,-5.01646 -1.11134,-0.28798 -2.46474,-1.45332 -4.00204,-3.44595 -1.27755,-1.65595 -2.42254,-3.01081 -2.54441,-3.01081 -0.80687,0 -7.95803,6.58241 -9.95954,9.16743 -1.33776,1.72775 -3.93395,4.75204 -5.76932,6.72065 -1.83538,1.9686 -5.55264,6.828 -8.26057,10.79866 -14.90256,21.85171 -16.619206,24.09415 -22.311905,29.14574 -3.027193,2.68628 -6.753781,6.45192 -8.281304,8.36809 -2.918467,3.66101 -20.167711,23.55909 -21.64585,24.96984 -0.472882,0.45132 -1.590609,1.70531 -2.483838,2.78664 -0.893228,1.08133 -4.007387,4.70422 -6.920353,8.05085 l -5.296301,6.0848 z m 31.334524,-97.57527 c 5.94533,-2.74037 11.131347,-9.12128 12.272687,-15.10038 0.23181,-1.21437 0.648636,-1.77793 1.315001,-1.77793 2.072796,0 8.128884,-2.253741 10.318751,-3.840081 3.08015,-2.23124 4.44398,-4.594214 4.4465,-7.704003 0.0102,-12.509082 -26.428851,-15.262172 -37.967566,-3.953548 -4.213738,4.129711 -5.817751,11.347141 -3.282945,14.771971 3.673691,4.963601 10.416254,5.861101 15.007685,1.997661 2.192258,-1.84466 2.188594,-5.648471 -0.0054,-5.648471 -1.486941,0 -2.374038,1.43824 -2.009947,3.2587 0.260785,1.303921 0.04906,1.830251 -1.09978,2.733931 -2.181294,1.7158 -4.747325,1.46127 -7.111612,-0.70544 -1.724595,-1.58048 -2.024196,-2.225461 -2.239449,-4.821141 -0.343548,-4.142733 1.29354,-7.789985 5.121629,-11.410435 10.47577,-9.907544 28.665955,-7.757492 28.665955,3.388273 0,4.852973 -3.138803,8.929542 -7.863018,10.212212 l -2.118908,0.5753 0.290586,-1.75246 c 0.443177,-2.67267 2.466968,-7.724991 3.998215,-9.981412 2.624942,-3.868065 0.07849,-2.89695 -3.844196,1.466027 -2.533731,2.81812 -4.638052,6.767865 -9.058017,17.001606 -2.351363,5.44423 -5.489811,9.70339 -8.136366,11.0418 -6.663981,3.3701 -15.246098,-0.91231 -10.963643,-5.47077 1.44416,-1.53724 0.97414,-3.35992 -0.993802,-3.85384 -1.834021,-0.46031 -2.887239,0.91383 -2.887239,3.767 0,7.38162 8.69194,10.1626 18.144921,5.80543 z m 129.617639,-7.57833 c 0.67239,0 5.41361,-4.37302 5.41361,-4.99319 0,-0.97396 -1.02476,-0.41803 -3.15363,1.71084 -4.57689,4.57689 -5.24757,1.8208 -1.51428,-6.2228 2.14736,-4.626631 2.61194,-5.265411 3.8294,-5.265411 0.76206,0 1.38557,-0.24618 1.38557,-0.54706 0,-0.30088 -0.49235,-0.547057 -1.09412,-0.547057 -0.60176,0 -1.09411,-0.132897 -1.09411,-0.295323 0,-0.162427 0.49235,-1.260411 1.09411,-2.439966 1.48148,-2.903942 1.3942,-3.282347 -0.75705,-3.282347 -1.73111,0 -1.93036,0.195135 -3.07235,3.008819 -0.85302,2.101708 -1.52216,3.008817 -2.21949,3.008817 -0.54906,0 -1.15043,0.246177 -1.33639,0.547057 -0.18595,0.30088 0.0457,0.54706 0.51477,0.54706 1.15781,0 1.12643,0.13703 -1.08299,4.7306 -1.77217,3.684511 -4.16761,6.307071 -5.00028,5.474401 -0.18552,-0.18552 0.56069,-2.30181 1.65825,-4.70287 2.1731,-4.753991 2.3269,-5.499011 1.33908,-6.486831 -0.92914,-0.929145 -2.06635,-0.818447 -4.39082,0.4274 -1.57175,0.8424 -1.95299,0.90334 -1.7113,0.27352 0.23784,-0.61981 -0.13542,-0.810337 -1.58757,-0.810337 -1.80339,0 -1.97405,0.171337 -3.4057,3.419107 -0.82894,1.88052 -2.51396,4.465361 -3.74448,5.744111 -3.83486,3.98516 -4.07855,2.94705 -0.91539,-3.899591 1.20352,-2.60502 2.18823,-4.85503 2.18823,-5.00002 0,-0.14498 -0.83429,-0.263607 -1.85397,-0.263607 -1.77488,0 -1.9397,0.180857 -3.86376,4.239697 -2.04898,4.322361 -4.30936,7.248521 -5.5993,7.248521 -1.01657,0 -0.95013,-0.22851 1.74975,-6.017641 l 2.42375,-5.19705 -1.71707,-0.17827 c -1.17774,-0.122276 -1.87947,0.11191 -2.23408,0.74556 -1.62179,2.89797 -4.27996,3.81442 -4.68343,1.61466 -0.35001,-1.90832 -1.7781,-3.002535 -3.91868,-3.002535 -3.52647,0 -8.25199,4.306555 -9.10424,8.297066 -0.31613,1.48019 -3.22175,4.72125 -3.75477,4.18823 -0.15993,-0.15994 0.70994,-2.46717 1.93305,-5.12718 1.22312,-2.660011 2.15148,-5.342231 2.06304,-5.960491 -0.22342,-1.561605 -2.74468,-1.756434 -5.05903,-0.39093 -1.80068,1.06243 -1.84335,1.06321 -2.11123,0.0388 -0.36091,-1.380111 -2.33007,-1.350859 -4.6593,0.0692 -1.00195,0.61086 -1.64739,0.82859 -1.43433,0.48385 0.518,-0.83813 -0.62953,-1.488411 -2.12282,-1.202951 -0.80623,0.154117 -1.52834,1.011661 -2.1813,2.590401 -1.53551,3.712501 -4.06153,7.367701 -5.56506,8.052761 -0.75705,0.34493 -1.50175,0.50184 -1.6549,0.3487 -0.15315,-0.15315 0.82292,-2.65142 2.16904,-5.551701 2.31647,-4.991 2.392,-5.302959 1.41084,-5.828058 -2.32546,-1.244545 -6.00178,-0.30923 -9.91881,2.523508 -2.84905,2.06039 -3.57131,1.91346 -2.33607,-0.47523 1.22359,-2.366173 0.25928,-3.065854 -2.21412,-1.606507 -1.06803,0.630157 -1.88378,0.879107 -1.81277,0.553227 0.071,-0.32588 -0.57116,-0.632413 -1.42706,-0.681184 -1.40831,-0.08025 -1.73848,0.277094 -3.47503,3.761054 -1.98158,3.975571 -4.76859,7.405611 -6.01727,7.405611 -0.95754,0 -1.00646,0.18364 1.47496,-5.537551 1.20353,-2.77487 2.18823,-5.23779 2.18823,-5.473153 0,-0.235361 -0.82242,-0.582217 -1.82759,-0.770793 -5.75577,-1.079783 -14.037085,5.718506 -14.037085,11.523307 0,3.0019 0.976655,3.87922 3.384145,3.03996 0.97121,-0.33856 2.33032,-1.14588 3.02025,-1.79403 l 1.25441,-1.17846 v 1.16229 c 0,2.53598 3.15814,2.50912 5.95512,-0.0507 l 1.30513,-1.19444 -0.62131,1.19492 c -0.91537,1.76048 -0.80948,1.89629 1.33331,1.71016 1.85193,-0.16087 2.04216,-0.37097 3.62088,-3.99919 0.91644,-2.10617 2.04455,-4.260351 2.5069,-4.787051 0.7969,-0.90782 0.88186,-0.8988 1.63293,0.17351 0.43576,0.62214 1.13602,0.999261 1.55613,0.83805 0.97264,-0.37324 0.95949,-0.10444 -0.0947,1.934081 -1.64682,3.18459 -0.88191,6.4914 1.50155,6.4914 0.58088,0 1.96103,-0.61488 3.06699,-1.36639 1.97398,-1.34137 2.01832,-1.34615 2.41959,-0.26141 0.22482,0.60775 0.76172,1.24044 1.19311,1.40598 0.84264,0.32335 3.78511,-0.98921 5.47594,-2.44267 0.98588,-0.84749 1.00609,-0.83254 0.41029,0.30353 -0.89798,1.71228 -0.82927,1.8139 1.22649,1.8139 1.76504,0 1.92652,-0.17264 3.39651,-3.6314 1.82915,-4.303831 4.2808,-7.856811 5.4214,-7.856811 0.44943,0 0.81715,0.0887 0.81715,0.19702 0,0.10837 -0.9442,2.26241 -2.09823,4.786761 -3.13237,6.85181 -3.08176,6.50443 -0.94767,6.50443 1.78605,0 1.92165,-0.16112 4.36819,-5.19026 1.47507,-3.032191 3.09697,-5.565101 3.90073,-6.091741 0.7567,-0.49581 1.46308,-0.80659 1.56972,-0.69061 0.10665,0.11598 -0.77773,2.41114 -1.96529,5.100351 -2.50455,5.67151 -2.48394,7.41932 0.0875,7.41932 1.01533,0 2.3124,-0.61522 3.50532,-1.66261 l 1.89362,-1.66262 0.72395,1.49049 c 1.66031,3.41831 7.11167,2.31537 10.30007,-2.08393 0.94571,-1.30487 1.85512,-3.04948 2.02093,-3.8769 0.22785,-1.137121 0.62045,-1.504411 1.60805,-1.504411 1.41582,0 1.39498,0.11656 -0.89768,5.019941 -1.01744,2.17604 -0.3136,4.28004 1.4318,4.28004 1.47369,0 4.58721,-1.5653 4.58721,-2.30618 0,-0.23601 0.28721,-0.42911 0.63823,-0.42911 0.35103,0 0.48278,0.15546 0.29278,0.34546 -0.67795,0.67794 0.77137,2.38983 2.02328,2.38983 1.15954,0 3.73907,-1.5763 4.89289,-2.98996 0.44116,-0.54051 0.24461,0.2788 -0.52043,2.16937 -0.25711,0.63538 0.0956,0.82059 1.56275,0.82059 1.83427,0 1.95591,-0.13549 3.80662,-4.2397 2.04349,-4.531741 4.42114,-7.795571 5.67894,-7.795571 1.10214,0 0.99941,0.45841 -1.16921,5.217141 -1.06764,2.34278 -1.86771,4.77373 -1.77794,5.4021 0.2504,1.75261 2.82447,1.79144 5.40823,0.0816 l 2.14029,-1.41637 v 1.27085 c 0,2.11764 1.99108,3.90306 3.73737,3.35132 0.40072,-0.1266 0.96011,-0.23018 1.24311,-0.23018 z m -44.90369,-4.2397 c 0.0148,-1.8466 1.56044,-5.3358 3.81606,-8.614221 2.76629,-4.020675 4.40261,-3.008437 2.79816,1.73097 -2.10377,6.214361 -6.64663,10.942001 -6.61422,6.883251 z m -58.89866,-0.96318 c -0.77214,-2.01217 4.92308,-10.114741 7.10956,-10.114741 0.7564,0 0.5718,0.6856 -1.06786,3.96617 -2.10183,4.205261 -3.16112,5.659951 -4.73488,6.502191 -0.72036,0.38553 -1.05827,0.29409 -1.30682,-0.35362 z m 24.20991,-0.1683 c -0.51791,-0.83799 2.25739,-5.925541 4.33102,-7.939421 2.46317,-2.3922 3.76808,-2.678423 2.99991,-0.65801 -2.2867,6.014491 -6.13674,10.529671 -7.33093,8.597431 z m 35.58636,97.20636 c -0.95676,-0.55623 -2.42062,-3.43097 -9.71401,-19.0765 -2.53076,-5.42889 -3.56649,-7.08068 -5.02544,-8.01468 -2.66331,-1.705 -3.48118,-3.25409 -5.66366,-10.72726 l -1.95559,-6.69624 0.95364,-2.83465 c 0.94795,-2.81775 0.94484,-2.86284 -0.52131,-7.56531 -0.81122,-2.60187 -1.39938,-4.9486 -1.30702,-5.21495 0.19714,-0.56853 8.32857,14.03138 13.75163,24.69093 3.65258,7.17951 3.75882,7.50032 3.09328,9.34084 -0.59895,1.65636 -0.53457,2.40566 0.49156,5.72114 0.64942,2.09834 1.84721,4.78789 2.66174,5.97679 1.2128,1.7702 1.49122,2.80549 1.53759,5.71749 0.043,2.70309 0.40893,4.24466 1.52563,6.42793 0.80795,1.57963 1.40331,2.86457 1.32302,2.85541 -0.0803,-0.009 -0.59827,-0.27958 -1.15106,-0.60094 z m 25.7316,-2.33543 c -1.0844,-1.63322 -3.29662,-4.40641 -4.91603,-6.16264 -1.61942,-1.75623 -3.85139,-4.21288 -4.95994,-5.45922 -1.32332,-1.48781 -2.6505,-2.38518 -3.8644,-2.61291 -2.7342,-0.51294 -5.32824,-4.27415 -11.91552,-17.27686 -3.1248,-6.16807 -6.13523,-11.89935 -6.68984,-12.73616 -1.9068,-2.87702 -0.58085,-1.91917 2.96922,2.14493 9.79268,11.21061 9.84704,11.2819 9.84704,12.91606 0,1.3106 0.99153,2.59161 5.33381,6.89103 4.07422,4.03402 6.08665,6.57305 8.52175,10.75175 1.75337,3.00882 4.30638,7.38976 5.67337,9.73542 2.88625,4.95262 2.88661,6.15534 5.4e-4,1.8086 z m -168.647784,-3.47492 -0.50198,-2.59852 -3.00882,-0.27353 -3.00881,-0.27353 2.53971,-1.52193 2.53971,-1.52192 -0.76275,-2.53444 c -0.41952,-1.39395 -0.65554,-2.64165 -0.52451,-2.77269 0.13104,-0.13104 1.21957,0.55037 2.41898,1.51423 l 2.18073,1.75248 2.50552,-1.72384 c 1.37804,-0.94812 2.50552,-1.62023 2.50552,-1.49358 0,0.12665 -0.51486,1.39419 -1.14412,2.81675 l -1.14412,2.58647 1.82794,1.56377 c 1.00537,0.86007 2.01258,1.57377 2.23824,1.586 0.22566,0.0122 0.41063,0.20686 0.41104,0.43252 4.1e-4,0.22566 -1.32513,0.32762 -2.94564,0.22657 l -2.94638,-0.18374 -0.95809,2.50873 c -0.52695,1.3798 -1.12956,2.50873 -1.33914,2.50873 -0.20958,0 -0.60694,-1.16934 -0.88303,-2.59853 z m 235.394174,-0.63948 -0.97985,-2.77963 h -3.06154 -3.06154 l 2.12669,-1.68859 c 1.16968,-0.92872 2.19442,-1.75549 2.2772,-1.83727 0.0828,-0.0818 -0.34803,-1.31173 -0.95735,-2.73323 -0.60933,-1.4215 -1.10786,-2.69905 -1.10786,-2.839 0,-0.13995 1.12748,0.52127 2.50551,1.46939 l 2.50553,1.72385 2.18072,-1.75249 c 1.19941,-0.96386 2.27848,-1.65473 2.39794,-1.53527 0.11947,0.11947 -0.13036,1.3721 -0.55517,2.78364 l -0.77239,2.56643 2.57039,1.51098 2.57038,1.51097 -2.94508,0.27353 -2.94508,0.27353 -0.88432,2.9164 -0.88433,2.9164 z M 88.958965,185.0989 c 1.90993,-2.46432 4.885421,-6.41429 6.612203,-8.7777 3.264031,-4.46742 11.291082,-12.6832 10.620412,-10.87012 -0.7018,1.89725 -7.607579,11.24285 -8.522232,11.53315 -0.495356,0.15722 -2.368853,1.94709 -4.163328,3.97749 -1.794476,2.0304 -4.333004,4.80002 -5.641171,6.1547 -1.888294,1.95544 -1.662804,1.53965 1.094116,-2.01752 z m 17.439905,-0.38079 c -0.01,-0.26669 0.94202,-2.48228 2.11456,-4.92352 2.75855,-5.7433 5.56306,-12.74979 5.93714,-14.83271 0.38228,-2.12858 6.29693,-11.47631 8.83587,-13.96453 1.08272,-1.0611 2.66962,-2.86286 3.52644,-4.00391 0.85681,-1.14105 1.67558,-1.9569 1.81949,-1.81299 0.14391,0.1439 -0.49558,1.98693 -1.42108,4.0956 -1.18089,2.69056 -1.68273,4.69353 -1.68273,6.71624 0,2.49283 -0.41605,3.6171 -3.07917,8.32055 -1.83076,3.23338 -3.50427,5.54943 -4.12767,5.71245 -0.57667,0.1508 -1.53265,1.16572 -2.1244,2.25538 -1.39407,2.56707 -4.27562,6.5375 -6.00368,8.27236 -0.74926,0.7522 -1.90569,2.10617 -2.56986,3.00882 -0.66417,0.90264 -1.21538,1.42297 -1.22491,1.15626 z M 16.009376,173.12467 c -0.16351,-3.12853 -0.19347,-3.18096 -2.08059,-3.6406 -3.55898,-0.86684 -3.64911,-1.03045 -1.09412,-1.98614 l 2.46176,-0.92081 0.16965,-2.9829 0.16964,-2.98291 1.8219,2.17009 1.8219,2.17009 2.11139,-0.75594 c 1.16126,-0.41577 2.45532,-0.88447 2.87569,-1.04156 0.43888,-0.16402 0.14773,0.62173 -0.68382,1.84547 -0.79647,1.17211 -1.44813,2.38714 -1.44813,2.70006 0,0.31292 0.79155,1.52923 1.75899,2.70291 1.71499,2.08058 1.72526,2.12422 0.41029,1.74453 -4.41809,-1.27572 -4.73492,-1.19941 -6.48638,1.56236 l -1.64228,2.5896 z m 244.650074,-0.76198 c -1.4466,-2.34405 -1.94429,-2.51332 -4.89852,-1.66605 -1.03118,0.29573 -1.96789,0.44467 -2.08158,0.33097 -0.1137,-0.11369 0.59218,-1.11663 1.56862,-2.22873 1.92069,-2.18755 1.95236,-1.86327 -0.55915,-5.72537 -0.74667,-1.14822 -0.75433,-1.29718 -0.0531,-1.03467 3.4249,1.28222 4.91865,1.73139 5.06666,1.52356 0.0947,-0.13293 0.99692,-1.21265 2.005,-2.39938 l 1.83288,-2.15769 -0.2575,3.10515 -0.2575,3.10515 2.36918,0.9048 c 1.30305,0.49764 2.36919,1.08958 2.36919,1.31542 0,0.22584 -1.1078,0.57675 -2.46176,0.77979 -2.30983,0.34638 -2.46513,0.47682 -2.5163,2.11358 -0.03,0.95942 -0.21462,2.3053 -0.41029,2.99083 -0.33445,1.17174 -0.43724,1.11439 -1.71578,-0.95736 z m -244.790804,-22.99707 0.34154,-3.01394 -2.64511,-1.3238 -2.64511,-1.32381 2.68239,-0.41566 c 3.06754,-0.47534 3.58871,-1.0401 3.60039,-3.90148 0.004,-1.1283 0.20551,-2.05146 0.44643,-2.05146 0.24092,0 0.98366,1.12304 1.65053,2.49565 0.90051,1.85352 1.4564,2.42406 2.16048,2.2174 0.52139,-0.15304 1.9327,-0.44432 3.13622,-0.64729 l 2.18823,-0.36904 -2.12162,2.21273 -2.12163,2.21272 1.39929,2.5036 c 0.76961,1.37699 1.28373,2.50361 1.14248,2.50361 -0.14124,0 -1.2219,-0.49235 -2.40145,-1.09411 -1.17955,-0.60177 -2.39731,-1.09412 -2.70613,-1.09412 -0.30882,0 -1.43606,0.92316 -2.50498,2.05147 l -1.94348,2.05147 z m 244.649844,-0.38351 -2.02981,-2.02981 -2.48894,1.20922 c -1.36891,0.66507 -2.57871,1.20922 -2.68844,1.20922 -0.10973,0 0.44998,-1.218 1.2438,-2.70668 l 1.4433,-2.70668 -1.88354,-1.94331 c -1.99217,-2.0554 -1.74868,-2.25325 1.76814,-1.43677 l 2.06939,0.48044 1.4679,-2.81849 c 1.29014,-2.47718 1.48801,-2.65287 1.63402,-1.45084 0.59215,4.87506 0.56979,4.83821 3.17242,5.2285 1.34351,0.20147 2.44273,0.54714 2.44273,0.76817 0,0.22102 -1.01272,0.85853 -2.25048,1.41668 l -2.25049,1.01483 0.34056,2.89766 c 0.18731,1.59372 0.27277,2.89766 0.18991,2.89766 -0.0829,0 -1.06408,-0.91341 -2.18047,-2.0298 z M 27.331696,127.71189 c -2.46616,-1.98299 -3.3174,-2.06612 -5.55905,-0.54289 -1.12066,0.76151 -2.11573,1.3064 -2.21127,1.21086 -0.0955,-0.0955 0.20965,-1.25836 0.67819,-2.58404 l 0.85189,-2.41033 -2.32053,-1.98142 -2.32053,-1.98144 2.841,0.27299 c 3.11301,0.29912 2.7763,0.61981 4.74157,-4.51599 0.33911,-0.8862 0.57569,-0.54834 1.24494,1.77793 l 0.82627,2.87206 3.07552,0.0287 c 3.05637,0.0285 3.06719,0.0345 1.73757,0.95735 -3.63592,2.52366 -3.57005,2.38798 -2.57584,5.30585 0.49598,1.45561 0.84096,2.70585 0.76661,2.77829 -0.0743,0.0725 -0.87369,-0.46211 -1.77634,-1.18791 z m 229.764254,-1.09412 c -2.53251,-2.03634 -3.40083,-2.11276 -5.53249,-0.48685 -1.05856,0.8074 -2.0342,1.35845 -2.16809,1.22456 -0.13389,-0.13389 0.12845,-1.29749 0.58299,-2.58579 0.45453,-1.28829 0.82643,-2.41187 0.82643,-2.49686 0,-0.085 -1.11047,-0.8541 -2.46772,-1.70915 l -2.46772,-1.55465 3.10732,-0.27353 3.10733,-0.27353 0.90245,-2.70666 c 0.97758,-2.93201 1.21707,-2.86225 2.15288,0.62708 0.61374,2.28844 0.62637,2.29748 3.44171,2.46176 l 2.82571,0.16488 -2.0149,1.36765 c -2.24616,1.52462 -2.40554,2.23167 -1.16974,5.18936 0.46895,1.12236 0.77667,2.11506 0.68383,2.20601 -0.0928,0.091 -0.90734,-0.42847 -1.80999,-1.15428 z m -221.901264,-20.07414 -1.98405,-2.30516 -2.54381,1.23088 c -1.3991,0.67699 -2.68371,1.23088 -2.85469,1.23088 -0.17098,0 0.34088,-1.11213 1.13747,-2.47141 l 1.44834,-2.47141 -1.97573,-2.411121 -1.97572,-2.41111 2.90436,0.7731 c 1.59739,0.4252 2.9095,0.77602 2.91578,0.77959 0.006,0.004 0.60828,-1.0861 1.33777,-2.42149 0.72949,-1.33539 1.52442,-2.305569 1.76651,-2.155943 0.2421,0.14962 0.44017,1.360613 0.44017,2.691093 0,2.19166 0.14142,2.45108 1.50441,2.75979 5.20327,1.178501 5.02832,0.964961 1.89497,2.312881 -3.05716,1.31516 -2.97524,1.06826 -1.98527,5.98338 0.13635,0.67699 0.18168,1.22195 0.10072,1.21104 -0.081,-0.0109 -1.04,-1.05716 -2.13123,-2.32499 z m 205.984544,-1.87281 0.35741,-2.85 -2.88602,-1.24153 -2.88601,-1.241531 2.98395,-0.56589 c 3.24126,-0.61469 3.66785,-1.19725 3.80861,-5.201025 l 0.0673,-1.914702 1.52484,2.735287 c 0.83865,1.50441 1.75606,2.70507 2.03868,2.66814 0.28262,-0.0369 1.62165,-0.23402 2.97561,-0.43797 l 2.46176,-0.37082 -2.06739,2.11852 -2.06739,2.118511 1.43034,2.55915 c 0.78669,1.40754 1.2764,2.55916 1.08824,2.55916 -0.18815,0 -1.34722,-0.51279 -2.57573,-1.13952 l -2.23363,-1.13952 -2.18899,2.09687 -2.18899,2.09687 z M 47.331799,87.802283 c -1.295403,-2.468083 -1.395753,-2.534108 -3.371283,-2.218204 -1.11988,0.179074 -2.4758,0.494305 -3.01316,0.700508 -0.79548,0.305252 -0.72814,0.04092 0.36247,-1.42281 0.73672,-0.988747 1.55581,-2.096309 1.82022,-2.461251 0.30802,-0.425141 -0.0567,-1.51488 -1.01517,-3.033189 -0.83815,-1.32772 -1.1698,-2.247887 -0.75426,-2.092725 5.093485,1.901933 4.64657,1.929745 6.75449,-0.420359 l 1.93462,-2.156901 -0.11809,2.983259 -0.118089,2.983258 2.700129,1.178997 c 2.85228,1.245432 2.798236,1.344772 -1.163412,2.138471 -1.564033,0.313343 -1.730897,0.568951 -2.188231,3.351976 l -0.495087,3.012762 z M 228.56288,86.411012 c -0.46625,-2.929194 -0.49336,-2.962668 -2.79091,-3.447345 -1.27604,-0.269191 -2.32007,-0.680272 -2.32007,-0.913515 0,-0.233249 1.06507,-0.830844 2.36684,-1.327994 l 2.36685,-0.903909 -0.25044,-3.107506 -0.25044,-3.107507 2.12329,2.368957 2.12329,2.368956 2.61411,-1.125313 2.6141,-1.125314 -1.4519,2.477476 -1.45189,2.477477 1.70984,2.127671 c 1.66952,2.077491 2.17196,3.08906 1.25187,2.520416 -0.25188,-0.155671 -1.49665,-0.516417 -2.76616,-0.801653 l -2.30819,-0.518616 -1.55468,2.497816 -1.55468,2.497822 z M 62.957509,71.825298 61.98193,68.953245 l -3.101616,-0.01822 -3.101617,-0.01822 1.367644,-1.139215 c 0.752204,-0.626572 1.791286,-1.436612 2.309072,-1.800093 0.88612,-0.622043 0.877469,-0.829192 -0.147267,-3.526078 l -1.088693,-2.865209 2.516024,1.731071 2.516023,1.731071 2.112391,-1.697563 c 1.161815,-0.933658 2.238139,-1.697564 2.391831,-1.697564 0.153693,0 -0.0779,1.169335 -0.514646,2.598524 -0.868623,2.842435 -0.861728,2.856528 2.51729,5.146385 l 1.337948,0.906683 -2.809537,0.386381 -2.809536,0.386376 -0.772076,2.80987 -0.772076,2.809869 z m 150.021131,-0.714123 -0.82558,-2.978516 -2.96674,-0.273529 -2.96674,-0.273529 2.54376,-1.5243 2.54376,-1.524294 -0.75933,-2.852168 c -0.41763,-1.568688 -0.76226,-2.931628 -0.76582,-3.028752 -0.004,-0.09713 0.91121,0.579853 2.03285,1.504408 2.46227,2.029612 2.73929,2.046948 5.26959,0.329843 2.21469,-1.502926 2.36135,-1.309913 1.17046,1.540307 -0.45132,1.080166 -0.81477,2.15648 -0.80766,2.391802 0.007,0.235328 1.01438,1.166393 2.23837,2.069038 l 2.22544,1.641174 -3.15151,0.273528 -3.1515,0.273529 -0.90189,2.704987 -0.90188,2.704988 z M 81.362676,60.610614 C 81.077812,56.58213 80.693887,55.87653 78.597485,55.528579 74.891021,54.913407 74.79397,54.705476 77.553121,53.291031 c 1.914472,-0.981427 2.556429,-1.599843 2.365838,-2.279086 -0.143862,-0.512708 -0.42893,-1.793808 -0.633485,-2.846894 l -0.371919,-1.914702 2.148387,2.067391 2.148386,2.067386 2.559152,-1.430337 c 1.407534,-0.786685 2.559153,-1.292785 2.559153,-1.124674 0,0.168116 -0.551208,1.440217 -1.224906,2.826893 l -1.224906,2.521225 2.305327,2.150386 c 1.827724,1.704883 2.053158,2.095466 1.088141,1.885308 -4.528791,-0.986279 -4.711067,-0.928975 -6.163781,1.937821 -0.74965,1.479359 -1.429553,2.689746 -1.510896,2.689746 -0.08134,0 -0.187064,-0.553896 -0.234936,-1.23088 z M 194.49797,58.667175 c -1.30264,-2.803118 -1.36414,-2.850493 -3.28235,-2.528681 -1.07516,0.180381 -2.44718,0.456684 -3.04895,0.614012 -0.77948,0.20379 -0.42618,-0.405167 1.22856,-2.117584 2.06829,-2.140374 2.24532,-2.521455 1.61634,-3.479402 -0.38849,-0.59167 -0.99849,-1.754665 -1.35554,-2.584432 l -0.64919,-1.508659 2.64754,1.34161 2.64754,1.341609 1.82644,-1.884416 c 1.00455,-1.036423 1.99841,-1.884412 2.20858,-1.884412 0.21017,0 0.16776,0.92316 -0.0943,2.051467 -0.73014,3.144148 -0.67675,3.270868 2.05148,4.869721 1.40469,0.823202 2.32785,1.552742 2.05147,1.621206 -0.27638,0.06846 -1.63341,0.276242 -3.01562,0.461744 l -2.5131,0.337267 -0.49572,3.102791 -0.49571,3.102791 z M 101.5165,50.05077 c 0.17171,-3.40701 -0.004,-3.700386 -2.766347,-4.611954 -1.218609,-0.40218 -2.215655,-0.91061 -2.215655,-1.129849 0,-0.219234 0.92316,-0.571128 2.051467,-0.781975 2.884405,-0.539022 3.415125,-1.161678 3.447805,-4.045082 l 0.0287,-2.531543 0.92866,1.33795 c 2.36267,3.40398 2.3257,3.385976 5.16835,2.517287 1.42919,-0.436744 2.59853,-0.668335 2.59853,-0.514645 0,0.15369 -0.76391,1.230016 -1.69757,2.391829 l -1.69756,2.112393 1.72384,2.505524 c 1.92127,2.792467 1.89535,2.842397 -0.87485,1.684933 -2.78259,-1.16264 -3.02989,-1.088766 -5.03602,1.504408 l -1.79866,2.324996 z m 72.55567,-0.140764 c -0.8317,-1.260606 -1.60081,-2.292013 -1.70916,-2.292013 -0.10834,0 -1.25104,0.371896 -2.53933,0.82643 -1.28829,0.454533 -2.46136,0.707411 -2.60683,0.561948 -0.14546,-0.145468 0.38529,-1.116375 1.17946,-2.157574 1.75277,-2.298014 1.75178,-2.272943 0.17428,-4.376216 -2.21278,-2.950298 -2.18748,-3.015759 0.79658,-2.061494 l 2.81227,0.89933 0.88186,-1.329738 c 0.48503,-0.731362 1.30449,-1.835461 1.82102,-2.453554 0.9101,-1.08905 0.93971,-1.030509 0.95735,1.892092 l 0.0182,3.015907 2.87206,0.831594 2.87205,0.831599 -2.84772,1.038567 -2.84772,1.038573 -0.1611,3.013281 -0.1611,3.013282 z m -50.68728,-4.890537 c 0.77779,-3.349339 0.61664,-3.832008 -1.71736,-5.143793 -1.85382,-1.041904 -2.05678,-1.311953 -1.23088,-1.637726 0.54393,-0.214551 1.78436,-0.4074 2.75649,-0.428543 1.46719,-0.03195 1.82541,-0.294077 2.10825,-1.542862 1.18853,-5.24752 1.00391,-5.090252 2.16973,-1.848213 l 1.05421,2.93165 2.95862,-0.305357 2.95863,-0.305362 -2.07956,2.129658 -2.07955,2.129657 1.10776,2.665583 1.10777,2.665582 -2.59829,-1.3855 -2.59828,-1.3855 -2.00009,1.756099 c -1.10005,0.965852 -2.08868,1.756094 -2.19696,1.756094 -0.10829,0 0.0175,-0.92316 0.27951,-2.051467 z m 28.69064,0.182624 -2.14794,-1.803299 -2.58233,1.522593 -2.58233,1.522599 1.31057,-2.828732 1.31057,-2.828726 -2.3116,-2.0819 -2.31159,-2.081899 3.0603,0.32929 3.06029,0.329296 0.97942,-2.564574 c 1.06181,-2.780322 1.51283,-2.570422 2.15461,1.002746 0.35986,2.003566 0.42461,2.051467 2.77315,2.051467 3.19162,0 3.4389,0.65514 0.80584,2.135002 -2.34277,1.316708 -2.38779,1.445715 -1.63611,4.687864 0.27708,1.19508 0.45007,2.22658 0.38443,2.292221 -0.0656,0.06564 -1.08592,-0.692137 -2.26728,-1.683948 z"
   id="path1" /></svg>
