<?xml version="1.0" encoding="UTF-8" standalone="no"?>
<!-- Generator: Adobe Illustrator 16.0.0, SVG Export Plug-In . SVG Version: 6.00 Build 0)  -->

<svg
   version="1.1"
   id="Layer_1"
   x="0px"
   y="0px"
   width="280px"
   height="280px"
   viewBox="0 0 280 280"
   enable-background="new 0 0 280 280"
   xml:space="preserve"
   sodipodi:docname="thehill.svg"
   inkscape:version="1.1.2 (0a00cf5339, 2022-02-04)"
   xmlns:inkscape="http://www.inkscape.org/namespaces/inkscape"
   xmlns:sodipodi="http://sodipodi.sourceforge.net/DTD/sodipodi-0.dtd"
   xmlns="http://www.w3.org/2000/svg"
   xmlns:svg="http://www.w3.org/2000/svg"><defs
   id="defs5011" /><sodipodi:namedview
   id="namedview5009"
   pagecolor="#ffffff"
   bordercolor="#000000"
   borderopacity="0.25"
   inkscape:showpageshadow="2"
   inkscape:pageopacity="0.0"
   inkscape:pagecheckerboard="0"
   inkscape:deskcolor="#d1d1d1"
   showgrid="false"
   inkscape:zoom="0.73839285"
   inkscape:cx="-21.668682"
   inkscape:cy="349.4075"
   inkscape:window-width="1600"
   inkscape:window-height="828"
   inkscape:window-x="0"
   inkscape:window-y="0"
   inkscape:window-maximized="1"
   inkscape:current-layer="Layer_1"
   inkscape:pageshadow="2"
   showguides="false" />


<path
   style="fill:#0256ec;stroke-width:0.376065;fill-opacity:1"
   d="m 17.190764,211.52993 c -0.0983,-0.25854 -0.135292,-30.59289 -0.08221,-67.40967 l 0.09651,-66.939574 20.025462,-0.09731 20.025471,-0.09731 v 2.44772 2.44772 H 39.76897 22.28194 v 62.426794 62.42681 h 17.48703 17.487031 v 2.63246 2.63245 H 37.312748 c -15.608575,0 -19.9821,-0.10217 -20.121975,-0.47008 z m 209.294516,-2.15908 v -2.63575 h 17.48703 17.48703 V 144.30829 81.881498 h -17.48703 -17.48703 v -2.44772 -2.44772 l 20.02547,0.09731 20.02547,0.09731 v 67.315642 67.31565 l -20.02547,0.0973 -20.02547,0.0973 z m -44.16191,-16.58739 c -3.34791,-0.68446 -7.22364,-2.76067 -9.58058,-5.13229 -8.5735,-8.62688 -6.44131,-24.05012 4.08985,-29.58409 4.69151,-2.46531 9.68849,-3.04904 14.83449,-1.73292 8.78438,2.24666 13.83438,8.83892 13.83438,18.05935 0,10.73561 -7.18706,18.11899 -18.127,18.6221 -1.7581,0.0808 -4.03112,-0.0236 -5.05114,-0.23215 z m 7.00698,-4.89795 c 5.47286,-1.16001 9.23638,-5.29235 10.04955,-11.03442 0.926,-6.53875 -1.7773,-12.39414 -6.84432,-14.82492 -7.81112,-3.7472 -16.34704,0.0832 -18.53956,8.31937 -1.75162,6.57989 0.97875,13.60742 6.34291,16.32565 3.03175,1.5363 5.7441,1.90261 8.99142,1.21432 z m -151.629744,-13.492 v -18.05113 h 3.109272 3.109272 l 3.915743,5.17089 c 11.047364,14.58852 15.567308,20.40153 15.863296,20.40153 0.179838,0 0.326972,-5.75379 0.326972,-12.78621 v -12.78621 h 3.008525 3.008516 v 17.45626 c 0,9.60096 -0.102715,17.72396 -0.228269,18.05114 -0.181551,0.47311 -0.816515,0.59094 -3.102534,0.57576 l -2.874272,-0.0191 -9.777693,-13.12601 c -5.377733,-7.21931 -9.989231,-13.13375 -10.247769,-13.1432 -0.367438,-0.0135 -0.470085,2.85683 -0.470085,13.1451 v 13.16228 h -2.820491 -2.820483 z m 39.486832,17.91875 c 0,-0.0727 2.803095,-7.05351 6.229091,-15.51268 3.425995,-8.45917 6.682963,-16.52262 7.237711,-17.91876 l 1.00861,-2.53844 h 3.951778 3.951783 l 1.006209,2.53844 c 0.55342,1.39614 3.81039,9.45935 7.23772,17.91823 3.42731,8.45888 6.23148,15.43959 6.23148,15.51268 0,0.0731 -1.48076,0.13248 -3.29057,0.13197 l -3.29057,-7.5e-4 -1.36299,-3.47768 -1.363,-3.47766 H 95.614628 86.49457 l -1.362999,3.47766 -1.36299,3.47768 -3.290576,7.5e-4 c -1.809809,3.7e-4 -3.290567,-0.0586 -3.290567,-0.13144 z m 25.572422,-12.38517 c 0,-0.26591 -0.9056,-2.76204 -2.01247,-5.54697 -1.106849,-2.78492 -2.643049,-6.71348 -3.413779,-8.73013 -0.77072,-2.01665 -1.545091,-3.66663 -1.72084,-3.66663 -0.175749,0 -0.85497,1.39614 -1.509391,3.10253 -0.654421,1.7064 -2.189787,5.67292 -3.41192,8.81449 -1.222135,3.14158 -2.222066,5.89155 -2.222066,6.11106 0,0.26743 2.357434,0.39911 7.145234,0.39911 5.570932,0 7.145232,-0.10652 7.145232,-0.48346 z m 22.18785,-3.08917 v -15.6067 h -6.01704 -6.01704 v -2.44442 -2.44442 h 15.04259 15.04261 v 2.44442 2.44442 h -6.01704 -6.01704 v 15.6067 15.60671 h -3.00853 -3.00851 z m 26.70062,-2.44441 v -18.05113 h 2.82048 2.82049 v 18.05113 18.05112 h -2.82049 -2.82048 z m 62.4268,-0.0147 v -18.06577 l 3.25694,0.10866 3.25692,0.10866 9.54126,12.59818 c 5.24768,6.929 9.70509,12.65458 9.90534,12.72353 0.23008,0.0792 0.36411,-4.59235 0.36411,-12.69219 v -12.81757 h 3.00851 3.00853 v 18.05113 18.05113 h -2.95408 -2.95408 l -9.91339,-13.16229 C 225.14283,172.04303 220.54915,166.12 220.387,166.12 c -0.16216,0 -0.29483,5.92303 -0.29483,13.16228 v 13.16229 h -3.00851 -3.00853 V 174.3788 Z m 5.82901,-31.44691 c -1.44785,-0.30958 -3.86589,-1.07582 -5.37342,-1.70275 -2.94531,-1.22487 -7.22996,-4.14093 -7.21659,-4.91151 0.01,-0.56969 5.5061,-8.31529 6.02845,-8.49569 0.20299,-0.0701 0.96587,0.39655 1.69529,1.03699 3.31825,2.91347 8.92093,4.72596 13.77291,4.45562 2.42114,-0.1349 3.10702,-0.32685 4.23074,-1.18394 1.08246,-0.82564 1.34114,-1.27418 1.34114,-2.32555 0,-2.09793 -0.96345,-2.52111 -11.09393,-4.87288 -7.58125,-1.75996 -11.63732,-4.34532 -13.77096,-8.77764 -1.29309,-2.6862 -1.24119,-7.75479 0.10901,-10.64688 2.02758,-4.34301 5.74461,-7.23198 11.05105,-8.589135 6.88615,-1.761181 16.35303,-0.251952 21.97826,3.503825 3.27732,2.18816 3.22823,1.85265 0.74491,5.09085 -1.21509,1.58445 -2.68362,3.4442 -3.26339,4.13277 l -1.05414,1.25197 -2.20926,-1.33092 c -3.54946,-2.13829 -6.65091,-3.02438 -10.64014,-3.03991 -3.14092,-0.0122 -3.53419,0.0677 -4.41877,0.89828 -1.69116,1.58789 -1.12109,3.68874 1.24974,4.60551 0.5367,0.20753 3.14354,0.87753 5.793,1.4889 10.53454,2.43087 14.74345,4.83941 16.92056,9.68276 1.1326,2.51962 1.09855,7.69379 -0.0702,10.66861 -1.04155,2.65107 -3.82643,5.7834 -6.3753,7.17066 -4.42449,2.40812 -13.072,3.24935 -19.42899,1.89006 z M 37.700606,119.86404 V 96.92408 h 6.169789 6.169806 l 1.414429,1.974347 c 0.77794,1.085894 4.897621,6.688833 9.154852,12.450983 l 7.740424,10.47666 0.09909,-12.451 0.09909,-12.45099 h 6.011973 6.011972 v 22.93996 22.93998 h -5.8023 -5.802291 l -6.513842,-8.86625 c -3.582602,-4.87644 -7.823622,-10.67197 -9.424482,-12.87895 -1.600861,-2.20698 -3.081619,-4.06968 -3.290576,-4.13933 -0.250956,-0.0837 -0.37991,4.2879 -0.37991,12.87895 v 13.00558 h -5.829007 -5.829008 z m 54.905497,0 V 96.92408 h 17.487027 17.48704 v 5.07145 5.07144 l -11.56401,0.0995 -11.564,0.0994 -0.10813,3.4786 -0.10813,3.4786 h 11.26473 c 7.04044,0 11.31173,0.13856 11.39008,0.36949 0.0689,0.20322 0.0736,2.57243 0.0104,5.26492 l -0.11491,4.89541 h -11.26104 -11.26105 v 3.75522 3.75521 l 11.564,0.0995 11.564,0.0995 0.10463,5.17089 0.10463,5.17089 H 110.10373 92.606086 Z m 57.770007,22.28186 c -0.10708,-0.36196 -3.24923,-10.59477 -6.98254,-22.73959 -3.73332,-12.14481 -6.78785,-22.17164 -6.78785,-22.281852 0,-0.110203 2.76385,-0.200378 6.14189,-0.200378 h 6.14188 l 2.92563,10.81187 c 1.6091,5.94653 3.18924,11.82725 3.51142,13.06826 0.32219,1.24102 0.69394,2.38472 0.82611,2.54155 0.13217,0.15684 0.52767,-0.6893 0.87887,-1.88033 0.35121,-1.19101 2.12671,-7.15775 3.94556,-13.2594 l 3.30701,-11.093916 5.12346,-0.104436 c 4.63834,-0.09455 5.1419,-0.04115 5.31826,0.564093 0.10715,0.367694 1.57121,5.322339 3.25346,11.010329 1.68227,5.68798 3.33134,11.27255 3.6646,12.41015 0.33328,1.13759 0.72011,2.2056 0.85963,2.37334 0.13952,0.16774 0.59335,-1.01686 1.0085,-2.63246 0.41516,-1.61559 1.81157,-6.82971 3.10314,-11.58694 1.29158,-4.75721 2.54079,-9.411024 2.77605,-10.341779 l 0.42774,-1.692297 6.15495,-0.103541 c 4.86249,-0.08178 6.11875,-0.0034 5.98252,0.376068 -0.0949,0.263785 -3.27685,10.591049 -7.07111,22.949489 l -6.89866,22.46989 h -5.12932 -5.12931 l -3.49897,-11.564 c -1.92442,-6.3602 -3.76677,-12.53707 -4.09411,-13.72638 -0.32733,-1.18931 -0.70195,-2.16238 -0.8325,-2.16238 -0.13054,0 -2.08306,6.17648 -4.33893,13.72551 l -4.10157,13.72551 -5.14555,7.5e-4 c -4.57608,7.5e-4 -5.1671,-0.072 -5.34026,-0.65725 z"
   id="path297" /></svg>
