<?xml version="1.0" encoding="UTF-8" standalone="no"?>
<!-- Generator: Adobe Illustrator 16.0.0, SVG Export Plug-In . SVG Version: 6.00 Build 0)  -->

<svg
   version="1.1"
   id="Layer_1"
   x="0px"
   y="0px"
   width="280px"
   height="280px"
   viewBox="0 0 280 280"
   enable-background="new 0 0 280 280"
   xml:space="preserve"
   sodipodi:docname="tv1.svg"
   inkscape:version="1.1.2 (0a00cf5339, 2022-02-04)"
   xmlns:inkscape="http://www.inkscape.org/namespaces/inkscape"
   xmlns:sodipodi="http://sodipodi.sourceforge.net/DTD/sodipodi-0.dtd"
   xmlns="http://www.w3.org/2000/svg"
   xmlns:svg="http://www.w3.org/2000/svg"><defs
   id="defs216276">
	
	
	
</defs><sodipodi:namedview
   id="namedview216274"
   pagecolor="#ffffff"
   bordercolor="#666666"
   borderopacity="1.0"
   inkscape:pageshadow="2"
   inkscape:pageopacity="0.0"
   inkscape:pagecheckerboard="0"
   showgrid="false"
   inkscape:zoom="0.74285714"
   inkscape:cx="242.30769"
   inkscape:cy="193.84615"
   inkscape:window-width="1600"
   inkscape:window-height="828"
   inkscape:window-x="0"
   inkscape:window-y="0"
   inkscape:window-maximized="1"
   inkscape:current-layer="layer1"
   inkscape:showpageshadow="2"
   inkscape:deskcolor="#d1d1d1" />
<g
   inkscape:groupmode="layer"
   id="layer2"
   inkscape:label="BG" />
<g
   inkscape:groupmode="layer"
   id="layer1"
   inkscape:label="Logo"><path
     id="path48"
     class="cls-2"
     d="m 184.36149,42.161338 -58.49113,31.872757 9.23848,23.09621 a 13.973203,13.973203 0 0 0 19.45855,8.487845 l 13.56902,-5.774045 V 239.8071 h 32.68113 a 14.088684,14.088684 0 0 0 14.03094,-14.08869 V 42.161338 h -30.54473"
     style="fill:#ea0661;stroke-width:0.764611;fill-opacity:1" /><path
     id="path50"
     class="cls-2"
     d="M 74.943232,78.942045 A 26.964818,26.964818 0 1 0 101.5616,105.90685 26.791596,26.791596 0 0 0 74.943232,78.942045"
     style="fill:#ea0661;stroke-width:0.764611;fill-opacity:1" /><path
     id="path52"
     class="cls-2"
     d="M 74.943232,160.64485 A 26.964818,26.964818 0 1 0 101.5616,187.60967 26.791596,26.791596 0 0 0 74.943232,160.64485"
     style="fill:#ea0661;stroke-width:0.764611;fill-opacity:1" /></g></svg>
