<?xml version="1.0" encoding="UTF-8" standalone="no"?>
<!-- Generator: Adobe Illustrator 16.0.0, SVG Export Plug-In . SVG Version: 6.00 Build 0)  -->

<svg
   version="1.1"
   id="Layer_1"
   x="0px"
   y="0px"
   width="280px"
   height="280px"
   viewBox="0 0 280 280"
   enable-background="new 0 0 280 280"
   xml:space="preserve"
   sodipodi:docname="tv2.svg"
   inkscape:version="1.1.2 (0a00cf5339, 2022-02-04)"
   xmlns:inkscape="http://www.inkscape.org/namespaces/inkscape"
   xmlns:sodipodi="http://sodipodi.sourceforge.net/DTD/sodipodi-0.dtd"
   xmlns="http://www.w3.org/2000/svg"
   xmlns:svg="http://www.w3.org/2000/svg"><defs
   id="defs216276">
	
	
	
</defs><sodipodi:namedview
   id="namedview216274"
   pagecolor="#ffffff"
   bordercolor="#666666"
   borderopacity="1.0"
   inkscape:pageshadow="2"
   inkscape:pageopacity="0.0"
   inkscape:pagecheckerboard="0"
   showgrid="false"
   inkscape:zoom="0.74285714"
   inkscape:cx="242.30769"
   inkscape:cy="193.84615"
   inkscape:window-width="1600"
   inkscape:window-height="828"
   inkscape:window-x="0"
   inkscape:window-y="0"
   inkscape:window-maximized="1"
   inkscape:current-layer="layer1"
   inkscape:showpageshadow="2"
   inkscape:deskcolor="#d1d1d1" />
<g
   inkscape:groupmode="layer"
   id="layer2"
   inkscape:label="BG" />
<g
   inkscape:groupmode="layer"
   id="layer1"
   inkscape:label="Logo"><path
     id="path40"
     class="cls-2"
     d="m 223.15341,189.85278 h -67.37157 c 0,-6.91285 21.49217,-15.9316 39.69672,-25.72862 7.85103,-4.25758 38.66628,-17.44235 38.66628,-47.84057 0,-28.200769 -28.31274,-49.626024 -60.55099,-49.626024 -30.42272,0 -56.87085,20.418085 -56.87085,20.418085 0,0 0.29442,0.869828 7.65476,18.312179 a 11.972808,11.170432 0 0 0 17.22317,6.36349 c 9.81378,-4.57804 22.27727,-10.66685 31.99292,-10.66685 13.15045,0 22.32634,8.1947 22.32634,17.03033 0,11.7198 -13.15047,16.75565 -35.23147,28.20076 -22.081,11.44512 -46.27195,28.42967 -46.27195,58.59899 v 7.05019 a 11.776532,10.98731 0 0 0 11.77652,10.98731 h 106.47948 v -24.08051 a 9.8137771,9.1560917 0 0 0 -9.81377,-9.15609"
     style="fill:#000000;stroke-width:0.627582" /><path
     id="path42"
     class="cls-2"
     d="M 71.579628,96.96423 A 22.571686,21.05901 0 1 0 93.905976,118.02324 22.473549,20.96745 0 0 0 71.579628,96.96423"
     style="fill:#000000;stroke-width:0.627582" /><path
     id="path44"
     class="cls-2"
     d="M 71.579628,160.64485 A 22.571686,21.05901 0 1 0 93.905976,181.70386 22.473549,20.96745 0 0 0 71.579628,160.64485"
     style="fill:#000000;stroke-width:0.627582" /></g></svg>
