<?xml version="1.0" encoding="UTF-8" standalone="no"?>
<!-- Generator: Adobe Illustrator 16.0.0, SVG Export Plug-In . SVG Version: 6.00 Build 0)  -->

<svg
   version="1.1"
   id="Layer_1"
   x="0px"
   y="0px"
   width="280px"
   height="280px"
   viewBox="0 0 280 280"
   enable-background="new 0 0 280 280"
   xml:space="preserve"
   sodipodi:docname="tv24.svg"
   inkscape:version="1.1.2 (0a00cf5339, 2022-02-04)"
   xmlns:inkscape="http://www.inkscape.org/namespaces/inkscape"
   xmlns:sodipodi="http://sodipodi.sourceforge.net/DTD/sodipodi-0.dtd"
   xmlns="http://www.w3.org/2000/svg"
   xmlns:svg="http://www.w3.org/2000/svg"><defs
   id="defs216276">
	
	
	
</defs><sodipodi:namedview
   id="namedview216274"
   pagecolor="#ffffff"
   bordercolor="#666666"
   borderopacity="1.0"
   inkscape:pageshadow="2"
   inkscape:pageopacity="0.0"
   inkscape:pagecheckerboard="0"
   showgrid="false"
   inkscape:zoom="0.74285714"
   inkscape:cx="250.38462"
   inkscape:cy="161.53846"
   inkscape:window-width="1600"
   inkscape:window-height="828"
   inkscape:window-x="0"
   inkscape:window-y="0"
   inkscape:window-maximized="1"
   inkscape:current-layer="layer1"
   inkscape:showpageshadow="2"
   inkscape:deskcolor="#d1d1d1" />
<g
   inkscape:groupmode="layer"
   id="layer2"
   inkscape:label="BG" />
<g
   inkscape:groupmode="layer"
   id="layer1"
   inkscape:label="Logo"><g
     id="g162"
     transform="matrix(0.29770271,0,0,0.29770271,23.279469,76.922593)"
     style="fill:#2c1ea0;fill-opacity:1"><path
       class="st0"
       d="M 377.16,269.45 C 397.42,257.74 476.9,221.22 476.9,137.2 476.9,59.22 403.92,0 320.71,0 242.23,0 174,56.41 174,56.41 c 0,0 0.73,2.4 19.78,50.54 7.31,18.48 25.41,26.97 44.39,17.61 25.55,-12.6 57.45,-29.48 82.56,-29.48 33.94,0 57.6,22.64 57.6,47.04 0,32.36 -33.95,46.27 -90.86,77.94 -55.12,30.68 -119.33,78.65 -119.33,162.05 v 19.48 c 0,16.8 13.62,30.41 30.41,30.41 h 274.71 v -66.62 c 0,-13.64 -11.06,-24.7 -24.69,-24.7 -0.01,0 -173.79,-0.08 -173.79,-0.08 0,-19.13 55.39,-44 102.38,-71.15 z"
       id="path154"
       style="fill:#2c1ea0;fill-opacity:1" /><path
       class="st0"
       d="M 57.65,83.91 C 25.87,83.91 0,110.01 0,142.1 c 0,32.09 25.87,58.2 57.65,58.2 31.78,0 57.64,-26.11 57.64,-58.2 0,-32.09 -25.86,-58.19 -57.64,-58.19 z"
       id="path156"
       style="fill:#2c1ea0;fill-opacity:1" /><path
       class="st0"
       d="M 57.65,260.02 C 25.87,260.02 0,286.12 0,318.2 c 0,32.1 25.87,58.2 57.65,58.2 31.78,0 57.64,-26.11 57.64,-58.2 0,-32.08 -25.86,-58.18 -57.64,-58.18 z"
       id="path158"
       style="fill:#2c1ea0;fill-opacity:1" /><path
       class="st0"
       d="m 789.55,250.66 c 0,0 -5.92,0 -15.57,-0.01 v -71.49 h -66.62 c -13.64,0 -24.7,11.06 -24.7,24.69 0,0 -0.04,6.09 -0.04,16.7 v 30.07 h -3.96 -85.33 L 676.07,62.96 C 681.53,50.47 675.83,35.91 663.33,30.44 L 602.3,3.77 493.65,250.3 c 0,0 0,0 0,0 l -0.02,0.05 v 0 0 0.52 0 36.34 c -0.05,1.61 -0.08,3.23 -0.08,4.87 v 19.48 c 0,0.57 0.05,1.12 0.08,1.68 v 0.48 h 0.02 c 1.11,15.78 14.24,28.25 30.3,28.25 H 682.63 V 432 h 66.62 c 13.64,0 24.7,-11.06 24.7,-24.69 0,0 0.01,-30.15 0.03,-65.33 h 40.27 v -66.62 c -0.01,-13.64 -11.07,-24.7 -24.7,-24.7 z"
       id="path160"
       style="fill:#2c1ea0;fill-opacity:1" /></g></g></svg>
