<?xml version="1.0" encoding="UTF-8" standalone="no"?>
<!-- Generator: Adobe Illustrator 16.0.0, SVG Export Plug-In . SVG Version: 6.00 Build 0)  -->

<svg
   version="1.1"
   id="Layer_1"
   x="0px"
   y="0px"
   width="280px"
   height="280px"
   viewBox="0 0 280 280"
   enable-background="new 0 0 280 280"
   xml:space="preserve"
   sodipodi:docname="tvsports.svg"
   inkscape:version="1.1.2 (0a00cf5339, 2022-02-04)"
   xmlns:inkscape="http://www.inkscape.org/namespaces/inkscape"
   xmlns:sodipodi="http://sodipodi.sourceforge.net/DTD/sodipodi-0.dtd"
   xmlns="http://www.w3.org/2000/svg"
   xmlns:svg="http://www.w3.org/2000/svg"><defs
   id="defs216276">
	
	
	
</defs><sodipodi:namedview
   id="namedview216274"
   pagecolor="#ffffff"
   bordercolor="#666666"
   borderopacity="1.0"
   inkscape:pageshadow="2"
   inkscape:pageopacity="0.0"
   inkscape:pagecheckerboard="0"
   showgrid="false"
   inkscape:zoom="0.74285714"
   inkscape:cx="242.30769"
   inkscape:cy="193.84615"
   inkscape:window-width="1600"
   inkscape:window-height="828"
   inkscape:window-x="0"
   inkscape:window-y="0"
   inkscape:window-maximized="1"
   inkscape:current-layer="layer1"
   inkscape:showpageshadow="2"
   inkscape:deskcolor="#d1d1d1" />
<g
   inkscape:groupmode="layer"
   id="layer2"
   inkscape:label="BG" />
<g
   inkscape:groupmode="layer"
   id="layer1"
   inkscape:label="Logo"><g
     id="g22"
     transform="matrix(0.33854984,0,0,0.33854984,-18.189777,73.018645)"
     style="fill:#1f1956;fill-opacity:1"><path
       class="st1"
       d="m 113.4,188.8 c 15.4,0 27.9,-12.8 27.9,-28.5 0,-15.7 -12.5,-28.5 -27.9,-28.5 -15.4,0 -27.9,12.8 -27.9,28.5 0,15.7 12.5,28.5 27.9,28.5 z m 0,29.2 c -15.4,0 -27.9,12.8 -27.9,28.5 0,15.7 12.5,28.5 27.9,28.5 15.4,0 27.9,-12.8 27.9,-28.5 0,-15.7 -12.5,-28.5 -27.9,-28.5 z"
       id="path6"
       style="fill:#1f1956;fill-opacity:1" /><g
       id="g20"
       style="fill:#1f1956;fill-opacity:1"><path
         class="st1"
         d="m 506.9,128.6 c -20.5,0 -39.5,7.9 -53.5,22.1 -13.8,14.1 -21.4,33.1 -21.4,53.5 v 0.4 c 0,20.4 7.5,39.3 21.2,53.2 13.8,14.1 32.7,21.9 53.3,21.9 20.6,0 39.5,-7.9 53.5,-22.1 13.8,-14.1 21.4,-33.1 21.4,-53.5 v -0.4 c 0,-20.4 -7.5,-39.3 -21.2,-53.2 -13.9,-14.1 -32.8,-21.9 -53.3,-21.9 z m 40.4,76 c 0,25.1 -17.4,44.1 -40.4,44.1 -11.4,0 -21.9,-4.8 -29.4,-13.5 -7.2,-8.3 -11.2,-19.3 -11.2,-31 v -0.4 c 0,-25.1 17.3,-44.1 40.2,-44.1 11.5,0 22,4.8 29.6,13.5 7.2,8.3 11.2,19.3 11.2,31 z"
         id="path8"
         style="fill:#1f1956;fill-opacity:1" /><path
         class="st1"
         d="m 714.5,180.1 c 0,-13.8 -3.9,-24.9 -11.6,-33 -9.4,-10.2 -24,-15.4 -43.7,-15.4 H 601 v 145 h 23.2 c 5.1,0 9.2,-4.2 9.2,-9.3 V 232 c 0,-0.7 0.6,-1.3 1.3,-1.3 h 15.2 c 0.4,0 0.9,0.2 1.1,0.6 l 0.6,1 27.5,44.4 h 28.2 c 1.8,0 3.4,-1 4.3,-2.6 0.9,-1.6 0.8,-3.5 -0.2,-5 l -25.5,-40 -1.4,-2.1 c -0.2,-0.3 -0.3,-0.7 -0.2,-1.1 0.1,-0.4 0.4,-0.7 0.7,-0.8 l 2.3,-1 C 705,216 714.4,201 714.4,180.6 v -0.5 z m -32.6,3 c 0,13.3 -9.4,21.5 -24.5,21.5 h -22.7 c -0.7,0 -1.3,-0.6 -1.3,-1.3 v -40.9 c 0,-0.7 0.6,-1.3 1.3,-1.3 h 22.5 c 15.7,0 24.7,7.8 24.7,21.5 z"
         id="path10"
         style="fill:#1f1956;fill-opacity:1" /><path
         class="st1"
         d="m 789.9,276.7 c 5.1,0 9.2,-4.2 9.2,-9.3 V 162.9 c 0,-0.7 0.6,-1.3 1.3,-1.3 h 41.2 V 141 c 0,-5.1 -4.1,-9.3 -9.2,-9.3 H 724.2 v 20.6 c 0,5.1 4.1,9.3 9.2,9.3 h 32 c 0.7,0 1.3,0.6 1.3,1.3 v 113.8 z"
         id="path12"
         style="fill:#1f1956;fill-opacity:1" /><path
         class="st1"
         d="m 273.1,88.5 h -26.6 c -1.1,0 -2.1,0.5 -2.8,1.3 l -2.9,3.5 c -1.4,1.7 -3.5,2.7 -5.8,2.7 -0.1,0 -0.2,0 -0.3,0 0,0 -0.1,0 -0.2,0 -2.2,0 -4.3,-1 -5.8,-2.7 l -2.9,-3.5 C 225.1,89 224.1,88.5 223,88.5 h -26.6 c -0.3,0 -0.5,0.2 -0.5,0.3 -0.1,0.1 -0.1,0.4 0.1,0.6 l 11.9,15.5 c 5.9,7.6 14.7,12 24.2,12 h 5.1 c 9.5,0 18.4,-4.4 24.2,-12 l 11.9,-15.5 c 0.2,-0.2 0.1,-0.5 0.1,-0.6 0.2,-0.1 0.1,-0.3 -0.3,-0.3 z"
         id="path14"
         style="fill:#1f1956;fill-opacity:1" /><path
         class="st1"
         d="m 362.9,233.3 c 17,0 31.4,-4.5 41.5,-13.1 10.5,-8.9 16,-22.1 16,-38.1 v -0.4 c 0,-15.3 -5.1,-28 -14.9,-36.7 -9.7,-8.6 -23.7,-13.2 -40.6,-13.2 h -57.3 v 145 h 23.2 c 5.1,0 9.2,-4.2 9.2,-9.3 v -32.8 c 0,-0.7 0.6,-1.3 1.3,-1.3 z M 340,205.9 v -44.6 c 0,-0.7 0.6,-1.3 1.3,-1.3 h 20.6 c 8,0 14.3,2 18.9,5.9 4.7,4.1 7.2,10.1 7.2,17.5 v 0.4 c 0,14.1 -10.2,23.2 -25.9,23.2 h -20.8 c -0.8,0.2 -1.3,-0.4 -1.3,-1.1 z"
         id="path16"
         style="fill:#1f1956;fill-opacity:1" /><path
         class="st1"
         d="m 290.1,232.8 c 0,-12.6 -4.1,-21.7 -12.9,-28.7 -7.9,-6.3 -19.4,-11 -37.3,-15.2 -18.5,-4.5 -27.2,-7.7 -27.2,-18.2 v -0.4 c 0,-8.1 6.9,-13.3 17.6,-13.3 10.1,0 21,3.1 31.5,9 1.4,0.8 3,1.2 4.5,1.2 3.1,0 5.9,-1.5 7.6,-4.1 l 11,-16.7 C 270.2,134.7 252.6,129 231.2,129 c -15.6,0 -28.7,4.4 -37.9,12.8 -8.9,8.1 -13.5,19.2 -13.5,32.3 v 0.4 c 0,29.5 23,37.6 50.8,44.4 20.3,5 26.5,9.2 26.5,17.9 v 0.4 c 0,8.7 -7.3,13.9 -19.6,13.9 -13.5,0 -26.5,-4 -38.7,-11.9 -1.5,-1 -3.2,-1.5 -4.9,-1.5 -2.8,0 -5.5,1.3 -7.2,3.5 l -12.3,15.7 c 16.1,14.2 37.9,22.1 61.7,22.1 33.2,0 53.8,-17.6 53.8,-46 v -0.2 z"
         id="path18"
         style="fill:#1f1956;fill-opacity:1" /></g></g></g></svg>
