<?xml version="1.0" encoding="UTF-8" standalone="no"?>
<!-- Generator: Adobe Illustrator 16.0.0, SVG Export Plug-In . SVG Version: 6.00 Build 0)  -->

<svg
   version="1.1"
   id="Layer_1"
   x="0px"
   y="0px"
   width="280px"
   height="280px"
   viewBox="0 0 280 280"
   enable-background="new 0 0 280 280"
   xml:space="preserve"
   sodipodi:docname="moviesphere.svg"
   inkscape:version="1.1.2 (0a00cf5339, 2022-02-04)"
   xmlns:inkscape="http://www.inkscape.org/namespaces/inkscape"
   xmlns:sodipodi="http://sodipodi.sourceforge.net/DTD/sodipodi-0.dtd"
   xmlns:xlink="http://www.w3.org/1999/xlink"
   xmlns="http://www.w3.org/2000/svg"
   xmlns:svg="http://www.w3.org/2000/svg"><defs
   id="defs216276"><linearGradient
   inkscape:collect="always"
   xlink:href="#linearGradient186860"
   id="linearGradient186862"
   x1="160.37895"
   y1="236.45016"
   x2="159.68578"
   y2="282.7041"
   gradientUnits="userSpaceOnUse"
   gradientTransform="matrix(1,0,0,1.727176,4.4911316e-6,-203.06978)" /><linearGradient
   inkscape:collect="always"
   id="linearGradient186860"><stop
     style="stop-color:#e62434;stop-opacity:1"
     offset="0"
     id="stop186856" /><stop
     style="stop-color:#8c1119;stop-opacity:1"
     offset="1"
     id="stop186858" /></linearGradient>
	
	
	
</defs><sodipodi:namedview
   id="namedview216274"
   pagecolor="#ffffff"
   bordercolor="#666666"
   borderopacity="1.0"
   inkscape:pageshadow="2"
   inkscape:pageopacity="0.0"
   inkscape:pagecheckerboard="0"
   showgrid="false"
   inkscape:zoom="1.4857143"
   inkscape:cx="69.999999"
   inkscape:cy="85.480768"
   inkscape:window-width="1600"
   inkscape:window-height="832"
   inkscape:window-x="0"
   inkscape:window-y="0"
   inkscape:window-maximized="1"
   inkscape:current-layer="Layer_1"
   inkscape:showpageshadow="2"
   inkscape:deskcolor="#d1d1d1" />
<g
   inkscape:groupmode="layer"
   id="layer2"
   inkscape:label="BG"><rect
     y="0"
     fill-rule="evenodd"
     clip-rule="evenodd"
     fill="#164E86"
     width="280"
     height="173.7274"
     id="rect4994-7"
     style="fill:#e72a34;fill-opacity:1;stroke:none;stroke-width:0.787689;stroke-opacity:1"
     x="0" /><rect
     y="171.7274"
     fill-rule="evenodd"
     clip-rule="evenodd"
     fill="#164E86"
     width="280"
     height="108.81209"
     id="rect4994-7-5"
     style="fill:url(#linearGradient186862);fill-opacity:1;stroke:none;stroke-width:0.62339;stroke-opacity:1"
     x="0" /></g>
<g
   inkscape:groupmode="layer"
   id="layer1"
   inkscape:label="Logo" /><path
   style="fill:#ffffff;stroke-width:1.17391"
   d="m 52.216868,134.38912 c -12.669179,-4.4387 -16.50361,-19.15097 -7.371394,-28.28319 9.444131,-9.444129 25.322487,-5.87951 29.037081,6.5187 4.079199,13.61516 -8.592577,26.34471 -21.665687,21.76449 z m -0.344614,-3.54228 c -0.371636,-0.96847 -1.543633,-1.74406 -2.604436,-1.72353 -1.6371,0.0317 -1.584184,0.29794 0.349962,1.76086 2.848124,2.15421 3.093888,2.15015 2.254474,-0.0373 z m 14.738383,-1.42868 c 0.269018,-0.1827 -0.334785,-0.33218 -1.341784,-0.33218 -1.006999,0 -2.163647,0.86711 -2.570326,1.92689 -0.643738,1.67755 -0.470109,1.72055 1.341783,0.33218 1.144661,-0.87709 2.301307,-1.74419 2.570327,-1.92689 z m -6.358635,-1.50607 c 0,-2.15145 -0.706381,-3.03507 -2.646527,-3.31057 -2.884401,-0.40959 -4.52264,2.10787 -3.353824,5.15375 0.424252,1.10558 1.766382,1.6928 3.353824,1.46739 1.940146,-0.27552 2.646527,-1.15913 2.646527,-3.31057 z m -8.927747,-2.78597 c 1.969741,-2.37339 0.295486,-5.43135 -2.973707,-5.43135 -3.350155,0 -4.818065,2.81757 -2.75991,5.29751 1.809876,2.18076 3.992534,2.23172 5.733617,0.13384 z m 17.608525,0 c 1.96974,-2.37339 0.295485,-5.43135 -2.973707,-5.43135 -3.350156,0 -4.818066,2.81757 -2.75991,5.29751 1.809876,2.18076 3.992534,2.23172 5.733617,0.13384 z m -25.580706,-9.30097 c -0.944795,-0.9448 -1.285882,-0.35799 -1.25985,2.16746 0.03129,3.03585 0.191101,3.19566 1.295546,1.29554 0.902909,-1.55337 0.892795,-2.5345 -0.0357,-3.463 z m 29.225896,1.87399 c 0,-2.36071 -0.339343,-2.83019 -1.329776,-1.83977 -0.731376,0.73139 -1.012083,2.15767 -0.623793,3.16954 1.074626,2.80044 1.953569,2.20214 1.953569,-1.32977 z m -13.550001,0.90285 c 0.868148,-1.40469 -1.340155,-2.79651 -2.903771,-1.83014 -1.312842,0.81138 -0.450975,2.92292 1.193051,2.92292 0.569437,0 1.339261,-0.49176 1.71072,-1.09278 z m -7.09862,-4.33856 c 0.910636,-2.37308 -1.251908,-5.13378 -4.021457,-5.13378 -2.364868,0 -3.756801,2.66976 -2.754173,5.28257 0.905167,2.35882 5.855078,2.25013 6.77563,-0.14879 z m 17.608525,0 c 0.918083,-2.39249 -1.259328,-5.13378 -4.077773,-5.13378 -2.735776,0 -3.796212,1.7468 -2.856962,4.70612 0.908691,2.86303 5.882491,3.16976 6.934735,0.42766 z m -9.285872,-6.30767 c 0,-2.15144 -0.706381,-3.03507 -2.646527,-3.31057 -2.884401,-0.40959 -4.52264,2.10787 -3.353824,5.15376 0.424252,1.10557 1.766382,1.69279 3.353824,1.46738 1.940146,-0.27551 2.646527,-1.15913 2.646527,-3.31057 z m -8.369325,-2.96192 c 0.559778,-1.45876 0.25865,-1.55924 -1.635258,-0.54566 -2.721179,1.45635 -2.979126,2.33367 -0.686126,2.33367 0.899392,0 1.944015,-0.8046 2.321384,-1.78801 z m 14.72796,1.45583 c -0.26902,-0.18269 -1.425666,-1.0498 -2.570327,-1.92689 -1.811892,-1.38835 -1.985521,-1.34537 -1.341783,0.33218 0.406679,1.05979 1.563327,1.92689 2.570326,1.92689 1.006999,0 1.610802,-0.14948 1.341784,-0.33218 z M 7.4492618,132.64463 c -0.951941,-1.54027 -0.5654652,-29.27331 0.4163985,-29.88014 0.4289602,-0.26511 3.9392787,3.13434 7.8007077,7.55434 l 7.020782,8.03637 7.883549,-8.42795 7.883548,-8.42795 0.04029,16.21912 0.04029,16.21911 -3.22823,-0.37144 c -3.070376,-0.35329 -3.261373,-0.74457 -3.906041,-8.00181 -0.372797,-4.1967 -0.784474,-7.1021 -0.914838,-6.45646 -0.130364,0.64565 -1.882289,2.98411 -3.893168,5.19659 l -3.656145,4.02267 -4.491725,-5.19658 -4.491726,-5.19658 -0.03503,7.92383 c -0.03364,7.60883 -0.148945,7.92384 -2.900505,7.92384 -1.5760124,0 -3.1816792,-0.51163 -3.5681549,-1.13696 z m 75.5428332,-4.25765 c -1.390006,-3.1666 -4.543461,-10.14077 -7.007687,-15.49817 -3.513015,-7.63751 -4.125806,-9.87677 -2.838093,-10.37091 3.898041,-1.49582 5.959594,0.35457 9.393687,8.43152 l 3.505574,8.24506 3.552192,-8.26064 c 3.102786,-7.21559 3.979174,-8.30961 6.927428,-8.64766 2.809674,-0.32217 3.26479,-0.0271 2.715935,1.76085 -1.067385,3.47727 -12.114613,28.49024 -12.953496,29.32911 -0.422545,0.42256 -1.905547,-1.82258 -3.29554,-4.98916 z m 18.272225,3.8636 c -0.35632,-0.92854 -0.48538,-7.9633 -0.28681,-15.63281 l 0.36105,-13.94457 h 3.30649 3.30648 l 0.008,15.26072 0.008,15.26072 -3.02734,0.37209 c -1.82689,0.22455 -3.28422,-0.29736 -3.67517,-1.31615 z m 10.3118,-14.02318 0.32755,-15.5542 h 9.97817 c 9.86077,0 9.97816,0.0345 9.97816,2.93475 0,2.74933 -0.42649,2.95701 -6.74994,3.28681 l -6.74993,0.35206 v 4.05007 4.05008 h 5.86952 c 5.4782,0 5.8695,0.19565 5.8695,2.93475 0,2.7391 -0.3913,2.93476 -5.8695,2.93476 -4.43475,0 -5.86952,0.43043 -5.86952,1.76085 0,1.36955 1.5652,1.76085 7.04341,1.76085 h 7.04341 v 3.52171 3.5217 h -10.59919 -10.59918 z m 27.32729,14.13633 c -3.31381,-1.90047 -5.31124,-4.84809 -4.11335,-6.07008 0.5771,-0.58869 2.37489,0.0412 4.18794,1.46737 5.41265,4.25759 11.07748,2.72621 11.07748,-2.99461 0,-1.9723 -1.31215,-3.33585 -4.98909,-5.18456 -7.09296,-3.56623 -9.09773,-5.65088 -9.09773,-9.46023 0,-7.04849 8.48263,-10.483673 14.25025,-5.77089 2.19534,1.79383 2.4721,2.5688 1.33169,3.72874 -1.14827,1.16792 -1.90276,1.04517 -3.72785,-0.60652 -2.65319,-2.40111 -5.79001,-2.11952 -7.55155,0.67788 -1.63215,2.59196 0.28715,4.84545 6.82064,8.00826 5.96033,2.88534 8.39098,7.32777 6.59455,12.05272 -1.97991,5.20755 -9.33856,7.2743 -14.78298,4.15192 z m 18.15635,0.83091 c -0.0215,-0.32283 -0.0473,-7.32221 -0.0574,-15.55419 l -0.0183,-14.96725 6.07162,0.17232 c 10.21582,0.28994 15.552,6.74066 12.72119,15.37823 -1.60838,4.90763 -5.16199,7.34053 -10.72192,7.34053 -4.28529,0 -4.4344,0.13816 -4.4344,4.10865 0,2.86953 -0.53105,4.10866 -1.76086,4.10866 -0.96846,0 -1.77846,-0.26412 -1.79998,-0.58695 z m 13.47245,-13.76108 c 4.11372,-5.87318 0.90715,-12.65171 -5.98491,-12.65171 h -3.9267 v 7.63037 7.63035 h 4.04209 c 2.84621,0 4.58275,-0.77188 5.86952,-2.60901 z m 8.81777,14.05456 c -0.0292,-0.16141 -0.0983,-7.1608 -0.15348,-15.5542 -0.087,-13.22146 0.15538,-15.31144 1.81391,-15.64028 1.63473,-0.32412 1.91433,0.91892 1.91433,8.5108 v 8.89033 h 7.63036 7.63035 v -8.80426 c 0,-7.04341 0.35218,-8.80427 1.76086,-8.80427 1.47824,0 1.76085,2.54347 1.76085,15.84768 0,13.30422 -0.28261,15.84767 -1.76085,15.84767 -1.30434,0 -1.76086,-1.36956 -1.76086,-5.28255 v -5.28256 h -7.63035 -7.63036 v 5.28256 c 0,3.91299 -0.45652,5.28255 -1.76085,5.28255 -0.96848,0 -1.78473,-0.13207 -1.81391,-0.29347 z m 25.87888,-15.50673 v -15.89515 h 9.39121 c 8.60862,0 9.39123,0.19566 9.39123,2.34781 0,2.10893 -0.78261,2.3478 -7.69171,2.3478 h -7.69171 l 0.35482,6.16299 0.35482,6.16298 6.74994,0.35205 c 4.95224,0.25831 6.74993,0.80543 6.74993,2.05434 0,1.30002 -1.68279,1.70227 -7.12138,1.70227 -7.07623,0 -7.11903,0.0204 -6.74993,3.22822 0.36223,3.14813 0.56078,3.22913 8.0018,3.26474 5.91158,0.0283 7.63036,0.42493 7.63036,1.76086 0,1.34963 -2.10455,1.79843 -9.68469,2.06529 l -9.68469,0.34095 z m 23.25703,14.33282 c -0.36704,-1.14058 -0.27401,-17.43136 0.16425,-28.76059 0.1435,-3.709723 14.42608,-0.39742 17.31803,4.01628 2.9174,4.45251 2.3693,10.9296 -1.1835,13.98558 l -2.92226,2.51362 2.77123,3.38887 c 1.52419,1.86387 2.79025,4.04919 2.81347,4.85624 0.0825,2.86361 -3.21725,1.40807 -5.96946,-2.63326 -2.0483,-3.00771 -3.65299,-4.10277 -6.02082,-4.10865 -2.90832,-0.007 -3.22823,0.39913 -3.22823,4.10063 0,4.04779 -2.6812,5.93994 -3.74271,2.64128 z m 14.0105,-13.40396 c 3.8323,-5.24096 0.23134,-12.1284 -6.34107,-12.1284 h -3.92672 v 7.78396 7.78395 l 4.39828,-0.71373 c 2.41906,-0.39256 5.06034,-1.61916 5.86951,-2.72578 z m 8.51463,-0.92886 v -15.89515 h 9.39123 c 8.6086,0 9.39121,0.19566 9.39121,2.34781 0,2.107 -0.78261,2.3478 -7.63037,2.3478 h -7.63036 v 6.45646 6.45646 h 7.04341 c 5.47822,0 7.04341,0.3913 7.04341,1.76086 0,1.37169 -1.57385,1.76085 -7.12138,1.76085 -7.07623,0 -7.11903,0.0204 -6.74993,3.22822 0.36094,3.13692 0.58729,3.23191 8.00181,3.35802 5.66783,0.0964 7.63036,0.54929 7.63036,1.76086 0,1.23279 -2.36475,1.71431 -9.68469,1.97201 l -9.6847,0.34095 z"
   id="path1139" /></svg>
