<?xml version="1.0" encoding="UTF-8" standalone="no"?>
<!-- Generator: Adobe Illustrator 16.0.0, SVG Export Plug-In . SVG Version: 6.00 Build 0)  -->

<svg
   version="1.1"
   id="Layer_1"
   x="0px"
   y="0px"
   width="280px"
   height="280px"
   viewBox="0 0 280 280"
   enable-background="new 0 0 280 280"
   xml:space="preserve"
   sodipodi:docname="awe.svg"
   inkscape:version="1.4 (e7c3feb100, 2024-10-09)"
   xmlns:inkscape="http://www.inkscape.org/namespaces/inkscape"
   xmlns:sodipodi="http://sodipodi.sourceforge.net/DTD/sodipodi-0.dtd"
   xmlns="http://www.w3.org/2000/svg"
   xmlns:svg="http://www.w3.org/2000/svg"><defs
   id="defs216276">
	
	
	
</defs><sodipodi:namedview
   id="namedview216274"
   pagecolor="#ffffff"
   bordercolor="#666666"
   borderopacity="1.0"
   inkscape:pageshadow="2"
   inkscape:pageopacity="0.0"
   inkscape:pagecheckerboard="0"
   showgrid="false"
   inkscape:zoom="1.4857143"
   inkscape:cx="83.798076"
   inkscape:cy="151.44231"
   inkscape:window-width="1276"
   inkscape:window-height="811"
   inkscape:window-x="26"
   inkscape:window-y="23"
   inkscape:window-maximized="0"
   inkscape:current-layer="layer2"
   inkscape:showpageshadow="2"
   inkscape:deskcolor="#d1d1d1" />
<g
   inkscape:groupmode="layer"
   id="layer2"
   inkscape:label="BG"><rect
     y="0"
     fill-rule="evenodd"
     clip-rule="evenodd"
     fill="#164E86"
     width="280"
     height="280"
     id="rect4994-7"
     style="fill:#2b2b2b;fill-opacity:1;stroke:none;stroke-width:0.999999;stroke-opacity:1"
     x="0" /></g>
<g
   inkscape:groupmode="layer"
   id="layer1"
   inkscape:label="Logo"><path
     style="fill:#ffffff;stroke-width:0.670687"
     d="m 20.32163,183.9543 c -0.185832,-0.31714 -0.0688,-0.86042 0.260068,-1.20728 0.358677,-0.3783 47.491369,-0.561 117.787172,-0.45658 93.50043,0.13894 117.18923,0.34889 117.18923,1.03885 0,0.68997 -23.73736,0.89879 -117.4493,1.03319 -64.597113,0.0926 -117.601338,-0.091 -117.78717,-0.40818 z m 3.046386,-7.42537 c 1.272776,-2.6016 2.511754,-4.73256 2.753284,-4.73545 0.241531,-0.003 0.773833,1.06437 1.182893,2.37166 0.40906,1.3073 1.421952,3.43097 2.250869,4.71929 l 1.507124,2.3424 -2.011151,0.0603 c -1.188066,0.0356 -1.678574,-0.15648 -1.198521,-0.46941 1.513827,-0.98682 0.100157,-2.83037 -2.17036,-2.83037 -2.221292,0 -3.695999,1.83585 -2.238096,2.7862 0.416617,0.27157 0.05408,0.48556 -0.822641,0.48556 H 21.05388 Z m 3.228239,-0.78012 c -0.420471,-0.8524 -0.823886,-1.6286 -0.896478,-1.7249 -0.0726,-0.0963 -0.467299,0.60109 -0.877125,1.54977 -0.687574,1.59165 -0.618316,1.7249 0.896479,1.7249 1.493564,0 1.57267,-0.13971 0.877124,-1.54977 z m 11.60522,4.99374 c -0.205309,-0.56826 -0.710406,-2.42799 -1.122439,-4.13275 -0.412033,-1.70476 -1.050277,-3.48701 -1.418319,-3.96057 -0.505345,-0.6502 -0.240459,-0.86098 1.081977,-0.86098 0.980932,0 1.576644,0.29779 1.3544,0.67706 -0.508329,0.86751 0.304108,5.52207 0.963858,5.52207 0.27436,0 1.090334,-1.47229 1.813277,-3.27176 l 1.314441,-3.27177 1.502947,3.70892 1.502948,3.70894 0.871132,-2.65391 c 0.479122,-1.45963 0.72659,-3.05115 0.549931,-3.53673 -0.19494,-0.53579 0.190075,-0.88282 0.979473,-0.88282 1.195572,0 1.223741,0.12518 0.348591,1.54978 -0.523644,0.85238 -1.299995,3.02207 -1.725223,4.82154 -0.714541,3.02378 -1.859443,4.42297 -1.972635,2.41078 -0.02664,-0.47354 -0.577371,-2.10082 -1.223851,-3.61616 l -1.175418,-2.75517 -1.635901,3.78836 c -1.062898,2.46142 -1.766651,3.42646 -2.009189,2.75517 z m 12.815531,-1.79578 c 0.475948,-1.63565 0.469504,-3.06045 -0.02147,-4.74775 l -0.701501,-2.41077 h 3.530685 c 2.946827,0 3.522159,0.19932 3.479128,1.20538 -0.03079,0.72009 -0.184173,0.85874 -0.380951,0.3444 -0.181167,-0.47355 -1.186531,-0.86098 -2.234142,-0.86098 -1.61899,0 -1.904748,0.27037 -1.904748,1.80226 0,1.55103 0.227612,1.7564 1.632642,1.47312 1.334774,-0.26913 1.623234,-0.0638 1.581084,1.12507 -0.02835,0.79985 -0.199784,1.06682 -0.38095,0.59329 -0.181167,-0.47356 -0.892655,-0.86099 -1.581085,-0.86099 -0.955397,0 -1.251691,0.48913 -1.251691,2.06637 0,1.73376 0.257572,2.06638 1.600191,2.06638 0.880105,0 1.919493,-0.54242 2.309751,-1.2054 0.648549,-1.10173 0.692684,-1.08693 0.513299,0.17221 -0.16457,1.15515 -0.735087,1.39347 -3.533264,1.47599 l -3.337002,0.0984 z m 8.522305,1.19308 c 0.512861,-0.6156 1.720424,-2.77738 2.683473,-4.80393 0.963048,-2.02656 1.832858,-3.57634 1.932911,-3.44397 0.100047,0.13245 1.199,2.28743 2.442107,4.789 l 2.260193,4.54832 -1.970414,0.059 c -1.169714,0.0351 -1.640191,-0.15618 -1.157782,-0.47063 1.40225,-0.91408 0.122135,-2.83036 -1.890726,-2.83036 -2.016949,0 -3.946725,2.37055 -2.396851,2.94431 0.446106,0.16514 -0.0094,0.30639 -1.012143,0.31385 -1.630494,0.0124 -1.724665,-0.10478 -0.890768,-1.10569 z m 4.934229,-4.39104 c -0.420471,-0.8524 -0.823886,-1.6286 -0.896479,-1.7249 -0.07259,-0.0963 -0.467298,0.60109 -0.877125,1.54977 -0.687573,1.59165 -0.618316,1.7249 0.89648,1.7249 1.493563,0 1.572669,-0.13971 0.877124,-1.54977 z m 7.122128,1.77783 c 0.18365,-2.33577 -0.0073,-4.04591 -0.525256,-4.70415 -0.684831,-0.87032 -0.56826,-1.03448 0.735534,-1.0357 1.494129,-0.001 1.541537,0.15816 1.330353,4.47716 -0.208171,4.25739 -0.146197,4.4786 1.254692,4.4786 0.810523,0 1.990662,-0.49347 2.62253,-1.09659 1.065964,-1.01747 1.122539,-0.99046 0.784131,0.37442 -0.31429,1.26762 -0.788236,1.45063 -3.427627,1.3236 l -3.062908,-0.14744 z m 9.106506,3.42684 c 0.526279,-0.21 0.816321,-1.77372 0.816321,-4.40108 0,-3.55711 -0.159176,-4.07535 -1.251693,-4.07535 -0.68843,0 -1.399918,0.38743 -1.581083,0.86098 -0.196778,0.51434 -0.35015,0.37569 -0.38095,-0.3444 -0.04363,-1.02009 0.55076,-1.20538 3.866782,-1.20538 3.316019,0 3.910412,0.18529 3.866782,1.20538 -0.03083,0.72009 -0.184169,0.85874 -0.380948,0.3444 -0.181165,-0.47355 -0.892654,-0.86098 -1.581084,-0.86098 -1.092517,0 -1.251693,0.51824 -1.251693,4.07535 0,2.64659 0.28619,4.1769 0.816321,4.36501 0.448976,0.15933 -0.212244,0.30591 -1.469378,0.32574 -1.257134,0.0198 -1.918353,-0.11051 -1.469377,-0.28967 z m 7.31652,-0.45441 c 0.982472,-1.03624 0.873149,-7.82648 -0.132897,-8.25464 -0.448976,-0.19109 0.212243,-0.34743 1.469377,-0.34743 1.257135,0 1.918359,0.15634 1.469381,0.34743 -0.448978,0.19107 -0.816319,1.09648 -0.816319,2.01199 0,1.49047 0.280977,1.66458 2.686347,1.66458 2.61335,0 2.678533,-0.0561 2.398795,-2.06637 -0.246247,-1.76966 -0.07814,-2.06638 1.170865,-2.06638 1.365004,0 1.413491,0.15439 0.756921,2.41077 -0.489432,1.68196 -0.497003,3.11355 -0.02503,4.73545 0.623103,2.14139 0.5656,2.32468 -0.729348,2.32468 -1.21217,0 -1.370364,-0.32021 -1.148494,-2.32468 0.255386,-2.30727 0.237219,-2.32467 -2.426355,-2.32467 -2.529454,0 -2.683674,0.11545 -2.683674,2.00898 0,1.10492 0.367341,2.15555 0.81632,2.3347 0.448978,0.17915 -0.152435,0.31239 -1.336484,0.29607 -1.498963,-0.0207 -1.945229,-0.2486 -1.469373,-0.75048 z m 16.653636,-0.7584 c -1.95829,-2.06544 -2.02692,-3.75422 -0.24945,-6.13755 1.02709,-1.37719 1.93703,-1.81487 3.77303,-1.81487 3.42029,0 5.32236,1.5961 5.32236,4.46621 0,4.6249 -5.65377,6.85306 -8.84594,3.48621 z m 6.34556,-0.13802 c 2.51247,-2.39818 0.72472,-7.12556 -2.69468,-7.12556 -2.25299,0 -3.29467,1.16973 -3.29467,3.69968 0,3.90213 3.43309,5.86586 5.98935,3.42588 z m 4.29629,1.35088 c 0.52447,-0.20928 0.81632,-1.76225 0.81632,-4.34369 0,-2.56989 -0.2942,-4.14317 -0.81632,-4.36537 -0.44898,-0.19109 0.87346,-0.37188 2.93876,-0.40179 3.45902,-0.0501 4.70748,0.62106 3.10202,1.66759 -0.35918,0.23413 -0.65306,0.0975 -0.65306,-0.30375 0,-0.40119 -0.73469,-0.72943 -1.63264,-0.72943 -1.30612,0 -1.63264,0.34439 -1.63264,1.72198 0,1.37758 0.32652,1.72197 1.63264,1.72197 0.89795,0 1.63264,0.26698 1.63264,0.59329 0,0.32629 -0.73469,0.44515 -1.63264,0.26409 -1.45125,-0.29261 -1.63264,-0.0971 -1.63264,1.7601 0,1.14909 0.36734,2.21962 0.81632,2.37894 0.44898,0.15933 -0.21225,0.30591 -1.46938,0.32574 -1.25713,0.0198 -1.91836,-0.11051 -1.46938,-0.28967 z m 12.54243,-0.45596 c 0.9372,-0.98848 0.86135,-6.86698 -0.10171,-7.88272 -0.60952,-0.64287 0.0436,-0.82656 2.93876,-0.82656 3.12944,0 3.7142,0.19202 3.67086,1.20538 -0.0309,0.7201 -0.18416,0.85875 -0.38094,0.34441 -0.18116,-0.47355 -1.18653,-0.86099 -2.23414,-0.86099 -1.61899,0 -1.90475,0.27038 -1.90475,1.80227 0,1.55102 0.2276,1.75639 1.63263,1.47311 1.02145,-0.20596 1.63266,-0.0139 1.63266,0.51297 0,0.52689 -0.61121,0.71893 -1.63266,0.51298 -1.459,-0.29417 -1.63263,-0.10093 -1.63263,1.8175 0,1.78082 0.25599,2.14668 1.50203,2.14668 0.82611,0 1.85467,-0.37195 2.28569,-0.82656 0.60952,-0.64286 0.78367,-0.56245 0.78367,0.36192 0,0.99752 -0.5817,1.16843 -3.62071,1.06367 -2.51614,-0.0867 -3.41267,-0.34422 -2.93876,-0.84406 z m 8.84518,-3.88773 c 0,-3.24337 0.25203,-4.82155 0.77001,-4.82155 0.42349,0 2.25387,1.62727 4.06751,3.61616 l 3.29751,3.61617 0.0141,-3.21438 c 0.009,-1.93931 -0.30972,-3.35216 -0.80222,-3.56177 -0.44898,-0.19109 0.0653,-0.34742 1.14284,-0.34742 1.07755,0 1.59183,0.15633 1.14286,0.34742 -0.53795,0.22894 -0.81632,1.90598 -0.81632,4.9178 v 4.57038 l -3.91835,-4.08963 -3.91834,-4.08962 v 3.11244 c 0,1.71185 0.35265,3.4844 0.78367,3.939 0.60952,0.64287 0.50068,0.82654 -0.4898,0.82654 -1.14128,0 -1.27345,-0.5004 -1.27345,-4.82154 z m 13.87745,4.34369 c 0.52628,-0.21001 0.81632,-1.77372 0.81632,-4.40109 0,-3.5571 -0.15917,-4.07535 -1.2517,-4.07535 -0.68842,0 -1.39991,0.38744 -1.58107,0.86099 -0.19678,0.51434 -0.35015,0.37569 -0.38096,-0.34441 -0.0436,-1.02008 0.55077,-1.20538 3.86679,-1.20538 3.31601,0 3.9104,0.1853 3.86678,1.20538 -0.0309,0.7201 -0.18417,0.85875 -0.38095,0.34441 -0.18117,-0.47355 -0.89265,-0.86099 -1.58108,-0.86099 -1.09252,0 -1.2517,0.51825 -1.2517,4.07535 0,2.6466 0.28619,4.17691 0.81633,4.36502 0.44897,0.15933 -0.21225,0.30591 -1.46938,0.32574 -1.25714,0.0198 -1.91835,-0.11051 -1.46938,-0.28967 z m 7.21627,-0.34869 c 1.05653,-1.11435 1.02999,-7.90813 -0.0327,-8.36037 -0.44898,-0.19109 0.87347,-0.37188 2.93876,-0.40179 3.17905,-0.0461 3.74717,0.1306 3.70352,1.15099 -0.0309,0.7201 -0.18417,0.85875 -0.38095,0.34441 -0.18116,-0.47355 -1.18653,-0.86099 -2.23413,-0.86099 -1.61844,0 -1.90476,0.27059 -1.90476,1.80015 0,1.60838 0.20872,1.76785 1.95917,1.49689 1.62701,-0.25187 1.95918,-0.0666 1.95918,1.09275 0,1.08584 -0.17417,1.21238 -0.78368,0.56952 -0.43102,-0.45461 -1.31264,-0.82656 -1.95917,-0.82656 -0.87074,0 -1.1755,0.53573 -1.1755,2.06637 0,1.69703 0.26848,2.06639 1.50203,2.06639 0.82611,0 1.85468,-0.37195 2.28569,-0.82656 0.60952,-0.64286 0.78367,-0.56633 0.78367,0.34439 0,0.96513 -0.65433,1.17095 -3.72242,1.17095 -2.89521,0 -3.54827,-0.18367 -2.93876,-0.82654 z m 9.52426,-2.02824 c 0.48685,-1.92376 0.46759,-3.27301 -0.068,-4.76982 l -0.74695,-2.08723 3.378,0.20657 c 2.73423,0.1672 3.42381,0.46043 3.61839,1.53863 0.13222,0.73263 -0.27487,1.72944 -0.90464,2.21514 -1.07135,0.82625 -1.03173,1.03981 0.61527,3.3173 2.31309,3.19857 0.68231,3.25516 -1.73469,0.0601 -2.15331,-2.84638 -2.15714,-2.87604 -0.433,-3.35159 1.83636,-0.50649 1.38328,-2.81323 -0.61134,-3.11245 -1.4764,-0.22148 -1.51431,-0.0983 -1.29943,4.22048 0.20499,4.12017 0.12116,4.44847 -1.13553,4.44697 -1.25761,-0.001 -1.30721,-0.19781 -0.67798,-2.68419 z m 10.68785,2.37693 c 0.52628,-0.21001 0.81632,-1.77372 0.81632,-4.40109 0,-3.5571 -0.15918,-4.07535 -1.2517,-4.07535 -0.68842,0 -1.39992,0.38744 -1.58108,0.86099 -0.19677,0.51434 -0.35014,0.37569 -0.38095,-0.34441 -0.0436,-1.02008 0.55076,-1.20538 3.86679,-1.20538 3.31601,0 3.91041,0.1853 3.86677,1.20538 -0.0309,0.7201 -0.18416,0.85875 -0.38094,0.34441 -0.18117,-0.47355 -0.89265,-0.86099 -1.58109,-0.86099 -1.09252,0 -1.25168,0.51825 -1.25168,4.07535 0,2.6466 0.28618,4.17691 0.81632,4.36502 0.44897,0.15933 -0.21225,0.30591 -1.46938,0.32574 -1.25713,0.0198 -1.91836,-0.11051 -1.46938,-0.28967 z m 7.9715,-4.42455 c 1.27277,-2.6016 2.51024,-4.73256 2.74991,-4.73545 0.23969,-0.003 0.9491,1.41238 1.57646,3.14502 0.62737,1.73262 1.66669,3.85556 2.30962,4.71763 1.16268,1.55898 1.15787,1.5677 -0.8976,1.62935 -1.213,0.0363 -1.73088,-0.15683 -1.25388,-0.46776 1.51381,-0.98679 0.10013,-2.83034 -2.17037,-2.83034 -2.22129,0 -3.696,1.83585 -2.23809,2.7862 0.41661,0.27157 0.0541,0.48556 -0.82264,0.48556 h -1.56754 z m 3.22824,-0.78012 c -0.42047,-0.8524 -0.82389,-1.6286 -0.89648,-1.7249 -0.0725,-0.0963 -0.4673,0.60109 -0.87712,1.54977 -0.68757,1.59164 -0.61832,1.7249 0.89647,1.7249 1.49357,0 1.57268,-0.13972 0.87713,-1.54977 z m 6.26952,0.86098 c 0,-4.36235 0.1244,-4.82155 1.30611,-4.82155 1.18172,0 1.30612,0.4592 1.30612,4.82155 0,4.36235 -0.1244,4.82154 -1.30612,4.82154 -1.18171,0 -1.30611,-0.45919 -1.30611,-4.82154 z m 5.45006,0.59915 c 0.1603,-3.00147 -0.0289,-4.395 -0.65305,-4.81227 -0.641,-0.42847 -0.49374,-0.59019 0.54439,-0.59789 0.87082,-0.006 2.70273,1.39278 4.72058,3.60562 l 3.29751,3.61617 0.0141,-3.21438 c 0.008,-1.93931 -0.30973,-3.35216 -0.80224,-3.56177 -0.44898,-0.19109 0.0653,-0.34742 1.14286,-0.34742 1.07753,0 1.59182,0.15633 1.14284,0.34742 -0.53795,0.22894 -0.81632,1.90598 -0.81632,4.9178 v 4.57038 l -3.91834,-4.08963 -3.91835,-4.08962 v 3.11244 c 0,1.71185 0.35265,3.4844 0.78367,3.939 0.60952,0.64287 0.50069,0.82682 -0.48978,0.82779 -1.1488,0.001 -1.25137,-0.41235 -1.04785,-4.22364 z m 11.72534,3.39585 c 1.05652,-1.11435 1.02998,-7.90813 -0.0327,-8.36037 -0.44898,-0.19109 -0.16006,-0.37188 0.64205,-0.40179 1.11579,-0.0416 1.84708,0.75465 3.11302,3.38958 0.91005,1.89418 1.79167,3.44395 1.95916,3.44395 0.1675,0 1.04913,-1.54977 1.95918,-3.44395 1.26594,-2.63493 1.99723,-3.43119 3.11303,-3.38958 0.8021,0.0298 1.09102,0.2107 0.64204,0.40179 -1.00604,0.42816 -1.11536,7.21841 -0.13289,8.25464 0.47586,0.50188 0.0374,0.74019 -1.44357,0.78459 -1.2859,0.0386 -1.79765,-0.15084 -1.29412,-0.47913 0.52731,-0.34373 0.75743,-1.6504 0.62725,-3.56158 l -0.20563,-3.01867 -1.63152,3.25914 c -0.89733,1.79253 -1.77896,3.25787 -1.95917,3.25632 -0.1802,-0.001 -1.12739,-1.47382 -2.10483,-3.27176 l -1.77717,-3.26895 -0.0187,3.21436 c -0.0109,1.94334 0.30407,3.35175 0.79761,3.56179 0.44898,0.19107 -0.0507,0.37188 -1.1102,0.40179 -1.4984,0.0423 -1.75236,-0.12936 -1.14285,-0.77217 z m 13.68153,0.37038 c 0.52212,-0.22222 0.81632,-1.7955 0.81632,-4.36538 0,-2.56989 -0.2942,-4.14317 -0.81632,-4.36537 -0.44898,-0.19109 0.87347,-0.37188 2.93875,-0.40179 3.17905,-0.0461 3.74717,0.1306 3.70352,1.15099 -0.0309,0.7201 -0.18417,0.85875 -0.38094,0.34441 -0.18116,-0.47355 -1.18653,-0.86099 -2.23414,-0.86099 -1.61843,0 -1.90476,0.27059 -1.90476,1.80015 0,1.60838 0.20872,1.76785 1.95918,1.49689 1.65143,-0.25565 1.95107,-0.0785 1.90761,1.1272 -0.0283,0.78677 -0.19979,1.04304 -0.38095,0.5695 -0.18116,-0.47355 -1.0396,-0.86099 -1.90761,-0.86099 -1.31821,0 -1.57823,0.34044 -1.57823,2.06637 0,1.82905 0.22129,2.06639 1.92672,2.06639 1.11968,0 2.23451,-0.50492 2.66154,-1.2054 0.68625,-1.12571 0.70998,-1.122 0.35898,0.0564 -0.20671,0.69395 -0.37584,1.39136 -0.37584,1.54979 0,0.15843 -1.68978,0.26359 -3.75508,0.23369 -2.06528,-0.0298 -3.38773,-0.21072 -2.93875,-0.4018 z m 9.17545,-0.37038 c 1.01602,-1.07164 1.01602,-6.91837 0,-7.98999 -0.60952,-0.64287 -0.50069,-0.82959 0.48978,-0.84022 0.71643,-0.008 2.64189,1.5741 4.40187,3.61617 l 3.12839,3.62982 -0.18964,-3.61659 c -0.14913,-2.84408 0.0196,-3.61684 0.78994,-3.61772 0.7982,-6.8e-4 0.93943,0.89195 0.76273,4.82197 -0.11921,2.65272 -0.41314,4.83171 -0.65305,4.84222 -0.23991,0.0108 -1.99205,-1.77176 -3.89364,-3.96057 l -3.45744,-3.97966 0.19215,3.96149 c 0.17161,3.538 0.056,3.9614 -1.08131,3.96056 -0.99047,-6.9e-4 -1.0993,-0.18461 -0.48978,-0.82748 z m 13.68153,0.34869 c 0.52628,-0.21001 0.81632,-1.77372 0.81632,-4.40109 0,-3.5571 -0.15918,-4.07535 -1.25169,-4.07535 -0.68843,0 -1.39992,0.38744 -1.58109,0.86099 -0.19678,0.51434 -0.35015,0.37569 -0.38094,-0.34441 -0.0436,-1.02008 0.55076,-1.20538 3.86678,-1.20538 3.30019,0 3.91675,0.19016 3.90834,1.20538 -0.008,0.96483 -0.12518,1.01353 -0.58715,0.24403 -0.31742,-0.52875 -1.04762,-0.77093 -1.62264,-0.53821 -1.21724,0.49266 -1.50068,6.59869 -0.36207,7.79962 0.47586,0.50188 0.0295,0.72982 -1.46938,0.75048 -1.18405,0.0164 -1.78546,-0.11699 -1.33648,-0.29606 z M 20.548066,169.37747 c -0.333279,-0.91604 12.987538,-1.03319 117.480324,-1.03319 104.32572,0 117.85623,0.11869 117.85623,1.03319 0,0.91456 -13.48874,1.03319 -117.48032,1.03319 -103.824524,0 -117.524026,-0.12009 -117.856234,-1.03319 z m 3.605185,-4.37117 c 0.122534,-0.33832 12.418622,-17.52888 27.324639,-38.20129 l 27.10185,-37.586156 20.027375,-0.04281 20.027385,-0.04281 0.638,3.271765 c 0.3509,1.799469 2.05336,11.290061 3.78325,21.090221 1.7299,9.80014 3.28666,17.39408 3.45947,16.87541 0.17283,-0.51868 2.70024,-10.02604 5.61647,-21.12746 l 5.30224,-20.1844 10.73589,-0.0077 10.73589,-0.0077 5.35101,20.19168 c 2.94304,11.10541 5.45676,20.6566 5.58601,21.22486 0.12924,0.56825 1.36081,-5.16594 2.7368,-12.74266 1.37599,-7.57672 3.12347,-17.11616 3.88331,-21.198763 l 1.38152,-7.422924 37.22422,0.0062 37.22423,0.0062 0.18399,7.933879 0.18399,7.933858 h -18.95936 -18.95937 v 6.19914 6.19914 h 17.306 17.30599 v 7.9211 7.92111 h -17.30599 -17.306 v 7.57673 7.5767 h 19.26517 19.26517 v 8.60991 8.6099 h -30.69367 -30.69365 l -0.0542,-20.49157 -0.0542,-20.49158 -4.31115,20.49158 -4.31113,20.49157 -11.14478,-6.8e-4 -11.14472,-6.9e-4 -6.20405,-23.72195 c -3.4122,-13.04708 -6.37484,-23.50775 -6.58362,-23.24597 -0.2809,0.35222 -9.12556,33.51919 -12.20817,45.77998 -0.2812,1.11848 -1.2477,1.20546 -11.47997,1.0332 l -11.17292,-0.18811 -4.3679,-20.66376 -4.36791,-20.66378 -0.0524,20.83597 -0.0524,20.83598 H 92.245033 80.114462 l 0.459788,-6.19914 0.45979,-6.19914 H 68.006431 54.978954 l -3.872966,6.02694 -3.872966,6.02693 -11.651279,0.18835 c -6.649358,0.10742 -11.555638,-0.0757 -11.428492,-0.42677 z m 58.285163,-31.27383 c 0.179326,-1.23122 0.492924,-5.64811 0.696883,-9.81529 0.20396,-4.16721 0.543993,-9.28148 0.75563,-11.36508 l 0.384794,-3.78836 -2.563857,3.80916 c -1.410122,2.09504 -5.430468,8.21668 -8.934102,13.60365 l -6.370244,9.79449 h 7.852425 7.852425 z"
     id="path211" /></g></svg>
