<?xml version="1.0" encoding="UTF-8" standalone="no"?>
<!-- Generator: Adobe Illustrator 16.0.0, SVG Export Plug-In . SVG Version: 6.00 Build 0)  -->

<svg
   version="1.1"
   id="Layer_1"
   x="0px"
   y="0px"
   width="280px"
   height="280px"
   viewBox="0 0 280 280"
   enable-background="new 0 0 280 280"
   xml:space="preserve"
   sodipodi:docname="nhk.svg"
   inkscape:version="1.4 (e7c3feb100, 2024-10-09)"
   xmlns:inkscape="http://www.inkscape.org/namespaces/inkscape"
   xmlns:sodipodi="http://sodipodi.sourceforge.net/DTD/sodipodi-0.dtd"
   xmlns="http://www.w3.org/2000/svg"
   xmlns:svg="http://www.w3.org/2000/svg"><defs
   id="defs216276">
	
	
	
</defs><sodipodi:namedview
   id="namedview216274"
   pagecolor="#ffffff"
   bordercolor="#666666"
   borderopacity="1.0"
   inkscape:pageshadow="2"
   inkscape:pageopacity="0.0"
   inkscape:pagecheckerboard="0"
   showgrid="false"
   inkscape:zoom="1.4857143"
   inkscape:cx="217.06731"
   inkscape:cy="193.17308"
   inkscape:window-width="1600"
   inkscape:window-height="815"
   inkscape:window-x="0"
   inkscape:window-y="0"
   inkscape:window-maximized="1"
   inkscape:current-layer="layer2"
   inkscape:showpageshadow="2"
   inkscape:deskcolor="#d1d1d1" />
<g
   inkscape:groupmode="layer"
   id="layer2"
   inkscape:label="BG"><rect
     y="0"
     fill-rule="evenodd"
     clip-rule="evenodd"
     fill="#164E86"
     width="280"
     height="280"
     id="rect4994-7"
     style="fill:#e60012;fill-opacity:1;stroke:none;stroke-width:0.999999;stroke-opacity:1"
     x="0" /></g>
<g
   inkscape:groupmode="layer"
   id="layer1"
   inkscape:label="Logo" /><path
   style="fill:#ffffff;stroke-width:0.341617"
   d="M 19.068714,201.64538 V 176.3657 H 135.73103 252.39334 v 25.27968 25.27968 H 135.73103 19.068714 Z m 95.311226,4.44102 v -15.03115 h 5.80751 5.80749 v -3.58698 -3.58698 H 109.93893 93.882911 v 3.58698 3.58698 h 5.807495 5.807494 v 15.03115 15.03117 h 4.44103 4.44101 z m 50.72647,14.43334 c 0.13211,-0.32881 1.28824,-3.59552 2.56917,-7.25937 2.1593,-6.17624 3.09525,-8.83766 8.33393,-23.69815 1.05119,-2.98189 1.91126,-5.47997 1.91126,-5.55127 0,-0.0712 -2.05888,-0.12966 -4.57529,-0.12966 -4.04019,0 -4.60275,0.0699 -4.81015,0.59782 -0.12917,0.32881 -1.99177,5.80233 -4.13909,12.16336 -2.14732,6.36104 -4.01854,11.76978 -4.15825,12.01943 -0.15088,0.26961 -1.97899,-4.66923 -4.50228,-12.16335 l -4.24823,-12.61726 h -4.54746 c -2.51226,0 -4.54745,0.13947 -4.54745,0.31163 0,0.17141 1.21503,3.82244 2.70006,8.11342 1.48504,4.29097 4.25651,12.33674 6.15881,17.87947 1.90231,5.54274 3.52641,10.26988 3.60913,10.50474 0.11095,0.31493 1.44386,0.42702 5.07802,0.42702 4.37373,0 4.95462,-0.0671 5.16782,-0.59783 z M 95.53188,162.67492 c -2.675239,-0.39257 -4.072131,-1.04187 -5.951187,-2.7662 -1.761382,-1.61636 -2.873088,-3.76406 -3.594558,-6.94435 -0.726474,-3.20235 -0.633001,-18.06694 0.132698,-21.10161 1.493885,-5.92066 4.439307,-8.72293 9.978284,-9.49333 4.873793,-0.6779 9.534133,0.5425 12.029823,3.15019 1.3464,1.40683 2.7049,4.31525 3.26236,6.98441 0.59804,2.86344 0.56417,17.75551 -0.0465,20.46034 -1.37205,6.07685 -4.23945,8.91913 -9.81034,9.7244 -2.668658,0.38574 -3.287213,0.38432 -6.000551,-0.0138 z m 5.72315,-6.08397 c 2.36474,-1.44201 3.0003,-4.97871 2.79198,-15.53644 -0.16615,-8.42008 -0.52167,-10.29244 -2.27291,-11.97024 -1.30149,-1.24692 -3.519713,-1.5515 -5.265599,-0.72302 -2.525279,1.19833 -3.303661,4.58057 -3.303661,14.35515 0,11.54617 1.100299,14.4686 5.460715,14.50378 0.92214,0.007 1.958305,-0.24434 2.589475,-0.62923 z m -61.825793,4.82899 c -0.104952,-0.51669 -1.656105,-9.01015 -3.447016,-18.87435 -1.790912,-9.86421 -3.33434,-18.2808 -3.429825,-18.70355 -0.171863,-0.76084 -0.135736,-0.76864 3.563528,-0.76864 h 3.737162 l 0.193918,0.93944 c 0.106652,0.5167 1.043591,6.70425 2.082085,13.75011 2.208524,14.98415 2.233094,15.10772 2.581202,12.98145 0.138424,-0.84549 1.115414,-6.99461 2.171086,-13.66469 1.055671,-6.67007 2.005931,-12.55017 2.111675,-13.06687 l 0.192273,-0.93944 h 3.694103 c 2.646857,0 3.736974,0.12106 3.845358,0.42703 0.0832,0.23486 1.137296,6.69128 2.342461,14.3476 1.205165,7.65632 2.270172,13.92073 2.366677,13.9209 0.09652,1.8e-4 1.073353,-6.03349 2.170763,-13.40816 1.097411,-7.37465 2.075324,-13.83123 2.173149,-14.34793 l 0.17786,-0.93944 h 3.752118 c 3.717935,0 3.750444,0.007 3.567886,0.76864 -0.101332,0.42275 -1.655811,8.91621 -3.454391,18.87436 -1.798589,9.95814 -3.349416,18.45161 -3.446289,18.87435 -0.171368,0.74786 -0.294235,0.76864 -4.545448,0.76864 h -4.369321 l -2.187633,-14.1727 c -1.203199,-7.795 -2.288949,-14.0594 -2.412769,-13.92091 -0.123828,0.13849 -1.09287,5.93973 -2.153436,12.89164 -1.060564,6.95192 -2.022733,13.21632 -2.13815,13.9209 l -0.209857,1.28107 H 43.989219 39.62004 Z M 129.06949,142.7164 v -19.643 h 8.64924 c 10.12832,0 11.34244,0.2209 13.70305,2.49332 1.8072,1.73968 2.58578,4.02566 2.58578,7.59211 0,5.16027 -1.94185,8.30119 -5.80529,9.39005 -0.7959,0.22432 -0.75503,0.26945 0.58008,0.64042 1.69289,0.47039 3.32803,1.7575 4.07995,3.21155 0.37835,0.73165 0.65855,2.95053 0.94298,7.46764 0.36236,5.75455 0.48449,6.53465 1.16776,7.4588 l 0.76306,1.0321 h -4.23862 c -3.38392,0 -4.32589,-0.10521 -4.67148,-0.52157 -0.28722,-0.34606 -0.52536,-2.55584 -0.70774,-6.56737 -0.40055,-8.80975 -0.96016,-9.65031 -6.42486,-9.65031 h -2.76671 v 8.36963 8.36962 h -3.9286 -3.9286 z m 14.34112,-3.1605 c 1.92236,-0.96582 2.73975,-2.51993 2.73975,-5.20912 0,-1.82013 -0.16041,-2.52858 -0.7814,-3.45107 -1.06956,-1.58886 -2.24069,-2.06584 -5.58449,-2.27445 l -2.85778,-0.17828 v 5.85563 5.85566 l 2.64754,-6.8e-4 c 1.83865,-3.5e-4 3.01074,-0.18303 3.83638,-0.59784 z m 30.06912,3.1605 v -19.643 h 3.92861 3.9286 v 16.39763 16.39764 h 7.00315 7.00315 v 3.24536 3.24536 h -10.93175 -10.93176 z m 39.96923,0.0137 v -19.69935 l 8.62584,0.10674 c 8.15888,0.10099 8.71832,0.14927 10.33393,0.89285 3.30654,1.52183 5.21672,4.19625 6.23959,8.73608 0.78211,3.47114 0.773,15.44227 -0.0144,18.94416 -1.15891,5.15417 -2.83976,7.64108 -6.32406,9.35672 l -2.27722,1.12127 -8.29185,0.12045 -8.29185,0.12045 V 142.7301 Z m 14.9213,12.93747 c 2.32342,-1.7198 3.18955,-5.32641 3.17765,-13.23211 -0.0164,-10.88431 -1.43185,-13.47399 -7.55869,-13.82866 l -2.68305,-0.15533 v 14.08418 14.08421 l 3.05008,-0.1194 c 2.43329,-0.0952 3.24501,-0.26368 4.01401,-0.83289 z M 34.441494,100.32443 c -2.664349,-1.152257 -4.709686,-4.046958 -5.017241,-7.100735 -0.194737,-1.933485 -0.471277,-1.061878 8.991501,-28.339443 5.223548,-15.057508 5.526774,-15.648331 8.817393,-17.180621 1.845416,-0.859326 4.028793,-1.03384 5.96982,-0.477162 2.848363,0.8169 3.465042,1.595975 11.557859,14.601528 4.722542,7.589355 7.81925,12.249482 7.961141,11.980424 0.127708,-0.242193 1.900369,-5.277505 3.939245,-11.189594 2.296399,-6.658842 4.100976,-11.333903 4.742277,-12.285673 2.706456,-4.016713 9.085867,-4.614231 12.619895,-1.182026 1.723253,1.673601 2.331528,3.034655 2.500982,5.596081 0.143083,2.162817 -0.03407,2.744588 -6.519029,21.407291 -3.666359,10.551227 -6.982597,19.804416 -7.369412,20.562648 -1.80009,3.528472 -7.036306,5.218952 -10.829742,3.496332 C 69.695852,99.255171 68.692544,97.976711 63.607021,89.765708 61.046869,85.632134 57.783633,80.36696 56.355381,78.065314 54.927129,75.763669 53.662845,73.8805 53.54586,73.8805 c -0.116996,0 -1.87309,4.803992 -3.902443,10.675544 -2.029368,5.871549 -3.960601,11.213584 -4.291638,11.871198 -0.792752,1.574796 -2.57465,3.253241 -4.152373,3.911288 -1.608033,0.67069 -5.191784,0.66322 -6.757912,-0.0141 z m 73.872136,0.0513 c -1.98317,-0.893654 -3.44687,-2.25845 -4.33631,-4.043321 -1.65479,-3.320725 -1.63741,-3.395228 5.77627,-24.775123 3.65587,-10.542912 6.9596,-19.781618 7.34162,-20.530456 1.22651,-2.404146 4.19943,-4.135517 7.09527,-4.13214 2.72855,0.003 4.15237,0.592457 6.05381,2.505502 3.10177,3.120725 3.31913,5.621329 1.04571,12.029967 -0.8455,2.383422 -1.53727,4.391926 -1.53727,4.463344 0,0.07142 4.35545,0.129852 9.67877,0.129852 h 9.67879 l 0.35996,-1.110256 c 1.20114,-3.70456 4.53662,-12.928654 4.99704,-13.819008 0.74468,-1.440054 3.15899,-3.447111 4.6422,-3.859141 4.15218,-1.153465 8.03895,0.380246 10.16729,4.012004 0.74848,1.27718 0.92013,1.991116 0.91796,3.818045 -0.002,1.959541 -0.43025,3.471224 -3.34386,11.812401 -1.83767,5.260905 -4.70308,13.516378 -6.36761,18.345488 -3.85955,11.197321 -4.20359,11.975418 -5.99068,13.548473 -4.23398,3.726899 -11.18786,2.235059 -13.31494,-2.856489 -1.07615,-2.575988 -0.97823,-3.87377 0.67372,-8.928336 0.86132,-2.635444 1.56605,-4.971429 1.56605,-5.191064 0,-0.295158 -2.48513,-0.39934 -9.52598,-0.39934 h -9.52598 l -1.97381,5.722097 c -3.69442,10.710166 -3.7905,10.897038 -6.4476,12.539799 -1.37874,0.852402 -2.0893,1.047762 -4.09296,1.125332 -1.58287,0.0613 -2.81094,-0.0803 -3.53746,-0.40763 z m 72.8283,-0.32072 c -0.95277,-0.44365 -2.2263,-1.402944 -2.83009,-2.131768 -1.35009,-1.629704 -2.2497,-4.516811 -1.96404,-6.303213 0.11482,-0.717694 2.19288,-7.039576 4.61802,-14.048618 2.42515,-7.009043 5.46078,-15.799596 6.74586,-19.534557 1.9158,-5.568085 2.56592,-7.052379 3.61061,-8.243328 4.38361,-4.997359 12.56382,-3.268403 14.4501,3.054161 0.71957,2.411919 0.65332,2.927952 -1.0318,8.03486 -0.83397,2.527409 -1.48133,4.630258 -1.43858,4.673001 0.0428,0.04274 5.99432,-3.697622 13.22575,-8.311919 7.23142,-4.614296 13.76295,-8.673801 14.5145,-9.021115 5.37718,-2.484962 12.01776,2.227064 11.36019,8.060973 -0.22742,2.017654 -1.47123,4.465239 -2.76932,5.44952 -0.59141,0.448438 -5.45653,3.605433 -10.81138,7.015547 -5.35485,3.41011 -9.73609,6.330587 -9.73609,6.489934 0,0.159346 2.63503,3.057108 5.85562,6.439467 4.98577,5.236209 5.94355,6.414507 6.44761,7.932091 1.2861,3.872051 -0.48306,8.278263 -4.06822,10.132226 -1.60764,0.831348 -5.05122,0.984208 -6.83399,0.303358 -1.77763,-0.678888 -1.99993,-0.891416 -13.00624,-12.435197 -4.69187,-4.920976 -8.61192,-8.946939 -8.71124,-8.946571 -0.0994,3.37e-4 -1.46938,3.72826 -3.04459,8.284214 -3.35207,9.695184 -3.67289,10.393359 -5.49125,11.9498 -2.48432,2.126484 -6.03828,2.578824 -9.09143,1.157134 z"
   id="path1223" /><path
   style="fill:#000000"
   d="m -940.6263,418.91809 v -74 h 341.5 341.5 v 74 74 h -341.5 -341.5 z m 278.76051,12.75 0.26051,-43.75 h 16.98949 16.98949 v -10.5 -10.5 h -47 -47 v 10.5 10.5 h 17 17 v 44.02988 44.02987 l 12.75,-0.27987 12.75,-0.27988 z m 149.55956,40 c 0.87549,-2.3375 5.91865,-16.625 11.20703,-31.75 5.28838,-15.125 13.18321,-37.59718 17.54407,-49.93818 4.36086,-12.34101 7.92883,-22.57851 7.92883,-22.75 0,-0.1715 -6.02082,-0.31182 -13.3796,-0.31182 h -13.37959 l -11.78726,34.75 c -13.74533,40.52255 -13.29904,39.25 -13.7652,39.25 -0.19863,0 -5.94727,-16.64734 -12.77475,-36.99409 l -12.4136,-36.99408 -13.25,-0.006 c -7.98824,-0.004 -13.25,0.38317 -13.25,0.97385 0,0.53887 0.65751,2.67637 1.46114,4.75 0.80363,2.07363 8.69174,24.92024 17.52913,50.77024 8.83739,25.85 16.55947,48.2375 17.16018,49.75 l 1.09219,2.75 h 14.24282 14.24282 l 1.59179,-4.25 z M -717.18154,304.97966 c -14.62426,-2.3018 -23.11209,-10.67185 -27.1672,-26.79025 -2.14078,-8.50925 -2.51201,-52.15883 -0.52445,-61.6655 2.6189,-12.52646 8.80451,-21.82774 17.4191,-26.19309 9.64652,-4.88826 27.6589,-5.30603 38.23555,-0.88682 8.69739,3.634 16.05931,13.94913 18.64568,26.12532 1.57704,7.42443 2.31135,42.56865 1.10423,52.84877 -2.42383,20.642 -9.04272,30.95254 -22.46286,34.99141 -5.87455,1.76798 -18.86205,2.5756 -25.25005,1.57016 z m 17.13528,-17.94725 c 6.93919,-4.23151 8.81594,-14.69878 8.16666,-45.54827 -0.51901,-24.66043 -1.56412,-30.10082 -6.73385,-35.05374 -2.5642,-2.45666 -3.87266,-2.91508 -8.44752,-2.95961 -13.17,-0.12821 -16.52571,8.59269 -16.52571,42.9473 0,33.7606 3.2303,42.35354 15.96038,42.45622 2.69935,0.0218 5.73246,-0.71525 7.58004,-1.8419 z m -181.47765,11.63568 c -0.57167,-2.8875 -4.63929,-25.05 -9.03915,-49.25 -4.39987,-24.2 -8.68896,-47.6 -9.53133,-52 -0.84236,-4.4 -1.53164,-8.1125 -1.53174,-8.25 -9e-5,-0.1375 4.94126,-0.25 10.98078,-0.25 10.57485,0 10.99919,0.0832 11.47415,2.25 0.27127,1.2375 1.83701,11.475 3.47944,22.75 1.64243,11.275 4.20196,28.825 5.68785,39 1.48588,10.175 2.98148,18.83028 3.32356,19.23395 0.34207,0.40367 3.45338,-17.14633 6.91402,-39 3.46064,-21.85367 6.53164,-40.74645 6.82446,-41.98395 0.51174,-2.16273 0.95411,-2.25 11.40493,-2.25 10.45459,0 10.89251,0.0865 11.39215,2.25 0.28579,1.2375 3.2396,19.575 6.56403,40.75 3.32442,21.175 6.30794,39.175 6.63004,40 0.4195,1.07448 12.82181,-75.78477 13.27217,-82.25 0.0287,-0.4125 5.038,-0.75 11.13171,-0.75 h 11.07945 l -0.57026,2.75 c -0.31364,1.5125 -4.84243,26.375 -10.06397,55.25 -5.22155,28.875 -9.73426,53.5125 -10.02825,54.75 -0.52036,2.19033 -0.8788,2.25 -13.51548,2.25 -9.71534,0 -12.98225,-0.31446 -12.98612,-1.25 -0.003,-0.6875 -1.30789,-9.575 -2.90011,-19.75 -1.59222,-10.175 -4.38512,-28.28228 -6.20644,-40.23839 -1.82132,-11.95612 -3.59817,-21.40612 -3.94856,-21 -0.35039,0.40611 -2.30025,11.76339 -4.33301,25.23839 -2.03277,13.475 -4.86161,31.8125 -6.28631,40.75 l -2.59036,16.25 h -12.79412 -12.79412 z m 262.89761,-52.25 v -57.5 h 25.3185 c 28.6295,0 32.57756,0.65129 39.41237,6.50163 5.61308,4.80459 8.26913,11.99208 8.26913,22.37695 0,14.04667 -4.20007,22.4529 -13.33231,26.68392 -4.08274,1.89157 -4.6879,2.46628 -3.11703,2.96018 12.94257,4.0693 14.24989,6.67403 15.91382,31.70703 1.10822,16.67243 1.51223,19.24751 3.42589,21.83587 l 2.1695,2.93442 h -12.99139 -12.99139 l -0.94117,-3.75 c -0.51765,-2.0625 -1.17327,-10.53906 -1.45694,-18.8368 -0.79143,-23.15039 -2.47847,-25.71383 -17.28198,-26.25973 l -9.397,-0.34653 v 24.59653 24.59653 h -11.5 -11.5 z m 42.41007,-9.52633 c 5.11646,-2.591 7.02082,-6.27684 7.37514,-14.2744 0.54646,-12.33479 -3.84727,-16.48677 -18.3985,-17.38618 l -8.38671,-0.51839 v 17.20527 17.20526 l 8.25,-0.37895 c 4.5375,-0.20842 9.55953,-1.0421 11.16007,-1.85261 z m 87.58993,9.52633 v -57.5 h 11.5 11.5 v 48 48 h 20.5 20.5 v 9.5 9.5 h -32 -32 z m 117,0.11199 v -57.56971 l 19.75,-0.27114 c 23.67546,-0.32503 30.59068,0.34772 36.9434,3.59404 8.80309,4.49849 13.86496,11.74563 17.01705,24.3635 1.33162,5.33053 1.68599,11.34605 1.66542,28.27132 -0.0293,24.10071 -1.16006,31.69112 -6.19985,41.61701 -3.72111,7.32875 -7.02627,10.49859 -14.67602,14.07517 -5.97513,2.79362 -6.1005,2.80667 -30.25,3.14738 l -24.25,0.34214 z m 43.67836,37.83604 c 7.17755,-5.21972 9.90489,-18.78337 9.03801,-44.94803 -0.58376,-17.61915 -2.03035,-23.97696 -6.56439,-28.85064 -3.50455,-3.76707 -6.11772,-4.67394 -15.39301,-5.34193 l -7.75897,-0.55878 v 41.22517 41.22518 l 8.92836,-0.3495 c 7.04524,-0.27579 9.52349,-0.78229 11.75,-2.40147 z M -896.1263,122.03925 c -8.80158,-4.03754 -15.06718,-14.31933 -14.29905,-23.46459 0.26944,-3.20797 7.96015,-26.8851 20.35184,-62.65657 l 19.91874,-57.5 5.01423,-5.05536 c 8.20405,-8.27133 20.00767,-9.86175 29.94958,-4.0354 5.34519,3.13249 5.48088,3.32876 32.55525,47.09076 9.52757,15.4 17.63379,28.35897 18.01384,28.79771 0.38004,0.43873 5.55309,-13.28627 11.49567,-30.5 5.94258,-17.21374 11.85455,-33.40731 13.13772,-35.9857 4.00175,-8.04112 12.26441,-12.82733 22.08006,-12.79005 13.70859,0.0521 24.20747,10.51257 24.26016,24.17148 0.0228,5.90353 0.99343,2.9307 -31.66677,96.98545 -9.44903,27.21132 -11.13451,30.17763 -19.57837,34.45646 -4.3457,2.20213 -6.08427,2.51501 -12.2462,2.20385 -5.86699,-0.29627 -8.07884,-0.91724 -12.08409,-3.39256 -4.54394,-2.80825 -6.54868,-5.67778 -27.40261,-39.22348 -12.375,-19.90645 -22.73974,-36.20022 -23.03275,-36.20836 -0.29301,-0.008 -5.41629,14.0477 -11.38506,31.2352 -5.96877,17.1875 -11.6463,32.8309 -12.61672,34.76311 -4.26533,8.49268 -11.81789,12.94297 -21.96547,12.94297 -4.18511,0 -7.92455,-0.65348 -10.5,-1.83492 z m 214.66838,-0.72454 c -8.42067,-4.1962 -13.16838,-12.05164 -13.16838,-21.78808 0,-4.50088 3.50451,-15.57541 20.02419,-63.27806 14.70114,-42.45143 20.77739,-58.75386 22.85759,-61.32643 4.38703,-5.42541 12.10414,-9.00405 19.41669,-9.00405 7.48033,0 13.14943,2.53961 18.23513,8.16887 8.08003,8.94363 8.48325,16.017 1.9664,34.49551 -2.475,7.01786 -4.5,12.88932 -4.5,13.04768 0,0.15837 12.7322,0.28794 28.29379,0.28794 h 28.29378 l 5.87133,-17.25 c 3.22923,-9.4875 6.9454,-19.725 8.25816,-22.75 4.65841,-10.73437 12.17292,-15.93996 23.06506,-15.97804 7.31649,-0.0256 11.4183,1.45909 16.59952,6.00826 5.77908,5.07411 7.99127,10.21255 7.95154,18.46978 -0.0312,6.4758 -1.43823,11.00638 -18.78946,60.5 -10.31568,29.425 -19.1634,54.9052 -19.6616,56.62267 -1.28002,4.41268 -8.5647,12.32817 -13.34341,14.49886 -4.69501,2.13266 -12.98297,2.42005 -18.92269,0.65615 -6.2601,-1.85905 -13.10633,-9.21658 -15.16475,-16.29732 -2.05204,-7.05875 -1.61751,-10.11957 3.57396,-25.17542 2.18613,-6.33999 3.97477,-12.15223 3.97477,-12.9161 0,-1.1519 -4.7548,-1.38884 -27.87064,-1.38884 h -27.87064 l -6.78855,19.75 c -9.66562,28.12032 -11.10501,30.54294 -21.17051,35.63195 -5.13662,2.59701 -14.85149,2.14402 -21.13128,-0.98533 z m 215.26076,0.22261 c -6.3319,-2.94843 -11.02881,-8.51646 -13.07113,-15.49539 -2.02227,-6.91043 -1.47331,-10.20662 4.60053,-27.62384 7.46369,-21.40271 22.21661,-64.0491 28.65139,-82.8228 6.38909,-18.64043 9.62123,-23.67432 17.71706,-27.59345 5.83796,-2.8261 15.48436,-2.83758 21.29371,-0.0253 5.89772,2.85504 10.96517,8.80796 12.82286,15.06348 2.25335,7.58783 2.03379,9.37629 -2.94536,23.9927 -2.47599,7.26832 -4.38849,13.31631 -4.25,13.43998 0.13849,0.12365 17.1268,-10.54111 37.7518,-23.69949 45.41453,-28.97365 45.19768,-28.85512 52.78744,-28.85512 19.38599,0 30.61515,20.76608 19.87046,36.74643 -2.72351,4.05062 -7.17708,7.24539 -32.37623,23.22512 -16.07009,10.19065 -30.01142,19.02203 -30.98075,19.62529 -1.54831,0.9636 0.23965,3.18779 14.71834,18.30937 20.05815,20.94879 21.48874,23.12178 21.45808,32.59379 -0.0472,14.59257 -9.73464,24.42657 -24.11315,24.47804 -10.39534,0.0372 -12.85041,-1.89461 -43.81676,-34.47804 -15.15842,-15.95 -27.89527,-29.1069 -28.3041,-29.23756 -0.40883,-0.13066 -4.78884,11.51619 -9.73336,25.8819 -7.67399,22.29585 -9.5421,26.74664 -12.76126,30.4038 -7.54113,8.56717 -18.90553,10.92036 -29.31957,6.07109 z M -596.9018,-72.69074 c -0.33485,-0.33486 -0.6473,-26.65986 -0.69431,-58.5 l -0.0855,-57.89117 h 169.54291 169.54291 l -0.0468,57.0005 c -0.0258,31.35027 -0.30578,57.67527 -0.62225,58.5 -0.50827,1.32445 -20.21445,1.4995 -168.80179,1.4995 -92.52449,0 -168.50032,-0.27397 -168.83518,-0.60883 z"
   id="path1105" /></svg>
