<?xml version="1.0" encoding="UTF-8" standalone="no"?>
<!-- Generator: Adobe Illustrator 16.0.0, SVG Export Plug-In . SVG Version: 6.00 Build 0)  -->

<svg
   version="1.1"
   id="Layer_1"
   x="0px"
   y="0px"
   width="280px"
   height="280px"
   viewBox="0 0 280 280"
   enable-background="new 0 0 280 280"
   xml:space="preserve"
   sodipodi:docname="recordtv.svg"
   inkscape:version="1.4 (e7c3feb100, 2024-10-09)"
   xmlns:inkscape="http://www.inkscape.org/namespaces/inkscape"
   xmlns:sodipodi="http://sodipodi.sourceforge.net/DTD/sodipodi-0.dtd"
   xmlns="http://www.w3.org/2000/svg"
   xmlns:svg="http://www.w3.org/2000/svg"><defs
   id="defs5011" /><sodipodi:namedview
   id="namedview5009"
   pagecolor="#ffffff"
   bordercolor="#000000"
   borderopacity="0.25"
   inkscape:showpageshadow="2"
   inkscape:pageopacity="0.0"
   inkscape:pagecheckerboard="0"
   inkscape:deskcolor="#d1d1d1"
   showgrid="false"
   inkscape:zoom="1.4767857"
   inkscape:cx="281.3543"
   inkscape:cy="218.71826"
   inkscape:window-width="1600"
   inkscape:window-height="815"
   inkscape:window-x="0"
   inkscape:window-y="0"
   inkscape:window-maximized="1"
   inkscape:current-layer="Layer_1"
   inkscape:pageshadow="2"
   showguides="false" />
<rect
   y="0.023242312"
   fill-rule="evenodd"
   clip-rule="evenodd"
   fill="#164E86"
   width="280"
   height="280"
   id="rect4994-7"
   style="fill:#818183;fill-opacity:1;stroke:none;stroke-width:0.999999;stroke-opacity:1"
   x="0" />

<path
   style="fill:#ffffff;stroke-width:0.228651"
   d="m 94.264968,257.73266 c -2.713346,-0.75581 -5.017977,-2.25729 -7.109856,-4.63208 -2.079464,-2.3607 -3.202012,-4.38254 -3.981386,-7.17099 -2.088968,-7.47387 0.583388,-15.74097 6.469339,-20.01328 5.729148,-4.15851 13.762095,-3.48718 18.554685,1.55063 l 1.09473,1.15076 -1.4339,1.9485 c -0.78863,1.07168 -1.66588,2.26145 -1.94943,2.64393 l -0.51555,0.69543 -0.97589,-1.0207 c -2.74378,-2.86977 -7.025038,-3.49482 -10.47975,-1.53 -1.533012,0.87189 -3.238934,2.92174 -4.051564,4.86837 -0.650996,1.55945 -0.688736,1.80333 -0.688736,4.45083 0,2.62864 0.04091,2.89838 0.664859,4.38413 0.974691,2.32092 2.373908,3.95226 4.331498,5.05006 1.59296,0.89332 1.69744,0.91722 4.007905,0.91722 2.209068,0 2.468318,-0.0519 3.767538,-0.7544 0.76739,-0.41492 1.88587,-1.25769 2.48553,-1.87281 l 1.09029,-1.1184 2.1295,2.43866 2.1295,2.43866 -1.45457,1.54551 c -1.72181,1.82944 -4.60806,3.53983 -6.95925,4.12401 -2.028736,0.50408 -5.125011,0.46323 -7.125492,-0.0941 z m 27.039332,0.22857 c -5.99266,-1.43162 -10.7765,-6.62861 -12.13922,-13.18761 -0.41624,-2.00349 -0.41232,-6.21441 0.007,-8.23644 0.95669,-4.60586 4.03262,-9.0589 7.80395,-11.29784 2.54375,-1.51015 4.28003,-1.98003 7.31661,-1.98003 3.03656,0 4.77284,0.46988 7.31659,1.98003 3.77356,2.24027 6.85055,6.71013 7.8153,11.35313 0.40867,1.96674 0.40676,6.2056 -0.004,8.18115 -0.94202,4.53416 -3.79978,8.83953 -7.42947,11.19293 -2.20806,1.43164 -4.30289,2.05887 -7.1621,2.14447 -1.4167,0.0424 -3.00323,-0.025 -3.52562,-0.14979 z m 5.68758,-7.21586 c 4.52679,-1.71984 7.20167,-7.33203 5.99663,-12.58165 -0.74955,-3.26525 -2.47919,-5.71139 -4.99445,-7.06336 -1.34133,-0.72097 -1.61138,-0.77773 -3.70076,-0.77773 -2.08938,0 -2.35944,0.0567 -3.70076,0.77773 -2.46411,1.32448 -4.27785,3.85828 -5.02242,7.01629 -1.20621,5.11608 1.49667,10.86163 5.9327,12.61119 1.31279,0.51776 4.14855,0.52682 5.48906,0.0175 z M 32.422143,240.66368 v -16.57266 l 8.651451,0.0712 8.651473,0.0712 1.614399,0.90566 c 2.097582,1.17673 3.610838,2.89401 4.647543,5.27416 0.788203,1.80963 0.798163,1.86928 0.798163,4.78051 0,2.91122 -0.0099,2.97089 -0.798163,4.78051 -0.482581,1.10795 -1.240003,2.33383 -1.915664,3.10048 -1.346706,1.52812 -3.704554,2.91368 -5.403376,3.17527 -0.670895,0.10331 -1.2713,0.24625 -1.334236,0.31766 -0.06293,0.0714 1.965442,2.43484 4.507505,5.25207 2.542083,2.81723 4.621955,5.18843 4.621955,5.26934 0,0.081 -1.906905,0.1471 -4.237557,0.1471 H 47.9881 l -4.563205,-5.17358 -4.563185,-5.17359 v 5.17359 5.17358 h -3.219784 -3.219783 z m 15.405269,-0.85371 c 1.642004,-0.77849 2.625518,-2.46205 2.625518,-4.49429 0,-1.29768 -0.508016,-2.74087 -1.211411,-3.44141 -1.093954,-1.08951 -1.589671,-1.18629 -6.076096,-1.18629 H 38.86171 v 4.74947 4.74948 h 4.085283 c 3.201774,0 4.257241,-0.0815 4.880419,-0.37696 z m 12.070218,0.8032 V 223.99 l 11.000926,0.0564 11.000928,0.0565 v 3.1099 3.10989 l -7.781143,0.0639 -7.781144,0.0639 v 3.40684 3.40684 h 6.868871 6.868871 v 3.16631 3.16633 h -6.868871 -6.868871 v 3.65343 3.65345 h 7.834807 7.834806 v 3.16632 3.16631 H 70.952219 59.89763 Z m 81.56784,0.0505 v -16.57263 l 8.63976,0.0712 8.63975,0.0712 1.45074,0.77975 c 1.63245,0.87743 3.57747,2.82726 4.39041,4.40127 1.78155,3.44944 1.78155,8.10918 0,11.55862 -1.44145,2.79092 -4.75286,5.18259 -7.39738,5.34278 -0.50174,0.0304 -0.91227,0.12491 -0.91227,0.21012 0,0.0851 2.07676,2.42984 4.61502,5.21035 2.53827,2.78053 4.61503,5.15548 4.61503,5.27769 0,0.12637 -1.8273,0.22219 -4.23755,0.22219 h -4.23755 l -4.5632,-5.17358 -4.56319,-5.1736 v 5.1736 5.17358 h -3.21978 -3.21979 z m 15.66536,-1.02476 c 0.51991,-0.30141 1.23634,-0.96311 1.59204,-1.47045 1.19097,-1.69863 0.96864,-4.89325 -0.43802,-6.2942 -1.09395,-1.08951 -1.58967,-1.18629 -6.0761,-1.18629 h -4.30371 v 4.74948 4.74947 h 4.14024 c 3.87038,0 4.20185,-0.0357 5.08555,-0.54801 z m 11.64765,1.02236 0.0551,-16.57505 7.18102,0.0189 c 8.11386,0.0215 8.83668,0.12731 11.54484,1.69076 3.86226,2.22975 6.56259,6.0517 7.67239,10.8593 0.44561,1.9303 0.44691,5.97624 0.002,7.922 -1.10548,4.84078 -3.82608,8.66274 -7.72606,10.85376 -2.95289,1.65895 -3.85663,1.79618 -11.86102,1.80107 l -6.92402,0.004 z m 15.2413,9.18843 c 3.63609,-2.02116 5.7765,-6.48636 5.12401,-10.68944 -0.51289,-3.30394 -2.25759,-5.94309 -4.91401,-7.43329 l -1.63506,-0.91722 -3.71442,-0.085 -3.71442,-0.085 v 10.02989 10.02991 l 3.81008,-0.0821 c 3.67108,-0.0791 3.85508,-0.10711 5.04382,-0.76784 z m 21.49786,7.20023 c -0.69642,-0.52764 -0.72976,-1.24165 -0.72976,-15.62918 v -14.38621 h -4.49759 c -4.66111,0 -5.46574,-0.14253 -5.70872,-1.01121 -0.19585,-0.70013 0.10206,-1.42972 0.68663,-1.68193 0.30714,-0.1325 5.00787,-0.22961 11.1146,-0.22961 10.38087,0 10.59314,0.0101 11.14794,0.5048 0.70353,0.62793 0.71262,1.05544 0.0386,1.82012 l -0.52686,0.59783 h -4.73211 -4.7321 v 14.55959 c 0,12.78335 -0.0407,14.62561 -0.33416,15.10089 -0.33292,0.53934 -1.23769,0.72533 -1.72657,0.35493 z m 27.15413,-0.29945 c -0.1886,-0.12516 -0.60932,-0.91639 -0.93493,-1.75842 -0.6283,-1.62471 -1.78709,-4.581 -3.1301,-7.98538 -1.69159,-4.28801 -7.48041,-19.18909 -8.02504,-20.65736 -0.49702,-1.33993 -0.53324,-1.60815 -0.29212,-2.16378 0.32863,-0.75728 0.95491,-1.06025 1.6151,-0.78134 0.60186,0.25426 0.66837,0.41177 6.55685,15.52868 2.6274,6.74503 4.86128,12.25974 4.96421,12.25492 0.17944,-0.009 1.544,-3.30706 4.95375,-11.97513 4.74044,-12.05084 5.92931,-14.97198 6.26441,-15.39214 0.56701,-0.71091 1.80903,-0.51219 2.17029,0.34725 0.33362,0.79371 0.58472,0.081 -4.35656,12.3657 -0.51188,1.27262 -2.20116,5.49234 -3.75396,9.37717 -4.04989,10.13214 -4.0696,10.17934 -4.44664,10.65208 -0.37303,0.46771 -1.04353,0.54713 -1.58526,0.18775 z m -98.39714,-52.04284 c -2.95974,-0.27847 -5.4473,-0.67471 -7.48801,-1.19275 -1.50011,-0.38081 -3.00744,-0.59309 -4.21127,-0.59309 -2.57727,0 -5.01333,-0.527 -8.33041,-1.80218 -8.17247,-3.14168 -16.613044,-7.94078 -22.827003,-12.97888 C 76.342078,175.91771 65.089638,158.22751 59.609523,138.1341 55.525657,123.16012 55.007894,107.50073 58.07139,91.613565 60.60523,78.473166 65.758386,64.89354 71.869321,55.253229 c 1.511173,-2.383958 3.371833,-4.728827 3.904559,-4.920677 0.233728,-0.08412 0.470886,-0.474306 0.556178,-0.914941 0.284437,-1.469447 1.604007,-4.61954 2.661774,-6.354217 1.514844,-2.484254 6.154751,-7.056028 11.138054,-10.974491 10.481174,-8.241541 22.587164,-14.007214 34.525064,-16.44312 8.8501,-1.805859 19.61086,-1.808941 28.61639,-0.0088 14.26176,2.851748 27.56547,9.817396 38.89028,20.362417 6.73662,6.272754 11.15181,11.927928 17.17766,22.001901 4.50962,7.539175 6.68012,12.120068 7.06041,14.901189 0.36968,2.703535 0.13867,8.878767 -0.42204,11.281822 -1.15014,4.929253 -3.83576,8.92798 -7.23188,10.76784 -1.57539,0.853483 -1.84179,0.921697 -3.52858,0.903599 -4.29104,-0.0461 -7.34351,-2.584094 -15.20889,-12.64569 -9.77692,-12.506892 -19.073,-21.982963 -27.88394,-28.423834 -12.67562,-9.265971 -27.13364,-16.320458 -41.2655,-20.134597 -1.94796,-0.525749 -4.19377,-1.097028 -4.99066,-1.269503 -1.51852,-0.32867 -1.856,-0.625853 -0.85861,-0.756081 0.35142,-0.04585 0.59029,-0.224914 0.59029,-0.442403 0,-0.200942 0.21734,-0.473548 0.48297,-0.605784 0.26564,-0.132223 0.48296,-0.324035 0.48296,-0.426224 0,-0.102176 0.1932,-0.185812 0.42931,-0.185812 0.23611,0 0.42931,-0.116575 0.42931,-0.259142 0,-0.142529 0.26563,-0.23392 0.59029,-0.203102 1.02654,0.0975 1.98553,-0.282167 1.98553,-0.786015 0,-0.285702 0.15213,-0.456687 0.40635,-0.456687 0.22348,0 0.46193,-0.164404 0.52988,-0.365335 0.0679,-0.200943 0.27148,-0.365347 0.45228,-0.365347 0.18079,0 0.32871,-0.0999 0.32871,-0.222149 0,-0.122258 0.38637,-0.296223 0.85861,-0.386755 0.65177,-0.12491 0.85861,-0.276786 0.85861,-0.630324 0,-0.303334 0.14968,-0.465718 0.42931,-0.465718 0.23611,0 0.4293,-0.109628 0.4293,-0.243556 0,-0.133967 0.19318,-0.24357 0.4293,-0.24357 0.23612,0 0.4293,0.109629 0.4293,0.24357 0,0.133953 0.1932,0.243556 0.42932,0.243556 0.23611,0 0.4293,-0.109628 0.4293,-0.243556 0,-0.133967 0.18748,-0.24357 0.41663,-0.24357 0.22916,0 0.47633,-0.109628 0.5493,-0.243556 0.0729,-0.133966 0.46504,-0.243569 0.87127,-0.243569 0.40625,0 0.73862,-0.109628 0.73862,-0.243557 0,-0.133966 0.38638,-0.243569 0.85861,-0.243569 0.6201,0 0.85861,-0.101545 0.85861,-0.365335 0,-0.262564 0.23651,-0.365347 0.84072,-0.365347 0.46239,0 0.87292,-0.10786 0.91228,-0.239654 0.28672,-0.960333 16.19666,-0.941059 16.72026,0.02021 0.0683,0.12529 0.93842,0.296022 1.93367,0.379316 0.99527,0.08336 2.09936,0.318844 2.45354,0.523437 0.61806,0.357037 1.17898,0.494401 2.57582,0.630817 0.91701,0.08955 2.47967,0.587989 3.136,1.000282 0.3081,0.193541 0.61034,0.29496 0.67167,0.225382 0.17764,-0.201575 2.09527,0.9377 2.09527,1.24481 0,0.337726 1.02886,0.902917 1.2989,0.713543 0.10645,-0.07464 0.46141,0.02918 0.78887,0.230712 0.33272,0.204757 0.45334,0.373974 0.27341,0.38356 -0.25441,0.01351 -0.2428,0.06947 0.0554,0.266493 0.20753,0.137136 0.46984,0.18446 0.58293,0.105207 0.22336,-0.156637 1.84293,0.706382 2.30097,1.226119 0.15568,0.17663 0.47567,0.390518 0.71109,0.475303 0.23541,0.08475 0.42803,0.243077 0.42803,0.351758 0,0.108744 0.28979,0.333798 0.64395,0.500261 0.37004,0.173915 0.64396,0.484738 0.64396,0.730682 0,0.243607 0.27078,0.555302 0.62845,0.723395 0.34563,0.162459 0.79321,0.501978 0.99461,0.754502 0.2014,0.252524 0.4491,0.400976 0.55046,0.329907 0.10133,-0.07111 0.35407,-0.01705 0.5616,0.120112 0.35035,0.231507 0.34746,0.249871 -0.0404,0.256754 -0.35566,0.0063 -0.30824,0.135596 0.31902,0.869941 0.40522,0.474394 0.77164,0.743829 0.81426,0.598736 0.0544,-0.184966 0.16677,-0.179724 0.37623,0.01756 0.16431,0.154717 0.24582,0.378508 0.18112,0.497293 -0.0648,0.118722 0.0355,0.21596 0.22274,0.21596 0.35231,0 1.84247,1.404188 1.77656,1.674078 -0.0689,0.282255 1.07441,2.093596 1.85606,2.940499 0.62087,0.672698 0.77469,0.751408 0.77469,0.396417 0,-0.367722 0.0551,-0.391024 0.32463,-0.13725 0.22848,0.215164 0.25948,0.394763 0.10462,0.606416 -0.15481,0.211653 -0.1238,0.391251 0.10474,0.606415 0.17854,0.168143 0.32462,0.222414 0.32462,0.120617 0,-0.223096 0.99662,1.244179 1.65368,2.434643 0.26019,0.471414 0.38301,0.857133 0.27292,0.857133 -0.11194,0 -0.0924,0.268299 0.0444,0.608904 0.15938,0.396922 0.41932,0.608904 0.74667,0.608904 0.42638,0 0.50218,0.123016 0.50218,0.814722 0,0.503191 0.16283,0.98193 0.42584,1.251997 0.29365,0.301566 0.38636,0.615661 0.2987,1.012002 -0.0763,0.345013 -0.0321,0.574727 0.11084,0.574727 0.13087,0 0.23793,-0.164404 0.23793,-0.365347 0,-0.200943 0.0966,-0.365347 0.21464,-0.365347 0.11804,0 0.21466,0.117458 0.21466,0.26096 0,0.143527 0.15044,0.431668 0.33432,0.640315 0.18388,0.208647 0.28143,0.535751 0.21678,0.726906 -0.0646,0.191154 0.0224,0.727726 0.19356,1.192383 0.17109,0.464644 0.25628,1.0069 0.18927,1.205014 -0.0862,0.255075 0.0729,0.404374 0.54539,0.511602 0.80462,0.182592 0.93273,0.972862 0.18423,1.136446 -0.46049,0.100661 -0.46177,0.107102 -0.0277,0.138715 0.37845,0.02753 0.47935,0.238769 0.59769,1.250986 0.0783,0.669793 0.22892,1.217821 0.3347,1.217821 0.10572,0 0.22319,0.2466 0.26092,0.548014 0.044,0.352175 0.24119,0.575826 0.55157,0.625841 0.43629,0.07035 0.48284,0.211527 0.48175,1.461377 -6.5e-4,0.760956 0.11328,2.506987 0.25329,3.880068 0.23542,2.309152 0.28941,2.496517 0.71952,2.496517 0.4437,0 0.47141,0.135608 0.6053,2.960998 0.24574,5.185603 0.18249,9.044074 -0.14588,8.90109 -0.15741,-0.06858 -0.2862,0.0245 -0.2862,0.206791 0,0.182276 0.0953,0.264484 0.21203,0.182705 0.1184,-0.08311 0.1446,-0.02488 0.0593,0.131806 -0.38117,0.699809 7.12653,9.628773 9.80585,11.662187 2.51193,1.906369 3.73252,2.377467 6.16487,2.379387 1.90329,0.0013 2.13909,-0.05519 3.53815,-0.850869 1.99124,-1.132429 4.4389,-3.888379 5.51664,-6.211461 1.10825,-2.388897 1.94182,-5.76052 1.77399,-7.175488 -0.81671,-6.885675 -6.17484,-18.809283 -13.30224,-29.60189 -12.13039,-18.368332 -28.91541,-30.190774 -48.40862,-34.09638 -4.62612,-0.926877 -8.17696,-1.330758 -13.19162,-1.500429 -7.6565,-0.259092 -14.2727,0.571595 -21.88508,2.74774 -9.11421,2.605463 -19.470438,8.10155 -27.386302,14.53401 -1.362457,1.107131 -2.913316,2.201961 -3.446348,2.432951 -1.468565,0.636386 -4.425966,2.783091 -5.593956,4.060512 -1.821585,1.992253 -1.245596,2.235683 1.750329,0.739738 2.341059,-1.168955 4.695718,-2.048001 6.847704,-2.556383 1.969594,-0.465289 2.238812,-0.324768 0.388286,0.202673 -0.751338,0.214141 -1.793199,0.615029 -2.315248,0.890855 -0.522046,0.275827 -0.755989,0.436594 -0.519871,0.357265 5.454682,-1.832572 10.423348,-2.541278 17.847056,-2.545598 6.40311,-0.0038 10.53714,0.565609 16.81928,2.316263 11.27617,3.142376 24.80009,9.756771 34.77365,17.007401 9.04426,6.575028 17.38379,15.14203 27.66081,28.415272 3.90303,5.040952 7.04655,8.723778 8.4456,9.894577 1.15907,0.969945 4.0286,2.614797 5.73073,3.284918 1.62723,0.640643 1.90368,0.547687 0.34203,-0.115059 -0.70835,-0.300593 -1.4811,-0.686767 -1.71722,-0.858169 l -0.4293,-0.311644 0.4293,0.170605 c 3.39036,1.347291 5.7872,1.644032 7.71675,0.95537 5.06113,-1.806327 9.27579,-8.202085 10.23156,-15.526398 l 0.26142,-2.003285 0.40321,1.039295 c 1.3336,3.437343 1.73561,9.299409 0.94763,13.818036 -2.48094,14.226875 -12.29853,30.505895 -26.98788,44.749955 -1.46374,1.41936 -2.90283,2.81891 -3.19797,3.1101 l -0.53663,0.52945 0.64396,-0.48378 c 1.68735,-1.26761 6.61016,-6.18249 10.14452,-10.12814 5.92399,-6.61341 10.03473,-12.35024 13.28209,-18.53611 2.22621,-4.24066 2.58094,-4.57737 0.86524,-0.82128 -1.25927,2.75686 -3.21959,6.39312 -4.50488,8.35628 -1.76503,2.69591 -5.75865,7.96266 -7.67165,10.1173 -2.34111,2.63681 -5.12813,5.59892 -6.31825,6.7152 -0.70754,0.66364 -1.41043,1.33871 -1.56195,1.50017 -0.52488,0.55924 -5.47399,5.06765 -6.24804,5.69165 -0.42766,0.34476 -1.86864,1.52406 -3.20218,2.62066 -3.10723,2.55516 -8.18252,6.34943 -9.70323,7.25409 -0.64932,0.38627 -1.22889,0.77182 -1.28792,0.85675 -0.059,0.085 -0.46955,0.38449 -0.91227,0.66564 -0.86566,0.54976 -1.11536,0.30672 -0.32788,-0.31913 0.26238,-0.20854 0.35898,-0.37915 0.21465,-0.37915 -0.14432,0 -0.4556,0.2192 -0.69172,0.48712 -0.23612,0.26792 -0.53936,0.48713 -0.67388,0.48713 -0.13451,0 -0.68993,0.30366 -1.23424,0.67482 -0.54433,0.37114 -1.49331,0.93604 -2.10885,1.25531 -0.61553,0.31928 -1.05943,0.69017 -0.98643,0.8242 0.073,0.13403 0.0327,0.17356 -0.0895,0.0879 -0.1222,-0.0857 -1.41698,0.48745 -2.87731,1.27365 -9.5205,5.12565 -17.97815,7.92123 -32.81375,10.84619 -8.86239,1.7473 -12.42268,3.18526 -15.25598,6.16169 -1.28688,1.3519 -2.42499,3.50694 -2.68609,5.08619 -0.16642,1.00658 -0.29271,1.02212 -0.9988,0.12289 -0.72961,-0.92915 -2.73901,-4.06974 -2.73901,-4.28093 0,-0.0913 -0.14488,-0.33045 -0.32197,-0.53139 -0.17709,-0.20094 -0.3205,-0.49452 -0.3187,-0.6524 0.002,-0.18618 0.0587,-0.19949 0.161,-0.0379 0.51796,0.81846 2.07065,1.39834 2.23611,0.83513 0.0412,-0.14041 0.62886,-0.32015 1.3058,-0.39942 1.01132,-0.11847 1.2308,-0.22493 1.2308,-0.5972 0,-0.5506 0.2807,-0.58435 0.65087,-0.0783 0.2408,0.32923 0.32088,0.2939 0.65876,-0.29054 0.21156,-0.36592 0.50153,-1.2196 0.64441,-1.89704 0.31658,-1.5011 0.81618,-2.8688 0.82804,-2.26687 0.011,0.56368 0.19214,0.53763 0.84668,-0.12175 0.29919,-0.3014 0.43645,-0.38361 0.30503,-0.18267 -0.13143,0.20093 -0.44988,0.80376 -0.70767,1.3396 -0.46023,0.95659 -0.45047,0.95088 0.53844,-0.3149 0.92712,-1.18667 2.42394,-2.44029 3.74827,-3.13926 1.60601,-0.84765 4.28952,-1.58938 10.41064,-2.87754 14.67342,-3.08794 29.03541,-8.70858 38.74472,-15.16295 1.89666,-1.26082 7.15053,-5.14853 8.37144,-6.19463 1.55137,-1.32923 7.02077,-6.2433 7.29817,-6.55716 0.17709,-0.20036 1.48111,-1.52373 2.89781,-2.94083 7.09714,-7.09908 15.11799,-17.73154 18.66152,-24.73777 2.19558,-4.34102 7.33873,-18.500911 6.90052,-18.998154 -0.25655,-0.291095 -0.76857,0.8259 -1.31159,2.861271 -2.12251,7.955733 -6.03701,16.267263 -11.0518,23.466063 -2.95828,4.24661 -8.20663,10.87632 -8.61016,10.87632 -0.11474,0 0.25486,-0.52893 0.82126,-1.17541 4.55574,-5.19976 9.62854,-12.73182 13.04925,-19.3754 1.3585,-2.63844 3.97217,-8.71033 3.97217,-9.22788 0,-0.17913 0.0838,-0.42983 0.18611,-0.55709 0.19125,-0.23777 1.15057,-3.359455 1.39967,-4.55463 0.12427,-0.596185 -0.15289,-0.982423 -0.33365,-0.464973 -0.13452,0.385076 -2.18236,2.021264 -3.38159,2.701831 -1.68475,0.956089 -2.84493,1.185437 -6.88594,1.361246 -3.84842,0.167423 -4.80451,0.02097 -6.86887,-1.052052 -1.36715,-0.710626 -2.63315,-1.659327 -4.28458,-3.210742 -2.7793,-2.610983 -2.87071,-2.960265 -0.1374,-0.525067 1.76362,1.571271 3.84694,2.938289 5.06594,3.32411 0.29514,0.09346 -0.18707,-0.401937 -1.07159,-1.100791 -2.43787,-1.92616 -4.17472,-3.774356 -7.97577,-8.487042 -4.29052,-5.319558 -12.86959,-15.036842 -15.74497,-17.833952 -9.20398,-8.953391 -15.96995,-14.049524 -24.14839,-18.188621 -3.35191,-1.696395 -4.68798,-2.271059 -4.79584,-2.062778 -0.1715,0.331208 0.27454,1.271283 0.60321,1.271283 0.18089,0 0.32889,0.109628 0.32889,0.243569 0,0.346781 -0.35092,0.302058 -1.10592,-0.140951 -0.36041,-0.211476 -1.05591,-0.531166 -1.54557,-0.710411 -0.48965,-0.179257 -1.56642,-0.61292 -2.39283,-0.963692 -4.16534,-1.768046 -10.10321,-3.659764 -14.81101,-4.718573 -5.93595,-1.335026 -8.22758,-1.594825 -14.16705,-1.606065 -5.77925,-0.01137 -8.321499,0.314991 -12.557149,1.609867 -2.293653,0.701179 -2.688985,0.750612 -5.58131,0.697781 -1.712047,-0.03132 -3.74051,0.0677 -4.507697,0.219913 -2.198627,0.43624 -5.227789,1.673194 -7.694267,3.141972 -1.337144,0.796257 -0.974072,0.888115 0.524436,0.132666 4.98111,-2.511105 12.618341,-3.013109 16.00599,-1.05209 2.242942,1.298374 3.934681,4.030415 4.485374,7.243558 0.60782,3.546459 -0.103903,7.467133 -3.876553,21.354779 -4.597954,16.925692 -5.954822,23.763185 -6.887589,34.707705 -0.319207,3.74541 -0.318147,17.32657 0.0017,21.43356 0.944985,12.13498 3.634855,26.24167 6.900907,36.19092 2.635435,8.02823 7.395518,15.80731 13.316478,21.76222 2.52276,2.53723 2.82045,2.77015 1.57543,1.23264 -5.49232,-6.78254 -10.113376,-16.31134 -12.868221,-26.53475 -2.257165,-8.37648 -3.973398,-18.10394 -5.030152,-28.51047 -0.881866,-8.68429 -0.879759,-21.1426 0.0049,-28.984 1.005949,-8.916437 1.957687,-13.56413 5.785604,-28.253281 3.705469,-14.219283 4.204749,-16.914142 4.010199,-21.645104 -0.18379,-4.469863 -1.45789,-7.685253 -3.892094,-9.822372 -0.647406,-0.568387 -1.133367,-1.083058 -1.079915,-1.14372 0.205978,-0.233718 3.075347,2.223343 3.913379,3.351061 2.22455,2.993507 2.83553,4.961435 2.83553,9.133167 0,4.283836 -1.08821,10.175114 -2.9192,15.803727 -0.16341,0.502345 -0.25156,0.913349 -0.19589,0.913349 0.0557,0 -0.227232,1.068635 -0.628678,2.374739 -0.40145,1.306117 -0.883722,2.999374 -1.071721,3.762831 -0.187997,0.763444 -0.437137,1.454935 -0.553643,1.536639 -0.116511,0.08172 -0.211832,0.452633 -0.211832,0.82427 0,0.371649 -0.06719,0.751963 -0.149315,0.845147 -0.08212,0.09321 -0.17307,0.303259 -0.202104,0.46683 -0.02903,0.16357 -0.112377,0.571418 -0.185212,0.906314 -0.07283,0.334897 -0.153642,0.718507 -0.179574,0.852473 -0.02594,0.133954 -0.115694,0.367924 -0.199472,0.519913 -0.216792,0.393348 -1.306668,5.716303 -1.96313,9.587947 -0.306635,1.808448 -0.653219,3.83612 -0.770183,4.50591 -0.116962,0.6698 -0.399665,2.86491 -0.628221,4.87804 -1.559952,13.74015 -0.915168,26.89516 1.945578,39.69398 3.448515,15.42846 7.941527,26.54541 14.491127,35.855 1.3057,1.85591 1.58195,2.4027 1.59964,3.16631 0.0479,2.06526 0.36164,2.10498 0.36769,0.0466 0.006,-2.29001 0.27093,-3.71226 0.96804,-5.21126 0.38629,-0.83066 0.46457,-0.89726 0.52678,-0.44819 0.12751,0.92034 0.67843,0.84658 2.9458,-0.39438 2.94453,-1.61156 5.55032,-2.45705 12.11475,-3.93079 13.6841,-3.07214 18.73884,-4.45714 25.23472,-6.91428 10.84644,-4.1028 20.19593,-9.57312 29.72933,-17.39441 6.33684,-5.19882 11.02264,-9.63815 16.19777,-15.3458 1.53011,-1.68756 2.15796,-2.30113 1.39524,-1.36351 -2.25708,2.77463 -2.8004,3.37255 -7.28971,8.02218 -3.31983,3.4384 -10.47262,9.65782 -15.29004,13.29486 -0.81753,0.61722 -1.403,1.22313 -1.34831,1.39537 0.0532,0.16745 0.004,0.30446 -0.11121,0.30446 -0.11437,0 -0.20792,-0.11708 -0.20792,-0.26015 0,-0.14309 -0.26563,-0.0491 -0.59029,0.20884 -0.32466,0.25794 -0.68689,0.51375 -0.80495,0.56846 -0.55998,0.25953 -1.83078,1.2619 -1.73608,1.36935 0.0588,0.0667 0.53889,-0.16614 1.06699,-0.51732 1.19302,-0.79331 1.3877,-0.7979 1.25827,-0.0296 -0.09,0.53392 -0.21319,0.60891 -1.00058,0.60891 -0.49388,0 -1.02596,0.137 -1.18239,0.30445 -0.21203,0.22697 -0.30794,0.2321 -0.37687,0.0201 -0.0611,-0.18788 -0.50695,-0.0292 -1.31475,0.4679 -0.67226,0.41372 -1.65696,1.01936 -2.18822,1.34588 -0.64011,0.39341 -0.78492,0.55423 -0.4293,0.47678 0.29514,-0.0643 0.70567,-0.19751 0.91227,-0.29605 0.2723,-0.12988 0.37565,-0.0653 0.37565,0.23463 0,0.34002 -0.18178,0.40267 -1.01961,0.35144 -0.6041,-0.037 -1.34762,0.1042 -1.82454,0.34621 -0.87135,0.44229 -1.02329,0.63398 -0.4293,0.54158 0.20659,-0.0322 0.0657,0.0512 -0.31314,0.18508 -0.4171,0.14748 -0.67883,0.39564 -0.6636,0.62925 0.0484,0.74302 -0.0445,1.2382 -0.23249,1.2382 -0.28696,0 -0.42673,-1.18451 -0.15482,-1.31186 0.13042,-0.0611 0.068,-0.11973 -0.13853,-0.13028 -0.27804,-0.0143 -0.37564,0.17061 -0.37564,0.71146 0,0.6799 -0.0551,0.73068 -0.7923,0.73068 -0.74274,0 -0.76624,-0.0224 -0.37564,-0.35759 0.55952,-0.4802 0.1034,-0.47468 -0.50151,0.006 -0.26239,0.20853 -0.47707,0.30553 -0.47707,0.21554 0,-0.09 -0.23808,0.0134 -0.52908,0.22975 -0.29099,0.21635 -0.63862,0.39336 -0.7725,0.39336 -0.24345,0 -1.02164,0.35882 -2.7084,1.24883 -0.84994,0.44846 -0.89113,0.51831 -0.77686,1.31732 0.1067,0.74609 0.0666,0.84373 -0.34648,0.84373 -0.25693,0 -0.72839,-0.29726 -1.04769,-0.66058 l -0.58053,-0.66059 -0.0732,0.57831 c -0.11389,0.89992 -0.52878,1.23525 -1.24168,1.00349 -0.62685,-0.20378 -0.48266,-0.37968 0.45623,-0.55654 0.23612,-0.0445 0.33271,-0.14706 0.21465,-0.22798 -0.21297,-0.14598 -2.98081,0.71349 -3.48,1.08061 -0.19725,0.14505 -0.20189,0.33661 -0.0191,0.79158 0.13256,0.33011 0.3221,0.6002 0.42121,0.6002 0.0991,0 0.1802,0.21921 0.1802,0.48713 0,0.26792 -0.0966,0.48713 -0.21466,0.48713 -0.11804,0 -0.21465,-0.21921 -0.21465,-0.48713 0,-0.31982 -0.1431,-0.48713 -0.41663,-0.48713 -0.22915,0 -0.46863,-0.0955 -0.53217,-0.2121 -0.27334,-0.50186 -1.46214,-0.47359 -3.16794,0.0753 -0.98241,0.31613 -2.52766,0.77618 -3.43392,1.02232 -1.042,0.28301 -1.5549,0.52432 -1.39523,0.65644 0.15644,0.12946 0.0963,0.15098 -0.15811,0.0566 -0.4616,-0.17125 -4.63374,0.81745 -4.63374,1.09809 0,0.0993 -0.16905,0.13501 -0.37564,0.0794 -0.20661,-0.0556 -1.24499,0.10849 -2.30752,0.36474 -1.84152,0.44406 -1.88167,0.46712 -0.8586,0.49297 0.77732,0.0197 0.98448,0.0922 0.75127,0.26325 -0.28619,0.20986 -0.28619,0.23841 0,0.25694 0.6898,0.0447 -0.56473,0.44003 -1.44889,0.45663 -0.67452,0.0126 -0.91227,-0.0781 -0.91227,-0.34824 0,-0.20093 0.11267,-0.36533 0.25042,-0.36533 0.13774,0 0.19893,-0.0585 0.13598,-0.12986 -0.0629,-0.0715 -0.50639,-0.0587 -0.98544,0.0282 -0.61984,0.11241 -0.83812,0.25527 -0.75697,0.4952 0.0749,0.22144 -0.0412,0.33718 -0.33825,0.33718 -0.24874,0 -0.45226,0.11607 -0.45226,0.25793 0,0.14187 -0.0966,0.19021 -0.21466,0.10736 -0.33806,-0.23707 -0.25067,-0.60891 0.1431,-0.60891 0.19677,0 0.30433,-0.0606 0.23902,-0.13472 -0.20493,-0.23255 -4.12649,0.68967 -4.37685,1.02928 -0.27696,0.37569 -0.6016,0.43947 -0.40564,0.0797 0.0729,-0.13396 -0.0237,-0.24357 -0.21465,-0.24357 -0.19102,0 -0.29174,0.10205 -0.22382,0.22674 0.0679,0.12465 0.0321,0.2909 -0.0799,0.36932 -0.11182,0.0784 -0.264,0.0312 -0.33815,-0.10495 -0.0741,-0.13615 -0.24987,-0.24587 -0.39047,-0.24381 -0.15545,0.003 -0.12944,0.10041 0.0663,0.25025 0.24301,0.18605 0.1377,0.23415 -0.4293,0.19607 -0.41321,-0.0278 -1.04106,-0.029 -1.39524,-0.003 -0.51995,0.0384 -0.58195,0.0978 -0.32198,0.30846 0.25868,0.20966 0.22703,0.23735 -0.16099,0.14085 -0.32209,-0.0801 -0.48297,-0.006 -0.48297,0.22244 0,0.18839 -0.1023,0.34254 -0.22731,0.34254 -0.12504,0 -0.16775,-0.10938 -0.095,-0.24305 0.14527,-0.26672 -1.08404,-0.19093 -1.32426,0.0816 -0.0783,0.0888 -0.31935,0.16142 -0.53579,0.16142 -0.21643,0 -0.39352,0.10963 -0.39352,0.24357 0,0.13395 0.24148,0.24356 0.53663,0.24356 0.33936,0 0.53663,-0.13746 0.53663,-0.37391 0,-0.30206 0.085,-0.32232 0.44214,-0.10546 0.33085,0.20091 0.88467,0.17557 2.20019,-0.10067 3.9364,-0.82665 6.70388,-1.22885 12.06135,-1.7529 1.66074,-0.16244 2.96151,-0.56581 1.8782,-0.58243 -0.26563,-0.004 -0.48297,-0.11695 -0.48297,-0.25096 0,-0.13396 0.11596,-0.24357 0.25758,-0.24357 0.3728,0 -0.0589,-0.4149 -0.57955,-0.557 -0.23612,-0.0644 -0.0291,-0.12989 0.45999,-0.14542 0.60975,-0.0193 0.92816,0.0866 1.01287,0.33708 0.0679,0.20094 0.34392,0.36923 0.61325,0.37397 l 0.48971,0.009 -0.48969,0.30849 c -0.49558,0.31217 -0.43913,0.64851 0.10888,0.64851 0.16828,0 0.23309,-0.12074 0.14833,-0.27642 -0.10877,-0.19973 0.12592,-0.22937 0.84593,-0.10685 0.82387,0.14019 0.99651,0.10369 0.99651,-0.2107 0,-0.20914 -0.0966,-0.38027 -0.21466,-0.38027 -0.11804,0 -0.21465,-0.32234 -0.21465,-0.71632 0,-0.39397 0.0966,-0.78404 0.21465,-0.86683 0.12474,-0.0875 0.21466,0.1532 0.21466,0.57461 0,1.38763 0.12827,1.49567 1.77595,1.49567 0.83346,0 1.44913,-0.0752 1.36815,-0.16706 -0.081,-0.0918 -0.58877,-0.14111 -1.12843,-0.10937 -0.642,0.0378 -0.93302,-0.0308 -0.84183,-0.1983 0.18442,-0.33857 2.19462,-0.33053 2.37982,0.009 0.0835,0.15342 0.42861,0.20555 0.81763,0.12352 0.37016,-0.0781 2.30602,-0.25306 4.30189,-0.38889 2.26505,-0.15415 3.75279,-0.36077 3.95861,-0.54975 0.26835,-0.24641 0.29709,-0.24124 0.15436,0.0277 -0.13737,0.25887 -0.0417,0.29874 0.44176,0.18394 0.33944,-0.0806 1.41559,-0.24475 2.39146,-0.36479 0.97586,-0.11998 1.91342,-0.34924 2.08346,-0.50936 0.17003,-0.16013 0.42515,-0.20978 0.56695,-0.11039 0.36478,0.25581 2.14089,0.14674 2.45693,-0.15089 0.14521,-0.13673 0.34663,-0.22577 0.4476,-0.19786 0.64039,0.17705 5.87354,-0.99844 6.87099,-1.54338 0.25438,-0.13899 0.57254,-0.17552 0.70703,-0.0812 0.13449,0.0943 0.36104,0.0643 0.50343,-0.0667 0.1424,-0.13097 0.83848,-0.37288 1.54683,-0.53757 1.99917,-0.4648 7.24119,-2.49033 10.08865,-3.89828 11.64427,-5.7576 21.4714,-14.77422 27.2046,-24.96084 3.93947,-6.99954 7.12712,-16.65431 7.89589,-23.91508 0.43642,-4.12181 1.05092,-7.8065 2.25271,-13.50799 0.97289,-4.61557 1.50057,-7.628373 2.12615,-12.139308 0.16423,-1.184275 -0.30393,-6.738826 -0.72934,-8.653265 -0.56091,-2.524228 -1.87194,-5.509039 -3.13248,-7.131688 -1.25652,-1.617496 -1.0713,-1.994261 0.22546,-0.458607 2.03249,2.406908 3.42797,6.739021 4.60393,14.292367 2.70174,17.353621 1.55763,35.918781 -3.06203,49.686841 -5.26976,15.70556 -12.3931,28.42362 -20.92945,37.3676 -6.73037,7.05173 -17.51635,15.10319 -24.8427,18.54441 -10.56774,4.96372 -24.32542,7.99965 -35.61644,7.85953 -1.77088,-0.022 -3.60616,-0.0763 -4.0784,-0.12074 z m -15.74198,-24.60109 c 0.37238,-0.0666 0.92738,-0.24251 1.23332,-0.39092 l 0.55626,-0.26984 -0.63768,-0.0961 c -0.35073,-0.0529 -0.6727,0.0231 -0.7155,0.16878 -0.0428,0.1457 -0.26992,0.26492 -0.50468,0.26492 -0.42933,0 -2.23039,1.08539 -2.44017,1.47054 -0.0618,0.11367 0.32487,-0.0709 0.85944,-0.40985 0.53457,-0.33901 1.27663,-0.67087 1.64901,-0.73747 z m 33.25323,-9.16952 c -0.11072,-0.12566 -0.35618,-0.10609 -0.5867,0.0466 -0.34776,0.23048 -0.32444,0.25696 0.19038,0.21602 0.34125,-0.0272 0.50705,-0.13703 0.39632,-0.26268 z m -19.92743,-0.0837 c -0.14831,-0.0678 -0.21505,-0.2236 -0.14831,-0.34611 0.0667,-0.12252 -0.0293,-0.22277 -0.21332,-0.22277 -0.18406,0 -0.33465,0.16441 -0.33465,0.36535 0,0.22219 0.18923,0.35782 0.48296,0.34611 0.26564,-0.0101 0.36163,-0.0748 0.21332,-0.14258 z m 1.99916,-0.43906 c 0.38276,-0.32849 0.32005,-0.35695 -0.76357,-0.3464 -0.64932,0.006 -1.05925,0.0669 -0.91094,0.13484 0.14832,0.0678 0.22744,0.20085 0.17585,0.29559 -0.18433,0.33842 1.08965,0.267 1.49866,-0.084 z m 4.44618,-0.9029 c 0.20904,-0.12302 0.45636,-0.1702 0.54958,-0.10483 0.31693,0.22225 1.96814,-0.3943 1.96814,-0.73488 0,-0.41855 -0.10206,-0.41554 -1.24693,0.0369 -0.50873,0.20106 -1.61499,0.42263 -2.45835,0.49236 -1.37668,0.11379 -2.29932,0.3528 -1.36214,0.3528 0.21,0 0.30852,0.11367 0.22749,0.26239 -0.16638,0.30548 1.70196,0.0602 2.32221,-0.30477 z m -1.18503,-0.11885 c 0.14758,-0.0676 0.38907,-0.0676 0.53664,0 0.14758,0.0676 0.0268,0.12289 -0.26831,0.12289 -0.29515,0 -0.41589,-0.0553 -0.26833,-0.12289 z m -2.15098,0.25771 c -0.0713,-0.0809 -0.25647,-0.0895 -0.41142,-0.0192 -0.17124,0.0778 -0.12036,0.13547 0.12969,0.14715 0.22627,0.0101 0.35305,-0.047 0.28173,-0.12792 z m 23.02592,-0.33996 c 0,-0.13396 -0.1023,-0.24357 -0.22732,-0.24357 -0.12503,0 -0.16763,0.10963 -0.0946,0.24357 0.0729,0.13396 0.17526,0.24356 0.22733,0.24356 0.0521,0 0.0946,-0.10963 0.0946,-0.24356 z m -14.41497,-1.18934 c 0.21198,-0.15243 0.13394,-0.25169 -0.29365,-0.37347 -0.32029,-0.0912 -0.63535,-0.10571 -0.70012,-0.0322 -0.0648,0.0735 0.0489,0.13364 0.25265,0.13364 0.20373,0 0.31072,0.10962 0.23775,0.24356 -0.16145,0.29643 0.1095,0.31176 0.50337,0.0284 z m 6.15086,-2.22055 c -0.0729,-0.13395 -0.296,-0.24188 -0.49564,-0.23983 -0.3128,0.003 -0.31847,0.0364 -0.041,0.23983 0.42037,0.30826 0.70453,0.30826 0.53663,0 z m -57.699735,-3.34169 c -0.323192,-1.19736 -0.594028,-1.78203 -0.862953,-1.8629 -0.327505,-0.0985 -0.375114,-0.30097 -0.289625,-1.23185 0.08936,-0.97295 0.05064,-1.114 -0.305688,-1.114 -0.264892,0 -0.407994,-0.17086 -0.407994,-0.48713 0,-0.26792 -0.0966,-0.48712 -0.214652,-0.48712 -0.118059,0 -0.214652,-0.21921 -0.214652,-0.48713 0,-0.38007 -0.143103,-0.48712 -0.651112,-0.48712 -0.463964,0 -0.878105,-0.25757 -1.440853,-0.89611 -0.473207,-0.53694 -0.685425,-0.93557 -0.529476,-0.99455 0.143145,-0.0542 0.260265,-0.30851 0.260265,-0.56527 0,-0.36855 -0.15368,-0.46683 -0.729994,-0.46683 -0.708128,0 -0.758995,-0.0677 -1.698382,-2.25875 -0.532611,-1.24231 -1.036799,-2.67253 -1.120413,-3.17828 -0.08361,-0.50572 -0.272754,-1.05649 -0.420306,-1.22392 -0.338464,-0.38405 -0.967905,-1.75323 -0.967905,-2.1054 0,-0.14622 -0.196961,-0.50573 -0.437692,-0.79893 -0.24073,-0.2932 -0.583987,-1.13804 -0.762794,-1.87743 -0.178806,-0.73939 -0.416514,-1.59611 -0.528243,-1.90381 -0.11173,-0.30772 -0.203142,-0.82834 -0.203142,-1.15693 0,-0.3286 -0.0966,-0.59745 -0.214653,-0.59745 -0.118059,0 -0.214652,-0.11077 -0.214652,-0.24621 0,-0.13542 -0.184963,-0.71084 -0.411028,-1.27871 -0.226068,-0.56787 -0.470705,-1.4161 -0.543641,-1.88496 -0.07294,-0.46887 -0.21647,-1.41744 -0.318963,-2.10796 -0.227102,-1.53006 -0.672725,-3.01727 -1.033879,-3.4505 -0.147574,-0.177 -0.269154,-0.45102 -0.270181,-0.6089 -0.0061,-0.9391 -0.650862,-6.31657 -0.787115,-6.56475 -0.09014,-0.16418 -0.233674,-0.95613 -0.318972,-1.75989 -0.0853,-0.80375 -0.273436,-2.22859 -0.418087,-3.16632 -0.293055,-1.89976 -0.291401,-12.32731 0.0024,-15.58803 l 0.175609,-1.948504 0.07044,1.583164 c 0.04696,1.05519 0.121254,0.36477 0.222777,-2.070289 0.19604,-4.701838 0.380709,-6.210855 0.760068,-6.210855 0.206434,0 0.298934,-0.346415 0.308908,-1.156919 0.0337,-2.737863 0.164884,-4.258576 0.38933,-4.513247 0.132216,-0.150018 0.240389,-0.47178 0.240389,-0.715008 0,-0.647678 0.507,-2.383087 0.69622,-2.383087 0.08932,0 0.162389,-0.219206 0.162389,-0.487126 0,-0.26792 0.0966,-0.487125 0.214652,-0.487125 0.118059,0 0.214653,-0.236168 0.214653,-0.524827 0,-0.288658 0.217336,-1.051395 0.482967,-1.694949 0.363199,-0.879956 0.602737,-1.172605 0.965935,-1.18012 0.436562,-0.0088 0.482969,-0.129305 0.482969,-1.251972 0,-1.005308 0.153025,-1.527482 0.802998,-2.740086 0.441649,-0.823942 0.870277,-1.555116 0.952506,-1.624821 0.255783,-0.216832 0.615097,-1.485627 0.487212,-1.720431 -0.06684,-0.122763 -0.01923,-0.223121 0.105792,-0.223121 0.125027,0 0.227322,-0.164404 0.227322,-0.365335 0,-0.200942 0.0966,-0.365347 0.214652,-0.365347 0.118059,0 0.214652,-0.176037 0.214652,-0.391188 0,-0.215139 0.241483,-0.606706 0.536631,-0.870143 0.316674,-0.282646 0.545401,-0.746267 0.558026,-1.13109 l 0.0214,-0.652123 0.17186,0.608916 c 0.165565,0.586599 0.172643,0.581004 0.193255,-0.152848 0.01171,-0.418974 0.166287,-0.898206 0.343376,-1.064972 0.177087,-0.166767 0.321978,-0.508988 0.321978,-0.760514 0,-0.287913 0.152023,-0.457294 0.410436,-0.457294 0.311566,0 0.445382,-0.234703 0.555499,-0.974251 0.08918,-0.598964 0.261819,-0.974252 0.448171,-0.974252 0.166711,0 0.303111,-0.219205 0.303111,-0.487125 0,-0.40594 0.143103,-0.487126 0.858609,-0.487126 h 0.858609 v -0.974251 c 0,-0.535839 0.0966,-0.974264 0.214652,-0.974264 0.118059,0 0.214653,-0.219206 0.214653,-0.487125 0,-0.267908 0.0966,-0.487126 0.214652,-0.487126 0.118059,0 0.214652,0.219218 0.214652,0.487126 0,0.267919 0.0966,0.487125 0.214652,0.487125 0.238103,0 0.254245,-0.05683 0.306519,-1.079711 0.02007,-0.392906 0.152515,-0.758254 0.294299,-0.811881 0.141785,-0.05368 0.257791,-0.307577 0.257791,-0.564332 0,-0.256755 0.144891,-0.46683 0.321978,-0.46683 0.178877,0 0.32198,-0.21649 0.32198,-0.487125 0,-0.288216 0.143101,-0.487126 0.350462,-0.487126 0.192755,0 0.536272,-0.243089 0.763367,-0.540197 0.341965,-0.447391 0.445702,-0.479989 0.603803,-0.189727 0.104987,0.192759 0.265795,0.265495 0.35734,0.161613 0.09154,-0.103818 0.03981,-0.277657 -0.11495,-0.386187 -0.209815,-0.147139 -0.07823,-0.421222 0.517277,-1.077463 0.439269,-0.484069 0.885014,-0.819585 0.990548,-0.745573 0.105536,0.07401 0.178043,0.0442 0.161139,-0.06618 -0.07702,-0.503039 0.04458,-0.809683 0.321078,-0.809683 0.16554,0 0.402,-0.328809 0.525468,-0.730694 0.136295,-0.443641 0.144544,-0.730683 0.021,-0.730683 -0.111913,0 -0.203482,-0.179863 -0.203482,-0.3997 0,-0.65681 -1.538731,-2.742613 -2.575125,-3.490674 -1.675425,-1.20932 -3.204979,-1.590505 -6.332942,-1.578267 -2.835155,0.01137 -4.98371,0.386919 -7.756122,1.3567 -1.228699,0.429798 -1.407743,0.591575 -2.683153,2.424438 -4.926413,7.07967 -8.712041,15.274278 -11.412495,24.704198 -1.116921,3.900213 -1.551528,5.82864 -2.387855,10.594979 -3.989827,22.738495 -0.433104,42.870205 10.254338,58.041685 2.824659,4.00977 7.197547,8.46883 11.624113,11.85318 0.590293,0.45131 1.490265,1.14361 1.999936,1.53845 1.48412,1.14972 3.394892,3.45713 4.159056,5.02237 0.38867,0.79612 0.726166,1.42537 0.749993,1.39834 0.02383,-0.027 -0.168642,-0.83442 -0.427704,-1.79421 z M 90.304818,159.19 c 0.06565,-0.19411 0.205618,-0.35293 0.311047,-0.35293 0.308589,0 0.220163,0.42261 -0.119364,0.57044 -0.207894,0.0906 -0.271463,0.0184 -0.191686,-0.21751 z M 79.645635,80.166101 c 0,-0.133954 0.0966,-0.243557 0.214652,-0.243557 0.118059,0 0.214652,0.109628 0.214652,0.243557 0,0.133966 -0.0966,0.243569 -0.214652,0.243569 -0.118059,0 -0.214652,-0.109628 -0.214652,-0.243569 z m 6.646612,72.155519 c -0.0041,-0.10041 -0.14565,-0.45668 -0.314371,-0.79158 l -0.306766,-0.60891 -0.0076,0.79158 c -0.0052,0.54509 0.09266,0.79159 0.314371,0.79159 0.177089,0 0.318556,-0.0822 0.314372,-0.18268 z M 188.68897,80.569199 c 0,-0.04623 -0.21734,-0.292826 -0.48297,-0.548015 l -0.48296,-0.463987 0.4089,0.548015 c 0.38428,0.515 0.55703,0.658906 0.55703,0.463987 z M 140.68185,50.337453 c 0.16133,-0.477047 -0.28678,-0.770214 -0.525,-0.34346 -0.26949,0.482794 -0.23679,0.701002 0.10511,0.701002 0.16446,0 0.35342,-0.160894 0.41992,-0.357542 z m -1.25557,-0.129584 c -0.0729,-0.133953 -0.2477,-0.241877 -0.38831,-0.239831 -0.15361,0.0025 -0.12713,0.09801 0.0663,0.239831 0.41236,0.302387 0.48667,0.302387 0.32197,0 z m 0.4293,-0.730682 c -0.0729,-0.133966 -0.3443,-0.232644 -0.60296,-0.219294 -0.4378,0.02261 -0.43322,0.03776 0.0663,0.219294 0.29515,0.107228 0.56648,0.205932 0.60297,0.219282 0.0365,0.01339 0.006,-0.08538 -0.0663,-0.219282 z m -6.27857,-25.004729 c -0.14758,-0.06757 -0.38906,-0.06757 -0.53663,0 -0.14758,0.06757 -0.0268,0.12289 0.26831,0.12289 0.29515,0 0.41589,-0.05532 0.26832,-0.12289 z M 112.91673,177.49555 c 0,-0.0527 0.14991,-0.161 0.33313,-0.24078 0.19103,-0.0832 0.27719,-0.0423 0.20198,0.0957 -0.12605,0.23143 -0.53511,0.34231 -0.53511,0.14505 z m 37.15272,-2.18386 c 0.0491,-0.0481 0.37922,-0.16107 0.7334,-0.25096 0.47028,-0.11935 0.55711,-0.0968 0.32197,0.0837 -0.28985,0.22256 -1.27077,0.37794 -1.05537,0.16717 z m 2.34329,-0.39962 c 0.42036,-0.30824 0.70453,-0.30824 0.53663,0 -0.0729,0.13396 -0.296,0.24189 -0.49563,0.23984 -0.31281,-0.004 -0.31848,-0.0364 -0.041,-0.23984 z m -12.06077,-0.16637 c 0.15495,-0.0703 0.34008,-0.0618 0.41142,0.0192 0.0713,0.081 -0.0555,0.13848 -0.28174,0.12791 -0.25005,-0.0114 -0.30091,-0.0693 -0.12968,-0.14715 z m 1.97212,-0.32075 c 0,-0.26792 0.0966,-0.48713 0.21464,-0.48713 0.11804,0 0.21466,0.21921 0.21466,0.48713 0,0.26792 -0.0966,0.48712 -0.21466,0.48712 -0.11803,0 -0.21464,-0.2192 -0.21464,-0.48712 z m 12.02052,-0.0969 c 0,-0.19233 -0.12072,-0.39862 -0.26831,-0.45842 -0.15607,-0.0633 -0.18868,-0.19911 -0.0779,-0.32476 0.11072,-0.12566 0.23046,-0.0887 0.28621,0.0884 0.15131,0.48076 0.48935,0.35458 0.48935,-0.18266 0,-0.37889 0.1431,-0.48713 0.64395,-0.48713 0.54592,0 0.64396,0.0938 0.64396,0.61655 0,0.62547 -0.076,0.68962 -1.12693,0.95091 -0.42991,0.10685 -0.59029,0.0518 -0.59029,-0.20293 z m 5.9051,-0.63782 c 0.0741,-0.13615 0.22474,-0.18448 0.33464,-0.10735 0.29774,0.20878 0.24222,0.35494 -0.13482,0.35494 -0.18405,0 -0.27397,-0.1114 -0.19982,-0.24754 z m 0.96378,0.004 c 0,-0.13396 0.1023,-0.24357 0.22731,-0.24357 0.12503,0 0.16763,0.10963 0.0946,0.24357 -0.0729,0.13396 -0.17526,0.24356 -0.22731,0.24356 -0.0521,0 -0.0946,-0.10963 -0.0946,-0.24356 z m 1.03301,-0.16639 c 0.15495,-0.0703 0.34009,-0.0618 0.41141,0.0192 0.0713,0.081 -0.0555,0.1385 -0.28172,0.12793 -0.25007,-0.0114 -0.30093,-0.0693 -0.12969,-0.14715 z m -14.98541,-0.53585 c 0,-0.29589 0.19048,-0.50004 0.53663,-0.57513 0.35984,-0.0781 0.53663,-0.008 0.53663,0.21517 0,0.18236 -0.14489,0.33157 -0.32198,0.33157 -0.17709,0 -0.32198,0.10963 -0.32198,0.24356 0,0.13396 -0.0966,0.24357 -0.21465,0.24357 -0.11804,0 -0.21465,-0.20644 -0.21465,-0.45874 z m 17.60148,0.21517 c -0.26037,-0.19092 -0.22956,-0.23682 0.16099,-0.23983 0.26563,-0.001 0.48297,0.10584 0.48297,0.23983 0,0.30516 -0.2278,0.30516 -0.64396,0 z m -18.56742,-0.24356 c -0.0729,-0.13397 0.0237,-0.24357 0.21465,-0.24357 0.19103,0 0.28762,0.10963 0.21466,0.24357 -0.0729,0.13395 -0.16956,0.24356 -0.21466,0.24356 -0.0451,0 -0.14169,-0.10963 -0.21465,-0.24356 z m 19.69435,0.0756 c 0.51885,-0.15385 0.47004,-0.46931 -0.10731,-0.69353 -0.33508,-0.13014 0.10865,-0.24367 1.4489,-0.37078 1.06253,-0.10079 2.36654,-0.25708 2.89781,-0.34738 0.70618,-0.11998 0.87935,-0.095 0.64396,0.0932 -0.17709,0.14157 -0.48289,0.20066 -0.67957,0.13128 -0.19665,-0.0693 -0.4141,-0.0224 -0.48319,0.10457 -0.0691,0.12686 -0.63265,0.306 -1.25233,0.39809 -0.61967,0.0921 -1.40715,0.32156 -1.74995,0.50995 -0.3428,0.18837 -0.72918,0.32979 -0.85861,0.31426 -0.12944,-0.0155 -0.0663,-0.0784 0.14031,-0.13965 z m -16.79654,-0.67756 c 0,-0.2471 0.62681,-0.60088 0.72975,-0.41187 0.0682,0.12529 -0.068,0.28469 -0.30287,0.35437 -0.23478,0.0697 -0.42688,0.0955 -0.42688,0.0575 z m 4.17381,-1.17392 c -0.37899,-0.24066 -0.36176,-0.2763 0.21877,-0.45248 0.75557,-0.22928 0.9192,-0.11064 0.50141,0.36338 -0.23355,0.26502 -0.40897,0.28673 -0.72018,0.089 z m 8.28285,-1.69495 c 0.01,-0.76943 0.50784,-1.4415 0.93182,-1.25689 0.22762,0.0992 0.34925,0.43991 0.34925,0.97849 0,0.75586 -0.055,0.82641 -0.64394,0.82641 -0.52673,0 -0.64272,-0.0998 -0.63713,-0.54801 z m 9.86717,-0.42624 c 0,-0.81188 0.0716,-0.97425 0.42931,-0.97425 0.35775,0 0.4293,0.16237 0.4293,0.97425 0,0.81187 -0.0716,0.97425 -0.4293,0.97425 -0.35777,0 -0.42931,-0.16238 -0.42931,-0.97425 z m -11.59122,-0.36534 c 0,-0.20095 0.0966,-0.36535 0.21465,-0.36535 0.11804,0 0.21465,0.1644 0.21465,0.36535 0,0.20094 -0.0966,0.36534 -0.21465,0.36534 -0.11803,0 -0.21465,-0.1644 -0.21465,-0.36534 z m 1.28792,-0.95988 c 0,-0.19304 0.0966,-0.41871 0.21464,-0.5015 0.11803,-0.0828 0.21466,0.0752 0.21466,0.35096 0,0.27583 -0.0966,0.50151 -0.21466,0.50151 -0.11803,0 -0.21464,-0.15794 -0.21464,-0.35097 z m 5.58095,-2.08466 c 0,-0.26792 0.0966,-0.48712 0.21465,-0.48712 0.11804,0 0.21466,0.2192 0.21466,0.48712 0,0.26792 -0.0966,0.48713 -0.21466,0.48713 -0.11803,0 -0.21465,-0.21921 -0.21465,-0.48713 z m 6.43956,-1.46137 c 0,-1.78613 0.0357,-1.94852 0.42932,-1.94852 0.39352,0 0.4293,0.16239 0.4293,1.94852 0,1.78612 -0.0357,1.9485 -0.4293,1.9485 -0.39354,0 -0.42932,-0.16238 -0.42932,-1.9485 z m -2.45895,-1.93098 c -0.14282,-0.26222 0.70582,-0.62659 0.91269,-0.39187 0.0762,0.0865 -0.004,0.25922 -0.17717,0.38385 -0.4023,0.28869 -0.58157,0.29065 -0.73552,0.008 z m 1.41959,-0.50466 c 0,-0.3349 0.0488,-0.4719 0.10828,-0.30445 0.0595,0.16745 0.0595,0.44146 0,0.6089 -0.0595,0.16745 -0.10828,0.0304 -0.10828,-0.30445 z m 0.4293,0 c 0,-0.3349 0.0488,-0.4719 0.10828,-0.30445 0.0595,0.16745 0.0595,0.44146 0,0.6089 -0.0595,0.16745 -0.10828,0.0304 -0.10828,-0.30445 z m 30.66138,-29.5632 c 0,-0.0506 0.16904,-0.24238 0.37564,-0.42624 0.34046,-0.30295 0.34804,-0.29434 0.0811,0.0919 -0.28042,0.40573 -0.45669,0.53474 -0.45669,0.33428 z m -12.02053,-0.73068 c 0,-0.0505 0.16904,-0.24238 0.37564,-0.42624 0.34046,-0.30297 0.34804,-0.29434 0.0811,0.0919 -0.28041,0.40571 -0.45668,0.53474 -0.45668,0.33428 z m 22.75971,-21.70693 c 0,-0.13396 0.0936,-0.40796 0.20809,-0.60891 0.1145,-0.20094 0.20807,-0.25574 0.20807,-0.12175 0,0.13395 -0.0937,0.40796 -0.20807,0.60891 -0.1145,0.20094 -0.20809,0.25574 -0.20809,0.12175 z M 98.950564,65.337964 c 0.126271,-0.267718 0.15004,-0.542534 0.05282,-0.610723 -0.09722,-0.0682 -0.05302,-0.924249 0.09823,-1.90239 0.433167,-2.80138 0.369607,-7.080075 -0.138675,-9.335095 -0.236887,-1.050978 -0.57719,-2.164538 -0.75623,-2.474591 -0.44957,-0.77855 -0.117717,-0.708593 0.503147,0.106091 1.340144,1.758434 1.971704,4.266382 1.971704,7.829627 0,3.59996 -0.700514,6.629728 -1.5719,6.798565 -0.326698,0.06328 -0.352066,-0.0025 -0.159091,-0.411459 z m 86.303966,-9.771713 c 0,-0.133954 0.0966,-0.243557 0.21466,-0.243557 0.11803,0 0.21464,0.109629 0.21464,0.243557 0,0.133966 -0.0966,0.243569 -0.21464,0.243569 -0.11804,0 -0.21466,-0.109628 -0.21466,-0.243569 z m -8.51201,-14.502498 c -0.19988,-0.591008 0.0343,-0.648247 0.46136,-0.112786 0.35564,0.445889 0.35805,0.488616 0.0277,0.488616 -0.19909,0 -0.41918,-0.169128 -0.48909,-0.375856 z M 127.25819,25.198075 c 0.15494,-0.07035 0.34009,-0.06176 0.41141,0.0192 0.0713,0.08096 -0.0555,0.1385 -0.28174,0.127916 -0.25005,-0.01137 -0.30091,-0.06934 -0.12967,-0.147152 z"
   id="path217" /></svg>
