<?xml version="1.0" encoding="UTF-8" standalone="no"?>
<!-- Generator: Adobe Illustrator 16.0.0, SVG Export Plug-In . SVG Version: 6.00 Build 0)  -->

<svg
   version="1.1"
   id="Layer_1"
   x="0px"
   y="0px"
   width="280px"
   height="280px"
   viewBox="0 0 280 280"
   enable-background="new 0 0 280 280"
   xml:space="preserve"
   sodipodi:docname="rtp1.svg"
   inkscape:version="1.4 (e7c3feb100, 2024-10-09)"
   xmlns:inkscape="http://www.inkscape.org/namespaces/inkscape"
   xmlns:sodipodi="http://sodipodi.sourceforge.net/DTD/sodipodi-0.dtd"
   xmlns="http://www.w3.org/2000/svg"
   xmlns:svg="http://www.w3.org/2000/svg"><defs
   id="defs5011" /><sodipodi:namedview
   id="namedview5009"
   pagecolor="#ffffff"
   bordercolor="#000000"
   borderopacity="0.25"
   inkscape:showpageshadow="2"
   inkscape:pageopacity="0.0"
   inkscape:pagecheckerboard="0"
   inkscape:deskcolor="#d1d1d1"
   showgrid="false"
   inkscape:zoom="1.0442452"
   inkscape:cx="323.19995"
   inkscape:cy="247.06841"
   inkscape:window-width="1600"
   inkscape:window-height="815"
   inkscape:window-x="0"
   inkscape:window-y="0"
   inkscape:window-maximized="1"
   inkscape:current-layer="Layer_1"
   inkscape:pageshadow="2"
   showguides="false" />
<rect
   y="0"
   fill-rule="evenodd"
   clip-rule="evenodd"
   fill="#164E86"
   width="280"
   height="280"
   id="rect4994-7"
   style="fill:#015aff;fill-opacity:1;stroke:none;stroke-width:0.999999;stroke-opacity:1"
   x="0" />

<path
   style="fill:#ffffff;stroke-width:0.14065"
   d="m 23.519649,168.15616 c -3.123594,-1.11219 -3.072279,-5.69335 0.07551,-6.73887 0.567788,-0.18859 4.751269,-0.20898 36.291981,-0.17691 l 35.650186,0.0362 0.582645,0.3116 c 1.08486,0.58021 2.019371,2.06322 2.019371,3.20463 0,1.1414 -0.934511,2.62442 -2.019371,3.20462 l -0.582645,0.31161 -35.72491,0.0246 c -30.751876,0.0212 -35.803971,-0.004 -36.292761,-0.17756 z m 95.857731,-24.46069 v -14.27591 h 13.18956 c 8.45534,0 13.61735,0.0536 14.38138,0.14922 2.63537,0.32994 4.58053,1.30628 6.53976,3.28246 1.00598,1.01467 1.3929,1.52794 1.86616,2.47559 0.91616,1.83454 1.20656,3.2067 1.11535,5.27 -0.0824,1.86365 -0.29388,2.72373 -1.03397,4.20488 -0.80465,1.61036 -2.25879,3.28908 -3.46769,4.00318 -0.22854,0.135 -0.37232,0.32384 -0.33938,0.44572 0.0314,0.11631 1.14235,2.07194 2.4687,4.34585 1.32635,2.27391 2.41154,4.1895 2.41154,4.25687 0,0.0675 -1.74122,0.10571 -3.87839,0.0851 l -3.87838,-0.0374 -2.05855,-3.48107 -2.05855,-3.48108 h -9.0422 -9.04223 v 3.51623 3.51624 h -3.58656 -3.58655 z m 27.44382,0.26197 c 0.97815,-0.45227 1.72143,-1.20232 2.16007,-2.17977 0.89496,-1.99422 0.0553,-4.28952 -1.96631,-5.37515 -0.55827,-0.2998 -0.63902,-0.30241 -10.51353,-0.34092 l -9.95094,-0.0388 v 4.15648 4.15647 l 9.81029,-0.0388 c 9.68263,-0.0383 9.81875,-0.0428 10.46042,-0.33946 z m 28.8159,3.04566 v -10.97302 h -7.03247 -7.03246 v -3.30526 -3.30526 h 17.65149 17.65148 v 3.30526 3.30526 h -6.96128 -6.96127 l -0.036,10.93548 -0.036,10.93549 -3.62171,0.0375 -3.62173,0.0375 z m 27.14532,-3.31353 v -14.2818 l 13.60781,0.0465 c 15.1501,0.0518 14.18779,-0.009 16.46867,1.03394 5.51618,2.52145 7.85954,8.82753 5.28423,14.22014 -0.9918,2.07681 -2.76166,3.84377 -4.91015,4.90209 -2.37009,1.16749 -1.67446,1.1066 -13.18587,1.15423 l -10.23224,0.0423 v 3.58217 3.58217 h -3.51622 -3.51623 z m 26.78774,0.2228 c 3.13885,-1.55606 3.21002,-5.88792 0.12265,-7.46498 l -0.6793,-0.34699 -9.59932,-0.038 -9.59932,-0.038 v 4.15579 4.15578 l 9.529,-0.0389 9.52899,-0.0389 z m 28.42714,13.83798 c -0.1968,-0.19681 -0.22102,-1.32183 -0.22102,-10.26698 v -10.04596 l -3.02466,1.51039 c -2.46916,1.233 -3.06976,1.48197 -3.2701,1.35558 -0.22123,-0.13954 -0.24543,-0.45698 -0.24543,-3.21844 v -3.06363 l 4.52073,-2.30087 4.52073,-2.30088 h 1.63268 c 1.44514,0 1.66498,0.0323 1.91397,0.2813 0.27746,0.27746 0.2813,0.46883 0.2813,14.04313 0,13.15362 -0.0114,13.77212 -0.2572,13.9946 -0.37504,0.33939 -5.51303,0.3497 -5.851,0.0118 z M 12.905871,157.53837 c -1.419429,-0.64176 -2.171479,-1.78229 -2.172197,-3.29421 -0.0022,-1.4226 0.663678,-2.51066 1.961218,-3.21209 l 0.562589,-0.30414 h 46.34395 46.343939 l 0.5815,0.31103 c 0.31984,0.17106 0.78826,0.51776 1.04093,0.77044 1.79656,1.79656 1.03263,4.97977 -1.39347,5.80642 -0.56075,0.19107 -5.73229,0.21456 -46.633114,0.21181 -45.958862,-0.003 -46.003026,-0.003 -46.635345,-0.28926 z m -0.25391,-10.62066 c -2.7317049,-1.36127 -2.593826,-5.16204 0.235722,-6.49755 0.478697,-0.22595 3.379498,-0.24093 46.643423,-0.24093 44.294434,0 46.159434,0.0102 46.797134,0.25627 0.79906,0.30832 1.86552,1.42981 2.07423,2.18127 0.50669,1.82429 -0.29968,3.61882 -1.96482,4.37257 -0.63259,0.28635 -0.65742,0.2865 -46.843763,0.28959 l -46.210861,0.003 z m 0.25391,-10.47674 c -1.419429,-0.64176 -2.171479,-1.78229 -2.172197,-3.29421 -0.0022,-1.42259 0.663678,-2.51065 1.961218,-3.2121 l 0.562589,-0.30412 h 46.34395 46.343939 l 0.73902,0.40946 c 1.23226,0.68277 1.863,1.74752 1.863,3.14495 0,1.50696 -0.95673,2.85088 -2.37306,3.33347 -0.56075,0.19107 -5.73229,0.21456 -46.633114,0.21181 -45.958862,-0.003 -46.003026,-0.003 -46.635345,-0.28926 z m 10.613778,-10.4796 c -3.112022,-1.10806 -3.073059,-5.66825 0.05758,-6.73496 0.559364,-0.1906 4.640414,-0.2142 36.084415,-0.20873 29.250973,0.005 35.546055,0.0391 35.981451,0.1945 1.212279,0.43263 2.109771,1.47518 2.378729,2.76321 0.306347,1.46705 -0.495616,3.07432 -1.912313,3.83263 l -0.572195,0.30628 -35.724909,0.0246 c -30.751876,0.0212 -35.803971,-0.004 -36.292761,-0.17756 z"
   id="path1160" /></svg>
