<?xml version="1.0" encoding="UTF-8" standalone="no"?>
<!-- Generator: Adobe Illustrator 16.0.0, SVG Export Plug-In . SVG Version: 6.00 Build 0)  -->

<svg
   version="1.1"
   id="Layer_1"
   x="0px"
   y="0px"
   width="280px"
   height="280px"
   viewBox="0 0 280 280"
   enable-background="new 0 0 280 280"
   xml:space="preserve"
   sodipodi:docname="rtp2.svg"
   inkscape:version="1.4 (e7c3feb100, 2024-10-09)"
   xmlns:inkscape="http://www.inkscape.org/namespaces/inkscape"
   xmlns:sodipodi="http://sodipodi.sourceforge.net/DTD/sodipodi-0.dtd"
   xmlns="http://www.w3.org/2000/svg"
   xmlns:svg="http://www.w3.org/2000/svg"><defs
   id="defs5011" /><sodipodi:namedview
   id="namedview5009"
   pagecolor="#ffffff"
   bordercolor="#000000"
   borderopacity="0.25"
   inkscape:showpageshadow="2"
   inkscape:pageopacity="0.0"
   inkscape:pagecheckerboard="0"
   inkscape:deskcolor="#d1d1d1"
   showgrid="false"
   inkscape:zoom="1.0442452"
   inkscape:cx="260.95404"
   inkscape:cy="21.067849"
   inkscape:window-width="1276"
   inkscape:window-height="811"
   inkscape:window-x="26"
   inkscape:window-y="23"
   inkscape:window-maximized="0"
   inkscape:current-layer="Layer_1"
   inkscape:pageshadow="2"
   showguides="true" />


<rect
   y="0"
   fill-rule="evenodd"
   clip-rule="evenodd"
   fill="#164E86"
   width="280"
   height="280"
   id="rect4994-7"
   style="fill:#eb8d1b;fill-opacity:1;stroke:none;stroke-width:0.999999;stroke-opacity:1"
   x="0" /><path
   style="fill:#ffffff;stroke-width:0.132002"
   d="m 23.006733,166.75315 c -1.308798,-0.59663 -2.043447,-1.71814 -2.043447,-3.11956 0,-1.4163 0.719816,-2.51813 2.043447,-3.12796 l 0.660002,-0.30408 h 34.782464 34.782459 l 0.66002,0.30408 c 0.86463,0.39836 1.34916,0.86736 1.73142,1.67594 0.82081,1.73625 0.0554,3.75701 -1.73142,4.57158 -0.50672,0.23098 -1.93613,0.24069 -35.442479,0.24069 -33.506338,0 -34.935745,-0.009 -35.442466,-0.24069 z M 244.86494,155.54849 c 0.0903,-2.45272 -0.30874,-1.88965 6.15964,-8.69201 4.4911,-4.72296 5.73326,-6.16717 6.43685,-7.48389 0.46816,-0.8761 0.50837,-1.03483 0.50838,-2.00734 1e-5,-0.92041 -0.0477,-1.13725 -0.37182,-1.68859 -0.70413,-1.19789 -1.99477,-1.79193 -3.5419,-1.63023 -0.89801,0.0939 -1.44934,0.34004 -2.07061,0.92456 -0.5465,0.51417 -0.80047,0.983 -1.08251,1.99825 l -0.22003,0.79201 -2.59086,0.0358 c -2.44954,0.0339 -2.6054,0.0212 -2.85764,-0.231 -0.33967,-0.33967 -0.3367,-0.80436 0.0124,-1.93591 1.00672,-3.26342 3.39913,-5.61792 6.58495,-6.48064 1.27034,-0.34401 4.44924,-0.30663 5.82598,0.0685 3.83806,1.04579 6.05536,3.87224 6.08073,7.75126 0.0104,1.60275 -0.37373,2.90061 -1.3,4.39121 -0.85055,1.36877 -1.56678,2.20634 -5.35394,6.26088 -1.85153,1.98225 -3.52883,3.79714 -3.72732,4.0331 l -0.3609,0.429 h 5.5558 5.55581 v 2.50804 2.50803 h -9.65003 -9.65004 l 0.0571,-1.55102 z M 116.92597,142.96954 v -13.86596 l 13.56318,0.0425 13.56318,0.0425 1.056,0.29544 c 3.67935,1.02933 6.28894,3.43386 7.47893,6.89131 0.40573,1.17876 0.43191,1.36491 0.43641,3.10204 0.005,1.57722 -0.0406,1.9931 -0.3045,2.83804 -0.54566,1.74659 -1.2819,2.98001 -2.52694,4.23331 -0.61811,0.62219 -1.32578,1.27862 -1.57261,1.45872 l -0.44879,0.32748 2.41298,4.15135 c 1.32712,2.28323 2.43845,4.19588 2.46959,4.25033 0.0311,0.0545 -1.63011,0.099 -3.69165,0.099 h -3.7483 l -2.02312,-3.43204 -2.02313,-3.43205 h -8.88857 -8.88857 v 3.43205 3.43204 h -3.43205 -3.43204 z m 26.79635,0.32673 c 0.89897,-0.41664 1.63099,-1.10744 2.08858,-1.97097 0.29913,-0.56449 0.34975,-0.82239 0.34975,-1.78202 0,-0.96131 -0.0507,-1.21859 -0.35385,-1.79623 -0.44031,-0.83897 -1.49061,-1.79875 -2.31624,-2.11666 -0.58194,-0.22408 -1.30085,-0.24395 -10.16338,-0.28107 l -9.53712,-0.04 v 4.16298 4.16297 l 9.60312,-0.001 9.60313,-10e-4 0.726,-0.33648 z m 28.21616,2.81409 -0.0338,-10.72514 -6.83109,-0.0342 -6.83109,-0.0342 v -3.10086 -3.10085 h 17.16023 17.16022 v 3.10204 3.10204 h -6.86408 -6.8641 v 10.75815 10.75813 h -3.43126 -3.43127 z m 26.43257,-3.14095 v -13.86609 l 13.23318,0.0427 c 13.22283,0.0427 13.234,0.043 14.28919,0.33724 3.77578,1.05309 6.46906,3.63215 7.61069,7.28794 0.25755,0.82474 0.30918,1.2765 0.30929,2.70604 0,2.0489 -0.19089,2.87978 -1.07675,4.68322 -0.52634,1.0715 -0.79646,1.43207 -1.88089,2.51069 -1.45288,1.44509 -2.43229,2.06387 -4.23634,2.67643 l -1.25401,0.4258 -10.06515,0.037 -10.06514,0.037 v 3.4941 3.4941 h -3.43204 -3.43204 z m 26.23623,0.26513 c 0.9147,-0.45709 1.65054,-1.20442 2.05891,-2.09109 0.21492,-0.46665 0.27961,-0.85854 0.27499,-1.66617 -0.008,-1.30426 -0.37479,-2.1092 -1.37125,-3.0051 -1.26069,-1.13347 -0.70336,-1.07724 -11.12768,-1.12284 l -9.20713,-0.0403 v 4.16313 4.16313 h 9.28505 9.28505 z m -211.6475,13.29392 c -2.853006,-1.0761 -3.0634604,-4.91695 -0.34265,-6.25305 l 0.753471,-0.37 h 45.078598 45.078591 l 0.60581,0.28021 c 0.73207,0.33861 1.43366,1.01529 1.77558,1.71256 0.3647,0.74375 0.34652,2.18189 -0.0367,2.90822 -0.37208,0.70506 -1.33082,1.54463 -1.98913,1.74186 -0.74852,0.22427 -90.32818,0.20475 -90.923509,-0.0198 z m 0.318851,-10.17333 c -2.662077,-0.71875 -3.4665494,-3.87821 -1.479002,-5.80852 0.979993,-0.95174 -3.2409954,-0.87615 46.850354,-0.83891 43.133317,0.032 45.162987,0.0441 45.618017,0.2707 0.6281,0.31275 1.26047,0.94294 1.60949,1.60392 0.37814,0.71614 0.39393,2.15955 0.0317,2.89827 -0.34191,0.69728 -1.04351,1.37396 -1.77558,1.71257 l -0.60581,0.28021 -44.814594,0.0245 c -35.840616,0.0197 -44.938742,-0.009 -45.434563,-0.14281 z m -0.106878,-10.36684 c -1.859676,-0.56789 -2.917679,-2.53313 -2.324744,-4.31825 0.28734,-0.86514 0.884205,-1.56187 1.711943,-1.99844 l 0.679642,-0.35846 h 45.210605 45.210581 l 0.67966,0.35846 c 2.50104,1.31908 2.49002,4.73148 -0.0197,6.08819 l -0.52801,0.28544 -45.144581,0.022 c -24.829531,0.0121 -45.29349,-0.0234 -45.475455,-0.079 z m 10.296134,-10.29654 c -1.568483,-0.47711 -2.501389,-1.71109 -2.501389,-3.3087 0,-1.37863 0.627125,-2.39842 1.890486,-3.07414 l 0.545754,-0.29191 h 35.046461 35.046459 l 0.54493,0.29149 c 0.70756,0.37847 1.54533,1.33705 1.74187,1.99305 0.1985,0.66251 0.19784,1.50268 -0.001,2.16865 -0.2403,0.80203 -1.17036,1.75126 -2.03164,2.07351 l -0.72537,0.2714 -34.612509,-0.0115 c -19.036883,-0.006 -34.761397,-0.0567 -34.943359,-0.11198 z"
   id="path1585" /></svg>
