<?xml version="1.0" encoding="UTF-8" standalone="no"?>
<!-- Generator: Adobe Illustrator 16.0.0, SVG Export Plug-In . SVG Version: 6.00 Build 0)  -->

<svg
   version="1.1"
   id="Layer_1"
   x="0px"
   y="0px"
   width="280px"
   height="280px"
   viewBox="0 0 280 280"
   enable-background="new 0 0 280 280"
   xml:space="preserve"
   sodipodi:docname="sic.svg"
   inkscape:version="1.4 (e7c3feb100, 2024-10-09)"
   xmlns:inkscape="http://www.inkscape.org/namespaces/inkscape"
   xmlns:sodipodi="http://sodipodi.sourceforge.net/DTD/sodipodi-0.dtd"
   xmlns="http://www.w3.org/2000/svg"
   xmlns:svg="http://www.w3.org/2000/svg"><defs
   id="defs216276">
	
	
	
</defs><sodipodi:namedview
   id="namedview216274"
   pagecolor="#ffffff"
   bordercolor="#666666"
   borderopacity="1.0"
   inkscape:pageshadow="2"
   inkscape:pageopacity="0.0"
   inkscape:pagecheckerboard="0"
   showgrid="false"
   inkscape:zoom="0.74285714"
   inkscape:cx="198.55769"
   inkscape:cy="176.34615"
   inkscape:window-width="1600"
   inkscape:window-height="815"
   inkscape:window-x="0"
   inkscape:window-y="0"
   inkscape:window-maximized="1"
   inkscape:current-layer="layer2"
   inkscape:showpageshadow="2"
   inkscape:deskcolor="#d1d1d1" />
<g
   inkscape:groupmode="layer"
   id="layer2"
   inkscape:label="BG"><rect
     y="0"
     fill-rule="evenodd"
     clip-rule="evenodd"
     fill="#164E86"
     width="280"
     height="280"
     id="rect4994-7"
     style="fill:#7749f5;fill-opacity:1;stroke:none;stroke-width:0.999999;stroke-opacity:1"
     x="0" /></g>
<g
   inkscape:groupmode="layer"
   id="layer1"
   inkscape:label="Logo"><path
     style="fill:#ffffff"
     d="m 92.536281,194.69821 c -11.97434,-0.56877 -37.93318,-3.21872 -47.60789,-4.85995 -13.9814,-2.37182 -20.75009,-5.51225 -18.75492,-8.7016 0.44515,-0.7116 0.66976,-4.0703 0.49914,-7.46378 -0.28608,-5.68973 -0.10978,-6.30131 2.26492,-7.85728 l 2.57514,-1.6873 -2.08722,-2.64272 c -1.94319,-2.46035 -2.04086,-3.43635 -1.41527,-14.14273 0.89395,-15.29893 1.78906,-18.29773 7.18299,-24.06428 4.62167,-4.94093 12.40998,-9.23974 23.56157,-13.00494 8.14326,-2.74949 8.84259,-2.63045 7.71173,1.31262 -0.5116,1.78387 -0.93019,7.9101 -0.93019,13.61385 0,8.76048 0.33395,10.96463 2.15114,14.19788 1.18313,2.10509 3.32063,4.29256 4.75,4.86104 1.42937,0.56848 9.31052,2.15406 17.51365,3.52351 8.20313,1.36945 15.321339,2.89646 15.818229,3.39334 0.49688,0.49688 0.76022,2.65023 0.5852,4.7852 l -0.31822,3.88178 -6.500009,-0.21114 c -3.575,-0.11613 -12.56732,-1.09039 -19.98295,-2.16504 -7.41563,-1.07464 -13.82813,-1.74057 -14.25,-1.47984 -0.42187,0.26073 -0.76704,4.24493 -0.76704,8.85377 v 8.37971 l 4.25,0.59789 c 12.90053,1.81486 45.386099,4.21565 47.185579,3.48716 1.13543,-0.45965 1.44613,-0.86426 0.69044,-0.89912 -1.12818,-0.0521 -1.24514,-2.25485 -0.65382,-12.31339 0.39608,-6.7375 0.87573,-12.50224 1.06589,-12.81053 0.19016,-0.30829 0.45231,-2.89579 0.58254,-5.75 0.13024,-2.85421 0.52351,-5.18947 0.87394,-5.18947 0.35043,0 1.68218,1.85938 2.95943,4.13195 2.11148,3.75686 2.28165,5.05042 1.87463,14.25 -0.24621,5.56493 -0.27848,8.88055 -0.0717,7.36805 0.36223,-2.64978 0.58306,-2.74577 6.05951,-2.634 3.12597,0.0638 4.8829,0.32434 3.90429,0.57897 -1.60683,0.41809 -1.75221,1.69111 -1.5,13.134 l 0.27929,12.67103 4.25,0.3075 c 3.9723,0.2874 4.25,0.14039 4.25,-2.25 0,-1.40663 -0.45,-2.5575 -1,-2.5575 -0.55,0 -1,-0.62356 -1,-1.38569 0,-0.76213 -0.67223,-2.67463 -1.49384,-4.25 -0.82161,-1.57537 -1.4965,-3.31431 -1.49974,-3.86431 -0.003,-0.5808 3.74536,-1.06685 8.94287,-1.15948 4.92182,-0.0877 9.37888,-0.4253 9.90456,-0.75019 0.52568,-0.32489 0.71437,-2.39062 0.4193,-4.59052 -0.49411,-3.68383 -0.34834,-4.00536 1.84518,-4.07009 2.22368,-0.0656 2.249,-0.1273 0.38167,-0.92972 -1.43895,-0.61833 -0.38698,-0.87914 3.75,-0.92971 5.51491,-0.0674 5.75,0.034 5.75,2.47937 0,3.57472 2.41087,7.83431 5.62668,9.94139 2.38042,1.55971 4.07896,1.69886 13.30111,1.08964 5.81471,-0.38412 17.32221,-1.45942 25.57221,-2.38954 l 15,-1.69115 v -9.74706 c 0,-11.50773 2.2406,-10.6204 -19.43532,-7.69681 -13.97816,1.88533 -15.44461,1.92495 -17.65455,0.47695 -2.04855,-1.34227 -2.41013,-2.37991 -2.41013,-6.91656 0,-2.93556 -0.27479,-7.3422 -0.61065,-9.79255 -0.5168,-3.77047 -0.24785,-4.86522 1.75,-7.12328 2.03995,-2.30565 4.39841,-3.0835 17.36065,-5.72577 21.20872,-4.32326 19.79143,-3.35299 19.35907,-13.25317 -0.35882,-8.21604 -0.35738,-8.22151 2.0712,-7.87835 5.64175,0.79718 16.21892,5.15621 22.72663,9.36603 8.0534,5.20972 10.15902,8.63521 11.53293,18.76215 0.48713,3.59063 1.13541,8.15762 1.44061,10.14886 0.71229,4.6472 -1.58642,9.18546 -6.14972,12.14112 -3.95828,2.5638 -4.2542,3.35818 -1.56848,4.21059 1.81695,0.57668 9.90497,6.52785 8.87176,6.52785 -0.27005,0 0.0831,3.4875 0.78479,7.75 1.25816,7.64294 1.24302,7.77982 -1.09563,9.90828 -3.4931,3.17914 -18.65822,6.28265 -45.97316,9.40829 -9.47464,1.08418 -107.45436,2.09844 -124.499999,1.28879 z m 60.999999,-6.35536 c 1.29269,-0.8354 1.26629,-0.97149 -0.19098,-0.98469 -0.93004,-0.008 -1.9691,0.43469 -2.30902,0.98469 -0.78218,1.2656 0.54163,1.2656 2.5,0 z m -64.201929,-3.58607 c 0.28705,-2.00899 0.0726,-2.04976 -5.80345,-1.10345 -5.87907,0.9468 -6.70455,1.93911 -2.49462,2.99883 4.35161,1.09538 7.98946,0.26445 8.29807,-1.89538 z m 63.864209,-2.66393 c -0.27741,-0.6875 -0.50439,-0.125 -0.50439,1.25 0,1.375 0.22698,1.9375 0.50439,1.25 0.27741,-0.6875 0.27741,-1.8125 0,-2.5 z m 2.02083,0.0625 c -0.31922,-0.79773 -0.55618,-0.56077 -0.60416,0.60417 -0.0434,1.05416 0.19292,1.64479 0.52522,1.3125 0.33229,-0.3323 0.36781,-1.1948 0.0789,-1.91667 z m -34.55556,-7.5625 c 1.24388,-1.58605 1.20851,-1.62142 -0.37755,-0.37755 -0.9625,0.75484 -1.75,1.54234 -1.75,1.75 0,0.82303 0.82119,0.2933 2.12755,-1.37245 z m 48.70247,-3 c -0.64279,-1.57759 -1.3224,-11.72718 -1.5941,-23.80688 -0.44447,-19.76134 -0.34774,-21.30361 1.57215,-25.0669 1.12516,-2.20551 2.86614,-4.64715 3.86884,-5.42588 1.74011,-1.35143 1.74517,-1.32396 0.11123,0.60349 -3.51004,4.14056 -4.79176,9.14028 -4.6565,18.16405 0.0976,6.51384 0.32193,7.87813 0.86836,5.28212 0.65599,-3.11649 0.76152,-2.84255 0.96311,2.5 0.12452,3.3 0.52126,11.51305 0.88165,18.25121 0.65256,12.20107 0.11635,14.72913 -2.01474,9.49879 z m -18.39537,-36.14426 c 0.30398,-0.49185 -2.2345,-1.38522 -5.64106,-1.98528 -4.80113,-0.8457 -6.37017,-0.81326 -6.97836,0.14427 -0.43153,0.6794 -0.81109,-2.13973 -0.84347,-6.26473 -0.0324,-4.125 -0.40848,-9.3 -0.83578,-11.5 l -0.77692,-4 8.32047,0.35262 c 5.60975,0.23774 8.32047,-0.007 8.32047,-0.75 0,-0.60644 -0.7875,-1.10388 -1.75,-1.10541 -1.4732,-0.002 -1.75,-0.95815 -1.75,-6.04275 0,-5.854024 0.077,-6.030944 2.5,-5.747214 2.36215,0.27661 2.5083,0.65117 2.65061,6.792754 0.0828,3.575 -0.0279,7.85 -0.24599,9.5 l -0.39659,3 -8.25401,-0.10853 -8.25402,-0.10853 8,0.60853 8,0.60853 0.31263,5.5 c 0.37096,6.52614 -0.50347,12 -1.91696,12 -0.55754,0 -0.765,-0.40242 -0.46102,-0.89426 z m -58.001189,-1.55253 c -7.84802,-1.56326 -8.43346,-1.99224 -8.43346,-6.17961 0,-2.874 0.31643,-3.41375 1.75,-2.98506 8.45778,2.52916 36.468859,5.60083 33.318259,3.65365 -0.93798,-0.5797 -1.18042,-1.96358 -0.77821,-4.44211 0.38383,-2.36532 0.1942,-3.60008 -0.55292,-3.60008 -0.80954,0 -0.78865,-0.34848 0.0725,-1.20965 0.9462,-0.9462 0.71752,-1.5019 -1.05,-2.55153 -2.07454,-1.23195 -1.93197,-1.28939 1.74035,-0.70116 2.2,0.35239 4.06305,0.71308 4.14012,0.80153 0.0771,0.0885 0.30206,3.49953 0.5,7.58018 l 0.35988,7.41936 -8,1.77332 c -9.20148,2.03964 -14.52999,2.14155 -23.066539,0.44116 z"
     id="path1500" /></g></svg>
