<?xml version="1.0" encoding="UTF-8" standalone="no"?>
<!-- Generator: Adobe Illustrator 16.0.0, SVG Export Plug-In . SVG Version: 6.00 Build 0)  -->

<svg
   version="1.1"
   id="Layer_1"
   x="0px"
   y="0px"
   width="280px"
   height="280px"
   viewBox="0 0 280 280"
   enable-background="new 0 0 280 280"
   xml:space="preserve"
   sodipodi:docname="thehill.svg"
   inkscape:version="1.4 (e7c3feb100, 2024-10-09)"
   xmlns:inkscape="http://www.inkscape.org/namespaces/inkscape"
   xmlns:sodipodi="http://sodipodi.sourceforge.net/DTD/sodipodi-0.dtd"
   xmlns="http://www.w3.org/2000/svg"
   xmlns:svg="http://www.w3.org/2000/svg"><defs
   id="defs216276">
	
	
	
</defs><sodipodi:namedview
   id="namedview216274"
   pagecolor="#ffffff"
   bordercolor="#666666"
   borderopacity="1.0"
   inkscape:pageshadow="2"
   inkscape:pageopacity="0.0"
   inkscape:pagecheckerboard="0"
   showgrid="false"
   inkscape:zoom="2.1011173"
   inkscape:cx="112.55916"
   inkscape:cy="98.519012"
   inkscape:window-width="1600"
   inkscape:window-height="815"
   inkscape:window-x="0"
   inkscape:window-y="0"
   inkscape:window-maximized="1"
   inkscape:current-layer="layer2"
   inkscape:showpageshadow="2"
   inkscape:deskcolor="#d1d1d1" />
<g
   inkscape:groupmode="layer"
   id="layer2"
   inkscape:label="BG"><rect
     y="0"
     fill-rule="evenodd"
     clip-rule="evenodd"
     fill="#164E86"
     width="280"
     height="280"
     id="rect4994-7"
     style="fill:#29b7eb;fill-opacity:1;stroke:none;stroke-width:0.999999;stroke-opacity:1"
     x="0" /><path
     style="fill:#ffffff;stroke-width:0.139186"
     d="m 230.04254,155.81227 c -1.33085,-0.28941 -2.38603,-0.87126 -3.40611,-1.87818 -0.96533,-0.95289 -1.47434,-1.79399 -1.84825,-3.05424 -0.20128,-0.67844 -0.22412,-2.61312 -0.22264,-18.85972 0.001,-14.86017 0.0358,-18.23173 0.19183,-18.818 0.65763,-2.4698 2.82035,-4.51079 5.34602,-5.04513 0.52272,-0.11058 5.89688,-0.15604 18.44772,-0.15604 19.32552,0 18.40872,-0.0362 20.1348,0.7944 0.96231,0.46305 2.48469,1.96148 2.97413,2.92734 0.81858,1.61538 0.7839,0.71817 0.7839,20.28789 0,15.69227 -0.027,18.0698 -0.21336,18.78527 -0.64426,2.47352 -2.77742,4.48158 -5.3371,5.02414 -1.32779,0.28145 -35.55428,0.27427 -36.85094,-0.009 z m 16.37358,-14.18386 v -2.00422 l -1.77462,-0.0497 c -1.57076,-0.0439 -1.84258,-0.0885 -2.36616,-0.38757 -0.39112,-0.22338 -0.68583,-0.53266 -0.86991,-0.91289 -0.26014,-0.53739 -0.27838,-0.85948 -0.27838,-4.91549 v -4.34042 h 3.16798 3.168 l 3.00304,7.27247 3.00301,7.27248 h 2.00393 2.00393 l 3.79507,-9.17468 c 2.08727,-5.04608 3.79506,-9.22688 3.79506,-9.29068 0,-0.0638 -1.06013,-0.116 -2.35586,-0.116 h -2.35586 l -0.54917,1.42666 c -0.30205,0.78466 -1.38157,3.60318 -2.39895,6.26338 -1.01738,2.6602 -1.88664,4.83651 -1.93169,4.83626 -0.0451,-2.7e-4 -1.14668,-2.78714 -2.44808,-6.1931 l -2.36616,-6.19264 -4.76391,-7e-4 -4.76392,-6.9e-4 -0.0381,-2.47056 -0.0381,-2.47054 -2.19218,-0.0383 -2.19218,-0.0383 v 2.50889 2.50889 h -1.67024 -1.67022 v 1.9486 1.94861 h 1.66373 1.66376 l 0.0412,5.04549 c 0.0402,4.91494 0.0497,5.06634 0.36612,5.85032 0.79224,1.96275 2.3821,3.20574 4.57019,3.57311 0.36985,0.0622 1.59626,0.12032 2.72542,0.12923 l 2.053,0.0165 z M 13.975162,147.5595 c 0,-0.2132 0.20762,-0.27054 1.454094,-0.40158 1.672302,-0.17581 2.615732,-0.55087 2.934067,-1.16646 0.176304,-0.34094 0.204984,-2.24749 0.204984,-13.626 v -13.2296 h -0.690711 c -2.504917,0 -4.683104,2.19421 -7.757862,7.81489 -0.7561788,1.38231 -0.928515,1.61021 -1.1698811,1.5471 -0.2790008,-0.073 -0.2818613,-0.13312 -0.1992372,-4.19606 0.046108,-2.26712 0.1180733,-4.51349 0.1599154,-4.99195 l 0.076087,-0.86992 H 21.979434 34.972251 l 0.07384,0.73073 c 0.04062,0.4019 0.104954,2.65015 0.142966,4.9961 l 0.06911,4.26539 -0.306932,0.0806 c -0.168816,0.0443 -0.322978,0.0341 -0.342586,-0.0227 -0.01961,-0.0568 -0.478258,-0.91649 -1.019221,-1.91026 -2.767936,-5.08482 -4.864617,-7.21419 -7.295552,-7.40933 l -0.905458,-0.0726 v 13.24864 c 0,14.79977 -0.0695,13.80934 1.005497,14.32975 0.61391,0.29719 2.095324,0.56773 3.135291,0.57258 0.497832,0.003 0.591543,0.0468 0.591543,0.28112 0,0.27518 -0.09278,0.27837 -8.072801,0.27837 -7.659129,0 -8.072799,-0.0125 -8.072799,-0.2487 z m 23.940028,5.5e-4 c 0,-0.20927 0.203273,-0.27228 1.298256,-0.40246 1.464448,-0.17413 2.321355,-0.53555 2.571528,-1.08461 0.125439,-0.27528 0.166615,-3.47856 0.166615,-12.96237 0,-13.91111 0.04869,-13.16504 -0.888304,-13.60967 -0.588704,-0.27936 -1.721909,-0.50427 -2.540756,-0.50427 -0.514549,0 -0.607339,-0.0424 -0.607339,-0.27836 0,-0.27488 0.09278,-0.27839 7.376867,-0.27839 7.284077,0 7.376868,0.003 7.376868,0.27839 0,0.2351 -0.09279,0.27836 -0.597095,0.27836 -0.748145,0 -2.078309,0.34017 -2.557232,0.65398 -0.72005,0.47179 -0.742886,0.6826 -0.742886,6.85761 v 5.71111 h 5.358669 5.358668 l -5.57e-4,-5.81104 c -5.56e-4,-5.51794 -0.01422,-5.83349 -0.272216,-6.25661 -0.149434,-0.24509 -0.446711,-0.53497 -0.660616,-0.64421 -0.479539,-0.2449 -1.699963,-0.51084 -2.344337,-0.51084 -0.38751,0 -0.480301,-0.0538 -0.480301,-0.27836 0,-0.27484 0.09278,-0.27839 7.307275,-0.27839 7.02582,0 7.307276,0.01 7.307276,0.25838 0,0.22292 -0.156409,0.2714 -1.140708,0.35347 -1.231141,0.10262 -2.105701,0.4163 -2.547727,0.91362 -0.274107,0.30838 -0.278372,0.51037 -0.278372,13.18472 v 12.87152 l 0.446905,0.39931 c 0.519312,0.464 1.110019,0.64676 2.510802,0.77681 0.856645,0.0795 1.0091,0.13271 1.0091,0.35209 0,0.24843 -0.281207,0.25838 -7.307276,0.25838 -6.977909,0 -7.307275,-0.0111 -7.307275,-0.25374 0,-0.21152 0.180179,-0.27751 1.083447,-0.39677 1.316035,-0.17375 2.064646,-0.50837 2.41212,-1.07818 0.245692,-0.40291 0.261451,-0.81182 0.26194,-6.79647 l 5.2e-4,-6.36777 h -5.358668 -5.358669 l 2.78e-4,6.29818 c 1.4e-4,5.72098 0.02252,6.34194 0.243576,6.77577 0.325802,0.6394 1.012545,0.9638 2.457415,1.16082 0.992409,0.13536 1.196006,0.20523 1.196006,0.41062 0,0.23414 -0.399158,0.24754 -7.376867,0.24754 -6.984299,0 -7.376869,-0.014 -7.376869,-0.24812 z m 33.822244,0 c 0,-0.20938 0.203955,-0.27236 1.30626,-0.40342 0.718444,-0.0854 1.537373,-0.26498 1.819845,-0.39902 1.048517,-0.49755 0.974976,0.43761 1.022375,-13.00103 0.02337,-6.62519 0.0016,-12.38641 -0.04808,-12.8027 -0.150859,-1.26079 -0.95012,-1.75916 -3.079478,-1.92021 -0.873919,-0.066 -1.020919,-0.11432 -1.020919,-0.33546 0,-0.24965 0.415246,-0.25829 12.436741,-0.25829 h 12.436739 l 0.08997,1.0649 c 0.04951,0.5857 0.08997,2.93446 0.08997,5.21949 0,4.02305 -0.0087,4.15459 -0.270793,4.15459 -0.21294,0 -0.536657,-0.54279 -1.514942,-2.54015 -1.510853,-3.0847 -2.334128,-4.36009 -3.540228,-5.48436 -1.518508,-1.41549 -2.644337,-1.71853 -6.384673,-1.71853 h -2.486348 v 6.5589 6.55892 l 1.635438,-0.0605 c 1.417869,-0.0524 1.750656,-0.11265 2.501506,-0.45199 1.475671,-0.66692 2.576604,-2.045 3.315089,-4.14966 0.223344,-0.63656 0.456666,-1.0787 0.569221,-1.0787 0.158598,0 0.190726,1.02173 0.190726,6.0648 0,5.40436 -0.02345,6.05992 -0.215721,6.01981 -0.12417,-0.0259 -0.351134,-0.43339 -0.534771,-0.96008 -1.163553,-3.33742 -2.99264,-4.72196 -6.238054,-4.72196 h -1.223434 v 7.11555 7.11557 l 2.957708,-0.0708 c 4.230326,-0.1012 5.357045,-0.46326 7.216403,-2.31838 1.26258,-1.25969 2.293778,-2.94937 3.608703,-5.91306 0.769576,-1.73453 0.946474,-2.0315 1.210157,-2.03158 l 0.308831,-7e-5 -0.07263,5.0455 c -0.03991,2.77502 -0.103384,5.24905 -0.14116,5.49785 l -0.0686,0.45235 h -12.93783 c -12.319448,0 -12.938011,-0.0111 -12.938011,-0.24812 z m 38.415386,-0.0302 c 0,-0.23984 0.0927,-0.27837 0.67037,-0.27837 1.65754,0 3.02238,-0.48442 3.34214,-1.18621 0.12087,-0.26517 0.16309,-3.62264 0.16309,-12.95465 0,-14.13109 0.0677,-13.2213 -1.01898,-13.69707 -0.31992,-0.14007 -0.86352,-0.28882 -1.20801,-0.33055 -1.84781,-0.22386 -1.94861,-0.24676 -1.94861,-0.44282 0,-0.17175 1.07923,-0.20025 7.58565,-0.20025 6.36578,0 7.58566,0.0309 7.58566,0.19255 0,0.21016 -0.41265,0.35931 -1.00226,0.36229 -0.9627,0.004 -1.85299,0.31981 -2.37301,0.83945 l -0.52194,0.52157 v 5.9318 5.93179 h 5.49785 5.49786 v -5.92935 -5.92933 l -0.45969,-0.45969 c -0.47712,-0.4771 -1.59683,-0.90273 -2.3841,-0.90624 -0.63747,-0.003 -1.05343,-0.14589 -1.05343,-0.36229 0,-0.16157 1.21988,-0.19255 7.58565,-0.19255 6.50643,0 7.58565,0.0286 7.58565,0.20025 0,0.13299 -0.21043,0.22651 -0.62635,0.27838 -0.34448,0.0431 -0.92384,0.11461 -1.28747,0.15921 -0.36361,0.0446 -0.92289,0.19571 -1.24279,0.33578 -1.08673,0.4758 -1.01898,-0.43558 -1.01898,13.71053 0,13.79305 -0.0353,13.19312 0.80266,13.62097 0.54162,0.27649 1.72854,0.50643 2.61426,0.50643 0.66587,0 0.75867,0.0341 0.75867,0.27837 0,0.27497 -0.0927,0.27838 -7.58565,0.27838 -7.29619,0 -7.58565,-0.01 -7.58565,-0.25828 0,-0.2208 0.14647,-0.26941 1.0091,-0.33487 1.23022,-0.0934 2.07917,-0.41545 2.54067,-0.96391 l 0.34745,-0.41291 v -6.46149 -6.46147 h -5.49786 -5.49785 v 6.46147 6.46149 l 0.34744,0.41291 c 0.46149,0.54846 1.31045,0.87054 2.54066,0.96391 0.86264,0.0654 1.00911,0.11405 1.00911,0.33487 0,0.24842 -0.28946,0.25828 -7.58566,0.25828 -7.49284,0 -7.58565,-0.003 -7.58565,-0.27838 z m 35.3533,0 c 0,-0.24376 0.0927,-0.27837 0.74653,-0.27837 0.9462,0 2.05823,-0.20924 2.67995,-0.50426 0.93699,-0.44464 0.8883,0.30143 0.8883,-13.60967 0,-9.33201 -0.0422,-12.68948 -0.16308,-12.95465 -0.3148,-0.69091 -1.09446,-0.97291 -3.49056,-1.26254 -0.44534,-0.0539 -0.66114,-0.14528 -0.66114,-0.28018 0,-0.17184 1.11543,-0.20025 7.86402,-0.20025 6.74859,0 7.86403,0.0284 7.86403,0.20025 0,0.13493 -0.2158,0.22634 -0.66114,0.28018 -2.3961,0.28963 -3.17575,0.57163 -3.49055,1.26254 -0.12087,0.26524 -0.16309,3.65129 -0.16309,13.07621 v 12.71828 l 0.40138,0.4014 c 0.5054,0.50538 1.30227,0.74733 2.76511,0.83954 1.00052,0.063 1.14829,0.10568 1.14829,0.33114 0,0.24916 -0.29155,0.25876 -7.86403,0.25876 -7.77123,0 -7.86402,-0.003 -7.86402,-0.27838 z m 16.56316,0.02 c 0,-0.22329 0.14711,-0.26856 1.08071,-0.33255 1.48165,-0.10153 2.19278,-0.33983 2.684,-0.89929 l 0.41088,-0.46796 v -12.60528 c 0,-13.62764 0.0221,-13.21045 -0.72753,-13.67867 -0.43457,-0.27138 -1.60352,-0.56532 -2.26497,-0.56954 -0.76195,-0.005 -1.18309,-0.13438 -1.18309,-0.36395 0,-0.16163 1.24058,-0.19255 7.72484,-0.19255 6.46161,0 7.72483,0.0313 7.72483,0.19137 0,0.20547 -0.58332,0.36538 -1.33282,0.36538 -0.98071,0 -1.92123,0.30329 -2.38802,0.77007 l -0.45474,0.45476 v 13.44539 13.44538 l 1.84422,-0.005 c 5.63047,-0.0147 7.85244,-1.68423 11.13789,-8.3681 0.99726,-2.02881 1.18819,-2.33086 1.47723,-2.33715 l 0.33197,-0.007 -0.0862,1.84421 c -0.0475,1.01432 -0.12032,3.19085 -0.16193,4.83673 -0.0417,1.64588 -0.1103,3.38396 -0.15245,3.86242 l -0.0768,0.86991 h -12.79405 c -12.37312,-10e-6 -12.79406,-0.009 -12.79406,-0.25849 z m 27.00212,8.4e-4 c 0,-0.223 0.15457,-0.26931 1.14829,-0.34397 1.49482,-0.11238 2.15065,-0.30969 2.63358,-0.7926 l 0.39372,-0.39373 v -12.86665 c 0,-12.61539 -0.005,-12.87353 -0.27578,-13.21725 -0.32378,-0.41166 -1.08582,-0.74346 -1.9564,-0.85186 -0.34163,-0.0424 -0.91865,-0.11488 -1.28227,-0.16068 -0.44375,-0.0559 -0.66114,-0.14918 -0.66114,-0.28359 0,-0.17181 1.09733,-0.20026 7.72484,-0.20026 6.62752,0 7.72484,0.0284 7.72484,0.20026 0,0.13298 -0.21044,0.2265 -0.62635,0.27836 -0.34448,0.0431 -0.92385,0.11461 -1.28747,0.15922 -0.36362,0.0446 -0.92288,0.1957 -1.24279,0.33577 -1.08926,0.47693 -1.01899,-0.51743 -1.01899,14.41562 v 13.31526 l 2.33138,-0.0684 c 1.53777,-0.0452 2.61564,-0.14632 3.16648,-0.29744 3.06204,-0.84006 4.94988,-2.84538 7.52297,-7.9912 0.97472,-1.94931 1.25006,-2.39248 1.48645,-2.39248 0.28756,0 0.2893,0.0251 0.19869,2.85332 -0.0503,1.56932 -0.13257,4.13729 -0.18281,5.70663 l -0.0915,2.85332 h -12.85288 c -12.41644,-6e-5 -12.85292,-0.009 -12.85292,-0.25775 z"
     id="path939" /></g>
<g
   inkscape:groupmode="layer"
   id="layer1"
   inkscape:label="Logo" /></svg>
