<?xml version="1.0" encoding="UTF-8" standalone="no"?>
<!-- Generator: Adobe Illustrator 16.0.0, SVG Export Plug-In . SVG Version: 6.00 Build 0)  -->

<svg
   version="1.1"
   id="Layer_1"
   x="0px"
   y="0px"
   width="280px"
   height="280px"
   viewBox="0 0 280 280"
   enable-background="new 0 0 280 280"
   xml:space="preserve"
   sodipodi:docname="tvculture.svg"
   inkscape:version="1.4 (e7c3feb100, 2024-10-09)"
   xmlns:inkscape="http://www.inkscape.org/namespaces/inkscape"
   xmlns:sodipodi="http://sodipodi.sourceforge.net/DTD/sodipodi-0.dtd"
   xmlns="http://www.w3.org/2000/svg"
   xmlns:svg="http://www.w3.org/2000/svg"><defs
   id="defs5011" /><sodipodi:namedview
   id="namedview5009"
   pagecolor="#ffffff"
   bordercolor="#000000"
   borderopacity="0.25"
   inkscape:showpageshadow="2"
   inkscape:pageopacity="0.0"
   inkscape:pagecheckerboard="0"
   inkscape:deskcolor="#d1d1d1"
   showgrid="false"
   inkscape:zoom="0.73839285"
   inkscape:cx="106.31197"
   inkscape:cy="-6.7714632"
   inkscape:window-width="1600"
   inkscape:window-height="815"
   inkscape:window-x="0"
   inkscape:window-y="0"
   inkscape:window-maximized="1"
   inkscape:current-layer="Layer_1"
   inkscape:pageshadow="2"
   showguides="false" />
<rect
   y="0"
   fill-rule="evenodd"
   clip-rule="evenodd"
   fill="#164E86"
   width="280"
   height="280"
   id="rect4994-7"
   style="fill:#96d632;fill-opacity:1;stroke:none;stroke-width:0.999999;stroke-opacity:1"
   x="0" />

<path
   style="fill:#ffffff;stroke-width:0.186478"
   d="m 53.23422,246.1597 c -5.475219,-0.54242 -9.30835,-2.44041 -12.308619,-6.09469 -4.069678,-4.95679 -5.072219,-12.31686 -2.495004,-18.31684 1.608807,-3.74544 4.983529,-7.13179 8.762515,-8.7927 1.769075,-0.77754 4.421811,-1.35479 6.782684,-1.47597 5.096234,-0.26157 9.772742,1.36559 13.480099,4.69031 l 1.002365,0.89892 -2.392613,2.74481 -2.392614,2.74481 -0.859841,-0.82601 c -2.176305,-2.0907 -5.129667,-3.45128 -7.797645,-3.59228 -3.703491,-0.19573 -6.739839,1.22348 -8.628182,4.03282 -2.654236,3.9488 -2.678654,9.02272 -0.06201,12.89204 2.007071,2.96795 4.620088,4.3439 8.258649,4.3488 2.834608,0.004 5.709551,-1.23023 8.321422,-3.57192 l 0.952045,-0.85357 2.309357,2.28954 2.309358,2.28956 -1.009257,1.05545 c -2.580737,2.69886 -6.320333,4.70094 -9.826245,5.26075 -1.422882,0.22719 -3.55314,0.36071 -4.406434,0.27617 z m 31.413455,-0.0887 c -1.808095,-0.21622 -4.535114,-1.09253 -5.816357,-1.86905 -3.003142,-1.82006 -4.768047,-4.27211 -5.765659,-8.01046 -0.385314,-1.44383 -0.404331,-1.96414 -0.470356,-12.86375 l -0.06876,-11.35905 h 3.573176 3.573176 l 0.0067,10.06087 c 0.0067,10.92844 0.08774,12.03385 1.009021,13.83199 1.498546,2.92483 5.071259,4.34677 8.762507,3.48746 2.178706,-0.5072 3.919023,-2.01807 4.688607,-4.07046 0.428463,-1.1427 0.43078,-1.20043 0.490503,-12.22899 l 0.05999,-11.08087 h 3.563705 3.563702 l -0.0627,11.35905 c -0.0611,11.07637 -0.0731,11.39597 -0.48,12.84269 -0.75496,2.68405 -1.734503,4.41459 -3.466134,6.12363 -1.227023,1.21101 -1.866317,1.67628 -3.135133,2.28169 -2.792352,1.33236 -6.617487,1.90283 -10.025828,1.49525 z m 87.372915,0.0188 c -3.55138,-0.37197 -6.20873,-1.55992 -8.4587,-3.78141 -1.21646,-1.20106 -1.67379,-1.8172 -2.28464,-3.07802 -1.58956,-3.28092 -1.72248,-4.60678 -1.72441,-17.20085 l -0.002,-10.06087 h 3.6564 3.65641 l 0.003,10.52451 c 0.003,11.39444 0.0521,12.04603 1.03187,13.69961 0.65594,1.10703 2.19022,2.39554 3.42774,2.87871 1.45218,0.56697 4.5449,0.61085 5.94432,0.0843 2.69507,-1.01399 4.0012,-2.90251 4.40235,-6.36532 0.10368,-0.89505 0.18921,-5.94614 0.19006,-11.22462 l 0.002,-9.59724 h 3.57695 3.57696 l -0.0823,10.98815 c -0.0874,11.66049 -0.11194,12.00309 -1.05042,14.65555 -1.71589,4.8497 -5.79494,7.84258 -11.55262,8.47645 -1.85541,0.20425 -2.37078,0.20438 -4.31269,0.002 z M 108.5491,228.84502 v -16.87631 h 3.65642 3.6564 v 13.53814 13.53813 h 8.62537 8.62537 v 3.33817 3.33817 H 120.83088 108.5491 Z m 29.06376,3.33817 v -13.53814 h -5.15648 -5.15647 v -3.33817 -3.33817 h 13.96936 13.96935 v 3.33817 3.33817 h -5.25023 -5.25023 v 13.53814 13.53813 h -3.56265 -3.56265 z m 57.00247,-3.25793 v -16.79604 l 9.23478,0.0691 c 8.79338,0.0657 9.30504,0.0883 10.70518,0.47289 2.35661,0.64721 3.81113,1.44142 5.19899,2.83875 1.41179,1.4214 2.46852,3.25513 2.88648,5.00882 0.82961,3.48092 -0.27326,7.59629 -2.65773,9.91724 -0.85089,0.82824 -2.72771,1.92664 -4.05812,2.37504 -0.19118,0.0645 -0.30704,0.22168 -0.25746,0.34943 0.0788,0.20298 6.38181,9.09765 8.14544,11.49454 l 0.64816,0.88092 h -4.31426 -4.31428 l -3.92087,-5.51726 -3.92087,-5.51725 -3.03132,-0.051 -3.03131,-0.0509 v 5.66092 5.66095 h -3.6564 -3.65641 z m 17.70187,-1.2777 c 1.20982,-0.44815 2.6353,-1.81743 2.90423,-2.7898 0.55153,-1.99387 -0.0572,-4.05909 -1.50139,-5.09379 -1.44706,-1.03675 -2.37091,-1.18685 -7.38545,-1.19993 l -4.5002,-0.0117 -0.05,4.78933 -0.05,4.78931 4.83153,-0.0713 c 4.11113,-0.0607 4.9687,-0.12214 5.75143,-0.41208 z m 13.65374,17.7533 c 0.0482,-0.18075 3.41085,-7.82058 7.47252,-16.9774 l 7.38485,-16.64879 3.07921,0.0506 3.0792,0.0506 7.36946,16.69086 c 4.0532,9.17996 7.3734,16.79517 7.37826,16.92266 0.007,0.17798 -0.85696,0.23182 -3.71843,0.23182 h -3.72719 l -1.66366,-3.8923 -1.66365,-3.89229 -7.23224,-0.002 -7.23227,-0.002 -1.6855,3.84818 -1.68554,3.84816 -3.62133,0.0505 c -3.38785,0.0472 -3.61569,0.0292 -3.53369,-0.27819 z m 22.2724,-14.09858 c 0.002,-0.28239 -4.37576,-10.06099 -4.46434,-9.97337 -0.13585,0.13436 -4.34923,9.78462 -4.34923,9.96139 0,0.083 1.98289,0.15107 4.40644,0.15107 2.42353,0 4.40673,-0.0626 4.40713,-0.13909 z M 119.79959,169.87071 v -27.81809 h -14.68841 c -8.078632,0 -21.03075,-0.0554 -28.782492,-0.12323 L 62.234606,141.80617 V 128.29853 114.7909 h 29.303056 c 18.840058,0 29.870398,0.0678 30.891958,0.18996 5.23291,0.62562 9.39497,2.07851 13.32842,4.65263 2.12502,1.39066 5.30501,4.49042 6.63757,6.4701 2.61236,3.88097 4.20205,8.35601 4.77627,13.44541 0.1178,1.04408 0.1889,12.24199 0.18986,29.90444 l 0.002,28.23536 H 133.5819 119.80005 Z m 32.25139,-0.19276 c 0,-18.43501 0.0678,-28.6265 0.19834,-29.81171 0.77035,-6.99458 3.15149,-12.45231 7.34397,-16.83286 3.69008,-3.8556 8.61613,-6.44282 14.7018,-7.72151 l 2.03819,-0.42824 30.51695,-0.0502 30.51695,-0.0502 v 13.51141 13.51141 l -14.20374,0.12311 c -7.81206,0.0677 -20.80637,0.12316 -28.87625,0.12323 l -14.67252,1.3e-4 v 27.81808 27.81809 H 165.83282 152.05098 Z M 122.04969,81.131014 V 53.220196 h 27.56369 27.56369 v 27.910818 27.910816 h -27.56369 -27.56369 z"
   id="path677" /></svg>
