<?xml version="1.0" encoding="UTF-8" standalone="no"?>
<!-- Generator: Adobe Illustrator 16.0.0, SVG Export Plug-In . SVG Version: 6.00 Build 0)  -->

<svg
   version="1.1"
   id="Layer_1"
   x="0px"
   y="0px"
   width="280px"
   height="280px"
   viewBox="0 0 280 280"
   enable-background="new 0 0 280 280"
   xml:space="preserve"
   sodipodi:docname="cnn.svg"
   inkscape:version="1.1.2 (0a00cf5339, 2022-02-04)"
   xmlns:inkscape="http://www.inkscape.org/namespaces/inkscape"
   xmlns:sodipodi="http://sodipodi.sourceforge.net/DTD/sodipodi-0.dtd"
   xmlns:xlink="http://www.w3.org/1999/xlink"
   xmlns="http://www.w3.org/2000/svg"
   xmlns:svg="http://www.w3.org/2000/svg"><defs
   id="defs216276"><linearGradient
   inkscape:collect="always"
   xlink:href="#linearGradient186860"
   id="linearGradient186862"
   x1="160.37895"
   y1="236.45016"
   x2="159.68578"
   y2="282.7041"
   gradientUnits="userSpaceOnUse"
   gradientTransform="matrix(1,0,0,1.727176,4.4911316e-6,-203.06978)" /><linearGradient
   inkscape:collect="always"
   id="linearGradient186860"><stop
     style="stop-color:#e62434;stop-opacity:1"
     offset="0"
     id="stop186856" /><stop
     style="stop-color:#8c1119;stop-opacity:1"
     offset="1"
     id="stop186858" /></linearGradient>
	
	
	
</defs><sodipodi:namedview
   id="namedview216274"
   pagecolor="#ffffff"
   bordercolor="#666666"
   borderopacity="1.0"
   inkscape:pageshadow="2"
   inkscape:pageopacity="0.0"
   inkscape:pagecheckerboard="0"
   showgrid="false"
   inkscape:zoom="0.74285714"
   inkscape:cx="-190.48077"
   inkscape:cy="136.63462"
   inkscape:window-width="1920"
   inkscape:window-height="1011"
   inkscape:window-x="0"
   inkscape:window-y="0"
   inkscape:window-maximized="1"
   inkscape:current-layer="Layer_1" />
<g
   inkscape:groupmode="layer"
   id="layer2"
   inkscape:label="BG"><rect
     y="0"
     fill-rule="evenodd"
     clip-rule="evenodd"
     fill="#164E86"
     width="280"
     height="173.7274"
     id="rect4994-7"
     style="fill:#e72a34;fill-opacity:1;stroke:none;stroke-width:0.787689;stroke-opacity:1"
     x="0" /><rect
     y="171.7274"
     fill-rule="evenodd"
     clip-rule="evenodd"
     fill="#164E86"
     width="280"
     height="108.81209"
     id="rect4994-7-5"
     style="fill:url(#linearGradient186862);fill-opacity:1;stroke:none;stroke-width:0.62339;stroke-opacity:1"
     x="0" /></g><path
   fill-rule="evenodd"
   clip-rule="evenodd"
   fill="#fffdfd"
   d="m 129.955,143.55894 c 0,9.946 0.02,19.549 -0.011,29.152 -0.01,3.084 -0.513,6.103 -1.742,8.955 -2.515,5.835 -7.098,9.008 -13.22,10.153 -1.914,0.358 -3.85,0.459 -5.798,0.457 -9.994,-0.014 -19.988,-0.024 -29.982,-0.002 -12.313,0.027 -23.354,-3.667 -32.854,-11.52 -9.32,-7.703 -15.229,-17.545 -17.428,-29.484 -2.644,-14.355 0.34,-27.535 8.983,-39.257 7.879,-10.683 18.509,-17.182998 31.603,-19.609998 3.574,-0.663 7.172,-0.8 10.787,-0.809 4.395,-0.011 8.789,0.017 13.183,-0.02 0.795,-0.006 1.058,0.179 1.045,1.018 -0.05,3.343 -0.048,6.688 0,10.031998 0.011,0.801 -0.17,1.041 -1.008,1.033 -4.861,-0.043 -9.724,-0.104 -14.583,-0.006 -15.561,0.312 -27.317,7.17 -34.642,20.941 -8.061,15.155 -4.436,34.172 8.39,45.672 7.283,6.529 15.842,9.847 25.626,9.888 10.383,0.043 20.766,0.016 31.149,0.01 4.82,-0.002 8.38,-3.56 8.38,-8.355 0.001,-20.3 0,-40.599 0.001,-60.898 0,-2.167 1.218,-3.376 3.08,-3.106 0.996,0.145 1.543,0.803 2.006,1.6 4.192,7.235 8.39,14.466 12.583,21.7 8.831,15.238 17.663,30.476 26.488,45.718 1.71,2.954 4.271,4.419 7.64,3.993 3.106,-0.394 5.196,-2.25 6.148,-5.283 0.306,-0.972 0.353,-1.979 0.353,-2.993 -0.004,-20.299 -0.003,-40.598 -0.003,-60.897 0,-0.389 -0.007,-0.778 0.004,-1.167 0.041,-1.398 0.718,-2.36 1.846,-2.635 1.28,-0.312 2.328,0.117 3.052,1.352 2.171,3.707 4.316,7.43 6.47,11.147 10.864,18.757 21.768,37.491 32.565,56.286 2.973,5.175 9.106,5.414 12.309,1.835 1.355,-1.515 1.932,-3.284 1.927,-5.318 -0.023,-11.821 -0.011,-23.643 -0.011,-35.465 0,-14.933 0.009,-29.865 -0.022,-44.797998 -0.002,-0.981 0.17,-1.34 1.251,-1.314 3.304,0.08 6.61,0.048 9.916,0.014 0.734,-0.007 0.985,0.158 0.984,0.958 -0.024,27.259998 0.023,54.519998 -0.049,81.779998 -0.028,10.347 -9.164,18.789 -19.504,18.253 -6.822,-0.353 -12.083,-3.443 -15.54,-9.333 -7.467,-12.717 -14.844,-25.487 -22.259,-38.235 -0.204,-0.352 -0.423,-0.695 -0.905,-1.015 0,0.435 0,0.869 0,1.304 0,9.333 -0.019,18.666 0.006,27.999 0.014,5.378 -1.743,10.022 -5.56,13.843 -8.563,8.569 -23.027,6.882 -29.271,-3.51 -4.525,-7.53 -8.867,-15.17 -13.283,-22.767 -3.151,-5.42 -6.287,-10.849 -9.432,-16.271 -0.149,-0.258 -0.323,-0.498 -0.668,-1.025 z"
   id="path216267" /><path
   fill-rule="evenodd"
   clip-rule="evenodd"
   fill="#fffdfd"
   d="m 159.152,139.90494 c 0,-0.415 0,-0.831 0,-1.246 0.001,-9.566 -0.026,-19.132 0.01,-28.699 0.031,-8.18 5.244,-15.302998 12.987,-17.866998 8.117,-2.688 17.324,0.503 21.704,7.852 6.7,11.237998 13.195,22.597998 19.776,33.905998 1.183,2.033 2.364,4.068 3.804,6.066 0,-0.396 0,-0.792 0,-1.188 0,-15.283 0.013,-30.565 -0.028,-45.847998 -0.003,-1.11 0.331,-1.334 1.36,-1.314 3.226,0.063 6.455,0.05 9.682,0.005 0.823,-0.012 1.04,0.234 1.039,1.046 -0.021,26.754998 -0.015,53.508998 -0.021,80.262998 0,2.229 -1.187,3.391 -3.068,3.1 -0.984,-0.152 -1.524,-0.813 -1.988,-1.616 -4.789,-8.274 -9.589,-16.543 -14.383,-24.813 -8.248,-14.232 -16.491,-28.468 -24.745,-42.696 -1.694,-2.921 -4.792,-4.44 -7.822,-3.889 -3.143,0.572 -5.445,2.851 -6.089,6.097 -0.127,0.639 -0.102,1.314 -0.102,1.973 -0.005,20.61 -0.003,41.22 -0.005,61.831 0,1.966 -0.99,3.158 -2.61,3.163 -1.188,0.004 -1.912,-0.661 -2.476,-1.638 -3.888,-6.737 -7.79,-13.468 -11.691,-20.198 -9.123,-15.737 -18.254,-31.472 -27.371,-47.214 -1.711,-2.955 -4.249,-4.328 -7.635,-4.036 -2.799,0.24 -5.287,2.425 -6.158,5.292 -0.297,0.975 -0.354,1.979 -0.353,2.992 0.003,20.027 0.001,40.054 0.006,60.081 0,0.94 -0.008,1.855 -0.637,2.65 -0.665,0.841 -1.48,1.343 -2.574,1.341 -11.316,-0.019 -22.64,0.228 -33.945,-0.139 -8.247,-0.268 -15.323,-3.853 -21.165,-9.698 -5.538,-5.542 -8.741,-12.268 -9.576,-20.039 -1.741,-16.197 8.578,-31.285 24.332,-35.699 2.81,-0.787 5.686,-1.203 8.614,-1.2 5.133,0.005 10.267,0.021 15.399,-0.018 0.835,-0.006 1.119,0.146 1.101,1.059 -0.064,3.304 -0.055,6.611 -0.005,9.916 0.013,0.882 -0.176,1.178 -1.128,1.168 -5.094,-0.049 -10.189,-0.072 -15.282,-0.004 -10.556,0.14 -19.228,7.784 -20.752,18.22 -1.719,11.771 6.559,22.741 18.327,24.217 1.651,0.207 3.338,0.166 5.008,0.173 5.328,0.02 10.655,0.008 15.983,0.007 3.116,-0.001 4.311,-1.182 4.311,-4.28 0.002,-16.177 0.026,-32.354 -0.013,-48.531 -0.013,-5.488 1.835,-10.153 5.739,-13.999998 8.316,-8.194 22.658,-6.66 28.776,3.281 4.93,8.007998 9.518,16.226998 14.25,24.356998 3.074,5.282 6.135,10.572 9.201,15.858 0.072,-0.017 0.143,-0.03 0.213,-0.044 z"
   id="path216269" />
<g
   inkscape:groupmode="layer"
   id="layer1"
   inkscape:label="Logo" /></svg>
