<?xml version="1.0" encoding="UTF-8" standalone="no"?>
<!-- Generator: Adobe Illustrator 16.0.0, SVG Export Plug-In . SVG Version: 6.00 Build 0)  -->

<svg
   version="1.1"
   id="Layer_1"
   x="0px"
   y="0px"
   width="280px"
   height="280px"
   viewBox="0 0 280 280"
   enable-background="new 0 0 280 280"
   xml:space="preserve"
   sodipodi:docname="cnnbr.svg"
   inkscape:version="1.1.2 (0a00cf5339, 2022-02-04)"
   xmlns:inkscape="http://www.inkscape.org/namespaces/inkscape"
   xmlns:sodipodi="http://sodipodi.sourceforge.net/DTD/sodipodi-0.dtd"
   xmlns:xlink="http://www.w3.org/1999/xlink"
   xmlns="http://www.w3.org/2000/svg"
   xmlns:svg="http://www.w3.org/2000/svg"><defs
   id="defs216276"><linearGradient
   inkscape:collect="always"
   xlink:href="#linearGradient186860"
   id="linearGradient186862"
   x1="160.37895"
   y1="236.45016"
   x2="159.68578"
   y2="282.7041"
   gradientUnits="userSpaceOnUse"
   gradientTransform="matrix(1,0,0,1.727176,4.4911316e-6,-203.06978)" /><linearGradient
   inkscape:collect="always"
   id="linearGradient186860"><stop
     style="stop-color:#e62434;stop-opacity:1"
     offset="0"
     id="stop186856" /><stop
     style="stop-color:#8c1119;stop-opacity:1"
     offset="1"
     id="stop186858" /></linearGradient>
	
	
	
</defs><sodipodi:namedview
   id="namedview216274"
   pagecolor="#ffffff"
   bordercolor="#666666"
   borderopacity="1.0"
   inkscape:pageshadow="2"
   inkscape:pageopacity="0.0"
   inkscape:pagecheckerboard="0"
   showgrid="false"
   inkscape:zoom="0.74285714"
   inkscape:cx="-98.269231"
   inkscape:cy="136.63462"
   inkscape:window-width="1600"
   inkscape:window-height="828"
   inkscape:window-x="0"
   inkscape:window-y="0"
   inkscape:window-maximized="1"
   inkscape:current-layer="Layer_1" />
<g
   inkscape:groupmode="layer"
   id="layer2"
   inkscape:label="BG"><rect
     y="0"
     fill-rule="evenodd"
     clip-rule="evenodd"
     fill="#164E86"
     width="280"
     height="173.7274"
     id="rect4994-7"
     style="fill:#e72a34;fill-opacity:1;stroke:none;stroke-width:0.787689;stroke-opacity:1"
     x="0" /><rect
     y="171.7274"
     fill-rule="evenodd"
     clip-rule="evenodd"
     fill="#164E86"
     width="280"
     height="108.81209"
     id="rect4994-7-5"
     style="fill:url(#linearGradient186862);fill-opacity:1;stroke:none;stroke-width:0.62339;stroke-opacity:1"
     x="0" /></g><path
   fill-rule="evenodd"
   clip-rule="evenodd"
   fill="#fffdfd"
   d="m 129.955,143.55894 c 0,9.946 0.02,19.549 -0.011,29.152 -0.01,3.084 -0.513,6.103 -1.742,8.955 -2.515,5.835 -7.098,9.008 -13.22,10.153 -1.914,0.358 -3.85,0.459 -5.798,0.457 -9.994,-0.014 -19.988,-0.024 -29.982,-0.002 -12.313,0.027 -23.354,-3.667 -32.854,-11.52 -9.32,-7.703 -15.229,-17.545 -17.428,-29.484 -2.644,-14.355 0.34,-27.535 8.983,-39.257 7.879,-10.683 18.509,-17.182998 31.603,-19.609998 3.574,-0.663 7.172,-0.8 10.787,-0.809 4.395,-0.011 8.789,0.017 13.183,-0.02 0.795,-0.006 1.058,0.179 1.045,1.018 -0.05,3.343 -0.048,6.688 0,10.031998 0.011,0.801 -0.17,1.041 -1.008,1.033 -4.861,-0.043 -9.724,-0.104 -14.583,-0.006 -15.561,0.312 -27.317,7.17 -34.642,20.941 -8.061,15.155 -4.436,34.172 8.39,45.672 7.283,6.529 15.842,9.847 25.626,9.888 10.383,0.043 20.766,0.016 31.149,0.01 4.82,-0.002 8.38,-3.56 8.38,-8.355 0.001,-20.3 0,-40.599 0.001,-60.898 0,-2.167 1.218,-3.376 3.08,-3.106 0.996,0.145 1.543,0.803 2.006,1.6 4.192,7.235 8.39,14.466 12.583,21.7 8.831,15.238 17.663,30.476 26.488,45.718 1.71,2.954 4.271,4.419 7.64,3.993 3.106,-0.394 5.196,-2.25 6.148,-5.283 0.306,-0.972 0.353,-1.979 0.353,-2.993 -0.004,-20.299 -0.003,-40.598 -0.003,-60.897 0,-0.389 -0.007,-0.778 0.004,-1.167 0.041,-1.398 0.718,-2.36 1.846,-2.635 1.28,-0.312 2.328,0.117 3.052,1.352 2.171,3.707 4.316,7.43 6.47,11.147 10.864,18.757 21.768,37.491 32.565,56.286 2.973,5.175 9.106,5.414 12.309,1.835 1.355,-1.515 1.932,-3.284 1.927,-5.318 -0.023,-11.821 -0.011,-23.643 -0.011,-35.465 0,-14.933 0.009,-29.865 -0.022,-44.797998 -0.002,-0.981 0.17,-1.34 1.251,-1.314 3.304,0.08 6.61,0.048 9.916,0.014 0.734,-0.007 0.985,0.158 0.984,0.958 -0.024,27.259998 0.023,54.519998 -0.049,81.779998 -0.028,10.347 -9.164,18.789 -19.504,18.253 -6.822,-0.353 -12.083,-3.443 -15.54,-9.333 -7.467,-12.717 -14.844,-25.487 -22.259,-38.235 -0.204,-0.352 -0.423,-0.695 -0.905,-1.015 0,0.435 0,0.869 0,1.304 0,9.333 -0.019,18.666 0.006,27.999 0.014,5.378 -1.743,10.022 -5.56,13.843 -8.563,8.569 -23.027,6.882 -29.271,-3.51 -4.525,-7.53 -8.867,-15.17 -13.283,-22.767 -3.151,-5.42 -6.287,-10.849 -9.432,-16.271 -0.149,-0.258 -0.323,-0.498 -0.668,-1.025 z"
   id="path216267" /><path
   fill-rule="evenodd"
   clip-rule="evenodd"
   fill="#fffdfd"
   d="m 159.152,139.90494 c 0,-0.415 0,-0.831 0,-1.246 0.001,-9.566 -0.026,-19.132 0.01,-28.699 0.031,-8.18 5.244,-15.302998 12.987,-17.866998 8.117,-2.688 17.324,0.503 21.704,7.852 6.7,11.237998 13.195,22.597998 19.776,33.905998 1.183,2.033 2.364,4.068 3.804,6.066 0,-0.396 0,-0.792 0,-1.188 0,-15.283 0.013,-30.565 -0.028,-45.847998 -0.003,-1.11 0.331,-1.334 1.36,-1.314 3.226,0.063 6.455,0.05 9.682,0.005 0.823,-0.012 1.04,0.234 1.039,1.046 -0.021,26.754998 -0.015,53.508998 -0.021,80.262998 0,2.229 -1.187,3.391 -3.068,3.1 -0.984,-0.152 -1.524,-0.813 -1.988,-1.616 -4.789,-8.274 -9.589,-16.543 -14.383,-24.813 -8.248,-14.232 -16.491,-28.468 -24.745,-42.696 -1.694,-2.921 -4.792,-4.44 -7.822,-3.889 -3.143,0.572 -5.445,2.851 -6.089,6.097 -0.127,0.639 -0.102,1.314 -0.102,1.973 -0.005,20.61 -0.003,41.22 -0.005,61.831 0,1.966 -0.99,3.158 -2.61,3.163 -1.188,0.004 -1.912,-0.661 -2.476,-1.638 -3.888,-6.737 -7.79,-13.468 -11.691,-20.198 -9.123,-15.737 -18.254,-31.472 -27.371,-47.214 -1.711,-2.955 -4.249,-4.328 -7.635,-4.036 -2.799,0.24 -5.287,2.425 -6.158,5.292 -0.297,0.975 -0.354,1.979 -0.353,2.992 0.003,20.027 0.001,40.054 0.006,60.081 0,0.94 -0.008,1.855 -0.637,2.65 -0.665,0.841 -1.48,1.343 -2.574,1.341 -11.316,-0.019 -22.64,0.228 -33.945,-0.139 -8.247,-0.268 -15.323,-3.853 -21.165,-9.698 -5.538,-5.542 -8.741,-12.268 -9.576,-20.039 -1.741,-16.197 8.578,-31.285 24.332,-35.699 2.81,-0.787 5.686,-1.203 8.614,-1.2 5.133,0.005 10.267,0.021 15.399,-0.018 0.835,-0.006 1.119,0.146 1.101,1.059 -0.064,3.304 -0.055,6.611 -0.005,9.916 0.013,0.882 -0.176,1.178 -1.128,1.168 -5.094,-0.049 -10.189,-0.072 -15.282,-0.004 -10.556,0.14 -19.228,7.784 -20.752,18.22 -1.719,11.771 6.559,22.741 18.327,24.217 1.651,0.207 3.338,0.166 5.008,0.173 5.328,0.02 10.655,0.008 15.983,0.007 3.116,-0.001 4.311,-1.182 4.311,-4.28 0.002,-16.177 0.026,-32.354 -0.013,-48.531 -0.013,-5.488 1.835,-10.153 5.739,-13.999998 8.316,-8.194 22.658,-6.66 28.776,3.281 4.93,8.007998 9.518,16.226998 14.25,24.356998 3.074,5.282 6.135,10.572 9.201,15.858 0.072,-0.017 0.143,-0.03 0.213,-0.044 z"
   id="path216269" />
<g
   inkscape:groupmode="layer"
   id="layer1"
   inkscape:label="Logo" /><path
   style="fill:#ffffff;stroke-width:0.151536"
   d="m 179.23058,250.05935 c -4.18566,-0.37011 -7.61912,-1.41326 -10.11664,-3.07361 -1.30722,-0.86904 -3.09481,-2.74376 -3.8654,-4.05381 -0.65833,-1.11919 -1.42385,-3.02142 -1.55811,-3.87174 l -0.0923,-0.58454 4.06571,-0.65118 c 2.23615,-0.35815 4.1686,-0.64796 4.29436,-0.64403 0.1417,0.004 0.36351,0.38315 0.58323,0.9958 0.65486,1.82595 2.0087,3.33085 3.74922,4.16754 3.25068,1.56266 9.7723,1.60023 12.99662,0.0749 1.8467,-0.87363 2.81541,-2.26925 2.94177,-4.23824 0.0951,-1.48166 -0.2253,-2.43084 -1.15438,-3.41994 -1.3911,-1.48096 -3.10824,-2.20703 -7.67687,-3.24611 -1.33351,-0.30328 -3.27695,-0.74994 -4.31876,-0.99256 -8.30473,-1.93406 -11.41516,-3.94975 -12.98066,-8.41201 -0.40368,-1.1506 -0.42532,-1.3472 -0.42532,-3.86416 0,-2.51005 0.0225,-2.71581 0.42031,-3.84751 0.23119,-0.6576 0.5954,-1.49437 0.80937,-1.85949 1.77476,-3.02838 5.25526,-5.01971 10.35607,-5.9251 2.06197,-0.366 8.97904,-0.35648 11.13967,0.0153 6.32582,1.08857 9.4406,3.56029 11.06569,8.78112 0.22797,0.73237 0.37645,1.36959 0.33,1.41606 -0.0779,0.0779 -6.7159,1.01948 -8.03413,1.1396 -0.57696,0.0526 -0.57907,0.0507 -0.87288,-0.78075 -0.78461,-2.22029 -2.53689,-3.71403 -5.10132,-4.34867 -1.43415,-0.35492 -5.45788,-0.34821 -6.9341,0.0115 -2.92931,0.71388 -4.35547,2.07597 -4.56911,4.36381 -0.11489,1.23036 0.2057,2.40092 0.88071,3.21576 1.14255,1.3792 2.95278,2.15062 7.49122,3.19235 1.28391,0.2947 3.40837,0.78134 4.72105,1.08143 7.19273,1.6443 10.55891,3.55621 12.37255,7.02732 0.67986,1.30119 0.95052,2.26423 1.15269,4.10156 0.20414,1.85528 0.0155,3.84378 -0.52687,5.55385 -1.46265,4.61166 -5.74961,7.50797 -12.50811,8.45062 -2.1198,0.29565 -6.5345,0.41061 -8.6353,0.22485 z M 29.968013,228.24795 v -21.3873 l 11.85766,0.0626 c 11.27358,0.0595 11.939768,0.0783 13.524554,0.38105 3.588519,0.68558 5.86611,1.73175 7.654853,3.5161 1.847452,1.84292 2.586424,3.76273 2.586424,6.71939 0,1.97437 -0.197704,2.90187 -0.957985,4.49425 -1.092689,2.28858 -2.864764,3.71645 -5.799439,4.67296 l -1.328633,0.43304 1.38535,0.25346 c 4.757089,0.87032 7.894902,3.3951 8.882906,7.14745 0.563581,2.14044 0.398152,5.2265 -0.387064,7.22057 -1.521352,3.86348 -5.139701,6.35588 -10.77141,7.41958 -1.649775,0.3116 -2.225794,0.32742 -14.183416,0.38948 l -12.4638,0.0647 z m 24.680458,14.35556 c 2.689036,-0.81237 4.037362,-2.2997 4.398866,-4.85236 0.292402,-2.06474 -0.262826,-3.88336 -1.546988,-5.06706 -0.852863,-0.78614 -1.631021,-1.18564 -3.109481,-1.59638 -1.094475,-0.30406 -1.579035,-0.32619 -8.322195,-0.38005 l -7.16006,-0.0572 v 6.15682 6.15682 l 7.46313,-0.0574 c 6.332268,-0.0487 7.586407,-0.0946 8.276728,-0.30319 z m -2.101653,-18.78099 c 1.898108,-0.51465 3.0434,-1.37339 3.653045,-2.73906 0.508037,-1.13806 0.513649,-3.47896 0.01097,-4.58048 -0.475622,-1.04224 -1.148922,-1.70594 -2.241033,-2.20906 -1.60789,-0.74075 -2.47167,-0.81952 -8.999767,-0.82063 l -5.98565,-8.9e-4 -0.0398,5.35438 -0.0398,5.35438 6.40433,-0.0663 c 5.039256,-0.0521 6.581979,-0.1144 7.237779,-0.29221 z m 22.730341,4.41573 v -21.37527 l 12.539568,0.0629 c 13.293893,0.0667 13.134653,0.0586 15.835733,0.80777 2.49784,0.69278 4.93237,2.1086 6.38393,3.71263 2.67897,2.96036 3.54547,7.94005 2.14823,12.34566 -0.55849,1.76097 -1.33867,2.98711 -2.88499,4.53409 -1.49389,1.49453 -2.7181,2.24703 -4.79458,2.94714 l -1.155,0.38942 5.66775,8.71026 c 3.11726,4.79064 5.73628,8.82958 5.82004,8.97544 0.14377,0.25032 -0.13046,0.26503 -4.89158,0.26247 l -5.04389,-0.003 -4.989318,-8.10444 -4.989314,-8.10444 h -5.352991 -5.352989 v 8.10716 8.10715 h -4.4703 -4.470299 z m 23.409605,-2.03908 c 3.658546,-0.77496 5.454076,-3.3434 5.052476,-7.22736 -0.20376,-1.97059 -1.23671,-3.42617 -3.04976,-4.29753 -1.719742,-0.82652 -2.486119,-0.89671 -9.804157,-0.89788 l -6.591799,-9e-4 -0.03957,6.32662 -0.03957,6.32661 6.707113,-0.003 c 5.333865,-0.002 6.923754,-0.0485 7.765219,-0.22676 z m 19.357166,23.22493 c 0.0364,-0.10419 3.56939,-9.71912 7.85112,-21.36653 l 7.78496,-21.1771 5.31081,0.003 5.3108,0.003 7.80775,21.32607 7.80776,21.32607 -4.38325,0.0402 c -2.41079,0.0221 -4.40569,0.0178 -4.43312,-0.01 -0.0274,-0.0274 -0.8959,-2.46631 -1.92994,-5.41973 l -1.88007,-5.37038 h -8.292 -8.29199 l -0.63838,1.81843 c -0.3511,1.00013 -1.20507,3.43796 -1.8977,5.4174 l -1.25934,3.59897 h -4.46678 c -3.50769,0 -4.45259,-0.0407 -4.40063,-0.18942 z m 27.09114,-17.58197 c 0,-0.10628 -0.92253,-2.85097 -2.05006,-6.0993 -1.71901,-4.95236 -2.58465,-7.56264 -3.88417,-11.71245 -0.0866,-0.27646 -0.18693,-0.47312 -0.22301,-0.43704 -0.0361,0.0361 -0.36668,1.04648 -0.73465,2.24531 -0.36797,1.19883 -1.72956,5.24629 -3.02577,8.99436 -1.2962,3.74806 -2.35673,6.9019 -2.35673,7.00852 0,0.15426 1.25356,0.19385 6.1372,0.19385 4.87355,0 6.13719,-0.0398 6.13719,-0.19325 z m 62.5842,-3.59514 v -21.36652 h 4.4703 4.4703 v 21.36652 21.36652 h -4.4703 -4.4703 z m 17.42659,0 v -21.36652 h 4.46968 4.46968 l 0.0385,17.91909 0.0385,17.91908 11.55459,0.0388 11.55459,0.0388 v 3.4086 3.40861 h -16.06274 -16.06278 z"
   id="path842" /></svg>
