<?xml version="1.0" encoding="UTF-8" standalone="no"?>
<!-- Generator: Adobe Illustrator 16.0.0, SVG Export Plug-In . SVG Version: 6.00 Build 0)  -->

<svg
   version="1.1"
   id="Layer_1"
   x="0px"
   y="0px"
   width="280px"
   height="280px"
   viewBox="0 0 280 280"
   enable-background="new 0 0 280 280"
   xml:space="preserve"
   sodipodi:docname="dajito.svg"
   inkscape:version="1.1.2 (0a00cf5339, 2022-02-04)"
   xmlns:inkscape="http://www.inkscape.org/namespaces/inkscape"
   xmlns:sodipodi="http://sodipodi.sourceforge.net/DTD/sodipodi-0.dtd"
   xmlns:xlink="http://www.w3.org/1999/xlink"
   xmlns="http://www.w3.org/2000/svg"
   xmlns:svg="http://www.w3.org/2000/svg"><defs
   id="defs5011"><linearGradient
     inkscape:collect="always"
     id="linearGradient186860"><stop
       style="stop-color:#56cb4e;stop-opacity:1"
       offset="0"
       id="stop186856" /><stop
       style="stop-color:#33c379;stop-opacity:1"
       offset="1"
       id="stop186858" /></linearGradient><linearGradient
     inkscape:collect="always"
     xlink:href="#linearGradient186860"
     id="linearGradient186862"
     x1="160.37895"
     y1="236.45016"
     x2="159.68578"
     y2="282.7041"
     gradientUnits="userSpaceOnUse"
     gradientTransform="matrix(1,0,0,1.727176,0,-203.04654)" /></defs><sodipodi:namedview
   id="namedview5009"
   pagecolor="#ffffff"
   bordercolor="#000000"
   borderopacity="0.25"
   inkscape:showpageshadow="2"
   inkscape:pageopacity="0.0"
   inkscape:pagecheckerboard="0"
   inkscape:deskcolor="#d1d1d1"
   showgrid="false"
   inkscape:zoom="0.73839285"
   inkscape:cx="214.65538"
   inkscape:cy="69.746071"
   inkscape:window-width="1600"
   inkscape:window-height="828"
   inkscape:window-x="0"
   inkscape:window-y="0"
   inkscape:window-maximized="1"
   inkscape:current-layer="Layer_1"
   inkscape:pageshadow="2"
   showguides="false" />
<rect
   y="0.023242312"
   fill-rule="evenodd"
   clip-rule="evenodd"
   fill="#164E86"
   width="280"
   height="173.7274"
   id="rect4994-7"
   style="fill:#56cb4e;fill-opacity:1;stroke:none;stroke-width:0.787689;stroke-opacity:1"
   x="0" /><rect
   y="171.75064"
   fill-rule="evenodd"
   clip-rule="evenodd"
   fill="#164E86"
   width="280"
   height="108.81209"
   id="rect4994-7-5"
   style="fill:url(#linearGradient186862);fill-opacity:1;stroke:none;stroke-width:0.62339;stroke-opacity:1"
   x="0" />

<g
   id="g834"
   transform="translate(1.2011919,-7.0546506)"><path
     style="fill:#ffffff;stroke-width:0.239872"
     d="m 181.91172,174.88904 v -4.91739 h 2.75852 2.75854 V 150.90183 131.832 h 5.63699 5.63699 v 23.98721 23.9872 h -8.39551 -8.39553 z m -133.129016,3.3607 c -10.423945,-1.78532 -19.380555,-8.4625 -23.994987,-17.88832 l -0.770806,-1.57452 7.267958,-10.59899 c 3.997373,-5.82944 7.329875,-10.59755 7.405549,-10.59579 0.07568,0.002 2.873755,4.75174 6.217958,10.55552 3.344201,5.80378 6.352094,10.76607 6.684209,11.02732 1.769942,1.39223 3.634192,1.00705 5.449577,-1.12596 4.527448,-5.31956 8.077817,-7.49097 12.266037,-7.50193 4.071159,-0.0106 7.704733,1.84827 11.87999,6.0777 2.660629,2.69516 2.639132,2.62164 1.425102,4.87306 -4.759586,8.82668 -13.460166,15.08495 -23.258516,16.72968 -2.702671,0.45367 -7.988176,0.46478 -10.572071,0.0223 z M 115.2812,165.76866 c -2.71462,-0.58956 -4.988,-1.87792 -7.1414,-4.04715 -3.87497,-3.90347 -5.61933,-9.4233 -4.91452,-15.55156 1.06882,-9.2934 7.35787,-15.29745 16.0236,-15.29745 3.45275,0 6.22111,0.86481 7.91203,2.47164 l 0.77958,0.74081 v -8.44258 -8.44257 h 5.51707 5.51705 v 23.98721 23.98721 h -5.18519 -5.1852 l 0.0993,-1.55917 c 0.0546,-0.85754 0.0514,-1.55917 -0.007,-1.55917 -0.0585,0 -0.61502,0.47573 -1.23662,1.05716 -1.41613,1.32463 -2.66045,1.96396 -4.97414,2.5557 -2.12114,0.5425 -4.98373,0.5822 -7.20439,0.1 z m 9.18115,-10.36676 c 3.44102,-1.79366 4.85203,-6.84205 3.05059,-10.91451 -1.67006,-3.77545 -7.12659,-5.03991 -10.53388,-2.44106 -1.74232,1.32894 -2.93926,4.76664 -2.57692,7.40115 0.44768,3.255 1.86582,5.22881 4.53193,6.30765 1.13496,0.45927 4.36555,0.25284 5.52828,-0.35323 z m 32.28008,10.35929 c -5.69079,-1.23413 -10.0006,-5.6547 -11.68074,-11.9809 -0.6835,-2.57354 -0.62699,-8.21238 0.10802,-10.78067 1.60696,-5.61503 5.24602,-9.56865 10.52992,-11.44007 1.99049,-0.70498 6.13929,-0.87861 8.48634,-0.35515 2.00182,0.44647 3.87328,1.42332 5.12514,2.67516 l 0.84688,0.84689 v -1.452 -1.452 l 5.09728,0.0648 5.09728,0.0648 v 16.55117 16.55118 l -5.09728,0.0648 -5.09728,0.0648 v -1.58617 -1.58617 l -1.21322,1.09078 c -2.89251,2.60061 -7.6705,3.64177 -12.20234,2.65898 z m 8.99434,-10.1898 c 1.26423,-0.61201 2.62592,-2.07982 3.30335,-3.56078 0.76054,-1.66267 0.74085,-5.65415 -0.0363,-7.37122 -1.15455,-2.55072 -3.50663,-4.02778 -6.40175,-4.02014 -2.01177,0.005 -3.06038,0.41265 -4.51592,1.75433 -1.67616,1.54503 -2.2005,2.97701 -2.2005,6.00959 0,2.25116 0.0688,2.65877 0.648,3.83795 1.36892,2.78704 3.73389,4.20156 6.63979,3.97136 0.84199,-0.0667 1.99551,-0.34619 2.56339,-0.62109 z m 77.46227,10.39091 c -1.5376,-0.21264 -3.67035,-0.8644 -5.27719,-1.61268 -4.45389,-2.07414 -7.62065,-5.86668 -9.03467,-10.82001 -0.77688,-2.72142 -0.77723,-7.33043 -8.9e-4,-10.05025 1.87254,-6.55916 6.6011,-10.91763 13.32221,-12.27951 2.64703,-0.53635 7.28862,-0.34868 9.6258,0.38922 7.16719,2.26282 11.5282,7.77982 12.23231,15.47481 0.30665,3.35126 -0.6289,7.65397 -2.311,10.62862 -0.99127,1.75294 -4.25283,5.01597 -6.00284,6.00551 -3.43305,1.94121 -8.40522,2.83803 -12.55387,2.26429 z m 6.20666,-10.57682 c 1.36451,-0.76147 2.59694,-2.34872 3.0796,-3.96617 0.16367,-0.54847 0.29659,-2.02269 0.29539,-3.27601 -0.002,-1.84768 -0.10424,-2.50319 -0.54139,-3.46494 -0.83232,-1.83099 -1.59885,-2.67515 -3.09288,-3.40611 -2.65102,-1.29702 -5.98358,-0.73707 -7.77823,1.30692 -1.21792,1.38716 -1.72226,2.79283 -1.83959,5.12735 -0.15022,2.98902 0.51189,5.09692 2.0998,6.68483 1.44525,1.44524 2.85964,1.95033 5.01878,1.79218 1.08462,-0.0794 1.88653,-0.31144 2.75852,-0.79805 z m -42.06754,-2.08493 v -11.87367 h -1.3193 -1.3193 v -4.79744 -4.79744 h 1.3193 1.3193 v -4.07784 -4.07782 h 5.63699 5.63701 v 4.07782 4.07784 h 3.11833 3.11833 v 4.79744 4.79744 h -3.11833 -3.11833 v 6.95629 6.95629 h 2.63858 2.63859 v 4.91738 4.91738 h -8.27559 -8.27558 z M 85.115305,151.00999 c -2.541237,-2.66456 -6.724496,-5.33116 -10.148562,-6.46911 -6.510142,-2.16358 -13.169058,-0.61004 -18.97316,4.42651 -0.849446,0.73711 -1.613943,1.25803 -1.698884,1.15757 -0.08494,-0.10048 -2.923939,-4.99318 -6.308881,-10.87276 -3.384947,-5.87958 -6.398434,-10.91623 -6.696637,-11.19257 -1.361604,-1.26177 -3.688783,-1.14465 -4.900125,0.24661 -0.373659,0.42915 -3.809715,5.3543 -7.635673,10.94478 l -6.956292,10.16449 -0.187717,-1.17581 c -0.25101,-1.57224 0.0036,-5.44571 0.543079,-8.26147 2.502786,-13.06359 12.633973,-23.18001 25.860307,-25.8226 2.906167,-0.58065 9.237608,-0.57468 12.04393,0.0114 4.44216,0.92764 9.145566,2.94459 12.713224,5.45179 2.344348,1.64751 6.275145,5.6139 7.851527,7.92263 2.47166,3.61991 4.306818,7.95758 5.265687,12.44624 0.334515,1.56594 0.43148,3.04051 0.417995,6.35661 -0.0094,2.37474 -0.121209,4.56389 -0.247901,4.86479 l -0.230332,0.54708 z M 191.35421,128.46677 c -1.4117,-0.43608 -3.01595,-1.73906 -3.74138,-3.03875 -1.79802,-3.22137 -0.72271,-7.05898 2.47359,-8.82787 1.12455,-0.62234 1.54334,-0.71884 3.09928,-0.71405 1.38097,0.004 2.02952,0.1275 2.79079,0.53041 1.39974,0.74082 2.47084,1.89068 3.15671,3.38881 1.35238,2.95398 -0.0643,6.65586 -3.14966,8.22986 -1.115,0.56882 -3.47331,0.7887 -4.62933,0.43159 z"
     id="path1897" /></g></svg>
