<?xml version="1.0" encoding="UTF-8" standalone="no"?>
<!-- Generator: Adobe Illustrator 16.0.0, SVG Export Plug-In . SVG Version: 6.00 Build 0)  -->

<svg
   version="1.1"
   id="Layer_1"
   x="0px"
   y="0px"
   width="280px"
   height="280px"
   viewBox="0 0 280 280"
   enable-background="new 0 0 280 280"
   xml:space="preserve"
   sodipodi:docname="familia.svg"
   inkscape:version="1.1.2 (0a00cf5339, 2022-02-04)"
   xmlns:inkscape="http://www.inkscape.org/namespaces/inkscape"
   xmlns:sodipodi="http://sodipodi.sourceforge.net/DTD/sodipodi-0.dtd"
   xmlns:xlink="http://www.w3.org/1999/xlink"
   xmlns="http://www.w3.org/2000/svg"
   xmlns:svg="http://www.w3.org/2000/svg"><defs
   id="defs5011"><linearGradient
     inkscape:collect="always"
     id="linearGradient186860"><stop
       style="stop-color:#c862e8;stop-opacity:1;"
       offset="0"
       id="stop186856" /><stop
       style="stop-color:#6b1b98;stop-opacity:1;"
       offset="1"
       id="stop186858" /></linearGradient><linearGradient
     inkscape:collect="always"
     xlink:href="#linearGradient186860"
     id="linearGradient186862"
     x1="160.37895"
     y1="236.45016"
     x2="159.68578"
     y2="282.7041"
     gradientUnits="userSpaceOnUse"
     gradientTransform="matrix(1,0,0,1.727176,0,-203.04654)" /></defs><sodipodi:namedview
   id="namedview5009"
   pagecolor="#ffffff"
   bordercolor="#000000"
   borderopacity="0.25"
   inkscape:showpageshadow="2"
   inkscape:pageopacity="0.0"
   inkscape:pagecheckerboard="0"
   inkscape:deskcolor="#d1d1d1"
   showgrid="false"
   inkscape:zoom="1.0442452"
   inkscape:cx="146.51731"
   inkscape:cy="226.47937"
   inkscape:window-width="1600"
   inkscape:window-height="828"
   inkscape:window-x="0"
   inkscape:window-y="0"
   inkscape:window-maximized="1"
   inkscape:current-layer="Layer_1"
   inkscape:pageshadow="2"
   showguides="false" />
<rect
   y="0.023242312"
   fill-rule="evenodd"
   clip-rule="evenodd"
   fill="#164E86"
   width="280"
   height="173.7274"
   id="rect4994-7"
   style="fill:#c862e8;fill-opacity:1;stroke:none;stroke-width:0.787689;stroke-opacity:1"
   x="0" /><rect
   y="171.75064"
   fill-rule="evenodd"
   clip-rule="evenodd"
   fill="#164E86"
   width="280"
   height="108.81209"
   id="rect4994-7-5"
   style="fill:url(#linearGradient186862);fill-opacity:1;stroke:none;stroke-width:0.62339;stroke-opacity:1"
   x="0" />

<path
   style="fill:#ffffff;stroke-width:0.172122"
   d="m 14.166475,152.08972 c -2.48203,-0.86393 -4.086138,-2.04667 -5.707873,-4.2085 -1.6196261,-2.15902 -2.8339078,-5.08547 -3.3586148,-8.09437 -0.4038748,-2.31601 -0.3644459,-7.5056 0.074219,-9.76853 1.0801627,-5.57216 4.3454348,-9.74862 8.7859698,-11.23776 1.904661,-0.63873 5.093541,-0.80722 6.962079,-0.36784 2.484411,0.58419 4.723242,2.04275 6.17848,4.02519 1.083779,1.4764 2.29159,4.20957 2.602378,5.88894 l 0.112578,0.6083 -1.862505,0.38273 c -1.024374,0.2105 -1.913048,0.38213 -1.974828,0.3814 -0.06178,-5.1e-4 -0.281897,-0.56288 -0.489149,-1.24921 -1.411373,-4.67392 -4.586977,-7.10521 -8.491318,-6.50111 -2.246405,0.34758 -3.782162,1.27021 -5.033684,3.02406 -1.035626,1.4513 -1.52353,2.57811 -2.083214,4.81115 -0.449082,1.79179 -0.474175,2.10063 -0.468466,5.76595 0.0057,3.65987 0.03147,3.96532 0.468386,5.55656 1.080839,3.93619 3.058329,6.47266 5.800519,7.44016 0.981739,0.34638 3.419553,0.35513 4.534783,0.0162 2.427029,-0.73742 4.58384,-3.40372 5.444412,-6.73052 0.12244,-0.47333 0.278947,-0.92447 0.347782,-1.00254 0.06884,-0.0781 0.9549,0.0381 1.969023,0.25818 l 1.843861,0.40012 -0.106289,0.66552 c -0.160027,1.00198 -1.230369,3.66356 -1.987326,4.94182 -1.4863,2.50989 -3.476081,4.11986 -6.157269,4.98196 -1.428446,0.45931 -1.822138,0.51236 -3.786698,0.5103 -1.968198,-0.002 -2.338256,-0.053 -3.617236,-0.49822 z M 34.61075,135.378 v -16.52376 h 2.151534 2.151527 V 135.378 151.90176 H 36.762284 34.61075 Z m 12.048575,0 v -16.52376 h 2.644549 2.644549 l 3.414547,5.8952 c 1.878007,3.24235 3.773428,6.51483 4.212056,7.27217 0.438628,0.75734 1.405515,2.42262 2.148641,3.70063 2.414254,4.15199 3.326232,5.73571 4.33161,7.52217 0.543554,0.96583 1.021733,1.7226 1.062632,1.6817 0.0409,-0.0409 0.08239,-5.90444 0.09221,-13.03008 l 0.01784,-12.95573 1.678194,-0.0493 1.678189,-0.0493 v 16.52999 16.53 h -2.04861 -2.048615 l -3.308775,-5.72308 c -1.819823,-3.14769 -3.89253,-6.72999 -4.606021,-7.96066 -0.71349,-1.23068 -1.544043,-2.6636 -1.845676,-3.18427 -0.301623,-0.52067 -1.915615,-3.30573 -3.586647,-6.18901 l -3.038236,-5.24233 v 14.14967 14.14968 H 48.380533 46.65931 Z m 31.842666,0.002 V 118.85481 H 88.749104 98.99622 l -0.0488,1.85032 -0.0488,1.85032 -8.132793,0.0447 -8.132789,0.0447 v 5.16199 5.16199 h 6.454595 6.454594 v 1.72122 1.72123 h -6.454664 -6.454595 v 5.85053 5.85052 l 8.390973,0.0447 8.390979,0.0447 v 1.80729 1.80728 l -10.456449,0.0444 -10.456443,0.0444 V 135.38 Z m 38.383319,-0.002 v -16.52376 h 9.98893 9.98893 l -0.0488,1.85031 -0.0488,1.85032 -7.78854,0.0448 -7.78856,0.0448 v 5.07586 5.07586 h 6.46062 6.46062 l -0.049,1.76425 -0.049,1.76426 -6.41156,0.0451 -6.41158,0.0451 v 7.74342 7.74341 h -2.15152 -2.15154 z m 18.58924,16.33591 c 0,-0.16475 3.5338,-11.43147 8.65984,-27.60994 l 1.63607,-5.16367 2.39584,-0.0476 2.39585,-0.0476 0.26563,0.90819 c 0.24294,0.83061 2.45496,7.76541 4.87403,15.28042 0.53326,1.65668 1.18702,3.70924 1.45278,4.56125 0.81904,2.62587 2.92562,9.22549 3.37139,10.56209 0.23249,0.6971 0.42269,1.37722 0.42269,1.51136 0,0.19972 -0.37859,0.23515 -2.08967,0.19558 l -2.08967,-0.0484 -1.60572,-4.73336 -1.60573,-4.73337 h -5.88759 -5.88761 l -0.56059,1.80728 c -0.3083,0.99401 -0.80457,2.62057 -1.10277,3.61458 -0.29822,0.99401 -0.70599,2.3301 -0.90615,2.96911 l -0.36394,1.16183 h -1.68734 c -1.1043,0 -1.68734,-0.0649 -1.68734,-0.18785 z m 16.94988,-13.25675 c -0.0647,-0.29448 -0.33261,-1.20457 -0.59536,-2.02244 -0.68382,-2.12836 -2.25353,-7.08342 -3.19358,-10.08108 -0.5125,-1.63433 -0.85377,-2.48018 -0.93748,-2.32365 -0.13525,0.25284 -4.35651,13.63922 -4.56904,14.48924 l -0.11835,0.47334 h 4.7657 4.76572 z m 12.65518,-3.07916 v -16.52376 h 3.01494 3.01493 l 0.24988,0.55939 c 0.1374,0.30767 0.63359,1.60504 1.10263,2.88305 0.93472,2.54708 2.08478,5.66391 3.46136,9.38068 0.49083,1.32535 1.27256,3.436 1.73715,4.69035 0.46457,1.25433 1.23484,3.34563 1.71172,4.6473 0.85025,2.32091 1.52479,4.00028 1.53822,3.82973 0.0125,-0.15977 2.69566,-7.63311 6.55026,-18.24499 1.15195,-3.17136 2.2488,-6.21147 2.43743,-6.75581 l 0.34298,-0.9897 h 2.98451 2.98451 l 0.0612,3.91578 c 0.0336,2.15369 0.0583,9.57001 0.0549,16.48074 l -0.006,12.56494 -2.02145,0.0485 -2.02143,0.0485 -0.044,-14.16253 -0.0439,-14.16253 -1.35203,3.78669 c -0.74365,2.08269 -1.76595,4.9098 -2.2718,6.28248 -0.50584,1.37267 -2.05082,5.6327 -3.43327,9.46673 -1.38245,3.83403 -2.6787,7.3776 -2.88055,7.87461 l -0.36697,0.90364 h -1.4105 c -1.37851,0 -1.41476,-0.0108 -1.59807,-0.47334 -0.20881,-0.52698 -3.23053,-8.75643 -5.7986,-15.79223 -1.20697,-3.30679 -2.36784,-6.46921 -3.60144,-9.81099 l -0.76245,-2.06547 -0.01,14.07102 -0.01,14.07101 h -1.80729 -1.80728 z m 39.07183,-0.005 v -16.52906 l 2.10849,0.0483 2.10852,0.0484 0.0454,16.48073 0.0455,16.48073 h -2.15394 -2.15395 z M 216.2,135.378 v -16.52376 h 2.15156 2.15153 v 14.63041 14.63042 h 7.40125 7.40127 v 1.89334 1.89335 H 225.75283 216.2 Z m 23.69557,16.40901 c -0.0631,-0.0631 -0.11477,-7.4988 -0.11477,-16.52376 v -16.40901 h 2.15153 2.15153 v 16.52376 16.52376 h -2.03679 c -1.12023,0 -2.08842,-0.0517 -2.1515,-0.11475 z m 8.14711,0.0559 c 0,-0.0324 0.81881,-2.64649 1.81954,-5.80914 1.0007,-3.16263 2.00217,-6.33117 2.22542,-7.04117 0.22325,-0.71001 1.26916,-4.00185 2.32416,-7.31521 1.05501,-3.31336 2.0705,-6.52774 2.25664,-7.14308 0.18611,-0.61534 0.66925,-2.12571 1.07358,-3.35639 l 0.7352,-2.23759 h 2.38041 2.38045 l 0.56506,1.72122 c 0.31083,0.94668 1.38825,4.31597 2.39432,7.48733 1.0061,3.17136 1.97279,6.19211 2.14823,6.71278 0.17545,0.52067 0.79708,2.45705 1.38143,4.30306 2.7009,8.5325 3.16259,9.97245 3.54888,11.06913 0.22712,0.64465 0.41293,1.28366 0.41293,1.42002 0,0.20239 -0.38927,0.24792 -2.11992,0.24792 h -2.11991 l -1.51845,-4.51822 c -0.83517,-2.48501 -1.58846,-4.65478 -1.67405,-4.82171 -0.1447,-0.28222 -0.56237,-0.30032 -5.95748,-0.25818 l -5.80185,0.0453 -0.5441,1.72122 c -0.61998,1.96126 -1.90272,6.22234 -2.16328,7.18612 l -0.17452,0.64546 h -1.78635 c -0.98249,0 -1.78634,-0.0265 -1.78634,-0.0589 z m 17.17346,-13.06546 c -0.0415,-0.11834 -1.11158,-3.52577 -2.37776,-7.57207 -1.26626,-4.04631 -2.35423,-7.29943 -2.41779,-7.22916 -0.0945,0.10457 -1.65254,5.00314 -4.37897,13.7685 l -0.38818,1.24788 h 4.81918 c 3.78089,0 4.80286,-0.0463 4.74352,-0.21515 z"
   id="path1076" /></svg>
