<?xml version="1.0" encoding="UTF-8" standalone="no"?>
<!-- Generator: Adobe Illustrator 16.0.0, SVG Export Plug-In . SVG Version: 6.00 Build 0)  -->

<svg
   version="1.1"
   id="Layer_1"
   x="0px"
   y="0px"
   width="280px"
   height="280px"
   viewBox="0 0 280 280"
   enable-background="new 0 0 280 280"
   xml:space="preserve"
   sodipodi:docname="jed1.svg"
   inkscape:version="1.1.2 (0a00cf5339, 2022-02-04)"
   xmlns:inkscape="http://www.inkscape.org/namespaces/inkscape"
   xmlns:sodipodi="http://sodipodi.sourceforge.net/DTD/sodipodi-0.dtd"
   xmlns:xlink="http://www.w3.org/1999/xlink"
   xmlns="http://www.w3.org/2000/svg"
   xmlns:svg="http://www.w3.org/2000/svg"><defs
   id="defs5011"><linearGradient
     inkscape:collect="always"
     id="linearGradient186860"><stop
       style="stop-color:#f26799;stop-opacity:1"
       offset="0"
       id="stop186856" /><stop
       style="stop-color:#cb5374;stop-opacity:1"
       offset="1"
       id="stop186858" /></linearGradient><linearGradient
     inkscape:collect="always"
     xlink:href="#linearGradient186860"
     id="linearGradient186862"
     x1="160.37895"
     y1="236.45016"
     x2="159.68578"
     y2="282.7041"
     gradientUnits="userSpaceOnUse"
     gradientTransform="matrix(1,0,0,1.727176,0,-203.04654)" /></defs><sodipodi:namedview
   id="namedview5009"
   pagecolor="#ffffff"
   bordercolor="#000000"
   borderopacity="0.25"
   inkscape:showpageshadow="2"
   inkscape:pageopacity="0.0"
   inkscape:pagecheckerboard="0"
   inkscape:deskcolor="#d1d1d1"
   showgrid="false"
   inkscape:zoom="0.5221226"
   inkscape:cx="-79.483248"
   inkscape:cy="280.58544"
   inkscape:window-width="1600"
   inkscape:window-height="828"
   inkscape:window-x="0"
   inkscape:window-y="0"
   inkscape:window-maximized="1"
   inkscape:current-layer="Layer_1"
   inkscape:pageshadow="2"
   showguides="false" />
<rect
   y="0.023242312"
   fill-rule="evenodd"
   clip-rule="evenodd"
   fill="#164E86"
   width="280"
   height="173.7274"
   id="rect4994-7"
   style="fill:#f26799;fill-opacity:1;stroke:none;stroke-width:0.787689;stroke-opacity:1"
   x="0" /><rect
   y="171.75064"
   fill-rule="evenodd"
   clip-rule="evenodd"
   fill="#164E86"
   width="280"
   height="108.81209"
   id="rect4994-7-5"
   style="fill:url(#linearGradient186862);fill-opacity:1;stroke:none;stroke-width:0.62339;stroke-opacity:1"
   x="0" />

<path
   style="fill:#ffffff;stroke-width:0.334822"
   d="m 171.59738,229.54777 -16.58008,0.0979 v -62.93254 c 0,-37.78365 -0.12332,-63.00794 -0.30861,-63.12121 -0.16973,-0.10377 -1.26806,0.20319 -2.44072,0.68213 -1.17266,0.47893 -2.4351,1.0004 -2.80541,1.15883 -0.37032,0.15842 -1.44974,0.58232 -2.39872,0.942 -0.94897,0.35967 -2.38816,0.94986 -3.19819,1.31152 -0.81002,0.36167 -2.23023,0.88278 -3.15603,1.15802 -0.92578,0.27524 -2.12843,0.57291 -2.67254,0.6615 -0.54411,0.0886 -1.84837,0.0409 -2.89835,-0.10585 -1.04998,-0.14678 -2.78334,-0.67601 -3.85191,-1.17605 -1.06857,-0.50003 -2.5896,-1.53983 -3.38006,-2.31066 -0.79047,-0.77083 -1.73937,-1.98736 -2.10867,-2.70341 -0.3693,-0.71604 -2.4358,-5.722118 -4.59223,-11.124607 -2.15642,-5.402492 -4.13814,-10.307079 -4.40382,-10.899085 -0.26569,-0.592006 -0.40693,-1.266336 -0.31389,-1.498513 0.093,-0.232176 1.22552,-0.943156 2.5166,-1.579961 1.29109,-0.636801 2.34743,-1.273669 2.34743,-1.415262 0,-0.141589 0.27269,-0.257437 0.60597,-0.257437 0.33329,0 0.74989,-0.137481 0.92579,-0.30551 0.1759,-0.168034 2.13774,-1.242111 4.35964,-2.386838 2.22189,-1.14473 4.58256,-2.416887 5.24592,-2.827016 0.66336,-0.41013 2.70851,-1.507104 4.54479,-2.437723 1.83628,-0.930619 3.94466,-2.042216 4.68529,-2.470218 0.74063,-0.427998 3.12489,-1.705523 5.29836,-2.838945 2.17346,-1.133417 4.63522,-2.433391 5.47058,-2.888825 0.83536,-0.455434 2.16268,-1.178114 2.9496,-1.605955 0.78692,-0.427839 2.7942,-1.498792 4.46063,-2.379894 1.66642,-0.881102 4.50856,-2.404194 6.31587,-3.384644 l 3.28601,-1.78264 h 13.96736 13.96736 l -0.005,83.500443 -0.005,83.50043 -0.4475,1.88062 c -0.24612,1.03433 -0.83902,2.54147 -1.31756,3.34918 -0.47854,0.80771 -1.54882,2.08744 -2.37841,2.84384 -0.82959,0.7564 -2.31735,1.79674 -3.30613,2.31187 l -1.79781,0.93659 z M 69.238839,206.26699 c -1.611021,-0.0216 -3.610847,-0.15639 -4.444059,-0.29965 -0.833212,-0.14327 -2.423889,-0.59578 -3.534838,-1.00559 -1.110948,-0.4098 -2.701625,-1.12796 -3.534837,-1.5959 -0.833212,-0.46793 -2.356259,-1.48241 -3.38455,-2.2544 -1.028295,-0.77199 -2.464883,-2.1293 -3.192426,-3.01624 -0.727541,-0.88695 -1.439016,-1.66259 -1.581053,-1.72364 -0.14204,-0.061 -0.258252,-0.3108 -0.258252,-0.555 0,-0.2442 -0.113619,-0.49395 -0.252488,-0.555 -0.138869,-0.0611 -0.766521,-1.23489 -1.394783,-2.60852 -0.628258,-1.37364 -1.266344,-2.79723 -1.417961,-3.16353 -0.151618,-0.36631 -0.432927,-1.55518 -0.625128,-2.64193 -0.192197,-1.08676 -0.349454,-3.28969 -0.349454,-4.8954 0,-1.60571 0.163225,-3.71357 0.362721,-4.68413 0.199497,-0.97056 0.61076,-2.43899 0.913918,-3.26317 0.303157,-0.82418 1.061256,-2.39762 1.684663,-3.49653 0.623407,-1.09891 1.601413,-2.59742 2.173349,-3.33003 0.571934,-0.7326 2.052812,-2.20694 3.290843,-3.2763 1.238029,-1.06936 2.840748,-2.27324 3.561595,-2.67528 0.720848,-0.40205 2.099017,-1.0643 3.062597,-1.47167 0.963577,-0.40737 2.932986,-0.96422 4.376466,-1.23744 1.443476,-0.27322 3.7607,-0.49449 5.149386,-0.49171 1.388687,0.002 3.707725,0.29988 5.153423,0.66023 1.445695,0.36035 3.972283,1.34167 5.614639,2.18072 2.276304,1.16292 3.591593,2.13392 5.533403,4.085 1.401018,1.4077 2.781963,2.8938 3.068775,3.30244 0.286808,0.40863 0.937638,1.53252 1.446292,2.49752 0.508651,0.965 1.205661,2.49055 1.548906,3.39011 0.343244,0.89957 0.795665,2.82343 1.005376,4.27525 0.236225,1.63537 0.285625,3.81523 0.129839,5.72948 -0.138297,1.6994 -0.620006,4.23782 -1.070456,5.64093 -0.450454,1.40311 -1.425868,3.56154 -2.167586,4.79651 -0.741722,1.23497 -2.460761,3.32718 -3.820084,4.64935 -1.359327,1.32218 -3.206694,2.8615 -4.105261,3.42072 -0.898566,0.55923 -2.262005,1.29225 -3.029862,1.62894 -0.767855,0.3367 -1.850579,0.77022 -2.406054,0.96338 -0.555474,0.19316 -1.812749,0.5106 -2.793943,0.70543 -0.981193,0.19482 -3.102095,0.33659 -4.713116,0.31505 z m 0.291826,-73.59612 c -1.586368,-0.0229 -3.490275,-0.15799 -4.230908,-0.30014 -0.740633,-0.14215 -2.10407,-0.47567 -3.029861,-0.74115 -0.925791,-0.26549 -2.592214,-0.9426 -3.703163,-1.50471 -1.110949,-0.56209 -2.496121,-1.37537 -3.078157,-1.80728 -0.582037,-0.4319 -1.874531,-1.53032 -2.87221,-2.44094 -0.997683,-0.91062 -2.281371,-2.33 -2.852648,-3.15418 -0.571277,-0.82418 -1.520657,-2.44523 -2.10974,-3.60232 -0.589079,-1.15709 -1.364359,-3.25501 -1.722842,-4.66204 -0.432614,-1.69799 -0.649549,-3.678 -0.645132,-5.88826 0.0037,-1.83152 0.206654,-4.22914 0.451089,-5.32805 0.244436,-1.0989 0.820066,-2.89712 1.279177,-3.996028 0.459112,-1.098911 1.276373,-2.694941 1.816139,-3.546729 0.539767,-0.851792 1.663111,-2.333383 2.496323,-3.292427 0.833211,-0.959039 2.272395,-2.296776 3.198186,-2.972749 0.925791,-0.675971 2.440721,-1.666561 3.366512,-2.20131 0.925791,-0.534748 2.743708,-1.325736 4.039815,-1.75775 1.835506,-0.611806 3.324225,-0.819407 6.733024,-0.938925 l 4.376466,-0.153444 2.85151,0.859247 c 1.568329,0.472588 3.992219,1.494142 5.38642,2.270125 1.576933,0.877689 3.489095,2.3622 5.059793,3.928185 1.560281,1.555603 3.052529,3.463903 3.90601,4.995041 0.759621,1.362755 1.743781,3.451765 2.187024,4.642254 l 0.805897,2.16451 -0.01849,5.16155 -0.01845,5.16154 -0.876036,2.49991 c -0.48182,1.37495 -1.491582,3.5478 -2.243921,4.82854 -0.752335,1.28075 -2.167183,3.15553 -3.144104,4.16618 -0.976921,1.01065 -2.533682,2.35931 -3.459475,2.99702 -0.925789,0.63771 -1.759001,1.24032 -1.851582,1.33912 -0.09258,0.0988 -1.15303,0.61195 -2.356557,1.14035 -1.203529,0.52839 -3.238441,1.23428 -4.522025,1.56863 -1.490631,0.38828 -3.375841,0.59285 -5.218093,0.56623 z"
   id="path1787" /></svg>
