<?xml version="1.0" encoding="UTF-8" standalone="no"?>
<!-- Generator: Adobe Illustrator 16.0.0, SVG Export Plug-In . SVG Version: 6.00 Build 0)  -->

<svg
   version="1.1"
   id="Layer_1"
   x="0px"
   y="0px"
   width="280px"
   height="280px"
   viewBox="0 0 280 280"
   enable-background="new 0 0 280 280"
   xml:space="preserve"
   sodipodi:docname="marzika.svg"
   inkscape:version="1.1.2 (0a00cf5339, 2022-02-04)"
   xmlns:inkscape="http://www.inkscape.org/namespaces/inkscape"
   xmlns:sodipodi="http://sodipodi.sourceforge.net/DTD/sodipodi-0.dtd"
   xmlns:xlink="http://www.w3.org/1999/xlink"
   xmlns="http://www.w3.org/2000/svg"
   xmlns:svg="http://www.w3.org/2000/svg"><defs
   id="defs5011"><linearGradient
     inkscape:collect="always"
     id="linearGradient186860"><stop
       style="stop-color:#0c6bbf;stop-opacity:1;"
       offset="0"
       id="stop186856" /><stop
       style="stop-color:#0c5293;stop-opacity:1;"
       offset="1"
       id="stop186858" /></linearGradient><linearGradient
     inkscape:collect="always"
     xlink:href="#linearGradient186860"
     id="linearGradient186862"
     x1="160.37895"
     y1="236.45016"
     x2="159.68578"
     y2="282.7041"
     gradientUnits="userSpaceOnUse"
     gradientTransform="matrix(1,0,0,1.727176,0,-203.04654)" /></defs><sodipodi:namedview
   id="namedview5009"
   pagecolor="#ffffff"
   bordercolor="#000000"
   borderopacity="0.25"
   inkscape:showpageshadow="2"
   inkscape:pageopacity="0.0"
   inkscape:pagecheckerboard="0"
   inkscape:deskcolor="#d1d1d1"
   showgrid="false"
   inkscape:zoom="1.0442452"
   inkscape:cx="62.724732"
   inkscape:cy="247.54722"
   inkscape:window-width="1600"
   inkscape:window-height="828"
   inkscape:window-x="0"
   inkscape:window-y="0"
   inkscape:window-maximized="1"
   inkscape:current-layer="Layer_1"
   inkscape:pageshadow="2"
   showguides="false" />
<rect
   y="0.023242312"
   fill-rule="evenodd"
   clip-rule="evenodd"
   fill="#164E86"
   width="280"
   height="173.7274"
   id="rect4994-7"
   style="fill:#0c6bbf;fill-opacity:1;stroke:none;stroke-width:0.787689;stroke-opacity:1"
   x="0" /><rect
   y="171.75064"
   fill-rule="evenodd"
   clip-rule="evenodd"
   fill="#164E86"
   width="280"
   height="108.81209"
   id="rect4994-7-5"
   style="fill:url(#linearGradient186862);fill-opacity:1;stroke:none;stroke-width:0.62339;stroke-opacity:1"
   x="0" />

<path
   style="fill:#ffffff;stroke-width:0.172159"
   d="m 29.804498,159.82606 c -7.492744,-0.97222 -13.761744,-4.60469 -18.239626,-10.56869 -1.239636,-1.65104 -3.0922606,-4.98129 -2.9902006,-5.37509 0.06756,-0.26052 11.7016076,-17.19612 11.7661156,-17.1278 0.02575,0.0273 1.498363,2.56742 3.272451,5.64476 1.774096,3.07734 3.746678,6.48609 4.383521,7.57499 0.636843,1.0889 1.375322,2.36719 1.641069,2.84062 0.669697,1.1931 0.924737,1.46481 1.716106,1.82821 1.636115,0.7513 2.512371,0.36922 4.572643,-1.99385 5.204541,-5.96947 10.005328,-6.97374 15.603815,-3.26415 1.569534,1.03999 4.926106,4.24787 5.135682,4.9082 0.279811,0.88161 -2.549923,5.19753 -5.07176,7.73545 -4.33595,4.3636 -9.138819,6.80433 -15.075609,7.66118 -1.561087,0.22531 -5.42355,0.30364 -6.714207,0.13617 z m 99.514572,-10.39172 c -3.1272,-0.48825 -5.3847,-1.69906 -7.62806,-4.09128 -1.20357,-1.28343 -2.5941,-3.84785 -3.05123,-5.62707 -1.79973,-7.0048 1.01134,-14.03643 6.7743,-16.94524 1.80898,-0.91307 3.42764,-1.2669 5.79204,-1.26609 1.75687,5e-4 2.27193,0.0677 3.44318,0.44893 1.56217,0.5084 2.99759,1.31953 4.1823,2.36333 l 0.8103,0.71393 0.0495,-1.56665 0.0495,-1.56665 h 3.5228 3.52279 v 13.60054 13.60056 h -3.52279 -3.5228 l -0.0495,-1.56086 -0.0495,-1.56086 -0.60255,0.54447 c -1.37703,1.2443 -3.12869,2.20177 -4.90654,2.68195 -1.15782,0.31273 -3.55388,0.4277 -4.81374,0.23099 z m 4.95499,-6.61867 c 1.42408,-0.37093 2.29872,-0.8669 3.24871,-1.84222 2.22,-2.27919 2.76344,-6.0313 1.31356,-9.06927 -1.57528,-3.3007 -5.29762,-4.77344 -8.77572,-3.47212 -3.19347,1.19484 -5.08999,4.75273 -4.46044,8.36784 0.76506,4.39334 4.62498,7.07038 8.67389,6.01577 z m 116.92683,6.54195 c -1.62756,-0.26404 -2.43268,-0.5423 -4.09198,-1.41424 -1.22378,-0.64308 -3.2151,-2.40807 -4.13748,-3.6672 -0.75509,-1.0308 -1.80691,-3.33613 -2.20935,-4.8424 -0.50978,-1.908 -0.55703,-5.83514 -0.0909,-7.55102 0.84676,-3.11684 1.8396,-4.87998 3.87924,-6.88895 2.70367,-2.66303 6.46538,-3.93543 10.21357,-3.45474 2.49892,0.32047 4.66129,1.28454 6.31681,2.81629 0.37921,0.35085 0.72847,0.57478 0.77616,0.49762 0.0477,-0.0772 0.0712,-0.75433 0.0523,-1.50483 l -0.0343,-1.36453 3.57218,-0.0466 3.57215,-0.0466 v 13.60405 13.60405 h -3.52925 -3.52926 v -1.54943 c 0,-0.85219 -0.0467,-1.54943 -0.10382,-1.54943 -0.0571,0 -0.48587,0.34349 -0.95283,0.76331 -1.55035,1.39391 -3.37519,2.23593 -5.65755,2.61054 -1.72515,0.28315 -2.2136,0.28122 -4.04574,-0.016 z m 5.34379,-6.55172 c 2.01604,-0.52497 3.5424,-1.81095 4.49215,-3.78466 1.44519,-3.00335 0.894,-6.74679 -1.32131,-8.97374 -3.17201,-3.18869 -8.35798,-2.6296 -10.82499,1.16703 -1.20122,1.84863 -1.53474,4.4298 -0.85627,6.62649 1.19035,3.85388 4.76606,5.93991 8.51042,4.96488 z M 72.585995,135.49809 v -13.60754 l 3.5723,0.0466 3.572301,0.0466 0.03178,1.46335 c 0.01742,0.80485 0.0368,1.46542 0.04308,1.46794 0.0059,0.003 0.46171,-0.42405 1.012274,-0.94794 1.600313,-1.52281 4.144322,-2.57289 6.257553,-2.58291 1.170564,-0.006 3.252736,0.49666 4.413477,1.06452 1.079755,0.52823 2.72883,1.9344 3.333721,2.84266 0.251224,0.37721 0.266248,0.36859 1.545144,-0.88567 1.360366,-1.33416 2.613171,-2.08322 4.375395,-2.61608 1.39093,-0.42058 4.41317,-0.41769 5.84441,0.006 2.89025,0.85479 5.16785,2.73536 6.41818,5.29937 1.21886,2.49946 1.24288,2.75004 1.24288,12.9568 v 9.0474 h -3.52166 -3.52167 l -0.0506,-8.47882 c -0.049,-8.21206 -0.0622,-8.50711 -0.41954,-9.37763 -0.56711,-1.38174 -1.3154,-2.20384 -2.56661,-2.8198 -1.00372,-0.49413 -1.21998,-0.53771 -2.28894,-0.46122 -2.114814,0.15131 -3.561511,1.21657 -4.372027,3.21928 -0.380537,0.94029 -0.390548,1.13841 -0.474813,9.39632 l -0.08608,8.43579 H 93.4173 89.888041 l -0.08608,-8.60794 c -0.08601,-8.60135 -0.08638,-8.60856 -0.489667,-9.4199 -1.356746,-2.72955 -3.96703,-3.76284 -6.490167,-2.56917 -1.138527,0.53862 -1.746418,1.158 -2.455401,2.50183 l -0.463902,0.8793 -0.04436,4.90652 c -0.02439,2.6986 -0.06314,6.57217 -0.08608,8.60795 l -0.04172,3.70142 -3.572292,0.0466 -3.5723,0.0466 z m 79.173985,0.43041 c -0.0105,-7.24359 -0.0278,-13.34447 -0.0384,-13.55752 l -0.0192,-0.38736 3.56762,-0.0466 3.56762,-0.0466 v 1.6842 1.6842 l 1.16743,-1.12119 c 2.02118,-1.94114 4.45105,-2.89581 6.85917,-2.69493 0.67448,0.0563 1.42982,0.17968 1.67856,0.27425 l 0.45222,0.17194 v 3.24659 c 0,1.78562 -0.0407,3.28728 -0.0904,3.33703 -0.0497,0.0497 -0.60973,-0.0535 -1.24442,-0.22954 -2.3945,-0.66399 -5.08337,-0.24912 -6.70782,1.03494 -0.5302,0.4191 -1.05164,1.06067 -1.43133,1.76111 l -0.59728,1.10185 -0.0492,8.47882 -0.0492,8.47883 h -3.5231 -3.52309 z m 21.53899,-6.28381 v -19.45395 h 3.52926 3.52926 l 0.004,11.31945 0.004,11.31944 0.72768,-0.77794 c 0.40022,-0.42787 2.57939,-2.88759 4.84259,-5.46605 l 4.11498,-4.68809 h 4.46015 c 3.52317,0 4.43267,0.0452 4.32927,0.21519 -0.072,0.11836 -1.76158,1.99751 -3.75462,4.17587 -1.99305,2.17838 -4.26668,4.67185 -5.05253,5.54104 l -1.42882,1.58036 0.34467,0.39845 c 0.18956,0.21914 0.67757,0.83475 1.0845,1.36801 0.65254,0.85518 1.80549,2.33861 5.73244,7.37558 0.56812,0.72871 1.26537,1.62823 1.54942,1.99891 0.60443,0.78874 1.8922,2.41799 2.30184,2.91219 0.45437,0.54814 1.05526,1.42106 1.05526,1.53296 0,0.0564 -1.9683,0.10254 -4.37402,0.10254 h -4.37402 l -0.66743,-0.81775 c -0.36707,-0.44977 -0.87192,-1.08891 -1.12182,-1.42032 -0.24992,-0.3314 -1.25445,-1.61803 -2.23226,-2.85916 -2.21595,-2.81265 -3.80462,-4.86105 -3.97109,-5.1202 -0.13254,-0.20634 -0.18141,-0.16024 -2.41209,2.27604 l -1.16201,1.26911 v 3.33614 3.33614 h -3.52927 -3.52925 z m 29.61134,5.8534 v -13.60054 h 3.52926 3.52926 v 13.60054 13.60056 h -3.52926 -3.52926 z m 11.99497,13.48702 c -0.0638,-0.0638 -0.11382,-1.40073 -0.11113,-2.97097 l 0.005,-2.85497 0.98504,-1.04493 c 1.02201,-1.08412 5.64936,-6.15114 9.50483,-10.40788 0.89837,-0.99189 1.96095,-2.15205 2.36129,-2.57815 l 0.72787,-0.77471 -6.79439,-0.045 -6.79439,-0.045 v -3.18419 -3.1842 l 11.40553,0.0443 11.40553,0.0443 0.0473,2.88823 0.0472,2.88822 -1.23987,1.32967 c -1.90339,2.04123 -2.84456,3.06544 -4.62245,5.03028 -2.04156,2.25624 -2.49033,2.74811 -5.41969,5.94029 l -2.36975,2.58238 6.82558,0.045 6.82557,0.045 -0.0469,3.13993 -0.0469,3.13991 -11.28953,0.0443 c -6.20924,0.0244 -11.34173,-0.008 -11.40553,-0.0717 z M 57.950256,137.29618 c -0.945913,-0.97278 -3.535522,-2.94024 -4.818216,-3.66066 -2.754826,-1.54721 -5.14237,-2.18517 -8.091475,-2.16204 -2.580728,0.0202 -4.13409,0.38569 -6.470698,1.5223 -1.55575,0.75678 -3.909898,2.38351 -4.706596,3.2523 -0.229554,0.25032 -0.504598,0.45513 -0.611213,0.45513 -0.106615,0 -2.041951,-3.1957 -4.30076,-7.10155 -6.228372,-10.7699 -6.164968,-10.66852 -6.948155,-11.1087 -1.327682,-0.7462 -2.837229,-0.41522 -3.85195,0.84456 -0.333306,0.41379 -3.07699,4.35478 -6.09707,8.75775 L 6.5630415,136.10066 6.44362,134.98162 c -0.1390091,-1.30232 0.1035133,-4.7171 0.4716267,-6.64118 0.6510519,-3.40257 2.5063197,-7.54726 4.6555053,-10.40035 3.993407,-5.30128 9.827874,-8.97944 16.253924,-10.24677 2.000846,-0.3946 5.934071,-0.5255 8.032907,-0.26734 8.441614,1.03833 15.720007,5.86547 19.903249,13.20012 1.611828,2.82609 2.823131,6.53211 3.241858,9.91861 0.203755,1.64782 0.112292,6.17869 -0.142671,7.0674 l -0.137276,0.47849 z M 203.12941,118.40817 c 0.0461,-0.1201 1.26606,-2.01815 2.71105,-4.2179 l 2.62722,-3.99953 h 3.86207 c 3.16985,0 3.85207,0.042 3.80637,0.23428 -0.0306,0.12884 -1.4114,2.02508 -3.06844,4.21387 l -3.01278,3.97959 -3.50463,0.004 c -2.76127,0.003 -3.48686,-0.0423 -3.42086,-0.21433 z"
   id="path937" /></svg>
