<?xml version="1.0" encoding="UTF-8" standalone="no"?>
<!-- Generator: Adobe Illustrator 16.0.0, SVG Export Plug-In . SVG Version: 6.00 Build 0)  -->

<svg
   version="1.1"
   id="Layer_1"
   x="0px"
   y="0px"
   width="280px"
   height="280px"
   viewBox="0 0 280 280"
   enable-background="new 0 0 280 280"
   xml:space="preserve"
   sodipodi:docname="newsy.svg"
   inkscape:version="1.2.2 (732a01da63, 2022-12-09)"
   xmlns:inkscape="http://www.inkscape.org/namespaces/inkscape"
   xmlns:sodipodi="http://sodipodi.sourceforge.net/DTD/sodipodi-0.dtd"
   xmlns:xlink="http://www.w3.org/1999/xlink"
   xmlns="http://www.w3.org/2000/svg"
   xmlns:svg="http://www.w3.org/2000/svg"><defs
   id="defs5011"><linearGradient
     inkscape:collect="always"
     id="linearGradient186860"><stop
       style="stop-color:#a168cf;stop-opacity:1"
       offset="0"
       id="stop186856" /><stop
       style="stop-color:#6651a9;stop-opacity:1"
       offset="1"
       id="stop186858" /></linearGradient><linearGradient
     inkscape:collect="always"
     xlink:href="#linearGradient186860"
     id="linearGradient186862"
     x1="160.37895"
     y1="236.45016"
     x2="159.68578"
     y2="282.7041"
     gradientUnits="userSpaceOnUse"
     gradientTransform="matrix(1,0,0,1.727176,0,-203.04654)" /></defs><sodipodi:namedview
   id="namedview5009"
   pagecolor="#ffffff"
   bordercolor="#000000"
   borderopacity="0.25"
   inkscape:showpageshadow="2"
   inkscape:pageopacity="0.0"
   inkscape:pagecheckerboard="0"
   inkscape:deskcolor="#d1d1d1"
   showgrid="false"
   inkscape:zoom="0.73839285"
   inkscape:cx="9.4800485"
   inkscape:cy="358.2104"
   inkscape:window-width="1920"
   inkscape:window-height="1001"
   inkscape:window-x="-9"
   inkscape:window-y="-9"
   inkscape:window-maximized="1"
   inkscape:current-layer="Layer_1"
   inkscape:pageshadow="2"
   showguides="false" />
<rect
   y="0.023242312"
   fill-rule="evenodd"
   clip-rule="evenodd"
   fill="#164E86"
   width="280"
   height="173.7274"
   id="rect4994-7"
   style="fill:#a168cf;fill-opacity:1;stroke:none;stroke-width:0.787689;stroke-opacity:1"
   x="0" /><rect
   y="171.75064"
   fill-rule="evenodd"
   clip-rule="evenodd"
   fill="#164E86"
   width="280"
   height="108.81209"
   id="rect4994-7-5"
   style="fill:url(#linearGradient186862);fill-opacity:1;stroke:none;stroke-width:0.62339;stroke-opacity:1"
   x="0" />

<path
   style="fill:#ffffff;stroke-width:0.283235"
   d="m 40.887016,159.50485 v -19.5889 l 9.889639,9.79445 9.889568,9.79446 -9.889568,9.79444 -9.889639,9.79445 z m 70.187244,-8.94935 c -5.29923,-5.07717 -9.74748,-9.2735 -9.88501,-9.32517 -0.14045,-0.0528 -0.25007,3.87011 -0.25007,8.94934 v 9.04331 h -4.553706 -4.553698 v -18.03963 -18.03963 l 1.494202,0.0139 1.494161,0.0139 9.664621,9.14686 c 5.31554,5.03077 9.7661,9.14686 9.8901,9.14686 0.12402,0 0.22549,-3.99548 0.22549,-8.87887 v -8.87881 h 4.55372 4.55371 v 18.03963 18.03963 h -1.49928 -1.49929 z m 54.93259,9.0052 c -0.0776,-0.12432 -2.72829,-6.5615 -5.89048,-14.30487 -3.16219,-7.74335 -6.42663,-15.72777 -7.25431,-17.74313 l -1.50488,-3.6643 5.00009,-0.0772 c 2.75006,-0.0424 5.0555,-0.0222 5.1232,0.0448 0.0677,0.067 1.59581,3.84358 3.3958,8.39228 1.79999,4.5487 3.35922,8.35814 3.46495,8.46542 0.10573,0.10728 2.04391,-3.79308 4.30706,-8.66748 l 4.11482,-8.86253 h 1.45141 1.45141 l 4.11042,8.86247 c 2.26074,4.87435 4.19694,8.77471 4.30267,8.66748 0.10573,-0.10725 1.66496,-3.91666 3.46495,-8.46536 1.79999,-4.5487 3.3281,-8.32523 3.39581,-8.39228 0.0677,-0.067 2.37122,-0.0872 5.11895,-0.0448 l 4.99586,0.0772 -7.30838,17.89869 -7.3084,17.89869 h -1.53971 -1.53971 l -4.43182,-9.08529 c -2.43751,-4.99691 -4.53525,-9.08754 -4.66166,-9.09028 -0.12639,-0.002 -2.26425,4.11735 -4.75081,9.15576 l -4.521,9.16075 h -1.4226 c -0.78243,0 -1.48607,-0.10171 -1.56364,-0.22602 z m 47.82045,-0.20425 c -3.55361,-0.88654 -7.8548,-3.85657 -9.13456,-6.30752 -0.58475,-1.11991 -0.74612,-0.91687 2.98159,-3.75132 l 2.42651,-1.84504 1.87371,1.75809 c 2.15665,2.02357 3.71926,2.68427 6.34477,2.68266 2.14792,-0.002 3.4344,-0.68264 3.71993,-1.97015 0.36933,-1.66537 -0.24928,-2.44077 -2.95579,-3.70493 -7.65195,-3.57408 -8.36377,-3.97953 -10.28941,-5.86075 -2.50333,-2.44557 -3.22879,-4.22508 -3.05319,-7.48928 0.14443,-2.68457 0.92954,-4.43422 2.82144,-6.28772 2.51795,-2.46681 6.1177,-3.60459 10.63129,-3.36025 4.28335,0.23188 7.50402,1.82256 9.71634,4.79887 0.68257,0.91829 1.23848,1.81422 1.23534,1.99095 -0.003,0.17673 -1.31466,1.29825 -2.9145,2.49227 l -2.90879,2.17093 -1.35844,-1.37393 c -1.67904,-1.69818 -3.35865,-2.38767 -5.3539,-2.1978 -1.8322,0.17436 -2.6567,0.91159 -2.6567,2.37549 0,1.44074 0.79484,2.00659 5.80599,4.13336 5.89613,2.50235 8.19694,4.16725 9.76141,7.0635 0.53696,0.99406 0.62677,1.60458 0.62677,4.26088 0,3.02419 -0.025,3.14567 -1.01514,4.93271 -1.19056,2.14876 -3.53291,4.08659 -6.15007,5.08799 -2.14766,0.82174 -7.60436,1.03723 -10.1546,0.40099 z M 126.83846,141.46179 V 123.7006 l 10.57706,0.0739 10.57705,0.0739 1.63477,3.94617 1.63477,3.94615 -7.6581,0.075 -7.65811,0.075 v 2.5323 2.53229 h 5.54985 5.54984 v 3.80523 3.80524 h -5.54984 -5.54985 v 3.24149 3.2415 h 8.11132 8.11132 v 4.0871 4.0871 H 139.5035 126.83846 Z m 114.98143,11.06433 v -6.69685 l -6.11907,-10.93244 c -3.36548,-6.01285 -6.11906,-10.99318 -6.11906,-11.0674 0,-0.0743 2.25061,-0.10033 5.00133,-0.058 l 5.00133,0.077 3.32099,6.13065 c 1.82655,3.37186 3.38613,6.12856 3.46575,6.12601 0.0796,-0.002 1.61759,-2.74466 3.41773,-6.09355 1.80015,-3.3489 3.40577,-6.1405 3.56805,-6.20356 0.16228,-0.0631 2.42888,-0.0797 5.03688,-0.0371 l 4.74183,0.0776 -6.09596,10.85196 -6.09597,10.85195 -0.008,6.83533 -0.008,6.83533 h -4.55371 -4.55373 z m -219.717499,-4.15567 -8.962347,-8.87943 9.035154,-8.94822 9.035155,-8.94824 v 17.82768 c 0,9.80521 -0.03296,17.82766 -0.07281,17.82766 -0.04013,0 -4.105885,-3.99575 -9.035154,-8.87944 z m 40.984037,-8.87831 v -17.89758 l 9.035724,8.94878 9.035727,8.9488 -9.035727,8.94878 -9.035724,8.9488 z m -19.638465,-10.28873 -9.816402,-9.725 9.889138,-9.79393 9.889066,-9.793948 v 19.518948 c 0,10.7354 -0.03296,19.51892 -0.07274,19.51892 -0.04013,0 -4.49006,-4.37624 -9.889066,-9.72499 z"
   id="path177" /></svg>
