<?xml version="1.0" encoding="UTF-8" standalone="no"?>
<!-- Generator: Adobe Illustrator 16.0.0, SVG Export Plug-In . SVG Version: 6.00 Build 0)  -->

<svg
   version="1.1"
   id="Layer_1"
   x="0px"
   y="0px"
   width="280px"
   height="280px"
   viewBox="0 0 280 280"
   enable-background="new 0 0 280 280"
   xml:space="preserve"
   sodipodi:docname="nicktoons.svg"
   inkscape:version="1.2.2 (732a01da63, 2022-12-09)"
   xmlns:inkscape="http://www.inkscape.org/namespaces/inkscape"
   xmlns:sodipodi="http://sodipodi.sourceforge.net/DTD/sodipodi-0.dtd"
   xmlns:xlink="http://www.w3.org/1999/xlink"
   xmlns="http://www.w3.org/2000/svg"
   xmlns:svg="http://www.w3.org/2000/svg"><defs
   id="defs5011"><linearGradient
     inkscape:collect="always"
     xlink:href="#linearGradient186860"
     id="linearGradient186862"
     x1="157.28662"
     y1="243.99675"
     x2="159.68578"
     y2="282.7041"
     gradientUnits="userSpaceOnUse"
     gradientTransform="matrix(1,0,0,1.727176,2.0157562e-6,-203.06978)" /><linearGradient
     inkscape:collect="always"
     id="linearGradient186860"><stop
       style="stop-color:#f6ab01;stop-opacity:1"
       offset="0"
       id="stop186856" /><stop
       style="stop-color:#ed6d0c;stop-opacity:1"
       offset="1"
       id="stop186858" /></linearGradient></defs><sodipodi:namedview
   id="namedview5009"
   pagecolor="#ffffff"
   bordercolor="#000000"
   borderopacity="0.25"
   inkscape:showpageshadow="2"
   inkscape:pageopacity="0.0"
   inkscape:pagecheckerboard="0"
   inkscape:deskcolor="#d1d1d1"
   showgrid="false"
   inkscape:zoom="1.0442452"
   inkscape:cx="-260.47522"
   inkscape:cy="31.601773"
   inkscape:window-width="1643"
   inkscape:window-height="1020"
   inkscape:window-x="0"
   inkscape:window-y="0"
   inkscape:window-maximized="0"
   inkscape:current-layer="Layer_1"
   inkscape:pageshadow="2"
   showguides="false" />


<rect
   y="0"
   fill-rule="evenodd"
   clip-rule="evenodd"
   fill="#164E86"
   width="280"
   height="173.7274"
   id="rect4994-7"
   style="fill:#f6ab01;fill-opacity:1;stroke:none;stroke-width:0.787689;stroke-opacity:1"
   x="0" /><rect
   y="171.7274"
   fill-rule="evenodd"
   clip-rule="evenodd"
   fill="#164E86"
   width="280"
   height="108.81209"
   id="rect4994-7-5"
   style="fill:url(#linearGradient186862);fill-opacity:1;stroke:none;stroke-width:0.62339;stroke-opacity:1"
   x="0" /><path
   style="fill:#ffffff"
   d="m 78.339385,237.67592 c 0,-1.41958 8.959965,-11.73839 8.984314,-10.34686 0.0086,0.49308 -1.583368,3.30558 -3.537768,6.25 -3.440375,5.18315 -5.446546,6.69218 -5.446546,4.09686 z m 32.249995,-1.46181 c -2.96281,-1.06236 0.14912,-8.87437 6.86704,-17.2386 4.67466,-5.82025 7.38601,-11.93989 5.93357,-13.39233 -1.32164,-1.32164 -2.73176,-0.053 -6.51545,5.86189 -3.75915,5.8765 -8.04402,9.37864 -9.58696,7.83569 -0.59882,-0.59881 0.47744,-3.14495 2.91608,-6.89865 6.6885,-10.29534 8.15672,-13.5418 7.05516,-15.60007 -0.54439,-1.01721 -1.31147,-1.84779 -1.70462,-1.84573 -2.50964,0.0131 -7.73321,4.8661 -11.27646,10.47643 -2.27812,3.60716 -4.96663,6.99978 -5.974458,7.53915 -3.088,1.65265 -4.963897,1.1635 -4.963897,-1.29435 0,-1.50226 2.54755,-4.80557 7.499995,-9.72497 6.57494,-6.53105 8.95742,-10 6.86804,-10 -2.05491,0 -7.64525,4.77209 -12.274933,10.47827 -6.702701,8.26122 -19.418267,20.09027 -24.303264,22.60886 -4.559551,2.3508 -8.789838,2.5256 -8.789838,0.36321 0,-4.90347 8.420289,-13.47749 19.592652,-19.95034 9.100164,-5.2723 18.407343,-14.27483 18.407343,-17.80482 0,-5.30266 -7.344715,-5.89053 -10.619546,-0.84998 -2.88729,4.44405 -16.238355,16.85949 -20.101193,18.69253 -4.358209,2.0681 -8.615894,1.05511 -9.079456,-2.16019 -0.371087,-2.57388 5.879042,-8.36169 9.084996,-8.41298 3.87379,-0.062 11.009209,-5.1648 12.121201,-8.66838 1.196332,-3.76931 -1.241439,-3.48905 -5.742875,0.66022 -4.566317,4.20909 -8.288135,5.18437 -9.338518,2.44712 -0.409358,-1.06677 0.762347,-2.85332 3.531385,-5.38447 4.442163,-4.06054 4.930117,-5.56173 2.768644,-8.51772 -1.238705,-1.69403 -1.909415,-1.77228 -6.75,-0.78749 -2.956048,0.60139 -7.46686,1.90448 -10.024027,2.89574 -3.899058,1.51144 -4.907706,1.58792 -6.25,0.47392 -2.320013,-1.92544 -1.984327,-5.79153 0.649394,-7.47905 1.2375,-0.79291 4.142249,-1.94017 6.454998,-2.54948 6.844939,-1.80333 9.23151,-6.02438 5.946347,-10.51711 -1.18543,-1.62117 -2.343182,-1.77623 -9.565937,-1.28117 -6.727889,0.46114 -8.321141,0.29258 -8.79029,-0.93001 -0.315155,-0.82128 0.356395,-2.42264 1.492333,-3.55858 1.73356,-1.73356 3.689736,-2.14356 12.177176,-2.55226 8.805386,-0.42401 10.300694,-0.75655 11.573603,-2.57389 0.803974,-1.14783 1.46177,-2.44804 1.46177,-2.88935 0,-0.44131 -4.650297,-0.67868 -10.333993,-0.52749 -7.733903,0.20572 -10.763833,-0.0793 -12.042381,-1.13273 -3.118959,-2.56985 -0.176584,-3.1747 9.599427,-1.9733 9.533704,1.17163 12.776947,0.88989 12.776947,-1.1099 0,-0.65693 -2.41568,-0.95111 -6.416447,-0.78138 -7.053469,0.29922 -9.111673,-0.63725 -6.153933,-2.8 1.425999,-1.04271 3.640463,-1.24937 8.524108,-0.79549 5.188368,0.48221 6.862836,0.29364 7.839206,-0.88281 3.267325,-3.93689 -3.240617,-6.54873 -13.212953,-5.30276 -4.413224,0.55139 -5.614046,0.3325 -7.657022,-1.39573 -2.375272,-2.00934 -2.384755,-2.07922 -0.481829,-3.55035 2.405334,-1.85954 6.299739,-1.85418 14.05887,0.0193 10.947711,2.64343 20.5,1.00476 20.5,-3.51672 0,-2.66072 -4.187769,-6.59083 -7.790756,-7.31143 -3.413954,-0.68279 -8.209244,-4.34205 -8.209244,-6.26443 0,-2.12297 7.78931,-1.82907 12.286206,0.46358 7.038384,3.58837 11.861791,3.77167 13.117827,0.49849 1.025077,-2.67131 -1.344522,-5.38839 -6.805524,-7.803495 -2.910392,-1.28712 -6.266647,-3.38678 -7.458345,-4.66592 -1.872746,-2.01015 -1.958667,-2.44214 -0.633265,-3.18387 0.843403,-0.47199 2.466968,-0.56188 3.607923,-0.19976 2.363024,0.75 14.885173,10.495565 14.885173,11.584625 0,1.23098 6.63059,4.87893 8.86804,4.87893 4.38154,0 1.43086,-3.66261 -8.86804,-11.007675 -8.778277,-6.26058 -9.925542,-7.55449 -9.968192,-11.24232 -0.06803,-5.88288 7.354116,-1.88857 14.449822,7.77632 5.4086,7.366925 7.90834,9.473675 11.24088,9.473675 3.35743,0 2.81105,-1.48422 -2.2973,-6.240495 -3.96943,-3.69587 -7.42521,-8.44764 -7.42521,-10.20984 0,-0.30231 1.08125,-0.54966 2.40277,-0.54966 1.80326,0 3.31362,1.37227 6.05345,5.5 2.00788,3.025 4.30164,5.5 5.09724,5.5 1.81004,0 1.80471,-0.40671 -0.0524,-3.99798 -2.69107,-5.20395 -7.22493,-11.40639 -12.06265,-16.50201 -5.70644,-6.01065 -8.42962,-10.25396 -8.43466,-13.14302 -0.003,-1.73594 1.68069,-3.35698 3.48677,-3.35698 0.17981,0 2.6256,2.925 5.43508,6.5 3.73063,4.74713 5.74972,6.5 7.48722,6.5 1.60431,0 3.66742,1.52635 6.33529,4.68705 3.8071,4.51038 4.08432,4.64965 7.35407,3.6946 3.69656,-1.07972 3.60559,-0.63574 2.28072,-11.13165 -0.55709,-4.41344 -0.40887,-5.25 0.93021,-5.25 1.95903,0 3.67358,5.67502 3.68133,12.1849 0.008,6.685 1.47239,10.03138 4.2162,9.63444 3.99879,-0.5785 4.99685,-10.56153 1.76742,-17.67855 -3.007,-6.62683 -2.25405,-13.22816 1.35103,-11.84476 1.59988,0.61393 2.15053,3.50305 3.21512,16.86898 0.45742,5.74287 1.09017,8.09909 2.5232,9.39598 1.84005,1.66521 1.97003,1.5937 3.42265,-1.88291 1.8888,-4.52053 1.89035,-6.34848 0.01,-11.67808 -2.51927,-7.14039 -1.79363,-12.03558 1.48383,-10.01 0.92588,0.57223 1.57619,3.68699 1.95227,9.3507 0.53924,8.12094 1.51904,11.53802 2.45229,8.55242 0.23951,-0.76622 0.9251,-2.92277 1.52354,-4.79235 0.5984,-1.86957 1.08803,-5.55278 1.08803,-8.1849 0,-5.45743 1.40181,-9.91587 3.11771,-9.91587 1.15788,0 1.06,2.20079 -0.74498,16.75 -0.38184,3.0779 -0.26168,5.25 0.29043,5.25 1.23509,0 4.06716,-8.23417 4.9054,-14.2623 0.36422,-2.61926 1.06029,-5.00832 1.54683,-5.30902 1.55853,-0.96322 0.94769,6.88388 -1.11539,14.32876 -2.312,8.34312 -2.64843,14.62244 -0.75,13.9982 1.22719,-0.40353 2.77045,-4.3125 6.41769,-16.25564 1.22178,-4.00079 2.41541,-6.10774 3.58231,-6.32333 2.45169,-0.45296 2.25563,2.66015 -0.76277,12.11142 -2.6511,8.30122 -3.01401,10.71191 -1.61259,10.71191 0.48105,0 2.32243,-4.1625 4.09196,-9.25 3.04927,-8.76688 5.29494,-12.75 7.18839,-12.75 1.71097,0 0.73905,4.65898 -2.16766,10.39092 -3.01604,5.94753 -3.76897,10.00796 -2.05251,11.06879 1.47951,0.91439 5.87929,-5.60632 8.06047,-11.94603 2.21901,-6.44967 3.58323,-8.51368 5.62715,-8.51368 2.16787,0 1.62073,3.56341 -1.36947,8.91911 -1.51086,2.70609 -2.42174,5.24545 -2.02416,5.64303 1.37995,1.37995 3.7997,-1.85241 5.33166,-7.12214 1.49691,-5.14919 4.74291,-10.44 6.40512,-10.44 2.31378,0 1.75826,3.99963 -1.52825,11.00306 -1.98821,4.2368 -3.46247,8.78185 -3.27613,10.10011 0.76911,5.44115 9.91948,2.21018 16.3765,-5.7825 4.53627,-5.6151 5.35532,-6.28474 7.71229,-6.30536 3.36617,-0.0294 1.69473,3.24685 -5.14655,10.08813 -5.79635,5.79636 -6.53575,6.89656 -4.63486,6.89656 3.04628,0 6.01589,-2.37135 19.62408,-15.67055 8.64362,-8.44736 12.24145,-11.32945 14.14301,-11.32945 2.66395,0 4.08768,1.99376 3.15652,4.42032 -0.79248,2.06518 -14.30715,13.59684 -17.24324,14.71314 -3.89687,1.48159 -16.14896,11.94366 -16.14896,13.78961 0,1.84287 1.36926,1.21526 6.37721,-2.92307 5.22045,-4.31393 9.62279,-5.29981 9.62279,-2.15499 0,2.38894 -2.32965,4.41048 -8.42549,7.31119 -5.48227,2.60873 -7.06177,4.849285 -3.40784,4.834085 2.35651,-0.01 10.04255,-5.434995 12.86126,-9.078125 0.84037,-1.08616 2.86537,-2.07323 4.5,-2.1935 4.29672,-0.31613 3.99875,3.04213 -0.52793,5.95007 -6.26607,4.02533 -7.51207,5.116235 -6.74294,5.903655 0.41639,0.42628 2.71567,-0.20312 5.10953,-1.39867 4.93046,-2.462375 9.17217,-2.818085 9.9339,-0.833035 0.79171,2.063155 -0.43094,3.327585 -4.97624,5.146245 -4.39867,1.76 -5.65911,3.35322 -4.3406,5.48661 0.81348,1.31625 8.85807,1.02006 13.76635,-0.50686 1.85775,-0.57792 2.25,-0.32115 2.25,1.47291 0,2.09871 -1.10354,2.79253 -10.5,6.60155 -1.90871,0.77373 -1.89466,0.82905 0.30782,1.21192 1.26929,0.22066 3.39096,-0.30852 4.71481,-1.17594 3.17118,-2.07783 6.72825,-2.08275 6.30069,-0.009 -0.35087,1.70206 -3.58261,3.67739 -8.32332,5.08744 -2.02009,0.60085 -3,1.53772 -3,2.86822 0,1.60722 0.78702,2.03301 4.21771,2.28184 2.31974,0.16826 5.89444,-0.15704 7.94377,-0.72289 4.34751,-1.20041 5.65891,-0.52169 2.89582,1.49873 -1.15264,0.84283 -4.32028,1.41824 -7.80745,1.41824 -3.65728,0 -5.63505,0.37673 -5.24985,1 0.33992,0.55 1.47621,1 2.52509,1 2.74808,0 9.07278,3.20638 8.67552,4.39815 -0.52241,1.56724 -6.75378,2.84724 -11.35736,2.33293 -5.30903,-0.59312 -7.49899,0.58002 -4.28936,2.29776 1.61875,0.86633 4.92265,1.05936 10.88632,0.63605 9.41995,-0.66865 13.05979,-0.13449 13.05979,1.91656 0,2.87058 -3.98743,3.63796 -15.12341,2.91048 -6.96777,-0.45517 -10.87659,-0.35587 -10.87659,0.27633 0,1.91979 2.57256,3.0172 8.70468,3.71328 6.09312,0.69165 9.09806,2.41058 7.82239,4.47466 -1.09847,1.77736 -9.10961,1.15602 -17.88577,-1.38721 -11.0931,-3.21466 -14.83844,-3.8104 -16.6151,-2.64285 -1.24816,0.82024 -1.11082,1.35488 0.89706,3.49217 3.05999,3.25721 6.12816,4.13332 19.88666,5.67858 11.8587,1.33189 14.94253,2.49988 13.88394,5.2585 -0.89634,2.33584 -8.35092,2.14919 -14.19386,-0.35539 -4.50672,-1.93181 -16.32606,-2.84061 -17.79815,-1.36852 -1.32321,1.32321 1.55999,4.46751 6.29815,6.86852 5.13542,2.60231 7.87399,5.84181 5.94587,7.03345 -2.24551,1.38781 -6.20521,-0.81048 -11.81068,-6.55687 -3.2065,-3.28712 -6.57367,-5.97658 -7.4826,-5.97658 -2.75092,0 -1.88154,3.62956 1.56378,6.52861 1.769,1.48851 3.6815,3.63327 4.25,4.76612 0.69844,1.3918 2.76919,2.4497 6.38563,3.26228 5.5382,1.24439 9.89869,4.41932 8.71034,6.34212 -1.42789,2.31037 -9.7734,0.0461 -14.04869,-3.81155 -1.10751,-0.99932 -4.0902,-3.00989 -6.62822,-4.46792 -4.06792,-2.33693 -4.76374,-2.47122 -5.87385,-1.13362 -1.053,1.26879 -0.72928,1.96756 1.97617,4.26566 9.50579,8.07452 10.93397,10.2483 6.73319,10.2483 -1.46829,0 -4.12081,-1.9566 -7.45622,-5.5 -5.26124,-5.58932 -7.26472,-6.69399 -7.26472,-4.0056 0,2.20614 10.00382,12.55452 13.62928,14.09871 4.13912,1.76297 9.37072,6.22695 9.37072,7.99578 0,3.00572 -3.47399,1.11151 -11.59853,-6.32415 -8.71736,-7.97823 -13.40147,-11.21026 -13.40147,-9.24702 0,2.75422 3.44036,7.10753 9.68757,12.25828 9.23851,7.61706 12.06435,10.59943 12.79268,13.50135 1.31788,5.25082 -2.74726,3.92525 -7.75942,-2.53021 -2.02718,-2.61093 -7.0094,-8.26757 -11.07161,-12.57032 -6.72922,-7.12768 -7.68647,-7.79445 -10.76753,-7.5 -3.04702,0.2912 -3.41409,0.66341 -3.70906,3.76102 -0.18005,1.89082 0.23193,5.43546 0.91552,7.87699 1.00344,3.58395 2.12119,4.99616 5.80196,7.33044 4.65538,2.95235 7.01127,5.98435 7.07445,9.10473 0.0428,2.11451 -0.29845,2.14582 -3.77785,0.34655 -4.46761,-2.31029 -12.63853,-11.75956 -14.1226,-16.3321 -1.5841,-4.88075 -4.30873,-7.76829 -6.52686,-6.91712 -2.54963,0.97839 -1.80517,6.96947 2.06874,16.64837 1.98329,4.95523 3.34742,9.68333 3.03139,10.5069 -1.1986,3.12349 -3.42623,1.34152 -5.52763,-4.42175 -2.83832,-7.78436 -5.085,-10.54087 -7.87067,-9.65673 -2.98553,0.94757 -3.57016,3.57963 -3.39073,15.26538 0.15425,10.04567 -0.68309,12.87576 -3.09573,10.46312 -0.60219,-0.60219 -1.33192,-7.33921 -1.66287,-15.35182 -0.52708,-12.76145 -0.78361,-14.31575 -2.41415,-14.6274 -1.00343,-0.19179 -2.68212,0.42752 -3.73045,1.37624 -2.9657,2.68392 -3.46356,7.97309 -1.49701,15.90411 0.96094,3.87544 1.59072,8.39625 1.39951,10.04625 -0.30007,2.58941 -0.75824,3 -3.34765,3 -2.83987,0 -3.13344,-0.39661 -5.5,-7.43047 -1.375,-4.08676 -3.07763,-7.6168 -3.78362,-7.84454 -2.15767,-0.69602 -4.21638,1.84605 -4.21638,5.20633 0,4.03628 -2.14742,7.10982 -4.37126,6.25646 -1.34237,-0.51512 -1.535,-1.4562 -1.00553,-4.91248 0.36022,-2.35142 1.24808,-5.45316 1.97302,-6.89277 1.03645,-2.05823 1.06005,-2.97033 0.11048,-4.26895 -1.10383,-1.50958 -1.40088,-1.51609 -3.45715,-0.0758 -1.42005,0.99462 -2.24956,2.60592 -2.24956,4.3697 0,5.20479 -1.96591,9.09252 -4.59783,9.09252 -2.89819,0 -3.06252,-1.70405 -0.74859,-7.76298 1.27143,-3.32919 1.38062,-4.60282 0.47248,-5.51096 -0.83845,-0.83845 -1.65967,-0.87924 -2.83063,-0.14061 -1.83784,1.15927 -8.11586,11.11911 -10.21316,16.20277 -1.42856,3.4627 -3.74004,5.24352 -5.83228,4.49332 z M 92.757598,172.32558 c 1.228846,-0.47155 1.596473,-2.20079 1.647604,-7.75 l 0.06582,-7.14301 2.583556,5.80146 c 2.491973,5.59581 2.706347,5.79077 6.047572,5.5 l 3.46401,-0.30146 -0.16399,-14 c -0.0902,-7.7 -0.5364,-14.37268 -0.99157,-14.82818 -0.45516,-0.4555 -2.11989,-0.6805 -3.69939,-0.5 -2.815468,0.32174 -2.866182,0.43611 -2.58425,5.82818 l 0.287575,5.5 -2.312495,-4 c -1.958495,-3.38768 -2.882736,-4.04751 -6.037575,-4.31037 l -3.72508,-0.31036 v 14.97703 c 0,14.61102 0.217957,15.71619 3.168213,16.06475 0.367516,0.0434 1.380016,-0.19419 2.25,-0.52804 z m 21.581782,-17.39301 v -12 h -3 -3 v 12 12 h 3 3 z m 13.17127,7.34501 c 1.00581,-0.91024 1.82874,-2.34625 1.82874,-3.19113 0,-1.25393 0.23993,-1.20801 1.30603,0.24996 2.07813,2.84202 6.12012,1.74237 6.52202,-1.77436 l 0.32805,-2.87051 3.24481,3.14499 c 3.19118,3.09301 3.27385,3.11291 5.00166,1.2037 2.01017,-2.22121 1.3548,-4.13588 -2.72011,-7.94682 l -2.50118,-2.33916 2.40936,-3.55039 c 1.32515,-1.95271 2.40936,-4.27509 2.40936,-5.16084 0,-1.12273 0.90855,-1.61045 3,-1.61045 h 3 v 8.81642 8.81642 l 2.75,-0.31642 c 2.73007,-0.31413 2.75212,-0.37739 3.0431,-8.73077 0.19136,-5.49371 -0.10088,-8.65784 -0.84195,-9.11585 -0.67588,-0.41771 -0.13047,-0.89353 1.34824,-1.1762 2.37832,-0.45465 2.50104,-0.2294 2.90305,5.32837 0.50352,6.96107 2.65847,9.87803 7.29756,9.87803 4.0371,0 6.42939,-2.58825 8.08694,-8.74939 0.70901,-2.6354 1.30812,-3.72856 1.34557,-2.45516 0.0899,3.05732 4.36871,7.20455 7.43314,7.20455 5.22304,0 9.84244,-10.13844 8.03949,-17.6447 -1.09554,-4.56111 -3.33466,-8.3553 -4.93082,-8.3553 -0.81088,0 -1.47432,0.35523 -1.47432,0.78942 0,0.43418 -1.2375,0.77168 -2.75,0.75 -2.34727,-0.0336 -3.13274,0.74583 -5.36348,5.32258 -2.32848,4.77728 -2.67816,5.10443 -3.20657,3.00001 -0.3262,-1.29911 -1.28763,-3.26201 -2.13652,-4.36201 -1.47908,-1.91662 -1.60176,-1.92483 -2.94243,-0.197 -0.9651,1.24381 -1.52646,1.42062 -1.80997,0.57009 -0.65145,-1.95437 -3.58634,-0.2572 -5.78157,3.34332 -1.77122,2.90511 -2.00241,3.02424 -2.00572,1.03359 -0.004,-2.66835 -0.7825,-2.7287 -8.00374,-0.6208 -3.025,0.88301 -6.83021,1.66517 -8.45603,1.73813 -2.60071,0.11672 -3.11061,0.6666 -4.24214,4.57481 -1.61412,5.57503 -3.02398,7.11786 -2.51421,2.75136 0.45181,-3.87013 -1.37608,-5.87539 -4.58966,-5.03502 -1.81332,0.47419 -2.20054,1.29812 -2.2127,4.70815 -0.0142,3.98652 -0.0597,4.04455 -1.27954,1.63337 -0.97898,-1.93507 -2.04002,-2.5 -4.69543,-2.5 -2.80121,0 -3.86682,0.64215 -5.80807,3.5 -2.00747,2.95534 -2.31899,4.44955 -2.00187,9.60192 0.45597,7.40819 2.72917,11.39808 6.49396,11.39808 1.45651,0 3.47114,-0.74474 4.47695,-1.65499 z m -4.71582,-7.66649 c -0.37156,-1.48042 -0.32715,-4.37621 0.0987,-6.43509 0.46426,-2.24462 0.93807,-3.04276 1.18339,-1.99343 0.22502,0.9625 1.25377,1.75 2.28612,1.75 1.03234,0 2.33566,-0.7875 2.89626,-1.75 0.8138,-1.39721 1.02542,-0.92762 1.04969,2.3294 0.0266,3.56894 -0.24484,4.06947 -2.16924,4 -1.37617,-0.0497 -2.66195,0.83223 -3.4345,2.35569 l -1.23484,2.4351 -0.67556,-2.69167 z m 44.21123,-10.34519 c -1.4115,-1.4115 -0.26752,-10.33333 1.32496,-10.33333 1.13501,0 2.08396,5.85065 1.3945,8.59768 -0.60588,2.41403 -1.48195,2.97316 -2.71946,1.73565 z m 16.97281,-4.02719 c -0.81077,-0.81077 -0.83513,-7.63271 -0.0347,-9.71861 1.11027,-2.8933 2.39522,-0.52617 2.39522,4.41247 0,4.6182 -0.9386,6.72806 -2.36052,5.30614 z m 16.36916,-1.80614 0.50865,-5 1.33745,3.80619 c 1.20163,3.41967 1.65044,3.7751 4.4195,3.5 l 3.08205,-0.30619 -0.0851,-10.857 c -0.0874,-11.14826 -0.69666,-13.08993 -3.91493,-12.4771 -1.30353,0.24822 -2.03728,1.54158 -2.46431,4.34378 -0.33446,2.19467 -0.67196,3.45996 -0.75,2.81174 -0.3898,-3.23741 -7.38658,-6.05154 -8.30858,-3.34174 -0.18333,0.53882 -0.19226,5.96596 -0.0198,12.0603 l 0.31349,11.08061 2.68651,-0.3103 c 2.43448,-0.28118 2.73424,-0.77937 3.19516,-5.31029 z m 20.3565,-1.57258 c 3.61373,-2.84256 3.67881,-8.59806 0.13486,-11.92742 -2.68016,-2.51788 -3.3864,-5.27738 -1.12894,-4.41111 2.14386,0.82268 4.43608,-2.14695 3.88448,-5.03244 -0.56996,-2.98157 -2.8882,-3.31489 -7.27556,-1.0461 -5.71951,2.95767 -6.45684,7.738 -1.97998,12.83686 1.65,1.87925 3,3.60015 3,3.82422 0,0.22407 -1.2375,0.38967 -2.75,0.36799 -2.13068,-0.0305 -2.82411,0.48367 -3.07908,2.2833 -0.181,1.2775 -0.0826,2.965 0.21861,3.75 0.80751,2.10434 5.95004,1.73462 8.97561,-0.6453 z M 127.95542,90.182575 c -2.01449,-3.85963 -8.2869,-10.876 -9.05444,-10.12837 -0.9968,0.97093 7.32131,12.87837 8.99637,12.87837 1.31045,0 1.31757,-0.33688 0.0581,-2.75 z M 81.339385,226.61966 c 0,-1.2434 2.454282,-3.78327 7.939062,-8.21591 l 2.439062,-1.97118 -2.35267,3.5 c -4.684761,6.96938 -8.025454,9.75297 -8.025454,6.68709 z M 236.33939,213.34924 c 0,-1.76593 2.15276,-1.45839 2.77083,0.39583 0.21771,0.65312 -0.31666,1.1875 -1.1875,1.1875 -0.87083,0 -1.58333,-0.7125 -1.58333,-1.58333 z m 22.32778,-12.45525 c -8.84183,-4.56177 -16.7046,-10.57334 -12.32778,-9.42535 14.47928,3.79774 24.45638,9.29844 22.52718,12.41995 -0.98159,1.58825 -1.75926,1.35992 -10.1994,-2.9946 z m 1.533,-31.92815 -2.36078,-1.96673 4,-0.001 c 3.93044,-0.001 8.09646,2.00514 6.81779,3.28381 -1.33696,1.33696 -6.17672,0.58406 -8.45701,-1.31561 z m 4.13922,-53.91664 c 0,-0.92173 4.1196,-2.33037 4.80647,-1.6435 0.21659,0.21659 0.0972,0.87374 -0.26535,1.46033 -0.79317,1.28338 -4.54112,1.43455 -4.54112,0.18317 z M 53.839385,94.738265 c -1.65,-0.53984 -4.120628,-1.28877 -5.490285,-1.66428 -2.938624,-0.80566 -3.825437,-3.61441 -1.43126,-4.53315 2.045817,-0.78505 7.152072,2.07543 9.178518,5.14174 0.817834,1.2375 1.319584,2.20212 1.114999,2.14361 -0.204585,-0.0585 -1.721972,-0.54807 -3.371972,-1.08792 z m 197.500005,-9.21993 c 8.85776,-9.40083 19.17045,-14.92244 17.43639,-9.33576 -0.38411,1.2375 -1.20193,2.54706 -1.81738,2.91014 -0.61546,0.36308 -2.86709,2.04955 -5.00363,3.74771 -2.13653,1.69815 -5.73653,3.58419 -8,4.19118 -2.26346,0.60699 -4.56538,1.35061 -5.11538,1.65247 -0.55,0.30187 0.575,-1.12272 2.5,-3.16574 z M 62.22651,84.296565 c -1.68119,-2.02571 -7.366134,-5.87742 -14.76124,-10.00116 -3.643293,-2.03162 -5.738497,-3.88174 -5.945436,-5.25 -0.620542,-4.10295 3.466566,-2.18915 12.580529,5.89087 4.965337,4.40203 9.286267,8.67703 9.602068,9.5 0.7476,1.94821 0.215062,1.8978 -1.475921,-0.13971 z m 22.112875,-11.44733 c 0,-2.43704 2.336773,-2.09257 2.823324,0.4162 0.191373,0.98677 -0.318761,1.66714 -1.25,1.66714 -0.927635,0 -1.573324,-0.855 -1.573324,-2.08334 z m 189.261905,-4.60714 c 0.92977,-0.92976 1.97126,-1.4097 2.31443,-1.06653 0.98418,0.98418 -0.52669,2.75701 -2.34963,2.75701 -1.52648,0 -1.52374,-0.13154 0.0352,-1.69048 z m -40.08972,-4.96506 c 0.19293,-1.00182 1.13312,-1.97216 2.0893,-2.15631 2.4204,-0.46612 2.17849,1.50602 -0.35078,2.85964 -1.78933,0.95762 -2.03894,0.85663 -1.73852,-0.70333 z m -41.15194,-6.34446 c 0.0147,-3.11507 1.26308,-6.000005 2.59639,-6.000005 1.86537,0 1.73539,0.948563 -0.61663,4.500005 -1.09275,1.65 -1.98364,2.325 -1.97976,1.5 z"
   id="path299" /></svg>
