<?xml version="1.0" encoding="UTF-8" standalone="no"?>
<!-- Generator: Adobe Illustrator 16.0.0, SVG Export Plug-In . SVG Version: 6.00 Build 0)  -->

<svg
   version="1.1"
   id="Layer_1"
   x="0px"
   y="0px"
   width="280px"
   height="280px"
   viewBox="0 0 280 280"
   enable-background="new 0 0 280 280"
   xml:space="preserve"
   sodipodi:docname="rtpafrica.svg"
   inkscape:version="1.2.2 (732a01da63, 2022-12-09)"
   xmlns:inkscape="http://www.inkscape.org/namespaces/inkscape"
   xmlns:sodipodi="http://sodipodi.sourceforge.net/DTD/sodipodi-0.dtd"
   xmlns:xlink="http://www.w3.org/1999/xlink"
   xmlns="http://www.w3.org/2000/svg"
   xmlns:svg="http://www.w3.org/2000/svg"><defs
   id="defs5011"><linearGradient
     inkscape:collect="always"
     xlink:href="#linearGradient186860"
     id="linearGradient186862"
     x1="157.28662"
     y1="243.99675"
     x2="159.68578"
     y2="282.7041"
     gradientUnits="userSpaceOnUse"
     gradientTransform="matrix(1,0,0,1.727176,2.0157562e-6,-203.06978)" /><linearGradient
     inkscape:collect="always"
     id="linearGradient186860"><stop
       style="stop-color:#f6ab01;stop-opacity:1"
       offset="0"
       id="stop186856" /><stop
       style="stop-color:#ed6d0c;stop-opacity:1"
       offset="1"
       id="stop186858" /></linearGradient></defs><sodipodi:namedview
   id="namedview5009"
   pagecolor="#ffffff"
   bordercolor="#000000"
   borderopacity="0.25"
   inkscape:showpageshadow="2"
   inkscape:pageopacity="0.0"
   inkscape:pagecheckerboard="0"
   inkscape:deskcolor="#d1d1d1"
   showgrid="false"
   inkscape:zoom="1.0442452"
   inkscape:cx="-46.923845"
   inkscape:cy="31.601773"
   inkscape:window-width="1643"
   inkscape:window-height="1020"
   inkscape:window-x="-37"
   inkscape:window-y="15"
   inkscape:window-maximized="0"
   inkscape:current-layer="Layer_1"
   inkscape:pageshadow="2"
   showguides="false" />


<rect
   y="0"
   fill-rule="evenodd"
   clip-rule="evenodd"
   fill="#164E86"
   width="280"
   height="173.7274"
   id="rect4994-7"
   style="fill:#f6ab01;fill-opacity:1;stroke:none;stroke-width:0.787689;stroke-opacity:1"
   x="0" /><rect
   y="171.7274"
   fill-rule="evenodd"
   clip-rule="evenodd"
   fill="#164E86"
   width="280"
   height="108.81209"
   id="rect4994-7-5"
   style="fill:url(#linearGradient186862);fill-opacity:1;stroke:none;stroke-width:0.62339;stroke-opacity:1"
   x="0" /><path
   style="fill:#ffffff;stroke-width:0.476728"
   d="m 60.431042,148.06948 c -0.755374,-1.66099 -0.732596,-3.34146 0.06877,-5.074 0.283251,-0.61235 5.460637,-0.78371 23.678133,-0.78371 h 23.315635 l 0.5643,1.39345 c 0.75947,1.87545 0.71021,3.36988 -0.1607,4.87625 -0.70974,1.22758 -1.2083,1.25395 -23.716755,1.25395 H 61.188679 Z m -6.306738,-10.90823 c -1.239685,-1.68661 -1.242798,-3.88234 -0.0079,-5.56245 0.948372,-1.29028 1.161815,-1.29946 30.267861,-1.29946 28.829435,0 29.324705,0.0206 30.037735,1.25395 0.84952,1.46936 0.93515,3.65188 0.21054,5.36614 -0.50093,1.18506 -1.28987,1.22145 -30.029844,1.38452 -29.461029,0.16718 -29.517175,0.16507 -30.478399,-1.1427 z m 136.239206,-0.27247 c -1.81028,-1.09761 -4.24756,-5.61496 -4.82355,-8.94013 -0.2379,-1.37339 -0.43253,-4.33652 -0.43253,-6.58477 0,-5.25168 1.31788,-9.93295 3.5656,-12.66533 2.14013,-2.60158 5.76028,-3.02569 8.22335,-0.96337 1.63182,1.36631 3.09104,4.34469 3.60601,7.36014 0.22952,1.3439 0.1454,1.4107 -1.7772,1.4107 -1.16506,0 -2.01812,-0.27769 -2.01812,-0.65693 0,-0.36129 -0.43162,-1.34876 -0.95915,-2.19438 -1.41413,-2.2668 -3.8128,-2.15784 -5.19687,0.23609 -2.37412,4.10635 -2.33934,12.22901 0.0695,16.22063 0.84284,1.39667 1.39618,1.75533 2.70815,1.75533 1.45477,0 1.78714,-0.27671 2.8239,-2.35114 1.04783,-2.09658 1.35995,-2.35111 2.88288,-2.35111 1.60398,0 1.69253,0.0858 1.45625,1.41066 -1.3392,7.50889 -5.63709,11.03673 -10.12821,8.31361 z m -61.07944,-0.11643 c 0,-0.23303 1.4921,-7.15866 3.31581,-15.39033 l 3.31581,-14.96666 1.83295,0.18631 1.83295,0.18629 2.56224,11.59896 c 1.40922,6.37942 2.92005,13.22123 3.35738,15.20402 l 0.79516,3.60507 h -1.95113 -1.95114 l -0.69389,-3.60507 -0.69389,-3.60507 -3.27043,-0.17905 -3.27043,-0.17905 -0.79773,3.78412 -0.79772,3.78412 h -1.79298 c -0.98614,0 -1.79296,-0.19065 -1.79296,-0.42366 z m 10.14977,-12.89945 c 1.1e-4,-1.1363 -1.58743,-8.62083 -1.82856,-8.62083 -0.18932,0 -1.79642,8.03249 -1.79642,8.9788 0,0.23416 0.81562,0.42575 1.81246,0.42575 1.20826,0 1.81247,-0.26125 1.81252,-0.78372 z m 9.06216,-2.03766 v -15.36076 h 5.79983 5.79983 v 2.82138 2.82136 h -3.98739 -3.98738 v 4.07529 4.07532 h 3.62488 3.62491 v 2.82136 2.82136 h -3.62491 -3.62488 v 5.64274 5.64272 h -1.81245 -1.81244 z m 14.22126,0.15676 0.097,-15.20404 4.71237,0.0252 c 3.78187,0.0203 4.94815,0.24295 5.90647,1.12763 1.78005,1.64326 2.60907,4.43629 2.61067,8.79562 7.5e-4,3.41895 -0.0947,3.84394 -1.35799,6.01614 -0.74763,1.28553 -1.58906,2.46632 -1.86985,2.62397 -0.36947,0.20746 0.10877,1.87979 1.73117,6.05302 l 2.24171,5.76637 h -2.13718 -2.13717 l -2.06818,-5.64272 c -1.83402,-5.0039 -2.18818,-5.64273 -3.12826,-5.64273 h -1.06011 v 5.64273 5.64272 h -1.81888 -1.81889 l 0.0971,-15.20402 z m 9.02469,-2.73763 c 0.80506,-1.26012 0.88239,-3.90692 0.16385,-5.60665 -0.42237,-0.99907 -0.9579,-1.21701 -2.99055,-1.21701 h -2.47604 l -0.1112,3.37359 c -0.0612,1.8555 -0.0414,3.68937 0.044,4.0753 0.25172,1.13778 4.56438,0.63565 5.36992,-0.62523 z m 7.20314,2.58087 v -15.36076 h 1.81244 1.81247 v 15.36076 15.36077 h -1.81247 -1.81244 z m 22.47434,14.88423 c 0,-0.42727 1.27373,-6.2905 5.31705,-24.47564 l 1.29616,-5.82957 1.82594,0.18685 1.82594,0.18685 2.84353,12.8529 c 1.56396,7.06908 3.0863,13.9109 3.38303,15.20402 l 0.53949,2.35113 h -1.94219 -1.94219 l -0.79303,-3.76181 -0.79301,-3.76182 h -3.19872 -3.19875 l -0.81338,3.76182 -0.81336,3.76181 h -1.76826 c -0.97252,0 -1.76825,-0.21444 -1.76825,-0.47654 z m 10.14979,-12.84657 c 1e-4,-1.08641 -1.58223,-8.62083 -1.81048,-8.62083 -0.21132,0 -1.81449,7.72074 -1.81449,8.73834 0,0.38147 0.77463,0.66621 1.81244,0.66621 1.20825,0 1.81247,-0.26125 1.81253,-0.78372 z m -157.843633,1.27117 c -0.759474,-1.87542 -0.710227,-3.36988 0.160689,-4.87624 0.71317,-1.23351 1.208297,-1.25394 30.392922,-1.25394 28.281472,0 29.695982,0.0536 30.267862,1.14656 0.79229,1.51425 0.76241,4.04746 -0.063,5.33945 -0.60551,0.94779 -3.23999,1.03763 -30.428559,1.03763 H 54.289884 Z m 0.223878,-11.34309 c -1.052418,-1.93761 -0.994219,-3.82029 0.166945,-5.40007 0.948162,-1.29001 1.165766,-1.29944 29.929203,-1.29944 29.093357,0 30.025967,0.0645 30.823947,2.1315 0.49224,1.27509 0.28315,3.50128 -0.44755,4.76517 -0.7131,1.23338 -1.2083,1.25393 -30.204686,1.25393 H 54.737631 Z m 82.361455,-11.40181 c 0.32197,-0.86207 0.84886,-2.27275 1.17084,-3.13483 0.49294,-1.31983 0.86516,-1.56743 2.35619,-1.56743 1.00422,0 1.77075,0.28732 1.77075,0.66373 0,0.36506 -0.51665,1.77573 -1.14813,3.13485 -1.05761,2.27629 -1.28954,2.4711 -2.94161,2.4711 h -1.79347 z m -75.811088,0.15676 c -0.801386,-1.73253 -0.824164,-3.41301 -0.06878,-5.07399 L 61.188694,95.816 h 22.991758 c 22.508458,0 23.007008,0.0263 23.716758,1.25393 0.87092,1.50637 0.92017,3.00081 0.16069,4.87626 l -0.5643,1.39346 H 84.177974 c -18.217497,0 -23.394885,-0.17138 -23.678134,-0.78372 z"
   id="path287" /></svg>
