<?xml version="1.0" encoding="UTF-8" standalone="no"?>
<!-- Generator: Adobe Illustrator 16.0.0, SVG Export Plug-In . SVG Version: 6.00 Build 0)  -->
<svg
   version="1.1"
   id="Layer_1"
   x="0px"
   y="0px"
   width="280px"
   height="280px"
   viewBox="0 0 280 280"
   enable-background="new 0 0 280 280"
   xml:space="preserve"
   sodipodi:docname="adultswim.svg"
   inkscape:version="1.2.2 (732a01da63, 2022-12-09)"
   xmlns:inkscape="http://www.inkscape.org/namespaces/inkscape"
   xmlns:sodipodi="http://sodipodi.sourceforge.net/DTD/sodipodi-0.dtd"
   xmlns:xlink="http://www.w3.org/1999/xlink"
   xmlns="http://www.w3.org/2000/svg"
   xmlns:svg="http://www.w3.org/2000/svg"><defs
   id="defs216276"><linearGradient
   inkscape:collect="always"
   xlink:href="#linearGradient186860"
   id="linearGradient186862"
   x1="157.28662"
   y1="243.99675"
   x2="159.68578"
   y2="282.7041"
   gradientUnits="userSpaceOnUse"
   gradientTransform="matrix(1,0,0,1.727176,4.4911316e-6,-203.06978)" /><linearGradient
   inkscape:collect="always"
   id="linearGradient186860"><stop
     style="stop-color:#2b2b2b;stop-opacity:1"
     offset="0"
     id="stop186856" /><stop
     style="stop-color:#4b4448;stop-opacity:1"
     offset="1"
     id="stop186858" /></linearGradient>
	
	
	
</defs><sodipodi:namedview
   id="namedview216274"
   pagecolor="#ffffff"
   bordercolor="#666666"
   borderopacity="1.0"
   inkscape:pageshadow="2"
   inkscape:pageopacity="0.0"
   inkscape:pagecheckerboard="0"
   showgrid="false"
   inkscape:zoom="2.1011173"
   inkscape:cx="314.35656"
   inkscape:cy="62.109812"
   inkscape:window-width="1920"
   inkscape:window-height="991"
   inkscape:window-x="-9"
   inkscape:window-y="-9"
   inkscape:window-maximized="1"
   inkscape:current-layer="layer1"
   inkscape:showpageshadow="2"
   inkscape:deskcolor="#d1d1d1" />
<g
   inkscape:groupmode="layer"
   id="layer2"
   inkscape:label="BG"><rect
     y="0"
     fill-rule="evenodd"
     clip-rule="evenodd"
     fill="#164E86"
     width="280"
     height="173.7274"
     id="rect4994-7"
     style="fill:#2b2b2b;fill-opacity:1;stroke:none;stroke-width:0.787689;stroke-opacity:1"
     x="0" /><rect
     y="171.7274"
     fill-rule="evenodd"
     clip-rule="evenodd"
     fill="#164E86"
     width="280"
     height="108.81209"
     id="rect4994-7-5"
     style="fill:url(#linearGradient186862);fill-opacity:1;stroke:none;stroke-width:0.62339;stroke-opacity:1"
     x="0" /></g>
<g
   inkscape:groupmode="layer"
   id="layer1"
   inkscape:label="Logo"><path
     style="fill:#ffffff;stroke-width:0.310683"
     d="m 14.811728,168.38188 c -0.0697,-0.25796 -0.0963,-13.84765 -0.0591,-30.19931 l 0.0675,-29.73028 h 5.61914 5.61914 l 0.0748,3.60087 0.0748,3.60087 h -2.32966 c -1.64695,0 -2.41623,0.1474 -2.62506,0.50297 -0.21414,0.36462 -0.27686,6.68808 -0.22802,22.99019 l 0.0674,22.48723 2.5579,0.10586 2.55789,0.10587 -0.075,3.40268 -0.075,3.40267 -5.56,0.0997 c -4.30596,0.0773 -5.58857,-0.006 -5.68667,-0.36932 z m 221.681372,0.20806 c -0.0958,-0.13541 -0.17424,-1.70802 -0.17424,-3.49467 v -3.24847 l 2.41753,-0.10619 2.41754,-0.10619 V 138.73655 115.8387 l -2.42687,-0.10637 -2.42689,-0.10636 0.0747,-3.58684 0.0747,-3.58684 h 5.88049 5.8805 l 0.0669,30.19194 0.0669,30.19193 h -5.83847 c -3.21114,0 -5.91685,-0.11079 -6.01269,-0.24622 z M 31.154838,157.12648 c -2.58246,-1.25545 -4.18169,-5.26596 -4.18169,-10.48672 0,-2.13051 0.67909,-5.9086 1.11076,-6.17971 0.10781,-0.0677 0.19602,-0.34458 0.19602,-0.61528 0,-0.64017 1.67422,-2.45033 3.00558,-3.24963 0.57498,-0.3452 2.45674,-1.13628 4.18169,-1.75794 4.02583,-1.45089 4.44317,-1.99187 4.34129,-5.62743 -0.075,-2.67665 -2.99362,-3.94211 -4.34381,-1.8834 -0.34702,0.52912 -0.72364,1.62098 -0.83693,2.42634 l -0.20597,1.46428 -3.26694,0.002 -3.26695,0.002 -0.084,-1.38766 c -0.0462,-0.76322 0.0329,-1.73126 0.17568,-2.1512 0.14281,-0.41994 0.33547,-1.25223 0.42814,-1.84953 0.2588,-1.66813 1.53272,-3.6711 3.03572,-4.77301 1.76074,-1.29087 4.62117,-1.8575 7.89883,-1.56472 3.87425,0.34607 5.90985,1.90346 6.98747,5.34594 0.46607,1.4889 0.50815,2.5917 0.52845,13.85066 0.0205,11.34954 0.15606,15.0056 0.63523,17.12644 l 0.18774,0.83098 h -3.53321 -3.53321 l -0.28693,-1.16308 c -0.1578,-0.63968 -0.28692,-1.49417 -0.28692,-1.89885 0,-0.58189 -0.25966,-0.35396 -1.24144,1.08973 -1.97334,2.90177 -4.83135,3.81776 -7.64464,2.4501 z m 7.31159,-7.57507 c 0.91221,-0.80503 1.28463,-2.56562 1.36374,-6.44704 0.0421,-2.06648 0.004,-3.86021 -0.0854,-3.98607 -0.0891,-0.12587 -0.8158,0.19379 -1.61497,0.71033 -0.79916,0.51656 -1.56913,0.93918 -1.71102,0.93918 -0.1419,0 -0.61988,0.51138 -1.06217,1.13637 -0.74482,1.0525 -0.80417,1.32719 -0.80417,3.72162 0,2.38555 0.0611,2.67164 0.79163,3.70389 0.68903,0.97367 0.91337,1.08637 1.73098,0.86962 0.51665,-0.13695 1.14276,-0.42851 1.39136,-0.6479 z m 16.52153,7.5178 c -2.27708,-1.30618 -3.77987,-4.02543 -4.51865,-8.17635 -0.58721,-3.29931 -0.84405,-10.13938 -0.56506,-15.0489 0.46465,-8.17693 1.35292,-11.19168 3.97705,-13.49802 0.77588,-0.68192 1.30796,-0.81404 3.2784,-0.81404 2.6558,0 3.57059,0.54484 5.06455,3.01634 l 0.81595,1.34985 v -7.64044 -7.64045 l 3.79051,0.10221 3.79052,0.1022 0.0107,23.82116 0.0107,23.82116 -3.53985,0.10275 -3.53984,0.10275 v -1.85702 c 0,-1.83441 -0.37489,-2.47219 -0.71166,-1.21072 -0.31202,1.16874 -1.75109,2.93941 -2.88727,3.55256 -1.43249,0.77307 -3.54294,0.737 -4.97603,-0.085 z m 6.33747,-7.49463 c 1.0235,-0.65898 1.40711,-1.82075 1.70327,-5.1584 0.55309,-6.23312 0.18198,-13.94162 -0.7613,-15.81358 -1.09989,-2.18275 -3.24183,-1.711 -4.17123,0.91869 -0.55585,1.57275 -0.57829,1.99488 -0.49485,9.30922 0.0778,6.81527 0.14359,7.79007 0.5959,8.82306 0.51242,1.17027 1.57014,2.31924 2.15179,2.33743 0.17292,0.005 0.61231,-0.18199 0.97642,-0.41642 z m 16.87339,7.53948 c -1.38471,-0.68779 -2.59547,-2.28594 -3.29056,-4.34333 -0.46671,-1.38142 -0.4991,-2.48387 -0.4991,-16.98874 v -15.51145 l 3.855,-0.1022 3.85499,-0.10221 v 13.69152 13.6915 l 0.64151,0.90651 c 1.22513,1.73124 3.44158,0.84075 4.079349,-1.63894 0.24956,-0.9703 0.36916,-4.77008 0.44009,-13.98162 l 0.0974,-12.64922 h 3.6154 c 2.65128,0 3.6488,0.1231 3.74066,0.46165 0.0689,0.25391 0.12042,8.48051 0.11451,18.28136 l -0.0107,17.8197 h -3.74553 -3.74553 v -1.8466 c 0,-1.81419 -0.34671,-2.47154 -0.63307,-1.2003 -0.222219,0.98649 -1.861739,2.75802 -3.234189,3.49458 -1.49195,0.80071 -3.68906,0.80811 -5.28018,0.0178 z m 59.719712,-0.0666 c -3.7189,-1.49164 -5.26913,-4.10385 -5.41479,-9.1241 l -0.0737,-2.53901 3.31218,-0.10314 3.31216,-0.10316 0.2884,1.94975 c 0.33203,2.24481 0.43453,2.50682 1.31277,3.35611 1.77706,1.71849 4.17107,-0.16371 4.18307,-3.28878 0.009,-2.39623 -0.90199,-3.5252 -4.04521,-5.01197 -6.65455,-3.14767 -8.49484,-6.04519 -8.16451,-12.85509 0.076,-1.56713 0.29758,-3.24901 0.4924,-3.7375 0.70649,-1.77162 1.84391,-3.65805 2.20563,-3.65805 0.20351,0 0.37005,-0.13422 0.37005,-0.29825 0,-0.54858 1.93999,-1.51195 3.92033,-1.94679 2.37658,-0.52184 5.91029,-0.21026 7.6948,0.67848 2.61769,1.3037 4.32755,4.84323 4.32755,8.95827 v 1.47198 h -3.39762 -3.39762 l -0.006,-1.38496 c -0.003,-0.78893 -0.22202,-1.78229 -0.50826,-2.30825 -0.44182,-0.81189 -0.69711,-0.92165 -2.11596,-0.9096 -1.36652,0.0116 -1.6888,0.14507 -2.10529,0.87188 -0.75543,1.3183 -0.63601,3.10096 0.29593,4.41791 0.43325,0.61221 1.0507,1.21712 1.37211,1.34424 0.32145,0.12711 0.81964,0.37199 1.10713,0.54416 0.28749,0.17216 1.16957,0.59282 1.96017,0.93478 3.59424,1.55462 5.55283,3.53763 6.56439,6.64614 0.64418,1.97964 0.65571,7.46592 0.0201,9.63945 -0.9902,3.3868 -2.87499,5.49428 -5.85426,6.54598 -2.206,0.77871 -5.58893,0.73875 -7.65628,-0.0905 z m -22.73792,-0.27812 c -1.2371,-0.38562 -2.18206,-1.41686 -2.7128,-2.96057 -0.53023,-1.54223 -0.55415,-2.13528 -0.55415,-13.74993 0,-13.65524 0.18016,-12.58652 -2.12168,-12.58652 h -1.29486 l 0.0748,-3.60087 0.0748,-3.60087 1.63347,-0.10996 1.63347,-0.10995 v -5.34766 -5.34767 l 3.72432,0.10247 3.72431,0.10247 0.0725,5.26282 0.0725,5.26281 h 1.69165 1.69162 v 3.69317 3.69321 h -1.69881 -1.69881 l 0.004,9.87931 c 0.003,5.43363 0.0708,10.233 0.15284,10.66527 0.18227,0.9598 1.13078,1.61464 2.33877,1.61464 h 0.90246 v 3.46546 c 0,3.28162 -0.0312,3.47729 -0.58805,3.68817 -0.65909,0.24958 -6.31072,0.23702 -7.12194,-0.0159 z m -16.601643,-0.3977 c -0.003,-0.15235 -0.003,-10.91342 -7.8e-4,-23.91349 l 0.005,-23.63651 3.790523,-0.1022 3.79051,-0.1022 v 24.01569 24.0157 h -3.78965 c -2.08431,0 -3.792163,-0.12465 -3.795233,-0.27699 z m 59.753203,-0.36933 c -0.14571,-0.68252 -0.81195,-5.04928 -1.1974,-7.84805 -0.30553,-2.2185 -0.99388,-6.97054 -1.47117,-10.15631 -0.63614,-4.2459 -1.07752,-7.22661 -1.50389,-10.15631 -0.22174,-1.52345 -0.52149,-3.51778 -0.66612,-4.43184 -0.56001,-3.53895 -0.77727,-3.32389 3.35779,-3.32389 2.15509,0 3.70976,0.15138 3.80562,0.37054 0.0891,0.20379 0.27424,1.90728 0.4114,3.78554 0.13714,1.87824 0.35976,4.32906 0.49472,5.44625 0.26178,2.16697 0.6737,6.70153 1.07363,11.81826 0.13493,1.72656 0.31908,3.6378 0.40923,4.24717 l 0.16387,1.10796 0.24457,-0.9233 c 0.13452,-0.50781 0.42298,-2.75143 0.64105,-4.98582 0.62038,-6.35698 1.76042,-17.08806 2.07065,-19.49077 l 0.17996,-1.39408 4.07313,0.10146 4.07309,0.10146 0.17874,1.47727 c 0.0983,0.81251 0.36937,3.47162 0.60237,5.90913 0.233,2.43752 0.53811,5.42901 0.67801,6.64777 0.1399,1.21875 0.38613,3.62857 0.54715,5.35514 0.52255,5.60256 0.61938,6.30126 0.88463,6.38278 0.14375,0.0442 0.34267,-1.08303 0.44206,-2.50491 0.0994,-1.42189 0.3015,-3.58241 0.44919,-4.80117 0.14767,-1.21875 0.44533,-4.04406 0.66149,-6.27844 0.21617,-2.2344 0.59365,-5.93671 0.83882,-8.22738 l 0.4458,-4.16485 3.54709,0.10233 3.54706,0.10233 -0.082,1.47727 c -0.0451,0.81251 -0.23932,2.39136 -0.43155,3.50854 -0.34859,2.02612 -0.74421,4.56336 -1.58355,10.15632 -0.2439,1.62501 -0.59801,3.95172 -0.78694,5.17048 -0.18894,1.21876 -0.53839,3.54548 -0.77662,5.17048 -0.2382,1.62501 -0.53141,3.45315 -0.65161,4.06253 -0.12017,0.60938 -0.29149,1.68964 -0.38072,2.40058 -0.0892,0.71094 -0.29055,1.99895 -0.44744,2.86223 l -0.28524,1.56962 h -4.27342 -4.27343 l -0.13982,-1.01564 c -0.0769,-0.5586 -0.25556,-1.72434 -0.397,-2.59054 -0.14145,-0.8662 -0.25642,-2.11265 -0.25545,-2.7699 0,-0.65725 -0.17103,-2.60764 -0.38215,-4.33422 -0.5183,-4.23852 -1.13105,-10.07873 -1.31781,-12.56007 -0.32847,-4.36423 -0.76645,-3.23363 -1.43194,3.69639 -0.14631,1.52344 -0.4481,4.34874 -0.67064,6.27844 -0.22254,1.9297 -0.56837,5.00429 -0.76849,6.83243 -0.20015,1.82814 -0.44551,4.03021 -0.54526,4.89349 l -0.18139,1.56962 h -4.39103 c -3.95512,0 -4.4047,-0.0642 -4.529,-0.64632 z m 31.72677,-17.64521 v -18.2915 l 3.72432,0.10247 3.72431,0.10247 0.0678,18.18902 0.0678,18.18903 h -3.79211 -3.79214 z m 11.17405,0.10257 0.0664,-18.18913 3.6579,-0.10247 3.65788,-0.10247 0.005,2.13373 0.005,2.13374 0.9092,-1.53201 c 1.49268,-2.51517 2.70349,-3.21304 5.61446,-3.23603 1.931,-0.0152 2.68046,0.13107 3.37183,0.65831 0.99602,0.7596 2.37799,2.74864 2.37799,3.42261 0,1.02183 0.70545,0.63978 1.48602,-0.80477 1.44908,-2.68179 2.41479,-3.26419 5.4399,-3.28066 2.72152,-0.0148 3.95149,0.52008 4.77557,2.07682 0.18287,0.34548 0.49108,0.85225 0.68491,1.12615 0.19384,0.2739 0.54403,1.42945 0.77826,2.56791 0.36169,1.7582 0.4258,4.27206 0.4258,16.69355 v 14.62364 h -3.78965 -3.78966 v -12.71751 c 0,-13.14508 -0.0644,-14.05295 -1.10838,-15.62782 -0.97833,-1.47583 -2.76932,-0.76969 -3.66954,1.4468 -0.40118,0.98776 -0.44919,2.48541 -0.44919,14.01212 v 12.90616 l -3.85499,-0.10221 -3.85499,-0.1022 -0.0687,-13.46488 -0.0687,-13.46487 -0.69897,-1.03095 c -0.79564,-1.17356 -1.62999,-1.3047 -2.68705,-0.42236 -1.51324,1.26318 -1.57309,1.8656 -1.57309,15.8387 v 12.72902 l -3.855,10e-5 -3.85499,1.1e-4 z m -11.17405,-26.30404 v -4.25732 h 3.79823 3.7982 l -0.0739,4.15485 -0.0739,4.15485 -3.72431,0.10248 -3.72432,0.10246 z m 62.77097,-1.57975 c -0.0353,-1.21273 -0.14966,-1.57551 -0.50303,-1.59557 -0.3911,-0.0222 -0.38164,-0.072 0.0653,-0.34336 0.72629,-0.44102 1.43746,-0.44102 1.43746,0 0,0.20312 -0.16965,0.36932 -0.37701,0.36932 -0.25359,0 -0.40975,0.51376 -0.47705,1.56961 l -0.10004,1.56961 z m 1.50501,-0.21671 c -0.0663,-0.98247 -0.0297,-1.86567 0.0813,-1.96266 0.26527,-0.23167 0.7153,1.47742 0.4523,1.71772 -0.11118,0.10156 -0.24957,0.60014 -0.30759,1.10796 -0.0681,0.59645 -0.14816,0.29093 -0.22605,-0.86302 z m 0.9085,1.09351 c -0.21839,-0.80417 -0.0656,-1.02014 0.42112,-0.59511 0.29889,0.26103 0.31337,0.43126 0.0664,0.78032 -0.24703,0.34906 -0.35338,0.30866 -0.48748,-0.18521 z m 0.72442,-1.773 c 0.0458,-0.44012 0.23036,-0.86863 0.41005,-0.95225 0.48306,-0.2248 0.40178,1.26706 -0.0833,1.53012 -0.30683,0.16638 -0.38905,0.0209 -0.3267,-0.57787 z"
     id="path357" /></g></svg>
