<?xml version="1.0" encoding="UTF-8" standalone="no"?>
<!-- Generator: Adobe Illustrator 16.0.0, SVG Export Plug-In . SVG Version: 6.00 Build 0)  -->

<svg
   version="1.1"
   id="Layer_1"
   x="0px"
   y="0px"
   width="280px"
   height="280px"
   viewBox="0 0 280 280"
   enable-background="new 0 0 280 280"
   xml:space="preserve"
   sodipodi:docname="animax.svg"
   inkscape:version="1.2.2 (732a01da63, 2022-12-09)"
   xmlns:inkscape="http://www.inkscape.org/namespaces/inkscape"
   xmlns:sodipodi="http://sodipodi.sourceforge.net/DTD/sodipodi-0.dtd"
   xmlns:xlink="http://www.w3.org/1999/xlink"
   xmlns="http://www.w3.org/2000/svg"
   xmlns:svg="http://www.w3.org/2000/svg"><defs
   id="defs5011"><inkscape:perspective
     sodipodi:type="inkscape:persp3d"
     inkscape:vp_x="0 : 140 : 1"
     inkscape:vp_y="0 : 1000 : 0"
     inkscape:vp_z="280 : 140 : 1"
     inkscape:persp3d-origin="140 : 93.333333 : 1"
     id="perspective492" /><linearGradient
     inkscape:collect="always"
     id="linearGradient186860"><stop
       style="stop-color:#0c6bbf;stop-opacity:1;"
       offset="0"
       id="stop186856" /><stop
       style="stop-color:#0c5293;stop-opacity:1;"
       offset="1"
       id="stop186858" /></linearGradient><linearGradient
     inkscape:collect="always"
     xlink:href="#linearGradient186860"
     id="linearGradient186862"
     x1="160.37895"
     y1="236.45016"
     x2="159.68578"
     y2="282.7041"
     gradientUnits="userSpaceOnUse"
     gradientTransform="matrix(1,0,0,1.727176,0,-203.04654)" /></defs><sodipodi:namedview
   id="namedview5009"
   pagecolor="#ffffff"
   bordercolor="#000000"
   borderopacity="0.25"
   inkscape:showpageshadow="2"
   inkscape:pageopacity="0.0"
   inkscape:pagecheckerboard="0"
   inkscape:deskcolor="#d1d1d1"
   showgrid="false"
   inkscape:zoom="1.0442452"
   inkscape:cx="338.52203"
   inkscape:cy="66.55525"
   inkscape:window-width="1920"
   inkscape:window-height="991"
   inkscape:window-x="-9"
   inkscape:window-y="-9"
   inkscape:window-maximized="1"
   inkscape:current-layer="Layer_1"
   inkscape:pageshadow="2"
   showguides="false" />
<rect
   y="0.023242312"
   fill-rule="evenodd"
   clip-rule="evenodd"
   fill="#164E86"
   width="280"
   height="173.7274"
   id="rect4994-7"
   style="fill:#0c6bbf;fill-opacity:1;stroke:none;stroke-width:0.787689;stroke-opacity:1"
   x="0" /><rect
   y="171.75064"
   fill-rule="evenodd"
   clip-rule="evenodd"
   fill="#164E86"
   width="280"
   height="108.81209"
   id="rect4994-7-5"
   style="fill:url(#linearGradient186862);fill-opacity:1;stroke:none;stroke-width:0.62339;stroke-opacity:1"
   x="0" />

<path
   style="fill:#ffffff;stroke-width:0.188394"
   d="m 16.591162,181.20848 c 0.09473,-0.1913 8.46288,-13.66821 18.595891,-29.9487 l 18.423657,-29.60088 6.591176,-0.0518 6.591175,-0.0518 v 21.41375 21.41373 H 54.732242 c -9.598335,0 -12.034183,-0.0504 -11.93035,-0.24667 0.07176,-0.13567 1.550135,-2.53334 3.28529,-5.32816 l 3.154814,-5.08149 h 3.739629 3.739622 l -0.0014,-8.04157 -0.0014,-8.04157 -0.625333,0.98669 c -0.343929,0.54269 -6.479683,10.39978 -13.634995,21.90466 l -13.009662,20.91795 -6.514584,0.0518 c -6.175211,0.0491 -6.505618,0.0337 -6.342352,-0.29601 z m 53.978833,-38.23695 v -21.4113 l 6.159993,0.006 6.159993,0.006 7.284079,12.5654 7.284079,12.5654 0.0463,-12.57073 0.0463,-12.57072 h 5.124501 5.1245 v 21.4113 21.41131 l -6.15999,-0.006 -6.159995,-0.006 -7.374009,-12.72952 -7.374008,-12.72954 -0.0463,12.73615 -0.0463,12.73614 h -5.034594 -5.034593 z m 40.107405,0 v -21.4113 h 5.0359 5.03591 v 21.4113 21.41131 h -5.03591 -5.0359 z m 29.63232,9.56988 -0.0464,-11.84142 -8.54305,11.48005 c -4.69868,6.31403 -8.64165,11.62047 -8.76216,11.79209 -0.17313,0.24658 -0.21933,-1.67491 -0.22022,-9.16024 l -0.001,-9.47229 8.85029,-11.88969 8.85027,-11.88968 h 4.99256 4.99256 l 0.0463,12.77651 0.0462,12.77652 7.45536,-12.77652 7.45536,-12.77651 h 6.16857 6.16856 v 21.4113 21.41131 h -5.03459 -5.03459 l -0.0463,-12.77676 -0.0463,-12.77677 -7.44967,12.77677 -7.44967,12.77676 h -6.17285 -6.17286 z m 44.04969,11.17324 c 0.27923,-0.36749 2.20731,-2.76306 4.28462,-5.32348 l 3.77693,-4.6553 5.62044,-0.005 5.62043,-0.005 v -7.84265 -7.84263 l -1.32437,1.47845 c -0.72839,0.81315 -5.39317,6.09619 -10.36618,11.74009 -4.973,5.6439 -9.59729,10.88249 -10.27621,11.64132 l -1.23439,1.37967 0.003,-8.18788 0.003,-8.18788 11.63781,-13.17239 11.63782,-13.17239 h 4.99508 4.99507 v 21.4113 21.41131 h -14.94095 -14.94096 z m 32.36326,0.42151 c 0.13829,-0.25724 12.95109,-19.73321 13.66468,-20.77084 l 0.40773,-0.5929 -7.09189,-10.53674 c -3.90054,-5.79521 -7.09189,-10.56795 -7.09189,-10.6061 0,-0.0382 2.73153,-0.0668 6.07007,-0.0637 l 6.07006,0.006 4.02801,6.00318 c 3.97419,5.92297 4.03208,5.99738 4.33144,5.56918 0.1669,-0.2387 4.20878,-6.36157 8.98195,-13.60638 l 8.67851,-13.1724 h 6.64968 c 5.27054,0 6.62222,0.0511 6.51716,0.24668 -0.10028,0.18666 -17.39722,26.47901 -23.4918,35.70892 l -0.8733,1.32256 6.80912,10.12311 c 3.74501,5.56771 6.86941,10.23412 6.94313,10.36979 0.10619,0.19545 -1.12887,0.24487 -5.94666,0.23799 l -6.08068,-0.009 -3.83352,-5.71415 c -2.10842,-3.14279 -3.88897,-5.7088 -3.95678,-5.70224 -0.0678,0.006 -1.80742,2.58183 -3.86583,5.72283 l -3.74256,5.71093 h -6.65461 c -5.27452,0 -6.62711,-0.0512 -6.52202,-0.24668 z"
   id="path346" /></svg>
