<?xml version="1.0" encoding="UTF-8" standalone="no"?>
<!-- Generator: Adobe Illustrator 16.0.0, SVG Export Plug-In . SVG Version: 6.00 Build 0)  -->

<svg
   version="1.1"
   id="Layer_1"
   x="0px"
   y="0px"
   width="280px"
   height="280px"
   viewBox="0 0 280 280"
   enable-background="new 0 0 280 280"
   xml:space="preserve"
   sodipodi:docname="hln.svg"
   inkscape:version="1.2.2 (732a01da63, 2022-12-09)"
   xmlns:inkscape="http://www.inkscape.org/namespaces/inkscape"
   xmlns:sodipodi="http://sodipodi.sourceforge.net/DTD/sodipodi-0.dtd"
   xmlns:xlink="http://www.w3.org/1999/xlink"
   xmlns="http://www.w3.org/2000/svg"
   xmlns:svg="http://www.w3.org/2000/svg"><defs
   id="defs216276"><linearGradient
   inkscape:collect="always"
   xlink:href="#linearGradient186860"
   id="linearGradient186862"
   x1="160.37895"
   y1="236.45016"
   x2="159.68578"
   y2="282.7041"
   gradientUnits="userSpaceOnUse"
   gradientTransform="matrix(1,0,0,1.727176,4.4911316e-6,-203.06978)" /><linearGradient
   inkscape:collect="always"
   id="linearGradient186860"><stop
     style="stop-color:#4097d2;stop-opacity:0.96862745;"
     offset="0"
     id="stop186856" /><stop
     style="stop-color:#3a54a8;stop-opacity:0.98823529;"
     offset="1"
     id="stop186858" /></linearGradient>
	
	
	
</defs><sodipodi:namedview
   id="namedview216274"
   pagecolor="#ffffff"
   bordercolor="#666666"
   borderopacity="1.0"
   inkscape:pageshadow="2"
   inkscape:pageopacity="0.0"
   inkscape:pagecheckerboard="0"
   showgrid="false"
   inkscape:zoom="2.1011173"
   inkscape:cx="175.38288"
   inkscape:cy="187.28131"
   inkscape:window-width="1920"
   inkscape:window-height="991"
   inkscape:window-x="-9"
   inkscape:window-y="-9"
   inkscape:window-maximized="1"
   inkscape:current-layer="Layer_1"
   inkscape:showpageshadow="2"
   inkscape:deskcolor="#d1d1d1" />
<g
   inkscape:groupmode="layer"
   id="layer2"
   inkscape:label="BG"><rect
     y="0"
     fill-rule="evenodd"
     clip-rule="evenodd"
     fill="#164E86"
     width="280"
     height="173.7274"
     id="rect4994-7"
     style="fill:#4097d3;fill-opacity:0.96862745;stroke:none;stroke-width:0.787689;stroke-opacity:1"
     x="0" /><rect
     y="171.7274"
     fill-rule="evenodd"
     clip-rule="evenodd"
     fill="#164E86"
     width="280"
     height="108.81209"
     id="rect4994-7-5"
     style="fill:url(#linearGradient186862);fill-opacity:1;stroke:none;stroke-width:0.62339;stroke-opacity:1"
     x="0" /></g>
<g
   inkscape:groupmode="layer"
   id="layer1"
   inkscape:label="Logo" /><path
   style="fill:#ffffff;stroke-width:0.15039"
   d="M 11.063671,135.47585 V 73.283728 H 29.774033 48.4844 V 92.57598 111.86823 H 59.643791 70.803187 V 92.57598 73.283728 h 27.174902 c 14.946191,0 29.981301,0.05051 33.411361,0.112227 l 6.23646,0.112227 v 38.387668 38.38764 h 16.50522 16.50521 V 111.78302 73.282549 l 18.60475,0.04288 18.60476,0.04287 11.16476,20.454291 11.16478,20.45429 0.0339,-20.496598 0.0339,-20.4966 h 18.70983 18.70983 v 62.192728 62.19272 l -18.26829,-0.0429 -18.26829,-0.0429 -11.50123,-21.11983 -11.50123,-21.11984 -0.0339,21.16214 -0.0339,21.16215 H 139.42961 70.803187 V 178.46043 159.2528 H 59.643791 48.4844 v 19.20763 19.20763 H 29.774033 11.063671 Z m 29.502802,32.87298 0.03399,-19.24995 H 59.711197 78.82193 v 19.29225 19.29225 H 89.513569 100.20521 V 135.56046 83.437549 H 89.513569 78.821934 v 19.292241 19.29226 H 59.711205 40.600471 L 40.566476,102.7721 40.532482,83.522159 H 29.840846 19.149253 l -0.03361,52.081621 -0.03361,52.08161 10.725247,-0.0434 10.725266,-0.0434 z m 130.037237,5.6692 0.0342,-13.58071 h -20.51538 -20.51536 v -38.5009 -38.500896 l -10.65823,0.04331 -10.65823,0.04331 -0.0342,51.869066 c -0.0188,28.52799 -0.006,51.96444 0.0294,52.08098 0.0507,0.16903 6.35566,0.20326 31.1736,0.16923 l 31.11007,-0.0427 z m 29.53523,-17.51533 0.0337,-31.09606 h 0.65758 0.65758 l 15.42867,28.30376 c 8.48577,15.56708 16.11418,29.56029 16.95203,31.09607 l 1.52337,2.7923 12.19317,0.0433 12.19319,0.0431 -0.0336,-52.08151 -0.0336,-52.081503 h -10.69164 -10.69162 l -0.0337,30.597623 -0.0337,30.59762 -0.5935,-0.0516 -0.59351,-0.0516 -16.72041,-30.58837 -16.72041,-30.588364 h -12.48865 -12.48865 v 52.123914 52.12393 l 10.72504,-0.0434 10.72505,-0.0434 z"
   id="path249" /></svg>
