<?xml version="1.0" encoding="UTF-8" standalone="no"?>
<!-- Generator: Adobe Illustrator 16.0.0, SVG Export Plug-In . SVG Version: 6.00 Build 0)  -->

<svg
   version="1.1"
   id="Layer_1"
   x="0px"
   y="0px"
   width="280px"
   height="280px"
   viewBox="0 0 280 280"
   enable-background="new 0 0 280 280"
   xml:space="preserve"
   sodipodi:docname="rtpint.svg"
   inkscape:version="1.2.2 (732a01da63, 2022-12-09)"
   xmlns:inkscape="http://www.inkscape.org/namespaces/inkscape"
   xmlns:sodipodi="http://sodipodi.sourceforge.net/DTD/sodipodi-0.dtd"
   xmlns:xlink="http://www.w3.org/1999/xlink"
   xmlns="http://www.w3.org/2000/svg"
   xmlns:svg="http://www.w3.org/2000/svg"><defs
   id="defs5011"><linearGradient
     inkscape:collect="always"
     id="linearGradient186860"><stop
       style="stop-color:#0c6bbf;stop-opacity:1;"
       offset="0"
       id="stop186856" /><stop
       style="stop-color:#0c5293;stop-opacity:1;"
       offset="1"
       id="stop186858" /></linearGradient><linearGradient
     inkscape:collect="always"
     xlink:href="#linearGradient186860"
     id="linearGradient186862"
     x1="160.37895"
     y1="236.45016"
     x2="159.68578"
     y2="282.7041"
     gradientUnits="userSpaceOnUse"
     gradientTransform="matrix(1,0,0,1.727176,0,-203.04654)" /></defs><sodipodi:namedview
   id="namedview5009"
   pagecolor="#ffffff"
   bordercolor="#000000"
   borderopacity="0.25"
   inkscape:showpageshadow="2"
   inkscape:pageopacity="0.0"
   inkscape:pagecheckerboard="0"
   inkscape:deskcolor="#d1d1d1"
   showgrid="false"
   inkscape:zoom="1.0442452"
   inkscape:cx="100.07228"
   inkscape:cy="247.06841"
   inkscape:window-width="1920"
   inkscape:window-height="1001"
   inkscape:window-x="-9"
   inkscape:window-y="-9"
   inkscape:window-maximized="1"
   inkscape:current-layer="Layer_1"
   inkscape:pageshadow="2"
   showguides="false" />
<rect
   y="0.023242312"
   fill-rule="evenodd"
   clip-rule="evenodd"
   fill="#164E86"
   width="280"
   height="173.7274"
   id="rect4994-7"
   style="fill:#0c6bbf;fill-opacity:1;stroke:none;stroke-width:0.787689;stroke-opacity:1"
   x="0" /><rect
   y="171.75064"
   fill-rule="evenodd"
   clip-rule="evenodd"
   fill="#164E86"
   width="280"
   height="108.81209"
   id="rect4994-7-5"
   style="fill:url(#linearGradient186862);fill-opacity:1;stroke:none;stroke-width:0.62339;stroke-opacity:1"
   x="0" />

<path
   style="fill:#ffffff;stroke-width:0.205189"
   d="m 44.417193,158.42347 c -0.52544,-0.60231 -1.01927,-2.22725 -1.12419,-3.6991 -0.11826,-1.65893 0.33595,-4.06393 0.94073,-4.98105 0.43732,-0.66318 0.65903,-0.67253 18.27685,-0.77071 9.80878,-0.0546 18.14621,-0.002 18.52761,0.11685 0.59584,0.18578 0.76944,0.41617 1.23321,1.63672 0.49095,1.29204 0.53976,1.57051 0.53976,3.07942 0,2.00982 -0.36959,3.65047 -1.01439,4.50305 -0.41313,0.54624 -1.56329,0.58124 -18.71702,0.56949 -14.91021,-0.0102 -18.34789,-0.094 -18.66256,-0.45467 z m -5.49324,-14.42828 c -1.2926,-1.70912 -1.3476,-6.40202 -0.0985,-8.40627 0.40748,-0.65385 0.6868,-0.66147 24.26725,-0.6627 l 23.85503,-0.001 0.42977,0.75559 c 1.19555,2.1019 1.09095,6.76057 -0.18764,8.35732 -0.39443,0.49258 -2.52751,0.5403 -24.12919,0.53983 -22.3077,-3.3e-4 -23.72232,-0.0346 -24.13669,-0.58252 z m 151.651017,0.0422 c -2.47497,-1.26241 -4.28189,-5.47478 -5.14708,-11.99912 -0.31044,-2.34098 -0.34554,-3.06214 -0.34554,-7.09942 0,-4.05388 0.0344,-4.75443 0.3517,-7.15673 0.44121,-3.34075 0.89929,-5.23651 1.8297,-7.57206 0.84997,-2.13364 1.71957,-3.38409 2.83448,-4.07588 2.55724,-1.58673 5.20283,0.83799 6.49056,5.94868 0.46761,1.85582 0.98563,5.42448 0.88631,6.1057 -0.0452,0.31007 -0.44047,0.42574 -1.4548,0.42574 h -1.39272 l -0.24252,-1.24827 c -0.58595,-3.01573 -1.46307,-4.41428 -2.76156,-4.40323 -1.06246,0.009 -1.69973,0.72117 -2.35383,2.63037 -0.62359,1.82014 -0.92361,3.70324 -1.0892,6.83647 -0.34519,6.53129 0.70668,12.78955 2.37007,14.10111 0.69077,0.54467 1.71493,0.48849 2.27357,-0.12472 0.61221,-0.67199 1.20776,-2.20986 1.48708,-3.8401 l 0.22318,-1.30253 h 1.4986 c 1.14872,0 1.49859,0.10148 1.49859,0.43467 0,1.2086 -0.59533,4.80474 -1.08551,6.55712 -0.99857,3.56987 -2.53921,5.56859 -4.47814,5.80964 -0.5922,0.0736 -1.21902,0.0613 -1.39294,-0.0274 z m 18.97994,-0.28776 c -1.12739,-0.67395 -2.03127,-1.91256 -2.87465,-3.93924 -1.47111,-3.53514 -2.174,-7.76299 -2.27876,-13.70649 -0.11297,-6.41038 0.46528,-11.00971 1.88715,-15.00989 1.22064,-3.43405 2.49938,-5.01177 4.33394,-5.34721 1.92429,-0.35185 3.62567,1.30559 5.00793,4.87859 3.27827,8.47396 2.64579,25.18896 -1.17616,31.08356 -1.41004,2.17469 -3.33444,2.97624 -4.89945,2.04068 z m 3.24467,-8.0296 c 1.18538,-1.91982 1.84659,-5.78029 1.84659,-10.78118 0,-5.02636 -0.66028,-8.85974 -1.86105,-10.80471 -0.85344,-1.38236 -2.13017,-1.59179 -3.08866,-0.50665 -1.64526,1.86267 -2.53151,7.38868 -2.19357,13.67748 0.23919,4.4514 0.92674,7.33643 2.10783,8.84469 0.5418,0.69188 0.77218,0.78924 1.60782,0.67942 0.8075,-0.10611 1.07966,-0.29702 1.58104,-1.10905 z M 99.506963,124.93885 v -18.64078 h 1.517797 1.5178 v 18.64078 18.64078 h -1.5178 -1.517797 z m 5.691747,-0.0109 v -18.65168 l 1.42069,0.0941 1.42069,0.0941 2.97461,11.2195 2.9746,11.2195 0.0633,-11.2195 0.0632,-11.2195 h 1.45456 1.45455 v 18.47435 18.47434 l -1.20159,0.0785 -1.20159,0.0785 -3.22533,-12.01822 -3.22532,-12.0182 -0.0332,12.02295 -0.0332,12.02295 h -1.45298 -1.45298 v -18.65168 z m 18.2136,3.50604 v -15.14564 h -2.2767 -2.2767 v -3.49514 -3.49515 h 6.0712 6.0712 v 3.49515 3.49514 h -2.2767 -2.2767 v 15.14564 15.14563 h -1.5178 -1.5178 z m 9.35977,-3.49515 v -18.64869 l 4.83799,0.0872 4.83799,0.0872 v 3.32872 3.32871 l -3.32019,0.0887 -3.32019,0.0888 v 3.81646 3.81647 l 3.00398,0.0892 3.00398,0.0892 0.036,3.41193 0.036,3.41193 h -3.04002 -3.04003 v 4.32732 4.32733 h 3.35624 3.35623 l -0.0361,3.41193 -0.036,3.41192 -4.83799,0.0872 -4.83799,0.0872 z m 11.88944,0.0106 V 106.2981 l 3.38343,0.004 c 3.50509,0.004 4.07747,0.17293 5.15964,1.52196 0.68673,0.85607 1.54229,3.18623 1.86013,5.06614 0.32659,1.93172 0.44018,6.11077 0.23248,8.55329 -0.26161,3.07648 -1.5388,6.7443 -2.55251,7.33025 -0.20222,0.1169 -0.36769,0.34476 -0.36769,0.50636 0,0.16161 0.79685,3.36535 1.77077,7.11944 0.97392,3.75408 1.77077,6.90539 1.77077,7.00289 0,0.0975 -0.75416,0.17379 -1.67591,0.16952 l -1.6759,-0.008 -1.70753,-6.80835 -1.70752,-6.80834 -0.72467,-0.008 -0.72465,-0.008 -0.0342,6.74064 -0.0342,6.74064 -1.48618,0.0938 -1.48618,0.0938 V 124.9488 Z m 6.82998,-2.53121 c 0.67728,-1.04371 0.92164,-2.17466 0.92164,-4.2657 0,-2.10567 -0.22316,-3.23359 -0.83353,-4.21305 -0.34878,-0.55967 -0.64266,-0.64877 -2.14335,-0.64985 l -1.73914,-0.001 v 5.03649 5.03649 l 1.68901,-0.15075 c 1.36853,-0.12215 1.76801,-0.2725 2.10537,-0.79239 z m 6.07132,2.50974 v -18.65168 l 1.41626,0.0941 1.41626,0.0941 2.97903,11.21682 2.97904,11.21682 0.0632,-11.21682 0.0632,-11.21682 h 1.45455 1.45456 v 18.47435 18.47434 l -1.20159,0.0798 -1.20159,0.0798 -3.22533,-12.01836 -3.22532,-12.01836 -0.0332,12.02177 -0.0332,12.02177 h -1.45299 -1.45298 z m 13.72876,16.41503 c 0.17545,-1.24141 1.3875,-9.59691 2.69343,-18.56779 l 2.3744,-16.31068 1.51089,-0.0896 1.5109,-0.0896 2.64216,18.23111 c 1.45319,10.02711 2.66947,18.4231 2.70285,18.65776 0.0477,0.33553 -0.27037,0.40663 -1.48929,0.33287 l -1.54997,-0.0938 -0.42683,-2.99584 c -0.23475,-1.64771 -0.5168,-3.63545 -0.62675,-4.4172 l -0.19992,-1.42137 -2.60415,0.0899 -2.60414,0.0899 -0.59655,4.32733 -0.59653,4.32732 -1.52977,0.0934 -1.52976,0.0934 z m 8.15286,-13.61753 c 0,-0.43101 -1.57218,-11.4091 -1.617,-11.29112 -0.0257,0.0677 -0.40609,2.68299 -0.84524,5.81174 l -0.79846,5.68864 h 1.63035 c 0.8967,0 1.63035,-0.0942 1.63035,-0.20926 z m 19.98437,-2.78658 v -18.64078 h 1.5178 1.5178 v 18.64078 18.64078 h -1.5178 -1.5178 z m 20.23734,0 v -18.64078 h 1.42513 1.42516 l 3.065,11.53787 3.06502,11.53786 v -11.53786 -11.53787 h 1.45456 1.45456 v 18.64078 18.64078 h -1.19083 -1.19081 l -3.26773,-12.13436 -3.26771,-12.13437 -0.0332,12.13437 -0.0332,12.13436 h -1.453 -1.453 z m 13.53371,18.39415 c 0,-0.13565 1.20358,-8.524 2.67463,-18.64078 l 2.67462,-18.39415 h 1.4856 1.48558 l 0.18973,1.24827 c 0.75961,4.99781 5.15005,35.42985 5.15005,35.69723 0,0.20724 -0.57409,0.33606 -1.49768,0.33606 h -1.49768 l -0.62336,-4.41054 -0.62336,-4.41054 -2.60575,-0.0899 -2.60574,-0.0898 -0.61714,4.5003 -0.61714,4.50031 -1.48618,8e-5 c -0.8174,4e-5 -1.48618,-0.11092 -1.48618,-0.24656 z m 8.08044,-18.1445 c -0.21316,-1.5104 -0.53207,-3.79473 -0.7087,-5.07628 -0.17662,-1.28155 -0.37578,-2.70458 -0.44256,-3.16228 -0.10727,-0.73504 -0.20834,-0.21505 -0.86594,4.45458 -0.40948,2.90772 -0.77826,5.56653 -0.81949,5.90847 -0.0706,0.58533 0.0215,0.6217 1.57465,0.6217 h 1.64963 z m 7.22405,-0.24965 v -18.64078 h 1.5178 1.5178 v 15.14563 15.14564 h 3.28857 3.28856 v 3.49514 3.49515 h -4.80636 -4.80637 z m -209.203467,5.27056 c -0.89428,-0.67018 -1.4575,-2.82882 -1.35606,-5.19731 0.0753,-1.75726 0.3815,-2.94136 0.97871,-3.78428 0.42052,-0.59353 1.31204,-0.61629 24.13514,-0.61629 21.60324,0 23.73674,0.0478 24.13116,0.54034 0.6586,0.82249 0.99687,2.29692 0.99687,4.34509 0,1.97888 -0.27657,3.20623 -0.96185,4.26852 -0.42496,0.65876 -0.6761,0.66632 -23.95537,0.72072 -15.31471,0.0358 -23.68042,-0.0608 -23.9686,-0.27679 z m 0.0674,-14.29912 c -0.934,-0.57972 -1.52864,-2.75676 -1.42349,-5.21165 0.0753,-1.75726 0.3815,-2.94136 0.97871,-3.78428 0.42052,-0.59353 1.31204,-0.61629 24.13514,-0.61629 21.60324,0 23.73674,0.0478 24.13116,0.54035 0.6586,0.82248 0.99687,2.29692 0.99687,4.34509 0,1.97888 -0.27657,3.20623 -0.96185,4.26851 -0.42497,0.65878 -0.67506,0.66629 -23.89213,0.71772 -14.19772,0.0315 -23.66078,-0.071 -23.96441,-0.25945 z m 5.20488,-14.4195 c -0.64568,-0.60913 -0.92273,-1.3228 -1.16702,-3.006206 -0.35464,-2.44385 0.14309,-5.17416 1.12039,-6.145919 0.24558,-0.24419 6.01489,-0.35389 18.59305,-0.35353 17.11,3.3e-4 18.2642,0.0365 18.67716,0.582519 1.30482,1.72527 1.36486,6.57478 0.10612,8.570916 -0.41408,0.65665 -0.66856,0.66671 -18.63341,0.73666 -15.14006,0.059 -18.29506,-0.006 -18.69629,-0.38444 z"
   id="path26601" /></svg>
